<?xml version="1.0" encoding="UTF-8" standalone="no"?>
<svg width="81px" height="81px" viewBox="0 0 81 81" version="1.1" xmlns="http://www.w3.org/2000/svg" xmlns:xlink="http://www.w3.org/1999/xlink">
    <!-- Generator: Sketch 40.3 (33839) - http://www.bohemiancoding.com/sketch -->
    <title>agree</title>
    <desc>Created with Sketch.</desc>
    <defs>
        <linearGradient x1="50%" y1="0%" x2="50%" y2="100%" id="linearGradient-1">
            <stop stop-color="#D2F4EB" offset="0%"></stop>
            <stop stop-color="#42D3AA" offset="100%"></stop>
        </linearGradient>
        <linearGradient x1="50%" y1="0%" x2="50%" y2="100%" id="linearGradient-2">
            <stop stop-color="#FEFAEE" offset="0%"></stop>
            <stop stop-color="#FFE49E" offset="44.0948202%"></stop>
            <stop stop-color="#FFC938" offset="100%"></stop>
        </linearGradient>
    </defs>
    <g id="Page-1" stroke="none" stroke-width="1" fill="none" fill-rule="evenodd">
        <g id="agree">
            <g id="Group-2" transform="translate(11.000000, 23.000000)">
                <path d="M55.6015411,17.0310352 L48.8358363,5.47896256 C48.6454212,5.15312906 48.2452653,5.01656232 47.8934236,5.15482906 C47.8752347,5.16219573 46.0120086,5.89092944 44.0521539,5.89092944 C43.2978827,5.89092944 42.3566068,5.4370292 41.2652724,4.91172893 C39.7618456,4.18809523 37.8906619,3.28709476 35.7119719,3.28709476 C33.7146026,3.28709476 32.0218975,3.85546172 30.6139625,4.67939548 C29.1167881,3.62879494 27.456482,3.01509462 25.6699903,2.86436121 C23.5003948,2.68246112 21.5592975,3.42139483 19.9990304,4.01639514 C18.8684761,4.44819536 17.8942328,4.82559555 17.1393932,4.75702885 C15.1971591,4.5932621 13.3907733,3.70982831 13.3737212,3.70132831 C13.0360896,3.53416156 12.6257024,3.63729494 12.4080039,3.94556177 L4.68908675,14.8867674 C4.45945181,15.2114676 4.51913416,15.6580011 4.82607195,15.9118679 L13.0287004,22.6903381 L13.0076694,22.7113048 C12.4017515,23.3159384 12.0675303,24.1183388 12.0675303,24.9728726 C12.0675303,25.827973 12.4017515,26.6315068 13.007101,27.2350071 C13.613019,27.8385074 14.4190149,28.1717076 15.2761671,28.1717076 C15.467719,28.1717076 15.6564289,28.1524409 15.84116,28.1195742 C15.8451388,28.9684413 16.1782232,29.7657417 16.7801623,30.3664087 C17.3860803,30.969909 18.1920762,31.3031092 19.0492284,31.3031092 C19.3243356,31.3031092 19.5937588,31.2657092 19.8535191,31.1977091 C19.8989914,31.9519428 20.2059292,32.6931432 20.7828585,33.2671769 C21.3887765,33.8712438 22.194204,34.2033107 23.0513562,34.2033107 C23.2679179,34.2033107 23.4805007,34.182344 23.6879679,34.141544 C25.1061342,35.9044449 26.9324141,36.4563785 28.5478164,36.4563785 C29.5970889,36.4563785 30.5559853,36.2246117 31.2568266,35.9429782 C31.7905574,36.1175117 32.3714656,36.2127117 32.959763,36.2127117 C34.2386705,36.2127117 35.4357279,35.7763781 36.2400186,35.0538778 C36.6225541,35.2102779 37.0352149,35.2930112 37.4615174,35.2930112 C38.319238,35.2930112 39.1246655,34.9609444 39.7294466,34.3568774 C40.1909901,33.8973105 40.4933807,33.3232769 40.612177,32.6988099 C41.1004355,32.97421 41.6455342,33.1147434 42.1917698,33.1147434 C43.0125443,33.1147434 43.8355923,32.8030766 44.4602675,32.1803096 C44.9968403,31.645376 45.319125,30.952909 45.3867649,30.2088753 C45.6874503,30.3006753 46.0051878,30.3482754 46.3286093,30.3482754 C47.1857615,30.3482754 47.9923258,30.0156418 48.5971069,29.4121415 C49.2030249,28.8080746 49.537246,28.0051075 49.537246,27.1505737 C49.537246,26.2954733 49.2030249,25.4919395 48.5971069,24.8884392 L47.3272939,23.6219386 L55.3770218,18.0397024 C55.7055589,17.8136022 55.8027559,17.373302 55.6015411,17.0310352 L55.6015411,17.0310352 Z" id="Shape" fill="#30485F"></path>
                <rect id="Rectangle" fill="#30485F" transform="translate(53.959712, 10.197931) rotate(-30.000000) translate(-53.959712, -10.197931) " x="50.6423323" y="2.70991274" width="6.63475909" height="14.9760365"></rect>
                <rect id="Rectangle" fill="url(#linearGradient-1)" transform="translate(53.959712, 10.197931) rotate(-30.000000) translate(-53.959712, -10.197931) " x="51.871105" y="4.15463323" width="4.17721368" height="12.0865956"></rect>
                <path d="M28.7842722,33.8485772 C28.891132,34.2106773 29.1088305,34.5438775 29.4561249,34.8657443 C28.2522467,35.0669111 26.5140693,34.9864444 25.1129551,33.4587103 C25.1840055,33.3997769 25.2544875,33.3368769 25.3209907,33.2705769 L28.5966991,30.0048752 C28.6370557,29.9646418 28.6734335,29.9215751 28.7109481,29.8785084 C29.855144,30.7761089 29.6010678,31.2254758 29.2105747,31.9105762 C28.9167102,32.4245431 28.5517952,33.0660101 28.7842722,33.8485772 L28.7842722,33.8485772 Z" id="Path" fill="#FFFFFF"></path>
                <path d="M47.5188458,25.9656731 C47.8354465,26.2824399 48.0099463,26.7029068 48.0099463,27.1505737 C48.0099463,27.5971073 47.8348781,28.0175742 47.5188458,28.3349077 C47.20054,28.6522411 46.7793531,28.8245079 46.3303145,28.8245079 C45.8818442,28.8245079 45.4595206,28.6505411 45.1417831,28.3349077 L37.5496199,20.7665038 C37.2517765,20.4695703 36.7680653,20.4695703 36.4696536,20.7665038 C36.1712418,21.0628706 36.1712418,21.5456708 36.4696536,21.843171 L43.3780276,28.7304412 C43.3791644,28.7327079 43.3803012,28.7338412 43.381438,28.7349745 C43.6997439,29.0517414 43.8742437,29.4722082 43.8742437,29.9193085 C43.8742437,30.3669754 43.6986071,30.7874422 43.381438,31.1042091 C43.0637006,31.4204092 42.6419453,31.594376 42.1934751,31.594376 C41.7450048,31.594376 41.3232496,31.4198426 41.0055121,31.1042091 L39.7339939,29.8371418 C39.7328571,29.8360084 39.7317202,29.8337418 39.7305834,29.8337418 C39.7305834,29.8326084 39.7294466,29.8326084 39.7283098,29.8314751 L35.2055246,25.3225061 C34.9076812,25.0255726 34.42397,25.0255726 34.1255582,25.3225061 C33.8277149,25.6188729 33.8277149,26.1016732 34.1255582,26.3991733 L38.6540275,30.9149423 C38.9694914,31.2322758 39.142286,31.650476 39.142286,32.0958763 C39.142286,32.5435432 38.9666494,32.96401 38.6506171,33.2807769 C38.3328797,33.5981104 37.9111244,33.7709438 37.4626542,33.7709438 L37.4615174,33.7709438 C37.0130471,33.7709438 36.5918603,33.5964104 36.2735544,33.2807769 L33.4963358,30.5120421 C33.1984924,30.2151086 32.7142128,30.2151086 32.415801,30.5120421 C32.1179577,30.8095423 32.1179577,31.2923425 32.415801,31.589276 L34.9622479,34.1273773 C34.4427273,34.4781441 33.7185815,34.6906443 32.959763,34.6906443 C32.4567261,34.6906443 31.9650572,34.5999775 31.5353443,34.4305441 C30.4565148,33.8650105 30.2774677,33.5108436 30.2484791,33.4156436 C30.2041437,33.2654769 30.334308,33.0206767 30.5383648,32.6619765 C31.1846394,31.5286426 31.6649402,30.1896086 29.4367992,28.5179411 C29.4993236,28.2669076 29.5357014,28.0073741 29.5357014,27.7416073 C29.5357014,26.8865069 29.2020486,26.0841065 28.5961307,25.4800395 C27.9907811,24.8759725 27.1847852,24.5427724 26.327633,24.5427724 C26.0525258,24.5427724 25.7831026,24.5807391 25.5233423,24.6481724 C25.4773016,23.8656054 25.1533117,23.1374383 24.592866,22.5792714 C23.9875165,21.975771 23.1815206,21.6425709 22.3243684,21.6425709 C21.4672161,21.6425709 20.6612202,21.975771 20.0553023,22.5792714 L19.8512455,22.7827048 C19.7159655,22.2109378 19.427785,21.6862042 19.0009141,21.2600707 C18.3955646,20.6560037 17.5895687,20.3239369 16.731848,20.3239369 C15.8746958,20.3239369 15.0692683,20.6560037 14.4633504,21.2600707 L14.1092351,21.6131042 C14.0910462,21.5944042 14.0745625,21.5757042 14.0541,21.5575708 L6.34484564,15.1871009 L13.2975551,5.33332915 C14.0677416,5.64952931 15.4819291,6.14649623 17.0109341,6.27512963 C18.1090893,6.36409635 19.2936418,5.91642945 20.5458344,5.43929587 C22.0333459,4.87149558 23.7175249,4.22606191 25.5415312,4.38246199 C26.8670478,4.49409538 28.1112826,4.91002893 29.2566153,5.61156263 C27.7713774,6.7936299 26.7061896,8.20123062 26.0332001,9.26599784 C25.6677167,9.8445648 22.4835213,14.9978341 23.3213478,17.5994021 C23.5208574,18.2176358 23.9306762,18.668136 24.5070371,18.9027361 C24.9293608,19.0750029 25.3607789,19.1617029 25.789355,19.1617029 C27.8043448,19.1617029 29.3299394,17.3109686 30.8038092,15.5214344 C31.8832071,14.2107337 32.9967092,12.8603664 34.082928,12.5707995 L41.026543,19.4943364 L41.7620569,20.2270368 L45.6016214,24.0554388 L45.6027582,24.0554388 L47.5188458,25.9656731 L47.5188458,25.9656731 Z" id="Path" fill="#FFFFFF"></path>
                <path d="M42.1076462,18.4165359 C42.1065093,18.4159692 34.8877871,11.2192988 34.8877871,11.2192988 C34.7439811,11.0759321 34.5484503,10.9960321 34.3478039,10.9960321 C32.4527472,11.1201321 31.0141184,12.866033 29.6226671,14.5547006 C28.3733166,16.0705347 27.0813358,17.6379355 25.7887866,17.6379355 C25.5563097,17.6379355 25.3261063,17.5903355 25.0839665,17.4917354 C24.969149,17.444702 24.852058,17.3687687 24.7764603,17.1330352 C24.3581155,15.8342346 25.7785554,12.5282995 27.326886,10.0774649 C28.5699841,8.11056391 31.3119618,4.80972888 35.7119719,4.80972888 C37.5410938,4.80972888 39.1655905,5.59286262 40.6008089,6.28362964 C41.8080976,6.86446327 42.9483147,7.41356355 44.0521539,7.41356355 C45.5868429,7.41356355 47.0379766,7.03729669 47.8314677,6.78739656 L53.9258881,17.1908353 L46.2302755,22.527138 L42.1076462,18.4165359 Z" id="Path" fill="#FFFFFF"></path>
                <path d="M23.0519246,32.6823766 C22.6034544,32.6823766 22.1816991,32.5078431 21.8639617,32.1927763 C21.2097294,31.5411093 21.2097294,30.4803088 21.8622565,29.8258084 L24.5934344,27.102407 C24.5951397,27.1001403 24.5968449,27.0978737 24.5985501,27.0967403 L25.13967,26.5567067 C25.4568391,26.2405066 25.8785944,26.0671065 26.3282014,26.0671065 C26.7761032,26.0671065 27.1984269,26.2416399 27.5161644,26.5578401 C27.8333334,26.8740402 28.0078332,27.2950738 28.0078332,27.742174 C28.0078332,28.1892742 27.832765,28.6097411 27.5155959,28.926508 L24.240456,32.1927763 C23.9227185,32.5078431 23.5009633,32.6823766 23.0519246,32.6823766 L23.0519246,32.6823766 Z" id="Path" fill="#FFFFFF"></path>
                <path d="M20.7817217,28.7474412 L20.2377598,29.2908748 C19.9200223,29.607075 19.498267,29.7804751 19.0497968,29.7804751 C18.6007582,29.7804751 18.1790029,29.6059416 17.8612654,29.2908748 C17.543528,28.9735413 17.3690282,28.5530744 17.3690282,28.1059742 C17.3690282,27.6583073 17.5440964,27.2378404 17.8612654,26.9210736 L21.1364054,23.6553719 C21.4541429,23.3391717 21.8758981,23.165205 22.3249368,23.165205 C22.773407,23.165205 23.1957307,23.3397384 23.5134681,23.6559386 C23.8306372,23.9721387 24.005137,24.3931723 24.005137,24.8402725 C24.005137,25.2868061 23.8306372,25.705573 23.5151733,26.0223398 L20.7839954,28.7463079 C20.7834269,28.7463079 20.7828585,28.7474412 20.7817217,28.7474412 L20.7817217,28.7474412 Z" id="Path" fill="#FFFFFF"></path>
                <path d="M16.4641301,26.1577732 C16.146961,26.4751067 15.7246373,26.6485068 15.2761671,26.6485068 C14.8271285,26.6485068 14.4059416,26.47454 14.0876358,26.1577732 C13.7704667,25.841573 13.5959669,25.4211062 13.5959669,24.9728726 C13.5959669,24.5257724 13.7710351,24.1058721 14.0876358,23.7885386 L15.5438851,22.3373046 C15.8616225,22.0205377 16.2833778,21.846571 16.731848,21.846571 C17.1814551,21.846571 17.6032103,22.0211044 17.9203794,22.3373046 C18.2381169,22.6540714 18.4120483,23.0739716 18.4120483,23.5216385 C18.4120483,23.9687387 18.23698,24.3892056 17.9203794,24.7059725 L16.4641301,26.1577732 L16.4641301,26.1577732 Z" id="Path" fill="#FFFFFF"></path>
                <rect id="Rectangle" fill="#30485F" transform="translate(7.070237, 8.399284) rotate(35.000000) translate(-7.070237, -8.399284) " x="3.75218239" y="0.903277884" width="6.63610884" height="14.9920125"></rect>
                <rect id="Rectangle" fill="url(#linearGradient-2)" transform="translate(6.906478, 8.284619) rotate(35.000000) translate(-6.906478, -8.284619) " x="4.81738524" y="2.3453416" width="4.17818544" height="11.8785547"></rect>
            </g>
        </g>
    </g>
</svg>