<?xml version="1.0" encoding="UTF-8" standalone="no"?>
<svg width="81px" height="81px" viewBox="0 0 81 81" version="1.1" xmlns="http://www.w3.org/2000/svg" xmlns:xlink="http://www.w3.org/1999/xlink">
    <!-- Generator: Sketch 40.3 (33839) - http://www.bohemiancoding.com/sketch -->
    <title>agree</title>
    <desc>Created with Sketch.</desc>
    <defs>
        <linearGradient x1="50%" y1="0%" x2="50%" y2="100%" id="linearGradient-1">
            <stop stop-color="#D2F4EB" offset="0%"></stop>
            <stop stop-color="#42D3AA" offset="100%"></stop>
        </linearGradient>
        <rect id="path-2" x="51.6423323" y="2.70991274" width="6.63475909" height="14.9760365"></rect>
        <mask id="mask-3" maskContentUnits="userSpaceOnUse" maskUnits="objectBoundingBox" x="0" y="0" width="6.63475909" height="14.9760365" fill="white">
            <use xlink:href="#path-2"></use>
        </mask>
        <linearGradient x1="50%" y1="0%" x2="50%" y2="100%" id="linearGradient-4">
            <stop stop-color="#FEFAEE" offset="0%"></stop>
            <stop stop-color="#FFC938" offset="100%"></stop>
        </linearGradient>
        <rect id="path-5" x="4.20191191" y="0.687656115" width="6.91893943" height="14.9760365"></rect>
        <mask id="mask-6" maskContentUnits="userSpaceOnUse" maskUnits="objectBoundingBox" x="0" y="0" width="6.91893943" height="14.9760365" fill="white">
            <use xlink:href="#path-5"></use>
        </mask>
    </defs>
    <g id="Page-1" stroke="none" stroke-width="1" fill="none" fill-rule="evenodd">
        <g id="agree">
            <g id="Group-2" transform="translate(10.000000, 23.000000)">
                <path d="M56.6015411,17.0310352 L49.8358363,5.47896256 C49.6454212,5.15312906 49.2452653,5.01656232 48.8934236,5.15482906 C48.8752347,5.16219573 47.0120086,5.89092944 45.0521539,5.89092944 C44.2978827,5.89092944 43.3566068,5.4370292 42.2652724,4.91172893 C40.7618456,4.18809523 38.8906619,3.28709476 36.7119719,3.28709476 C34.7146026,3.28709476 33.0218975,3.85546172 31.6139625,4.67939548 C30.1167881,3.62879494 28.456482,3.01509462 26.6699903,2.86436121 C24.5003948,2.68246112 22.5592975,3.42139483 20.9990304,4.01639514 C19.8684761,4.44819536 18.8942328,4.82559555 18.1393932,4.75702885 C16.1971591,4.5932621 14.3907733,3.70982831 14.3737212,3.70132831 C14.0360896,3.53416156 13.6257024,3.63729494 13.4080039,3.94556177 L5.68908675,14.8867674 C5.45945181,15.2114676 5.51913416,15.6580011 5.82607195,15.9118679 L14.0287004,22.6903381 L14.0076694,22.7113048 C13.4017515,23.3159384 13.0675303,24.1183388 13.0675303,24.9728726 C13.0675303,25.827973 13.4017515,26.6315068 14.007101,27.2350071 C14.613019,27.8385074 15.4190149,28.1717076 16.2761671,28.1717076 C16.467719,28.1717076 16.6564289,28.1524409 16.84116,28.1195742 C16.8451388,28.9684413 17.1782232,29.7657417 17.7801623,30.3664087 C18.3860803,30.969909 19.1920762,31.3031092 20.0492284,31.3031092 C20.3243356,31.3031092 20.5937588,31.2657092 20.8535191,31.1977091 C20.8989914,31.9519428 21.2059292,32.6931432 21.7828585,33.2671769 C22.3887765,33.8712438 23.194204,34.2033107 24.0513562,34.2033107 C24.2679179,34.2033107 24.4805007,34.182344 24.6879679,34.141544 C26.1061342,35.9044449 27.9324141,36.4563785 29.5478164,36.4563785 C30.5970889,36.4563785 31.5559853,36.2246117 32.2568266,35.9429782 C32.7905574,36.1175117 33.3714656,36.2127117 33.959763,36.2127117 C35.2386705,36.2127117 36.4357279,35.7763781 37.2400186,35.0538778 C37.6225541,35.2102779 38.0352149,35.2930112 38.4615174,35.2930112 C39.319238,35.2930112 40.1246655,34.9609444 40.7294466,34.3568774 C41.1909901,33.8973105 41.4933807,33.3232769 41.612177,32.6988099 C42.1004355,32.97421 42.6455342,33.1147434 43.1917698,33.1147434 C44.0125443,33.1147434 44.8355923,32.8030766 45.4602675,32.1803096 C45.9968403,31.645376 46.319125,30.952909 46.3867649,30.2088753 C46.6874503,30.3006753 47.0051878,30.3482754 47.3286093,30.3482754 C48.1857615,30.3482754 48.9923258,30.0156418 49.5971069,29.4121415 C50.2030249,28.8080746 50.537246,28.0051075 50.537246,27.1505737 C50.537246,26.2954733 50.2030249,25.4919395 49.5971069,24.8884392 L48.3272939,23.6219386 L56.3770218,18.0397024 C56.7055589,17.8136022 56.8027559,17.373302 56.6015411,17.0310352 L56.6015411,17.0310352 Z" id="Shape" fill="#30485F"></path>
                <use id="Rectangle" stroke="#30485F" mask="url(#mask-3)" stroke-width="4" fill="url(#linearGradient-1)" transform="translate(54.959712, 10.197931) rotate(-30.000000) translate(-54.959712, -10.197931) " xlink:href="#path-2"></use>
                <path d="M29.7842722,33.8485772 C29.891132,34.2106773 30.1088305,34.5438775 30.4561249,34.8657443 C29.2522467,35.0669111 27.5140693,34.9864444 26.1129551,33.4587103 C26.1840055,33.3997769 26.2544875,33.3368769 26.3209907,33.2705769 L29.5966991,30.0048752 C29.6370557,29.9646418 29.6734335,29.9215751 29.7109481,29.8785084 C30.855144,30.7761089 30.6010678,31.2254758 30.2105747,31.9105762 C29.9167102,32.4245431 29.5517952,33.0660101 29.7842722,33.8485772 L29.7842722,33.8485772 Z" id="Path" fill="#FFFFFF"></path>
                <path d="M48.5188458,25.9656731 C48.8354465,26.2824399 49.0099463,26.7029068 49.0099463,27.1505737 C49.0099463,27.5971073 48.8348781,28.0175742 48.5188458,28.3349077 C48.20054,28.6522411 47.7793531,28.8245079 47.3303145,28.8245079 C46.8818442,28.8245079 46.4595206,28.6505411 46.1417831,28.3349077 L38.5496199,20.7665038 C38.2517765,20.4695703 37.7680653,20.4695703 37.4696536,20.7665038 C37.1712418,21.0628706 37.1712418,21.5456708 37.4696536,21.843171 L44.3780276,28.7304412 C44.3791644,28.7327079 44.3803012,28.7338412 44.381438,28.7349745 C44.6997439,29.0517414 44.8742437,29.4722082 44.8742437,29.9193085 C44.8742437,30.3669754 44.6986071,30.7874422 44.381438,31.1042091 C44.0637006,31.4204092 43.6419453,31.594376 43.1934751,31.594376 C42.7450048,31.594376 42.3232496,31.4198426 42.0055121,31.1042091 L40.7339939,29.8371418 C40.7328571,29.8360084 40.7317202,29.8337418 40.7305834,29.8337418 C40.7305834,29.8326084 40.7294466,29.8326084 40.7283098,29.8314751 L36.2055246,25.3225061 C35.9076812,25.0255726 35.42397,25.0255726 35.1255582,25.3225061 C34.8277149,25.6188729 34.8277149,26.1016732 35.1255582,26.3991733 L39.6540275,30.9149423 C39.9694914,31.2322758 40.142286,31.650476 40.142286,32.0958763 C40.142286,32.5435432 39.9666494,32.96401 39.6506171,33.2807769 C39.3328797,33.5981104 38.9111244,33.7709438 38.4626542,33.7709438 L38.4615174,33.7709438 C38.0130471,33.7709438 37.5918603,33.5964104 37.2735544,33.2807769 L34.4963358,30.5120421 C34.1984924,30.2151086 33.7142128,30.2151086 33.415801,30.5120421 C33.1179577,30.8095423 33.1179577,31.2923425 33.415801,31.589276 L35.9622479,34.1273773 C35.4427273,34.4781441 34.7185815,34.6906443 33.959763,34.6906443 C33.4567261,34.6906443 32.9650572,34.5999775 32.5353443,34.4305441 C31.4565148,33.8650105 31.2774677,33.5108436 31.2484791,33.4156436 C31.2041437,33.2654769 31.334308,33.0206767 31.5383648,32.6619765 C32.1846394,31.5286426 32.6649402,30.1896086 30.4367992,28.5179411 C30.4993236,28.2669076 30.5357014,28.0073741 30.5357014,27.7416073 C30.5357014,26.8865069 30.2020486,26.0841065 29.5961307,25.4800395 C28.9907811,24.8759725 28.1847852,24.5427724 27.327633,24.5427724 C27.0525258,24.5427724 26.7831026,24.5807391 26.5233423,24.6481724 C26.4773016,23.8656054 26.1533117,23.1374383 25.592866,22.5792714 C24.9875165,21.975771 24.1815206,21.6425709 23.3243684,21.6425709 C22.4672161,21.6425709 21.6612202,21.975771 21.0553023,22.5792714 L20.8512455,22.7827048 C20.7159655,22.2109378 20.427785,21.6862042 20.0009141,21.2600707 C19.3955646,20.6560037 18.5895687,20.3239369 17.731848,20.3239369 C16.8746958,20.3239369 16.0692683,20.6560037 15.4633504,21.2600707 L15.1092351,21.6131042 C15.0910462,21.5944042 15.0745625,21.5757042 15.0541,21.5575708 L7.34484564,15.1871009 L14.2975551,5.33332915 C15.0677416,5.64952931 16.4819291,6.14649623 18.0109341,6.27512963 C19.1090893,6.36409635 20.2936418,5.91642945 21.5458344,5.43929587 C23.0333459,4.87149558 24.7175249,4.22606191 26.5415312,4.38246199 C27.8670478,4.49409538 29.1112826,4.91002893 30.2566153,5.61156263 C28.7713774,6.7936299 27.7061896,8.20123062 27.0332001,9.26599784 C26.6677167,9.8445648 23.4835213,14.9978341 24.3213478,17.5994021 C24.5208574,18.2176358 24.9306762,18.668136 25.5070371,18.9027361 C25.9293608,19.0750029 26.3607789,19.1617029 26.789355,19.1617029 C28.8043448,19.1617029 30.3299394,17.3109686 31.8038092,15.5214344 C32.8832071,14.2107337 33.9967092,12.8603664 35.082928,12.5707995 L42.026543,19.4943364 L42.7620569,20.2270368 L46.6016214,24.0554388 L46.6027582,24.0554388 L48.5188458,25.9656731 L48.5188458,25.9656731 Z" id="Path" fill="#FFFFFF"></path>
                <path d="M43.1076462,18.4165359 C43.1065093,18.4159692 35.8877871,11.2192988 35.8877871,11.2192988 C35.7439811,11.0759321 35.5484503,10.9960321 35.3478039,10.9960321 C33.4527472,11.1201321 32.0141184,12.866033 30.6226671,14.5547006 C29.3733166,16.0705347 28.0813358,17.6379355 26.7887866,17.6379355 C26.5563097,17.6379355 26.3261063,17.5903355 26.0839665,17.4917354 C25.969149,17.444702 25.852058,17.3687687 25.7764603,17.1330352 C25.3581155,15.8342346 26.7785554,12.5282995 28.326886,10.0774649 C29.5699841,8.11056391 32.3119618,4.80972888 36.7119719,4.80972888 C38.5410938,4.80972888 40.1655905,5.59286262 41.6008089,6.28362964 C42.8080976,6.86446327 43.9483147,7.41356355 45.0521539,7.41356355 C46.5868429,7.41356355 48.0379766,7.03729669 48.8314677,6.78739656 L54.9258881,17.1908353 L47.2302755,22.527138 L43.1076462,18.4165359 Z" id="Path" fill="#FFFFFF"></path>
                <path d="M24.0519246,32.6823766 C23.6034544,32.6823766 23.1816991,32.5078431 22.8639617,32.1927763 C22.2097294,31.5411093 22.2097294,30.4803088 22.8622565,29.8258084 L25.5934344,27.102407 C25.5951397,27.1001403 25.5968449,27.0978737 25.5985501,27.0967403 L26.13967,26.5567067 C26.4568391,26.2405066 26.8785944,26.0671065 27.3282014,26.0671065 C27.7761032,26.0671065 28.1984269,26.2416399 28.5161644,26.5578401 C28.8333334,26.8740402 29.0078332,27.2950738 29.0078332,27.742174 C29.0078332,28.1892742 28.832765,28.6097411 28.5155959,28.926508 L25.240456,32.1927763 C24.9227185,32.5078431 24.5009633,32.6823766 24.0519246,32.6823766 L24.0519246,32.6823766 Z" id="Path" fill="#FFFFFF"></path>
                <path d="M21.7817217,28.7474412 L21.2377598,29.2908748 C20.9200223,29.607075 20.498267,29.7804751 20.0497968,29.7804751 C19.6007582,29.7804751 19.1790029,29.6059416 18.8612654,29.2908748 C18.543528,28.9735413 18.3690282,28.5530744 18.3690282,28.1059742 C18.3690282,27.6583073 18.5440964,27.2378404 18.8612654,26.9210736 L22.1364054,23.6553719 C22.4541429,23.3391717 22.8758981,23.165205 23.3249368,23.165205 C23.773407,23.165205 24.1957307,23.3397384 24.5134681,23.6559386 C24.8306372,23.9721387 25.005137,24.3931723 25.005137,24.8402725 C25.005137,25.2868061 24.8306372,25.705573 24.5151733,26.0223398 L21.7839954,28.7463079 C21.7834269,28.7463079 21.7828585,28.7474412 21.7817217,28.7474412 L21.7817217,28.7474412 Z" id="Path" fill="#FFFFFF"></path>
                <path d="M17.4641301,26.1577732 C17.146961,26.4751067 16.7246373,26.6485068 16.2761671,26.6485068 C15.8271285,26.6485068 15.4059416,26.47454 15.0876358,26.1577732 C14.7704667,25.841573 14.5959669,25.4211062 14.5959669,24.9728726 C14.5959669,24.5257724 14.7710351,24.1058721 15.0876358,23.7885386 L16.5438851,22.3373046 C16.8616225,22.0205377 17.2833778,21.846571 17.731848,21.846571 C18.1814551,21.846571 18.6032103,22.0211044 18.9203794,22.3373046 C19.2381169,22.6540714 19.4120483,23.0739716 19.4120483,23.5216385 C19.4120483,23.9687387 19.23698,24.3892056 18.9203794,24.7059725 L17.4641301,26.1577732 L17.4641301,26.1577732 Z" id="Path" fill="#FFFFFF"></path>
                <use id="Rectangle" stroke="#30485F" mask="url(#mask-6)" stroke-width="4" fill="url(#linearGradient-4)" transform="translate(7.661382, 8.175674) rotate(34.000000) translate(-7.661382, -8.175674) " xlink:href="#path-5"></use>
            </g>
        </g>
    </g>
</svg>