<?xml version="1.0" encoding="UTF-8" standalone="no"?>
<svg width="81px" height="81px" viewBox="0 0 81 81" version="1.1" xmlns="http://www.w3.org/2000/svg" xmlns:xlink="http://www.w3.org/1999/xlink">
    <!-- Generator: Sketch 40.3 (33839) - http://www.bohemiancoding.com/sketch -->
    <title>pay</title>
    <desc>Created with Sketch.</desc>
    <defs>
        <linearGradient x1="50%" y1="0%" x2="50%" y2="100%" id="linearGradient-1">
            <stop stop-color="#FFE769" offset="0%"></stop>
            <stop stop-color="#FFC938" offset="100%"></stop>
        </linearGradient>
        <linearGradient x1="50%" y1="0%" x2="50%" y2="100%" id="linearGradient-2">
            <stop stop-color="#D2F4EB" offset="0%"></stop>
            <stop stop-color="#42D3AA" offset="100%"></stop>
        </linearGradient>
    </defs>
    <g id="Page-1" stroke="none" stroke-width="1" fill="none" fill-rule="evenodd">
        <g id="pay">
            <g id="Group-2" transform="translate(16.000000, 21.000000)">
                <g id="noun_1108873_cc">
                    <g id="Payment">
                        <path d="M44.1869218,3.00172091e-15 L4.16857753,3.00172091e-15 C1.86747842,0.00279336852 0.00275636045,1.89255198 0,4.22454662 L0,29.5718263 C0.00275636045,31.903821 1.86747842,33.7935796 4.16857753,33.7963729 L44.1869218,33.7963729 C46.488021,33.7935796 48.352743,31.903821 48.3554994,29.5718263 L48.3554994,4.22454662 C48.352743,1.89255198 46.488021,0.00279336852 44.1869218,0 L44.1869218,3.00172091e-15 Z" id="Shape" fill="#30485F"></path>
                        <polygon id="Path" fill="#42D3AA" points="41.6857753 7.60418391 43.3532063 7.60418391 43.3532063 12.6736399 41.6857753 12.6736399"></polygon>
                        <path d="M4.16857753,1.68981865 L44.1869218,1.68981865 C45.5682669,1.68981865 46.6880684,2.82465502 46.6880684,4.22454662 L46.6880684,5.91436527 L1.66743101,5.91436527 L1.66743101,4.22454662 C1.66743101,2.82465502 2.78723245,1.68981865 4.16857753,1.68981865 L4.16857753,1.68981865 Z" id="Path" fill="#FFFFFF"></path>
                        <path d="M44.1869218,32.1065543 L4.16857753,32.1065543 C2.78723245,32.1065543 1.66743101,30.9717179 1.66743101,29.5718263 L1.66743101,14.3634585 L46.6880684,14.3634585 L46.6880684,29.5718263 C46.6880684,30.9717179 45.5682669,32.1065543 44.1869218,32.1065543 L44.1869218,32.1065543 Z" id="Path" fill="#FFFFFF"></path>
                        <path d="M37.9340555,18.5880051 C37.0442041,18.5892124 36.1743699,18.8557231 35.432909,19.3543379 C34.6914481,18.8557231 33.8216139,18.5892124 32.9317625,18.5880051 C30.3992965,18.5880051 28.3463272,20.6685385 28.3463272,23.2350064 C28.3463272,25.8014743 30.3992965,27.8820077 32.9317625,27.8820077 C33.8216139,27.8808004 34.6914481,27.6142897 35.432909,27.1156749 C36.1743699,27.6142897 37.0442041,27.8808004 37.9340555,27.8820077 C40.4665215,27.8820077 42.5194908,25.8014743 42.5194908,23.2350064 C42.5194908,20.6685385 40.4665215,18.5880051 37.9340555,18.5880051 L37.9340555,18.5880051 Z" id="Shape" fill="#30485F"></path>
                        <path d="M37.9340555,26.192189 C37.2145171,26.1885664 36.5219471,25.9142625 35.9906647,25.4224766 C35.6734629,25.1327427 35.1915214,25.1327427 34.8743196,25.4224766 C33.7086843,26.4970969 31.9117204,26.4397166 30.8151538,25.2928601 C29.7185871,24.1460036 29.7185871,22.3240092 30.8151538,21.1771527 C31.9117204,20.0302962 33.7086843,19.9729159 34.8743196,21.0475362 C35.1915214,21.3372702 35.6734629,21.3372702 35.9906647,21.0475362 C36.9566712,20.1662137 38.3820342,20.0403605 39.483881,20.7391007 C40.5857278,21.4378408 41.0972529,22.7919787 40.737504,24.0577616 C40.3777551,25.3235445 39.2338432,26.1944708 37.9340555,26.192189 L37.9340555,26.192189 Z" id="Path" fill="url(#linearGradient-1)"></path>
                        <polygon id="Path" fill="url(#linearGradient-2)" transform="translate(39.184629, 10.138912) scale(1, -1) translate(-39.184629, -10.138912) " points="38.3509133 7.60418391 40.0183443 7.60418391 40.0183443 12.6736399 38.3509133 12.6736399"></polygon>
                        <polygon id="Path" fill="#42D3AA" points="35.0160513 7.60418391 36.6834823 7.60418391 36.6834823 12.6736399 35.0160513 12.6736399"></polygon>
                        <polygon id="Path" fill="url(#linearGradient-2)" transform="translate(32.514905, 10.138912) scale(1, -1) translate(-32.514905, -10.138912) " points="31.6811892 7.60418391 33.3486203 7.60418391 33.3486203 12.6736399 31.6811892 12.6736399"></polygon>
                        <polygon id="Path" fill="#42D3AA" points="28.3463272 7.60418391 30.0137582 7.60418391 30.0137582 12.6736399 28.3463272 12.6736399"></polygon>
                        <polygon id="Path" fill="url(#linearGradient-2)" transform="translate(25.845181, 10.138912) scale(1, -1) translate(-25.845181, -10.138912) " points="25.0114652 7.60418391 26.6788962 7.60418391 26.6788962 12.6736399 25.0114652 12.6736399"></polygon>
                        <polygon id="Path" fill="#42D3AA" points="21.6766032 7.60418391 23.3440342 7.60418391 23.3440342 12.6736399 21.6766032 12.6736399"></polygon>
                        <polygon id="Path" fill="url(#linearGradient-2)" transform="translate(19.175457, 10.138912) scale(1, -1) translate(-19.175457, -10.138912) " points="18.3417411 7.60418391 20.0091722 7.60418391 20.0091722 12.6736399 18.3417411 12.6736399"></polygon>
                        <polygon id="Path" fill="#42D3AA" points="15.0068791 7.60418391 16.6743101 7.60418391 16.6743101 12.6736399 15.0068791 12.6736399"></polygon>
                        <polygon id="Path" fill="url(#linearGradient-2)" transform="translate(12.505733, 10.138912) scale(1, -1) translate(-12.505733, -10.138912) " points="11.6720171 7.60418391 13.3394481 7.60418391 13.3394481 12.6736399 11.6720171 12.6736399"></polygon>
                        <polygon id="Path" fill="#42D3AA" points="8.33715506 7.60418391 10.0045861 7.60418391 10.0045861 12.6736399 8.33715506 12.6736399"></polygon>
                        <polygon id="Path" fill="url(#linearGradient-2)" transform="translate(5.836009, 10.138912) scale(1, -1) translate(-5.836009, -10.138912) " points="5.00229304 7.60418391 6.66972405 7.60418391 6.66972405 12.6736399 5.00229304 12.6736399"></polygon>
                        <polygon id="Path" fill="#42D3AA" points="1.66743101 7.60418391 3.33486203 7.60418391 3.33486203 12.6736399 1.66743101 12.6736399"></polygon>
                        <polygon id="Path" fill="url(#linearGradient-2)" transform="translate(45.854353, 10.138912) scale(1, -1) translate(-45.854353, -10.138912) " points="46.6880684 12.6736399 45.0206374 12.6736399 45.0206374 7.60418391 46.6880684 7.60418391"></polygon>
                    </g>
                </g>
                <g id="noun_962208_cc" transform="translate(6.725490, 21.421053)">
                    <g id="Group">
                        <path d="M11.1556692,17.5156659 L2.073236,17.5156659 C0.929989854,17.5156659 0,16.6370707 0,15.5571939 L0,8.66779588 C0,7.58791909 0.929989854,6.70932391 2.073236,6.70932391 L2.07664329,6.70932391 L2.07664329,4.2875066 C2.07664329,1.92344177 4.1123991,0 6.61475326,0 C9.11670657,0 11.1524624,1.92325242 11.1524624,4.2875066 L11.1558697,6.70932391 C12.2991158,6.70932391 13.2293061,7.58791909 13.2293061,8.66779588 L13.2293061,15.5571939 C13.2291057,16.6370707 12.2989154,17.5156659 11.1556692,17.5156659 L11.1556692,17.5156659 Z" id="Shape" fill="#30485F"></path>
                        <path d="M2.073236,7.65608596 C1.48257219,7.65608596 1.00214424,8.10996368 1.00214424,8.66779588 L1.00214424,15.5571939 C1.00214424,16.1150261 1.48257219,16.5689039 2.073236,16.5689039 L11.1556692,16.5689039 C11.7463331,16.5689039 12.2269614,16.1152155 12.2269614,15.5571939 L12.2269614,8.66779588 C12.2269614,8.10996368 11.7465335,7.65608596 11.1556692,7.65608596 L10.1501177,7.65608596 L10.1501177,4.2875066 C10.1501177,2.44548636 8.56412424,0.946762045 6.61455284,0.946762045 C4.664781,0.946762045 3.0785871,2.44548636 3.0785871,4.2875066 L3.0785871,7.65608596 L2.073236,7.65608596 L2.073236,7.65608596 Z" id="Path" fill="url(#linearGradient-2)"></path>
                        <path d="M9.74004029,7.65608596 L3.48906538,7.65608596 L3.48906538,4.2875066 C3.48906538,2.65907588 4.8912656,1.33436643 6.61475326,1.33436643 C8.3380405,1.33436643 9.74004029,2.65907588 9.74004029,4.2875066 L9.74004029,7.65608596 L9.74004029,7.65608596 Z" id="Path" fill="#30485F"></path>
                        <path d="M4.49120962,6.70932391 L8.73789605,6.70932391 L8.73789605,4.2875066 C8.73789605,3.18130982 7.78545816,2.28112847 6.61475326,2.28112847 C5.44384794,2.28112847 4.49120962,3.18112047 4.49120962,4.2875066 L4.49120962,6.70932391 L4.49120962,6.70932391 Z" id="Path" fill="#FFFFFF"></path>
                        <path d="M6.61455284,15.124713 C5.89481284,15.124713 5.30936018,14.5716146 5.30936018,13.8916501 L5.30936018,12.2643555 C4.91471578,11.921817 4.6856256,11.4366962 4.6856256,10.9226044 C4.6856256,9.91733242 5.55087694,9.09970872 6.61475326,9.09970872 C7.67862959,9.09970872 8.54388092,9.91733242 8.54388092,10.9226044 C8.54388092,11.4359387 8.31479075,11.9208703 7.92034678,12.2639768 L7.92034678,13.8916501 C7.92014635,14.5716146 7.33449326,15.124713 6.61455284,15.124713 L6.61455284,15.124713 Z" id="Path" fill="#30485F"></path>
                        <path d="M6.61455284,10.0466601 C6.10345927,10.0466601 5.68756941,10.4395664 5.68756941,10.9227937 C5.68756941,11.2123136 5.83889319,11.4828981 6.09263612,11.6463093 L6.31130399,11.7873768 L6.31130399,13.8916501 C6.31130399,14.04957 6.44719475,14.177951 6.61435241,14.177951 C6.78171049,14.177951 6.91780168,14.04957 6.91780168,13.8916501 L6.91780168,11.7877555 L7.13586827,11.6468773 C7.38981162,11.4825194 7.54133583,11.2117455 7.54133583,10.9227937 C7.54153626,10.4395664 7.1256464,10.0466601 6.61455284,10.0466601 L6.61455284,10.0466601 Z" id="Path" fill="#FFFFFF"></path>
                    </g>
                </g>
            </g>
        </g>
    </g>
</svg>