<?xml version="1.0" encoding="UTF-8" standalone="no"?>
<svg width="81px" height="81px" viewBox="0 0 81 81" version="1.1" xmlns="http://www.w3.org/2000/svg" xmlns:xlink="http://www.w3.org/1999/xlink">
    <!-- Generator: Sketch 40.3 (33839) - http://www.bohemiancoding.com/sketch -->
    <title>proposition</title>
    <desc>Created with Sketch.</desc>
    <defs>
        <linearGradient x1="50%" y1="-7.14317612%" x2="50%" y2="100%" id="linearGradient-1">
            <stop stop-color="#FEFAEE" offset="0%"></stop>
            <stop stop-color="#FFC938" offset="100%"></stop>
        </linearGradient>
        <linearGradient x1="50%" y1="0%" x2="50%" y2="100%" id="linearGradient-2">
            <stop stop-color="#D2F4EB" offset="0%"></stop>
            <stop stop-color="#42D3AA" offset="100%"></stop>
        </linearGradient>
    </defs>
    <g id="Page-1" stroke="none" stroke-width="1" fill="none" fill-rule="evenodd">
        <g id="proposition">
            <g id="Group" transform="translate(21.000000, 20.000000)">
                <path d="M36.7315139,31.3625627 C37.1634082,31.2952175 37.5004472,30.9361785 37.5004472,30.4826129 L37.5004472,0.907536967 C37.5008509,0.405693771 37.0968077,0 36.5975056,0 L11.5302781,0 C11.030976,0 10.6273364,0.405693771 10.6273364,0.907536967 L10.6273364,6.02008987 L0.629588241,9.59830894 C0.160559075,9.76667185 -0.0848537755,10.2859599 0.0818493617,10.757376 L9.95083654,38.6192072 C10.0311608,38.8463957 10.1978639,39.0313921 10.4146184,39.134844 C10.5365175,39.1936696 10.6685077,39.2228795 10.8017087,39.2228795 C10.9038295,39.2228795 11.006354,39.205029 11.104842,39.170545 L30.973192,32.0595446 L34.4291539,39.5198474 C34.6321846,39.9567795 34.997882,40.2943168 35.4483437,40.4594341 C35.6489526,40.5328647 35.8576342,40.5693771 36.0667195,40.5693771 C36.3278743,40.5693771 36.5882218,40.51258 36.8300019,40.3989858 L38.5523319,39.5928722 C39.4556773,39.1697336 39.8472076,38.0905882 39.4266152,37.1818341 L36.7315139,31.3625627 Z" id="Shape" fill="#30485F"></path>
                <polygon id="Path" fill="url(#linearGradient-1)" points="36.0667195 38.7538975 29.6258431 24.8503663 31.349384 24.0466869 31.3501913 24.0454698 37.7894532 37.947784"></polygon>
                <path d="M2.08672704,11.0040379 L10.6273364,7.94794667 L10.6273364,30.4830186 C10.6273364,30.9844561 11.030976,31.3905556 11.5302781,31.3905556 L27.4570878,31.3905556 L11.3494476,37.1562754 L2.08672704,11.0040379 L2.08672704,11.0040379 Z" id="Path" fill="url(#linearGradient-2)"></path>
                <path d="M35.6945639,1.81507393 L35.6945639,29.1239445 L32.6067213,22.456773 C32.5441571,22.3220827 32.4654474,22.1951005 32.373014,22.0802892 L29.9067763,19.018924 C29.5548026,18.5828032 29.0345112,18.3462837 28.5021106,18.3462837 C28.2453958,18.3462837 27.985452,18.4010524 27.7408464,18.515458 C26.9896732,18.8676002 26.5723099,19.6871016 26.7293257,20.505386 L27.4720224,24.3716476 C27.4998736,24.5176974 27.5462921,24.6596902 27.6076453,24.7935691 L29.8224156,29.5750759 L12.4332198,29.5750759 L12.4332198,1.81507393 L35.6945639,1.81507393 Z" id="Path" fill="#FFFFFF"></path>
                <path d="M16.9794122,7.29193985 L31.1487752,7.29193985 C31.6476737,7.29193985 32.0517169,6.88624608 32.0517169,6.38440288 C32.0517169,5.88255968 31.6476737,5.47686591 31.1487752,5.47686591 L16.9794122,5.47686591 C16.48011,5.47686591 16.0764705,5.88255968 16.0764705,6.38440288 C16.0760668,6.88584038 16.48011,7.29193985 16.9794122,7.29193985 L16.9794122,7.29193985 Z" id="Shape" fill="#30485F"></path>
                <path d="M31.1487752,13.1428554 L22.4293535,13.1428554 C21.9300513,13.1428554 21.5264118,13.5485492 21.5264118,14.0503924 C21.5264118,14.5522356 21.9300513,14.9579294 22.4293535,14.9579294 L31.1491788,14.9579294 C31.6480773,14.9579294 32.0521205,14.5522356 32.0521205,14.0503924 C32.0517169,13.5485492 31.6480773,13.1428554 31.1487752,13.1428554 L31.1487752,13.1428554 Z" id="Shape" fill="#30485F"></path>
                <path d="M24.6098143,20.8112791 L16.9794122,20.8112791 C16.48011,20.8112791 16.0764705,21.2173785 16.0764705,21.7188161 C16.0764705,22.2202536 16.48011,22.626353 16.9794122,22.626353 L24.6098143,22.626353 C25.1087128,22.626353 25.512756,22.2202536 25.512756,21.7188161 C25.512756,21.2173785 25.1087128,20.8112791 24.6098143,20.8112791 L24.6098143,20.8112791 Z" id="Shape" fill="#30485F"></path>
                <polygon id="Path" fill="#FFFFFF" points="29.0684169 23.1095343 28.5025142 20.1613577 30.3826673 22.4953139"></polygon>
            </g>
        </g>
    </g>
</svg>