<?xml version="1.0" encoding="UTF-8" standalone="no"?>
<svg width="81px" height="81px" viewBox="0 0 81 81" version="1.1" xmlns="http://www.w3.org/2000/svg" xmlns:xlink="http://www.w3.org/1999/xlink">
    <!-- Generator: Sketch 40.3 (33839) - http://www.bohemiancoding.com/sketch -->
    <title>screen</title>
    <desc>Created with Sketch.</desc>
    <defs>
        <linearGradient x1="50%" y1="-49.5241152%" x2="50%" y2="100%" id="linearGradient-1">
            <stop stop-color="#D2F4EB" offset="0%"></stop>
            <stop stop-color="#42D3AA" offset="100%"></stop>
        </linearGradient>
        <linearGradient x1="50%" y1="-26.3139704%" x2="50%" y2="100%" id="linearGradient-2">
            <stop stop-color="#FEFAEE" offset="0%"></stop>
            <stop stop-color="#FFC938" offset="100%"></stop>
        </linearGradient>
    </defs>
    <g id="Page-1" stroke="none" stroke-width="1" fill="none" fill-rule="evenodd">
        <g id="screen">
            <g id="Group" transform="translate(18.000000, 20.000000)">
                <path d="M2.3343038,32.1145493 L16.5582911,32.1145493 L16.5582911,35.6359296 L14.658038,35.6359296 C14.4660759,35.6359296 14.2826582,35.7046479 14.1351266,35.8282254 L10.4177848,38.9777183 C10.1551899,39.1994648 10.0577848,39.5667324 10.174557,39.8924225 C10.2918987,40.2198451 10.5977848,40.4363944 10.9401266,40.4363944 L34.0598734,40.4363944 C34.4033544,40.4363944 34.7086709,40.2198451 34.8265823,39.8924225 C34.9427848,39.5667324 34.8459494,39.1994648 34.5822152,38.9777183 L30.865443,35.8282254 C30.718481,35.7046479 30.5344937,35.6359296 30.3425316,35.6359296 L28.4411392,35.6359296 L28.4411392,32.1145493 L42.6662658,32.1145493 C43.7889873,32.1145493 44.7032278,31.1888732 44.7032278,30.0495352 L44.7032278,2.62746479 C44.7032278,1.48870423 43.7889873,0.563605634 42.6662658,0.563605634 L2.3343038,0.563605634 C1.21044304,0.563605634 0.297911392,1.48928169 0.297911392,2.62746479 L0.297911392,30.0495352 C0.297341772,31.1894507 1.21044304,32.1145493 2.3343038,32.1145493 L2.3343038,32.1145493 Z" id="Shape" fill="#30485F"></path>
                <polygon id="Path" fill="url(#linearGradient-1)" points="13.1861392 38.7848451 14.9525316 37.2880563 17.3728481 37.2880563 27.6260127 37.2880563 30.0468987 37.2880563 31.8138608 38.7848451"></polygon>
                <path d="M27.6260127,30.4618451 L17.3728481,30.4618451 L2.3343038,30.4618451 C2.1093038,30.4618451 1.9264557,30.2770563 1.9264557,30.0495352 L1.9264557,25.0354085 L43.0724051,25.0354085 L43.0724051,30.0495352 C43.0724051,30.2770563 42.8901266,30.4618451 42.6651266,30.4618451 L27.6260127,30.4618451 Z" id="Path" fill="url(#linearGradient-2)"></path>
                <path d="M2.3343038,2.21515493 L42.6656962,2.21515493 C42.8906962,2.21515493 43.0729747,2.3993662 43.0729747,2.62746479 L43.0729747,23.3838592 L1.9264557,23.3838592 L1.9264557,2.62746479 C1.9264557,2.3993662 2.1093038,2.21515493 2.3343038,2.21515493 L2.3343038,2.21515493 Z" id="Path" fill="#FFFFFF"></path>
                <path d="M22.5,26.3318169 C21.7549367,26.3318169 21.15,26.945662 21.15,27.7004085 C21.15,28.4557324 21.7555063,29.0672676 22.5,29.0672676 C23.2439241,29.0672676 23.8494304,28.4551549 23.8494304,27.7004085 C23.8494304,26.945662 23.2439241,26.3318169 22.5,26.3318169 L22.5,26.3318169 Z" id="Shape" fill="#30485F"></path>
                <path d="M29.2867565,21.8922573 L26.239352,20.0334568 C25.9772097,19.8704041 25.7150674,19.7725725 25.452925,19.6747409 C25.0924793,19.5769093 24.830337,19.2834145 24.7648014,18.9246986 C24.6992659,18.5659827 24.8631048,18.2072668 25.1907827,17.9789931 C26.3376554,17.2289507 26.9930112,15.9571399 26.9930112,14.6201079 L26.9930112,10.9351174 C26.9930112,8.71760103 25.1580149,6.89141105 22.9298052,6.89141105 C20.7015955,6.89141105 18.8665992,8.71760103 18.8665992,10.9351174 L18.8665992,14.6201079 C18.8665992,15.9571399 19.521955,17.1963402 20.6360599,17.9789931 C20.93097,18.1746563 21.094809,18.5659827 21.0292734,18.9246986 C20.9637378,19.2834145 20.7015955,19.5769093 20.3411498,19.6747409 C20.0134719,19.7725725 19.7185618,19.9030146 19.4564194,20.0660673 L16.5073183,21.8922573 C15.9502659,21.5009309 15.4587491,21.0769939 15,20.6204464 L18.3750824,18.5333722 C17.4575843,17.4572245 16.9332996,16.1201925 16.9332996,14.685329 L16.9332996,10.9351174 C16.9332996,7.6740639 19.6202584,5 22.8970374,5 C26.1738164,5 28.8607752,7.6740639 28.8607752,10.9351174 L28.8607752,14.6201079 C28.8607752,16.087582 28.3364906,17.4572245 27.3862246,18.5333722 L30.7940748,20.5878359 C30.3353258,21.0769939 29.8438089,21.5009309 29.2867565,21.8922573 L29.2867565,21.8922573 Z" id="Shape-Copy-3" fill="#30485F"></path>
            </g>
        </g>
    </g>
</svg>