<?xml version="1.0" encoding="UTF-8" standalone="no"?>
<svg width="81px" height="81px" viewBox="0 0 81 81" version="1.1" xmlns="http://www.w3.org/2000/svg" xmlns:xlink="http://www.w3.org/1999/xlink">
    <!-- Generator: Sketch 40.3 (33839) - http://www.bohemiancoding.com/sketch -->
    <title>showcase</title>
    <desc>Created with Sketch.</desc>
    <defs>
        <linearGradient x1="50%" y1="0%" x2="50%" y2="100%" id="linearGradient-1">
            <stop stop-color="#FEFAEE" offset="0%"></stop>
            <stop stop-color="#FFC938" offset="100%"></stop>
        </linearGradient>
        <linearGradient x1="50%" y1="0%" x2="50%" y2="100%" id="linearGradient-2">
            <stop stop-color="#D2F4EB" offset="0%"></stop>
            <stop stop-color="#42D3AA" offset="100%"></stop>
        </linearGradient>
    </defs>
    <g id="Page-1" stroke="none" stroke-width="1" fill="none" fill-rule="evenodd">
        <g id="showcase">
            <g id="Group" transform="translate(21.000000, 21.000000)">
                <path d="M39.5918367,11.8367347 L39.5918367,8.40816327 L39.5918367,8.40816327 C39.5918367,8.32653061 39.5918367,8.24489796 39.5102041,8.16326531 C39.5102041,8.16326531 39.5102041,8.16326531 39.5102041,8.08163265 C39.5102041,8 39.4285714,8 39.4285714,7.91836735 L34.0408163,0.734693878 C33.877551,0.489795918 33.6326531,0.408163265 33.3877551,0.408163265 L28,0.408163265 L22.6122449,0.408163265 L17.2244898,0.408163265 L11.8367347,0.408163265 L6.6122449,0.408163265 C6.36734694,0.408163265 6.12244898,0.489795918 5.95918367,0.734693878 L0.571428571,7.91836735 C0.571428571,8 0.489795918,8 0.489795918,8.08163265 C0.489795918,8.08163265 0.489795918,8.08163265 0.489795918,8.16326531 C0.489795918,8.24489796 0.408163265,8.32653061 0.408163265,8.40816327 L0.408163265,8.40816327 L0.408163265,11.8367347 C0.408163265,13.2244898 1.06122449,14.5306122 2.12244898,15.3469388 C2.04081633,15.4285714 2.04081633,15.5918367 2.04081633,15.6734694 L2.04081633,37.9591837 L1.2244898,37.9591837 C0.734693878,37.9591837 0.408163265,38.2857143 0.408163265,38.7755102 C0.408163265,39.2653061 0.734693878,39.5918367 1.2244898,39.5918367 L2.85714286,39.5918367 L7.26530612,39.5918367 L17.3061224,39.5918367 L37.1428571,39.5918367 L38.7755102,39.5918367 C39.2653061,39.5918367 39.5918367,39.2653061 39.5918367,38.7755102 C39.5918367,38.2857143 39.2653061,37.9591837 38.7755102,37.9591837 L37.9591837,37.9591837 L37.9591837,15.5918367 C37.9591837,15.5102041 37.9591837,15.4285714 37.877551,15.3469388 C38.9387755,14.5306122 39.5918367,13.2244898 39.5918367,11.8367347 L39.5918367,11.8367347 Z" id="Shape" fill="#30485F"></path>
                <path d="M37.9591837,11.8367347 C37.9591837,13.4693878 36.6530612,14.7755102 35.0204082,14.7755102 C33.3877551,14.7755102 32.0816327,13.4693878 32.0816327,11.8367347 L32.0816327,9.2244898 L37.9591837,9.2244898 L37.9591837,11.8367347 L37.9591837,11.8367347 Z" id="Path" fill="url(#linearGradient-1)"></path>
                <path d="M36.3265306,37.9591837 L18.122449,37.9591837 L18.122449,20.1632653 C18.122449,19.6734694 17.7959184,19.3469388 17.3061224,19.3469388 L7.26530612,19.3469388 C6.7755102,19.3469388 6.44897959,19.6734694 6.44897959,20.1632653 L6.44897959,37.9591837 L3.67346939,37.9591837 L3.67346939,16.1632653 C4.08163265,16.3265306 4.48979592,16.4081633 4.97959184,16.4081633 C6.53061224,16.4081633 7.91836735,15.5918367 8.73469388,14.4489796 C9.55102041,15.6734694 10.9387755,16.4081633 12.4897959,16.4081633 C14.0408163,16.4081633 15.4285714,15.5918367 16.244898,14.4489796 C17.0612245,15.6734694 18.4489796,16.4081633 20,16.4081633 C21.5510204,16.4081633 22.9387755,15.5918367 23.755102,14.4489796 C24.5714286,15.6734694 25.9591837,16.4081633 27.5102041,16.4081633 C29.0612245,16.4081633 30.4489796,15.5918367 31.2653061,14.4489796 C32.0816327,15.6734694 33.4693878,16.4081633 35.0204082,16.4081633 C35.5102041,16.4081633 35.9183673,16.3265306 36.3265306,16.244898 L36.3265306,37.9591837 L36.3265306,37.9591837 Z" id="Path" fill="#FFFFFF"></path>
                <polygon id="Path" fill="url(#linearGradient-2)" points="8.08163265 37.9591837 8.08163265 20.9795918 16.4897959 20.9795918 16.4897959 37.9591837"></polygon>
                <path d="M34.2040816,21.9591837 L21.4693878,21.9591837 C20.9795918,21.9591837 20.6530612,22.2857143 20.6530612,22.7755102 L20.6530612,30.5306122 C20.6530612,31.0204082 20.9795918,31.3469388 21.4693878,31.3469388 L34.2040816,31.3469388 C34.6938776,31.3469388 35.0204082,31.0204082 35.0204082,30.5306122 L35.0204082,22.7755102 C35.0204082,22.2857143 34.6938776,21.9591837 34.2040816,21.9591837 L34.2040816,21.9591837 Z" id="Shape" fill="#30485F"></path>
                <polygon id="Path" fill="url(#linearGradient-2)" points="33.3877551 29.7142857 22.2857143 29.7142857 22.2857143 23.5918367 33.3877551 23.5918367"></polygon>
                <path d="M2.04081633,9.2244898 L7.91836735,9.2244898 L7.91836735,11.8367347 C7.91836735,13.4693878 6.6122449,14.7755102 4.97959184,14.7755102 C3.34693878,14.7755102 2.04081633,13.4693878 2.04081633,11.8367347 L2.04081633,9.2244898 L2.04081633,9.2244898 Z" id="Path" fill="url(#linearGradient-1)"></path>
                <polygon id="Path" fill="url(#linearGradient-1)" points="7.02040816 2.04081633 10.6938776 2.04081633 10.6122449 2.12244898 8.16326531 7.51020408 2.85714286 7.51020408"></polygon>
                <path d="M30.4489796,9.2244898 L30.4489796,11.8367347 C30.4489796,13.4693878 29.1428571,14.7755102 27.5102041,14.7755102 C25.877551,14.7755102 24.5714286,13.4693878 24.5714286,11.8367347 L24.5714286,9.2244898 L30.4489796,9.2244898 Z" id="Path" fill="#FFFFFF"></path>
                <path d="M17.0612245,9.2244898 L22.9387755,9.2244898 L22.9387755,11.8367347 C22.9387755,13.4693878 21.6326531,14.7755102 20,14.7755102 C18.3673469,14.7755102 17.0612245,13.4693878 17.0612245,11.8367347 L17.0612245,9.2244898 L17.0612245,9.2244898 Z" id="Path" fill="url(#linearGradient-1)"></path>
                <polygon id="Path" fill="url(#linearGradient-1)" points="22.7755102 7.59183673 17.1428571 7.59183673 17.9591837 2.04081633 21.877551 2.04081633"></polygon>
                <polygon id="Path" fill="#FFFFFF" points="27.5102041 2.04081633 29.9591837 7.42857143 30.0408163 7.51020408 24.4897959 7.51020408 23.6734694 1.95918367 27.5102041 1.95918367"></polygon>
                <polygon id="Path" fill="#FFFFFF" points="12.4897959 2.04081633 16.4081633 2.04081633 15.5918367 7.59183673 10.0408163 7.59183673 10.122449 7.51020408"></polygon>
                <path d="M15.4285714,11.8367347 C15.4285714,13.4693878 14.122449,14.7755102 12.4897959,14.7755102 C10.8571429,14.7755102 9.55102041,13.4693878 9.55102041,11.8367347 L9.55102041,9.2244898 L15.4285714,9.2244898 L15.4285714,11.8367347 L15.4285714,11.8367347 Z" id="Path" fill="#FFFFFF"></path>
                <polygon id="Path" fill="url(#linearGradient-1)" points="37.1428571 7.59183673 31.8367347 7.59183673 29.3877551 2.20408163 29.3061224 2.12244898 32.9795918 2.12244898"></polygon>
            </g>
        </g>
    </g>
</svg>