<?xml version="1.0" encoding="UTF-8" standalone="no"?>
<svg width="81px" height="81px" viewBox="0 0 81 81" version="1.1" xmlns="http://www.w3.org/2000/svg" xmlns:xlink="http://www.w3.org/1999/xlink">
    <!-- Generator: Sketch 40.3 (33839) - http://www.bohemiancoding.com/sketch -->
    <title>star</title>
    <desc>Created with Sketch.</desc>
    <defs>
        <linearGradient x1="50%" y1="0%" x2="50%" y2="100%" id="linearGradient-1">
            <stop stop-color="#FEFAEE" offset="0%"></stop>
            <stop stop-color="#FFC938" offset="100%"></stop>
        </linearGradient>
    </defs>
    <g id="Page-1" stroke="none" stroke-width="1" fill="none" fill-rule="evenodd">
        <g id="star">
            <g id="Group-4" transform="translate(14.000000, 19.000000)">
                <path d="M48.9841681,12.5992143 L40.6756686,11.4561818 L36.9599067,4.32661997 C36.7408723,3.90626296 36.2887228,3.64008094 35.7936045,3.64008094 C35.2984862,3.64008094 34.8463366,3.90626296 34.6273022,4.32661997 L30.9117638,11.456076 L22.6029849,12.5991085 C22.1130631,12.6665138 21.7058938,12.991477 21.5530168,13.4372829 C21.3999721,13.8830889 21.5275931,14.3725971 21.882183,14.6997825 L27.8943975,20.2484422 L26.4745853,28.0849128 C26.3909388,28.5469087 26.5914782,29.013878 26.9919982,29.2894248 C27.3925741,29.5648658 27.9233972,29.6013197 28.3617454,29.3831785 L35.7936045,25.6837193 L43.2255194,29.3831785 C43.4157776,29.4779374 43.6235809,29.5246554 43.8305461,29.5246554 C44.5528008,29.5227507 45.1329625,28.9720804 45.1329625,28.2931073 C45.1329625,28.1985071 45.1216755,28.1063936 45.1004426,28.0178779 L43.6927555,20.2484951 L49.7050818,14.6998883 C50.0595599,14.3727029 50.187181,13.8833005 50.0341363,13.4373887 C49.8812034,12.9915828 49.4742017,12.6666196 48.9841681,12.5992143 Z" id="Shape-Copy-9" stroke="#30485F" stroke-width="2" fill="url(#linearGradient-1)" transform="translate(35.793578, 16.582368) rotate(-17.000000) translate(-35.793578, -16.582368) "></path>
                <rect id="Rectangle-9" fill="#30485F" transform="translate(8.525944, 25.529477) rotate(-21.000000) translate(-8.525944, -25.529477) " x="-0.128224577" y="24.2994775" width="17.3083369" height="2.46" rx="1.23"></rect>
                <rect id="Rectangle-9-Copy" fill="#30485F" transform="translate(15.352965, 29.383237) rotate(-21.000000) translate(-15.352965, -29.383237) " x="7.3949358" y="28.1532373" width="15.9160577" height="2.46" rx="1.23"></rect>
                <rect id="Rectangle-9-Copy-2" fill="#30485F" transform="translate(12.206532, 36.515397) rotate(-21.000000) translate(-12.206532, -36.515397) " x="4.9491658" y="35.2853973" width="14.5147329" height="2.46" rx="1.23"></rect>
            </g>
        </g>
    </g>
</svg>