<?xml version="1.0" encoding="UTF-8" standalone="no"?>
<svg width="45px" height="50px" viewBox="0 0 45 50" version="1.1" xmlns="http://www.w3.org/2000/svg" xmlns:xlink="http://www.w3.org/1999/xlink">
    <!-- Generator: Sketch 40.3 (33839) - http://www.bohemiancoding.com/sketch -->
    <title>Artboard 4 Copy 3</title>
    <desc>Created with Sketch.</desc>
    <defs></defs>
    <g id="Page-1" stroke="none" stroke-width="1" fill="none" fill-rule="evenodd">
        <g id="Artboard-4-Copy-3">
            <g id="Group" transform="translate(3.000000, 5.000000)">
                <circle id="Oval-3" fill="#4A4A4A" cx="20" cy="20" r="20"></circle>
                <path d="M36.5985669,13.4219147 L26.1434484,11.9646733 L21.4676666,2.87526214 C21.1920416,2.33935295 20.6230727,2 20.0000336,2 C19.3769945,2 18.8080257,2.33935295 18.5324006,2.87526214 L13.8569,11.9645384 L3.40143001,13.4217798 C2.78492994,13.5077141 2.27256269,13.9220066 2.08018766,14.4903604 C1.8876017,15.0587142 2.04819547,15.6827837 2.49439865,16.0999092 L10.0599543,23.1738432 L8.27331342,33.1644857 C8.1680556,33.7534799 8.42040719,34.3488147 8.92440725,34.7001067 C9.42847763,35.0512638 10.0964465,35.0977385 10.6480481,34.8196323 L20.0000336,30.1032267 L29.3520894,34.8196323 C29.5915035,34.9404395 29.8529958,35 30.1134333,35 C31.0222928,34.9975717 31.7523476,34.2955273 31.7523476,33.4299108 C31.7523476,33.309306 31.7381444,33.1918714 31.7114257,33.0790235 L29.9400426,23.1739106 L37.5057389,16.1000442 C37.9518014,15.6829186 38.1123952,15.058984 37.9198092,14.4904953 C37.7273639,13.9221416 37.2152076,13.507849 36.5985669,13.4219147 Z" id="Shape-Copy-8" fill="#FFC938"></path>
            </g>
        </g>
    </g>
</svg>