<?xml version="1.0" encoding="UTF-8" standalone="no"?>
<svg width="60px" height="50px" viewBox="0 0 60 50" version="1.1" xmlns="http://www.w3.org/2000/svg" xmlns:xlink="http://www.w3.org/1999/xlink">
    <!-- Generator: Sketch 40.3 (33839) - http://www.bohemiancoding.com/sketch -->
    <title>Artboard 4 Copy 7</title>
    <desc>Created with Sketch.</desc>
    <defs></defs>
    <g id="Page-1" stroke="none" stroke-width="1" fill="none" fill-rule="evenodd">
        <g id="Artboard-4-Copy-7">
            <g id="Group-4" transform="translate(0.000000, -3.000000)">
                <path d="M58.5514091,16.6020339 L47.7619347,15.1052391 L42.9366208,5.7691166 C42.6521813,5.21866137 42.0650168,4.87009746 41.4220528,4.87009746 C40.7790888,4.87009746 40.1919242,5.21866137 39.9074847,5.7691166 L35.0824611,15.1051005 L24.2926238,16.6018953 C23.656408,16.6901621 23.1276552,17.1156997 22.929128,17.6994802 C22.7303831,18.2832606 22.8961127,18.924269 23.3565855,19.3527165 L31.1640885,26.6186562 L29.3203107,36.8804719 C29.2116867,37.485453 29.4721085,38.0969467 29.9922265,38.4577738 C30.5124172,38.8184622 31.2017477,38.8661984 31.7709896,38.5805436 L41.4220528,33.736122 L51.0731885,38.5805436 C51.320259,38.7046299 51.5901138,38.765807 51.8588802,38.765807 C52.7968051,38.7633128 53.5502071,38.042213 53.5502071,37.1531014 C53.5502071,37.0292229 53.5355498,36.9086009 53.5079765,36.79269 L51.6799445,26.6187255 L59.4875926,19.3528551 C59.9479203,18.9244076 60.1136499,18.2835378 59.914905,17.6996187 C59.7163052,17.1158383 59.1877701,16.6903007 58.5514091,16.6020339 Z" id="Shape-Copy-9" stroke="#4A4A4A" stroke-width="2" fill="#FFC938" transform="translate(41.422018, 21.817952) rotate(-17.000000) translate(-41.422018, -21.817952) "></path>
                <rect id="Rectangle-9" fill="#4A4A4A" transform="translate(10.104822, 32.510839) rotate(-21.000000) translate(-10.104822, -32.510839) " x="-0.151969869" y="31.0408389" width="20.5135844" height="2.94" rx="1.47"></rect>
                <rect id="Rectangle-9-Copy" fill="#4A4A4A" transform="translate(18.196106, 37.116552) rotate(-21.000000) translate(-18.196106, -37.116552) " x="8.76436835" y="35.6465519" width="18.8634757" height="2.94" rx="1.47"></rect>
                <rect id="Rectangle-9-Copy-2" fill="#4A4A4A" transform="translate(14.467001, 45.640353) rotate(-21.000000) translate(-14.467001, -45.640353) " x="5.86567798" y="44.1703529" width="17.2026464" height="2.94" rx="1.47"></rect>
            </g>
        </g>
    </g>
</svg>