<?xml version="1.0" encoding="UTF-8" standalone="no"?>
<svg width="45px" height="50px" viewBox="0 0 45 50" version="1.1" xmlns="http://www.w3.org/2000/svg" xmlns:xlink="http://www.w3.org/1999/xlink">
    <!-- Generator: Sketch 40.3 (33839) - http://www.bohemiancoding.com/sketch -->
    <title>Artboard 4 Copy 6</title>
    <desc>Created with Sketch.</desc>
    <defs></defs>
    <g id="Page-1" stroke="none" stroke-width="1" fill="none" fill-rule="evenodd">
        <g id="Artboard-4-Copy-6" stroke="#4A4A4A" stroke-width="2" fill="#FFC938">
            <path d="M40.3877341,18.9562578 L29.3919587,17.4308434 L24.474382,7.9162089 C24.1845038,7.35522865 23.5861124,7 22.9308545,7 C22.2755967,7 21.6772052,7.35522865 21.387327,7.9162089 L16.4700462,17.4307022 L5.47390101,18.9561166 C4.82552037,19.0460712 4.2866575,19.4797453 4.08433434,20.0746879 C3.88178934,20.6696306 4.05068776,21.3228955 4.51996508,21.7595351 L12.476752,29.1644038 L10.5977201,39.6224313 C10.4870192,40.23898 10.7524204,40.8621659 11.2824834,41.2298921 C11.8126204,41.5974772 12.5151313,41.646126 13.0952575,41.3550094 L22.9308545,36.4179596 L32.7665255,41.3550094 C33.0183202,41.4814683 33.2933348,41.5438151 33.5672401,41.5438151 C34.5230987,41.5412732 35.2909062,40.8063856 35.2909062,39.9002736 C35.2909062,39.7740266 35.2759686,39.6510981 35.2478682,39.532971 L33.3848831,29.1644744 L41.3418179,21.7596763 C41.8109473,21.3230367 41.9798458,20.669913 41.7773008,20.0748291 C41.5749037,19.4798865 41.0362626,19.0462124 40.3877341,18.9562578 Z" id="Shape-Copy-9"></path>
        </g>
    </g>
</svg>