<?xml version="1.0" encoding="UTF-8" standalone="no"?>
<svg width="60px" height="50px" viewBox="0 0 60 50" version="1.1" xmlns="http://www.w3.org/2000/svg" xmlns:xlink="http://www.w3.org/1999/xlink">
    <!-- Generator: Sketch 40.3 (33839) - http://www.bohemiancoding.com/sketch -->
    <title>Artboard 4 Copy 9</title>
    <desc>Created with Sketch.</desc>
    <defs></defs>
    <g id="Page-1" stroke="none" stroke-width="1" fill="none" fill-rule="evenodd">
        <g id="Artboard-4-Copy-9" stroke="#4A4A4A" stroke-width="2" fill="#FFC938">
            <g id="Group-4" transform="translate(4.000000, 2.000000)">
                <path d="M42.7050332,22.7319364 L31.9155588,21.2351416 L27.0902449,11.8990191 C26.8058054,11.3485639 26.2186408,11 25.5756768,11 C24.9327128,11 24.3455483,11.3485639 24.0611088,11.8990191 L19.2360851,21.235003 L8.44624791,22.7317979 C7.81003209,22.8200647 7.28127927,23.2456023 7.08275207,23.8293827 C6.88400719,24.4131632 7.04973677,25.0541716 7.51020958,25.482619 L15.3177126,32.7485587 L13.4739347,43.0103744 C13.3653108,43.6153555 13.6257326,44.2268493 14.1458506,44.5876763 C14.6660412,44.9483648 15.3553718,44.9961009 15.9246137,44.7104462 L25.5756768,39.8660245 L35.2268125,44.7104462 C35.4738831,44.8345324 35.7437379,44.8957095 36.0125043,44.8957095 C36.9504292,44.8932153 37.7038312,44.1721155 37.7038312,43.2830039 C37.7038312,43.1591255 37.6891738,43.0385034 37.6616006,42.9225926 L35.8335686,32.748628 L43.6412167,25.4827576 C44.1015444,25.0543101 44.2672739,24.4134403 44.068529,23.8295213 C43.8699293,23.2457408 43.3413942,22.8202032 42.7050332,22.7319364 Z" id="Shape-Copy-9"></path>
                <path d="M53.2603548,5.9999754 L47.7423756,5.23448097 L45.2746018,0.459778548 C45.1291331,0.1782634 44.828844,2.13162821e-14 44.5000177,2.13162821e-14 C44.1711915,2.13162821e-14 43.8709024,0.1782634 43.7254337,0.459778548 L41.2578084,5.2344101 L35.7396436,5.99990453 C35.4142686,6.04504617 35.1438525,6.26267563 35.0423213,6.56123405 C34.9406787,6.85979246 35.0254365,7.18761854 35.2609326,7.40673618 L39.2538648,11.1227007 L38.3109154,16.3708234 C38.2553627,16.6802243 38.3885482,16.9929559 38.6545483,17.1774909 C38.9205854,17.3619551 39.2731245,17.3863685 39.5642476,17.2402782 L44.5000177,14.7627323 L49.435825,17.2402782 C49.5621824,17.3037387 49.7001922,17.335026 49.8376453,17.335026 C50.3173212,17.3337505 50.7026279,16.9649638 50.7026279,16.5102522 C50.7026279,16.446898 50.6951318,16.3852092 50.6810302,16.3259298 L49.7461336,11.1227361 L53.73914,7.40680705 C53.9745619,7.1876894 54.0593197,6.8599342 53.9576771,6.56130491 C53.8561087,6.26274649 53.585804,6.04511704 53.2603548,5.9999754 Z" id="Shape-Copy-10"></path>
                <path d="M13.4549982,9.3844622 L9.38911883,8.82507968 L7.57075923,5.33598165 C7.46357172,5.13026539 7.24230607,5 7.00001307,5 C6.75772007,5 6.53645442,5.13026539 6.42926691,5.33598165 L4.61101668,8.82502789 L0.54500056,9.38441042 C0.305250531,9.41739752 0.1059966,9.57642953 0.0311840908,9.79460011 C-0.0437104496,10.0127707 0.018742683,10.2523285 0.192266142,10.412448 L3.13442666,13.1278768 L2.43962189,16.9629251 C2.39868829,17.1890188 2.49682502,17.4175464 2.69282504,17.5523948 C2.88885241,17.6871914 3.14861807,17.7050313 3.36312981,17.5982764 L7.00001307,15.7878179 L10.6369237,17.5982764 C10.7300292,17.6446499 10.8317206,17.667513 10.9330018,17.667513 C11.2864472,17.6665809 11.5703574,17.3970913 11.5703574,17.0648123 C11.5703574,17.0185164 11.5648339,16.9734375 11.5544433,16.9301193 L10.8655721,13.1279027 L13.8077873,10.4124998 C13.9812561,10.2523803 14.0437092,10.0128743 13.9688147,9.79465189 C13.8939749,9.57648131 13.694803,9.41744931 13.4549982,9.3844622 Z" id="Shape-Copy-11"></path>
            </g>
        </g>
    </g>
</svg>