<?xml version="1.0" encoding="UTF-8" standalone="no"?>
<svg width="180px" height="200px" viewBox="0 0 180 200" version="1.1" xmlns="http://www.w3.org/2000/svg" xmlns:xlink="http://www.w3.org/1999/xlink">
    <!-- Generator: Sketch 40.3 (33839) - http://www.bohemiancoding.com/sketch -->
    <title>Artboard 5</title>
    <desc>Created with Sketch.</desc>
    <defs></defs>
    <g id="Page-1" stroke="none" stroke-width="1" fill="none" fill-rule="evenodd">
        <g id="Artboard-5">
            <g id="noun_1043386_cc" transform="translate(14.000000, 55.000000)">
                <g id="Group">
                    <path d="M70.0762697,67.5260055 L71.6689149,67.5260055 C73.0624794,67.5260055 86.4008827,66.5226077 94.9613505,55.2845528 C97.1512376,60.3015416 101.730092,68.3287237 109.693318,67.5260055 C110.688722,67.3253259 111.485044,66.5226077 111.485044,65.51921 C111.485044,65.1178509 111.684125,55.8865914 107.304351,50.6689231 C111.485044,45.6519343 111.485044,36.2199953 111.485044,35.8186362 C111.485044,34.8152384 110.688722,34.0125202 109.693318,33.8118407 C101.730092,33.0091225 97.1512376,41.0363046 94.9613505,46.0532934 C86.2018021,34.4138793 72.2661569,33.8118407 71.4698343,33.8118407 C71.4698343,33.8118407 71.4698343,33.8118407 71.2707536,33.8118407 C53.5525761,33.8118407 49.1728019,49.8662049 49.1728019,50.0668844 C49.1728019,50.4682435 49.1728019,50.8696026 49.3718826,51.2709617 C54.1498181,65.9205691 65.6964955,67.5260055 70.0762697,67.5260055 Z" id="Shape" fill="#4A4A4A"></path>
                    <path d="M93.1696247,50.6689231 C85.6045601,62.7096962 71.6689149,63.3117349 71.4698343,63.5124144 L71.2707536,63.5124144 C70.6735117,63.5124144 58.5295923,65.1178509 53.3534955,50.6689231 C54.1498181,48.0600889 58.3305116,37.8254317 71.2707536,37.8254317 C71.4698343,37.8254317 85.6045601,38.6281499 93.1696247,50.6689231 Z" id="Path" fill="#C9C9C9"></path>
                    <path d="M103.123657,49.0634867 C102.526415,49.4648458 102.327334,50.0668844 102.327334,50.6689231 C102.327334,51.2709617 102.526415,51.8730004 103.123657,52.2743595 C105.910786,54.4818346 106.906189,59.9001825 107.304351,63.3117349 C101.531012,62.1076576 98.1466408,52.8763982 97.5493989,50.6689231 C98.1466408,48.2607685 101.531012,39.029509 107.304351,38.0261113 C107.10527,41.4376637 106.109867,47.0566911 103.123657,49.0634867 Z" id="Path" fill="#42D3AA"></path>
                    <ellipse id="Oval" fill="#4A4A4A" cx="60.91856" cy="47.8594094" rx="1.99080646" ry="2.00679552"></ellipse>
                    <path d="M48.57556,35.8186362 C48.57556,32.4070838 45.7884309,29.5975701 42.40406,29.5975701 C39.019689,29.5975701 36.2325599,32.4070838 36.2325599,35.8186362 C36.2325599,39.2301886 39.019689,42.0397023 42.40406,42.0397023 C45.7884309,42.0397023 48.57556,39.2301886 48.57556,35.8186362 Z M44.5939471,36.0193158 C44.5939471,37.2233931 43.5985438,38.2267908 42.40406,38.2267908 C41.2095761,38.2267908 40.4132535,37.0227135 40.4132535,35.8186362 C40.4132535,34.6145589 41.2095761,33.8118407 42.40406,33.8118407 C43.5985438,33.8118407 44.5939471,34.8152384 44.5939471,36.0193158 Z" id="Shape" fill="#4A4A4A"></path>
                    <path d="M54.74706,19.3629129 C54.74706,14.7472832 51.1636084,11.1350513 46.5847535,11.1350513 C42.0058987,11.1350513 38.422447,14.9479628 38.422447,19.3629129 C38.422447,23.7778631 42.0058987,27.7914541 46.5847535,27.7914541 C51.1636084,27.7914541 54.74706,23.9785426 54.74706,19.3629129 Z M50.7654471,19.3629129 C50.7654471,21.570388 48.7746406,23.7778631 46.5847535,23.7778631 C44.3948664,23.7778631 42.40406,21.7710675 42.40406,19.3629129 C42.40406,16.9547583 44.1957858,15.1486423 46.5847535,15.1486423 C48.9737213,15.1486423 50.7654471,17.1554378 50.7654471,19.3629129 Z" id="Shape" fill="#4A4A4A"></path>
                    <path d="M47.1819955,122.512203 L104.318141,122.512203 C104.517221,122.512203 104.915383,122.512203 105.114463,122.311523 C132.985754,109.267352 150.903012,79.3660991 150.903012,46.0532934 C150.903012,30.4002883 146.921399,14.9479628 139.157254,1.70311231 C138.759093,1.10107365 138.161851,0.699714545 137.365528,0.699714545 L13.9355276,0.699714545 C13.139205,0.699714545 12.5419631,1.10107365 12.1438018,1.70311231 C4.57873724,14.7472832 0.59712432,30.1996087 0.59712432,45.8526138 C0.59712432,79.1654195 18.5143825,109.267352 46.3856729,122.311523 C46.5847535,122.512203 46.9829148,122.512203 47.1819955,122.512203 Z M136.370125,4.51262604 C143.337947,16.9547583 146.921399,31.2030065 146.921399,45.8526138 C146.921399,61.5056189 142.740706,76.3559058 135.374722,88.798038 L123.628964,88.798038 C127.610576,84.9851265 128.80506,80.3694968 129.004141,80.1688173 C129.402302,79.1654195 128.60598,77.9613422 127.610576,77.7606627 C126.615173,77.3593035 125.420689,78.1620218 125.221609,79.1654195 C125.221609,79.1654195 123.828044,83.5803697 120.244593,86.7912425 L120.244593,71.9409556 C120.244593,70.7368783 119.44827,69.9341601 118.253786,69.9341601 C117.059302,69.9341601 116.26298,70.7368783 116.26298,71.9409556 L116.26298,87.1926016 C112.281367,83.9817288 110.887802,79.3660991 110.887802,79.3660991 C110.489641,78.3627013 109.494238,77.7606627 108.498834,77.9613422 C107.503431,78.3627013 106.906189,79.3660991 107.10527,80.3694968 C107.10527,80.5701764 108.498834,85.1858061 112.480447,88.9987176 L38.6215277,88.9987176 C42.6031406,85.1858061 43.7976245,80.5701764 43.9967051,80.3694968 C44.3948664,79.3660991 43.5985438,78.1620218 42.6031406,77.9613422 C41.6077374,77.5599831 40.4132535,78.3627013 40.2141729,79.3660991 C40.2141729,79.3660991 38.8206083,83.7810492 35.2371567,86.9919221 L35.2371567,72.1416352 C35.2371567,70.9375579 34.4408341,70.1348397 33.2463503,70.1348397 C32.0518664,70.1348397 31.2555438,70.9375579 31.2555438,72.1416352 L31.2555438,87.3932812 C27.2739309,84.1824083 25.8803664,79.5667786 25.8803664,79.5667786 C25.4822051,78.5633809 24.4868018,77.9613422 23.4913986,78.1620218 C22.4959954,78.5633809 21.8987534,79.5667786 22.0978341,80.5701764 C22.0978341,80.7708559 23.4913986,85.3864856 27.4730115,89.1993971 L16.3244953,89.1993971 C8.7594308,76.3559058 4.57873724,61.5056189 4.57873724,45.8526138 C4.57873724,31.2030065 8.36126951,16.9547583 15.1300115,4.51262604 L136.370125,4.51262604 Z" id="Shape" fill="#4A4A4A"></path>
                    <path d="M47.7792374,118.498612 C36.0334793,112.879584 26.079447,103.849004 18.7134631,93.0123086 L133.184835,93.0123086 C125.61977,103.849004 115.665738,112.879584 103.91998,118.498612 L47.7792374,118.498612 Z" id="Path" fill="#FFC938"></path>
                    <ellipse id="Oval" fill="#4A4A4A" cx="48.3764793" cy="99.4340543" rx="2.78712904" ry="2.80951373"></ellipse>
                    <ellipse id="Oval" fill="#4A4A4A" cx="105.313544" cy="111.474827" rx="2.78712904" ry="2.80951373"></ellipse>
                    <ellipse id="Oval" fill="#4A4A4A" cx="79.0348988" cy="103.648325" rx="2.78712904" ry="2.80951373"></ellipse>
                    <ellipse id="Oval" fill="#4A4A4A" cx="45.3902697" cy="110.672109" rx="2.78712904" ry="2.80951373"></ellipse>
                    <ellipse id="Oval" fill="#4A4A4A" cx="69.2799472" cy="112.076866" rx="2.78712904" ry="2.80951373"></ellipse>
                    <ellipse id="Oval" fill="#4A4A4A" cx="93.567786" cy="100.838811" rx="2.78712904" ry="2.80951373"></ellipse>
                    <ellipse id="Oval" fill="#4A4A4A" cx="120.841834" cy="99.4340543" rx="2.78712904" ry="2.80951373"></ellipse>
                    <ellipse id="Oval" fill="#4A4A4A" cx="33.0472696" cy="99.4340543" rx="2.18988711" ry="2.20747508"></ellipse>
                    <ellipse id="Oval" fill="#4A4A4A" cx="58.5295923" cy="107.862596" rx="2.18988711" ry="2.20747508"></ellipse>
                    <ellipse id="Oval" fill="#4A4A4A" cx="86.799044" cy="111.474827" rx="2.18988711" ry="2.20747508"></ellipse>
                    <ellipse id="Oval" fill="#4A4A4A" cx="107.304351" cy="99.6347339" rx="2.18988711" ry="2.20747508"></ellipse>
                    <ellipse id="Oval" fill="#4A4A4A" cx="66.2937375" cy="98.6313361" rx="2.18988711" ry="2.20747508"></ellipse>
                </g>
            </g>
        </g>
    </g>
</svg>