<?xml version="1.0" encoding="UTF-8" standalone="no"?>
<svg width="180px" height="180px" viewBox="0 0 180 180" version="1.1" xmlns="http://www.w3.org/2000/svg" xmlns:xlink="http://www.w3.org/1999/xlink">
    <!-- Generator: Sketch 40.3 (33839) - http://www.bohemiancoding.com/sketch -->
    <title>Artboard 5</title>
    <desc>Created with Sketch.</desc>
    <defs>
        <linearGradient x1="50%" y1="0%" x2="50%" y2="100%" id="linearGradient-1">
            <stop stop-color="#D2F4EB" offset="0%"></stop>
            <stop stop-color="#42D3AA" offset="100%"></stop>
        </linearGradient>
        <linearGradient x1="50%" y1="0%" x2="50%" y2="100%" id="linearGradient-2">
            <stop stop-color="#FEFAEE" offset="0%"></stop>
            <stop stop-color="#FFC938" offset="100%"></stop>
        </linearGradient>
    </defs>
    <g id="Page-1" stroke="none" stroke-width="1" fill="none" fill-rule="evenodd">
        <g id="Artboard-5">
            <g id="noun_1043386_cc" transform="translate(28.000000, 39.000000)">
                <g id="Group">
                    <path d="M58.0101571,55.9971753 L59.3285719,55.9971753 C60.482185,55.9971753 71.5239095,55.1650893 78.6103895,45.8457267 C80.4232099,50.0061564 84.2136527,56.662844 90.8057271,55.9971753 C91.6297364,55.8307581 92.2889438,55.1650893 92.2889438,54.3330034 C92.2889438,54.000169 92.4537457,46.3449783 88.8281047,42.0181313 C92.2889438,37.8577016 92.2889438,30.0360937 92.2889438,29.7032593 C92.2889438,28.8711733 91.6297364,28.2055046 90.8057271,28.0390874 C84.2136527,27.3734186 80.4232099,34.0301062 78.6103895,38.190536 C71.3591077,28.538339 59.8229775,28.0390874 59.1637701,28.0390874 C59.1637701,28.0390874 59.1637701,28.0390874 58.9989682,28.0390874 C44.3316028,28.0390874 40.7059619,41.3524626 40.7059619,41.5188798 C40.7059619,41.8517141 40.7059619,42.1845485 40.8707637,42.5173829 C44.8260083,54.6658378 54.3845162,55.9971753 58.0101571,55.9971753 Z" id="Shape" fill="#30485F"></path>
                    <path d="M77.1271727,42.0181313 C70.8647021,52.0031627 59.3285719,52.5024143 59.1637701,52.6688315 L58.9989682,52.6688315 C58.5045627,52.6688315 48.4516492,54.000169 44.1668009,42.0181313 C44.8260083,39.8547079 48.2868474,31.3674312 58.9989682,31.3674312 C59.1637701,31.3674312 70.8647021,32.0331 77.1271727,42.0181313 Z" id="Path" fill="#F5F5F5"></path>
                    <path d="M85.3672657,40.6867938 C84.8728601,41.0196282 84.7080583,41.5188798 84.7080583,42.0181313 C84.7080583,42.5173829 84.8728601,43.0166345 85.3672657,43.3494689 C87.6744917,45.1800579 88.498501,49.6733221 88.8281047,52.5024143 C84.0488508,51.5039112 81.2472192,43.8487204 80.7528136,42.0181313 C81.2472192,40.0211251 84.0488508,32.3659343 88.8281047,31.5338484 C88.6633029,34.3629406 87.8392936,39.0226219 85.3672657,40.6867938 Z" id="Path" fill="url(#linearGradient-1)"></path>
                    <ellipse id="Oval" fill="#30485F" cx="50.4292716" cy="39.6882907" rx="1.64801859" ry="1.6641719"></ellipse>
                    <path d="M40.2115563,29.7032593 C40.2115563,26.8741671 37.9043303,24.5443264 35.1026986,24.5443264 C32.301067,24.5443264 29.993841,26.8741671 29.993841,29.7032593 C29.993841,32.5323515 32.301067,34.8621922 35.1026986,34.8621922 C37.9043303,34.8621922 40.2115563,32.5323515 40.2115563,29.7032593 Z M36.9155191,29.8696765 C36.9155191,30.8681796 36.0915098,31.7002656 35.1026986,31.7002656 C34.1138875,31.7002656 33.4546801,30.7017624 33.4546801,29.7032593 C33.4546801,28.7047562 34.1138875,28.0390874 35.1026986,28.0390874 C36.0915098,28.0390874 36.9155191,28.8711733 36.9155191,29.8696765 Z" id="Shape" fill="#30485F"></path>
                    <path d="M45.3204139,16.0570497 C45.3204139,12.2294544 42.3539805,9.23394495 38.5635377,9.23394495 C34.7730949,9.23394495 31.8066615,12.3958716 31.8066615,16.0570497 C31.8066615,19.7182279 34.7730949,23.0465717 38.5635377,23.0465717 C42.3539805,23.0465717 45.3204139,19.8846451 45.3204139,16.0570497 Z M42.0243767,16.0570497 C42.0243767,17.8876388 40.3763581,19.7182279 38.5635377,19.7182279 C36.7507172,19.7182279 35.1026986,18.054056 35.1026986,16.0570497 C35.1026986,14.0600435 36.5859154,12.5622887 38.5635377,12.5622887 C40.54116,12.5622887 42.0243767,14.2264606 42.0243767,16.0570497 Z" id="Shape" fill="#30485F"></path>
                    <path d="M39.0579433,101.595485 L86.3560769,101.595485 C86.5208787,101.595485 86.8504824,101.595485 87.0152843,101.429068 C110.087545,90.6119507 124.919712,65.8157895 124.919712,38.190536 C124.919712,25.2099952 121.623675,12.3958716 115.196402,1.41233704 C114.866799,0.913085466 114.372393,0.580251086 113.713185,0.580251086 L11.5360328,0.580251086 C10.8768253,0.580251086 10.3824198,0.913085466 10.052816,1.41233704 C3.7903454,12.2294544 0.494308212,25.043578 0.494308212,38.0241188 C0.494308212,65.6493723 15.3264755,90.6119507 38.3987358,101.429068 C38.5635377,101.595485 38.8931414,101.595485 39.0579433,101.595485 Z M112.889176,3.74217769 C118.657241,14.0600435 121.623675,25.8756639 121.623675,38.0241188 C121.623675,51.0046596 118.162836,63.3195316 112.065167,73.6373974 L102.341857,73.6373974 C105.637894,70.4754708 106.626706,66.6478754 106.791507,66.4814582 C107.121111,65.6493723 106.461904,64.6508691 105.637894,64.484452 C104.813885,64.1516176 103.825074,64.8172863 103.660272,65.6493723 C103.660272,65.6493723 102.506659,69.3105505 99.5402256,71.9732255 L99.5402256,59.6583535 C99.5402256,58.6598503 98.8810182,57.9941816 97.892207,57.9941816 C96.9033958,57.9941816 96.2441884,58.6598503 96.2441884,59.6583535 L96.2441884,72.3060599 C92.9481512,69.6433848 91.7945382,65.8157895 91.7945382,65.8157895 C91.4649345,64.9837035 90.6409252,64.484452 89.8169159,64.6508691 C88.9929066,64.9837035 88.498501,65.8157895 88.6633029,66.6478754 C88.6633029,66.8142926 89.8169159,70.641888 93.1129531,73.8038146 L31.9714633,73.8038146 C35.2675005,70.641888 36.2563117,66.8142926 36.4211135,66.6478754 C36.7507172,65.8157895 36.0915098,64.8172863 35.2675005,64.6508691 C34.4434912,64.3180348 33.4546801,64.9837035 33.2898782,65.8157895 C33.2898782,65.8157895 32.1362652,69.4769676 29.1698317,72.1396427 L29.1698317,59.8247706 C29.1698317,58.8262675 28.5106243,58.1605987 27.5218131,58.1605987 C26.533002,58.1605987 25.8737945,58.8262675 25.8737945,59.8247706 L25.8737945,72.4724771 C22.5777573,69.809802 21.4241443,65.9822067 21.4241443,65.9822067 C21.0945406,65.1501207 20.2705313,64.6508691 19.446522,64.8172863 C18.6225127,65.1501207 18.1281071,65.9822067 18.292909,66.8142926 C18.292909,66.9807098 19.446522,70.8083052 22.7425592,73.9702318 L13.5136551,73.9702318 C7.25118444,63.3195316 3.7903454,51.0046596 3.7903454,38.0241188 C3.7903454,25.8756639 6.92158072,14.0600435 12.5248439,3.74217769 L112.889176,3.74217769 Z" id="Shape" fill="#30485F"></path>
                    <path d="M39.5523488,98.2671415 C29.8290392,93.6074602 21.5889462,86.1186866 15.4912774,77.1321584 L110.252346,77.1321584 C103.989876,86.1186866 95.7497828,93.6074602 86.0264731,98.2671415 L39.5523488,98.2671415 Z" id="Path" fill="url(#linearGradient-2)"></path>
                    <ellipse id="Oval" fill="#30485F" cx="40.0467544" cy="82.4575085" rx="2.30722603" ry="2.32984066"></ellipse>
                    <ellipse id="Oval" fill="#30485F" cx="87.1800862" cy="92.4425398" rx="2.30722603" ry="2.32984066"></ellipse>
                    <ellipse id="Oval" fill="#30485F" cx="65.4262407" cy="85.9522694" rx="2.30722603" ry="2.32984066"></ellipse>
                    <ellipse id="Oval" fill="#30485F" cx="37.5747265" cy="91.7768711" rx="2.30722603" ry="2.32984066"></ellipse>
                    <ellipse id="Oval" fill="#30485F" cx="57.3509496" cy="92.9417914" rx="2.30722603" ry="2.32984066"></ellipse>
                    <ellipse id="Oval" fill="#30485F" cx="77.4567765" cy="83.6224288" rx="2.30722603" ry="2.32984066"></ellipse>
                    <ellipse id="Oval" fill="#30485F" cx="100.034631" cy="82.4575085" rx="2.30722603" ry="2.32984066"></ellipse>
                    <ellipse id="Oval" fill="#30485F" cx="27.3570113" cy="82.4575085" rx="1.81282045" ry="1.83058909"></ellipse>
                    <ellipse id="Oval" fill="#30485F" cx="48.4516492" cy="89.4470304" rx="1.81282045" ry="1.83058909"></ellipse>
                    <ellipse id="Oval" fill="#30485F" cx="71.8535132" cy="92.4425398" rx="1.81282045" ry="1.83058909"></ellipse>
                    <ellipse id="Oval" fill="#30485F" cx="88.8281047" cy="82.6239256" rx="1.81282045" ry="1.83058909"></ellipse>
                    <ellipse id="Oval" fill="#30485F" cx="54.8789218" cy="81.7918397" rx="1.81282045" ry="1.83058909"></ellipse>
                </g>
            </g>
        </g>
    </g>
</svg>