<?xml version="1.0" encoding="UTF-8" standalone="no"?>
<svg width="180px" height="180px" viewBox="0 0 180 180" version="1.1" xmlns="http://www.w3.org/2000/svg" xmlns:xlink="http://www.w3.org/1999/xlink">
    <!-- Generator: Sketch 40.3 (33839) - http://www.bohemiancoding.com/sketch -->
    <title>Artboard 5 Copy 3</title>
    <desc>Created with Sketch.</desc>
    <defs>
        <linearGradient x1="50%" y1="-7.14317612%" x2="50%" y2="100%" id="linearGradient-1">
            <stop stop-color="#FEFAEE" offset="0%"></stop>
            <stop stop-color="#FFC938" offset="100%"></stop>
        </linearGradient>
        <linearGradient x1="50%" y1="0%" x2="50%" y2="100%" id="linearGradient-2">
            <stop stop-color="#D2F4EB" offset="0%"></stop>
            <stop stop-color="#42D3AA" offset="100%"></stop>
        </linearGradient>
    </defs>
    <g id="Page-1" stroke="none" stroke-width="1" fill="none" fill-rule="evenodd">
        <g id="Artboard-5-Copy-3">
            <g id="Group" transform="translate(89.265466, 90.146126) scale(-1, -1) rotate(131.000000) translate(-89.265466, -90.146126) translate(69.265466, 34.646126)">
                <path d="M39.5969781,20.8788737 C39.5969781,9.56387117 30.6682478,0.269404822 19.7984891,0.269404822 C17.2104513,0.269404822 14.7518154,0.808214465 12.2931795,1.75113134 C11.7755719,2.02053616 11.3873663,2.42464339 11.2579644,2.96345304 C11.1285625,3.50226268 11.2579644,4.04107232 11.5167681,4.44517956 L18.2456664,13.3355387 L13.7166003,16.8378014 L6.98770202,8.08214465 C6.72889824,7.67803742 6.21129069,7.40863259 5.69368313,7.40863259 L5.69368313,7.40863259 C5.17607557,7.40863259 4.65846802,7.67803742 4.39966424,8.08214465 C1.55282267,11.7191097 9.34363698e-13,16.1642893 9.34363698e-13,20.8788737 C9.34363698e-13,29.0957207 4.78786991,36.6390557 12.0343757,39.8719136 L9.18753414,104.529071 C9.18753414,109.243655 14.7518154,110.860084 20.0572928,110.860084 L20.3160966,110.860084 C24.1981533,110.860084 32.2210704,109.243655 32.2210704,103.855559 L28.4684157,39.4678064 C35.1973139,35.9655437 39.5969781,28.8263159 39.5969781,20.8788737 L39.5969781,20.8788737 Z" id="Path" fill="#30485F"></path>
                <path d="M26.0097798,36.6390557 C25.3627703,36.9084606 24.9745646,37.5819726 24.9745646,38.3901871 L28.8566213,103.855559 C28.8566213,105.60669 24.0687514,107.223119 20.3160966,107.223119 L20.0572928,107.223119 C16.3046381,107.223119 12.5519833,106.1455 12.5519833,104.394368 L15.3988248,38.6595919 C15.3988248,37.8513774 15.0106192,37.1778654 14.2342078,36.9084606 C7.63471147,34.4838172 3.23504723,28.0181014 3.23504723,20.7441713 C3.23504723,17.5113134 4.01145857,14.5478604 5.69368313,11.8538122 L12.2931795,20.340064 C12.810787,21.0135761 13.8460022,21.1482785 14.6224135,20.6094689 L21.7395174,14.9519676 C22.1277231,14.6825628 22.3865269,14.2784555 22.3865269,13.7396459 C22.3865269,13.2008363 22.257125,12.796729 21.9983212,12.3926218 L15.6576286,4.04107232 C16.9516475,3.63696509 18.3750683,3.50226268 19.7984891,3.50226268 C28.8566213,3.50226268 36.232529,11.1803001 36.232529,20.6094689 C36.232529,27.883399 32.2210704,34.0797099 26.0097798,36.6390557 L26.0097798,36.6390557 Z" id="Shape" fill="#FFFFFF"></path>
                <rect id="Rectangle-path" stroke="#30485F" fill="url(#linearGradient-1)" transform="translate(23.333826, 24.787480) rotate(-38.381524) translate(-23.333826, -24.787480) " x="15.8284566" y="20.207561" width="15.0107394" height="9.1598373"></rect>
                <path d="M14.3636097,98.3327599 C14.3636097,101.969725 17.2104513,104.933178 20.7043023,104.933178 C24.1981533,104.933178 27.0449949,101.969725 27.0449949,98.3327599 C27.0449949,94.6957948 24.1981533,91.7323418 20.7043023,91.7323418 C17.2104513,91.7323418 14.3636097,94.6957948 14.3636097,98.3327599 L14.3636097,98.3327599 Z" id="Path" fill="#30485F"></path>
                <path d="M20.8337042,102.643237 C18.5044702,102.643237 16.6928437,100.757403 16.6928437,98.3327599 C16.6928437,95.9081165 18.5044702,94.0222827 20.8337042,94.0222827 C23.1629382,94.0222827 24.9745646,95.9081165 24.9745646,98.3327599 C24.9745646,100.757403 23.1629382,102.643237 20.8337042,102.643237 Z" id="Shape" fill="url(#linearGradient-2)"></path>
            </g>
        </g>
    </g>
</svg>