<?xml version="1.0" encoding="UTF-8" standalone="no"?>
<svg width="180px" height="180px" viewBox="0 0 180 180" version="1.1" xmlns="http://www.w3.org/2000/svg" xmlns:xlink="http://www.w3.org/1999/xlink">
    <!-- Generator: Sketch 40.3 (33839) - http://www.bohemiancoding.com/sketch -->
    <title>Artboard 5 Copy 3</title>
    <desc>Created with Sketch.</desc>
    <defs></defs>
    <g id="Page-1" stroke="none" stroke-width="1" fill="none" fill-rule="evenodd">
        <g id="Artboard-5-Copy-3">
            <circle id="Oval" stroke="#4A4A4A" stroke-width="3" cx="90" cy="90" r="66"></circle>
            <g id="Group" transform="translate(89.336559, 92.114784) scale(-1, -1) rotate(131.000000) translate(-89.336559, -92.114784) translate(69.836559, 40.114784)">
                <path d="M38.0503791,19.4787808 C38.0503791,8.92253832 29.4703916,0.251339108 19.0251895,0.251339108 C16.5382367,0.251339108 14.1756314,0.754017323 11.8130262,1.6337042 C11.3156356,1.88504331 10.9425927,2.26205197 10.818245,2.76473018 C10.6938974,3.2674084 10.818245,3.77008662 11.0669403,4.14709528 L17.5330178,12.4412858 L13.1808503,15.7086942 L6.71477278,7.54017323 C6.46607749,7.16316457 5.96868692,6.91182546 5.47129634,6.91182546 L5.47129634,6.91182546 C4.97390576,6.91182546 4.47651519,7.16316457 4.2278199,7.54017323 C1.49217173,10.9332512 9.02389274e-13,15.0803465 9.02389274e-13,19.4787808 C9.02389274e-13,27.1446236 4.60086283,34.1821186 11.5643309,37.1981879 L8.82868273,97.5195738 C8.82868273,101.918008 14.1756314,103.426043 19.2738848,103.426043 L19.5225801,103.426043 C23.2530094,103.426043 30.9625634,101.918008 30.9625634,96.891226 L27.3564817,36.8211793 C33.8225592,33.5537709 38.0503791,26.8932845 38.0503791,19.4787808 L38.0503791,19.4787808 Z" id="Path" fill="#4A4A4A"></path>
                <path d="M24.9938765,34.1821186 C24.3721382,34.4334578 23.9990953,35.0618055 23.9990953,35.8158228 L27.7295246,96.891226 C27.7295246,98.5249302 23.1286618,100.032965 19.5225801,100.032965 L19.2738848,100.032965 C15.6678032,100.032965 12.0617215,99.0276084 12.0617215,97.3939042 L14.7973696,36.067162 C14.7973696,35.3131446 14.4243267,34.6847969 13.6782408,34.4334578 C7.336511,32.1714058 3.1086911,26.1392672 3.1086911,19.3531113 C3.1086911,16.337042 3.85477697,13.5723118 5.47129634,11.0589207 L11.8130262,18.9761026 C12.3104168,19.6044504 13.3051979,19.73012 14.0512838,19.2274417 L20.8904042,13.9493205 C21.2634471,13.6979814 21.5121424,13.3209727 21.5121424,12.8182945 C21.5121424,12.3156163 21.3877948,11.9386076 21.1390995,11.561599 L15.0460649,3.77008662 C16.2895414,3.39307795 17.6573655,3.2674084 19.0251895,3.2674084 C27.7295246,3.2674084 34.8173403,10.430573 34.8173403,19.2274417 C34.8173403,26.0135976 30.9625634,31.7943971 24.9938765,34.1821186 L24.9938765,34.1821186 Z" id="Shape" fill="#E8E8E8"></path>
                <rect id="Rectangle-path" stroke="#4A4A4A" fill="#FFC938" transform="translate(22.422442, 23.125284) rotate(-38.381524) translate(-22.422442, -23.125284) " x="15.2102207" y="18.852485" width="14.4244423" height="8.54559811"></rect>
                <path d="M13.8025885,91.7387743 C13.8025885,95.1318523 16.5382367,97.8965824 19.8956231,97.8965824 C23.2530094,97.8965824 25.9886576,95.1318523 25.9886576,91.7387743 C25.9886576,88.3456963 23.2530094,85.5809662 19.8956231,85.5809662 C16.5382367,85.5809662 13.8025885,88.3456963 13.8025885,91.7387743 L13.8025885,91.7387743 Z" id="Path" fill="#4A4A4A"></path>
                <path d="M20.0199707,95.7602 C17.7817131,95.7602 16.0408461,94.0008263 16.0408461,91.7387743 C16.0408461,89.4767223 17.7817131,87.7173486 20.0199707,87.7173486 C22.2582283,87.7173486 23.9990953,89.4767223 23.9990953,91.7387743 C23.9990953,94.0008263 22.2582283,95.7602 20.0199707,95.7602 Z" id="Shape" fill="#42D3AA"></path>
            </g>
        </g>
    </g>
</svg>