<?xml version="1.0" encoding="UTF-8" standalone="no"?>
<svg width="400px" height="100px" viewBox="0 0 400 100" version="1.1" xmlns="http://www.w3.org/2000/svg" xmlns:xlink="http://www.w3.org/1999/xlink">
    <!-- Generator: Sketch 40.3 (33839) - http://www.bohemiancoding.com/sketch -->
    <title>Artboard 2 Copy 4</title>
    <desc>Created with Sketch.</desc>
    <defs></defs>
    <g id="Page-1" stroke="none" stroke-width="1" fill="none" fill-rule="evenodd">
        <g id="Artboard-2-Copy-4">
            <g id="Group-3" transform="translate(-12.000000, -1.000000)">
                <g id="Group">
                    <g id="Group-2">
                        <g id="Group-Copy-10" transform="translate(52.486144, 51.671133) rotate(52.000000) translate(-52.486144, -51.671133) translate(16.986144, 13.671133)">
                            <path d="M65.8562677,58.9066463 C65.6880962,60.1538123 64.3918185,61.8437592 63.2386431,62.3202757 L58.7794895,64.1620332 L45.704946,53.847348 L51.6379497,8.20929378 L68.7298052,21.5633532 C69.7168982,22.3340027 70.5191072,24.3117572 70.3509358,25.557869 L65.8562677,58.9066463 Z" id="Path" fill="#FFC938"></path>
                            <path d="M32.375534,75.0681471 C32.0183003,75.216795 31.523187,75.2979714 30.9810692,75.2979714 C29.9010119,75.2979714 28.7593265,74.971157 28.138868,74.4872608 L1.76833788,53.8831922 C0.783333927,53.1135969 -0.0188750217,51.1347882 0.148251843,49.8886764 L1.21159652,42.0029604 L14.0855878,36.6864275 L40.2513875,57.1313059 L52.4683613,66.7712775 L32.375534,75.0681471 L32.375534,75.0681471 Z" id="Path" fill="#30485F"></path>
                            <path d="M7.26158901,13.1262696 L38.1246981,0.379452509 C38.4819318,0.231858894 38.9760006,0.150682406 39.5181184,0.150682406 C40.5981757,0.150682406 41.7409057,0.476442599 42.3613642,0.961393048 L46.216772,3.97335703 L44.4347818,17.6932378 L2.1339279,35.1641048 L4.64396449,16.5388449 C4.8121359,15.2927331 6.10841364,13.6017319 7.26158901,13.1262696 L7.26158901,13.1262696 Z" id="Path" fill="#42D3AA"></path>
                        </g>
                    </g>
                </g>
                <path d="M150.149162,67.3208431 L141.321502,65.1695645 L141.321502,30.7491066 C141.667686,30.6996517 142.149865,30.6440158 142.768051,30.5821971 C143.386238,30.5203784 143.942598,30.4894696 144.437147,30.4894696 C147.602262,30.4894696 149.976063,31.404372 151.558621,33.2342044 C153.141179,35.0640367 153.932446,37.4254741 153.932446,40.3185874 C153.932446,43.1622457 153.091724,45.3753206 151.410257,46.9578783 C149.728789,48.540436 147.231353,49.35643 143.917873,49.405885 L142.582596,49.442976 L143.472781,54.1906253 C144.956428,54.2895352 146.081511,54.3389894 146.848063,54.3389894 C150.161543,54.3389894 153.172066,53.6528125 155.879724,52.2804383 C158.587381,50.908064 160.720093,49.0349867 162.277923,46.6611502 C163.835753,44.2873136 164.614657,41.6538782 164.614657,38.7607649 C164.614657,33.6669073 162.957941,30.1000242 159.644461,28.0600084 C156.330981,26.0199926 151.707015,25 145.772423,25 C142.137486,25 138.756056,25.1607261 135.628032,25.4821831 C132.500008,25.8036402 128.933124,26.2610914 124.927275,26.8545505 L124.482183,31.2312898 L131.158565,32.6036572 L131.158565,65.5033836 L124.630547,67.8401172 L124,71.7717644 L149.481524,71.7717644 L150.149162,67.3208431 Z M180.211427,71.7903099 C181.583801,71.2092145 182.745974,70.485947 183.697982,69.6204857 C184.649989,68.7550245 185.311439,67.8895762 185.682351,67.024115 L186.127443,67.135388 L186.238716,67.6546622 C186.5849,69.187765 187.184532,70.387029 188.03763,71.2524902 C188.890727,72.1179515 190.269263,72.5506756 192.173277,72.5506756 C193.558015,72.5506756 194.676916,72.4394037 195.530014,72.2168565 C196.383111,71.9943093 197.230014,71.6234029 198.070748,71.1041262 L198.775477,66.3564768 L197.328928,66.0968397 C196.14201,65.8742926 195.30747,65.5713857 194.825285,65.18811 C194.343099,64.8048343 194.052556,64.3041107 193.953646,63.6859241 C193.854736,63.0677374 193.805282,62.0291995 193.805282,60.5702792 L193.805282,48.8866108 C193.805282,44.9302166 192.976924,42.0433285 191.320184,40.2258598 C189.663444,38.4083912 187.27728,37.4996706 184.161619,37.4996706 C182.059785,37.4996706 179.821983,37.9385765 177.448146,38.8164014 C175.07431,39.6942264 173.08996,40.8131274 171.495039,42.1731379 C169.900118,43.5331484 169.102669,44.880775 169.102669,46.2160581 C169.102669,47.971708 169.73321,49.1338814 170.99431,49.7026131 C172.255411,50.2713447 173.899763,50.5557063 175.927415,50.5557063 C176.100507,48.3796895 176.28596,46.7600649 176.48378,45.6967839 C176.6816,44.633503 177.009234,43.8484178 177.466692,43.3415047 C177.92415,42.8345917 178.597963,42.581139 179.488152,42.581139 C181.293257,42.581139 182.677974,43.3353154 183.642345,44.8436907 C184.606716,46.352066 185.088894,48.2313251 185.088894,50.4815243 L185.088894,53.2633501 C181.379775,53.3869874 178.251798,54.0051647 175.704869,55.1179006 C173.15794,56.2306365 171.247772,57.6648079 169.974308,59.4204578 C168.700843,61.1761078 168.064121,63.0924575 168.064121,65.1695645 C168.064121,67.5681285 168.775025,69.4164787 170.196854,70.7146706 C171.618683,72.0128624 173.479397,72.6619486 175.779051,72.6619486 C177.361608,72.6619486 178.839052,72.3714053 180.211427,71.7903099 L180.211427,71.7903099 Z M185.088894,63.9455611 C184.44598,64.5390203 183.697986,65.0521074 182.844888,65.4848381 C181.991791,65.9175687 181.157251,66.1339307 180.341245,66.1339307 C179.253237,66.1339307 178.39397,65.7753879 177.76342,65.0582914 C177.13287,64.341195 176.817599,63.5252009 176.817599,62.6102847 C176.817599,61.1760918 177.454322,59.9150101 178.727786,58.8270017 C180.001251,57.7389932 182.121599,56.9477263 185.088894,56.453177 L185.088894,63.9455611 Z M216.950073,69.8430318 L216.950073,79.1899665 L224.368275,81.081608 L223.737727,85.5325293 L201.965304,85.5325293 L202.410396,81.15579 L208.122412,79.1528755 L208.122412,46.4015131 L202.484578,44.0647794 L203.189308,39.5025851 L216.282434,38.3156728 L217.395165,39.3542211 L216.727526,43.2858682 L217.098437,43.3971413 C218.211172,41.8145836 219.626799,40.4607752 221.345357,39.3356756 C223.063916,38.210576 225.035902,37.6480346 227.261373,37.6480346 C229.462118,37.6480346 231.458831,38.2229395 233.251572,39.3727666 C235.044313,40.5225937 236.472302,42.3214897 237.535583,44.7695086 C238.598864,47.2175276 239.130497,50.3084142 239.130497,54.0422613 C239.130497,57.8502908 238.370139,61.1451759 236.8494,63.9270156 C235.328661,66.7088553 233.239221,68.8292036 230.581019,70.2881239 C227.922817,71.7470443 224.93702,72.4764936 221.62354,72.4764936 C219.422796,72.4764936 217.877352,72.3157675 216.987164,71.9943104 L216.950073,69.8430318 Z M216.950073,48.4786097 L216.950073,65.5775656 C217.864989,65.9979325 218.755164,66.3008394 219.620625,66.4862953 C220.486087,66.6717513 221.499897,66.7644779 222.662088,66.7644779 C224.862832,66.7644779 226.587547,65.9052114 227.836284,64.1866527 C229.085021,62.4680939 229.70938,60.0757477 229.70938,57.0095421 C229.70938,53.3498775 229.208657,50.5309889 228.207194,48.5527917 C227.205732,46.5745946 225.703561,45.5855109 223.700636,45.5855109 C221.574075,45.5855109 219.323909,46.5498675 216.950073,48.4786097 L216.950073,48.4786097 Z M267.690575,70.4921245 C270.237504,68.9713855 272.228035,66.8263101 273.662228,64.0568342 C275.096421,61.2873582 275.813506,58.0975632 275.813506,54.4873534 C275.813506,50.8771437 275.195329,47.7924388 273.958956,45.2331463 C272.722583,42.6738538 270.911323,40.7265952 268.525123,39.3913121 C266.138923,38.0560291 263.264398,37.3883975 259.901463,37.3883975 C257.057804,37.3883975 254.313097,38.1054832 251.667258,39.5396762 C249.02142,40.9738691 246.857799,43.0447631 245.176332,45.7524204 C243.494864,48.4600777 242.654143,51.6189639 242.654143,55.2291736 C242.654143,58.5179264 243.222866,61.4789958 244.360329,64.1124707 C245.497793,66.7459456 247.296689,68.8477485 249.757071,70.4179425 C252.217454,71.9881364 255.314523,72.7732216 259.04837,72.7732216 C262.26294,72.7732216 265.143646,72.0128635 267.690575,70.4921245 L267.690575,70.4921245 Z M264.482203,47.6626075 C265.656757,50.6299032 266.244026,54.2400588 266.244026,58.4931826 C266.244026,61.2626585 265.749484,63.432461 264.760385,65.0026549 C263.771287,66.5728489 262.275298,67.3579341 260.272373,67.3579341 C257.453442,67.3579341 255.394912,66.0412164 254.09672,63.4077415 C252.798528,60.7742666 252.149442,57.2321105 252.149442,52.7811669 C252.149442,49.8385987 252.650165,47.5080702 253.651628,45.7895114 C254.65309,44.0709527 256.241806,43.2116862 258.417822,43.2116862 C261.286208,43.2116862 263.307648,44.6953118 264.482203,47.6626075 L264.482203,47.6626075 Z M283.083344,61.4604634 C283.058617,64.2546669 283.373887,66.4677417 284.029165,68.0997543 C284.684443,69.7317669 285.692072,70.8939403 287.052083,71.5863093 C288.412093,72.2786783 290.204807,72.6248576 292.430279,72.6248576 C294.878298,72.6248576 297.0481,72.1055886 298.939751,71.0670352 C300.831402,70.0284817 302.333573,68.7303093 303.446309,67.172479 L302.519034,63.7230151 C302.395397,63.7971975 302.104853,63.9579236 301.647395,64.2051982 C301.189937,64.4524728 300.60885,64.693562 299.904118,64.9284729 C299.199385,65.1633838 298.488481,65.2808375 297.771385,65.2808375 C295.76846,65.2808375 294.352834,64.8233863 293.524464,63.9084701 C292.696094,62.9935539 292.281915,61.4604742 292.281915,59.3091848 L292.356097,45.0662367 L302.407761,45.0662367 L302.778671,39.7993132 L292.46737,39.7993132 L292.46737,31.6392909 L288.461541,31.6392909 C287.150985,33.5185782 285.673542,35.2927471 284.029165,36.9618509 C282.384789,38.6309547 280.709528,40.0465808 279.003333,41.2087716 L279.003333,44.9549637 L283.194617,44.9549637 L283.083344,61.4604634 Z M328.408559,71.6975823 C330.757668,70.881576 332.686382,69.6946756 334.194757,68.1368453 L333.452937,63.9455611 C331.994016,64.7121125 330.57839,65.2128361 329.206016,65.4477471 C327.833642,65.682658 326.319107,65.8001117 324.662367,65.8001117 C321.868164,65.8001117 319.753997,64.9470269 318.319805,63.2408319 C316.885612,61.5346369 316.094345,59.3586527 315.94598,56.7128141 L332.674026,56.341904 C332.82239,55.6742624 332.976935,54.6357245 333.137663,53.2262591 C333.298392,51.8167936 333.378755,50.8153463 333.378755,50.2218872 C333.378755,47.6502309 332.939849,45.4000655 332.062024,43.4713233 C331.184199,41.5425811 329.941663,40.0589555 328.334377,39.020402 C326.727092,37.9818485 324.860197,37.4625796 322.733635,37.4625796 C320.063069,37.4625796 317.485269,38.2353012 315.000159,39.7807677 C312.515049,41.3262342 310.487427,43.4960366 308.917233,46.2902401 C307.347039,49.0844435 306.561954,52.2742385 306.561954,55.8597208 C306.561954,59.494658 307.217222,62.5979082 308.527778,65.1695645 C309.838333,67.7412207 311.60632,69.6761158 313.831792,70.9743076 C316.057264,72.2724995 318.542337,72.9215857 321.287085,72.9215857 C323.685649,72.9215857 326.05945,72.5135887 328.408559,71.6975823 L328.408559,71.6975823 Z M323.772183,45.2331463 C324.439825,46.2840635 324.77364,47.6996896 324.77364,49.480067 C324.77364,49.8262515 324.755095,50.2713392 324.718004,50.8153434 C324.680913,51.3593476 324.625277,51.7426175 324.551094,51.9651647 L315.834707,52.8182579 C315.884162,50.9389707 316.131433,49.3069825 316.576527,47.9222445 C317.021621,46.5375066 317.602708,45.4804233 318.319805,44.7509631 C319.036901,44.021503 319.815804,43.6567783 320.656538,43.6567783 C322.066004,43.6567783 323.104542,44.1822291 323.772183,45.2331463 L323.772183,45.2331463 Z M360.974467,66.6532049 L352.220988,64.8728364 L352.220988,53.8938973 C352.641355,52.01461 353.352259,50.4815302 354.353721,49.2946119 C355.355184,48.1076937 356.535902,47.5142434 357.895913,47.5142434 C359.305378,47.5142434 360.863185,48.0582395 362.56938,49.1462479 C363.632661,48.2560592 364.461019,47.2978843 365.054478,46.2716946 C365.647937,45.2455048 365.944662,44.0771497 365.944662,42.7665941 C365.944662,41.3324012 365.468666,40.1331371 364.516658,39.168766 C363.564651,38.2043949 362.285024,37.7222166 360.677739,37.7222166 C358.823179,37.7222166 357.098464,38.4454841 355.503543,39.8920408 C353.908621,41.3385974 352.653721,43.5331269 351.738805,46.4756951 L351.034076,46.2902401 L351.738805,39.4284031 L350.588984,38.2414908 L338.497314,39.4654941 L337.755494,43.9905974 L343.393328,46.3273311 L343.393328,65.3921105 L337.829676,67.3950251 L337.23622,71.7346733 L360.529375,71.7346733 L360.974467,66.6532049 Z M386.25199,71.7903099 C388.341461,70.9372124 390.004358,69.719403 391.240731,68.1368453 C392.477105,66.5542876 393.095282,64.7244827 393.095282,62.6473758 C393.095282,60.743361 392.60074,59.0928276 391.611641,57.6957258 C390.622543,56.2986241 389.435642,55.1364507 388.050904,54.2091708 C386.666166,53.2818909 384.873452,52.2495348 382.672708,51.1120715 C381.164333,50.3455201 379.977432,49.6964339 379.111971,49.1647934 C378.24651,48.6331529 377.529424,48.0458845 376.960692,47.4029704 C376.391961,46.7600563 376.107599,46.0553342 376.107599,45.2887828 C376.107599,44.2996842 376.435233,43.4713266 377.090511,42.8036851 C377.745789,42.1360436 378.629782,41.8022278 379.742518,41.8022278 C380.954164,41.8022278 382.066883,42.1978613 383.080709,42.9891401 C384.094535,43.780419 384.848711,45.1651362 385.343261,47.1433333 L386.085081,49.517158 C387.840731,49.3687932 389.299629,48.7691612 390.46182,47.718244 C391.624011,46.6673268 392.205098,45.3629726 392.205098,43.8051424 C392.205098,41.7774903 391.222196,40.2196835 389.256362,39.131675 C387.290529,38.0436666 384.712729,37.4996706 381.522887,37.4996706 C378.605046,37.4996706 376.175609,38.0807573 374.234503,39.2429481 C372.293397,40.4051389 370.871589,41.8331285 369.969037,43.5269598 C369.066484,45.2207911 368.615215,46.858961 368.615215,48.4415187 C368.615215,50.3702609 369.115939,52.0455214 370.117401,53.4673506 C371.118863,54.8891798 372.299582,56.0637167 373.659592,56.9909966 C375.019603,57.9182765 376.78759,58.9506327 378.963607,60.088096 C380.373072,60.8051925 381.467246,61.3986427 382.246161,61.8684645 C383.025076,62.3382863 383.667981,62.8575553 384.174894,63.426287 C384.681807,63.9950186 384.93526,64.6008324 384.93526,65.2437465 C384.93526,66.3317549 384.55199,67.1106583 383.785438,67.5804802 C383.018887,68.050302 381.906168,68.2852094 380.447247,68.2852094 C378.988327,68.2852094 377.653064,67.6361232 376.441418,66.3379313 C375.229772,65.0397394 374.265416,63.141935 373.548319,60.6444612 C371.669032,60.792826 370.19777,61.3491856 369.134489,62.3135567 C368.071208,63.2779278 367.539576,64.526646 367.539576,66.0597487 C367.539576,67.3703043 368.07739,68.5572048 369.153035,69.6204857 C370.228679,70.6837667 371.675214,71.5244879 373.492683,72.1426745 C375.310151,72.7608611 377.269773,73.0699497 379.371608,73.0699497 C381.869082,73.0699497 384.16252,72.6434074 386.25199,71.7903099 L386.25199,71.7903099 Z" id="Papoters" fill="#30485F"></path>
            </g>
        </g>
    </g>
</svg>