<?xml version="1.0" encoding="UTF-8" standalone="no"?>
<svg width="150px" height="150px" viewBox="0 0 150 150" version="1.1" xmlns="http://www.w3.org/2000/svg" xmlns:xlink="http://www.w3.org/1999/xlink">
    <!-- Generator: Sketch 40.3 (33839) - http://www.bohemiancoding.com/sketch -->
    <title>Group 2</title>
    <desc>Created with Sketch.</desc>
    <defs></defs>
    <g id="Page-1" stroke="none" stroke-width="1" fill="none" fill-rule="evenodd">
        <g id="Pictos" transform="translate(-463.000000, -28.000000)">
            <g id="Group-2" transform="translate(463.000000, 28.000000)">
                <g id="noun_659322_cc-copy">
                    <circle id="Oval-3" fill="#FFFFFF" cx="75" cy="75" r="75"></circle>
                    <g id="Group" transform="translate(1.000000, 0.000000)" fill="#C6BDBD">
                        <path d="M74.25,0 C33.375,0 -1.42108547e-14,33.375 -1.42108547e-14,74.25 C-1.42108547e-14,115.125 33.375,148.6875 74.25,148.6875 C115.125,148.6875 148.5,115.3125 148.5,74.4375 C148.5,33.5625 115.125,0 74.25,0 L74.25,0 Z" id="Shape"></path>
                    </g>
                </g>
                <g id="Group" transform="translate(35.000000, 39.000000)" fill="#FFFFFF">
                    <path d="M3.01766406,14.7124091 C1.00578125,16.7110682 0,19.1033182 0,21.8886818 L0,59.6791364 C0,62.4651364 1.00578125,64.8573864 3.01766406,66.8558864 C5.02970703,68.8543864 7.43797656,69.8536364 10.2424727,69.8536364 L11.7056602,69.8536364 L11.7056602,11.7141818 L10.2424727,11.7141818 C7.43733594,11.7141818 5.02922656,12.7139091 3.01766406,14.7124091 L3.01766406,14.7124091 Z" id="Shape"></path>
                    <path d="M58.5284609,4.44706818 C58.5284609,3.23575 58.1019648,2.20643182 57.2481719,1.35847727 C56.3953398,0.510522727 55.3583281,0.0868636364 54.1393789,0.0868636364 L27.8013633,0.0868636364 C26.5822539,0.0868636364 25.5458828,0.510522727 24.6920898,1.35847727 C23.838457,2.20595455 23.4118008,3.23559091 23.4118008,4.44706818 L23.4118008,11.7141818 L16.0957031,11.7141818 L16.0957031,69.8536364 L65.8442383,69.8536364 L65.8442383,11.7141818 L58.5284609,11.7141818 L58.5284609,4.44706818 L58.5284609,4.44706818 Z M29.2645508,5.90052273 L52.6760312,5.90052273 L52.6760312,11.7141818 L29.2645508,11.7141818 L29.2645508,5.90052273 L29.2645508,5.90052273 Z" id="Shape"></path>
                    <path d="M78.9225977,14.7124091 C76.9105547,12.7139091 74.502125,11.7141818 71.6977891,11.7141818 L70.2344414,11.7141818 L70.2344414,69.8536364 L71.6977891,69.8536364 C74.5022852,69.8536364 76.9105547,68.8545455 78.9225977,66.8558864 C80.934,64.8573864 81.9402617,62.4649773 81.9402617,59.6791364 L81.9402617,21.8886818 C81.9401016,19.1033182 80.9338398,16.7110682 78.9225977,14.7124091 L78.9225977,14.7124091 Z" id="Shape"></path>
                </g>
            </g>
        </g>
    </g>
</svg>