<?xml version="1.0" encoding="UTF-8" standalone="no"?>
<svg width="101px" height="59px" viewBox="0 0 101 59" version="1.1" xmlns="http://www.w3.org/2000/svg" xmlns:xlink="http://www.w3.org/1999/xlink">
    <!-- Generator: Sketch 40.3 (33839) - http://www.bohemiancoding.com/sketch -->
    <title>Group 2</title>
    <desc>Created with Sketch.</desc>
    <defs>
        <rect id="path-1" x="80.2182667" y="6.38637933" width="15.5358984" height="22.3564065"></rect>
        <mask id="mask-2" maskContentUnits="userSpaceOnUse" maskUnits="objectBoundingBox" x="0" y="0" width="15.5358984" height="22.3564065" fill="white">
            <use xlink:href="#path-1"></use>
        </mask>
        <rect id="path-3" x="5.20328504" y="3.31788182" width="15.5358984" height="22.3564065"></rect>
        <mask id="mask-4" maskContentUnits="userSpaceOnUse" maskUnits="objectBoundingBox" x="0" y="0" width="15.5358984" height="22.3564065" fill="white">
            <use xlink:href="#path-3"></use>
        </mask>
    </defs>
    <g id="Page-1" stroke="none" stroke-width="1" fill="none" fill-rule="evenodd">
        <g id="Pictos" transform="translate(-594.000000, -71.000000)">
            <g id="Group-2" transform="translate(594.000000, 71.000000)">
                <path d="M87.9780801,29.1900905 L77.9090085,11.9450183 C77.6256229,11.4586101 77.0300901,11.2547417 76.5064612,11.4611479 C76.4793915,11.472145 73.7064421,12.5600074 70.7896851,12.5600074 C69.6671397,12.5600074 68.2662842,11.8824197 66.642104,11.0982451 C64.4046265,10.0179961 61.6198341,8.67297183 58.3773951,8.67297183 C55.4048069,8.67297183 52.8856356,9.52143682 50.7902739,10.751415 C48.5621016,9.18306593 46.0911482,8.26692676 43.432399,8.04191012 C40.2034948,7.77036749 37.3146534,8.87345657 34.9925832,9.76168015 C33.310034,10.4062767 31.8601147,10.9696642 30.7367234,10.867307 C27.8461901,10.6228341 25.1578334,9.30403353 25.1324556,9.29134462 C24.6299749,9.04179609 24.0192154,9.19575484 23.6952253,9.65593925 L12.2075337,25.9891019 C11.8657791,26.4738182 11.9546015,27.1404088 12.4114022,27.5193842 L24.6189778,37.6383655 L24.5876785,37.6696648 C23.6859201,38.5722692 23.1885149,39.7701021 23.1885149,41.0457603 C23.1885149,42.3222645 23.6859201,43.5217893 24.5868326,44.4227018 C25.488591,45.3236143 26.6881158,45.8210195 27.963774,45.8210195 C28.2488515,45.8210195 28.5296993,45.7922579 28.8046256,45.7431942 C28.8105471,47.0103931 29.3062605,48.2006127 30.2020974,49.0972956 C31.1038558,49.998208 32.3033806,50.4956132 33.5790388,50.4956132 C33.9884676,50.4956132 34.3894371,50.439782 34.7760258,50.3382708 C34.8437,51.4641999 35.3005007,52.5706727 36.1591168,53.427597 C37.0608752,54.3293554 38.2595541,54.8250687 39.5352123,54.8250687 C39.8575106,54.8250687 40.1738874,54.7937694 40.4826508,54.7328627 C42.5932392,57.3645422 45.3112034,58.1884753 47.7153285,58.1884753 C49.2769101,58.1884753 50.7039893,57.8424911 51.7470176,57.4220653 C52.5413432,57.6826108 53.4058809,57.8247266 54.2814155,57.8247266 C56.1847518,57.8247266 57.9662745,57.1733627 59.1632615,56.0948055 C59.7325705,56.3282814 60.3467136,56.4517867 60.9811591,56.4517867 C62.2576632,56.4517867 63.4563421,55.9560734 64.3564086,55.054315 C65.0433015,54.368268 65.4933348,53.5113438 65.6701336,52.579132 C66.3967851,52.9902526 67.2080293,53.2000425 68.0209653,53.2000425 C69.2424842,53.2000425 70.4673868,52.7347826 71.3970608,51.8051086 C72.1956161,51.0065533 72.6752568,49.9728302 72.7759222,48.8621278 C73.2234177,48.999168 73.696291,49.0702259 74.1776236,49.0702259 C75.4532818,49.0702259 76.6536525,48.5736666 77.5537191,47.6727541 C78.4554775,46.7709957 78.9528827,45.5723169 78.9528827,44.2966586 C78.9528827,43.0201545 78.4554775,41.8206297 77.5537191,40.9197172 L75.6639177,39.0290699 L87.6439389,30.6958409 C88.1328848,30.3583159 88.2775384,29.7010305 87.9780801,29.1900905 L87.9780801,29.1900905 Z" id="Shape" fill="#5A5A5A"></path>
                <use id="Rectangle" stroke="#5C5C5C" mask="url(#mask-2)" stroke-width="4" fill="#42D3AA" transform="translate(87.986216, 17.564583) rotate(-30.000000) translate(-87.986216, -17.564583) " xlink:href="#path-1"></use>
                <path d="M48.0672342,54.2955183 C48.2262685,54.8360658 48.5502587,55.333471 49.0671202,55.8139576 C47.2754463,56.1142618 44.6886009,55.9941401 42.6033903,53.7135204 C42.7091312,53.6255439 42.8140262,53.531646 42.9129997,53.4326725 L47.7880782,48.557594 C47.8481391,48.4975332 47.9022784,48.4332427 47.9581096,48.3689522 C49.6609611,49.7089009 49.2828316,50.3797212 48.7016796,51.4024472 C48.2643353,52.1697032 47.72125,53.1272928 48.0672342,54.2955183 L48.0672342,54.2955183 Z" id="Path" fill="#FFFFFF"></path>
                <path d="M75.9489952,42.5278248 C76.4201766,43.0006981 76.6798763,43.6283761 76.6798763,44.2966586 C76.6798763,44.9632493 76.4193307,45.5909273 75.9489952,46.0646465 C75.4752759,46.5383657 74.8484439,46.7955276 74.1801614,46.7955276 C73.5127248,46.7955276 72.8842009,46.535828 72.4113276,46.0646465 L61.1122778,34.7664426 C60.6690119,34.3231768 59.9491279,34.3231768 59.5050161,34.7664426 C59.0609043,35.2088626 59.0609043,35.9295926 59.5050161,36.3737043 L69.7864154,46.6551037 C69.7881073,46.6584874 69.7897991,46.6601793 69.791491,46.6618711 C70.2652102,47.1347444 70.5249099,47.7624224 70.5249099,48.429859 C70.5249099,49.0981415 70.2635184,49.7258195 69.791491,50.1986928 C69.3186177,50.6707202 68.6909397,50.9304198 68.0235031,50.9304198 C67.3560665,50.9304198 66.7283885,50.6698742 66.2555152,50.1986928 L64.3631761,48.3071995 C64.3614842,48.3055077 64.3597923,48.302124 64.3581005,48.302124 C64.3581005,48.3004321 64.3564086,48.3004321 64.3547168,48.2987403 L57.6236739,41.5676974 C57.1804081,41.1244316 56.460524,41.1244316 56.0164122,41.5676974 C55.5731464,42.0101174 55.5731464,42.7308474 56.0164122,43.1749591 L62.7559143,49.9161531 C63.2254039,50.3898723 63.4825658,51.0141666 63.4825658,51.6790654 C63.4825658,52.3473479 63.2211743,52.9750259 62.7508388,53.4478992 C62.2779655,53.9216185 61.6502875,54.1796263 60.9828509,54.1796263 L60.9811591,54.1796263 C60.3137225,54.1796263 59.6868904,53.9190807 59.2131712,53.4478992 L55.0799708,49.3146989 C54.636705,48.871433 53.915975,48.871433 53.4718632,49.3146989 C53.0285973,49.7588106 53.0285973,50.4795406 53.4718632,50.9228065 L57.2616171,54.7117145 C56.4884396,55.2353434 55.4107284,55.5525661 54.2814155,55.5525661 C53.5327699,55.5525661 52.8010429,55.4172178 52.1615219,55.1642855 C50.5559521,54.3200502 50.289485,53.7913457 50.2463427,53.6492299 C50.1803604,53.4250592 50.3740777,53.0596186 50.6777656,52.5241467 C51.6395848,50.8322923 52.3543933,48.8333663 49.0383587,46.337881 C49.1314107,45.9631352 49.18555,45.5757006 49.18555,45.1789607 C49.18555,43.9024565 48.6889907,42.7046236 47.7872323,41.8028652 C46.8863198,40.9011068 45.686795,40.4037016 44.4111368,40.4037016 C44.001708,40.4037016 43.6007385,40.4603787 43.2141498,40.5610441 C43.1456297,39.3928186 42.6634512,38.3058021 41.8293669,37.4725638 C40.9284545,36.5716513 39.7289297,36.0742461 38.4532714,36.0742461 C37.1776132,36.0742461 35.9780884,36.5716513 35.07633,37.4725638 L34.7726421,37.7762517 C34.5713115,36.9227111 34.1424264,36.1393825 33.507135,35.5032452 C32.6062225,34.6014868 31.4066978,34.1057735 30.1301936,34.1057735 C28.8545354,34.1057735 27.6558565,34.6014868 26.7540981,35.5032452 L26.2270854,36.0302579 C26.2000158,36.0023423 26.1754839,35.9744267 26.1450305,35.947357 L14.6717197,26.4374433 L25.0191014,11.727615 C26.1653327,12.1996424 28.2699996,12.9415205 30.5455439,13.133546 C32.1798752,13.2663566 33.9427875,12.5980741 35.8063652,11.8858034 C38.0201567,11.0381843 40.526639,10.0746732 43.2412195,10.3081491 C45.2139217,10.4747968 47.0656564,11.0957074 48.7701997,12.1429653 C46.5597919,13.9075694 44.9745243,16.0088526 43.9729465,17.5983499 C43.4290153,18.4620415 38.6901311,26.1549036 39.9370278,30.0385554 C40.2339482,30.961462 40.8438617,31.6339742 41.7016319,31.984188 C42.3301559,32.2413499 42.9722146,32.3707768 43.6100437,32.3707768 C46.6088557,32.3707768 48.8793243,29.6079785 51.0728136,26.9365404 C52.6792294,24.9799107 54.3364008,22.9640662 55.9529677,22.5317974 L66.2868145,32.867336 L67.3814443,33.9611199 L73.0956827,39.6762042 L73.0973745,39.6762042 L75.9489952,42.5278248 L75.9489952,42.5278248 Z" id="Path" fill="#FFFFFF"></path>
                <path d="M67.8957681,31.2583825 C67.8940762,31.2575366 57.1508006,20.514261 57.1508006,20.514261 C56.936781,20.3002414 56.6457821,20.1809656 56.3471698,20.1809656 C53.5268485,20.3662237 51.3858067,22.9725254 49.3149769,25.4933885 C47.4556288,27.7562438 45.5328363,30.0960785 43.6091978,30.0960785 C43.2632136,30.0960785 42.9206131,30.0250206 42.5602481,29.8778293 C42.3893708,29.8076173 42.2151098,29.6942631 42.1026014,29.3423574 C41.479999,27.4034922 43.5939711,22.4683528 45.8982768,18.8097176 C47.7483197,15.8735043 51.8290725,10.9459782 58.3773951,10.9459782 C61.0995889,10.9459782 63.5172488,12.1150497 65.6532151,13.1462349 C67.4499645,14.0133103 69.1468944,14.8330138 70.7896851,14.8330138 C73.0736886,14.8330138 75.2333407,14.2713181 76.4142551,13.8982642 L85.4842867,29.4286419 L74.0312782,37.3947385 L67.8957681,31.2583825 Z" id="Path" fill="#FFFFFF"></path>
                <path d="M39.5360583,52.5546001 C38.8686217,52.5546001 38.2409437,52.2940545 37.7680704,51.823719 C36.7944082,50.8509027 36.7944082,49.2673269 37.7655326,48.290281 L41.8302129,44.2247548 C41.8327507,44.2213711 41.8352884,44.2179874 41.8378262,44.2162955 L42.6431489,43.4101269 C43.1151763,42.9380995 43.7428543,42.6792458 44.4119827,42.6792458 C45.0785734,42.6792458 45.7070973,42.9397914 46.1799706,43.4118188 C46.651998,43.8838461 46.9116976,44.5123701 46.9116976,45.1798066 C46.9116976,45.8472432 46.6511521,46.4749212 46.1791247,46.9477945 L41.3048921,51.823719 C40.8320188,52.2940545 40.2043408,52.5546001 39.5360583,52.5546001 L39.5360583,52.5546001 Z" id="Path" fill="#FFFFFF"></path>
                <path d="M36.157425,46.6804815 L35.3478726,47.4917257 C34.8749993,47.9637531 34.2473213,48.2226068 33.5798848,48.2226068 C32.9116023,48.2226068 32.2839243,47.9620612 31.811051,47.4917257 C31.3381777,47.0180065 31.078478,46.3903285 31.078478,45.7228919 C31.078478,45.0546094 31.3390236,44.4269314 31.811051,43.9540581 L36.6852836,39.0789796 C37.1581569,38.6069522 37.7858349,38.3472525 38.4541174,38.3472525 C39.1215539,38.3472525 39.7500779,38.6077981 40.2229512,39.0798255 C40.6949786,39.5518529 40.9546782,40.1803768 40.9546782,40.8478134 C40.9546782,41.514404 40.6949786,42.1395442 40.225489,42.6124175 L36.1608087,46.6787897 C36.1599628,46.6787897 36.1591168,46.6804815 36.157425,46.6804815 L36.157425,46.6804815 Z" id="Path" fill="#FFFFFF"></path>
                <path d="M29.7317619,42.8145941 C29.2597345,43.2883134 28.6312106,43.5471671 27.963774,43.5471671 C27.2954915,43.5471671 26.6686594,43.2874675 26.1949402,42.8145941 C25.7229128,42.3425668 25.4632132,41.7148888 25.4632132,41.0457603 C25.4632132,40.3783238 25.7237587,39.7514917 26.1949402,39.2777725 L28.3622057,37.1113529 C28.835079,36.6384796 29.462757,36.3787799 30.1301936,36.3787799 C30.799322,36.3787799 31.427,36.6393255 31.8990274,37.1113529 C32.3719007,37.5842262 32.6307544,38.2110583 32.6307544,38.8793408 C32.6307544,39.5467773 32.3702089,40.1744553 31.8990274,40.6473286 L29.7317619,42.8145941 L29.7317619,42.8145941 Z" id="Path" fill="#FFFFFF"></path>
                <use id="Rectangle" stroke="#5C5C5C" mask="url(#mask-4)" stroke-width="4" fill="#F9C74B" transform="translate(12.971234, 14.496085) rotate(34.000000) translate(-12.971234, -14.496085) " xlink:href="#path-3"></use>
            </g>
        </g>
    </g>
</svg>