<?xml version="1.0" encoding="UTF-8" standalone="no"?>
<svg width="97px" height="59px" viewBox="0 0 97 59" version="1.1" xmlns="http://www.w3.org/2000/svg" xmlns:xlink="http://www.w3.org/1999/xlink">
    <!-- Generator: Sketch 40.3 (33839) - http://www.bohemiancoding.com/sketch -->
    <title>Group 2</title>
    <desc>Created with Sketch.</desc>
    <defs>
        <linearGradient x1="50%" y1="0%" x2="50%" y2="100%" id="linearGradient-1">
            <stop stop-color="#D2F4EB" offset="0%"></stop>
            <stop stop-color="#42D3AA" offset="100%"></stop>
        </linearGradient>
        <linearGradient x1="50%" y1="0%" x2="50%" y2="100%" id="linearGradient-2">
            <stop stop-color="#FEFAEE" offset="0%"></stop>
            <stop stop-color="#FFE49E" offset="44.0948202%"></stop>
            <stop stop-color="#FFC938" offset="100%"></stop>
        </linearGradient>
    </defs>
    <g id="Page-1" stroke="none" stroke-width="1" fill="none" fill-rule="evenodd">
        <g id="agree" transform="translate(-2.000000, -21.000000)">
            <g id="Group-2" transform="translate(2.000000, 21.000000)">
                <path d="M88.4155654,27.1575966 L77.6569856,8.73672408 C77.3541944,8.21715174 76.7178809,7.99938316 76.1583949,8.21986255 C76.1294716,8.2316094 73.1666366,9.39364424 70.0501464,9.39364424 C68.8507315,9.39364424 67.3539485,8.66985738 65.618548,7.83221641 C63.2278529,6.67831401 60.252364,5.24158354 56.7878898,5.24158354 C53.6117452,5.24158354 50.9200666,6.14789842 48.681219,7.46173874 C46.3004664,5.78645679 43.6603074,4.80785359 40.8194928,4.56749491 C37.3694803,4.277438 34.2828173,5.4557377 31.8017368,6.40452198 C30.0039703,7.09306828 28.4547637,7.69486859 27.254445,7.58553249 C24.1659742,7.32439092 21.2935247,5.91567218 21.2664091,5.90211811 C20.7295195,5.63555491 20.0769366,5.80001085 19.7307603,6.29157147 L7.45641664,23.7383588 C7.09125943,24.256124 7.18616415,24.968164 7.67424556,25.3729786 L20.7177694,36.1818905 L20.6843268,36.2153238 C19.7208179,37.1794693 19.1893515,38.4589727 19.1893515,39.8216076 C19.1893515,41.1851462 19.7208179,42.4664567 20.683423,43.4287951 C21.6469318,44.3911334 22.9285975,44.9224526 24.29161,44.9224526 C24.596209,44.9224526 24.8962886,44.8917301 25.1900413,44.839321 C25.1963683,46.1929199 25.726027,47.4642909 26.6832089,48.4221112 C27.6467178,49.3844495 28.9283834,49.9157687 30.291396,49.9157687 C30.7288615,49.9157687 31.1572886,49.8561308 31.5703501,49.7476983 C31.6426584,50.9503953 32.1307398,52.1323095 33.0481521,53.0476604 C34.011661,54.0109023 35.2924228,54.5404143 36.6554353,54.5404143 C36.9998039,54.5404143 37.3378454,54.506981 37.6677523,54.4419215 C39.9228692,57.2530337 42.8269536,58.1331441 45.395708,58.1331441 C47.0642234,58.1331441 48.5890259,57.76357 49.7034784,57.3144788 C50.5521978,57.5927889 51.4759371,57.7445943 52.4114264,57.7445943 C54.445099,57.7445943 56.3486165,57.0488192 57.6275706,55.896724 C58.2358646,56.1461187 58.892063,56.2780449 59.5699538,56.2780449 C60.9338702,56.2780449 62.214632,55.748533 63.1763332,54.785291 C63.910263,54.0524681 64.3911136,53.1371172 64.5800192,52.1413455 C65.3564302,52.5804971 66.2232266,52.8045909 67.0918307,52.8045909 C68.3969966,52.8045909 69.7057779,52.3076087 70.6991139,51.3145478 C71.5523526,50.4615455 72.064838,49.3573414 72.1723967,48.1709092 C72.6505357,48.3172931 73.1557904,48.3931958 73.6700836,48.3931958 C75.0330961,48.3931958 76.3156656,47.8627802 77.2773668,46.9004419 C78.2408756,45.9372 78.7723421,44.656793 78.7723421,43.2941581 C78.7723421,41.9306195 78.2408756,40.649309 77.2773668,39.6869706 L75.2581559,37.6674155 L88.0585429,28.7660119 C88.5809708,28.4054738 88.7355299,27.7033735 88.4155654,27.1575966 L88.4155654,27.1575966 Z" id="Shape" fill="#30485F"></path>
                <rect id="Rectangle" fill="#30485F" transform="translate(85.804788, 16.261566) rotate(-30.000000) translate(-85.804788, -16.261566) " x="80.5296104" y="4.32121221" width="10.5503546" height="23.8807069"></rect>
                <rect id="Rectangle" fill="url(#linearGradient-1)" transform="translate(85.804788, 16.261566) rotate(-30.000000) translate(-85.804788, -16.261566) " x="82.4835604" y="6.62495569" width="6.64245454" height="19.2732199"></rect>
                <path d="M45.7717115,53.9747582 C45.9416361,54.5521612 46.2878124,55.0834804 46.8400675,55.5967275 C44.9257037,55.9175069 42.1617167,55.7891951 39.9337155,53.3530786 C40.0466973,53.2591037 40.1587752,53.1588037 40.2645262,53.053082 L45.4734395,47.8456118 C45.5376132,47.7814559 45.5954599,47.712782 45.6551143,47.6441081 C47.4745733,49.0754169 47.0705504,49.7919749 46.4496023,50.8844323 C45.9823096,51.7040011 45.402035,52.7268809 45.7717115,53.9747582 L45.7717115,53.9747582 Z" id="Path" fill="#FFFFFF"></path>
                <path d="M75.5627548,41.404722 C76.0662018,41.9098366 76.3436851,42.5803109 76.3436851,43.2941581 C76.3436851,44.0061981 76.0652979,44.6766723 75.5627548,45.1826906 C75.0565963,45.6887089 74.3868402,45.9634045 73.6727951,45.9634045 C72.959654,45.9634045 72.2880901,45.685998 71.7828354,45.1826906 L59.7100513,33.1141546 C59.2364315,32.6406661 58.4672514,32.6406661 57.9927278,33.1141546 C57.5182042,33.5867396 57.5182042,34.3566102 57.9927278,34.8310024 L68.978175,45.8134062 C68.9799827,45.8170206 68.9817904,45.8188278 68.9835981,45.8206351 C69.4897567,46.3257497 69.76724,46.9962239 69.76724,47.7091676 C69.76724,48.4230148 69.4879489,49.093489 68.9835981,49.5986037 C68.4783435,50.1028147 67.8076835,50.3802212 67.0945423,50.3802212 C66.3814011,50.3802212 65.7107411,50.1019111 65.2054865,49.5986037 L63.183564,47.578145 C63.1817563,47.5763378 63.1799486,47.5727233 63.1781409,47.5727233 C63.1781409,47.5709161 63.1763332,47.5709161 63.1745255,47.5691089 L55.9825554,40.3791314 C55.5089357,39.9056428 54.7397555,39.9056428 54.265232,40.3791314 C53.7916122,40.8517163 53.7916122,41.6215869 54.265232,42.0959791 L61.4662405,49.2967999 C61.9678797,49.8028182 62.2426515,50.469678 62.2426515,51.1799108 C62.2426515,51.893758 61.9633605,52.5642322 61.4608174,53.0693469 C60.9555627,53.5753652 60.2849027,53.8509644 59.5717615,53.8509644 L59.5699538,53.8509644 C58.8568127,53.8509644 58.1870565,53.5726544 57.680898,53.0693469 L53.2646651,48.6543374 C52.7910453,48.1808489 52.0209613,48.1808489 51.5464377,48.6543374 C51.072818,49.1287295 51.072818,49.8986002 51.5464377,50.3720887 L55.5957057,54.4193314 C54.7695827,54.9786623 53.6180721,55.3175138 52.4114264,55.3175138 C51.6115152,55.3175138 50.8296811,55.1729372 50.1463671,54.9027595 C48.4308513,54.0009627 48.1461372,53.4362101 48.1000406,53.2844047 C48.02954,53.0449496 48.2365226,52.6545926 48.5610064,52.0826112 C49.5886889,50.2754031 50.3524459,48.1401867 46.8093364,45.4745547 C46.9087604,45.0742581 46.9666071,44.6604074 46.9666071,44.2366171 C46.9666071,42.8730786 46.4360445,41.5935752 45.4725357,40.6303333 C44.5099307,39.6670913 43.228265,39.1357722 41.8652525,39.1357722 C41.4277869,39.1357722 40.9993599,39.1963136 40.5862984,39.3038425 C40.5130862,38.0559653 39.9978891,36.8948341 39.1066886,36.0047841 C38.1440836,35.0424457 36.862418,34.5111265 35.4994054,34.5111265 C34.1363929,34.5111265 32.8547273,35.0424457 31.8912184,36.0047841 L31.5667346,36.3291779 C31.3516173,35.4174414 30.8933631,34.580704 30.2145683,33.9011938 C29.2519633,32.9379518 27.9702977,32.4084399 26.6063813,32.4084399 C25.2433688,32.4084399 23.962607,32.9379518 22.9990981,33.9011938 L22.4359968,34.4641391 C22.4070734,34.4343202 22.3808617,34.4045012 22.3483229,34.3755859 L10.0893447,24.217269 L21.1452926,8.50449783 C22.3700154,9.0087089 24.6188053,9.80116967 27.0501738,10.0062878 C28.7964207,10.1481536 30.6800534,9.43430642 32.6712448,8.67347179 C35.0366319,7.76806052 37.7147527,6.73885548 40.6152217,6.98825021 C42.7230104,7.16626021 44.7015478,7.82950559 46.5228146,8.94816743 C44.1610428,10.8330855 42.4672195,13.077638 41.3970559,14.7755101 C40.8158774,15.6980898 35.7524847,23.9154652 37.0847662,28.0639115 C37.4020191,29.0497435 38.0536982,29.7681088 38.9702066,30.1422009 C39.6417705,30.4168965 40.327796,30.5551479 41.0093023,30.5551479 C44.2134664,30.5551479 46.6394118,27.603977 48.9831064,24.7503954 C50.6995261,22.6603592 52.470177,20.5070707 54.1974429,20.045329 L65.2389291,31.0855635 L66.4085168,32.2539236 L72.5140537,38.3586727 L72.5158614,38.3586727 L75.5627548,41.404722 L75.5627548,41.404722 Z" id="Path" fill="#FFFFFF"></path>
                <path d="M66.9580603,29.3669086 C66.9562526,29.366005 55.4773008,17.8902333 55.4773008,17.8902333 C55.2486256,17.6616215 54.9376997,17.5342133 54.618639,17.5342133 C51.6051882,17.7321026 49.3175326,20.5161067 47.1048968,23.2088468 C45.1182247,25.6259877 43.0637635,28.1253566 41.0083984,28.1253566 C40.638722,28.1253566 40.2726609,28.0494538 39.8876189,27.8922267 C39.7050403,27.8172276 39.5188463,27.6961446 39.3986336,27.3202454 C38.7333967,25.2491848 40.9921291,19.9775587 43.4542286,16.0694711 C45.4309584,12.9330614 49.7911523,7.66956767 56.7878898,7.66956767 C59.6964935,7.66956767 62.2797095,8.9183485 64.5619421,10.0198419 C66.481729,10.946036 68.294861,11.8216284 70.0501464,11.8216284 C72.4905535,11.8216284 74.798094,11.2216353 76.0598748,10.8231459 L85.7510024,27.412413 L73.5137168,35.9216525 L66.9580603,29.3669086 Z" id="Path" fill="#FFFFFF"></path>
                <path d="M36.6563392,52.115141 C35.943198,52.115141 35.272538,51.8368309 34.7672833,51.3344271 C33.7269468,50.2952824 33.7269468,48.6037356 34.7645718,47.5600729 L39.1075925,43.2173517 C39.110304,43.2137373 39.1130156,43.2101229 39.1157272,43.2083157 L39.9761966,42.347181 C40.4805474,41.8429699 41.1512074,41.5664671 41.8661563,41.5664671 C42.5783936,41.5664671 43.2499575,41.8447771 43.7552122,42.3489882 C44.259563,42.8531993 44.5370463,43.5245771 44.5370463,44.2375207 C44.5370463,44.9504643 44.2586591,45.6209386 43.7543083,46.1260532 L38.5462989,51.3344271 C38.0410442,51.8368309 37.3703842,52.115141 36.6563392,52.115141 L36.6563392,52.115141 Z" id="Path" fill="#FFFFFF"></path>
                <path d="M33.0463444,45.8405143 L32.1813557,46.7070706 C31.676101,47.2112817 31.005441,47.4877846 30.2922998,47.4877846 C29.5782548,47.4877846 28.9075948,47.2094745 28.4023401,46.7070706 C27.8970855,46.2010524 27.6196022,45.5305781 27.6196022,44.8176345 C27.6196022,44.1037873 27.8979893,43.4333131 28.4023401,42.9281984 L33.6103496,37.7207282 C34.1156042,37.2165171 34.7862643,36.9391107 35.5003093,36.9391107 C36.2134505,36.9391107 36.8850143,37.2174207 37.390269,37.7216318 C37.8946198,38.2258429 38.1721031,38.8972207 38.1721031,39.6101643 C38.1721031,40.3222043 37.8946198,40.9899677 37.3929806,41.4950824 L33.0499598,45.8387071 C33.049056,45.8387071 33.0481521,45.8405143 33.0463444,45.8405143 L33.0463444,45.8405143 Z" id="Path" fill="#FFFFFF"></path>
                <path d="M26.1806658,41.7110437 C25.6763151,42.217062 25.0047512,42.4935649 24.29161,42.4935649 C23.577565,42.4935649 22.9078088,42.2161584 22.4016503,41.7110437 C21.8972995,41.2068327 21.6198162,40.5363585 21.6198162,39.8216076 C21.6198162,39.108664 21.8982034,38.4390934 22.4016503,37.9330751 L24.7173255,35.6189451 C25.2225801,35.1138304 25.8932401,34.836424 26.6063813,34.836424 C27.3213302,34.836424 27.9919902,35.114734 28.496341,35.6189451 C29.0015956,36.1240598 29.2781751,36.7936304 29.2781751,37.5074776 C29.2781751,38.2204212 28.9997879,38.8908954 28.496341,39.3960101 L26.1806658,41.7110437 L26.1806658,41.7110437 Z" id="Path" fill="#FFFFFF"></path>
                <rect id="Rectangle" fill="#30485F" transform="translate(11.242836, 13.393453) rotate(35.000000) translate(-11.242836, -13.393453) " x="5.96658511" y="1.44036203" width="10.5525009" height="23.906182"></rect>
                <rect id="Rectangle" fill="url(#linearGradient-2)" transform="translate(10.982432, 13.210609) rotate(35.000000) translate(-10.982432, -13.210609) " x="7.66043226" y="3.73986903" width="6.6439998" height="18.9414791"></rect>
            </g>
        </g>
    </g>
</svg>