<?xml version="1.0" encoding="UTF-8" standalone="no"?>
<svg width="19px" height="18px" viewBox="0 0 19 18" version="1.1" xmlns="http://www.w3.org/2000/svg" xmlns:xlink="http://www.w3.org/1999/xlink">
    <!-- Generator: Sketch 40.3 (33839) - http://www.bohemiancoding.com/sketch -->
    <title>Price</title>
    <desc>Created with Sketch.</desc>
    <defs></defs>
    <g id="Page-1" stroke="none" stroke-width="1" fill="none" fill-rule="evenodd">
        <g id="Price">
            <g id="Capa_1" transform="translate(0.450844, 0.380089)">
                <g id="XMLID_22_">
                    <path d="M16.1195501,8.61714631 L16.1195501,8.98235213 C16.1195501,11.0272687 12.511149,12.6848547 8.06024003,12.6848547 C5.60339034,12.6848547 3.40474855,12.1792305 1.92648509,11.3827396 C2.42492242,13.2249935 5.81231246,14.7498311 9.92008082,14.7498311 C14.3709898,14.7498311 17.9793909,12.9597916 17.9793909,10.914875 C17.9793909,10.0157253 17.2800908,9.22336437 16.1195501,8.61714631" id="XMLID_143_" fill="#FCC62D"></path>
                    <path d="M9.92008082,14.7498311 C5.46917183,14.7498311 1.86077071,12.9597916 1.86077071,10.914875 L1.86077071,13.4070065 C1.86077071,15.451923 5.46917183,17.109804 9.92008082,17.109804 C14.3709898,17.109804 17.9793909,15.451923 17.9793909,13.4070065 L17.9793909,10.914875 C17.9793909,12.9597916 14.3709898,14.7498311 9.92008082,14.7498311" id="XMLID_142_" fill="#E4AF18"></path>
                    <path d="M2.79069111,15.1477815 C2.97357546,15.3067847 3.18094771,15.459003 3.41063804,15.6035513 L3.41063804,13.1577343 C3.18094771,13.007286 2.97357546,12.8494628 2.79069111,12.6848547 L2.79069111,15.1477815 L2.79069111,15.1477815 Z" id="XMLID_141_" fill="#CE9912"></path>
                    <path d="M16.4295236,13.1577343 L16.4295236,15.6035513 C16.6592139,15.459298 16.8665862,15.3067847 17.0494705,15.1477815 L17.0494705,12.6848547 C16.8668962,12.8494628 16.6595239,13.007286 16.4295236,13.1577343" id="XMLID_140_" fill="#CE9912"></path>
                    <path d="M4.03058498,15.9475174 C4.22648821,16.0439813 4.43355048,16.1351352 4.65053191,16.2215692 L4.65053191,13.8046619 C4.43355048,13.7138029 4.22648821,13.617929 4.03058498,13.5170402 L4.03058498,15.9475174 L4.03058498,15.9475174 Z" id="XMLID_139_" fill="#CE9912"></path>
                    <path d="M15.1896297,16.2212742 C15.4066112,16.1351352 15.6136734,16.0436863 15.8095767,15.9472224 L15.8095767,13.5167452 C15.6136734,13.617634 15.4066112,13.7138029 15.1896297,13.8043669 L15.1896297,16.2212742 L15.1896297,16.2212742 Z" id="XMLID_138_" fill="#CE9912"></path>
                    <path d="M5.27047884,16.4445867 C5.4707217,16.5097809 5.677474,16.5705502 5.89042577,16.6271896 L5.89042577,14.233587 C5.677474,14.1734077 5.4707217,14.1088034 5.27047884,14.0400692 L5.27047884,16.4445867 L5.27047884,16.4445867 Z" id="XMLID_137_" fill="#CE9912"></path>
                    <path d="M13.9497359,16.6271896 C14.1626876,16.5705502 14.36944,16.5097809 14.5696828,16.4445867 L14.5696828,14.0400692 C14.36944,14.1088034 14.1626876,14.1734077 13.9497359,14.233587 L13.9497359,16.6271896 L13.9497359,16.6271896 Z" id="XMLID_136_" fill="#CE9912"></path>
                    <path d="M6.82034617,16.8395871 C7.02275884,16.8785267 7.22982112,16.9133363 7.4402931,16.9443109 L7.4402931,14.5713581 C7.22982112,14.5380235 7.02275884,14.5008539 6.82034617,14.4595544 L6.82034617,16.8395871 L6.82034617,16.8395871 Z" id="XMLID_135_" fill="#CE9912"></path>
                    <path d="M12.3998686,16.9443109 C12.6103405,16.9130413 12.8174028,16.8782317 13.0198155,16.8395871 L13.0198155,14.4592594 C12.8174028,14.5005589 12.6103405,14.5377285 12.3998686,14.5713581 L12.3998686,16.9443109 L12.3998686,16.9443109 Z" id="XMLID_134_" fill="#CE9912"></path>
                    <path d="M8.68018696,17.0800094 C8.8841495,17.0944642 9.09121178,17.1044941 9.30013389,17.111574 L9.30013389,14.7507161 C9.09121178,14.7430462 8.8841495,14.7324263 8.68018696,14.7167915 L8.68018696,17.0800094 L8.68018696,17.0800094 Z" id="XMLID_133_" fill="#CE9912"></path>
                    <path d="M10.5400278,17.111869 C10.7489499,17.1044941 10.9560121,17.0947592 11.1599747,17.0803044 L11.1599747,14.7167915 C10.9560121,14.7324263 10.7489499,14.7430462 10.5400278,14.7510111 L10.5400278,17.111869 L10.5400278,17.111869 Z" id="XMLID_132_" fill="#CE9912"></path>
                    <path d="M8.06024003,10.3228168 C3.60933104,10.3228168 0.000929920397,8.53277728 0.000929920397,6.4878607 L0.000929920397,8.97999216 C0.000929920397,11.0249087 3.60933104,12.6827898 8.06024003,12.6827898 C12.511149,12.6827898 16.1195501,11.0249087 16.1195501,8.97999216 L16.1195501,6.4878607 C16.1195501,8.53277728 12.511149,10.3228168 8.06024003,10.3228168" id="XMLID_131_" fill="#E4AF18"></path>
                    <path d="M0.930850318,10.7207672 C1.11373466,10.8797704 1.32110691,11.0319887 1.55079725,11.176537 L1.55079725,8.73072001 C1.32110691,8.58027173 1.11373466,8.42244854 0.930850318,8.25813542 L0.930850318,10.7207672 L0.930850318,10.7207672 Z" id="XMLID_130_" fill="#CE9912"></path>
                    <path d="M14.5696828,8.73072001 L14.5696828,11.176537 C14.7993731,11.0322837 15.0067454,10.8797704 15.1896297,10.7207672 L15.1896297,8.25784043 C15.0070554,8.42244854 14.7996831,8.58027173 14.5696828,8.73072001" id="XMLID_129_" fill="#CE9912"></path>
                    <path d="M2.17074418,11.5205031 C2.36664741,11.616967 2.57370969,11.7081209 2.79069111,11.7945549 L2.79069111,9.3776476 C2.57370969,9.28678864 2.36664741,9.19091474 2.17074418,9.0900259 L2.17074418,11.5205031 L2.17074418,11.5205031 Z" id="XMLID_128_" fill="#CE9912"></path>
                    <path d="M13.3297889,11.7942599 C13.5467704,11.7081209 13.7538326,11.616967 13.9497359,11.5202081 L13.9497359,9.0897309 C13.7538326,9.19061974 13.5467704,9.28678864 13.3297889,9.37735261 L13.3297889,11.7942599 L13.3297889,11.7942599 Z" id="XMLID_127_" fill="#CE9912"></path>
                    <path d="M3.41063804,12.0175724 C3.6108809,12.0827666 3.8176332,12.1435359 4.03058498,12.2001753 L4.03058498,9.80657269 C3.8176332,9.74639338 3.6108809,9.68178912 3.41063804,9.61305491 L3.41063804,12.0175724 L3.41063804,12.0175724 Z" id="XMLID_126_" fill="#CE9912"></path>
                    <path d="M12.0898951,12.2001753 C12.3028469,12.1435359 12.5095992,12.0827666 12.709842,12.0175724 L12.709842,9.61305491 C12.5095992,9.68178912 12.3028469,9.74639338 12.0898951,9.80657269 L12.0898951,12.2001753 L12.0898951,12.2001753 Z" id="XMLID_125_" fill="#CE9912"></path>
                    <path d="M4.96050537,12.4125728 C5.16291805,12.4515124 5.36998032,12.486322 5.5804523,12.5172966 L5.5804523,10.1443438 C5.36998032,10.1110092 5.16291805,10.0738396 4.96050537,10.0325401 L4.96050537,12.4125728 L4.96050537,12.4125728 Z" id="XMLID_124_" fill="#CE9912"></path>
                    <path d="M10.5400278,12.5175916 C10.7504997,12.486322 10.957562,12.4515124 11.1599747,12.4128678 L11.1599747,10.0325401 C10.957562,10.0738396 10.7504997,10.1110092 10.5400278,10.1446388 L10.5400278,12.5175916 L10.5400278,12.5175916 Z" id="XMLID_123_" fill="#CE9912"></path>
                    <path d="M6.82034617,12.6532901 C7.02430871,12.6677449 7.23137098,12.6777748 7.4402931,12.6848547 L7.4402931,10.3239968 C7.23137098,10.3163269 7.02430871,10.305707 6.82034617,10.2900722 L6.82034617,12.6532901 L6.82034617,12.6532901 Z" id="XMLID_122_" fill="#CE9912"></path>
                    <path d="M8.68018696,12.6848547 C8.88910908,12.6774798 9.09617135,12.6677449 9.30013389,12.6532901 L9.30013389,10.2897772 C9.09617135,10.305412 8.88910908,10.3160319 8.68018696,10.3239968 L8.68018696,12.6848547 L8.68018696,12.6848547 Z" id="XMLID_121_" fill="#CE9912"></path>
                    <path d="M15.9078383,9.82397749 C15.0780393,11.4629787 11.880973,12.6848547 8.06024003,12.6848547 C6.63312219,12.6848547 5.29341687,12.5137567 4.1307064,12.2149251 C5.25529014,12.9415018 7.25678881,13.5598147 9.92008082,13.5598147 C14.1611378,13.5598147 16.7394971,11.9930876 16.7394971,10.914875 C16.7394971,10.5549791 16.448432,10.1732535 15.9078383,9.82397749" id="XMLID_120_" fill="#FFD949"></path>
                    <path d="M9.61010736,9.73488851 C5.15919836,9.73488851 1.55079725,8.0770075 1.55079725,6.03209092 L1.55079725,4.36477001 C0.577170593,4.94561836 0.000929920397,5.67396502 0.000929920397,6.48992567 C0.000929920397,8.53484225 3.60933104,10.3248818 8.06024003,10.3248818 C10.2033966,10.3248818 12.14941,9.90923151 13.5929564,9.25050406 C12.417847,9.55818553 11.0592333,9.73488851 9.61010736,9.73488851" id="XMLID_119_" fill="#FFD949"></path>
                    <path d="M9.61010736,7.37285056 C5.15919836,7.37285056 1.55079725,5.58281106 1.55079725,3.53789448 L1.55079725,6.03002594 C1.55079725,8.07494252 5.15919836,9.73282353 9.61010736,9.73282353 C14.0610164,9.73282353 17.6694175,8.07494252 17.6694175,6.03002594 L17.6694175,3.53789448 C17.6694175,5.58281106 14.0610164,7.37285056 9.61010736,7.37285056" id="XMLID_118_" fill="#E4AF18"></path>
                    <path d="M2.48071765,7.770801 C2.66360199,7.92980418 2.87097424,8.08202244 3.10066458,8.22657078 L3.10066458,5.7807538 C2.87097424,5.63030552 2.66360199,5.47248233 2.48071765,5.30816921 L2.48071765,7.770801 L2.48071765,7.770801 Z" id="XMLID_117_" fill="#CE9912"></path>
                    <path d="M16.1195501,5.7807538 L16.1195501,8.22657078 C16.3492405,8.08231744 16.5566127,7.92980418 16.7394971,7.770801 L16.7394971,5.30787421 C16.5569227,5.47248233 16.3495505,5.63030552 16.1195501,5.7807538" id="XMLID_116_" fill="#CE9912"></path>
                    <path d="M3.72061151,8.57053685 C3.91651474,8.66700074 4.12357701,8.7581547 4.34055844,8.84458871 L4.34055844,6.42768139 C4.12357701,6.33682243 3.91651474,6.24094853 3.72061151,6.14005968 L3.72061151,8.57053685 L3.72061151,8.57053685 Z" id="XMLID_115_" fill="#CE9912"></path>
                    <path d="M14.8796563,8.84429371 C15.0966377,8.7581547 15.3037,8.66700074 15.4996032,8.57024185 L15.4996032,6.13976468 C15.3037,6.24065353 15.0966377,6.33682243 14.8796563,6.42738639 L14.8796563,8.84429371 L14.8796563,8.84429371 Z" id="XMLID_114_" fill="#CE9912"></path>
                    <path d="M4.96050537,9.06760615 C5.16074823,9.13280041 5.36750053,9.19356971 5.5804523,9.25020906 L5.5804523,6.85660647 C5.36750053,6.79642716 5.16074823,6.7318229 4.96050537,6.66308869 L4.96050537,9.06760615 L4.96050537,9.06760615 Z" id="XMLID_113_" fill="#CE9912"></path>
                    <path d="M13.6397624,9.25020906 C13.8527142,9.19356971 14.0594665,9.13280041 14.2597093,9.06760615 L14.2597093,6.66308869 C14.0594665,6.7318229 13.8527142,6.79642716 13.6397624,6.85660647 L13.6397624,9.25020906 L13.6397624,9.25020906 Z" id="XMLID_112_" fill="#CE9912"></path>
                    <path d="M6.5103727,9.46260663 C6.71278537,9.50154618 6.91984765,9.53635578 7.13031963,9.56733043 L7.13031963,7.19437761 C6.91984765,7.16104299 6.71278537,7.12387341 6.5103727,7.08257389 L6.5103727,9.46260663 L6.5103727,9.46260663 Z" id="XMLID_111_" fill="#CE9912"></path>
                    <path d="M12.0898951,9.56762543 C12.3003671,9.53635578 12.5074293,9.50154618 12.709842,9.46290163 L12.709842,7.08257389 C12.5074293,7.12387341 12.3003671,7.16104299 12.0898951,7.1946726 L12.0898951,9.56762543 L12.0898951,9.56762543 Z" id="XMLID_110_" fill="#CE9912"></path>
                    <path d="M8.3702135,9.70332387 C8.57417604,9.71777871 8.78123831,9.72780859 8.99016043,9.73488851 L8.99016043,7.37403055 C8.78123831,7.36636064 8.57417604,7.35574076 8.3702135,7.34010594 L8.3702135,9.70332387 L8.3702135,9.70332387 Z" id="XMLID_109_" fill="#CE9912"></path>
                    <path d="M10.2300543,9.73488851 C10.4389764,9.7275136 10.6460387,9.71777871 10.8500012,9.70332387 L10.8500012,7.33981094 C10.6460387,7.35544576 10.4389764,7.36606564 10.2300543,7.37403055 L10.2300543,9.73488851 L10.2300543,9.73488851 Z" id="XMLID_108_" fill="#CE9912"></path>
                    <path d="M17.6694175,3.53995946 C17.6694175,5.58487604 14.0610164,7.37491554 9.61010736,7.37491554 C5.15919836,7.37491554 1.55079725,5.58487604 1.55079725,3.53995946 C1.55079725,1.49504288 5.15919836,0 9.61010736,0 C14.0610164,0 17.6694175,1.49504288 17.6694175,3.53995946" id="XMLID_107_" fill="#FCC62D"></path>
                    <path d="M9.61010736,6.18489917 C5.3690504,6.18489917 2.79069111,4.61846711 2.79069111,3.53995946 C2.79069111,2.46174681 5.3690504,0.884989865 9.61010736,0.884989865 C13.8511643,0.884989865 16.4295236,2.46174681 16.4295236,3.53995946 C16.4295236,4.61846711 13.8511643,6.18489917 9.61010736,6.18489917" id="XMLID_106_" fill="#FFD949"></path>
                </g>
            </g>
        </g>
    </g>
</svg>