<?xml version="1.0" encoding="UTF-8" standalone="no"?>
<svg width="60px" height="60px" viewBox="0 0 60 60" version="1.1" xmlns="http://www.w3.org/2000/svg" xmlns:xlink="http://www.w3.org/1999/xlink">
    <!-- Generator: Sketch 40.3 (33839) - http://www.bohemiancoding.com/sketch -->
    <title>Group</title>
    <desc>Created with Sketch.</desc>
    <defs></defs>
    <g id="Page-1" stroke="none" stroke-width="1" fill="none" fill-rule="evenodd">
        <g id="Group" fill="#4A4A4A">
            <path d="M34.832,35.217 C40.094,29.956 44.207,24.16 46.414,18.897 C48.71,13.422 48.677,9.11 46.322,6.756 C45.134,5.568 43.46,4.966 41.342,4.966 C35.146,4.966 25.929,10.179 17.862,18.246 C6.66,29.448 1.613,41.949 6.371,46.707 C7.559,47.895 9.235,48.497 11.352,48.497 C17.548,48.497 26.765,43.284 34.832,35.217 L34.832,35.217 Z" id="Shape"></path>
            <path d="M56.4534888,10.4970299 L51.0224888,3.86702988 C50.7284888,3.43002988 50.3974888,3.02102988 50.0214888,2.64502988 C43.6774888,-3.69897012 28.3024888,1.73602988 15.0194888,15.0200299 C1.73648879,28.3020299 -3.69951121,43.6770299 2.64548879,50.0210299 C2.66948879,50.0450299 2.69648879,50.0660299 2.72148879,50.0900299 C2.72148879,50.0900299 2.72048879,50.0890299 2.72048879,50.0880299 L2.72348879,50.0900299 C3.06148879,50.4200299 3.42648879,50.7160299 3.81248879,50.9810299 L10.4244888,56.3850299 C16.8744888,62.8340299 31.6184888,57.8190299 44.7194888,44.7180299 C57.8204888,31.6160299 62.8344888,16.8730299 56.4534888,10.4970299 L56.4534888,10.4970299 Z M52.6344888,8.98402988 L54.9714888,11.8370299 C56.2104888,13.0770299 56.8934888,14.7660299 57.0764888,16.7710299 L52.5104888,12.2040299 C52.5084888,12.2130299 52.5074888,12.2220299 52.5054888,12.2300299 C52.6544888,11.0930299 52.7014888,10.0060299 52.6344888,8.98402988 L52.6344888,8.98402988 Z M16.4334888,16.4330299 C28.5074888,4.36002988 43.2414888,-1.30697012 48.6074888,4.05902988 C53.9734888,9.42502988 48.3074888,24.1580299 36.2334888,36.2320299 C24.1594888,48.3060299 9.42548879,53.9730299 4.05948879,48.6070299 C-1.30651121,43.2410299 4.35948879,28.5070299 16.4334888,16.4330299 L16.4334888,16.4330299 Z M11.7644888,54.9040299 L8.98748879,52.6340299 C10.0084888,52.6990299 11.0954888,52.6540299 12.2304888,52.5060299 C12.2224888,52.5070299 12.2134888,52.5090299 12.2064888,52.5100299 L16.7434888,57.0460299 C14.7244888,56.8540299 13.0214888,56.1590299 11.7644888,54.9040299 L11.7644888,54.9040299 Z M19.5374888,57.0130299 L14.5904888,52.0670299 C15.3894888,51.8760299 16.2064888,51.6410299 17.0404888,51.3610299 L22.2164888,56.5390299 C21.2894888,56.7650299 20.3964888,56.9220299 19.5374888,57.0130299 L19.5374888,57.0130299 Z M24.4024888,55.8950299 L19.1024888,50.5950299 C19.0994888,50.5960299 19.0984888,50.5970299 19.0954888,50.5980299 C19.8274888,50.3000299 20.5674888,49.9730299 21.3174888,49.6130299 C21.3074888,49.6180299 21.2984888,49.6240299 21.2894888,49.6280299 L26.6834888,55.0210299 C25.9084888,55.3500299 25.1484888,55.6420299 24.4024888,55.8950299 L24.4024888,55.8950299 Z M28.6204888,54.1310299 L23.1594888,48.6700299 C23.8264888,48.3120299 24.4964888,47.9310299 25.1714888,47.5260299 L30.6874888,53.0420299 C29.9924888,53.4330299 29.3034888,53.7940299 28.6204888,54.1310299 L28.6204888,54.1310299 Z M32.4614888,51.9890299 L26.9104888,46.4370299 C26.9064888,46.4400299 26.9034888,46.4420299 26.8994888,46.4440299 C27.5274888,46.0350299 28.1594888,45.6110299 28.7904888,45.1640299 L34.3734888,50.7470299 C33.7344888,51.1810299 33.0984888,51.5940299 32.4614888,51.9890299 L32.4614888,51.9890299 Z M36.0284888,49.5720299 L30.4214888,43.9640299 C30.4194888,43.9660299 30.4174888,43.9670299 30.4154888,43.9690299 C31.0074888,43.5210299 31.5984888,43.0560299 32.1884888,42.5760299 L37.8184888,48.2060299 C37.2214888,48.6790299 36.6264888,49.1340299 36.0284888,49.5720299 L36.0284888,49.5720299 Z M39.3684888,46.9280299 L33.7284888,41.2880299 C34.2924888,40.8010299 34.8554888,40.2980299 35.4164888,39.7820299 C35.4094888,39.7880299 35.4024888,39.7950299 35.3964888,39.8010299 L41.0494888,45.4550299 C40.4934888,45.9630299 39.9304888,46.4500299 39.3684888,46.9280299 L39.3684888,46.9280299 Z M43.3034888,43.3030299 C43.0394888,43.5680299 42.7724888,43.8250299 42.5064888,44.0830299 L36.8494888,38.4260299 C36.8444888,38.4310299 36.8384888,38.4360299 36.8334888,38.4410299 C37.1054888,38.1770299 37.3774888,37.9170299 37.6464888,37.6470299 C37.9154888,37.3770299 38.1774888,37.1050299 38.4404888,36.8340299 C38.4344888,36.8400299 38.4304888,36.8450299 38.4254888,36.8500299 L44.0824888,42.5070299 C43.8264888,42.7720299 43.5684888,43.0390299 43.3034888,43.3030299 L43.3034888,43.3030299 Z M45.4574888,41.0490299 L39.8024888,35.3960299 C39.7964888,35.4020299 39.7894888,35.4080299 39.7844888,35.4150299 C40.2994888,34.8540299 40.8024888,34.2930299 41.2884888,33.7270299 L46.9294888,39.3690299 C46.4504888,39.9310299 45.9634888,40.4920299 45.4574888,41.0490299 L45.4574888,41.0490299 Z M48.2064888,37.8180299 L42.5764888,32.1870299 C43.0554888,31.5990299 43.5184888,31.0100299 43.9654888,30.4200299 L49.5734888,36.0280299 C49.1344888,36.6250299 48.6794888,37.2220299 48.2064888,37.8180299 L48.2064888,37.8180299 Z M50.7474888,34.3740299 L45.1644888,28.7890299 C45.6124888,28.1580299 46.0354888,27.5280299 46.4444888,26.8980299 C46.4424888,26.9020299 46.4404888,26.9050299 46.4374888,26.9100299 L51.9904888,32.4630299 C51.5964888,33.0980299 51.1834888,33.7360299 50.7474888,34.3740299 L50.7474888,34.3740299 Z M53.0454888,30.6900299 L47.5264888,25.1720299 C47.9314888,24.4980299 48.3104888,23.8270299 48.6694888,23.1600299 L54.1354888,28.6260299 C53.7974888,29.3070299 53.4374888,29.9950299 53.0454888,30.6900299 L53.0454888,30.6900299 Z M55.0274888,26.6890299 L49.6274888,21.2880299 C49.6254888,21.2940299 49.6214888,21.3010299 49.6184888,21.3060299 C49.9774888,20.5590299 50.3044888,19.8190299 50.6004888,19.0910299 C50.5984888,19.0940299 50.5974888,19.0980299 50.5964888,19.1020299 L55.9054888,24.4110299 C55.6514888,25.1560299 55.3574888,25.9170299 55.0274888,26.6890299 L55.0274888,26.6890299 Z M56.5524888,22.2300299 L51.3624888,17.0390299 C51.6414888,16.2060299 51.8774888,15.3890299 52.0674888,14.5900299 L57.0354888,19.5580299 C56.9414888,20.4130299 56.7824888,21.3040299 56.5524888,22.2300299 L56.5524888,22.2300299 Z" id="Shape"></path>
        </g>
    </g>
</svg>