<?xml version="1.0" encoding="UTF-8" standalone="no"?>
<svg width="72px" height="66px" viewBox="0 0 72 66" version="1.1" xmlns="http://www.w3.org/2000/svg" xmlns:xlink="http://www.w3.org/1999/xlink">
    <!-- Generator: Sketch 40.3 (33839) - http://www.bohemiancoding.com/sketch -->
    <title>amount</title>
    <desc>Created with Sketch.</desc>
    <defs></defs>
    <g id="Page-1" stroke="none" stroke-width="1" fill="none" fill-rule="evenodd">
        <g id="Pictos" transform="translate(-407.000000, -67.000000)">
            <g id="amount" transform="translate(407.000000, 67.000000)">
                <g id="Group" fill="#4A4A4A">
                    <path d="M65.261,35.886 C64.838,34.977 65.038,30.261 65.49,26.426 L65.5,26.25 C65.5,22.114 62.136,18.75 58,18.75 L13.75,18.75 C9.614,18.75 6.25,22.114 6.25,26.25 L6.26,26.426 C6.712,30.261 6.912,34.977 6.525,35.826 C5.903,36.706 5.296,37.504 4.722,38.26 C2.188,41.592 0,44.47 0,49.938 C0,59.683 4.649,65.5 12.438,65.5 C12.621,65.5 12.8,65.489 12.98,65.477 L13.09,65.47 C13.308,65.49 13.528,65.5 13.751,65.5 L58,65.5 C58.224,65.5 58.443,65.489 58.661,65.47 L58.77,65.477 C58.95,65.49 59.129,65.5 59.312,65.5 C67.1,65.5 71.75,59.683 71.75,49.938 C71.75,44.47 69.562,41.592 67.028,38.26 C66.453,37.504 65.847,36.706 65.261,35.886 L65.261,35.886 Z M59.312,62.5 C59.198,62.5 59.084,62.491 58.972,62.483 L58.593,62.462 L58.481,62.474 C58.323,62.49 58.163,62.5 58,62.5 L13.75,62.5 C13.587,62.5 13.427,62.49 13.269,62.474 L13.157,62.462 L12.777,62.483 C12.665,62.491 12.552,62.5 12.438,62.5 C4.226,62.5 3,54.629 3,49.938 C3,45.481 4.635,43.331 7.11,40.077 C7.705,39.295 8.332,38.47 8.975,37.558 C10.114,35.947 9.757,30.497 9.25,26.169 C9.294,23.725 11.295,21.751 13.75,21.751 L58,21.751 C60.454,21.751 62.456,23.726 62.499,26.169 C61.993,30.497 61.637,35.947 62.775,37.558 C63.418,38.469 64.046,39.294 64.64,40.077 C67.115,43.331 68.749,45.481 68.749,49.938 C68.75,54.629 67.523,62.5 59.312,62.5 L59.312,62.5 Z" id="Shape"></path>
                    <path d="M57.75,12.5 L41.985,12.5 C43.008,11.187 43.625,9.541 43.625,7.75 C43.625,3.477 40.148,0 35.875,0 C31.602,0 28.125,3.477 28.125,7.75 C28.125,9.541 28.741,11.187 29.765,12.5 L14,12.5 C6.28,12.5 0,18.78 0,26.5 C0,27.329 0.671,28 1.5,28 C2.329,28 3,27.329 3,26.5 C3,20.435 7.935,15.5 14,15.5 L57.75,15.5 C63.815,15.5 68.75,20.435 68.75,26.5 C68.75,27.329 69.422,28 70.25,28 C71.078,28 71.75,27.329 71.75,26.5 C71.75,18.78 65.47,12.5 57.75,12.5 L57.75,12.5 Z M31.125,7.75 C31.125,5.131 33.256,3 35.875,3 C38.494,3 40.625,5.131 40.625,7.75 C40.625,10.369 38.494,12.5 35.875,12.5 C33.256,12.5 31.125,10.369 31.125,7.75 L31.125,7.75 Z" id="Shape"></path>
                </g>
                <path d="M59.312,62.749 C59.198,62.749 59.084,62.74 58.972,62.732 L58.593,62.711 L58.481,62.723 C58.323,62.739 58.163,62.749 58,62.749 L13.75,62.749 C13.587,62.749 13.427,62.739 13.269,62.723 L13.157,62.711 L12.777,62.732 C12.665,62.74 12.552,62.749 12.438,62.749 C4.226,62.749 3,54.878 3,50.187 C3,45.73 4.635,43.58 7.11,40.326 C7.705,39.544 8.332,38.719 8.975,37.807 C10.114,36.196 9.757,30.746 9.25,26.418 C9.294,23.974 11.295,22 13.75,22 L58,22 C60.454,22 62.456,23.975 62.499,26.418 C61.993,30.746 61.637,36.196 62.775,37.807 C63.418,38.718 64.046,39.543 64.64,40.326 C67.115,43.58 68.749,45.73 68.749,50.187 C68.75,54.878 67.523,62.749 59.312,62.749 L59.312,62.749 Z" id="Path" fill="#E8E8E8"></path>
                <path d="M31,7.75 C31,5.131 33.131,3 35.75,3 C38.369,3 40.5,5.131 40.5,7.75 C40.5,10.369 38.369,12.5 35.75,12.5 C33.131,12.5 31,10.369 31,7.75 L31,7.75 Z" id="Path" fill="#FFC938"></path>
            </g>
        </g>
    </g>
</svg>