<?xml version="1.0" encoding="UTF-8" standalone="no"?>
<svg width="96px" height="59px" viewBox="0 0 96 59" version="1.1" xmlns="http://www.w3.org/2000/svg" xmlns:xlink="http://www.w3.org/1999/xlink">
    <!-- Generator: Sketch 40.3 (33839) - http://www.bohemiancoding.com/sketch -->
    <title>Amount Copy 2</title>
    <desc>Created with Sketch.</desc>
    <defs></defs>
    <g id="Page-1" stroke="none" stroke-width="1" fill="none" fill-rule="evenodd">
        <g id="Pictos" transform="translate(-447.000000, -71.000000)">
            <g id="Amount-Copy-2" transform="translate(447.000000, 71.000000)">
                <g id="Group" transform="translate(56.938519, 34.388262) rotate(-360.000000) translate(-56.938519, -34.388262) translate(17.938519, 9.888262)">
                    <path d="M76.764958,0.185661824 L1.43010074,0.185661824 C0.950504381,0.185661824 0.561266755,0.587480652 0.561266755,1.08257885 L0.561266755,47.3509406 C0.561266755,47.8460388 0.950504381,48.2478576 1.43010074,48.2478576 L76.7640892,48.2478576 C77.2436855,48.2478576 77.6329232,47.8460388 77.6329232,47.3509406 L77.6329232,1.08257885 C77.633792,0.587480652 77.2445544,0.185661824 76.764958,0.185661824 L76.764958,0.185661824 Z" id="Shape" fill="#4A4A4A"></path>
                    <polygon id="Path" fill="#E8E8E8" points="2.29893473 46.4540235 2.29893473 1.97949588 75.8952552 1.97949588 75.8952552 46.4540235"></polygon>
                    <path d="M5.72474713,35.5780077 C9.64318841,35.5798015 12.832678,38.8723839 12.8344156,42.9174797 C12.8344156,43.4125779 13.2236533,43.8143967 13.7032496,43.8143967 L64.4848584,43.8143967 C64.9644548,43.8143967 65.3536924,43.4125779 65.3536924,42.9174797 C65.3536924,38.871487 68.5492638,35.5806984 72.4781311,35.5806984 C72.9577275,35.5806984 73.3469651,35.1788796 73.3469651,34.6837814 L73.3469651,13.7578103 C73.3469651,13.2627121 72.9577275,12.8608932 72.4781311,12.8608932 C68.5562145,12.8608932 65.3589054,9.56472317 65.3510859,5.51424588 C65.3502171,5.0200446 64.9618483,4.61912269 64.4822519,4.61912269 L13.7032496,4.61912269 C13.4730086,4.61912269 13.251456,4.71329897 13.088984,4.88191937 C12.926512,5.05053978 12.8344156,5.2783567 12.8344156,5.51603971 C12.8352845,9.56382625 9.64579491,12.8590994 5.72474713,12.8608932 C5.24515077,12.8608932 4.85591315,13.2627121 4.85591315,13.7578103 L4.85591315,34.6819876 C4.85678198,35.1770858 5.24515077,35.5780077 5.72474713,35.5780077 L5.72474713,35.5780077 Z" id="Shape" fill="#4A4A4A"></path>
                    <path d="M6.59444995,14.6107784 C10.7804921,14.1856397 14.1211588,10.7351999 14.5303796,6.41295674 L63.6577285,6.41295674 C64.0747688,10.7369937 67.4215173,14.1874335 71.6092971,14.6107784 L71.6092971,33.8299164 C67.4154355,34.2523643 64.0695558,37.6992165 63.6585973,42.0205627 L14.5295107,42.0205627 C14.1176834,37.7010103 10.7787544,34.2532612 6.59444995,33.8290195 L6.59444995,14.6107784 L6.59444995,14.6107784 Z" id="Path" fill="#F9F9F9"></path>
                    <path d="M39.0975294,36.1888082 C45.4921475,36.1888082 50.6947254,30.818069 50.6947254,24.2167597 C50.6947254,17.6154504 45.4921475,12.2447112 39.0975294,12.2447112 C32.7029112,12.2447112 27.5003333,17.6154504 27.5003333,24.2167597 C27.5003333,30.818069 32.7029112,36.1888082 39.0975294,36.1888082 L39.0975294,36.1888082 Z" id="Shape" fill="#4A4A4A"></path>
                    <path d="M39.0975294,14.0385453 C44.5338236,14.0385453 48.9570574,18.603853 48.9570574,24.2167597 C48.9570574,29.8296665 44.5338236,34.3949741 39.0975294,34.3949741 C33.6612351,34.3949741 29.2380013,29.8287695 29.2380013,24.2167597 C29.2380013,18.6047499 33.6612351,14.0385453 39.0975294,14.0385453 L39.0975294,14.0385453 Z" id="Path" fill="#42D3AA"></path>
                </g>
                <g id="Group-Copy" transform="translate(39.000000, 24.500000) rotate(-360.000000) translate(-39.000000, -24.500000) ">
                    <path d="M76.764958,0.185661824 L1.43010074,0.185661824 C0.950504381,0.185661824 0.561266755,0.587480652 0.561266755,1.08257885 L0.561266755,47.3509406 C0.561266755,47.8460388 0.950504381,48.2478576 1.43010074,48.2478576 L76.7640892,48.2478576 C77.2436855,48.2478576 77.6329232,47.8460388 77.6329232,47.3509406 L77.6329232,1.08257885 C77.633792,0.587480652 77.2445544,0.185661824 76.764958,0.185661824 L76.764958,0.185661824 Z" id="Shape" fill="#4A4A4A"></path>
                    <polygon id="Path" fill="#E8E8E8" points="2.29893473 46.4540235 2.29893473 1.97949588 75.8952552 1.97949588 75.8952552 46.4540235"></polygon>
                    <path d="M5.72474713,35.5780077 C9.64318841,35.5798015 12.832678,38.8723839 12.8344156,42.9174797 C12.8344156,43.4125779 13.2236533,43.8143967 13.7032496,43.8143967 L64.4848584,43.8143967 C64.9644548,43.8143967 65.3536924,43.4125779 65.3536924,42.9174797 C65.3536924,38.871487 68.5492638,35.5806984 72.4781311,35.5806984 C72.9577275,35.5806984 73.3469651,35.1788796 73.3469651,34.6837814 L73.3469651,13.7578103 C73.3469651,13.2627121 72.9577275,12.8608932 72.4781311,12.8608932 C68.5562145,12.8608932 65.3589054,9.56472317 65.3510859,5.51424588 C65.3502171,5.0200446 64.9618483,4.61912269 64.4822519,4.61912269 L13.7032496,4.61912269 C13.4730086,4.61912269 13.251456,4.71329897 13.088984,4.88191937 C12.926512,5.05053978 12.8344156,5.2783567 12.8344156,5.51603971 C12.8352845,9.56382625 9.64579491,12.8590994 5.72474713,12.8608932 C5.24515077,12.8608932 4.85591315,13.2627121 4.85591315,13.7578103 L4.85591315,34.6819876 C4.85678198,35.1770858 5.24515077,35.5780077 5.72474713,35.5780077 L5.72474713,35.5780077 Z" id="Shape" fill="#4A4A4A"></path>
                    <path d="M6.59444995,14.6107784 C10.7804921,14.1856397 14.1211588,10.7351999 14.5303796,6.41295674 L63.6577285,6.41295674 C64.0747688,10.7369937 67.4215173,14.1874335 71.6092971,14.6107784 L71.6092971,33.8299164 C67.4154355,34.2523643 64.0695558,37.6992165 63.6585973,42.0205627 L14.5295107,42.0205627 C14.1176834,37.7010103 10.7787544,34.2532612 6.59444995,33.8290195 L6.59444995,14.6107784 L6.59444995,14.6107784 Z" id="Path" fill="#F9F9F9"></path>
                    <path d="M39.0975294,36.1888082 C45.4921475,36.1888082 50.6947254,30.818069 50.6947254,24.2167597 C50.6947254,17.6154504 45.4921475,12.2447112 39.0975294,12.2447112 C32.7029112,12.2447112 27.5003333,17.6154504 27.5003333,24.2167597 C27.5003333,30.818069 32.7029112,36.1888082 39.0975294,36.1888082 L39.0975294,36.1888082 Z" id="Shape" fill="#4A4A4A"></path>
                    <path d="M48.9570574,24.2167597 C48.9570574,29.8296665 44.5338236,34.3949741 39.0975294,34.3949741 C33.6612351,34.3949741 29.2380013,29.8287695 29.2380013,24.2167597 C29.2380013,18.6047499 33.6612351,14.0385453 39.0975294,14.0385453 C44.5338236,14.0385453 48.9570574,18.603853 48.9570574,24.2167597 Z" id="Path" fill="#42D3AA"></path>
                </g>
            </g>
        </g>
    </g>
</svg>