<?xml version="1.0" encoding="UTF-8" standalone="no"?>
<svg width="150px" height="150px" viewBox="0 0 150 150" version="1.1" xmlns="http://www.w3.org/2000/svg" xmlns:xlink="http://www.w3.org/1999/xlink">
    <!-- Generator: Sketch 40.3 (33839) - http://www.bohemiancoding.com/sketch -->
    <title>noun_659322_cc</title>
    <desc>Created with Sketch.</desc>
    <defs></defs>
    <g id="Page-1" stroke="none" stroke-width="1" fill="none" fill-rule="evenodd">
        <g id="Pictos" transform="translate(-260.000000, -28.000000)">
            <g id="noun_659322_cc" transform="translate(260.000000, 28.000000)">
                <circle id="Oval-3" fill="#FFFFFF" cx="75" cy="75" r="75"></circle>
                <g id="Group" transform="translate(1.000000, 0.000000)" fill="#9D9D9D">
                    <path d="M74.25,0 C33.375,0 9.9475983e-14,33.375 9.9475983e-14,74.25 C9.9475983e-14,115.125 33.375,148.6875 74.25,148.6875 C115.125,148.6875 148.5,115.3125 148.5,74.4375 C148.5,33.5625 115.125,0 74.25,0 Z M110.625,126.375 L93.1875,115.6875 C91.6875,114.75 90.1875,114.1875 88.6875,113.625 C86.625,113.0625 85.125,111.375 84.75,109.3125 C84.375,107.25 85.3125,105.1875 87.1875,103.875 C93.75,99.5625 97.5,92.25 97.5,84.5625 L97.5,63.375 C97.5,50.625 87,40.125 74.25,40.125 C61.5,40.125 51,50.625 51,63.375 L51,84.5625 C51,92.25 54.75,99.375 61.125,103.875 C62.8125,105 63.75,107.25 63.375,109.3125 C63,111.375 61.5,113.0625 59.4375,113.625 C57.5625,114.1875 55.875,114.9375 54.375,115.875 L37.5,126.375 C34.3125,124.125 31.5,121.6875 28.875,119.0625 L48.1875,107.0625 C42.9375,100.875 39.9375,93.1875 39.9375,84.9375 L39.9375,63.375 C39.9375,44.625 55.3125,29.25 74.0625,29.25 C92.8125,29.25 108.1875,44.625 108.1875,63.375 L108.1875,84.5625 C108.1875,93 105.1875,100.875 99.75,107.0625 L119.25,118.875 C116.625,121.6875 113.8125,124.125 110.625,126.375 Z" id="Shape"></path>
                </g>
            </g>
        </g>
    </g>
</svg>