<?xml version="1.0" encoding="UTF-8" standalone="no"?>
<svg width="26px" height="25px" viewBox="0 0 26 25" version="1.1" xmlns="http://www.w3.org/2000/svg" xmlns:xlink="http://www.w3.org/1999/xlink">
    <!-- Generator: Sketch 40.3 (33839) - http://www.bohemiancoding.com/sketch -->
    <title>Group</title>
    <desc>Created with Sketch.</desc>
    <defs></defs>
    <g id="Page-1" stroke="none" stroke-width="1" fill="none" fill-rule="evenodd">
        <g id="Pictos" transform="translate(-406.000000, -166.000000)">
            <g id="Group" transform="translate(407.000000, 166.000000)">
                <path d="M19.92,2.16 L19.92,0.48 C19.92,0.34752 19.81248,0.24 19.68,0.24 C19.54752,0.24 19.44,0.34752 19.44,0.48 L19.44,2.16 L4.56,2.16 L4.56,0.48 C4.56,0.34752 4.45248,0.24 4.32,0.24 C4.18752,0.24 4.08,0.34752 4.08,0.48 L4.08,2.16 L1.68,2.16 C0.88608,2.16 0.24,2.80608 0.24,3.6 L0.24,22.32 C0.24,23.11392 0.88608,23.76 1.68,23.76 L22.32,23.76 C23.11392,23.76 23.76,23.11392 23.76,22.32 L23.76,3.6 C23.76,2.80608 23.11392,2.16 22.32,2.16 L19.92,2.16 Z" id="Shape" stroke="#4A4A4A" fill="#4A4A4A"></path>
                <path d="M22.32,23.28 L1.68,23.28 C1.15056,23.28 0.72,22.84944 0.72,22.32 L0.72,7.44 L23.28,7.44 L23.28,22.32 C23.28,22.84944 22.84944,23.28 22.32,23.28 L22.32,23.28 Z" id="Path" fill="#E8E8E8"></path>
                <path d="M3.59366013,2.64 L3.59366013,4.32 C3.59366013,4.45248 3.9830051,4.8 4.35665458,4.8 C4.73030406,4.8 5.16183036,4.56 5.16183036,4.32 L5.16183036,2.64 L18.9522879,2.64 L18.9522879,4.19559152 C18.9522879,4.32807152 19.0832171,4.8 19.7070312,4.8 C20.3308454,4.8 20.4783761,4.32807152 20.4783761,4.19559152 L20.4783761,2.64 L22.32,2.64 C22.84944,2.64 23.28,3.07056 23.28,3.6 L23.28,6.96 L0.72,6.96 L0.72,3.6 C0.72,3.07056 1.15056,2.64 1.68,2.64 L3.59366013,2.64 Z" id="Path" fill="#FFC938"></path>
            </g>
        </g>
    </g>
</svg>