<?xml version="1.0" encoding="UTF-8" standalone="no"?>
<svg width="33px" height="33px" viewBox="0 0 33 33" version="1.1" xmlns="http://www.w3.org/2000/svg" xmlns:xlink="http://www.w3.org/1999/xlink">
    <!-- Generator: Sketch 40.3 (33839) - http://www.bohemiancoding.com/sketch -->
    <title>Deadline Copy</title>
    <desc>Created with Sketch.</desc>
    <defs></defs>
    <g id="Page-1" stroke="none" stroke-width="1" fill="none" fill-rule="evenodd">
        <g id="Pictos" transform="translate(-817.000000, -152.000000)">
            <g id="Deadline-Copy" transform="translate(818.000000, 153.000000)">
                <path d="M25.73,2.79 L25.73,0.62 C25.73,0.44888 25.59112,0.31 25.42,0.31 C25.24888,0.31 25.11,0.44888 25.11,0.62 L25.11,2.79 L5.89,2.79 L5.89,0.62 C5.89,0.44888 5.75112,0.31 5.58,0.31 C5.40888,0.31 5.27,0.44888 5.27,0.62 L5.27,2.79 L2.17,2.79 C1.14452,2.79 0.31,3.62452 0.31,4.65 L0.31,28.83 C0.31,29.85548 1.14452,30.69 2.17,30.69 L28.83,30.69 C29.85548,30.69 30.69,29.85548 30.69,28.83 L30.69,4.65 C30.69,3.62452 29.85548,2.79 28.83,2.79 L25.73,2.79 Z" id="Shape" stroke="#4A4A4A" fill="#4A4A4A"></path>
                <path d="M28.83,30.07 L2.17,30.07 C1.48614,30.07 0.93,29.51386 0.93,28.83 L0.93,9.61 L30.07,9.61 L30.07,28.83 C30.07,29.51386 29.51386,30.07 28.83,30.07 L28.83,30.07 Z" id="Path" fill="#F5F5F5"></path>
                <path d="M4.641811,3.41 L4.641811,5.58 C4.641811,5.75112 5.14471491,6.2 5.62734549,6.2 C6.10997607,6.2 6.66736421,5.89 6.66736421,5.58 L6.66736421,3.41 L24.4800386,3.41 L24.4800386,5.41930571 C24.4800386,5.59042571 24.6491554,6.2 25.4549154,6.2 C26.2606753,6.2 26.4512358,5.59042571 26.4512358,5.41930571 L26.4512358,3.41 L28.83,3.41 C29.51386,3.41 30.07,3.96614 30.07,4.65 L30.07,8.99 L0.93,8.99 L0.93,4.65 C0.93,3.96614 1.48614,3.41 2.17,3.41 L4.641811,3.41 Z" id="Path" fill="#EE5F5B"></path>
            </g>
        </g>
    </g>
</svg>