<?xml version="1.0" encoding="UTF-8" standalone="no"?>
<svg width="5px" height="5px" viewBox="0 0 5 5" version="1.1" xmlns="http://www.w3.org/2000/svg" xmlns:xlink="http://www.w3.org/1999/xlink">
    <!-- Generator: Sketch 40.3 (33839) - http://www.bohemiancoding.com/sketch -->
    <title>Artboard</title>
    <desc>Created with Sketch.</desc>
    <defs></defs>
    <g id="Page-1" stroke="none" stroke-width="1" fill="none" fill-rule="evenodd">
        <g id="Artboard" fill="#C5C5C5">
            <path d="M2.146875,2.14935065 C2.24479216,2.04978305 2.36249931,2 2.5,2 C2.633334,2 2.7499995,2.04761857 2.85,2.14285714 C2.9500005,2.23809571 3,2.35497766 3,2.49350649 C3,2.63203532 2.95104216,2.75108175 2.853125,2.85064935 C2.75520784,2.95021695 2.63750069,3 2.5,3 C2.433333,3 2.36979197,2.98701312 2.309375,2.96103896 C2.24895803,2.93506481 2.19583356,2.90043312 2.15,2.85714286 C2.10416644,2.8138526 2.06770847,2.76190506 2.040625,2.7012987 C2.01354153,2.64069234 2,2.57575792 2,2.50649351 C2,2.36796468 2.04895784,2.24891825 2.146875,2.14935065 Z" id="Combined-Shape-Copy"></path>
        </g>
    </g>
</svg>