<?xml version="1.0" encoding="UTF-8" standalone="no"?>
<svg width="48px" height="30px" viewBox="0 0 48 30" version="1.1" xmlns="http://www.w3.org/2000/svg" xmlns:xlink="http://www.w3.org/1999/xlink">
    <!-- Generator: Sketch 40.3 (33839) - http://www.bohemiancoding.com/sketch -->
    <title>Group</title>
    <desc>Created with Sketch.</desc>
    <defs></defs>
    <g id="Page-1" stroke="none" stroke-width="1" fill="none" fill-rule="evenodd">
        <g id="Pictos" transform="translate(-538.000000, -205.000000)">
            <g id="Group" transform="translate(562.000000, 220.000000) rotate(-360.000000) translate(-562.000000, -220.000000) translate(538.000000, 205.000000)">
                <path d="M47.0727019,0.112655893 L0.876945779,0.112655893 C0.582854607,0.112655893 0.344171916,0.356471545 0.344171916,0.656887259 L0.344171916,28.7316065 C0.344171916,29.0320222 0.582854607,29.2758379 0.876945779,29.2758379 L47.0721692,29.2758379 C47.3662603,29.2758379 47.604943,29.0320222 47.604943,28.7316065 L47.604943,0.656887259 C47.6054758,0.356471545 47.3667931,0.112655893 47.0727019,0.112655893 L47.0727019,0.112655893 Z" id="Shape" fill="#4A4A4A"></path>
                <polygon id="Path" fill="#E8E8E8" points="1.40971964 28.1873751 1.40971964 1.20111862 46.5393953 1.20111862 46.5393953 28.1873751"></polygon>
                <path d="M3.51044699,21.5880256 C5.91325711,21.5891141 7.86906996,23.5869874 7.87013551,26.0414709 C7.87013551,26.3418866 8.1088182,26.5857022 8.40290937,26.5857022 L39.5424761,26.5857022 C39.8365673,26.5857022 40.07525,26.3418866 40.07525,26.0414709 C40.07525,23.5864432 42.0347923,21.5896583 44.4439957,21.5896583 C44.7380869,21.5896583 44.9767695,21.3458426 44.9767695,21.0454269 L44.9767695,8.34796492 C44.9767695,8.04754921 44.7380869,7.80373355 44.4439957,7.80373355 C42.0390545,7.80373355 40.0784466,5.80368329 40.0736517,3.34593444 C40.0731189,3.04606295 39.834969,2.80279153 39.5408778,2.80279153 L8.40290937,2.80279153 C8.2617243,2.80279153 8.12586696,2.85993583 8.02623825,2.96225132 C7.92660954,3.06456682 7.87013551,3.20280159 7.87013551,3.3470229 C7.87066828,5.80313905 5.91485543,7.80264509 3.51044699,7.80373355 C3.21635581,7.80373355 2.97767312,8.04754921 2.97767312,8.34796492 L2.97767312,21.0443385 C2.9782059,21.3447542 3.21635581,21.5880256 3.51044699,21.5880256 L3.51044699,21.5880256 Z" id="Shape" fill="#4A4A4A"></path>
                <path d="M4.04375362,8.86552895 C6.6106581,8.60756328 8.6591736,6.51390522 8.91011009,3.89125427 L39.0352754,3.89125427 C39.2910069,6.51499368 41.3432518,8.60865175 43.9112218,8.86552895 L43.9112218,20.5273187 C41.3395224,20.7836516 39.2878102,22.8751328 39.0358082,25.4972395 L8.90957732,25.4972395 C8.65704251,22.8762212 6.60959255,20.7841959 4.04375362,20.5267744 L4.04375362,8.86552895 L4.04375362,8.86552895 Z" id="Path" fill="#F9F9F9"></path>
                <path d="M23.9748239,21.9586471 C27.8960395,21.9586471 31.0862894,18.6997897 31.0862894,14.6942469 C31.0862894,10.688704 27.8960395,7.42984661 23.9748239,7.42984661 C20.0536082,7.42984661 16.8633583,10.688704 16.8633583,14.6942469 C16.8633583,18.6997897 20.0536082,21.9586471 23.9748239,21.9586471 L23.9748239,21.9586471 Z" id="Shape" fill="#4A4A4A"></path>
                <path d="M23.9748239,8.51830934 C27.3083899,8.51830934 30.0207417,11.288447 30.0207417,14.6942469 C30.0207417,18.1000468 27.3083899,20.8701844 23.9748239,20.8701844 C20.6412578,20.8701844 17.9289061,18.0995025 17.9289061,14.6942469 C17.9289061,11.2889912 20.6412578,8.51830934 23.9748239,8.51830934 L23.9748239,8.51830934 Z" id="Path" fill="#42D3AA"></path>
            </g>
        </g>
    </g>
</svg>