<?xml version="1.0" encoding="UTF-8" standalone="no"?>
<svg width="51px" height="33px" viewBox="0 0 51 33" version="1.1" xmlns="http://www.w3.org/2000/svg" xmlns:xlink="http://www.w3.org/1999/xlink">
    <!-- Generator: Sketch 40.3 (33839) - http://www.bohemiancoding.com/sketch -->
    <title>Group 3 Copy</title>
    <desc>Created with Sketch.</desc>
    <defs></defs>
    <g id="Page-1" stroke="none" stroke-width="1" fill="none" fill-rule="evenodd">
        <g id="Pictos" transform="translate(-875.000000, -151.000000)">
            <g id="Group-3-Copy" transform="translate(875.000000, 151.000000)">
                <g id="Amount-Copy" transform="translate(0.000000, 1.000000)">
                    <g id="Group" transform="translate(30.508475, 18.166667) rotate(-360.000000) translate(-30.508475, -18.166667) translate(9.508475, 5.166667)">
                        <path d="M40.6899627,0.097009241 L0.758037877,0.097009241 C0.503823473,0.097009241 0.297504537,0.306961608 0.297504537,0.565652917 L0.297504537,24.7411056 C0.297504537,24.9997969 0.503823473,25.2097493 0.758037877,25.2097493 L40.6895022,25.2097493 C40.9437166,25.2097493 41.1500355,24.9997969 41.1500355,24.7411056 L41.1500355,0.565652917 C41.150496,0.306961608 40.9441771,0.097009241 40.6899627,0.097009241 L40.6899627,0.097009241 Z" id="Shape" fill="#4A4A4A"></path>
                        <polygon id="Path" fill="#E8E8E8" points="1.21857122 24.2724619 1.21857122 1.03429659 40.2289688 1.03429659 40.2289688 24.2724619"></polygon>
                        <path d="M3.03445417,18.5896887 C5.11145954,18.590626 6.80207743,20.3110169 6.80299849,22.4245999 C6.80299849,22.6832912 7.00931743,22.8932436 7.26353183,22.8932436 L34.1807845,22.8932436 C34.4349989,22.8932436 34.6413178,22.6832912 34.6413178,22.4245999 C34.6413178,20.3105483 36.3351594,18.5910946 38.4176912,18.5910946 C38.6719056,18.5910946 38.8782245,18.3811423 38.8782245,18.122451 L38.8782245,7.18852535 C38.8782245,6.92983404 38.6719056,6.71988167 38.4176912,6.71988167 C36.3388437,6.71988167 34.644081,4.99761616 34.6399362,2.88122132 C34.6394757,2.62299866 34.4336173,2.41351493 34.1794029,2.41351493 L7.26353183,2.41351493 C7.1414905,2.41351493 7.0240545,2.46272252 6.93793476,2.55082753 C6.85181503,2.63893254 6.80299849,2.75796803 6.80299849,2.88215861 C6.80345903,4.99714752 5.11284114,6.71894439 3.03445417,6.71988167 C2.78023977,6.71988167 2.57392083,6.92983404 2.57392083,7.18852535 L2.57392083,18.1215137 C2.57438137,18.380205 2.78023977,18.5896887 3.03445417,18.5896887 L3.03445417,18.5896887 Z" id="Shape" fill="#4A4A4A"></path>
                        <path d="M3.49544805,7.63420548 C5.71429768,7.41206838 7.48504837,5.60919616 7.70195957,3.35080228 L33.7423567,3.35080228 C33.9634127,5.61013345 35.7373872,7.41300567 37.9571578,7.63420548 L37.9571578,17.6763022 C35.7341634,17.8970333 33.9606495,19.698031 33.7428173,21.9559562 L7.70149904,21.9559562 C7.48320623,19.6989683 5.71337661,17.897502 3.49544805,17.6758335 L3.49544805,7.63420548 L3.49544805,7.63420548 Z" id="Path" fill="#FFFFFF"></path>
                        <path d="M20.7240003,18.908835 C24.1135257,18.908835 26.8711993,16.1025967 26.8711993,12.6533793 C26.8711993,9.2041618 24.1135257,6.39792347 20.7240003,6.39792347 C17.3344749,6.39792347 14.5768013,9.2041618 14.5768013,12.6533793 C14.5768013,16.1025967 17.3344749,18.908835 20.7240003,18.908835 L20.7240003,18.908835 Z" id="Shape" fill="#4A4A4A"></path>
                        <path d="M20.7240003,7.33521082 C23.6055574,7.33521082 25.9501326,9.72060713 25.9501326,12.6533793 C25.9501326,15.5861514 23.6055574,17.9715477 20.7240003,17.9715477 C17.8424432,17.9715477 15.4978679,15.5856827 15.4978679,12.6533793 C15.4978679,9.72107577 17.8424432,7.33521082 20.7240003,7.33521082 L20.7240003,7.33521082 Z" id="Path" fill="#42D3AA"></path>
                    </g>
                    <g id="Group-Copy" transform="translate(21.000000, 13.000000) rotate(-360.000000) translate(-21.000000, -13.000000) ">
                        <path d="M40.6899627,0.097009241 L0.758037877,0.097009241 C0.503823473,0.097009241 0.297504537,0.306961608 0.297504537,0.565652917 L0.297504537,24.7411056 C0.297504537,24.9997969 0.503823473,25.2097493 0.758037877,25.2097493 L40.6895022,25.2097493 C40.9437166,25.2097493 41.1500355,24.9997969 41.1500355,24.7411056 L41.1500355,0.565652917 C41.150496,0.306961608 40.9441771,0.097009241 40.6899627,0.097009241 L40.6899627,0.097009241 Z" id="Shape" fill="#4A4A4A"></path>
                        <polygon id="Path" fill="#E8E8E8" points="1.21857122 24.2724619 1.21857122 1.03429659 40.2289688 1.03429659 40.2289688 24.2724619"></polygon>
                        <path d="M3.03445417,18.5896887 C5.11145954,18.590626 6.80207743,20.3110169 6.80299849,22.4245999 C6.80299849,22.6832912 7.00931743,22.8932436 7.26353183,22.8932436 L34.1807845,22.8932436 C34.4349989,22.8932436 34.6413178,22.6832912 34.6413178,22.4245999 C34.6413178,20.3105483 36.3351594,18.5910946 38.4176912,18.5910946 C38.6719056,18.5910946 38.8782245,18.3811423 38.8782245,18.122451 L38.8782245,7.18852535 C38.8782245,6.92983404 38.6719056,6.71988167 38.4176912,6.71988167 C36.3388437,6.71988167 34.644081,4.99761616 34.6399362,2.88122132 C34.6394757,2.62299866 34.4336173,2.41351493 34.1794029,2.41351493 L7.26353183,2.41351493 C7.1414905,2.41351493 7.0240545,2.46272252 6.93793476,2.55082753 C6.85181503,2.63893254 6.80299849,2.75796803 6.80299849,2.88215861 C6.80345903,4.99714752 5.11284114,6.71894439 3.03445417,6.71988167 C2.78023977,6.71988167 2.57392083,6.92983404 2.57392083,7.18852535 L2.57392083,18.1215137 C2.57438137,18.380205 2.78023977,18.5896887 3.03445417,18.5896887 L3.03445417,18.5896887 Z" id="Shape" fill="#4A4A4A"></path>
                        <path d="M3.49544805,7.63420548 C5.71429768,7.41206838 7.48504837,5.60919616 7.70195957,3.35080228 L33.7423567,3.35080228 C33.9634127,5.61013345 35.7373872,7.41300567 37.9571578,7.63420548 L37.9571578,17.6763022 C35.7341634,17.8970333 33.9606495,19.698031 33.7428173,21.9559562 L7.70149904,21.9559562 C7.48320623,19.6989683 5.71337661,17.897502 3.49544805,17.6758335 L3.49544805,7.63420548 L3.49544805,7.63420548 Z" id="Path" fill="#FFFFFF"></path>
                        <path d="M20.7240003,18.908835 C24.1135257,18.908835 26.8711993,16.1025967 26.8711993,12.6533793 C26.8711993,9.2041618 24.1135257,6.39792347 20.7240003,6.39792347 C17.3344749,6.39792347 14.5768013,9.2041618 14.5768013,12.6533793 C14.5768013,16.1025967 17.3344749,18.908835 20.7240003,18.908835 L20.7240003,18.908835 Z" id="Shape" fill="#4A4A4A"></path>
                        <path d="M25.9501326,12.6533793 C25.9501326,15.5861514 23.6055574,17.9715477 20.7240003,17.9715477 C17.8424432,17.9715477 15.4978679,15.5856827 15.4978679,12.6533793 C15.4978679,9.72107577 17.8424432,7.33521082 20.7240003,7.33521082 C23.6055574,7.33521082 25.9501326,9.72060713 25.9501326,12.6533793 Z" id="Path" fill="#42D3AA"></path>
                    </g>
                </g>
                <path d="M7.96637013,31.9444387 C7.48757096,31.5264969 7.49030577,30.8464922 7.968926,30.4287065 L42.124395,0.614538898 C42.6046057,0.195364934 43.3786987,0.191452263 43.860836,0.612307888 L43.860836,0.612307888 C44.3396352,1.0302497 44.3369004,1.71025446 43.8582801,2.12804008 L9.70281116,31.9422077 C9.22260042,32.3613817 8.44850739,32.3652944 7.96637013,31.9444387 L7.96637013,31.9444387" id="Rectangle-7" fill="#EE5F5B"></path>
                <path d="M43.6681877,31.9854247 C44.1461659,31.5681996 44.1427655,30.8887757 43.6641453,30.4709901 L9.50867629,0.656822479 C9.02846556,0.237648515 8.25503235,0.233159888 7.7737218,0.653293876 L7.7737218,0.653293876 C7.29574363,1.07051905 7.29914398,1.74994285 7.77776421,2.16772848 L41.9332332,31.9818961 C42.4134439,32.4010701 43.1868771,32.4055587 43.6681877,31.9854247 L43.6681877,31.9854247" id="Rectangle-7" fill="#EE5F5B"></path>
            </g>
        </g>
    </g>
</svg>