<?xml version="1.0" encoding="UTF-8" standalone="no"?>
<svg width="34px" height="33px" viewBox="0 0 34 33" version="1.1" xmlns="http://www.w3.org/2000/svg" xmlns:xlink="http://www.w3.org/1999/xlink">
    <!-- Generator: Sketch 40.3 (33839) - http://www.bohemiancoding.com/sketch -->
    <title>Target</title>
    <desc>Created with Sketch.</desc>
    <defs></defs>
    <g id="Page-1" stroke="none" stroke-width="1" fill="none" fill-rule="evenodd">
        <g id="Target">
            <path d="M3.55271368e-15,16.1890657 C3.55271368e-15,25.1132944 7.59751657,32.3690805 17.0014668,32.3690805 C26.3788419,32.3690805 34.0029336,25.1133586 34.0029336,16.1890657 C34.0029336,7.26477287 26.3787745,0.00911506735 17.0014668,0.00911506735 C7.59751657,0.00911506735 3.55271368e-15,7.26483706 3.55271368e-15,16.1890657 Z" id="Shape" fill="#30485F"></path>
            <path d="M16.7623582,15.9868653 C16.4967419,16.2396479 16.4967419,16.6694683 16.7623582,16.9222509 L28.5039747,28.0965532 C28.8493164,27.7931884 29.1680829,27.4898235 29.4868495,27.1611676 C29.4868495,27.1611676 17.7452329,15.9868653 17.7452329,15.9868653 C17.4796166,15.7340826 17.0279745,15.7340826 16.7623582,15.9868653 Z" id="Shape" fill="#4A4A4A"></path>
            <path d="M17.0014668,9.86879355 C13.3355167,9.86879355 10.3602499,12.7003058 10.3602499,16.1891299 C10.3602499,19.677954 13.3355167,22.5094662 17.0014668,22.5094662 C20.667417,22.5094662 23.6426838,19.677954 23.6426838,16.1891299 C23.6426838,12.7003058 20.6673495,9.86879355 17.0014668,9.86879355 L17.0014668,9.86879355 Z M17.0014668,19.4756252 C15.0888001,19.4756252 13.5480502,18.009319 13.5480502,16.1890657 C13.5480502,14.3688124 15.0888001,12.9025062 17.0014668,12.9025062 C18.9141335,12.9025062 20.4548834,14.3688124 20.4548834,16.1890657 C20.4548834,18.009319 18.9140661,19.4756252 17.0014668,19.4756252 L17.0014668,19.4756252 Z M17.0014668,3.29567456 C9.51018328,3.29567456 3.45341662,9.05979923 3.45341662,16.1890657 C3.45341662,23.3183322 9.51018328,29.082521 17.0014668,29.082521 C24.4927504,29.082521 30.549517,23.3183964 30.549517,16.1890657 C30.549517,9.05973504 24.4926829,3.29567456 17.0014668,3.29567456 L17.0014668,3.29567456 Z M17.0014668,25.7959616 C11.42285,25.7959616 6.90683325,21.4981431 6.90683325,16.1890657 C6.90683325,10.8799883 11.42285,6.58216987 17.0014668,6.58216987 C22.5800837,6.58216987 27.0961004,10.8799883 27.0961004,16.1890657 C27.0961004,21.4981431 22.5800162,25.7959616 17.0014668,25.7959616 L17.0014668,25.7959616 Z" id="Shape" fill="#FFFFFF"></path>
            <path d="M30.6556826,3.19451015 C32.0370492,4.50913395 35.0388912,3.77594874 33.6575245,5.09057254 L29.9384916,8.62991468 C28.5837001,9.94453848 26.3256917,9.94453848 24.9443251,8.62991468 C23.5629584,7.31529088 23.5629584,5.19167276 24.9443251,3.87704896 L28.663358,0.337771017 C30.0181495,-0.976852781 29.2743834,1.87988635 30.6556826,3.19451015 L30.6556826,3.19451015 Z" id="Shape" fill="#FFC938"></path>
            <path d="M30.6556826,3.21980126 C30.2571907,2.8405631 30.0447246,2.36022473 29.911849,1.85459525 L24.094191,7.36587309 C24.2535743,7.82092036 24.5457657,8.27596763 24.9176825,8.62991468 C25.3161744,9.00915283 25.7677491,9.26193548 26.272474,9.4136179 L32.0635569,3.90234007 C31.5588994,3.77601294 31.0275994,3.57374831 30.6556826,3.21980126 L30.6556826,3.21980126 Z" id="Shape" fill="#FFC938"></path>
            <path d="M31.9308162,1.98105076 C32.1964325,2.23383341 32.1964325,2.66365377 31.9308162,2.91643641 L17.6389999,16.4924947 C17.3733836,16.7452774 16.9217415,16.7452774 16.6561252,16.4924947 C16.3905089,16.2397121 16.3905089,15.8098917 16.6561252,15.5571091 L30.9479415,1.95575966 C31.2401329,1.70291283 31.6651999,1.70291283 31.9308162,1.98105076 L31.9308162,1.98105076 Z" id="Shape" fill="#9A9A9A"></path>
            <path d="M19.8704332,18.009319 C19.6048169,18.3885571 19.2859829,18.691922 18.8875584,18.9447046 L21.1721419,21.118905 C21.5440587,20.8408312 21.8628252,20.5374664 22.1550166,20.1835193 L19.8704332,18.009319 L19.8704332,18.009319 Z M24.5989834,22.5094021 C24.306792,22.838058 23.9614503,23.1414229 23.6161086,23.4447877 L26.0600754,25.7706705 C26.4054171,25.4673056 26.7241836,25.1639408 27.0429502,24.8352848 L24.5989834,22.5094021 L24.5989834,22.5094021 Z" id="Shape" fill="#6B6A6A"></path>
        </g>
    </g>
</svg>