<?xml version="1.0" encoding="UTF-8" standalone="no"?>
<svg width="37px" height="38px" viewBox="0 0 37 38" version="1.1" xmlns="http://www.w3.org/2000/svg" xmlns:xlink="http://www.w3.org/1999/xlink">
    <!-- Generator: Sketch 40.3 (33839) - http://www.bohemiancoding.com/sketch -->
    <title>Group 6</title>
    <desc>Created with Sketch.</desc>
    <defs></defs>
    <g id="Page-1" stroke="none" stroke-width="1" fill="none" fill-rule="evenodd">
        <g id="Pictos" transform="translate(-675.000000, -149.000000)">
            <g id="Group-6" transform="translate(675.000000, 149.000000)">
                <path d="M18.5,34 C27.0604136,34 34,27.0604136 34,18.5 C34,9.93958638 27.0604136,3 18.5,3 C9.93958638,3 3,9.93958638 3,18.5 C3,27.0604136 9.93958638,34 18.5,34 Z M18.5,31 C25.4035594,31 31,25.4035594 31,18.5 C31,11.5964406 25.4035594,6 18.5,6 C11.5964406,6 6,11.5964406 6,18.5 C6,25.4035594 11.5964406,31 18.5,31 Z" id="Combined-Shape" fill="#4A4A4A"></path>
                <circle id="Oval" fill="#4A4A4A" cx="18.5" cy="18.5" r="7.5"></circle>
                <circle id="Oval" fill="#FFC938" cx="18.5" cy="18.5" r="5.5"></circle>
                <rect id="Rectangle-12" fill="#4A4A4A" x="29" y="18" width="8" height="2" rx="1"></rect>
                <rect id="Rectangle-12-Copy" fill="#4A4A4A" x="0" y="18" width="8" height="2" rx="1"></rect>
                <g id="Group-5" transform="translate(18.500000, 19.000000) rotate(-90.000000) translate(-18.500000, -19.000000) translate(0.000000, 18.000000)" fill="#4A4A4A">
                    <rect id="Rectangle-12" x="29" y="0" width="8" height="2" rx="1"></rect>
                    <rect id="Rectangle-12-Copy" x="0" y="0" width="8" height="2" rx="1"></rect>
                </g>
            </g>
        </g>
    </g>
</svg>