<?xml version="1.0" encoding="UTF-8" standalone="no"?>
<svg width="40px" height="40px" viewBox="0 0 40 40" version="1.1" xmlns="http://www.w3.org/2000/svg" xmlns:xlink="http://www.w3.org/1999/xlink">
    <!-- Generator: Sketch 40.3 (33839) - http://www.bohemiancoding.com/sketch -->
    <title>Target</title>
    <desc>Created with Sketch.</desc>
    <defs></defs>
    <g id="Page-1" stroke="none" stroke-width="1" fill="none" fill-rule="evenodd">
        <g id="Pictos" transform="translate(-599.000000, -250.000000)">
            <g id="Target" transform="translate(599.000000, 250.000000)">
                <path d="M40,18.8444444 L36.2222222,18.8444444 C35.6444444,10.8 29.2,4.35555556 21.1555556,3.77777778 L21.1555556,0 L18.8444444,0 L18.8444444,3.77777778 C10.8,4.35555556 4.35555556,10.8 3.77777778,18.8444444 L0,18.8444444 L0,21.1555556 L3.77777778,21.1555556 C4.35555556,29.2 10.8,35.6444444 18.8444444,36.2222222 L18.8444444,40 L21.1555556,40 L21.1555556,36.2222222 C29.2,35.6444444 35.6444444,29.2 36.2222222,21.1555556 L40,21.1555556 L40,18.8444444 L40,18.8444444 Z" id="Shape" fill="#4A4A4A"></path>
                <path d="M21.1555556,33.9111111 L21.1555556,30.7111111 L18.8444444,30.7111111 L18.8444444,33.9111111 C12.0444444,33.3333333 6.66666667,27.9555556 6.08888889,21.1555556 L9.28888889,21.1555556 L9.28888889,18.8444444 L6.08888889,18.8444444 C6.66666667,12.0444444 12.0444444,6.66666667 18.8444444,6.08888889 L18.8444444,9.28888889 L21.1555556,9.28888889 L21.1555556,6.08888889 C27.9555556,6.66666667 33.3333333,12.0444444 33.9111111,18.8444444 L30.7111111,18.8444444 L30.7111111,21.1555556 L33.9111111,21.1555556 C33.3333333,27.9555556 27.9555556,33.3333333 21.1555556,33.9111111 L21.1555556,33.9111111 Z" id="Path" fill="#F9F9F9"></path>
                <path d="M13.3333333,20 C13.3333333,23.6888889 16.3111111,26.6666667 20,26.6666667 C23.6888889,26.6666667 26.6666667,23.6888889 26.6666667,20 C26.6666667,16.3111111 23.6888889,13.3333333 20,13.3333333 C16.3111111,13.3333333 13.3333333,16.3111111 13.3333333,20 Z" id="Shape" stroke="#4A4A4A" fill="#FFC938"></path>
            </g>
        </g>
    </g>
</svg>