<?xml version="1.0" encoding="UTF-8" standalone="no"?>
<svg width="295px" height="115px" viewBox="0 0 295 115" version="1.1" xmlns="http://www.w3.org/2000/svg" xmlns:xlink="http://www.w3.org/1999/xlink">
    <!-- Generator: Sketch 40.3 (33839) - http://www.bohemiancoding.com/sketch -->
    <title>Papoters Copy 3</title>
    <desc>Created with Sketch.</desc>
    <defs></defs>
    <g id="Page-1" stroke="none" stroke-width="1" fill="none" fill-rule="evenodd">
        <g id="Logos" transform="translate(-377.000000, -644.000000)" fill="#30485F">
            <path d="M606.908515,701.189731 C607.021388,700.664504 607.127159,700.126651 607.22583,699.576172 C607.550539,697.764639 607.815429,695.970224 608.020508,694.192871 C608.225587,692.415518 608.370849,690.740731 608.456299,689.168457 C608.541748,687.596184 608.601562,686.297368 608.635742,685.271973 L609.814941,685.271973 L617.812988,685.271973 C616.103995,689.817894 614.796635,693.979229 613.890869,697.756104 C612.985103,701.532978 612.532227,705.113264 612.532227,708.49707 C612.532227,710.821301 612.865475,712.743889 613.531982,714.264893 C614.19849,715.785896 615.052973,717.007808 616.095459,717.930664 C617.137945,718.85352 618.300042,719.502928 619.581787,719.878906 C620.863532,720.254885 622.119623,720.442871 623.350098,720.442871 C625.605968,720.442871 627.571281,719.913091 629.246094,718.853516 C630.22287,718.235555 631.118257,717.524594 631.932264,716.720625 C632.300456,717.004342 632.720983,717.288058 633.193848,717.571777 C634.048344,718.084475 634.996821,718.554441 636.039307,718.981689 C637.081792,719.408938 638.175531,719.759276 639.320557,720.032715 C640.465582,720.306154 641.584955,720.442871 642.678711,720.442871 C644.832042,720.442871 646.77172,720.092533 648.497803,719.391846 C650.223886,718.691159 651.719232,717.793951 652.983887,716.700195 C656.265153,716.460936 659.01659,715.888432 661.238281,714.982666 C663.459972,714.0769 665.391105,712.957526 667.031738,711.624512 C667.646976,711.111814 668.245114,710.50513 668.826172,709.804443 C669.407229,709.103756 669.928464,708.377445 670.389893,707.625488 C670.851321,706.873531 671.218749,706.138675 671.492188,705.420898 C671.765626,704.703121 671.902344,704.087893 671.902344,703.575195 C671.902344,703.199217 671.791261,702.771975 671.569092,702.293457 C671.346923,701.814939 671.056398,701.353518 670.69751,700.90918 C670.338621,700.464842 669.928469,700.097414 669.467041,699.806885 C669.005613,699.516356 668.552737,699.371094 668.108398,699.371094 C667.62988,699.371094 667.202639,699.593259 666.82666,700.037598 C666.450682,700.481936 666.074709,701.199702 665.69873,702.190918 C665.391112,703.045414 665.006594,703.865719 664.545166,704.651855 C664.083738,705.437992 663.502689,706.164303 662.802002,706.830811 C662.101315,707.497318 661.281011,708.086911 660.341064,708.599609 C659.401118,709.112307 658.315924,709.48828 657.085449,709.727539 C657.256349,709.146481 657.384521,708.531253 657.469971,707.881836 C657.55542,707.232419 657.598145,706.600101 657.598145,705.984863 C657.598145,703.489734 657.239261,701.319345 656.521484,699.473633 C655.803707,697.62792 654.88941,695.884774 653.778564,694.244141 C652.667719,692.603507 651.445807,690.945809 650.112793,689.270996 C648.779778,687.596183 647.498053,685.66505 646.267578,683.477539 C646.301758,683.34082 646.44702,683.033206 646.703369,682.554688 C646.959718,682.076169 647.241698,681.503665 647.549316,680.837158 C647.856935,680.170651 648.138915,679.452885 648.395264,678.683838 C648.651613,677.914791 648.779785,677.137211 648.779785,676.351074 C648.779785,674.91552 648.463626,673.770512 647.831299,672.916016 C647.198971,672.061519 646.250495,671.634277 644.98584,671.634277 C644.268063,671.634277 643.405034,671.899167 642.396729,672.428955 C641.388423,672.958743 640.414311,673.633785 639.474365,674.454102 C638.534419,675.274418 637.731205,676.171626 637.064697,677.145752 C636.39819,678.119878 636.064941,679.051265 636.064941,679.939941 C636.064941,680.828618 636.218748,681.674557 636.526367,682.477783 C636.833986,683.28101 637.244138,684.07568 637.756836,684.861816 C636.7998,687.664565 635.834233,690.475816 634.860107,693.295654 C633.920099,696.01673 633.194938,698.507021 632.684602,700.766595 C632.512093,701.165592 632.374225,701.640365 632.270996,702.190918 C632.050168,703.263511 631.77839,704.401601 631.455654,705.605216 C631.337699,705.584877 631.233504,705.574707 631.143066,705.574707 C630.562009,705.574707 629.99805,705.890866 629.451172,706.523193 C628.904294,707.155521 628.536866,707.96728 628.348877,708.958496 C628.190286,709.794704 628.232379,710.72212 628.475159,711.740765 C628.263664,711.972168 628.042127,712.189765 627.810547,712.393555 C626.95605,713.145512 625.93067,713.521484 624.734375,713.521484 C624.016598,713.521484 623.392825,713.367677 622.863037,713.060059 C622.333249,712.75244 621.897463,712.333743 621.555664,711.803955 C621.213865,711.274167 620.95752,710.667484 620.786621,709.983887 C620.615722,709.30029 620.530273,708.599613 620.530273,707.881836 C620.530273,706.138663 620.649901,704.352792 620.88916,702.52417 C621.128419,700.695547 621.418944,698.926766 621.760742,697.217773 C622.102541,695.508781 622.478514,693.876717 622.888672,692.321533 C623.29883,690.76635 623.674803,689.390631 624.016602,688.194336 C624.3584,686.998041 624.648925,686.00684 624.888184,685.220703 C625.127443,684.434566 625.24707,683.938966 625.24707,683.733887 C625.34961,683.118649 625.204348,682.469242 624.811279,681.785645 C624.418211,681.102047 623.931155,680.461185 623.350098,679.863037 C622.76904,679.26489 622.179446,678.777834 621.581299,678.401855 C620.983151,678.025877 620.530275,677.837891 620.222656,677.837891 L614.736816,677.837891 L613.916504,677.837891 C613.643065,677.837891 613.301272,677.820801 612.891113,677.786621 C612.480955,677.752441 611.97681,677.709717 611.378662,677.658447 C610.780515,677.607177 610.054203,677.530274 609.199707,677.427734 C608.892088,676.368159 608.499026,675.479496 608.020508,674.761719 C607.54199,674.043942 607.003665,673.462893 606.405518,673.018555 C605.80737,672.574217 605.175052,672.266602 604.508545,672.095703 C603.842038,671.924804 603.201175,671.839355 602.585938,671.839355 C601.90234,671.839355 601.235843,671.950438 600.586426,672.172607 C599.937008,672.394777 599.373049,672.71948 598.894531,673.146729 C598.416013,673.573977 598.031496,674.086667 597.740967,674.684814 C597.450438,675.282962 597.305176,675.940914 597.305176,676.658691 C597.305176,678.196785 597.732418,679.521235 598.586914,680.63208 C599.441411,681.742925 600.51806,682.657223 601.816895,683.375 C601.782715,684.708014 601.731446,686.220451 601.663086,687.912354 C601.594726,689.604257 601.500733,691.296134 601.381104,692.988037 C601.261474,694.67994 601.099122,696.286369 600.894043,697.807373 C600.780648,698.648387 600.656804,699.418857 600.52251,700.11879 C600.508988,700.176171 600.496114,700.234556 600.483887,700.293945 C600.425457,700.599079 600.361478,700.903596 600.29195,701.207495 C600.254095,701.369161 600.215535,701.52607 600.17627,701.678223 C600.156081,701.75321 600.138326,701.827953 600.123004,701.902453 C599.8499,702.963197 599.50877,704.016378 599.099609,705.062012 C598.484372,706.634285 597.672612,708.052728 596.664307,709.317383 C595.656001,710.582038 594.417,711.598873 592.947266,712.36792 C591.477532,713.136967 589.717295,713.521484 587.666504,713.521484 C586.29931,713.521484 585.094488,713.350588 584.052002,713.008789 C583.009516,712.66699 582.095219,712.205569 581.309082,711.624512 C580.522945,711.043454 579.847903,710.351322 579.283936,709.548096 C578.719968,708.744869 578.267092,707.89893 577.925293,707.010254 C580.454602,706.258297 582.684805,705.156013 584.615967,703.703369 C586.547129,702.250725 588.170648,700.610117 589.486572,698.781494 C590.802497,696.952872 591.793698,695.013194 592.460205,692.962402 C593.126712,690.911611 593.459961,688.912119 593.459961,686.963867 C593.459961,685.391594 593.24634,683.956061 592.819092,682.657227 C592.391844,681.358392 591.768071,680.239018 590.947754,679.299072 C590.127437,678.359126 589.127691,677.632815 587.948486,677.120117 C586.769281,676.607419 585.444832,676.351074 583.975098,676.351074 C581.958486,676.351074 579.993174,676.940668 578.079102,678.119873 C576.165029,679.299078 574.456062,680.931142 572.952148,683.016113 C571.448235,685.101085 570.234868,687.570542 569.312012,690.424561 C568.389156,693.278579 567.927734,696.363265 567.927734,699.678711 C567.927734,701.357351 568.064151,702.944289 568.336985,704.439536 C568.21777,704.91788 568.089898,705.407353 567.953369,705.907959 C567.594481,707.223884 567.133059,708.445795 566.569092,709.57373 C566.005124,710.701666 565.338627,711.641598 564.56958,712.393555 C563.800533,713.145512 562.886236,713.521484 561.82666,713.521484 C560.732905,713.521484 559.861331,713.145512 559.211914,712.393555 C558.562497,711.641598 558.237793,710.411141 558.237793,708.702148 L558.237793,675.428223 C561.040541,675.428223 564.056869,675.419678 567.286865,675.402588 C570.516862,675.385498 574.233866,675.325684 578.437988,675.223145 C578.882326,675.223145 579.283934,674.966799 579.642822,674.454102 C580.001711,673.941404 580.28369,673.33472 580.48877,672.634033 C580.693849,671.933346 580.830566,671.207035 580.898926,670.455078 C580.967285,669.703121 580.958741,669.070803 580.873291,668.558105 C580.787841,668.045408 580.599855,667.720704 580.309326,667.583984 C580.018797,667.447265 579.63428,667.635251 579.155762,668.147949 C575.566877,668.318849 571.98659,668.438476 568.414795,668.506836 C564.843,668.575196 561.4507,668.609375 558.237793,668.609375 L558.237793,650.203613 C558.237793,648.938959 557.733648,647.853764 556.725342,646.947998 C555.717036,646.042232 554.341317,645.589355 552.598145,645.589355 C552.222166,645.589355 551.837648,645.61499 551.44458,645.66626 C551.051512,645.71753 550.684084,645.794433 550.342285,645.896973 C550.000487,645.999512 549.727052,646.11914 549.521973,646.255859 C549.316894,646.392579 549.214355,646.563476 549.214355,646.768555 C549.214355,646.939454 549.274169,647.101806 549.393799,647.255615 C549.513428,647.409425 549.633056,647.614501 549.752686,647.87085 C549.872315,648.127199 549.991943,648.477537 550.111572,648.921875 C550.231202,649.366213 550.291016,649.964352 550.291016,650.716309 L550.291016,668.506836 C548.855462,668.472656 547.556646,668.447022 546.394531,668.429932 C545.232416,668.412842 544.241215,668.370118 543.420898,668.301758 C542.463862,668.267578 541.592289,668.216309 540.806152,668.147949 C540.054195,668.147949 539.584229,668.515377 539.39624,669.250244 C539.208251,669.985111 539.24243,670.796871 539.498779,671.685547 C539.755128,672.574223 540.19946,673.385983 540.831787,674.12085 C541.464114,674.855717 542.190426,675.223145 543.010742,675.223145 C543.55762,675.257324 544.189938,675.291504 544.907715,675.325684 C545.522952,675.359863 546.283443,675.385498 547.189209,675.402588 C548.094975,675.419678 549.1289,675.428223 550.291016,675.428223 L550.291016,699.980923 C550.268883,700.048961 550.251793,700.119122 550.239746,700.191406 C550.068847,701.216802 549.795412,702.190913 549.419434,703.11377 C549.043455,704.036626 548.547855,704.83984 547.932617,705.523438 C547.31738,706.207035 546.573979,706.753904 545.702393,707.164062 C544.830806,707.574221 543.83106,707.779297 542.703125,707.779297 C542.327147,707.779297 541.976808,707.770752 541.6521,707.753662 C541.327391,707.736572 540.977053,707.659669 540.601074,707.522949 C541.113772,705.745597 541.489745,703.899912 541.729004,701.98584 C541.968263,700.071768 542.087891,698.140635 542.087891,696.192383 C542.087891,693.663073 541.85718,691.321788 541.395752,689.168457 C540.934324,687.015126 540.293461,685.152352 539.473145,683.580078 C538.652828,682.007805 537.695806,680.777348 536.602051,679.888672 C535.508295,678.999996 534.346198,678.555664 533.115723,678.555664 C531.714348,678.555664 530.483892,678.888913 529.424316,679.55542 C528.364741,680.221927 527.484623,681.119135 526.783936,682.24707 C526.083248,683.375006 525.553469,684.682366 525.19458,686.169189 C524.835692,687.656013 524.65625,689.219718 524.65625,690.860352 C524.65625,694.654316 525.297113,698.183333 526.578857,701.44751 C527.860602,704.711686 529.731921,707.40331 532.192871,709.522461 C531.509274,710.718756 530.680425,711.684322 529.706299,712.419189 C528.732173,713.154056 527.493172,713.521484 525.989258,713.521484 C524.963862,713.521484 523.998296,713.24805 523.092529,712.701172 C522.186763,712.154294 521.383548,711.325445 520.682861,710.2146 C519.982174,709.103754 519.435305,707.728036 519.042236,706.087402 C518.649168,704.446769 518.452637,702.515636 518.452637,700.293945 C518.452637,697.696276 518.623533,695.474619 518.965332,693.628906 C519.307131,691.783194 519.725828,690.219489 520.221436,688.937744 C520.717043,687.655999 521.246823,686.587895 521.810791,685.733398 C522.374759,684.878902 522.861814,684.126956 523.271973,683.477539 C523.95557,683.033201 524.357177,682.400883 524.476807,681.580566 C524.596436,680.76025 524.528077,679.94849 524.271729,679.145264 C524.01538,678.342037 523.605227,677.64136 523.04126,677.043213 C522.477292,676.445065 521.853519,676.145996 521.169922,676.145996 C520.588864,676.145996 519.708746,676.709955 518.529541,677.837891 C517.350336,678.965826 516.162604,680.59789 514.966309,682.734131 C513.770014,684.870372 512.718999,687.468002 511.813232,690.5271 C510.907466,693.586197 510.45459,697.046856 510.45459,700.90918 C510.45459,702.123301 510.518236,703.308318 510.64553,704.464239 C510.450833,704.81556 510.259012,705.151536 510.070068,705.472168 C509.506101,706.429204 508.839603,707.240963 508.070557,707.907471 C507.30151,708.573978 506.353033,709.095213 505.225098,709.471191 C504.097162,709.84717 502.66163,710.086425 500.918457,710.188965 C501.704594,708.274893 502.354001,705.976332 502.866699,703.293213 C503.379397,700.610094 503.635742,697.798843 503.635742,694.859375 C503.635742,692.261706 503.387942,689.834972 502.892334,687.579102 C502.396726,685.323231 501.64478,683.366463 500.636475,681.70874 C499.628169,680.051017 498.363533,678.743657 496.842529,677.786621 C495.321526,676.829585 493.535655,676.351074 491.484863,676.351074 C489.263172,676.351074 487.383308,676.880854 485.845215,677.94043 C484.307121,679.000005 482.991216,680.333 481.897461,681.939453 C481.829101,680.743158 481.290777,679.692143 480.282471,678.786377 C479.274165,677.880611 477.932626,677.427734 476.257812,677.427734 C475.881834,677.427734 475.497316,677.453369 475.104248,677.504639 C474.71118,677.555908 474.343752,677.632812 474.001953,677.735352 C473.660155,677.837891 473.38672,677.957519 473.181641,678.094238 C472.976561,678.230958 472.874023,678.384765 472.874023,678.555664 C472.874023,678.760743 472.933837,678.940185 473.053467,679.093994 C473.173096,679.247804 473.292724,679.45288 473.412354,679.709229 C473.531983,679.965577 473.651611,680.315916 473.77124,680.760254 C473.89087,681.204592 473.950684,681.802731 473.950684,682.554688 L473.950684,700.731532 C473.767047,701.137686 473.613239,701.624147 473.489258,702.190918 C473.249999,703.353033 472.95093,704.592034 472.592041,705.907959 C472.233153,707.223884 471.771731,708.445795 471.207764,709.57373 C470.643796,710.701666 469.977299,711.641598 469.208252,712.393555 C468.439205,713.145512 467.524908,713.521484 466.465332,713.521484 C465.850095,713.521484 465.31177,713.376222 464.850342,713.085693 C464.388914,712.795165 464.021486,712.419192 463.748047,711.957764 C463.474608,711.496336 463.269532,710.983645 463.132812,710.419678 C462.996093,709.85571 462.927734,709.283206 462.927734,708.702148 L462.927734,691.373047 C462.927734,690.108392 462.415044,689.023198 461.389648,688.117432 C460.364253,687.211665 458.979989,686.758789 457.236816,686.758789 C456.48486,686.758789 455.843997,686.921141 455.314209,687.24585 C454.784421,687.570558 454.519531,688.006345 454.519531,688.553223 C454.519531,688.724122 454.536621,688.903564 454.570801,689.091553 C454.604981,689.279542 454.647705,689.493163 454.698975,689.732422 C454.750244,689.971681 454.801513,690.262205 454.852783,690.604004 C454.904053,690.945802 454.929688,691.373044 454.929688,691.885742 L454.929688,708.086914 C454.34863,709.556648 453.579595,710.829829 452.622559,711.906494 C451.665523,712.98316 450.469245,713.521484 449.033691,713.521484 C447.187979,713.521484 445.735357,712.778084 444.675781,711.29126 C443.616206,709.804436 443.086426,707.676772 443.086426,704.908203 C443.086426,701.114239 443.616206,697.841566 444.675781,695.090088 C445.735357,692.338609 447.093986,690.065683 448.751709,688.27124 C450.409432,686.476798 452.263662,685.143803 454.314453,684.272217 C456.365245,683.40063 458.381826,682.964844 460.364258,682.964844 C460.911136,682.964844 461.440915,682.999023 461.953613,683.067383 C462.466311,683.135743 462.961912,683.169922 463.44043,683.169922 C463.953128,683.169922 464.303466,682.99048 464.491455,682.631592 C464.679444,682.272703 464.773438,681.64893 464.773438,680.760254 C464.773438,679.39306 464.329106,678.31641 463.44043,677.530273 C462.551753,676.744137 461.389656,676.351074 459.954102,676.351074 C456.741195,676.351074 453.639419,677.000482 450.648682,678.299316 C447.657944,679.598151 445.0005,681.46947 442.67627,683.91333 C440.352039,686.35719 438.489265,689.322248 437.087891,692.808594 C435.686516,696.294939 434.98584,700.225564 434.98584,704.600586 C434.98584,706.822277 435.25073,708.898672 435.780518,710.829834 C436.310305,712.760996 437.104975,714.435784 438.164551,715.854248 C439.224126,717.272712 440.531486,718.392086 442.08667,719.212402 C443.641853,720.032719 445.444814,720.442871 447.495605,720.442871 C449.478037,720.442871 451.212639,720.024174 452.699463,719.186768 C454.186287,718.349361 455.459467,717.332526 456.519043,716.13623 C457.30518,717.435065 458.381829,718.477535 459.749023,719.263672 C461.116218,720.049809 462.722647,720.442871 464.568359,720.442871 C466.82423,720.442871 468.798087,719.913091 470.48999,718.853516 C471.789823,718.039479 472.943381,717.064061 473.950684,715.927244 L473.950684,755.870117 C473.950684,756.656254 474.087401,757.322751 474.36084,757.869629 C474.634279,758.416507 475.300776,758.689941 476.360352,758.689941 C476.873049,758.689941 477.454098,758.630128 478.103516,758.510498 C478.752933,758.390869 479.359616,758.160158 479.923584,757.818359 C480.487552,757.476561 480.957518,757.006595 481.333496,756.408447 C481.709475,755.8103 481.897461,755.03272 481.897461,754.075684 L481.897461,719.930176 C482.341799,720.408694 482.974117,720.793211 483.794434,721.08374 C484.61475,721.374269 485.67431,721.519531 486.973145,721.519531 C488.818857,721.519531 490.681631,721.100834 492.561523,720.263428 C494.441416,719.426021 496.099114,718.238289 497.534668,716.700195 C501.021014,716.700195 504.05443,716.230229 506.63501,715.290283 C509.034561,714.416275 511.0499,713.357577 512.681079,712.114163 C513.105953,713.004371 513.594258,713.840908 514.145996,714.623779 C515.410651,716.418222 516.99999,717.836665 518.914062,718.87915 C520.828135,719.921636 523.118151,720.442871 525.78418,720.442871 C528.792007,720.442871 531.321279,719.750739 533.37207,718.366455 C535.422862,716.982171 537.09765,715.162121 538.396484,712.90625 C539.182621,713.179689 539.994381,713.367675 540.831787,713.470215 C541.669194,713.572754 542.566401,713.624023 543.523438,713.624023 C545.30079,713.624023 546.907219,713.350589 548.342773,712.803711 C549.107812,712.512268 549.819455,712.162584 550.477709,711.754656 C550.59729,712.622533 550.774316,713.416552 551.008789,714.136719 C551.487307,715.606453 552.153804,716.811275 553.008301,717.751221 C553.862797,718.691167 554.879633,719.374754 556.058838,719.802002 C557.238043,720.22925 558.528313,720.442871 559.929687,720.442871 C562.185558,720.442871 564.150871,719.913091 565.825684,718.853516 C567.500497,717.79394 568.944574,716.460946 570.157959,714.854492 C570.707618,714.126775 571.211683,713.367501 571.670158,712.576665 C572.269217,713.449441 572.927259,714.25144 573.644287,714.982666 C575.37037,716.742929 577.352772,718.093013 579.591553,719.032959 C581.830333,719.972905 584.145984,720.442871 586.538574,720.442871 C589.102064,720.442871 591.37499,720.118167 593.357422,719.46875 C595.339854,718.819333 597.065911,717.964849 598.535645,716.905273 C600.005378,715.845698 601.24438,714.640876 602.252686,713.290771 C603.260991,711.940667 604.089841,710.564948 604.739258,709.163574 C605.388675,707.7622 605.875731,706.377937 606.200439,705.010742 C606.525148,703.643548 606.755859,702.430181 606.892578,701.370605 C606.899339,701.309757 606.904651,701.249465 606.908515,701.189731 Z M637.108955,707.995804 C637.533369,708.192958 637.971497,708.394226 638.42334,708.599609 C639.551275,709.112307 640.679194,709.599363 641.807129,710.060791 C642.935064,710.522219 644.037348,710.898192 645.114014,711.188721 C646.190679,711.479249 647.173335,711.624512 648.062012,711.624512 C648.643069,710.940915 649.172849,710.035162 649.651367,708.907227 C650.129885,707.779291 650.369141,706.548835 650.369141,705.21582 C650.369141,703.575187 650.146975,702.054206 649.702637,700.652832 C649.258299,699.251458 648.67725,697.952643 647.959473,696.756348 C647.241696,695.560053 646.429936,694.440679 645.52417,693.398193 C644.618404,692.355708 643.704106,691.373051 642.78125,690.450195 C641.960933,692.466807 641.243167,694.457754 640.62793,696.423096 C640.012692,698.388438 639.363285,700.61864 638.679688,703.11377 C638.600249,703.431525 638.500617,703.713941 638.380791,703.961018 C638.374977,704.003309 638.37207,704.0456 638.37207,704.087891 C638.026701,705.346023 637.605664,706.648654 637.108955,707.995804 Z M396.123535,662.508301 C396.123535,661.517085 396.046632,660.799319 395.892822,660.35498 C395.739013,659.910642 395.662109,659.50049 395.662109,659.124512 C395.662109,658.611814 395.935544,658.184572 396.482422,657.842773 C397.0293,657.500975 397.678707,657.330078 398.430664,657.330078 C400.173837,657.330078 401.583735,657.782954 402.6604,658.688721 C403.737066,659.594487 404.275391,660.696771 404.275391,661.995605 L404.275391,696.294922 C405.471686,696.158202 406.830315,695.816409 408.351318,695.269531 C409.872322,694.722654 411.436027,693.962163 413.04248,692.988037 C414.648934,692.013911 416.212639,690.809089 417.733643,689.373535 C419.254646,687.937981 420.613275,686.263193 421.80957,684.349121 C423.005865,682.435049 423.971432,680.273205 424.706299,677.863525 C425.441166,675.453845 425.808594,672.779312 425.808594,669.839844 C425.808594,667.857412 425.492435,665.806651 424.860107,663.6875 C424.22778,661.568349 423.228034,659.637216 421.86084,657.894043 C420.493646,656.15087 418.724864,654.715338 416.554443,653.587402 C414.384022,652.459467 411.760758,651.895508 408.68457,651.895508 C404.480448,651.895508 400.874527,652.544915 397.866699,653.84375 C394.858872,655.142585 392.406504,656.885731 390.509521,659.073242 C388.612539,661.260753 387.219731,663.79857 386.331055,666.686768 C385.442378,669.574966 384.998047,672.625472 384.998047,675.838379 C384.998047,678.162609 385.194578,680.119377 385.587646,681.70874 C385.980715,683.298104 386.416502,684.596919 386.89502,685.605225 C387.373538,686.61353 387.817869,687.356931 388.228027,687.835449 C388.638186,688.313967 388.877441,688.587402 388.945801,688.655762 C389.526858,688.484862 389.937011,688.553221 390.17627,688.86084 C390.415529,689.168459 390.535156,689.578611 390.535156,690.091309 C390.535156,690.569827 390.372804,691.287593 390.048096,692.244629 C389.723387,693.201665 389.2876,694.098873 388.740723,694.936279 C388.193845,695.773686 387.561527,696.406004 386.84375,696.833252 C386.125973,697.2605 385.391117,697.183597 384.63916,696.602539 C384.229002,696.226561 383.596684,695.542974 382.742188,694.551758 C381.887691,693.560542 381.041752,692.236092 380.204346,690.578369 C379.366939,688.920646 378.623538,686.921154 377.974121,684.579834 C377.324704,682.238514 377,679.529801 377,676.453613 C377,671.531714 377.769035,667.079854 379.307129,663.0979 C380.845223,659.115947 383.007066,655.706557 385.792725,652.869629 C388.578383,650.032701 391.902324,647.845223 395.764648,646.307129 C399.626972,644.769035 403.899391,644 408.582031,644 C412.410175,644 415.887924,644.632318 419.015381,645.896973 C422.142838,647.161627 424.808827,648.930409 427.013428,651.203369 C429.218029,653.47633 430.918451,656.185043 432.114746,659.32959 C433.311041,662.474137 433.90918,665.909161 433.90918,669.634766 C433.90918,674.214867 433.088875,678.444561 431.448242,682.323975 C429.807609,686.203389 427.620131,689.646958 424.885742,692.654785 C422.151354,695.662613 418.998309,698.157705 415.426514,700.140137 C411.854718,702.122569 408.137715,703.472653 404.275391,704.19043 L404.275391,718.033203 C404.275391,718.921879 403.984866,719.545653 403.403809,719.904541 C402.822751,720.26343 402.139164,720.442871 401.353027,720.442871 C400.73779,720.442871 400.122562,720.357423 399.507324,720.186523 C398.892087,720.015624 398.336672,719.793458 397.841064,719.52002 C397.345457,719.246581 396.935304,718.930422 396.610596,718.571533 C396.285887,718.212645 396.123535,717.828127 396.123535,717.417969 L396.123535,662.508301 Z M488.818848,683.375 C488.066891,683.375 487.34058,683.597166 486.639893,684.041504 C485.939205,684.485842 485.281253,685.092525 484.666016,685.861572 C484.050778,686.630619 483.512453,687.562006 483.051025,688.655762 C482.589597,689.749517 482.20508,690.928705 481.897461,692.193359 L481.897461,714.905762 C482.649418,713.812006 483.879874,712.974612 485.588867,712.393555 C487.29786,711.812497 489.365711,711.419435 491.79248,711.214355 C492.407718,710.291499 492.946043,709.189215 493.407471,707.907471 C493.868899,706.625726 494.253416,705.301276 494.561035,703.934082 C494.868654,702.566888 495.099364,701.233893 495.253174,699.935059 C495.406983,698.636224 495.483887,697.491216 495.483887,696.5 C495.483887,694.10741 495.304445,692.073739 494.945557,690.398926 C494.586668,688.724113 494.099612,687.365484 493.484375,686.322998 C492.869138,685.280512 492.159916,684.528567 491.356689,684.067139 C490.553463,683.605711 489.707524,683.375 488.818848,683.375 L488.818848,683.375 Z M530.193359,690.450195 C530.193359,692.808606 530.560787,695.047353 531.295654,697.166504 C532.030521,699.285655 532.996088,701.13134 534.192383,702.703613 C534.397462,701.0288 534.5,699.422371 534.5,697.884277 C534.5,696.106925 534.474365,694.457771 534.423096,692.936768 C534.371826,691.415764 534.252198,690.108404 534.064209,689.014648 C533.87622,687.920893 533.619875,687.057864 533.295166,686.425537 C532.970457,685.79321 532.534671,685.477051 531.987793,685.477051 C530.791498,685.477051 530.193359,687.134749 530.193359,690.450195 L530.193359,690.450195 Z M576.541016,699.371094 C576.541016,699.678712 576.558105,699.986327 576.592285,700.293945 C576.626465,700.601564 576.643555,700.926268 576.643555,701.268066 C577.942389,700.652829 579.121577,699.866704 580.181152,698.909668 C581.240728,697.952632 582.146481,696.858893 582.898437,695.628418 C583.650394,694.397943 584.231443,693.056404 584.641602,691.60376 C585.05176,690.151116 585.256836,688.63868 585.256836,687.066406 C585.256836,685.904291 585.060305,684.998538 584.667236,684.349121 C584.274168,683.699704 583.735843,683.375 583.052246,683.375 C582.19775,683.375 581.437259,683.665524 580.770752,684.246582 C580.104245,684.82764 579.523196,685.58813 579.027588,686.528076 C578.53198,687.468022 578.121828,688.527582 577.797119,689.706787 C577.47241,690.885992 577.207521,692.073724 577.002441,693.27002 C576.797362,694.466315 576.660645,695.602778 576.592285,696.679443 C576.523925,697.756109 576.506836,698.653317 576.541016,699.371094 L576.541016,699.371094 Z" id="Papoters-Copy-3"></path>
        </g>
    </g>
</svg>