<?xml version="1.0" encoding="UTF-8" standalone="no"?>
<svg width="108px" height="79px" viewBox="0 0 108 79" version="1.1" xmlns="http://www.w3.org/2000/svg" xmlns:xlink="http://www.w3.org/1999/xlink">
    <!-- Generator: Sketch 40.3 (33839) - http://www.bohemiancoding.com/sketch -->
    <title>Artboard 2 Copy 2</title>
    <desc>Created with Sketch.</desc>
    <defs></defs>
    <g id="Page-1" stroke="none" stroke-width="1" fill="none" fill-rule="evenodd">
        <g id="Artboard-2-Copy-2">
            <g id="Group-2-Copy-2" transform="translate(2.000000, 5.000000)">
                <path d="M48.5809251,63.1143135 C48.8114127,63.8854999 49.2809699,64.5951362 50.0300546,65.2806352 C47.4333911,65.7090721 43.6842897,65.5376973 40.662205,62.2839907 C40.8154547,62.1584768 40.9674785,62.0245149 41.1109202,61.8833117 L48.1763458,54.9281518 C48.2633917,54.8424644 48.3418555,54.7507427 48.4227714,54.659021 C50.8907051,56.5706943 50.342684,57.5277379 49.5004235,58.986837 C48.8665826,60.0814631 48.079492,61.4476337 48.5809251,63.1143135 L48.5809251,63.1143135 Z" id="Path" fill="#FFC938"></path>
                <path d="M88.9898144,46.3256219 C89.6726952,47.0002591 90.0490765,47.8957525 90.0490765,48.8491755 C90.0490765,49.8001847 89.6714692,50.6956781 88.9898144,51.3715222 C88.3032556,52.0473663 87.3947912,52.4142531 86.4262529,52.4142531 C85.4589406,52.4142531 84.5480242,52.0437457 83.8626914,51.3715222 L67.487038,35.2526403 C66.8446151,34.6202434 65.801291,34.6202434 65.1576421,35.2526403 C64.5139932,35.8838305 64.5139932,36.912079 65.1576421,37.5456828 L80.05842,52.2139136 C80.060872,52.2187411 80.063324,52.2211548 80.065776,52.2235685 C80.7523348,52.8982058 81.1287161,53.7936992 81.1287161,54.7459153 C81.1287161,55.6993382 80.7498828,56.5948316 80.065776,57.2694689 C79.3804432,57.9428992 78.4707528,58.3134066 77.5034405,58.3134066 C76.5361282,58.3134066 75.6264378,57.9416924 74.941105,57.2694689 L72.1985478,54.5709199 C72.1960958,54.5685062 72.1936438,54.5636787 72.1911918,54.5636787 C72.1911918,54.561265 72.1887398,54.561265 72.1862878,54.5588513 L62.4310229,44.9558307 C61.7886,44.3234337 60.7452758,44.3234337 60.101627,44.9558307 C59.4592041,45.5870208 59.4592041,46.6152693 60.101627,47.2488732 L69.8691519,56.8663761 C70.5495807,57.5422202 70.922284,58.4328862 70.922284,59.3814817 C70.922284,60.3349046 70.5434507,61.230398 69.8617959,61.9050353 C69.1764631,62.5808794 68.2667727,62.9489731 67.2994604,62.9489731 L67.2970084,62.9489731 C66.3296961,62.9489731 65.4212316,62.5772588 64.7346728,61.9050353 L58.7444473,56.0082955 C58.1020245,55.3758985 57.0574743,55.3758985 56.4138254,56.0082955 C55.7714025,56.6418993 55.7714025,57.6701479 56.4138254,58.3025448 L61.9062958,63.7080908 C60.7857338,64.4551399 59.2238125,64.9077141 57.5871054,64.9077141 C56.5020973,64.9077141 55.4416091,64.7146158 54.5147547,64.3537633 C52.1878108,63.1493126 51.8016215,62.3950223 51.7390956,62.192269 C51.6434678,61.8724499 51.9242213,61.3510845 52.3643545,60.5871393 C53.7583141,58.1734103 54.7942822,55.3215896 49.9883707,51.7613394 C50.1232304,51.2266985 50.2016943,50.6739545 50.2016943,50.1079351 C50.2016943,48.2867766 49.4820335,46.5778565 48.1751198,45.291339 C46.8694321,44.0048215 45.1309672,43.2951852 43.2821624,43.2951852 C42.6887794,43.2951852 42.1076565,43.3760451 41.5473754,43.519662 C41.4480696,41.8529821 40.7492508,40.3021613 39.540417,39.1133998 C38.2347292,37.8280891 36.4962643,37.1184528 34.6474595,37.1184528 C32.7986548,37.1184528 31.0601898,37.8280891 29.7532761,39.1133998 L29.3131429,39.5466641 C29.0213554,38.3289379 28.3997745,37.2113814 27.4790501,36.3038193 C26.1733624,35.0173018 24.4348974,34.3100792 22.5848666,34.3100792 C20.7360619,34.3100792 18.9988229,35.0173018 17.6919092,36.3038193 L16.9281125,37.0556959 C16.8888806,37.0158693 16.8533267,36.9760428 16.8091907,36.9374231 L0.180981858,23.3698528 L15.1773876,2.38368653 C16.8386147,3.05711691 19.8888974,4.11553705 23.1868316,4.38949528 C25.5554594,4.578973 28.110439,3.62555007 30.8113122,2.60937019 C34.0197486,1.40009199 37.6523803,0.0254733594 41.5866074,0.358567953 C44.4456344,0.596320253 47.1293437,1.48215877 49.5997293,2.97625699 C46.3961969,5.49377627 44.098677,8.49162761 42.6470955,10.7593259 C41.8587789,11.9915346 34.9907389,22.9667601 36.7978598,28.5074748 C37.228185,29.824164 38.1121295,30.7836212 39.3552913,31.2832631 C40.2662077,31.6501499 41.1967401,31.8348002 42.1211424,31.8348002 C46.4673048,31.8348002 49.7578831,27.8931808 52.9368955,24.0819028 C55.2650654,21.2904253 57.6667952,18.4144673 60.0096771,17.7977595 L74.9864669,32.5432296 L76.5729081,34.1037054 L84.8545236,42.2572817 L84.8569756,42.2572817 L88.9898144,46.3256219 L88.9898144,46.3256219 Z" id="Path" fill="#42D3AA"></path>
                <path d="M77.3183148,30.2477734 C77.3158628,30.2465665 61.7456901,14.9193878 61.7456901,14.9193878 C61.4355126,14.6140511 61.0137694,14.4438832 60.5809921,14.4438832 C56.4935153,14.7081865 53.3905147,18.4265359 50.389272,22.022992 C47.6945287,25.2513545 44.9078356,28.5895416 42.1199164,28.5895416 C41.6184833,28.5895416 41.1219542,28.488165 40.5996791,28.2781706 C40.3520275,28.1780008 40.099472,28.016281 39.9364143,27.5142254 C39.0340798,24.748092 42.0978485,17.7072447 45.4374666,12.4875559 C48.1187239,8.2985293 54.0329376,1.26854376 63.523387,1.26854376 C67.4686481,1.26854376 70.9725499,2.93643046 74.0681945,4.40759825 C76.6722139,5.64463433 79.1315656,6.814086 81.5124535,6.814086 C84.8226477,6.814086 87.9526202,6.01272799 89.6641132,5.48050076 L102.809262,27.6373255 L86.2104772,39.0023683 L77.3183148,30.2477734 Z" id="Path" fill="#FFC938"></path>
                <path d="M36.2167368,60.6305864 C35.2494245,60.6305864 34.3397341,60.2588721 33.6544013,59.5878555 C32.2432777,58.1999614 32.2432777,55.9407111 33.6507233,54.5467826 L39.5416429,48.746592 C39.5453209,48.7417645 39.5489989,48.7369371 39.5526769,48.7345233 L40.7198269,47.5843815 C41.4039337,46.9109511 42.3136241,46.5416506 43.2833884,46.5416506 C44.2494747,46.5416506 45.1603911,46.9133648 45.8457239,47.5867952 C46.5298307,48.2602256 46.9062121,49.1569259 46.9062121,50.109142 C46.9062121,51.061358 46.5286047,51.9568515 45.8444979,52.6314887 L38.7802983,59.5878555 C38.0949655,60.2588721 37.1852751,60.6305864 36.2167368,60.6305864 L36.2167368,60.6305864 Z" id="Path" fill="#FFC938"></path>
                <path d="M31.3201013,52.2501195 L30.1468214,53.4075026 C29.4614886,54.0809329 28.5517982,54.4502335 27.5844859,54.4502335 C26.6159476,54.4502335 25.7062572,54.0785192 25.0209244,53.4075026 C24.3355916,52.7316585 23.9592102,51.836165 23.9592102,50.883949 C23.9592102,49.930526 24.3368176,49.0350326 25.0209244,48.3603953 L32.085124,41.4052354 C32.7704568,40.731805 33.6801472,40.3612976 34.6486855,40.3612976 C35.6159978,40.3612976 36.5269142,40.7330119 37.212247,41.4064423 C37.8963538,42.0798727 38.2727352,42.976573 38.2727352,43.928789 C38.2727352,44.8797982 37.8963538,45.7716711 37.215925,46.4463083 L31.3250053,52.2477058 C31.3237793,52.2477058 31.3225533,52.2501195 31.3201013,52.2501195 L31.3201013,52.2501195 Z" id="Path" fill="#FFC938"></path>
                <path d="M22.0074216,46.7347489 C21.3233148,47.410593 20.4123984,47.7798935 19.4450861,47.7798935 C18.4765478,47.7798935 17.5680834,47.4093861 16.8815246,46.7347489 C16.1974178,46.0613185 15.8210365,45.1658251 15.8210365,44.2111953 C15.8210365,43.2589792 16.1986438,42.3646927 16.8815246,41.6888486 L20.0225311,38.5980687 C20.7078639,37.9234314 21.6175543,37.552924 22.5848666,37.552924 C23.5546309,37.552924 24.4643213,37.9246383 25.1484281,38.5980687 C25.8337609,39.2727059 26.2089163,40.1669925 26.2089163,41.1204154 C26.2089163,42.0726315 25.831309,42.9681249 25.1484281,43.6427621 L22.0074216,46.7347489 L22.0074216,46.7347489 Z" id="Path" fill="#FFC938"></path>
            </g>
        </g>
    </g>
</svg>