<?xml version="1.0" encoding="UTF-8" standalone="no"?>
<svg width="365px" height="96px" viewBox="0 0 365 96" version="1.1" xmlns="http://www.w3.org/2000/svg" xmlns:xlink="http://www.w3.org/1999/xlink">
    <!-- Generator: Sketch 40.3 (33839) - http://www.bohemiancoding.com/sketch -->
    <title>Artboard 2</title>
    <desc>Created with Sketch.</desc>
    <defs></defs>
    <g id="Page-1" stroke="none" stroke-width="1" fill="none" fill-rule="evenodd">
        <g id="Artboard-2">
            <path d="M309.428658,48.3741189 C309.520185,47.9482218 309.605953,47.5120869 309.685963,47.065713 C309.949264,45.5967741 310.164058,44.1417149 310.330353,42.7004917 C310.496648,41.2592686 310.614439,39.9012133 310.683728,38.6262852 C310.753018,37.3513571 310.80152,36.2981713 310.829236,35.4666965 L311.785427,35.4666965 L318.270899,35.4666965 C316.885107,39.1529018 315.824992,42.5272534 315.090523,45.5898525 C314.356054,48.6524516 313.988824,51.5556412 313.988824,54.2995083 C313.988824,56.1841847 314.25905,57.7431767 314.799508,58.9765311 C315.339967,60.2098855 316.032852,61.2007115 316.878185,61.9490389 C317.723518,62.6973663 318.665842,63.2239591 319.705186,63.5288333 C320.744529,63.8337074 321.763071,63.9861422 322.76084,63.9861422 C324.590085,63.9861422 326.183721,63.5565532 327.541797,62.6973625 C328.333847,62.1962696 329.0599,61.6197642 329.719964,60.9678398 C330.018524,61.1979008 330.359522,61.4279615 330.742959,61.6580241 C331.435855,62.0737616 332.204958,62.4548485 333.050291,62.8012964 C333.895623,63.1477442 334.782517,63.4318272 335.710997,63.6535539 C336.639477,63.8752805 337.547157,63.9861422 338.434063,63.9861422 C340.180161,63.9861422 341.75301,63.7020592 343.15266,63.1338847 C344.552309,62.5657102 345.764859,61.8381806 346.790344,60.951274 C349.451064,60.7572632 351.682155,60.29303 353.483684,59.5585606 C355.285212,58.8240911 356.851133,57.9164113 358.181493,56.835494 C358.680378,56.4197565 359.165398,55.9278079 359.636567,55.3596334 C360.107736,54.7914589 360.530396,54.2025064 360.90456,53.5927582 C361.278723,52.9830099 361.576664,52.3871285 361.798391,51.8050961 C362.020117,51.2230637 362.130979,50.7241863 362.130979,50.3084488 C362.130979,50.0035747 362.040904,49.657132 361.860751,49.2691104 C361.680598,48.8810888 361.445017,48.5069307 361.154001,48.1466249 C360.862985,47.7863192 360.5304,47.4883785 360.156236,47.2527939 C359.782072,47.0172094 359.414843,46.8994189 359.054537,46.8994189 C358.666516,46.8994189 358.320073,47.0795691 358.015199,47.4398748 C357.710325,47.8001806 357.405455,48.3822043 357.100581,49.1859633 C356.851139,49.8788591 356.53934,50.544029 356.165177,51.1814931 C355.791013,51.8189571 355.319851,52.4079097 354.751676,52.9483684 C354.183502,53.488827 353.518332,53.9669179 352.756147,54.3826553 C351.993961,54.7983928 351.113997,55.1032623 350.116227,55.2972731 C350.254806,54.826104 350.358739,54.3272266 350.428029,53.8006258 C350.497318,53.2740251 350.531962,52.7612899 350.531962,52.262405 C350.531962,50.2391495 350.240951,48.4792207 349.658918,46.9825659 C349.076886,45.4859112 348.335498,44.0724251 347.434734,42.7420653 C346.53397,41.4117055 345.543144,40.0675079 344.462226,38.7094323 C343.381309,37.3513566 342.341981,35.7854358 341.344211,34.0116227 C341.371927,33.9007594 341.489717,33.6513207 341.697586,33.2632991 C341.905455,32.8752775 342.134107,32.4110443 342.383549,31.8705856 C342.632992,31.3301269 342.861644,30.7481033 343.069513,30.1244971 C343.277381,29.5008909 343.381314,28.8703653 343.381314,28.2329012 C343.381314,27.0688364 343.124947,26.14037 342.612204,25.4474743 C342.099461,24.7545786 341.330358,24.4081359 340.304873,24.4081359 C339.72284,24.4081359 339.023026,24.6229304 338.205409,25.0525257 C337.387792,25.4821211 336.597903,26.0295005 335.835717,26.6946804 C335.073532,27.3598603 334.42222,28.0873899 333.881761,28.877291 C333.341303,29.6671921 333.071077,30.4224372 333.071077,31.1430487 C333.071077,31.8636603 333.195797,32.5496168 333.445239,33.2009388 C333.694682,33.8522607 334.027267,34.4966441 334.443004,35.1341082 C333.666961,37.4068062 332.884,39.6863989 332.094099,41.9729549 C331.331864,44.1794263 330.743843,46.1987579 330.330021,48.0310057 C330.190137,48.3545448 330.078342,48.7395298 329.994636,49.1859633 C329.81557,50.0557096 329.59519,50.9785659 329.33349,51.954556 C329.237842,51.9380631 329.153352,51.9298167 329.080018,51.9298167 C328.608849,51.9298167 328.151544,52.1861843 327.708091,52.6989271 C327.264638,53.21167 326.966697,53.869911 326.81426,54.6736701 C326.685662,55.3517356 326.719794,56.1037605 326.91666,56.9297613 C326.745162,57.1174022 326.565522,57.2938473 326.377738,57.459097 C325.684842,58.0688452 324.85338,58.3737148 323.883326,58.3737148 C323.301293,58.3737148 322.795487,58.2489954 322.365892,57.999553 C321.936296,57.7501105 321.582925,57.4105967 321.305767,56.9810013 C321.028608,56.551406 320.820743,56.0594574 320.682164,55.5051408 C320.543584,54.9508242 320.474296,54.3826583 320.474296,53.8006258 C320.474296,52.3871185 320.5713,50.9389882 320.765311,49.4561913 C320.959321,47.9733945 321.194903,46.5391218 321.472061,45.1533304 C321.749219,43.7675389 322.054089,42.4441279 322.386679,41.1830577 C322.719269,39.9219874 323.024138,38.806442 323.301296,37.836388 C323.578455,36.866334 323.814036,36.062587 324.008046,35.4251229 C324.202057,34.7876589 324.299061,34.3857854 324.299061,34.2194904 C324.382209,33.7206055 324.264418,33.1940126 323.945686,32.639696 C323.626954,32.0853794 323.23201,31.5657154 322.76084,31.0806884 C322.289671,30.5956614 321.81158,30.2007168 321.326553,29.8958426 C320.841526,29.5909685 320.474297,29.4385338 320.224855,29.4385338 L315.776486,29.4385338 L315.11131,29.4385338 C314.889583,29.4385338 314.612429,29.424676 314.279839,29.3969602 C313.947249,29.3692444 313.538447,29.3346001 313.05342,29.2930264 C312.568393,29.2514526 311.97944,29.189093 311.286544,29.1059455 C311.037102,28.2467548 310.718375,27.526154 310.330353,26.9441216 C309.942332,26.3620892 309.505814,25.8909271 309.020787,25.5306214 C308.53576,25.1703156 308.023025,24.9208769 307.482566,24.7822977 C306.942107,24.6437186 306.422443,24.57443 305.923558,24.57443 C305.369242,24.57443 304.828791,24.6645051 304.30219,24.844658 C303.77559,25.0248109 303.318285,25.2881073 302.930264,25.6345552 C302.542242,25.9810031 302.230444,26.3967343 301.994859,26.8817613 C301.759275,27.3667883 301.641484,27.90031 301.641484,28.4823424 C301.641484,29.7295547 301.987927,30.803527 302.680823,31.7042915 C303.373718,32.6050559 304.246754,33.3464432 305.299955,33.9284756 C305.272239,35.009393 305.230666,36.2358 305.175235,37.6077336 C305.119803,38.9796671 305.043586,40.3515801 304.94658,41.7235136 C304.849575,43.0954472 304.717927,44.3980716 304.551632,45.631426 C304.459682,46.3133887 304.359259,46.938149 304.250362,47.5057124 C304.239398,47.5522414 304.228958,47.5995848 304.219043,47.6477425 C304.171664,47.8951701 304.119784,48.142097 304.063406,48.3885234 C304.032709,48.5196157 304.001441,48.6468505 303.969602,48.770228 C303.953231,48.8310336 303.938834,48.8916418 303.92641,48.9520526 C303.704955,49.8121904 303.428339,50.6661962 303.096558,51.5140814 C302.597673,52.7890095 301.939432,53.9391992 301.121815,54.9646848 C300.304198,55.9901705 299.299514,56.8147041 298.107734,57.4383102 C296.915953,58.0619164 295.488609,58.3737148 293.825659,58.3737148 C292.717026,58.3737148 291.740058,58.2351377 290.894725,57.9579794 C290.049392,57.6808211 289.308005,57.3066631 288.670541,56.835494 C288.033077,56.3643249 287.485697,55.8030877 287.028386,55.1517658 C286.571075,54.5004438 286.203846,53.8144873 285.926688,53.0938757 C287.977659,52.4841275 289.78609,51.5903054 291.352034,50.4123827 C292.917978,49.2344599 294.23446,47.9041201 295.30152,46.4213232 C296.368579,44.9385263 297.172326,43.3656766 297.712785,41.7027269 C298.253244,40.0397771 298.523469,38.4184254 298.523469,36.8386232 C298.523469,35.563695 298.350248,34.3996476 298.0038,33.3464461 C297.657352,32.2932446 297.151546,31.3855648 296.486366,30.6233795 C295.821186,29.8611942 295.01051,29.2722417 294.054314,28.8565042 C293.098118,28.4407668 292.024145,28.2329012 290.832365,28.2329012 C289.197131,28.2329012 287.603495,28.7109921 286.051408,29.6671882 C284.499322,30.6233843 283.113551,31.9467953 281.894055,33.6374609 C280.674558,35.3281265 279.690661,37.3305651 278.942333,39.6448368 C278.194006,41.9591086 277.819848,44.4604246 277.819848,47.1488601 C277.819848,48.5100392 277.930465,49.7968585 278.151702,51.0093274 C278.055033,51.3972072 277.951344,51.7941125 277.840635,52.2000447 C277.549619,53.2671041 277.17546,54.2579302 276.718149,55.1725525 C276.260838,56.0871749 275.720388,56.8493488 275.096781,57.459097 C274.473175,58.0688452 273.731788,58.3737148 272.872597,58.3737148 C271.985691,58.3737148 271.278948,58.0688452 270.752347,57.459097 C270.225746,56.8493488 269.96245,55.8515939 269.96245,54.4658024 L269.96245,27.4845776 C272.235148,27.4845776 274.681033,27.4776487 277.300179,27.4637908 C279.919325,27.4499329 282.933376,27.4014309 286.342423,27.3182834 C286.702729,27.3182834 287.028385,27.1104178 287.319401,26.6946804 C287.610417,26.2789429 287.839069,25.7869943 288.005364,25.2188198 C288.171659,24.6506453 288.282521,24.0616928 288.337953,23.4519446 C288.393384,22.8421963 288.386455,22.3294612 288.317166,21.9137237 C288.247876,21.4979863 288.095441,21.2346899 287.859857,21.1238266 C287.624272,21.0129632 287.312474,21.165398 286.924452,21.5811354 C284.01429,21.7197146 281.111101,21.8167185 278.214797,21.8721502 C275.318492,21.9275819 272.567738,21.9552973 269.96245,21.9552973 L269.96245,7.03039785 C269.96245,6.00491217 269.553647,5.12494779 268.73603,4.39047832 C267.918413,3.65600884 266.802868,3.28877962 265.389361,3.28877962 C265.084487,3.28877962 264.772688,3.30956618 264.453956,3.35113992 C264.135224,3.39271366 263.837283,3.45507334 263.560125,3.53822083 C263.282967,3.62136832 263.061244,3.71837227 262.894949,3.82923558 C262.728654,3.9400989 262.645507,4.07867597 262.645507,4.24497094 C262.645507,4.38355009 262.694009,4.5151983 262.791015,4.63991954 C262.88802,4.76464077 262.985024,4.93093325 263.08203,5.13880197 C263.179035,5.34667069 263.276039,5.63075367 263.373044,5.99105945 C263.47005,6.35136523 263.518552,6.83638497 263.518552,7.44613321 L263.518552,21.8721502 C262.354487,21.8444344 261.301301,21.8236478 260.358963,21.8097899 C259.416625,21.795932 258.612878,21.7612877 257.947698,21.7058561 C257.171655,21.6781402 256.464912,21.6365671 255.827447,21.5811354 C255.217699,21.5811354 254.836612,21.8790761 254.684175,22.4749665 C254.531738,23.0708568 254.559454,23.7290979 254.767322,24.4497094 C254.975191,25.170321 255.335491,25.8285621 255.848234,26.4244524 C256.360977,27.0203427 256.94993,27.3182834 257.61511,27.3182834 C258.058563,27.3459992 258.571298,27.3737147 259.15333,27.4014305 C259.652215,27.4291463 260.268883,27.4499329 261.003353,27.4637908 C261.737822,27.4776487 262.576213,27.4845776 263.518552,27.4845776 L263.518552,47.3939185 C263.500605,47.449089 263.486747,47.5059814 263.476978,47.5645954 C263.338399,48.3960703 263.116676,49.1859596 262.811802,49.934287 C262.506927,50.6826144 262.105054,51.3339266 261.606169,51.8882432 C261.107284,52.4425598 260.504474,52.8860064 259.79772,53.2185963 C259.090967,53.5511863 258.280291,53.7174788 257.365668,53.7174788 C257.060794,53.7174788 256.776711,53.7105499 256.513411,53.696692 C256.25011,53.6828341 255.966027,53.6204744 255.661153,53.5096111 C256.076891,52.068388 256.38176,50.5717556 256.575771,49.0196692 C256.769782,47.4675828 256.866786,45.9016619 256.866786,44.3218596 C256.866786,42.2708883 256.679707,40.3723824 256.305543,38.6262852 C255.931379,36.880188 255.411715,35.3696979 254.746536,34.0947698 C254.081356,32.8198416 253.305324,31.8220868 252.418418,31.1014752 C251.531511,30.3808636 250.589187,30.0205633 249.591417,30.0205633 C248.455068,30.0205633 247.457313,30.2907885 246.598122,30.8312472 C245.738932,31.3717059 245.02526,32.0992355 244.457085,33.0138578 C243.888911,33.9284802 243.459322,34.9885948 243.168306,36.1942333 C242.87729,37.3998719 242.731784,38.6678521 242.731784,39.9982119 C242.731784,43.0746689 243.251448,45.9362854 244.290791,48.5831471 C245.330135,51.2300088 246.847554,53.4125976 248.843093,55.130979 C248.288777,56.101033 247.616678,56.8839934 246.826777,57.4798838 C246.036876,58.0757741 245.032192,58.3737148 243.812696,58.3737148 C242.981221,58.3737148 242.19826,58.1519915 241.463791,57.7085382 C240.729321,57.265085 240.078009,56.5929862 239.509835,55.6922217 C238.94166,54.7914573 238.498213,53.6759119 238.179481,52.3455521 C237.860749,51.0151923 237.701386,49.4492714 237.701386,47.6477425 C237.701386,45.5413395 237.839963,43.7398376 238.117121,42.2431828 C238.394279,40.7465281 238.733793,39.4785479 239.135673,38.4392043 C239.537552,37.3998607 239.967141,36.533754 240.424452,35.8408583 C240.881764,35.1479626 241.276708,34.5382235 241.609298,34.0116227 C242.163615,33.6513169 242.489271,33.1385818 242.586276,32.4734019 C242.683282,31.808222 242.627851,31.1499809 242.419982,30.4986589 C242.212113,29.8473369 241.879528,29.279171 241.422217,28.7941439 C240.964906,28.3091169 240.4591,28.0666071 239.904783,28.0666071 C239.433614,28.0666071 238.719942,28.5239114 237.763746,29.4385338 C236.80755,30.3531561 235.844439,31.6765671 234.874385,33.4088064 C233.904331,35.1410458 233.052082,37.2474172 232.317613,39.7279839 C231.583143,42.2085506 231.215914,45.0147362 231.215914,48.1466249 C231.215914,49.1311338 231.267524,50.0920427 231.370744,51.0293579 C231.212868,51.3142379 231.057324,51.5866748 230.904113,51.8466696 C230.446801,52.6227129 229.906351,53.2809539 229.282745,53.8214126 C228.659139,54.3618713 227.890036,54.7845313 226.975414,55.0894055 C226.060791,55.3942796 224.896744,55.5882875 223.483236,55.671435 C224.120701,54.1193485 224.647293,52.255487 225.063031,50.0797944 C225.478768,47.9041018 225.686634,45.624509 225.686634,43.2409477 C225.686634,41.1345447 225.485697,39.1667503 225.083818,37.3375056 C224.681938,35.5082609 224.072199,33.9215534 223.254582,32.5773357 C222.436965,31.233118 221.411495,30.1730034 220.17814,29.3969602 C218.944786,28.620917 217.496656,28.2329012 215.833706,28.2329012 C214.032177,28.2329012 212.507829,28.6624901 211.260617,29.5216808 C210.013405,30.3808715 208.946361,31.4617727 208.059455,32.7644166 C208.004023,31.7943626 207.567505,30.9421136 206.749888,30.2076442 C205.932271,29.4731747 204.844441,29.1059455 203.486366,29.1059455 C203.181492,29.1059455 202.869693,29.126732 202.550961,29.1683058 C202.232229,29.2098795 201.934288,29.2722392 201.65713,29.3553867 C201.379972,29.4385342 201.158248,29.5355381 200.991954,29.6464014 C200.825659,29.7572647 200.742512,29.8819841 200.742512,30.0205633 C200.742512,30.1868582 200.791014,30.3323642 200.88802,30.4570854 C200.985025,30.5818066 201.082029,30.7480991 201.179034,30.9559678 C201.27604,31.1638365 201.373044,31.4479195 201.470049,31.8082253 C201.567055,32.1685311 201.615557,32.6535508 201.615557,33.2632991 L201.615557,48.0025733 C201.466649,48.3319164 201.341929,48.7263788 201.241395,49.1859633 C201.047384,50.1283015 200.804874,51.1329853 200.513858,52.2000447 C200.222842,53.2671041 199.848684,54.2579302 199.391372,55.1725525 C198.934061,56.0871749 198.393611,56.8493488 197.770004,57.459097 C197.146398,58.0688452 196.405011,58.3737148 195.54582,58.3737148 C195.046935,58.3737148 194.610418,58.2559243 194.236254,58.0203397 C193.86209,57.7847552 193.56415,57.4798856 193.342423,57.1057219 C193.120696,56.7315583 192.954404,56.3158271 192.84354,55.8585159 C192.732677,55.4012047 192.677246,54.9369715 192.677246,54.4658024 L192.677246,40.4139473 C192.677246,39.3884616 192.261515,38.5084972 191.43004,37.7740277 C190.598565,37.0395582 189.476091,36.672329 188.062584,36.672329 C187.452836,36.672329 186.933172,36.8039772 186.503576,37.0672776 C186.073981,37.330578 185.859186,37.6839495 185.859186,38.1274028 C185.859186,38.2659819 185.873044,38.4114878 185.90076,38.5639249 C185.928476,38.716362 185.96312,38.8895833 186.004694,39.0835941 C186.046268,39.2776049 186.087841,39.5131859 186.129414,39.7903442 C186.170988,40.0675025 186.191775,40.4139452 186.191775,40.8296826 L186.191775,53.96692 C185.720606,55.1587006 185.097009,56.1910998 184.320966,57.0641484 C183.544922,57.937197 182.574883,58.3737148 181.410818,58.3737148 C179.914163,58.3737148 178.736258,57.7709046 177.877068,56.565266 C177.017877,55.3596274 176.588288,53.6343429 176.588288,51.3893608 C176.588288,48.3129037 177.017877,45.6591529 177.877068,43.4280286 C178.736258,41.1969044 179.837946,39.3538294 181.182164,37.8987483 C182.526381,36.4436673 184.029943,35.3627662 185.692892,34.6560125 C187.355842,33.9492589 188.991051,33.5958873 190.59857,33.5958873 C191.042023,33.5958873 191.471612,33.6236028 191.887349,33.6790344 C192.303087,33.7344661 192.70496,33.7621815 193.092982,33.7621815 C193.508719,33.7621815 193.792802,33.6166756 193.945239,33.3256594 C194.097676,33.0346432 194.173894,32.5288369 194.173894,31.8082253 C194.173894,30.6995921 193.813593,29.8265566 193.092982,29.1890925 C192.37237,28.5516285 191.430046,28.2329012 190.265981,28.2329012 C187.660693,28.2329012 185.14552,28.7594941 182.720384,29.8126956 C180.295249,30.8658971 178.140376,32.383316 176.2557,34.3649978 C174.371023,36.3466796 172.860533,38.7509917 171.724184,41.5780063 C170.587835,44.4050208 170.019669,47.5922934 170.019669,51.1399195 C170.019669,52.9414484 170.234464,54.6251598 170.664059,56.1911042 C171.093654,57.7570485 171.738038,59.1151038 172.597228,60.2653107 C173.456419,61.4155176 174.516534,62.3231974 175.777604,62.9883773 C177.038674,63.6535572 178.500662,63.9861422 180.163612,63.9861422 C181.77113,63.9861422 183.177687,63.6466283 184.383326,62.9675905 C185.588964,62.2885527 186.621364,61.4640192 187.480554,60.4939651 C188.118018,61.5471666 188.991054,62.3924868 190.099687,63.0299508 C191.20832,63.6674149 192.510945,63.9861422 194.007599,63.9861422 C195.836844,63.9861422 197.437409,63.5565532 198.809343,62.6973625 C199.863354,62.0372748 200.798753,61.246326 201.615557,60.3245015 L201.615557,92.7134555 C201.615557,93.3509196 201.726418,93.8913702 201.948145,94.3348234 C202.169871,94.7782767 202.710322,95 203.569513,95 C203.98525,95 204.456412,94.951498 204.983013,94.8544926 C205.509614,94.7574872 206.001562,94.5704082 206.458873,94.2932499 C206.916185,94.0160916 207.297272,93.6350047 207.602146,93.1499776 C207.90702,92.6649506 208.059455,92.034425 208.059455,91.2583818 L208.059455,63.5704068 C208.41976,63.9584284 208.932496,64.2702268 209.597675,64.5058114 C210.262855,64.7413959 211.122033,64.8591864 212.175235,64.8591864 C213.671889,64.8591864 215.18238,64.5196726 216.70675,63.8406348 C218.231121,63.161597 219.575318,62.1984863 220.739383,60.951274 C223.566398,60.951274 226.026141,60.5701871 228.118686,59.8080018 C230.064438,59.099284 231.69864,58.2408055 233.021334,57.2325435 C233.365857,57.954397 233.761815,58.6327297 234.209209,59.2675458 C235.234694,60.7226269 236.523461,61.8728165 238.075548,62.7181493 C239.627634,63.5634821 241.484567,63.9861422 243.646401,63.9861422 C246.085394,63.9861422 248.136335,63.424905 249.799285,62.3024139 C251.462235,61.1799229 252.82029,59.7040771 253.873491,57.8748324 C254.510955,58.096559 255.169196,58.2489938 255.848234,58.3321413 C256.527272,58.4152887 257.254802,58.4568619 258.030845,58.4568619 C259.472068,58.4568619 260.774692,58.2351386 261.938757,57.7916853 C262.559113,57.5553592 263.136172,57.2718068 263.669938,56.9410256 C263.766904,57.6447716 263.910451,58.2886271 264.100581,58.8725972 C264.488603,60.0643779 265.029053,61.0413462 265.721949,61.8035315 C266.414845,62.5657168 267.239378,63.1200251 268.195574,63.466473 C269.151771,63.8129208 270.198027,63.9861422 271.334376,63.9861422 C273.163621,63.9861422 274.757257,63.5565532 276.115333,62.6973625 C277.473409,61.8381718 278.644385,60.7572707 279.628297,59.4546267 C280.074005,58.8645341 280.482743,58.2488524 280.854511,57.6075776 C281.340278,58.3152961 281.873873,58.9656225 282.455297,59.5585606 C283.854947,60.9859258 285.462441,62.0806846 287.277827,62.8428699 C289.093214,63.6050552 290.970934,63.9861422 292.911042,63.9861422 C294.989729,63.9861422 296.832804,63.7228457 298.440322,63.196245 C300.04784,62.6696442 301.447468,61.9767589 302.639249,61.1175682 C303.83103,60.2583775 304.835713,59.2814091 305.65333,58.1866339 C306.470947,57.0918586 307.143046,55.9763132 307.669647,54.8399642 C308.196248,53.7036152 308.591192,52.581141 308.854493,51.4725078 C309.117793,50.3638747 309.304872,49.3799775 309.415735,48.5207868 C309.421218,48.4714456 309.425525,48.4225563 309.428658,48.3741189 Z M333.917649,53.8930405 C334.261799,54.0529093 334.617069,54.2161139 334.98346,54.3826553 C335.898082,54.7983928 336.812691,55.1933374 337.727313,55.5675011 C338.641936,55.9416648 339.535758,56.2465344 340.408806,56.4821189 C341.281855,56.7177035 342.078673,56.835494 342.799285,56.835494 C343.270454,56.2811774 343.700043,55.5467189 344.088064,54.6320966 C344.476086,53.7174742 344.670094,52.7197193 344.670094,51.638802 C344.670094,50.3084422 344.489944,49.0751063 344.129638,47.9387573 C343.769332,46.8024083 343.29817,45.7492226 342.716138,44.7791685 C342.134105,43.8091145 341.475864,42.9014347 340.741395,42.0561019 C340.006925,41.2107691 339.265538,40.413951 338.517211,39.6656236 C337.852031,41.3008575 337.270007,42.9152804 336.771122,44.5089405 C336.272237,46.1026007 335.745644,47.9110315 335.191328,49.934287 C335.126912,50.1919493 335.046122,50.4209553 334.948958,50.6213054 C334.944244,50.6555982 334.941886,50.6898911 334.941886,50.7241842 C334.661832,51.7443812 334.320422,52.8006611 333.917649,53.8930405 Z M138.506929,17.0080465 C138.506929,16.2042874 138.444569,15.6222638 138.319848,15.261958 C138.195127,14.9016522 138.132767,14.5690672 138.132767,14.2641931 C138.132767,13.8484557 138.35449,13.502013 138.797944,13.2248547 C139.241397,12.9476964 139.76799,12.8091194 140.377738,12.8091194 C141.791245,12.8091194 142.934506,13.1763486 143.807555,13.9108181 C144.680603,14.6452875 145.117121,15.5391096 145.117121,16.5923111 L145.117121,44.4050067 C146.087175,44.2941434 147.188863,44.0169893 148.422217,43.573536 C149.655572,43.1300827 150.923552,42.5134148 152.226196,41.7235136 C153.52884,40.9336125 154.79682,39.9566442 156.030174,38.7925793 C157.263529,37.6285145 158.365216,36.2704593 159.33527,34.7183728 C160.305324,33.1662864 161.088285,31.4132865 161.684175,29.4593205 C162.280066,27.5053546 162.578006,25.3366235 162.578006,22.9530621 C162.578006,21.345544 162.321639,19.6826192 161.808896,17.9642378 C161.296153,16.2458564 160.485477,14.6799355 159.376844,13.2664283 C158.268211,11.852921 156.833938,10.6888736 155.073983,9.77425123 C153.314028,8.85962886 151.18687,8.40232454 148.692445,8.40232454 C145.283398,8.40232454 142.359422,8.9289174 139.920429,9.98211891 C137.481436,11.0353204 135.492855,12.4488065 133.954627,14.2226196 C132.416398,15.9964327 131.286995,18.0543021 130.566384,20.3962897 C129.845772,22.7382772 129.485472,25.2118779 129.485472,27.8171658 C129.485472,29.7018422 129.644835,31.2885497 129.963567,32.5773357 C130.282299,33.8661218 130.635671,34.9193075 131.023692,35.7369245 C131.411714,36.5545414 131.772014,37.1573517 132.104604,37.5453733 C132.437194,37.9333949 132.631202,38.1551182 132.686634,38.2105498 C133.157803,38.0719707 133.490388,38.1274015 133.684399,38.376844 C133.87841,38.6262865 133.975414,38.9588714 133.975414,39.3746089 C133.975414,39.7626305 133.843765,40.3446541 133.580465,41.1206974 C133.317165,41.8967406 132.963793,42.6242702 132.52034,43.303308 C132.076886,43.9823458 131.564151,44.495081 130.982119,44.8415288 C130.400086,45.1879767 129.804205,45.125617 129.194457,44.6544479 C128.861867,44.3495738 128.349132,43.7952655 127.656236,42.9915065 C126.96334,42.1877474 126.277384,41.1137752 125.598346,39.7695574 C124.919308,38.4253397 124.316498,36.803988 123.789897,34.9054537 C123.263296,33.0069194 123,30.8104729 123,28.3160483 C123,24.3249689 123.623597,20.7150363 124.870809,17.4861422 C126.118021,14.257248 127.871021,11.4926356 130.129861,9.19222173 C132.388702,6.8918079 135.084025,5.11802143 138.215914,3.87080912 C141.347803,2.6235968 144.81223,2 148.609298,2 C151.713471,2 154.533514,2.51273515 157.069513,3.53822083 C159.605511,4.56370651 161.767313,5.99797916 163.554984,7.84108181 C165.342655,9.68418445 166.721497,11.880631 167.691551,14.4304873 C168.661605,16.9803435 169.146625,19.7657426 169.146625,22.786768 C169.146625,26.5006891 168.481455,29.9304715 167.151095,33.0762181 C165.820735,36.2219648 164.046949,39.0142927 161.829683,41.4532857 C159.612416,43.8922786 157.055669,45.9155038 154.159365,47.5230219 C151.263061,49.13054 148.24901,50.2252988 145.117121,50.8073312 L145.117121,62.032186 C145.117121,62.7527975 144.88154,63.2586038 144.410371,63.54962 C143.939202,63.8406362 143.384894,63.9861422 142.74743,63.9861422 C142.248545,63.9861422 141.749667,63.9168536 141.250782,63.7782745 C140.751897,63.6396953 140.301522,63.4595451 139.899642,63.2378185 C139.497763,63.0160919 139.165178,62.7597243 138.901878,62.4687081 C138.638577,62.1776919 138.506929,61.8658935 138.506929,61.5333035 L138.506929,17.0080465 Z M213.671882,33.9284756 C213.062134,33.9284756 212.473181,34.1086258 211.905007,34.4689316 C211.336832,34.8292374 210.80331,35.321186 210.304426,35.9447921 C209.805541,36.5683983 209.369023,37.3236433 208.994859,38.2105498 C208.620695,39.0974564 208.308897,40.0536381 208.059455,41.0791238 L208.059455,59.4962003 C208.669203,58.6092937 209.666958,57.9302661 211.052749,57.459097 C212.438541,56.9879279 214.115323,56.6692007 216.083147,56.5029057 C216.582032,55.7545783 217.01855,54.8607562 217.392713,53.8214126 C217.766877,52.782069 218.078676,51.7080967 218.328118,50.5994636 C218.57756,49.4908304 218.76464,48.4099293 218.889361,47.3567278 C219.014082,46.3035262 219.076442,45.3750599 219.076442,44.5713008 C219.076442,42.6311928 218.930936,40.9821257 218.63992,39.6240501 C218.348903,38.2659744 217.953959,37.1642867 217.455074,36.318954 C216.956189,35.4736212 216.381094,34.8638821 215.729772,34.4897184 C215.07845,34.1155547 214.392494,33.9284756 213.671882,33.9284756 L213.671882,33.9284756 Z M247.221726,39.6656236 C247.221726,41.5780158 247.519666,43.3933754 248.115557,45.1117568 C248.711447,46.8301382 249.494407,48.3267706 250.464461,49.6016987 C250.630756,48.2436231 250.713903,46.9409986 250.713903,45.6937863 C250.713903,44.2525632 250.693116,42.9152945 250.651542,41.6819401 C250.609969,40.4485857 250.512965,39.3884711 250.360527,38.5015646 C250.20809,37.6146581 250.000225,36.9148439 249.736924,36.402101 C249.473624,35.8893582 249.120253,35.6329906 248.676799,35.6329906 C247.706745,35.6329906 247.221726,36.9771882 247.221726,39.6656236 L247.221726,39.6656236 Z M284.804202,46.8994189 C284.804202,47.1488613 284.81806,47.3983 284.845776,47.6477425 C284.873491,47.897185 284.887349,48.1604814 284.887349,48.4376397 C285.940551,47.9387548 286.896732,47.3013003 287.755923,46.525257 C288.615114,45.7492138 289.349572,44.8623206 289.959321,43.8645507 C290.569069,42.8667809 291.040231,41.7789509 291.372821,40.6010282 C291.705411,39.4231054 291.871703,38.1966984 291.871703,36.9217702 C291.871703,35.979432 291.71234,35.2449736 291.393608,34.7183728 C291.074875,34.1917721 290.638358,33.9284756 290.084041,33.9284756 C289.391145,33.9284756 288.774477,34.1640567 288.234019,34.6352257 C287.69356,35.1063948 287.222398,35.7230628 286.820519,36.4852481 C286.418639,37.2474334 286.086054,38.1066112 285.822754,39.0628073 C285.559453,40.0190034 285.344659,40.9821141 285.178364,41.9521681 C285.012069,42.9222221 284.901207,43.8437596 284.845776,44.7168082 C284.790344,45.5898568 284.776486,46.3173865 284.804202,46.8994189 L284.804202,46.8994189 Z" id="Papoters-Copy-3" fill="#30485F"></path>
            <g id="Group-2-Copy-2" transform="translate(2.000000, 9.000000)">
                <path d="M48.5809251,63.1143135 C48.8114127,63.8854999 49.2809699,64.5951362 50.0300546,65.2806352 C47.4333911,65.7090721 43.6842897,65.5376973 40.662205,62.2839907 C40.8154547,62.1584768 40.9674785,62.0245149 41.1109202,61.8833117 L48.1763458,54.9281518 C48.2633917,54.8424644 48.3418555,54.7507427 48.4227714,54.659021 C50.8907051,56.5706943 50.342684,57.5277379 49.5004235,58.986837 C48.8665826,60.0814631 48.079492,61.4476337 48.5809251,63.1143135 L48.5809251,63.1143135 Z" id="Path" fill="#FFC938"></path>
                <path d="M88.9898144,46.3256219 C89.6726952,47.0002591 90.0490765,47.8957525 90.0490765,48.8491755 C90.0490765,49.8001847 89.6714692,50.6956781 88.9898144,51.3715222 C88.3032556,52.0473663 87.3947912,52.4142531 86.4262529,52.4142531 C85.4589406,52.4142531 84.5480242,52.0437457 83.8626914,51.3715222 L67.487038,35.2526403 C66.8446151,34.6202434 65.801291,34.6202434 65.1576421,35.2526403 C64.5139932,35.8838305 64.5139932,36.912079 65.1576421,37.5456828 L80.05842,52.2139136 C80.060872,52.2187411 80.063324,52.2211548 80.065776,52.2235685 C80.7523348,52.8982058 81.1287161,53.7936992 81.1287161,54.7459153 C81.1287161,55.6993382 80.7498828,56.5948316 80.065776,57.2694689 C79.3804432,57.9428992 78.4707528,58.3134066 77.5034405,58.3134066 C76.5361282,58.3134066 75.6264378,57.9416924 74.941105,57.2694689 L72.1985478,54.5709199 C72.1960958,54.5685062 72.1936438,54.5636787 72.1911918,54.5636787 C72.1911918,54.561265 72.1887398,54.561265 72.1862878,54.5588513 L62.4310229,44.9558307 C61.7886,44.3234337 60.7452758,44.3234337 60.101627,44.9558307 C59.4592041,45.5870208 59.4592041,46.6152693 60.101627,47.2488732 L69.8691519,56.8663761 C70.5495807,57.5422202 70.922284,58.4328862 70.922284,59.3814817 C70.922284,60.3349046 70.5434507,61.230398 69.8617959,61.9050353 C69.1764631,62.5808794 68.2667727,62.9489731 67.2994604,62.9489731 L67.2970084,62.9489731 C66.3296961,62.9489731 65.4212316,62.5772588 64.7346728,61.9050353 L58.7444473,56.0082955 C58.1020245,55.3758985 57.0574743,55.3758985 56.4138254,56.0082955 C55.7714025,56.6418993 55.7714025,57.6701479 56.4138254,58.3025448 L61.9062958,63.7080908 C60.7857338,64.4551399 59.2238125,64.9077141 57.5871054,64.9077141 C56.5020973,64.9077141 55.4416091,64.7146158 54.5147547,64.3537633 C52.1878108,63.1493126 51.8016215,62.3950223 51.7390956,62.192269 C51.6434678,61.8724499 51.9242213,61.3510845 52.3643545,60.5871393 C53.7583141,58.1734103 54.7942822,55.3215896 49.9883707,51.7613394 C50.1232304,51.2266985 50.2016943,50.6739545 50.2016943,50.1079351 C50.2016943,48.2867766 49.4820335,46.5778565 48.1751198,45.291339 C46.8694321,44.0048215 45.1309672,43.2951852 43.2821624,43.2951852 C42.6887794,43.2951852 42.1076565,43.3760451 41.5473754,43.519662 C41.4480696,41.8529821 40.7492508,40.3021613 39.540417,39.1133998 C38.2347292,37.8280891 36.4962643,37.1184528 34.6474595,37.1184528 C32.7986548,37.1184528 31.0601898,37.8280891 29.7532761,39.1133998 L29.3131429,39.5466641 C29.0213554,38.3289379 28.3997745,37.2113814 27.4790501,36.3038193 C26.1733624,35.0173018 24.4348974,34.3100792 22.5848666,34.3100792 C20.7360619,34.3100792 18.9988229,35.0173018 17.6919092,36.3038193 L16.9281125,37.0556959 C16.8888806,37.0158693 16.8533267,36.9760428 16.8091907,36.9374231 L0.180981858,23.3698528 L15.1773876,2.38368653 C16.8386147,3.05711691 19.8888974,4.11553705 23.1868316,4.38949528 C25.5554594,4.578973 28.110439,3.62555007 30.8113122,2.60937019 C34.0197486,1.40009199 37.6523803,0.0254733594 41.5866074,0.358567953 C44.4456344,0.596320253 47.1293437,1.48215877 49.5997293,2.97625699 C46.3961969,5.49377627 44.098677,8.49162761 42.6470955,10.7593259 C41.8587789,11.9915346 34.9907389,22.9667601 36.7978598,28.5074748 C37.228185,29.824164 38.1121295,30.7836212 39.3552913,31.2832631 C40.2662077,31.6501499 41.1967401,31.8348002 42.1211424,31.8348002 C46.4673048,31.8348002 49.7578831,27.8931808 52.9368955,24.0819028 C55.2650654,21.2904253 57.6667952,18.4144673 60.0096771,17.7977595 L74.9864669,32.5432296 L76.5729081,34.1037054 L84.8545236,42.2572817 L84.8569756,42.2572817 L88.9898144,46.3256219 L88.9898144,46.3256219 Z" id="Path" fill="#42D3AA"></path>
                <path d="M77.3183148,30.2477734 C77.3158628,30.2465665 61.7456901,14.9193878 61.7456901,14.9193878 C61.4355126,14.6140511 61.0137694,14.4438832 60.5809921,14.4438832 C56.4935153,14.7081865 53.3905147,18.4265359 50.389272,22.022992 C47.6945287,25.2513545 44.9078356,28.5895416 42.1199164,28.5895416 C41.6184833,28.5895416 41.1219542,28.488165 40.5996791,28.2781706 C40.3520275,28.1780008 40.099472,28.016281 39.9364143,27.5142254 C39.0340798,24.748092 42.0978485,17.7072447 45.4374666,12.4875559 C48.1187239,8.2985293 54.0329376,1.26854376 63.523387,1.26854376 C67.4686481,1.26854376 70.9725499,2.93643046 74.0681945,4.40759825 C76.6722139,5.64463433 79.1315656,6.814086 81.5124535,6.814086 C84.8226477,6.814086 87.9526202,6.01272799 89.6641132,5.48050076 L102.809262,27.6373255 L86.2104772,39.0023683 L77.3183148,30.2477734 Z" id="Path" fill="#FFC938"></path>
                <path d="M36.2167368,60.6305864 C35.2494245,60.6305864 34.3397341,60.2588721 33.6544013,59.5878555 C32.2432777,58.1999614 32.2432777,55.9407111 33.6507233,54.5467826 L39.5416429,48.746592 C39.5453209,48.7417645 39.5489989,48.7369371 39.5526769,48.7345233 L40.7198269,47.5843815 C41.4039337,46.9109511 42.3136241,46.5416506 43.2833884,46.5416506 C44.2494747,46.5416506 45.1603911,46.9133648 45.8457239,47.5867952 C46.5298307,48.2602256 46.9062121,49.1569259 46.9062121,50.109142 C46.9062121,51.061358 46.5286047,51.9568515 45.8444979,52.6314887 L38.7802983,59.5878555 C38.0949655,60.2588721 37.1852751,60.6305864 36.2167368,60.6305864 L36.2167368,60.6305864 Z" id="Path" fill="#FFC938"></path>
                <path d="M31.3201013,52.2501195 L30.1468214,53.4075026 C29.4614886,54.0809329 28.5517982,54.4502335 27.5844859,54.4502335 C26.6159476,54.4502335 25.7062572,54.0785192 25.0209244,53.4075026 C24.3355916,52.7316585 23.9592102,51.836165 23.9592102,50.883949 C23.9592102,49.930526 24.3368176,49.0350326 25.0209244,48.3603953 L32.085124,41.4052354 C32.7704568,40.731805 33.6801472,40.3612976 34.6486855,40.3612976 C35.6159978,40.3612976 36.5269142,40.7330119 37.212247,41.4064423 C37.8963538,42.0798727 38.2727352,42.976573 38.2727352,43.928789 C38.2727352,44.8797982 37.8963538,45.7716711 37.215925,46.4463083 L31.3250053,52.2477058 C31.3237793,52.2477058 31.3225533,52.2501195 31.3201013,52.2501195 L31.3201013,52.2501195 Z" id="Path" fill="#FFC938"></path>
                <path d="M22.0074216,46.7347489 C21.3233148,47.410593 20.4123984,47.7798935 19.4450861,47.7798935 C18.4765478,47.7798935 17.5680834,47.4093861 16.8815246,46.7347489 C16.1974178,46.0613185 15.8210365,45.1658251 15.8210365,44.2111953 C15.8210365,43.2589792 16.1986438,42.3646927 16.8815246,41.6888486 L20.0225311,38.5980687 C20.7078639,37.9234314 21.6175543,37.552924 22.5848666,37.552924 C23.5546309,37.552924 24.4643213,37.9246383 25.1484281,38.5980687 C25.8337609,39.2727059 26.2089163,40.1669925 26.2089163,41.1204154 C26.2089163,42.0726315 25.831309,42.9681249 25.1484281,43.6427621 L22.0074216,46.7347489 L22.0074216,46.7347489 Z" id="Path" fill="#FFC938"></path>
            </g>
        </g>
    </g>
</svg>