<?xml version="1.0" encoding="UTF-8" standalone="no"?>
<svg width="100px" height="100px" viewBox="0 0 100 100" version="1.1" xmlns="http://www.w3.org/2000/svg" xmlns:xlink="http://www.w3.org/1999/xlink">
    <!-- Generator: Sketch 40.3 (33839) - http://www.bohemiancoding.com/sketch -->
    <title>papoters_favicon copy 12</title>
    <desc>Created with Sketch.</desc>
    <defs></defs>
    <g id="Page-1" stroke="none" stroke-width="1" fill="none" fill-rule="evenodd">
        <g id="papoters_favicon-copy-12">
            <rect id="Rectangle" x="0" y="0" width="100" height="100" rx="10"></rect>
            <g id="Group-Copy-10" transform="translate(49.383743, 49.408138) rotate(52.000000) translate(-49.383743, -49.408138) translate(6.383743, 3.408138)">
                <path d="M80.2768994,71.916532 C80.0719033,73.4391421 78.491778,75.5023239 77.0860903,76.084082 L71.65051,78.3326026 L55.7130169,65.7398574 L62.945178,10.0223655 L83.7796592,26.325749 C84.9828972,27.266601 85.9607669,29.6811544 85.7557708,31.2024775 L80.2768994,71.916532 Z" id="Path" fill="#FFC938"></path>
                <path d="M39.4648464,91.6473971 C39.0293888,91.8288747 38.4258599,91.9279795 37.7650339,91.9279795 C36.448475,91.9279795 35.0567932,91.5289862 34.3004722,90.9382186 L2.15555311,65.783618 C0.954861567,64.844053 -0.0230081095,62.4282125 0.18071474,60.9068895 L1.47690137,51.2795658 L17.1699271,44.7888448 L49.0652857,69.7490971 L63.9574259,81.5181141 L39.4648464,91.6473971 L39.4648464,91.6473971 Z" id="Path" fill="#30485F"></path>
                <path d="M8.85166851,16.0252849 L46.4729124,0.463256869 C46.90837,0.28306632 47.5106257,0.183961518 48.1714517,0.183961518 C49.4880106,0.183961518 50.8809656,0.581667801 51.6372866,1.17372246 L56.3369181,4.85089674 L54.1647232,21.6008953 L2.60119684,42.930308 L5.66085938,20.1915478 C5.8658555,18.6702248 7.44598085,16.6057559 8.85166851,16.0252849 L8.85166851,16.0252849 Z" id="Path" fill="#42D3AA"></path>
            </g>
        </g>
    </g>
</svg>