<?xml version="1.0" encoding="UTF-8" standalone="no"?>
<svg width="400px" height="100px" viewBox="0 0 400 100" version="1.1" xmlns="http://www.w3.org/2000/svg" xmlns:xlink="http://www.w3.org/1999/xlink">
    <!-- Generator: Sketch 40.3 (33839) - http://www.bohemiancoding.com/sketch -->
    <title>Artboard 2 Copy 4</title>
    <desc>Created with Sketch.</desc>
    <defs></defs>
    <g id="Page-1" stroke="none" stroke-width="1" fill="none" fill-rule="evenodd">
        <g id="Artboard-2-Copy-4">
            <g id="Group" transform="translate(-12.000000, -1.000000)">
                <g id="Group-2">
                    <g id="Group-Copy-10" transform="translate(52.486144, 51.671133) rotate(52.000000) translate(-52.486144, -51.671133) translate(16.986144, 13.671133)">
                        <path d="M65.8562677,58.9066463 C65.6880962,60.1538123 64.3918185,61.8437592 63.2386431,62.3202757 L58.7794895,64.1620332 L45.704946,53.847348 L51.6379497,8.20929378 L68.7298052,21.5633532 C69.7168982,22.3340027 70.5191072,24.3117572 70.3509358,25.557869 L65.8562677,58.9066463 Z" id="Path" fill="#FFC938"></path>
                        <path d="M32.375534,75.0681471 C32.0183003,75.216795 31.523187,75.2979714 30.9810692,75.2979714 C29.9010119,75.2979714 28.7593265,74.971157 28.138868,74.4872608 L1.76833788,53.8831922 C0.783333927,53.1135969 -0.0188750217,51.1347882 0.148251843,49.8886764 L1.21159652,42.0029604 L14.0855878,36.6864275 L40.2513875,57.1313059 L52.4683613,66.7712775 L32.375534,75.0681471 L32.375534,75.0681471 Z" id="Path" fill="#30485F"></path>
                        <path d="M7.26158901,13.1262696 L38.1246981,0.379452509 C38.4819318,0.231858894 38.9760006,0.150682406 39.5181184,0.150682406 C40.5981757,0.150682406 41.7409057,0.476442599 42.3613642,0.961393048 L46.216772,3.97335703 L44.4347818,17.6932378 L2.1339279,35.1641048 L4.64396449,16.5388449 C4.8121359,15.2927331 6.10841364,13.6017319 7.26158901,13.1262696 L7.26158901,13.1262696 Z" id="Path" fill="#42D3AA"></path>
                    </g>
                </g>
            </g>
            <path d="M138.149162,66.3208431 L129.321502,64.1695645 L129.321502,29.7491066 C129.667686,29.6996517 130.149865,29.6440158 130.768051,29.5821971 C131.386238,29.5203784 131.942598,29.4894696 132.437147,29.4894696 C135.602262,29.4894696 137.976063,30.404372 139.558621,32.2342044 C141.141179,34.0640367 141.932446,36.4254741 141.932446,39.3185874 C141.932446,42.1622457 141.091724,44.3753206 139.410257,45.9578783 C137.728789,47.540436 135.231353,48.35643 131.917873,48.405885 L130.582596,48.442976 L131.472781,53.1906253 C132.956428,53.2895352 134.081511,53.3389894 134.848063,53.3389894 C138.161543,53.3389894 141.172066,52.6528125 143.879724,51.2804383 C146.587381,49.908064 148.720093,48.0349867 150.277923,45.6611502 C151.835753,43.2873136 152.614657,40.6538782 152.614657,37.7607649 C152.614657,32.6669073 150.957941,29.1000242 147.644461,27.0600084 C144.330981,25.0199926 139.707015,24 133.772423,24 C130.137486,24 126.756056,24.1607261 123.628032,24.4821831 C120.500008,24.8036402 116.933124,25.2610914 112.927275,25.8545505 L112.482183,30.2312898 L119.158565,31.6036572 L119.158565,64.5033836 L112.630547,66.8401172 L112,70.7717644 L137.481524,70.7717644 L138.149162,66.3208431 Z M168.211427,70.7903099 C169.583801,70.2092145 170.745974,69.485947 171.697982,68.6204857 C172.649989,67.7550245 173.311439,66.8895762 173.682351,66.024115 L174.127443,66.135388 L174.238716,66.6546622 C174.5849,68.187765 175.184532,69.387029 176.03763,70.2524902 C176.890727,71.1179515 178.269263,71.5506756 180.173277,71.5506756 C181.558015,71.5506756 182.676916,71.4394037 183.530014,71.2168565 C184.383111,70.9943093 185.230014,70.6234029 186.070748,70.1041262 L186.775477,65.3564768 L185.328928,65.0968397 C184.14201,64.8742926 183.30747,64.5713857 182.825285,64.18811 C182.343099,63.8048343 182.052556,63.3041107 181.953646,62.6859241 C181.854736,62.0677374 181.805282,61.0291995 181.805282,59.5702792 L181.805282,47.8866108 C181.805282,43.9302166 180.976924,41.0433285 179.320184,39.2258598 C177.663444,37.4083912 175.27728,36.4996706 172.161619,36.4996706 C170.059785,36.4996706 167.821983,36.9385765 165.448146,37.8164014 C163.07431,38.6942264 161.08996,39.8131274 159.495039,41.1731379 C157.900118,42.5331484 157.102669,43.880775 157.102669,45.2160581 C157.102669,46.971708 157.73321,48.1338814 158.99431,48.7026131 C160.255411,49.2713447 161.899763,49.5557063 163.927415,49.5557063 C164.100507,47.3796895 164.28596,45.7600649 164.48378,44.6967839 C164.6816,43.633503 165.009234,42.8484178 165.466692,42.3415047 C165.92415,41.8345917 166.597963,41.581139 167.488152,41.581139 C169.293257,41.581139 170.677974,42.3353154 171.642345,43.8436907 C172.606716,45.352066 173.088894,47.2313251 173.088894,49.4815243 L173.088894,52.2633501 C169.379775,52.3869874 166.251798,53.0051647 163.704869,54.1179006 C161.15794,55.2306365 159.247772,56.6648079 157.974308,58.4204578 C156.700843,60.1761078 156.064121,62.0924575 156.064121,64.1695645 C156.064121,66.5681285 156.775025,68.4164787 158.196854,69.7146706 C159.618683,71.0128624 161.479397,71.6619486 163.779051,71.6619486 C165.361608,71.6619486 166.839052,71.3714053 168.211427,70.7903099 L168.211427,70.7903099 Z M173.088894,62.9455611 C172.44598,63.5390203 171.697986,64.0521074 170.844888,64.4848381 C169.991791,64.9175687 169.157251,65.1339307 168.341245,65.1339307 C167.253237,65.1339307 166.39397,64.7753879 165.76342,64.0582914 C165.13287,63.341195 164.817599,62.5252009 164.817599,61.6102847 C164.817599,60.1760918 165.454322,58.9150101 166.727786,57.8270017 C168.001251,56.7389932 170.121599,55.9477263 173.088894,55.453177 L173.088894,62.9455611 Z M204.950073,68.8430318 L204.950073,78.1899665 L212.368275,80.081608 L211.737727,84.5325293 L189.965304,84.5325293 L190.410396,80.15579 L196.122412,78.1528755 L196.122412,45.4015131 L190.484578,43.0647794 L191.189308,38.5025851 L204.282434,37.3156728 L205.395165,38.3542211 L204.727526,42.2858682 L205.098437,42.3971413 C206.211172,40.8145836 207.626799,39.4607752 209.345357,38.3356756 C211.063916,37.210576 213.035902,36.6480346 215.261373,36.6480346 C217.462118,36.6480346 219.458831,37.2229395 221.251572,38.3727666 C223.044313,39.5225937 224.472302,41.3214897 225.535583,43.7695086 C226.598864,46.2175276 227.130497,49.3084142 227.130497,53.0422613 C227.130497,56.8502908 226.370139,60.1451759 224.8494,62.9270156 C223.328661,65.7088553 221.239221,67.8292036 218.581019,69.2881239 C215.922817,70.7470443 212.93702,71.4764936 209.62354,71.4764936 C207.422796,71.4764936 205.877352,71.3157675 204.987164,70.9943104 L204.950073,68.8430318 Z M204.950073,47.4786097 L204.950073,64.5775656 C205.864989,64.9979325 206.755164,65.3008394 207.620625,65.4862953 C208.486087,65.6717513 209.499897,65.7644779 210.662088,65.7644779 C212.862832,65.7644779 214.587547,64.9052114 215.836284,63.1866527 C217.085021,61.4680939 217.70938,59.0757477 217.70938,56.0095421 C217.70938,52.3498775 217.208657,49.5309889 216.207194,47.5527917 C215.205732,45.5745946 213.703561,44.5855109 211.700636,44.5855109 C209.574075,44.5855109 207.323909,45.5498675 204.950073,47.4786097 L204.950073,47.4786097 Z M255.690575,69.4921245 C258.237504,67.9713855 260.228035,65.8263101 261.662228,63.0568342 C263.096421,60.2873582 263.813506,57.0975632 263.813506,53.4873534 C263.813506,49.8771437 263.195329,46.7924388 261.958956,44.2331463 C260.722583,41.6738538 258.911323,39.7265952 256.525123,38.3913121 C254.138923,37.0560291 251.264398,36.3883975 247.901463,36.3883975 C245.057804,36.3883975 242.313097,37.1054832 239.667258,38.5396762 C237.02142,39.9738691 234.857799,42.0447631 233.176332,44.7524204 C231.494864,47.4600777 230.654143,50.6189639 230.654143,54.2291736 C230.654143,57.5179264 231.222866,60.4789958 232.360329,63.1124707 C233.497793,65.7459456 235.296689,67.8477485 237.757071,69.4179425 C240.217454,70.9881364 243.314523,71.7732216 247.04837,71.7732216 C250.26294,71.7732216 253.143646,71.0128635 255.690575,69.4921245 L255.690575,69.4921245 Z M252.482203,46.6626075 C253.656757,49.6299032 254.244026,53.2400588 254.244026,57.4931826 C254.244026,60.2626585 253.749484,62.432461 252.760385,64.0026549 C251.771287,65.5728489 250.275298,66.3579341 248.272373,66.3579341 C245.453442,66.3579341 243.394912,65.0412164 242.09672,62.4077415 C240.798528,59.7742666 240.149442,56.2321105 240.149442,51.7811669 C240.149442,48.8385987 240.650165,46.5080702 241.651628,44.7895114 C242.65309,43.0709527 244.241806,42.2116862 246.417822,42.2116862 C249.286208,42.2116862 251.307648,43.6953118 252.482203,46.6626075 L252.482203,46.6626075 Z M271.083344,60.4604634 C271.058617,63.2546669 271.373887,65.4677417 272.029165,67.0997543 C272.684443,68.7317669 273.692072,69.8939403 275.052083,70.5863093 C276.412093,71.2786783 278.204807,71.6248576 280.430279,71.6248576 C282.878298,71.6248576 285.0481,71.1055886 286.939751,70.0670352 C288.831402,69.0284817 290.333573,67.7303093 291.446309,66.172479 L290.519034,62.7230151 C290.395397,62.7971975 290.104853,62.9579236 289.647395,63.2051982 C289.189937,63.4524728 288.60885,63.693562 287.904118,63.9284729 C287.199385,64.1633838 286.488481,64.2808375 285.771385,64.2808375 C283.76846,64.2808375 282.352834,63.8233863 281.524464,62.9084701 C280.696094,61.9935539 280.281915,60.4604742 280.281915,58.3091848 L280.356097,44.0662367 L290.407761,44.0662367 L290.778671,38.7993132 L280.46737,38.7993132 L280.46737,30.6392909 L276.461541,30.6392909 C275.150985,32.5185782 273.673542,34.2927471 272.029165,35.9618509 C270.384789,37.6309547 268.709528,39.0465808 267.003333,40.2087716 L267.003333,43.9549637 L271.194617,43.9549637 L271.083344,60.4604634 Z M316.408559,70.6975823 C318.757668,69.881576 320.686382,68.6946756 322.194757,67.1368453 L321.452937,62.9455611 C319.994016,63.7121125 318.57839,64.2128361 317.206016,64.4477471 C315.833642,64.682658 314.319107,64.8001117 312.662367,64.8001117 C309.868164,64.8001117 307.753997,63.9470269 306.319805,62.2408319 C304.885612,60.5346369 304.094345,58.3586527 303.94598,55.7128141 L320.674026,55.341904 C320.82239,54.6742624 320.976935,53.6357245 321.137663,52.2262591 C321.298392,50.8167936 321.378755,49.8153463 321.378755,49.2218872 C321.378755,46.6502309 320.939849,44.4000655 320.062024,42.4713233 C319.184199,40.5425811 317.941663,39.0589555 316.334377,38.020402 C314.727092,36.9818485 312.860197,36.4625796 310.733635,36.4625796 C308.063069,36.4625796 305.485269,37.2353012 303.000159,38.7807677 C300.515049,40.3262342 298.487427,42.4960366 296.917233,45.2902401 C295.347039,48.0844435 294.561954,51.2742385 294.561954,54.8597208 C294.561954,58.494658 295.217222,61.5979082 296.527778,64.1695645 C297.838333,66.7412207 299.60632,68.6761158 301.831792,69.9743076 C304.057264,71.2724995 306.542337,71.9215857 309.287085,71.9215857 C311.685649,71.9215857 314.05945,71.5135887 316.408559,70.6975823 L316.408559,70.6975823 Z M311.772183,44.2331463 C312.439825,45.2840635 312.77364,46.6996896 312.77364,48.480067 C312.77364,48.8262515 312.755095,49.2713392 312.718004,49.8153434 C312.680913,50.3593476 312.625277,50.7426175 312.551094,50.9651647 L303.834707,51.8182579 C303.884162,49.9389707 304.131433,48.3069825 304.576527,46.9222445 C305.021621,45.5375066 305.602708,44.4804233 306.319805,43.7509631 C307.036901,43.021503 307.815804,42.6567783 308.656538,42.6567783 C310.066004,42.6567783 311.104542,43.1822291 311.772183,44.2331463 L311.772183,44.2331463 Z M348.974467,65.6532049 L340.220988,63.8728364 L340.220988,52.8938973 C340.641355,51.01461 341.352259,49.4815302 342.353721,48.2946119 C343.355184,47.1076937 344.535902,46.5142434 345.895913,46.5142434 C347.305378,46.5142434 348.863185,47.0582395 350.56938,48.1462479 C351.632661,47.2560592 352.461019,46.2978843 353.054478,45.2716946 C353.647937,44.2455048 353.944662,43.0771497 353.944662,41.7665941 C353.944662,40.3324012 353.468666,39.1331371 352.516658,38.168766 C351.564651,37.2043949 350.285024,36.7222166 348.677739,36.7222166 C346.823179,36.7222166 345.098464,37.4454841 343.503543,38.8920408 C341.908621,40.3385974 340.653721,42.5331269 339.738805,45.4756951 L339.034076,45.2902401 L339.738805,38.4284031 L338.588984,37.2414908 L326.497314,38.4654941 L325.755494,42.9905974 L331.393328,45.3273311 L331.393328,64.3921105 L325.829676,66.3950251 L325.23622,70.7346733 L348.529375,70.7346733 L348.974467,65.6532049 Z M374.25199,70.7903099 C376.341461,69.9372124 378.004358,68.719403 379.240731,67.1368453 C380.477105,65.5542876 381.095282,63.7244827 381.095282,61.6473758 C381.095282,59.743361 380.60074,58.0928276 379.611641,56.6957258 C378.622543,55.2986241 377.435642,54.1364507 376.050904,53.2091708 C374.666166,52.2818909 372.873452,51.2495348 370.672708,50.1120715 C369.164333,49.3455201 367.977432,48.6964339 367.111971,48.1647934 C366.24651,47.6331529 365.529424,47.0458845 364.960692,46.4029704 C364.391961,45.7600563 364.107599,45.0553342 364.107599,44.2887828 C364.107599,43.2996842 364.435233,42.4713266 365.090511,41.8036851 C365.745789,41.1360436 366.629782,40.8022278 367.742518,40.8022278 C368.954164,40.8022278 370.066883,41.1978613 371.080709,41.9891401 C372.094535,42.780419 372.848711,44.1651362 373.343261,46.1433333 L374.085081,48.517158 C375.840731,48.3687932 377.299629,47.7691612 378.46182,46.718244 C379.624011,45.6673268 380.205098,44.3629726 380.205098,42.8051424 C380.205098,40.7774903 379.222196,39.2196835 377.256362,38.131675 C375.290529,37.0436666 372.712729,36.4996706 369.522887,36.4996706 C366.605046,36.4996706 364.175609,37.0807573 362.234503,38.2429481 C360.293397,39.4051389 358.871589,40.8331285 357.969037,42.5269598 C357.066484,44.2207911 356.615215,45.858961 356.615215,47.4415187 C356.615215,49.3702609 357.115939,51.0455214 358.117401,52.4673506 C359.118863,53.8891798 360.299582,55.0637167 361.659592,55.9909966 C363.019603,56.9182765 364.78759,57.9506327 366.963607,59.088096 C368.373072,59.8051925 369.467246,60.3986427 370.246161,60.8684645 C371.025076,61.3382863 371.667981,61.8575553 372.174894,62.426287 C372.681807,62.9950186 372.93526,63.6008324 372.93526,64.2437465 C372.93526,65.3317549 372.55199,66.1106583 371.785438,66.5804802 C371.018887,67.050302 369.906168,67.2852094 368.447247,67.2852094 C366.988327,67.2852094 365.653064,66.6361232 364.441418,65.3379313 C363.229772,64.0397394 362.265416,62.141935 361.548319,59.6444612 C359.669032,59.792826 358.19777,60.3491856 357.134489,61.3135567 C356.071208,62.2779278 355.539576,63.526646 355.539576,65.0597487 C355.539576,66.3703043 356.07739,67.5572048 357.153035,68.6204857 C358.228679,69.6837667 359.675214,70.5244879 361.492683,71.1426745 C363.310151,71.7608611 365.269773,72.0699497 367.371608,72.0699497 C369.869082,72.0699497 372.16252,71.6434074 374.25199,70.7903099 L374.25199,70.7903099 Z" id="Papoters" fill="#30485F"></path>
        </g>
    </g>
</svg>