<?xml version="1.0" encoding="UTF-8" standalone="no"?>
<svg width="136px" height="34px" viewBox="0 0 136 34" version="1.1" xmlns="http://www.w3.org/2000/svg" xmlns:xlink="http://www.w3.org/1999/xlink">
    <!-- Generator: Sketch 40.3 (33839) - http://www.bohemiancoding.com/sketch -->
    <title>Artboard 2 Copy 6</title>
    <desc>Created with Sketch.</desc>
    <defs></defs>
    <g id="Page-1" stroke="none" stroke-width="1" fill="none" fill-rule="evenodd">
        <g id="Artboard-2-Copy-6">
            <g id="Group-3" transform="translate(-4.000000, -1.000000)">
                <g id="Group">
                    <g id="Group-2">
                        <g id="Group-Copy-10" transform="translate(18.345901, 18.437231) rotate(52.000000) translate(-18.345901, -18.437231) translate(6.345901, 5.437231)">
                            <path d="M22.450871,19.8243521 C22.3935401,20.2440715 21.9516298,20.8128036 21.5585041,20.9731697 L20.0383469,21.5929919 L15.5811418,18.1217037 L17.603745,2.7627431 L23.4304804,7.25689771 C23.7669874,7.51625092 24.0404662,8.18184135 23.9831354,8.6012059 L22.450871,19.8243521 Z" id="Path" fill="#FFC938"></path>
                            <path d="M11.0370503,25.2633187 C10.9152668,25.3133445 10.7464791,25.3406635 10.5616673,25.3406635 C10.193468,25.3406635 9.80425935,25.2306778 9.59274063,25.0678282 L0.602838987,18.1337666 C0.267044118,17.8747682 -0.0064346294,17.208823 0.0505401097,16.7894584 L0.413041887,14.1356117 L4.80187726,12.3463939 L13.7219848,19.2268818 L17.8868383,22.471103 L11.0370503,25.2633187 L11.0370503,25.2633187 Z" id="Path" fill="#30485F"></path>
                            <path d="M2.47552744,4.41749459 L12.9969813,0.127700364 C13.1187648,0.0780294355 13.2871964,0.050710425 13.4720082,0.050710425 C13.8402074,0.050710425 14.2297722,0.160341259 14.4412909,0.323545737 L15.7556269,1.33718746 L15.1481338,5.95445502 L0.727471228,11.8340737 L1.58316059,5.56595741 C1.64049142,5.14659286 2.08240174,4.57750594 2.47552744,4.41749459 L2.47552744,4.41749459 Z" id="Path" fill="#42D3AA"></path>
                        </g>
                    </g>
                </g>
                <path d="M51.8695117,23.656053 L48.8600993,22.932065 L48.8600993,11.348257 C48.9781161,11.3316136 49.1424941,11.3128899 49.3532383,11.2920856 C49.5639825,11.2712812 49.7536495,11.2608792 49.9222449,11.2608792 C51.0012553,11.2608792 51.8105009,11.568779 52.3500061,12.184588 C52.8895113,12.800397 53.1592599,13.5951115 53.1592599,14.5687554 C53.1592599,15.5257558 52.872652,16.2705406 52.2994277,16.8031321 C51.7262035,17.3357236 50.8748096,17.610337 49.7452206,17.6269805 L49.2900154,17.6394631 L49.5934855,19.2372297 C50.0992716,19.2705167 50.4828204,19.2871599 50.7441432,19.2871599 C51.8737322,19.2871599 52.9000412,19.056235 53.8231008,18.5943783 C54.7461605,18.1325216 55.4732171,17.502159 56.0042926,16.7032717 C56.535368,15.9043844 56.8009017,15.0181321 56.8009017,14.0444882 C56.8009017,12.3302092 56.2361157,11.1298158 55.1065267,10.443272 C53.9769377,9.75672828 52.4005946,9.41346154 50.3774501,9.41346154 C49.1382741,9.41346154 47.9855205,9.46755205 46.9191548,9.57573471 C45.852789,9.68391736 44.6368131,9.8378673 43.2711906,10.0375891 L43.1194555,11.5105302 L45.3954817,11.9723846 L45.3954817,23.0444079 L43.1700339,23.8308087 L42.9550759,25.1539592 L51.6419091,25.1539592 L51.8695117,23.656053 Z M62.1179518,25.1602004 C62.5858039,24.9646395 62.9819971,24.7212322 63.3065432,24.4299712 C63.6310893,24.1387102 63.8565822,23.8474535 63.9830288,23.5561925 L64.1347638,23.5936402 L64.1726976,23.7683959 C64.2907144,24.284344 64.4951332,24.6879424 64.7859602,24.9792034 C65.0767872,25.2704644 65.5467398,25.4160927 66.195832,25.4160927 C66.667899,25.4160927 67.0493403,25.3786455 67.3401674,25.3037498 C67.6309944,25.2288541 67.9197096,25.1040298 68.2063218,24.9292732 L68.446569,23.3315066 L67.95343,23.2441288 C67.5488011,23.1692331 67.2643006,23.0672933 67.0999202,22.9383062 C66.9355397,22.8093192 66.8364914,22.6408065 66.8027723,22.4327629 C66.7690532,22.2247193 66.7521939,21.8752114 66.7521939,21.3842286 L66.7521939,17.4522248 C66.7521939,16.120746 66.4698009,15.1491971 65.9050064,14.537549 C65.3402119,13.9259009 64.5267514,13.6200814 63.4646006,13.6200814 C62.7480702,13.6200814 61.9851876,13.7677902 61.1759298,14.063212 C60.366672,14.3586339 59.6901932,14.7351871 59.1464731,15.1928829 C58.6027531,15.6505788 58.3308971,16.104107 58.3308971,16.5534811 C58.3308971,17.1443248 58.545853,17.5354409 58.9757712,17.7268409 C59.4056894,17.918241 59.9662606,18.0139396 60.6575016,18.0139396 C60.71651,17.2816263 60.7797323,16.7365603 60.8471705,16.3787254 C60.9146086,16.0208904 61.0263014,15.7566791 61.1822521,15.5860833 C61.3382028,15.4154876 61.5679106,15.330191 61.8713823,15.330191 C62.4867554,15.330191 62.9588153,15.5840004 63.2875763,16.0916267 C63.6163373,16.599253 63.7807153,17.2316959 63.7807153,17.9889745 L63.7807153,18.9251659 C62.51625,18.9667746 61.4499003,19.1748151 60.5816341,19.5492935 C59.7133679,19.9237719 59.0621781,20.4064257 58.628045,20.9972695 C58.1939119,21.5881132 57.9768486,22.2330386 57.9768486,22.932065 C57.9768486,23.739274 58.2192008,24.3613149 58.7039125,24.7982064 C59.1886242,25.2350979 59.8229548,25.4535404 60.6069233,25.4535404 C61.1464285,25.4535404 61.6500996,25.3557614 62.1179518,25.1602004 L62.1179518,25.1602004 Z M63.7807153,22.5201408 C63.5615413,22.7198626 63.3065447,22.8925362 63.0157176,23.0381667 C62.7248906,23.1837972 62.4403902,23.2566113 62.1622078,23.2566113 C61.791298,23.2566113 61.4983679,23.1359479 61.2834088,22.8946173 C61.0684497,22.6532868 60.9609718,22.3786734 60.9609718,22.0707689 C60.9609718,21.5881078 61.1780351,21.1637053 61.6121682,20.7975486 C62.0463013,20.431392 62.7691431,20.1651002 63.7807153,19.9986653 L63.7807153,22.5201408 Z M74.642418,24.5048665 L74.642418,27.6504695 L77.171336,28.2870796 L76.9563779,29.7849858 L69.5340037,29.7849858 L69.6857388,28.3120447 L71.6330056,27.6379869 L71.6330056,16.6158938 L69.711028,15.8294931 L69.9512752,14.2941392 L74.4148154,13.8946976 L74.7941531,14.244209 L74.5665505,15.5673595 L74.6929964,15.6048072 C75.0723359,15.0722156 75.554933,14.616607 76.1408019,14.2379677 C76.7266708,13.8593285 77.3989348,13.6700116 78.157614,13.6700116 C78.9078634,13.6700116 79.588557,13.8634893 80.1997152,14.2504503 C80.8108735,14.6374113 81.2976853,15.242809 81.6601654,16.0666616 C82.0226454,16.8905141 82.2038827,17.9307163 82.2038827,19.1872995 C82.2038827,20.4688479 81.9446712,21.5777034 81.4262404,22.5138995 C80.9078097,23.4500955 80.1955049,24.1636743 79.2893048,24.6546571 C78.3831046,25.1456399 77.3652253,25.3911276 76.2356363,25.3911276 C75.4853869,25.3911276 74.9585343,25.3370371 74.6550626,25.2288545 L74.642418,24.5048665 Z M74.642418,17.3149167 L74.642418,23.069373 C74.9543194,23.2108427 75.2577866,23.3127825 75.5528285,23.3751956 C75.8478704,23.4376086 76.1934857,23.4688147 76.5896848,23.4688147 C77.3399342,23.4688147 77.9279018,23.1796385 78.3536051,22.6012773 C78.7793084,22.0229162 78.9921569,21.2177997 78.9921569,20.1859036 C78.9921569,18.9542857 78.8214566,18.0056212 78.480051,17.3398818 C78.1386454,16.6741424 77.6265446,16.3412777 76.9437333,16.3412777 C76.2187732,16.3412777 75.4516758,16.6658208 74.642418,17.3149167 L74.642418,17.3149167 Z M91.9402169,24.7233111 C92.8084831,24.211524 93.4870693,23.4896236 93.9759959,22.5575884 C94.4649224,21.6255532 94.7093821,20.5520645 94.7093821,19.3370901 C94.7093821,18.1221157 94.498641,17.0839938 94.0771526,16.2226935 C93.6556641,15.3613931 93.0381928,14.7060657 92.2247202,14.2566916 C91.4112475,13.8073175 90.4313016,13.5826338 89.284853,13.5826338 C88.3154296,13.5826338 87.3797393,13.8239607 86.4777541,14.3066218 C85.5757688,14.7892829 84.8381751,15.4862184 84.2649509,16.3974492 C83.6917266,17.30868 83.4051188,18.3717667 83.4051188,19.5867411 C83.4051188,20.6935329 83.5990005,21.6900466 83.9867699,22.5763122 C84.3745392,23.4625778 84.9877957,24.1699154 85.8265577,24.698346 C86.6653197,25.2267767 87.7211324,25.4909881 88.9940275,25.4909881 C90.0898974,25.4909881 91.0719507,25.2350983 91.9402169,24.7233111 L91.9402169,24.7233111 Z M90.8464599,17.0403006 C91.2468739,18.0389097 91.4470779,19.2538659 91.4470779,20.6852057 C91.4470779,21.6172409 91.278485,22.3474628 90.9412943,22.8758935 C90.6041035,23.4043241 90.0941102,23.6685355 89.4112989,23.6685355 C88.4503053,23.6685355 87.7485376,23.2254094 87.3059747,22.3391438 C86.8634119,21.4528782 86.6421338,20.2608064 86.6421338,18.7628927 C86.6421338,17.7726053 86.812834,16.9882929 87.1542396,16.4099317 C87.4956453,15.8315706 88.0372498,15.5423944 88.7790694,15.5423944 C89.7569226,15.5423944 90.4460459,16.0416915 90.8464599,17.0403006 L90.8464599,17.0403006 Z M97.1877217,21.6838098 C97.1792919,22.6241667 97.2867698,23.3689515 97.5101587,23.9181865 C97.7335476,24.4674216 98.0770555,24.8585376 98.5406928,25.0915464 C99.0043301,25.3245552 99.6154791,25.4410578 100.374158,25.4410578 C101.208705,25.4410578 101.948407,25.2663039 102.593284,24.9167907 C103.238161,24.5672775 103.750262,24.1303925 104.129601,23.6061228 L103.813487,22.4452455 C103.771338,22.4702107 103.67229,22.5243012 103.516339,22.6075186 C103.360388,22.6907361 103.162292,22.7718718 102.922043,22.8509284 C102.681795,22.9299849 102.439443,22.9695126 102.194979,22.9695126 C101.512168,22.9695126 101.029571,22.8155627 100.747174,22.5076582 C100.464776,22.1997537 100.32358,21.6838134 100.32358,20.9598218 L100.348869,16.166522 L103.775553,16.166522 L103.901999,14.3939996 L100.386803,14.3939996 L100.386803,11.6478383 L99.0211872,11.6478383 C98.5744095,12.2802907 98.0707383,12.8773668 97.5101587,13.4390844 C96.9495791,14.0008021 96.3784708,14.4772147 95.7968168,14.8683366 L95.7968168,16.1290743 L97.2256554,16.1290743 L97.1877217,21.6838098 Z M112.63941,25.1289941 C113.440238,24.8543765 114.097751,24.4549389 114.611966,23.9306691 L114.359075,22.5201408 C113.861718,22.7781148 113.379121,22.9466275 112.911269,23.0256841 C112.443417,23.1047407 111.927101,23.1442683 111.362307,23.1442683 C110.409743,23.1442683 109.689009,22.8571725 109.200082,22.2829723 C108.711155,21.708772 108.441407,20.9764697 108.390828,20.0860432 L114.093538,19.9612177 C114.144117,19.7365306 114.196802,19.3870227 114.251596,18.9126833 C114.306389,18.438344 114.333785,18.1013185 114.333785,17.9015967 C114.333785,17.0361354 114.184159,16.2788682 113.884903,15.6297723 C113.585646,14.9806763 113.162056,14.4813793 112.614121,14.1318661 C112.066186,13.7823529 111.429748,13.6075989 110.704788,13.6075989 C109.794373,13.6075989 108.915583,13.8676494 108.068391,14.3877584 C107.221199,14.9078673 106.529969,15.6380893 105.994679,16.5784462 C105.459388,17.5188031 105.191747,18.5922918 105.191747,19.7989445 C105.191747,21.0222407 105.415133,22.0666037 105.86191,22.932065 C106.308688,23.7975262 106.911407,24.4486928 107.670087,24.8855843 C108.428766,25.3224758 109.275945,25.5409183 110.211649,25.5409183 C111.029337,25.5409183 111.838582,25.4036116 112.63941,25.1289941 L112.63941,25.1289941 Z M111.058837,16.2226935 C111.28644,16.5763675 111.400241,17.0527801 111.400241,17.6519456 C111.400241,17.76845 111.393918,17.9182391 111.381274,18.1013175 C111.368629,18.2843958 111.349662,18.4133809 111.324373,18.4882766 L108.352895,18.7753753 C108.369754,18.1429228 108.45405,17.593696 108.605786,17.1276785 C108.757522,16.6616609 108.955619,16.3059117 109.200082,16.0604203 C109.444545,15.8149289 109.710079,15.692185 109.996691,15.692185 C110.477188,15.692185 110.831233,15.8690194 111.058837,16.2226935 L111.058837,16.2226935 Z M123.74136,23.431367 L120.757237,22.8322046 L120.757237,19.1373693 C120.900543,18.5049168 121.142895,17.9889765 121.484301,17.5895329 C121.825707,17.1900892 122.228222,16.9903704 122.691859,16.9903704 C123.172356,16.9903704 123.703424,17.173446 124.285078,17.5396027 C124.647558,17.2400199 124.929951,16.9175572 125.132265,16.5722049 C125.33458,16.2268526 125.435735,15.8336561 125.435735,15.3926038 C125.435735,14.9099427 125.273465,14.5063442 124.948919,14.1817963 C124.624373,13.8572483 124.188139,13.6949768 123.640204,13.6949768 C123.007971,13.6949768 122.420003,13.9383841 121.876283,14.425206 C121.332563,14.912028 120.904759,15.6505716 120.592857,16.6408589 L120.35261,16.5784462 L120.592857,14.2691741 L120.200875,13.8697325 L116.078739,14.2816567 L115.825847,15.804528 L117.747825,16.5909287 L117.747825,23.0069603 L115.851136,23.6810181 L115.648823,25.1414766 L123.589625,25.1414766 L123.74136,23.431367 Z M132.358648,25.1602004 C133.070964,24.8731003 133.637857,24.4632606 134.059346,23.9306691 C134.480834,23.3980776 134.691575,22.7822778 134.691575,22.0832515 C134.691575,21.4424773 134.522982,20.8870093 134.185792,20.4168308 C133.848601,19.9466523 133.443978,19.5555363 132.971911,19.243471 C132.499844,18.9314056 131.888695,18.5839781 131.138445,18.2011779 C130.62423,17.9432039 130.219607,17.7247614 129.924565,17.5458439 C129.629523,17.3669265 129.385063,17.169288 129.191179,16.9529227 C128.997294,16.7365574 128.900353,16.4993913 128.900353,16.2414173 C128.900353,15.9085476 129.012046,15.6297734 129.235435,15.4050863 C129.458823,15.1803993 129.760183,15.0680574 130.139523,15.0680574 C130.552581,15.0680574 130.931915,15.2012033 131.277536,15.4674991 C131.623156,15.7337949 131.88026,16.1998055 132.048856,16.8655449 L132.301748,17.6644282 C132.900261,17.6144977 133.39761,17.4126985 133.793809,17.0590244 C134.190008,16.7053504 134.388105,16.266385 134.388105,15.7421152 C134.388105,15.0597323 134.053027,14.5354704 133.38286,14.1693137 C132.712693,13.803157 131.833903,13.6200814 130.746463,13.6200814 C129.75175,13.6200814 128.923538,13.8156395 128.261801,14.2067614 C127.600064,14.5978833 127.11536,15.0784567 126.807673,15.6484961 C126.499987,16.2185355 126.346146,16.7698426 126.346146,17.3024342 C126.346146,17.9515301 126.516846,18.5153197 126.858252,18.9938199 C127.199657,19.4723201 127.602173,19.867597 128.06581,20.1796623 C128.529447,20.4917277 129.132167,20.8391552 129.873986,21.2219554 C130.354483,21.4632859 130.727495,21.6630048 130.993033,21.8211179 C131.25857,21.979231 131.477741,22.153985 131.650551,22.345385 C131.823362,22.5367851 131.909765,22.7406648 131.909765,22.9570301 C131.909765,23.3231867 131.779106,23.5853177 131.517783,23.7434308 C131.25646,23.9015439 130.877126,23.9805993 130.37977,23.9805993 C129.882414,23.9805993 129.427213,23.7621568 129.014154,23.3252653 C128.601096,22.8883739 128.27234,22.2496897 128.027876,21.4091937 C127.387214,21.4591241 126.88565,21.6463605 126.52317,21.9709085 C126.16069,22.2954565 125.979453,22.7156982 125.979453,23.2316462 C125.979453,23.6726986 126.162797,24.0721362 126.529492,24.4299712 C126.896187,24.7878061 127.389321,25.0707411 128.008909,25.2787847 C128.628497,25.4868282 129.296547,25.5908485 130.013077,25.5908485 C130.864484,25.5908485 131.646333,25.4473006 132.358648,25.1602004 L132.358648,25.1602004 Z" id="Papoters" fill="#30485F"></path>
            </g>
        </g>
    </g>
</svg>