<?xml version="1.0" encoding="UTF-8" standalone="no"?>
<svg width="124px" height="124px" viewBox="0 0 124 124" version="1.1" xmlns="http://www.w3.org/2000/svg" xmlns:xlink="http://www.w3.org/1999/xlink">
    <!-- Generator: Sketch 40.3 (33839) - http://www.bohemiancoding.com/sketch -->
    <title>logo_small</title>
    <desc>Created with Sketch.</desc>
    <defs>
        <linearGradient x1="13.4574524%" y1="0%" x2="92.3420623%" y2="75.1818891%" id="linearGradient-1">
            <stop stop-color="#FFC938" stop-opacity="0.502490942" offset="0%"></stop>
            <stop stop-color="#FFF0A9" offset="0%"></stop>
            <stop stop-color="#42D3AA" stop-opacity="0.497537364" offset="100%"></stop>
        </linearGradient>
    </defs>
    <g id="Page-1" stroke="none" stroke-width="1" fill="none" fill-rule="evenodd">
        <g id="Logos" transform="translate(-512.000000, -215.000000)">
            <g id="logo_small" transform="translate(512.000000, 215.000000)">
                <g id="Group-2-Copy" fill="url(#linearGradient-1)">
                    <rect id="Rectangle" x="0" y="0" width="124" height="124" rx="10"></rect>
                </g>
                <path d="M52.1762695,42.1767578 C52.1762695,41.06282 52.0898446,40.2561874 51.9169922,39.7568359 C51.7441398,39.2574845 51.6577148,38.7965516 51.6577148,38.3740234 C51.6577148,37.7978487 51.9650034,37.3177103 52.5795898,36.9335938 C53.1941762,36.5494772 53.9239867,36.3574219 54.769043,36.3574219 C56.7280371,36.3574219 58.312494,36.8663686 59.5224609,37.8842773 C60.7324279,38.9021861 61.3374023,40.1409432 61.3374023,41.6005859 L61.3374023,80.1464844 C62.6818101,79.9928378 64.2086503,79.608727 65.9179688,78.9941406 C67.6272872,78.3795542 69.3845938,77.5249078 71.1899414,76.4301758 C72.995289,75.3354437 74.7525956,73.9814534 76.4619141,72.3681641 C78.1712325,70.7548747 79.6980727,68.8727321 81.0424805,66.7216797 C82.3868882,64.5706273 83.4720011,62.1411268 84.2978516,59.4331055 C85.123702,56.7250841 85.5366211,53.7194176 85.5366211,50.4160156 C85.5366211,48.1881399 85.1813187,45.8834754 84.4707031,43.5019531 C83.7600876,41.1204308 82.6365637,38.9502051 81.1000977,36.9912109 C79.5636316,35.0322168 77.5758585,33.4189517 75.1367188,32.1513672 C72.697579,30.8837827 69.749529,30.25 66.2924805,30.25 C61.5678475,30.25 57.5154791,30.9798104 54.1352539,32.4394531 C50.7550287,33.8990958 47.9990341,35.8580606 45.8671875,38.3164062 C43.7353409,40.7747519 42.1700896,43.6267741 41.1713867,46.8725586 C40.1726838,50.1183431 39.6733398,53.5465314 39.6733398,57.1572266 C39.6733398,59.7692188 39.8942035,61.9682528 40.3359375,63.7543945 C40.7776715,65.5405363 41.2674127,67.0001571 41.8051758,68.1333008 C42.3429389,69.2664445 42.8422829,70.1018853 43.3032227,70.6396484 C43.7641625,71.1774115 44.03304,71.4847001 44.1098633,71.5615234 C44.7628613,71.3694652 45.2237942,71.4462873 45.4926758,71.7919922 C45.7615573,72.137697 45.8959961,72.5986299 45.8959961,73.1748047 C45.8959961,73.7125678 45.7135435,74.5192004 45.3486328,75.5947266 C44.9837221,76.6702528 44.4939809,77.6785435 43.8793945,78.6196289 C43.2648081,79.5607143 42.5542033,80.2713192 41.7475586,80.7514648 C40.9409139,81.2316105 40.1150758,81.1451856 39.2700195,80.4921875 C38.8090797,80.0696593 38.0984749,79.3014379 37.1381836,78.1875 C36.1778923,77.0735621 35.2272182,75.585133 34.2861328,73.722168 C33.3450474,71.8592029 32.5096065,69.6121551 31.7797852,66.980957 C31.0499638,64.349759 30.6850586,61.3056813 30.6850586,57.8486328 C30.6850586,52.3173552 31.5493078,47.3143127 33.277832,42.8393555 C35.0063563,38.3643982 37.4358567,34.5328935 40.5664062,31.3447266 C43.6969558,28.1565596 47.4324327,25.6982508 51.7729492,23.9697266 C56.1134657,22.2412023 60.91485,21.3769531 66.1772461,21.3769531 C70.4793509,21.3769531 74.3876777,22.087558 77.9023438,23.5087891 C81.4170098,24.9300201 84.4130735,26.9177932 86.890625,29.472168 C89.3681765,32.0265427 91.2791274,35.0706204 92.6235352,38.6044922 C93.9679429,42.138364 94.6401367,45.998677 94.6401367,50.1855469 C94.6401367,55.332708 93.7182709,60.0860785 91.8745117,64.4458008 C90.0307525,68.8055231 87.5724437,72.6754388 84.4995117,76.0556641 C81.4265797,79.4358893 77.8831581,82.2398977 73.8691406,84.4677734 C69.8551232,86.6956492 65.6779188,88.2128866 61.3374023,89.0195312 L61.3374023,104.576172 C61.3374023,105.574875 61.0109082,106.275877 60.3579102,106.679199 C59.7049121,107.082522 58.9366906,107.28418 58.0532227,107.28418 C57.3618129,107.28418 56.6704136,107.188152 55.9790039,106.996094 C55.2875942,106.804035 54.6634142,106.554364 54.1064453,106.24707 C53.5494764,105.939777 53.0885435,105.584475 52.7236328,105.181152 C52.3587221,104.77783 52.1762695,104.345705 52.1762695,103.884766 L52.1762695,42.1767578 Z" id="P" fill="#30485F"></path>
            </g>
        </g>
    </g>
</svg>