<?xml version="1.0" encoding="UTF-8" standalone="no"?>
<svg width="230px" height="60px" viewBox="0 0 230 60" version="1.1" xmlns="http://www.w3.org/2000/svg" xmlns:xlink="http://www.w3.org/1999/xlink">
    <!-- Generator: Sketch 40.3 (33839) - http://www.bohemiancoding.com/sketch -->
    <title>papoters_no_icon</title>
    <desc>Created with Sketch.</desc>
    <defs></defs>
    <g id="Page-1" stroke="none" stroke-width="1" fill="none" fill-rule="evenodd">
        <g id="papoters_no_icon" fill="#30485F">
            <g id="Group-3" transform="translate(1.000000, 6.000000)">
                <path d="M21.4035737,34.6892156 L14.1779701,32.9258725 L14.1779701,4.71238249 C14.4613285,4.67184567 14.8560004,4.62624242 15.3619976,4.57557139 C15.8679948,4.52490036 16.3233854,4.49956522 16.7281832,4.49956522 C19.3188887,4.49956522 21.2618887,5.24948526 22.5572415,6.74934783 C23.8525943,8.2492104 24.500261,10.1848148 24.500261,12.5562192 C24.500261,14.8870867 23.8121151,16.7010824 22.4358028,17.9982609 C21.0594905,19.2954393 19.0152925,19.9642869 16.3031476,20.0048237 L15.2101992,20.0352262 L15.9388315,23.9267421 C17.1532247,24.0078157 18.0741258,24.048352 18.7015623,24.048352 C21.4137072,24.048352 23.8778765,23.4859119 26.0941441,22.361015 C28.3104118,21.2361181 30.0560759,19.7008088 31.3311888,17.7550411 C32.6063017,15.8092735 33.2438486,13.6507199 33.2438486,11.2793155 C33.2438486,7.10402241 31.8877964,4.18034767 29.1756516,2.50820359 C26.4635067,0.836059501 22.6787045,0 17.8211316,0 C14.8458682,0 12.0781051,0.131742709 9.51775938,0.39523208 C6.95741365,0.658721451 4.03785371,1.03368147 0.758991976,1.52012339 L0.394675828,5.10761457 L5.85941806,6.23250588 L5.85941806,33.1994947 L0.516114544,35.1148502 L-2.84217094e-14,38.3375118 L20.8570995,38.3375118 L21.4035737,34.6892156 Z M46.0100936,38.352713 C47.1334073,37.8764053 48.0846678,37.2835631 48.8639034,36.5741686 C49.6431391,35.8647742 50.1845479,35.1553904 50.4881462,34.4459959 L50.8524624,34.5372033 L50.9435414,34.9628379 C51.2268999,36.2194795 51.7177098,37.2024828 52.4159859,37.9118772 C53.114262,38.6212717 54.2426188,38.9759636 55.8010901,38.9759636 C56.9345238,38.9759636 57.8503649,38.8847571 58.548641,38.7023414 C59.2469171,38.5199257 59.9401229,38.215904 60.628279,37.7902674 L61.2051129,33.8987515 L60.0210855,33.6859342 C59.0495709,33.5035185 58.3664849,33.2552342 57.9718071,32.9410738 C57.5771293,32.6269133 57.3393142,32.2164841 57.2583547,31.7097738 C57.1773951,31.2030635 57.136916,30.3518029 57.136916,29.1559665 L57.136916,19.5791892 C57.136916,16.3362431 56.4588899,13.9699414 55.1028175,12.480213 C53.746745,10.9904846 51.7936252,10.2456316 49.2433994,10.2456316 C47.523009,10.2456316 45.6913267,10.6053906 43.7482975,11.3249192 C41.8052683,12.0444479 40.1810417,12.9615798 38.875569,14.0763425 C37.5700963,15.1911053 36.9173697,16.2957172 36.9173697,17.3902115 C36.9173697,18.8292689 37.4334791,19.78187 38.4657133,20.2480435 C39.4979476,20.714217 40.8438799,20.9473002 42.5035507,20.9473002 C42.6452299,19.1636799 42.7970267,17.8361187 42.9589458,16.964577 C43.1208649,16.0930352 43.3890394,15.4495227 43.7634773,15.0340203 C44.1379153,14.6185178 44.6894439,14.4107697 45.4180798,14.4107697 C46.8955916,14.4107697 48.0290083,15.028947 48.8183639,16.2653202 C49.6077195,17.5016934 50.0023914,19.0420697 50.0023914,20.8864953 L50.0023914,23.1666804 C46.9664083,23.2680225 44.406101,23.7747252 42.3213926,24.6868038 C40.2366842,25.5988824 38.6731764,26.7744327 37.6308222,28.21349 C36.588468,29.6525474 36.0672987,31.2233258 36.0672987,32.9258725 C36.0672987,34.8919086 36.6491867,36.4069498 37.8129802,37.4710414 C38.9767738,38.5351331 40.4998024,39.067171 42.3821119,39.067171 C43.6774647,39.067171 44.8867798,38.8290207 46.0100936,38.352713 L46.0100936,38.352713 Z M50.0023914,31.9225911 C49.4761543,32.409033 48.8639069,32.8295963 48.1656308,33.1842935 C47.4673547,33.5389907 46.7842687,33.7163367 46.1163525,33.7163367 C45.2257974,33.7163367 44.5224719,33.4224491 44.0063548,32.8346651 C43.4902376,32.2468811 43.232183,31.5780335 43.232183,30.8281022 C43.232183,29.6525343 43.7533522,28.6188607 44.7957064,27.7270505 C45.8380606,26.8352404 47.5736049,26.1866609 50.0023914,25.7812926 L50.0023914,31.9225911 Z M76.0813557,36.7565834 L76.0813557,44.4180053 L82.1532915,45.9685312 L81.6371769,49.6168273 L63.8160453,49.6168273 L64.1803615,46.0293361 L68.8557521,44.3876028 L68.8557521,17.5422239 L64.2410809,15.6268684 L64.8179148,11.8873649 L75.5348815,10.9144859 L76.4456718,11.765755 L75.8991976,14.9884166 L76.2027944,15.079624 C77.1135893,13.7824455 78.2723055,12.6727666 79.6789776,11.7505538 C81.0856498,10.828341 82.6997566,10.3672415 84.5213465,10.3672415 C86.3226964,10.3672415 87.9570428,10.838475 89.4244346,11.7809562 C90.8918264,12.7234374 92.0606624,14.1979424 92.9309775,16.2045153 C93.8012927,18.2110882 94.2364437,20.7446018 94.2364437,23.8051322 C94.2364437,26.9264678 93.6140766,29.6271934 92.3693235,31.9073899 C91.1245704,34.1875863 89.4143256,35.9255767 87.2385377,37.1214131 C85.0627499,38.3172494 82.6188201,38.9151587 79.9066752,38.9151587 C78.1053253,38.9151587 76.8403513,38.7834159 76.1117154,38.5199266 L76.0813557,36.7565834 Z M76.0813557,19.2447621 L76.0813557,33.2602997 C76.8302315,33.6048627 77.5588565,33.853147 78.2672526,34.0051601 C78.9756486,34.1571732 79.8054716,34.2331786 80.7567463,34.2331786 C82.5580962,34.2331786 83.9698072,33.5288618 84.9919215,32.1202071 C86.0140358,30.7115524 86.5250853,28.7506129 86.5250853,26.2373296 C86.5250853,23.2376045 86.1152337,20.92704 85.2955183,19.305567 C84.4758028,17.6840939 83.2462481,16.8733696 81.6068173,16.8733696 C79.866187,16.8733696 78.0243849,17.6638258 76.0813557,19.2447621 L76.0813557,19.2447621 Z M117.613397,37.2886266 C119.698105,36.0421192 121.327391,34.2838608 122.501305,32.0137985 C123.675218,29.7437362 124.262166,27.1291501 124.262166,24.1699618 C124.262166,21.2107735 123.756177,18.6823269 122.744182,16.5845461 C121.732188,14.4867654 120.249639,12.8906518 118.296489,11.7961575 C116.34334,10.7016632 113.990489,10.1544242 111.237864,10.1544242 C108.910277,10.1544242 106.663683,10.7421994 104.498015,11.9177673 C102.332347,13.0933353 100.561384,14.7907894 99.1850714,17.0101807 C97.8087591,19.2295719 97.1206133,21.8188229 97.1206133,24.7780112 C97.1206133,27.4737101 97.5861237,29.9008162 98.5171585,32.0594022 C99.4481933,34.2179882 100.920623,35.9407775 102.934492,37.2278217 C104.948361,38.5148659 107.483368,39.1583784 110.539591,39.1583784 C113.170777,39.1583784 115.528688,38.535134 117.613397,37.2886266 L117.613397,37.2886266 Z M114.987284,18.5759078 C115.948679,21.0081173 116.429369,23.9672613 116.429369,27.4534283 C116.429369,29.7234906 116.024577,31.5020172 115.214982,32.7890614 C114.405386,34.0761056 113.180892,34.7196181 111.541461,34.7196181 C109.234114,34.7196181 107.549168,33.6403413 106.486574,31.4817553 C105.42398,29.3231693 104.892691,26.4197627 104.892691,22.7714483 C104.892691,20.3595071 105.302543,18.4492379 106.122258,17.0405831 C106.941974,15.6319284 108.242367,14.9276116 110.023477,14.9276116 C112.371304,14.9276116 114.02589,16.1436982 114.987284,18.5759078 L114.987284,18.5759078 Z M130.212663,29.8856257 C130.192424,32.1759564 130.450478,33.9899522 130.986835,35.3276675 C131.523192,36.6653827 132.347955,37.6179839 133.461149,38.1854994 C134.574343,38.753015 136.041713,39.0367685 137.863303,39.0367685 C139.867051,39.0367685 141.643075,38.6111382 143.191426,37.7598649 C144.739778,36.9085915 145.969332,35.8445158 146.880127,34.5676058 L146.121135,31.7401763 C146.019936,31.8009815 145.782121,31.9327242 145.407683,32.1354084 C145.033245,32.3380925 144.557615,32.5357066 143.980778,32.7282565 C143.403941,32.9208064 142.822053,33.0170799 142.235096,33.0170799 C140.595665,33.0170799 139.436949,32.6421199 138.758913,31.8921886 C138.080877,31.1422573 137.741864,29.8856346 137.741864,28.1222826 L137.802583,16.447735 L146.030056,16.447735 L146.333653,12.1305846 L137.893662,12.1305846 L137.893662,5.44204172 L134.614817,5.44204172 C133.542103,6.98244112 132.332788,8.43667795 130.986835,9.80479583 C129.640883,11.1729137 128.269651,12.333263 126.873099,13.2858784 L126.873099,16.3565276 L130.303742,16.3565276 L130.212663,29.8856257 Z M167.312191,38.2767068 C169.23498,37.6078492 170.813668,36.63498 172.048301,35.3580699 L171.441108,31.9225911 C170.246954,32.5509119 169.088238,32.9613411 167.964924,33.153891 C166.841611,33.346441 165.601936,33.4427145 164.245864,33.4427145 C161.958756,33.4427145 160.228272,32.7434647 159.054359,31.3449442 C157.880445,29.9464237 157.232778,28.1628301 157.111339,25.9941099 L170.803554,25.6900852 C170.924994,25.1428381 171.051491,24.2915775 171.18305,23.1362779 C171.31461,21.9809784 171.380388,21.16012 171.380388,20.673678 C171.380388,18.5657631 171.021136,16.7213651 170.30262,15.1404289 C169.584104,13.5594927 168.567065,12.3434061 167.251472,11.4921328 C165.935879,10.6408594 164.407791,10.2152291 162.66716,10.2152291 C160.481252,10.2152291 158.371276,10.8486076 156.337167,12.1153834 C154.303059,13.3821592 152.643413,15.1606858 151.35818,17.4510165 C150.072947,19.7413471 149.43034,22.3559332 149.43034,25.2948531 C149.43034,28.2743099 149.966689,30.8179576 151.039403,32.9258725 C152.112117,35.0337875 153.559247,36.619767 155.380837,37.6838587 C157.202427,38.7479504 159.236505,39.2799883 161.483133,39.2799883 C163.446402,39.2799883 165.389402,38.9455645 167.312191,38.2767068 L167.312191,38.2767068 Z M163.517231,16.5845461 C164.063708,17.4459537 164.336943,18.6063029 164.336943,20.0656287 C164.336943,20.3493865 164.321763,20.7142124 164.291403,21.1601175 C164.261043,21.6060226 164.215504,21.9201783 164.154785,22.102594 L157.02026,22.8018508 C157.06074,21.2614514 157.263136,19.9237562 157.627454,18.788725 C157.991772,17.6536939 158.467402,16.7872322 159.054359,16.1893141 C159.641315,15.5913959 160.278862,15.2924413 160.967018,15.2924413 C162.120692,15.2924413 162.970754,15.7231386 163.517231,16.5845461 L163.517231,16.5845461 Z M193.967989,34.1419712 L186.803105,32.6826528 L186.803105,23.6835223 C187.147183,22.1431229 187.729071,20.8865002 188.548787,19.9136163 C189.368502,18.9407325 190.334942,18.4542979 191.448136,18.4542979 C192.60181,18.4542979 193.876903,18.9001963 195.273456,19.7920065 C196.143771,19.0623436 196.821797,18.2769544 197.307554,17.4358152 C197.793311,16.5946761 198.036186,15.6370079 198.036186,14.562782 C198.036186,13.3872141 197.646574,12.4042108 196.867339,11.6137427 C196.088103,10.8232745 195.040705,10.4280464 193.725112,10.4280464 C192.20712,10.4280464 190.795409,11.0208886 189.489937,12.2065908 C188.184464,13.392293 187.157305,15.1910876 186.408429,17.6030288 L185.831595,17.4510165 L186.408429,11.8265599 L185.467279,10.853681 L175.570024,11.8569624 L174.96283,15.5660635 L179.577502,17.4814189 L179.577502,33.1082873 L175.02355,34.7500206 L174.537795,38.3071093 L193.603673,38.3071093 L193.967989,34.1419712 Z M214.658111,38.352713 C216.368381,37.6534528 217.729493,36.6552484 218.741487,35.3580699 C219.753482,34.0608915 220.259471,32.5610514 220.259471,30.8585047 C220.259471,29.2978369 219.85468,27.9449406 219.045084,26.7997753 C218.235489,25.6546099 217.263989,24.7020088 216.130555,23.9419433 C214.997121,23.1818778 213.529752,22.3356843 211.728402,21.4033373 C210.493769,20.7750165 209.522269,20.2429786 208.813872,19.8072077 C208.105476,19.3714368 207.518528,18.8900692 207.053011,18.3630905 C206.587494,17.8361117 206.354738,17.2584706 206.354738,16.6301498 C206.354738,15.8194133 206.622913,15.1404317 207.15927,14.5931845 C207.695627,14.0459373 208.419192,13.7723179 209.329987,13.7723179 C210.321741,13.7723179 211.232523,14.0966076 212.062358,14.7451968 C212.892193,15.3937861 213.509501,16.5288002 213.914299,18.1502732 L214.521492,20.0960311 C215.958524,19.9744207 217.15266,19.482919 218.103934,18.6215115 C219.055209,17.7601039 219.530839,16.6909612 219.530839,15.4140511 C219.530839,13.7520412 218.726316,12.4751504 217.117245,11.5833402 C215.508174,10.69153 213.398197,10.2456316 210.787252,10.2456316 C208.398945,10.2456316 206.410406,10.7219322 204.821575,11.6745476 C203.232744,12.627163 202.068967,13.7976463 201.330212,15.1860326 C200.591456,16.5744189 200.222083,17.9171811 200.222083,19.2143596 C200.222083,20.7952958 200.631935,22.1684602 201.45165,23.333894 C202.271366,24.4993277 203.237806,25.4620629 204.351,26.2221284 C205.464193,26.9821939 206.911324,27.8283874 208.692434,28.7607344 C209.846107,29.3485184 210.741709,29.834953 211.379265,30.2200529 C212.016822,30.6051527 212.543051,31.030783 212.957969,31.4969565 C213.372886,31.96313 213.580342,32.4596987 213.580342,32.9866775 C213.580342,33.8784876 213.266629,34.5169331 212.639192,34.9020329 C212.011756,35.2871328 211.100974,35.4796798 209.906821,35.4796798 C208.712668,35.4796798 207.61973,34.9476419 206.627976,33.8835503 C205.636221,32.8194586 204.846877,31.2638812 204.259921,29.2167715 C202.721689,29.3383819 201.517434,29.7944144 200.647119,30.5848825 C199.776804,31.3753506 199.341653,32.3988901 199.341653,33.6555317 C199.341653,34.7297576 199.781864,35.7026269 200.662299,36.5741686 C201.542734,37.4457104 202.726749,38.1348261 204.214381,38.6415364 C205.702013,39.1482468 207.306,39.4015981 209.02639,39.4015981 C211.070619,39.4015981 212.94784,39.0519733 214.658111,38.352713 L214.658111,38.352713 Z" id="Papoters"></path>
            </g>
        </g>
    </g>
</svg>