<?xml version="1.0" encoding="UTF-8" standalone="no"?>
<svg width="340px" height="96px" viewBox="0 0 340 96" version="1.1" xmlns="http://www.w3.org/2000/svg" xmlns:xlink="http://www.w3.org/1999/xlink">
    <!-- Generator: Sketch 40.3 (33839) - http://www.bohemiancoding.com/sketch -->
    <title>Artboard 2</title>
    <desc>Created with Sketch.</desc>
    <defs></defs>
    <g id="Page-1" stroke="none" stroke-width="1" fill="none" fill-rule="evenodd">
        <g id="Artboard-2">
            <g id="Group-2" transform="translate(-13.000000, -9.000000)">
                <g id="Group" transform="translate(111.497612, 10.435385)" fill="#30485F">
                    <path d="M183.093415,46.3605968 C183.184318,45.934824 183.269502,45.4988162 183.348968,45.0525725 C183.610474,43.5840619 183.823806,42.1294269 183.988968,40.6886241 C184.154131,39.2478212 184.271119,37.8901619 184.339936,36.6156055 C184.408754,35.3410491 184.456926,34.2881705 184.484453,33.4569381 L185.434131,33.4569381 L191.875429,33.4569381 C190.499076,37.1420685 189.446183,40.5154362 188.716716,43.5771423 C187.987249,46.6388484 187.622521,49.5411915 187.622521,52.2842585 C187.622521,54.1683853 187.890906,55.7269228 188.427683,56.9599175 C188.964461,58.1929123 189.652627,59.1834494 190.492202,59.9315586 C191.331777,60.6796678 192.267682,61.2061071 193.299947,61.5108923 C194.332211,61.8156776 195.343815,61.9680679 196.334789,61.9680679 C198.151574,61.9680679 199.734356,61.5386042 201.083182,60.6796641 C201.869837,60.1787173 202.590945,59.6023799 203.246513,58.9506457 C203.543039,59.1806395 203.881714,59.4106332 204.26254,59.6406287 C204.950717,60.0562449 205.714581,60.4372207 206.554156,60.7835676 C207.393731,61.1299144 208.274583,61.4139146 209.19674,61.6355766 C210.118896,61.8572386 211.020393,61.9680679 211.901259,61.9680679 C213.635463,61.9680679 215.1976,61.6840677 216.587716,61.1160589 C217.977832,60.5480501 219.182122,59.8207326 220.200623,58.9340847 C222.84322,58.7401305 225.059115,58.2760326 226.848373,57.5417773 C228.637631,56.807522 230.192886,55.9001069 231.514185,54.8195047 C232.009672,54.4038885 232.491388,53.9120834 232.959348,53.3440745 C233.427308,52.7760657 233.847089,52.1872849 234.218704,51.5777145 C234.590319,50.968144 234.886231,50.3724364 235.106447,49.7905737 C235.326663,49.208711 235.43677,48.709979 235.43677,48.2943628 C235.43677,47.9895775 235.347308,47.6432359 235.168383,47.2553274 C234.989457,46.867419 234.75548,46.49337 234.466446,46.1331693 C234.177412,45.7729685 233.847093,45.4751147 233.475477,45.2395989 C233.103862,45.004083 232.739134,44.8863268 232.381283,44.8863268 C231.995904,44.8863268 231.651821,45.0664245 231.349023,45.4266252 C231.046226,45.7868259 230.743433,46.3686799 230.440635,47.1722046 C230.192892,47.8648983 229.883217,48.5298743 229.511602,49.1671525 C229.139987,49.8044307 228.672034,50.3932115 228.107729,50.9335125 C227.543425,51.4738136 226.882785,51.9517651 226.125791,52.3673813 C225.368798,52.7829975 224.494827,53.0877782 223.503853,53.2817324 C223.641488,52.8107007 223.744713,52.3119687 223.813531,51.7855215 C223.882348,51.2590743 223.916757,50.7464887 223.916757,50.2477492 C223.916757,48.2250836 223.627727,46.465668 223.049659,44.9694497 C222.471591,43.4732313 221.735253,42.0601574 220.840624,40.7301855 C219.945995,39.4002136 218.961918,38.056408 217.888363,36.6987283 C216.814808,35.3410487 215.782559,33.7755844 214.791585,32.0022886 C214.819112,31.8914576 214.9361,31.6420916 215.142553,31.2541831 C215.349006,30.8662747 215.576101,30.4021769 215.823844,29.8618758 C216.071587,29.3215747 216.298682,28.7397207 216.505135,28.1162964 C216.711588,27.4928721 216.814813,26.8625303 216.814813,26.2252521 C216.814813,25.0615267 216.560191,24.133331 216.050941,23.4406373 C215.541691,22.7479437 214.777826,22.401602 213.759325,22.401602 C213.181257,22.401602 212.48621,22.6163338 211.674162,23.0458039 C210.862114,23.475274 210.077605,24.0224938 209.320611,24.6874798 C208.563617,25.3524657 207.916741,26.0797832 207.379963,26.869454 C206.843186,27.6591248 206.574801,28.4141496 206.574801,29.134551 C206.574801,29.8549525 206.698671,30.5407089 206.946414,31.191841 C207.194158,31.8429731 207.524477,32.4871686 207.937383,33.1244468 C207.166626,35.3964821 206.388998,37.6754101 205.604477,39.9612993 C204.847433,42.1671274 204.263418,44.1858702 203.852415,46.0175838 C203.713483,46.3410284 203.60245,46.7259012 203.519314,47.1722046 C203.341468,48.0416972 203.122589,48.9642844 202.862671,49.9399899 C202.767675,49.9235019 202.68376,49.9152579 202.610925,49.9152579 C202.142966,49.9152579 201.688776,50.1715507 201.248343,50.6841441 C200.80791,51.1967374 200.511999,51.8547865 200.3606,52.6583112 C200.232877,53.336179 200.266778,54.0879847 200.462302,54.9137446 C200.291973,55.1013308 200.113556,55.2777244 199.927051,55.4429259 C199.238875,56.0524964 198.413076,56.357277 197.449629,56.357277 C196.871561,56.357277 196.3692,56.232594 195.942531,55.9832243 C195.515861,55.7338546 195.164897,55.3944398 194.889626,54.9649697 C194.614356,54.5354996 194.407906,54.0436944 194.270271,53.4895395 C194.132635,52.9353845 194.063819,52.3673842 194.063819,51.7855215 C194.063819,50.3724264 194.160162,48.9247183 194.352851,47.4423538 C194.545541,45.9599893 194.779517,44.5261348 195.054788,43.1407475 C195.330058,41.7553601 195.632851,40.432335 195.963176,39.1716325 C196.2935,37.9109299 196.596293,36.7957098 196.871564,35.8259386 C197.146834,34.8561675 197.380811,34.0526548 197.5735,33.4153766 C197.76619,32.7780985 197.862533,32.3763421 197.862533,32.2100956 C197.945114,31.7113562 197.828126,31.1849169 197.511565,30.6307619 C197.195004,30.076607 196.802749,29.5570945 196.334789,29.0722089 C195.866829,28.5873233 195.391995,28.1924938 194.910271,27.8877086 C194.428548,27.5829234 194.06382,27.4305331 193.816076,27.4305331 L189.398007,27.4305331 L188.737361,27.4305331 C188.517144,27.4305331 188.241878,27.4166794 187.911553,27.3889717 C187.581229,27.3612639 187.175211,27.3266297 186.693488,27.2850681 C186.211764,27.2435065 185.626823,27.181165 184.938647,27.0980418 C184.690903,26.2391016 184.374347,25.5187109 183.988968,24.9368482 C183.60359,24.3549855 183.170045,23.8839609 182.688322,23.5237602 C182.206598,23.1635595 181.697355,22.9141935 181.160578,22.7756547 C180.6238,22.637116 180.107676,22.5678477 179.612189,22.5678477 C179.061648,22.5678477 178.524878,22.6578965 178.001865,22.8379969 C177.478851,23.0180972 177.024661,23.2813169 176.639282,23.6276637 C176.253904,23.9740106 175.944229,24.3896205 175.710249,24.8745061 C175.476269,25.3593917 175.359281,25.8927579 175.359281,26.4746206 C175.359281,27.7214692 175.703364,28.7951283 176.39154,29.6956301 C177.079716,30.5961319 177.946805,31.3373031 178.992833,31.9191658 C178.965306,32.9997679 178.924016,34.2258174 178.868962,35.5973509 C178.813908,36.9688844 178.73821,38.3403973 178.641865,39.7119308 C178.545521,41.0834643 178.414769,42.3857089 178.249607,43.6187037 C178.158283,44.3004675 178.058544,44.9250457 177.950389,45.4924436 C177.9395,45.538959 177.929131,45.5862886 177.919284,45.6344323 C177.872227,45.8817877 177.820701,46.1286426 177.764706,46.3749972 C177.734219,46.5060512 177.703164,46.633249 177.671542,46.7565905 C177.655282,46.8173783 177.640983,46.8779689 177.628644,46.938362 C177.408697,47.798249 177.133965,48.6520058 176.804444,49.4996438 C176.308957,50.7742002 175.655199,51.9240544 174.843151,52.9492411 C174.031103,53.9744278 173.033262,54.7987209 171.849599,55.4221452 C170.665936,56.0455695 169.248314,56.357277 167.596691,56.357277 C166.495609,56.357277 165.525295,56.2187404 164.68572,55.9416629 C163.846145,55.6645854 163.109807,55.2905364 162.476685,54.8195047 C161.843563,54.348473 161.299912,53.7873995 160.845716,53.1362675 C160.391519,52.4851354 160.026791,51.7993789 159.751521,51.0789775 C161.788522,50.469407 163.584636,49.5758456 165.139914,48.3982663 C166.695192,47.220687 168.002708,45.8907351 169.062499,44.4083706 C170.122291,42.9260061 170.920563,41.353615 171.457341,39.6911501 C171.994118,38.0286853 172.262503,36.4078063 172.262503,34.8284647 C172.262503,33.5539083 172.090462,32.3902004 171.746373,31.337306 C171.402285,30.2844115 170.899924,29.3769964 170.239275,28.6150334 C169.578626,27.8530703 168.773471,27.2642895 167.823788,26.8486733 C166.874105,26.4330571 165.807448,26.2252521 164.623784,26.2252521 C162.999688,26.2252521 161.416907,26.7032035 159.875392,27.6591208 C158.333877,28.6150381 156.957545,29.9380632 155.746355,31.6282359 C154.535164,33.3184085 153.557969,35.3202632 152.814738,37.6338601 C152.071508,39.9474571 151.699898,42.4480438 151.699898,45.1356953 C151.699898,46.4964775 151.809762,47.7829216 152.029492,48.995037 C151.933481,49.3828037 151.830498,49.7795932 151.720544,50.1854071 C151.43151,51.2521554 151.0599,52.2426925 150.605704,53.1570482 C150.151507,54.0714038 149.614738,54.8333555 148.995379,55.4429259 C148.37602,56.0524964 147.639683,56.357277 146.786344,56.357277 C145.905479,56.357277 145.203549,56.0524964 144.680535,55.4429259 C144.157521,54.8333555 143.896018,53.8358915 143.896018,52.4505041 L143.896018,25.4771466 C146.153237,25.4771466 148.582462,25.4702198 151.183769,25.4563659 C153.785075,25.442512 156.778597,25.3940242 160.164424,25.310901 C160.522276,25.310901 160.845714,25.103096 161.134748,24.6874798 C161.423782,24.2718635 161.650877,23.7800584 161.816039,23.2120496 C161.981202,22.6440407 162.091308,22.0552599 162.146362,21.4456895 C162.201416,20.836119 162.194535,20.3235334 162.125717,19.9079172 C162.056899,19.492301 161.905503,19.2290813 161.671523,19.1182503 C161.437543,19.0074193 161.127868,19.1598097 160.74249,19.5754259 C157.852149,19.7139646 154.968734,19.8109403 152.092157,19.8663558 C149.21558,19.9217713 146.483561,19.9494786 143.896018,19.9494786 L143.896018,5.02893106 C143.896018,4.0037444 143.49,3.1240366 142.677952,2.38978129 C141.865904,1.65552598 140.757957,1.28840383 139.354078,1.28840383 C139.05128,1.28840383 138.741605,1.30918433 138.425044,1.35074595 C138.108483,1.39230757 137.812572,1.45464907 137.537301,1.53777231 C137.262031,1.62089555 137.041818,1.71787121 136.876655,1.8287022 C136.711493,1.9395332 136.628913,2.07806986 136.628913,2.24431634 C136.628913,2.38285508 136.677085,2.51446491 136.773429,2.63914977 C136.869774,2.76383464 136.966117,2.93007863 137.062462,3.13788674 C137.158807,3.34569485 137.25515,3.629695 137.351495,3.98989572 C137.447839,4.35009644 137.496011,4.83497475 137.496011,5.4445452 L137.496011,19.8663558 C136.339875,19.838648 135.293863,19.8178675 134.357943,19.8040136 C133.422023,19.7901598 132.62375,19.7555256 131.963101,19.7001101 C131.192344,19.6724024 130.490415,19.6308414 129.857292,19.5754259 C129.251697,19.5754259 128.873206,19.8732797 128.721807,20.4689963 C128.570408,21.0647128 128.597935,21.722762 128.804388,22.4431634 C129.010841,23.1635649 129.368687,23.821614 129.877938,24.4173306 C130.387188,25.0130471 130.972129,25.310901 131.632778,25.310901 C132.073211,25.3386087 132.582454,25.366316 133.160522,25.3940238 C133.656009,25.4217315 134.268477,25.442512 134.997944,25.4563659 C135.72741,25.4702198 136.560091,25.4771466 137.496011,25.4771466 L137.496011,45.3806822 C137.478186,45.4358367 137.464423,45.4927125 137.454721,45.5513095 C137.317085,46.3825419 137.096872,47.1722009 136.794075,47.92031 C136.491277,48.6684192 136.092141,49.3195415 135.596654,49.8736965 C135.101167,50.4278514 134.502463,50.8711688 133.800523,51.2036617 C133.098583,51.5361547 132.293429,51.7023987 131.385036,51.7023987 C131.082239,51.7023987 130.80009,51.6954719 130.538583,51.681618 C130.277076,51.6677641 129.994928,51.6054226 129.692131,51.4945916 C130.105037,50.0537887 130.40783,48.5575928 130.600519,47.0059589 C130.793208,45.4543251 130.889552,43.8888608 130.889552,42.3095192 C130.889552,40.2591459 130.703747,38.3611936 130.332132,36.6156055 C129.960516,34.8700174 129.444392,33.3599678 128.783743,32.0854114 C128.123093,30.810855 127.352348,29.8133911 126.471482,29.0929896 C125.590616,28.3725882 124.654711,28.0123929 123.663737,28.0123929 C122.535128,28.0123929 121.544169,28.2825393 120.69083,28.8228404 C119.837491,29.3631415 119.128681,30.090459 118.564376,31.0048147 C118.000071,31.9191703 117.573409,32.9789758 117.284375,34.1842628 C116.99534,35.3895498 116.850826,36.6571603 116.850826,37.9871322 C116.850826,41.0626922 117.36695,43.9234742 118.399215,46.5695641 C119.431479,49.215654 120.938562,51.3976064 122.92051,53.1154868 C122.369969,54.0852579 121.702448,54.8679901 120.917927,55.4637066 C120.133406,56.0594232 119.135566,56.357277 117.924375,56.357277 C117.098564,56.357277 116.320936,56.1356184 115.591469,55.6922944 C114.862002,55.2489704 114.215126,54.5770676 113.650822,53.6765658 C113.086517,52.776064 112.646091,51.6608439 112.32953,50.330872 C112.012969,49.0009002 111.854691,47.4354359 111.854691,45.6344323 C111.854691,43.5286435 111.992324,41.7276669 112.267594,40.2314485 C112.542865,38.7352301 112.880066,37.4676197 113.279209,36.4285791 C113.678351,35.3895386 114.105014,34.5236845 114.55921,33.8309908 C115.013406,33.1382971 115.405661,32.5287358 115.735986,32.0022886 C116.286527,31.6420879 116.609965,31.1295022 116.706309,30.4645163 C116.802654,29.7995303 116.747601,29.1414812 116.541148,28.4903491 C116.334695,27.839217 116.004375,27.2712167 115.550179,26.7863312 C115.095983,26.3014456 114.593621,26.0590064 114.04308,26.0590064 C113.575121,26.0590064 112.86631,26.5161774 111.916626,27.4305331 C110.966943,28.3448887 110.010392,29.6679138 109.046946,31.3996481 C108.083499,33.1313823 107.237055,35.2371396 106.507588,37.716983 C105.778121,40.1968264 105.413393,43.0021938 105.413393,46.1331693 C105.413393,47.117391 105.464651,48.0780198 105.567168,49.0150616 C105.410367,49.2998586 105.255883,49.5722161 105.103715,49.8321351 C104.649519,50.607952 104.112749,51.2660011 103.493391,51.8063022 C102.874032,52.3466033 102.110168,52.7691401 101.201775,53.0739253 C100.293382,53.3787106 99.1372636,53.5726619 97.733384,53.6557851 C98.3665062,52.1041513 98.8895123,50.2408332 99.3024181,48.065775 C99.7153239,45.8907168 99.9217737,43.6117887 99.9217737,41.2289224 C99.9217737,39.1231336 99.7222055,37.155913 99.3230633,35.3272017 C98.923921,33.4984903 98.318335,31.9122456 97.506287,30.5684198 C96.694239,29.224594 95.6757533,28.1647886 94.4507996,27.3889717 C93.2258458,26.6131547 91.7875789,26.2252521 90.1359558,26.2252521 C88.3466975,26.2252521 86.8327324,26.6547157 85.5940151,27.5136559 C84.3552977,28.3725961 83.2955222,29.453182 82.4146565,30.7554462 C82.3596024,29.785675 81.9260579,28.9336745 81.1140098,28.1994192 C80.3019618,27.4651639 79.2215413,27.0980418 77.8727157,27.0980418 C77.5699182,27.0980418 77.2602435,27.1188223 76.9436824,27.1603839 C76.6271213,27.2019455 76.33121,27.264287 76.0559394,27.3474102 C75.7806689,27.4305335 75.5604558,27.5275091 75.3952935,27.6383401 C75.2301312,27.7491711 75.1475513,27.8738541 75.1475513,28.0123929 C75.1475513,28.1786393 75.1957229,28.3241028 75.2920676,28.4487877 C75.3884123,28.5734726 75.4847555,28.7397166 75.5811002,28.9475247 C75.6774449,29.1553328 75.7737881,29.4393329 75.8701328,29.7995337 C75.9664774,30.1597344 76.0146491,30.6446127 76.0146491,31.2541831 L76.0146491,45.9891596 C75.8667558,46.3184067 75.7428851,46.7127541 75.6430357,47.1722046 C75.4503464,48.114268 75.2094883,49.1186588 74.9204542,50.1854071 C74.6314202,51.2521554 74.2598106,52.2426925 73.8056142,53.1570482 C73.3514179,54.0714038 72.8146484,54.8333555 72.1952898,55.4429259 C71.5759311,56.0524964 70.8395935,56.357277 69.986255,56.357277 C69.490768,56.357277 69.0572235,56.2395209 68.6856083,56.004005 C68.3139931,55.7684892 68.0180817,55.4637085 67.7978653,55.0896539 C67.5776489,54.7155993 67.4124891,54.2999893 67.3023809,53.8428115 C67.1922727,53.3856337 67.1372194,52.9215359 67.1372194,52.4505041 L67.1372194,38.4027463 C67.1372194,37.3775596 66.7243198,36.4978518 65.8985083,35.7635965 C65.0726967,35.0293412 63.9578679,34.6622191 62.5539882,34.6622191 C61.9483931,34.6622191 61.4322686,34.7938289 61.0055993,35.0570525 C60.57893,35.3202761 60.3655986,35.6735446 60.3655986,36.1168685 C60.3655986,36.2554073 60.3793619,36.4008708 60.406889,36.5532634 C60.434416,36.705656 60.4688243,36.8788268 60.5101149,37.0727811 C60.5514055,37.2667353 60.5926954,37.5022476 60.633986,37.7793251 C60.6752766,38.0564026 60.6959216,38.4027442 60.6959216,38.8183604 L60.6959216,51.9517672 C60.2279617,53.1432003 59.6086123,54.1752984 58.8378549,55.0480925 C58.0670974,55.9208866 57.1036651,56.357277 55.9475289,56.357277 C54.4610682,56.357277 53.291186,55.7546426 52.4378474,54.5493555 C51.5845088,53.3440685 51.157846,51.6192871 51.157846,49.3749595 C51.157846,46.2993995 51.5845088,43.6464225 52.4378474,41.4159488 C53.291186,39.1854751 54.3853699,37.3429375 55.7204319,35.8882808 C57.0554939,34.433624 58.548814,33.3530381 60.2004371,32.6464905 C61.8520602,31.9399429 63.4761319,31.5866744 65.0727009,31.5866744 C65.5131337,31.5866744 65.9397966,31.6143818 66.3527023,31.6697973 C66.7656081,31.7252128 67.1647444,31.7529201 67.5501231,31.7529201 C67.9630289,31.7529201 68.2451769,31.6074566 68.3965757,31.3165253 C68.5479745,31.0255939 68.6236727,30.5199351 68.6236727,29.7995337 C68.6236727,28.6912237 68.2658264,27.8184428 67.5501231,27.1811646 C66.8344198,26.5438864 65.898514,26.2252521 64.7423779,26.2252521 C62.1548351,26.2252521 59.6567926,26.7516914 57.2481756,27.8045858 C54.8395586,28.8574802 52.6993625,30.3744566 50.827523,32.3555606 C48.9556835,34.3366646 47.4554817,36.7402756 46.3268726,39.5664659 C45.1982635,42.3926561 44.6339674,45.5789993 44.6339674,49.125591 C44.6339674,50.9265946 44.8472988,52.6098151 45.2739681,54.1753028 C45.7006374,55.7407906 46.3406318,57.0984498 47.1939704,58.2483214 C48.047309,59.3981929 49.1002029,60.305608 50.3526837,60.970594 C51.6051646,61.6355799 53.0571947,61.9680679 54.7088178,61.9680679 C56.3053868,61.9680679 57.7023637,61.6286531 58.8997904,60.9498133 C60.0972172,60.2709734 61.1225845,59.4466803 61.9759231,58.4769091 C62.6090452,59.5298035 63.4761343,60.3748772 64.5772164,61.0121554 C65.6782985,61.6494336 66.9720505,61.9680679 68.4585112,61.9680679 C70.2752966,61.9680679 71.86496,61.5386042 73.227549,60.6796641 C74.2743811,60.0197688 75.2034091,59.2290506 76.0146491,58.3074949 L76.0146491,90.6870048 C76.0146491,91.324283 76.1247556,91.864576 76.344972,92.3078999 C76.5651884,92.7512239 77.1019579,92.9728825 77.9552965,92.9728825 C78.3682023,92.9728825 78.8361551,92.9243947 79.3591691,92.8274176 C79.8821831,92.7304405 80.3707809,92.543416 80.8249772,92.2663385 C81.2791736,91.989261 81.6576649,91.6082852 81.9604624,91.1233996 C82.26326,90.638514 82.4146565,90.0081722 82.4146565,89.2323553 L82.4146565,61.5524537 C82.7725082,61.9403622 83.281751,62.2520697 83.9424002,62.4875856 C84.6030495,62.7231014 85.4563753,62.8408576 86.5024032,62.8408576 C87.988864,62.8408576 89.4890658,62.5014428 91.0030536,61.8226029 C92.5170414,61.1437631 93.8520834,60.1809333 95.0082196,58.9340847 C97.8159788,58.9340847 100.258968,58.5531089 102.33726,57.7911458 C104.26976,57.0826347 105.892831,56.2244064 107.206516,55.2164385 C107.548692,55.9380815 107.941953,56.6162165 108.3863,57.2508474 C109.404801,58.7055042 110.684789,59.8553585 112.226304,60.7004448 C113.767819,61.5455311 115.612104,61.9680679 117.759214,61.9680679 C120.181594,61.9680679 122.218566,61.4069944 123.870189,60.2848306 C125.521812,59.1626668 126.870617,57.6872514 127.916645,55.8585401 C128.549767,56.080202 129.203525,56.2325924 129.877938,56.3157156 C130.55235,56.3988389 131.274925,56.4403999 132.045682,56.4403999 C133.477089,56.4403999 134.770841,56.2187412 135.926977,55.7754172 C136.543108,55.53916 137.116236,55.2556904 137.646366,54.9250055 C137.742672,55.6285464 137.885241,56.2722142 138.074076,56.856014 C138.459455,58.0474471 138.996224,59.0241306 139.684401,59.7860937 C140.372577,60.5480567 141.191494,61.1022034 142.141178,61.4485502 C143.090861,61.7948971 144.129991,61.9680679 145.258601,61.9680679 C147.075386,61.9680679 148.658168,61.5386042 150.006993,60.6796641 C151.355819,59.8207239 152.518819,58.7401379 153.49603,57.4378738 C153.938702,56.8479532 154.344655,56.232451 154.713892,55.5913632 C155.19635,56.2988753 155.72631,56.9490121 156.303775,57.5417773 C157.693891,58.9687263 159.290436,60.0631659 161.093458,60.825129 C162.89648,61.5870921 164.761409,61.9680679 166.688303,61.9680679 C168.752832,61.9680679 170.583353,61.7048482 172.179922,61.178401 C173.776491,60.6519538 175.166586,59.9592705 176.35025,59.1003303 C177.533913,58.2413902 178.531754,57.2647067 179.343802,56.1702507 C180.15585,55.0757946 180.823371,53.9605745 181.346385,52.8245569 C181.869399,51.6885392 182.261653,50.5663923 182.52316,49.4580824 C182.784667,48.3497724 182.970472,47.3661622 183.08058,46.507222 C183.086025,46.4578952 183.090303,46.4090201 183.093415,46.3605968 Z M207.415606,51.8779093 C207.757412,52.0377314 208.110263,52.2008885 208.474158,52.3673813 C209.382551,52.7829975 210.29093,53.177827 211.199322,53.5518816 C212.107715,53.9259362 212.995449,54.2307169 213.862551,54.4662327 C214.729654,54.7017486 215.521044,54.8195047 216.236748,54.8195047 C216.704708,54.2653498 217.13137,53.5311055 217.516749,52.6167498 C217.902128,51.7023941 218.094814,50.7049302 218.094814,49.624328 C218.094814,48.2943561 217.915891,47.0613798 217.55804,45.9253622 C217.200188,44.7893445 216.732235,43.7364659 216.154167,42.7666947 C215.576099,41.7969236 214.922341,40.8895084 214.192874,40.0444221 C213.463407,39.1993358 212.72707,38.40275 211.98384,37.6546408 C211.32319,39.289398 210.745131,40.9033501 210.249644,42.4965455 C209.754157,44.089741 209.231151,45.8976445 208.68061,47.92031 C208.616633,48.1778972 208.536394,48.4068365 208.439891,48.6071281 C208.435209,48.6414109 208.432868,48.6756938 208.432868,48.7099769 C208.154721,49.7298765 207.815636,50.7858484 207.415606,51.8779093 Z M15.4013082,15.0036704 C15.4013082,14.2001457 15.3393733,13.6182917 15.2155016,13.258091 C15.0916298,12.8978903 15.0296949,12.5654023 15.0296949,12.2606171 C15.0296949,11.8450008 15.249908,11.4986592 15.6903408,11.2215817 C16.1307737,10.9445042 16.6537798,10.8059676 17.2593749,10.8059676 C18.6632545,10.8059676 19.7987284,11.1730897 20.6658305,11.907345 C21.5329326,12.6416004 21.9664772,13.5351618 21.9664772,14.5880562 L21.9664772,42.392642 C22.929924,42.281811 24.0241079,42.0047377 25.2490616,41.5614137 C26.4740154,41.1180898 27.7333591,40.5016016 29.0271305,39.7119308 C30.320902,38.92226 31.5802457,37.9455766 32.8051995,36.7818512 C34.0301532,35.6181258 35.1243371,34.2604665 36.0877839,32.7088326 C37.0512307,31.1571987 37.8288583,29.40471 38.4206899,27.4513138 C39.0125215,25.4979176 39.3084328,23.3298188 39.3084328,20.9469525 C39.3084328,19.3399032 39.0538114,17.6774632 38.544561,15.9595829 C38.0353105,14.2417025 37.2301564,12.6762383 36.1290743,11.2631431 C35.0279922,9.85004799 33.6034887,8.68634004 31.8555209,7.77198437 C30.1075532,6.8576287 27.9948837,6.40045772 25.517449,6.40045772 C22.1316217,6.40045772 19.2275614,6.92689703 16.8051808,7.97979144 C14.3828003,9.03268585 12.407764,10.4457598 10.8800127,12.2190556 C9.35226131,13.9923515 8.23055079,16.0496209 7.51484745,18.3909256 C6.79914412,20.7322303 6.44129782,23.2051096 6.44129782,25.8096379 C6.44129782,27.6937648 6.59957599,29.2800095 6.91613708,30.5684198 C7.23269817,31.8568301 7.58366281,32.9097087 7.96904153,33.7270873 C8.35442025,34.5444658 8.71226655,35.1471003 9.04259117,35.5350087 C9.37291578,35.9229172 9.56560225,36.1445759 9.62065636,36.1999914 C10.0886162,36.0614526 10.4189359,36.1168673 10.6116253,36.366237 C10.8043146,36.6156068 10.9006578,36.9480947 10.9006578,37.363711 C10.9006578,37.7516194 10.7699063,38.3334734 10.5083993,39.1092903 C10.2468923,39.8851073 9.8959277,40.6124247 9.45549487,41.2912646 C9.01506205,41.9701044 8.50581924,42.48269 7.92775116,42.8290369 C7.34968308,43.1753837 6.75786035,43.1130422 6.15226522,42.6420105 C5.82194061,42.3372253 5.31269779,41.7830786 4.62452151,40.9795539 C3.93634523,40.1760293 3.25506092,39.1023701 2.58064816,37.7585444 C1.90623541,36.4147186 1.30753102,34.7938397 0.784517042,32.895859 C0.261503066,30.9978783 0,28.8020722 0,26.3083749 C0,22.3184592 0.619349366,18.7095792 1.85806668,15.4816266 C3.09678399,12.253674 4.83784387,9.48986764 7.08129856,7.19012458 C9.32475325,4.89038152 12.0017188,3.11711226 15.1122756,1.87026362 C18.2228325,0.623414972 21.6636623,0 25.4348683,0 C28.5178981,0 31.3187335,0.512585644 33.8374587,1.53777231 C36.3561839,2.56295897 38.5032617,3.99681341 40.2787565,5.83937863 C42.0542514,7.68194385 43.4237016,9.87774992 44.3871484,12.4268627 C45.3505952,14.9759755 45.8323114,17.7605624 45.8323114,20.7807069 C45.8323114,24.4935451 45.1716721,27.9223274 43.8503736,31.0671568 C42.5290751,34.2119861 40.7673703,37.0034998 38.5652062,39.4417816 C36.3630421,41.8800634 33.8237097,43.9026987 30.9471328,45.509748 C28.0705559,47.1167974 25.077034,48.211237 21.9664772,48.7930997 L21.9664772,60.0146814 C21.9664772,60.7350829 21.7325007,61.2407417 21.2645409,61.531673 C20.796581,61.8226044 20.2460482,61.9680679 19.612926,61.9680679 C19.1174391,61.9680679 18.6219596,61.8987996 18.1264727,61.7602608 C17.6309858,61.6217221 17.1836779,61.4416244 16.7845357,61.2199624 C16.3853934,60.9983005 16.0550738,60.7420076 15.7935668,60.4510763 C15.5320598,60.1601449 15.4013082,59.8484374 15.4013082,59.5159445 L15.4013082,15.0036704 Z M87.9888565,31.9191658 C87.3832614,31.9191658 86.7983203,32.0992634 86.2340158,32.4594641 C85.6697112,32.8196649 85.1398235,33.31147 84.6443365,33.9348943 C84.1488496,34.5583186 83.715305,35.3133434 83.3436899,36.1999914 C82.9720747,37.0866393 82.6624,38.0425423 82.4146565,39.0677289 L82.4146565,57.4794352 C83.0202516,56.5927873 84.0112106,55.9139576 85.3875632,55.4429259 C86.7639158,54.9718942 88.4292774,54.6532599 90.383698,54.4870134 C90.879185,53.7389042 91.3127295,52.8453428 91.6843447,51.8063022 C92.0559599,50.7672617 92.3656346,49.6936026 92.6133781,48.5852927 C92.8611215,47.4769828 93.0469263,46.3963968 93.1707981,45.3435024 C93.2946698,44.290608 93.3566047,43.3624124 93.3566047,42.5588877 C93.3566047,40.6193453 93.2120899,38.9707591 92.9230558,37.6130794 C92.6340218,36.2553998 92.2417672,35.1540333 91.7462803,34.308947 C91.2507933,33.4638607 90.6796156,32.8542994 90.0327299,32.4802448 C89.3858442,32.1061902 88.7045599,31.9191658 87.9888565,31.9191658 L87.9888565,31.9191658 Z M121.310186,37.6546408 C121.310186,39.5664754 121.606097,41.3813057 122.197929,43.099186 C122.78976,44.8170664 123.567388,46.3132623 124.530835,47.5878187 C124.695997,46.2301391 124.778577,44.9278945 124.778577,43.6810458 C124.778577,42.240243 124.757932,40.9033642 124.716641,39.6703694 C124.675351,38.4373746 124.579007,37.3775692 124.427609,36.4909213 C124.27621,35.6042733 124.06976,34.9046632 123.808253,34.3920699 C123.546746,33.8794765 123.195781,33.6231837 122.755349,33.6231837 C121.791902,33.6231837 121.310186,34.9669893 121.310186,37.6546408 L121.310186,37.6546408 Z M158.636681,44.8863268 C158.636681,45.1356966 158.650444,45.3850626 158.677971,45.6344323 C158.705498,45.883802 158.719261,46.1470217 158.719261,46.4240991 C159.765289,45.9253597 160.714958,45.2880911 161.568297,44.5122741 C162.421636,43.7364572 163.151092,42.8498226 163.756687,41.8523436 C164.362282,40.8548647 164.830235,39.7673519 165.160559,38.5897727 C165.490884,37.4121934 165.656044,36.1861439 165.656044,34.9115875 C165.656044,33.9695241 165.497766,33.2352798 165.181204,32.7088326 C164.864643,32.1823854 164.431099,31.9191658 163.880558,31.9191658 C163.192381,31.9191658 162.579914,32.1546781 162.043136,32.6257098 C161.506359,33.0967415 161.038406,33.7132296 160.639264,34.4751927 C160.240121,35.2371558 159.909802,36.0960831 159.648295,37.0520003 C159.386788,38.0079176 159.173456,38.9707474 159.008294,39.9405186 C158.843132,40.9102898 158.733025,41.8315586 158.677971,42.7043526 C158.622917,43.5771467 158.609154,44.3044641 158.636681,44.8863268 L158.636681,44.8863268 Z" id="Papoters-Copy-7"></path>
                </g>
                <g id="Group-Copy-10" transform="translate(49.368998, 48.775460) rotate(52.000000) translate(-49.368998, -48.775460) translate(15.868998, 12.775460)">
                    <path d="M62.2916469,55.5680653 C62.1325782,56.7445472 60.9064644,58.338715 59.8157073,58.7882246 L55.5979155,60.525599 L43.2310615,50.7955068 L48.8429278,7.74402553 L65.0096477,20.341233 C65.943312,21.0682054 66.7020996,22.933869 66.5430308,24.1093564 L62.2916469,55.5680653 Z" id="Path" fill="#FFC938"></path>
                    <path d="M30.6231344,70.8136002 C30.2852368,70.9538233 29.8169226,71.0303991 29.3041482,71.0303991 C28.2825514,71.0303991 27.2026623,70.7221071 26.6157876,70.2656361 L1.67262256,50.8293194 C0.740934191,50.1033416 -0.0178533681,48.2366834 0.140227373,47.061196 L1.14601609,39.6224092 L13.3231732,34.6071951 L38.0726893,53.8933438 L49.6283915,62.9869623 L30.6231344,70.8136002 L30.6231344,70.8136002 Z" id="Path" fill="#30485F"></path>
                    <path d="M6.86853893,12.3823279 L36.0611119,0.357946736 C36.3990095,0.218718107 36.8663356,0.142142361 37.3791101,0.142142361 C38.4007068,0.142142361 39.4815839,0.449439836 40.0684587,0.906905333 L43.7151838,3.74816387 L42.0296479,16.6904595 L2.01842418,33.1711512 L4.39259932,15.6014927 C4.55166807,14.4260053 5.77778182,12.830843 6.86853893,12.3823279 L6.86853893,12.3823279 Z" id="Path" fill="#42D3AA"></path>
                </g>
            </g>
        </g>
    </g>
</svg>