<?xml version="1.0" encoding="UTF-8" standalone="no"?>
<svg width="295px" height="115px" viewBox="0 0 295 115" version="1.1" xmlns="http://www.w3.org/2000/svg" xmlns:xlink="http://www.w3.org/1999/xlink">
    <!-- Generator: Sketch 40.3 (33839) - http://www.bohemiancoding.com/sketch -->
    <title>Papoters Copy 3</title>
    <desc>Created with Sketch.</desc>
    <defs></defs>
    <g id="Page-1" stroke="none" stroke-width="1" fill="none" fill-rule="evenodd">
        <g id="Logos" transform="translate(-538.000000, -377.000000)" fill="#30485F">
            <path d="M767.908515,434.189731 C768.021388,433.664504 768.127159,433.126651 768.22583,432.576172 C768.550539,430.764639 768.815429,428.970224 769.020508,427.192871 C769.225587,425.415518 769.370849,423.740731 769.456299,422.168457 C769.541748,420.596184 769.601562,419.297368 769.635742,418.271973 L770.814941,418.271973 L778.812988,418.271973 C777.103995,422.817894 775.796635,426.979229 774.890869,430.756104 C773.985103,434.532978 773.532227,438.113264 773.532227,441.49707 C773.532227,443.821301 773.865475,445.743889 774.531982,447.264893 C775.19849,448.785896 776.052973,450.007808 777.095459,450.930664 C778.137945,451.85352 779.300042,452.502928 780.581787,452.878906 C781.863532,453.254885 783.119623,453.442871 784.350098,453.442871 C786.605968,453.442871 788.571281,452.913091 790.246094,451.853516 C791.22287,451.235555 792.118257,450.524594 792.932264,449.720625 C793.300456,450.004342 793.720983,450.288058 794.193848,450.571777 C795.048344,451.084475 795.996821,451.554441 797.039307,451.981689 C798.081792,452.408938 799.175531,452.759276 800.320557,453.032715 C801.465582,453.306154 802.584955,453.442871 803.678711,453.442871 C805.832042,453.442871 807.77172,453.092533 809.497803,452.391846 C811.223886,451.691159 812.719232,450.793951 813.983887,449.700195 C817.265153,449.460936 820.01659,448.888432 822.238281,447.982666 C824.459972,447.0769 826.391105,445.957526 828.031738,444.624512 C828.646976,444.111814 829.245114,443.50513 829.826172,442.804443 C830.407229,442.103756 830.928464,441.377445 831.389893,440.625488 C831.851321,439.873531 832.218749,439.138675 832.492188,438.420898 C832.765626,437.703121 832.902344,437.087893 832.902344,436.575195 C832.902344,436.199217 832.791261,435.771975 832.569092,435.293457 C832.346923,434.814939 832.056398,434.353518 831.69751,433.90918 C831.338621,433.464842 830.928469,433.097414 830.467041,432.806885 C830.005613,432.516356 829.552737,432.371094 829.108398,432.371094 C828.62988,432.371094 828.202639,432.593259 827.82666,433.037598 C827.450682,433.481936 827.074709,434.199702 826.69873,435.190918 C826.391112,436.045414 826.006594,436.865719 825.545166,437.651855 C825.083738,438.437992 824.502689,439.164303 823.802002,439.830811 C823.101315,440.497318 822.281011,441.086911 821.341064,441.599609 C820.401118,442.112307 819.315924,442.48828 818.085449,442.727539 C818.256349,442.146481 818.384521,441.531253 818.469971,440.881836 C818.55542,440.232419 818.598145,439.600101 818.598145,438.984863 C818.598145,436.489734 818.239261,434.319345 817.521484,432.473633 C816.803707,430.62792 815.88941,428.884774 814.778564,427.244141 C813.667719,425.603507 812.445807,423.945809 811.112793,422.270996 C809.779778,420.596183 808.498053,418.66505 807.267578,416.477539 C807.301758,416.34082 807.44702,416.033206 807.703369,415.554688 C807.959718,415.076169 808.241698,414.503665 808.549316,413.837158 C808.856935,413.170651 809.138915,412.452885 809.395264,411.683838 C809.651613,410.914791 809.779785,410.137211 809.779785,409.351074 C809.779785,407.91552 809.463626,406.770512 808.831299,405.916016 C808.198971,405.061519 807.250495,404.634277 805.98584,404.634277 C805.268063,404.634277 804.405034,404.899167 803.396729,405.428955 C802.388423,405.958743 801.414311,406.633785 800.474365,407.454102 C799.534419,408.274418 798.731205,409.171626 798.064697,410.145752 C797.39819,411.119878 797.064941,412.051265 797.064941,412.939941 C797.064941,413.828618 797.218748,414.674557 797.526367,415.477783 C797.833986,416.28101 798.244138,417.07568 798.756836,417.861816 C797.7998,420.664565 796.834233,423.475816 795.860107,426.295654 C794.920099,429.01673 794.194938,431.507021 793.684602,433.766595 C793.512093,434.165592 793.374225,434.640365 793.270996,435.190918 C793.050168,436.263511 792.77839,437.401601 792.455654,438.605216 C792.337699,438.584877 792.233504,438.574707 792.143066,438.574707 C791.562009,438.574707 790.99805,438.890866 790.451172,439.523193 C789.904294,440.155521 789.536866,440.96728 789.348877,441.958496 C789.190286,442.794704 789.232379,443.72212 789.475159,444.740765 C789.263664,444.972168 789.042127,445.189765 788.810547,445.393555 C787.95605,446.145512 786.93067,446.521484 785.734375,446.521484 C785.016598,446.521484 784.392825,446.367677 783.863037,446.060059 C783.333249,445.75244 782.897463,445.333743 782.555664,444.803955 C782.213865,444.274167 781.95752,443.667484 781.786621,442.983887 C781.615722,442.30029 781.530273,441.599613 781.530273,440.881836 C781.530273,439.138663 781.649901,437.352792 781.88916,435.52417 C782.128419,433.695547 782.418944,431.926766 782.760742,430.217773 C783.102541,428.508781 783.478514,426.876717 783.888672,425.321533 C784.29883,423.76635 784.674803,422.390631 785.016602,421.194336 C785.3584,419.998041 785.648925,419.00684 785.888184,418.220703 C786.127443,417.434566 786.24707,416.938966 786.24707,416.733887 C786.34961,416.118649 786.204348,415.469242 785.811279,414.785645 C785.418211,414.102047 784.931155,413.461185 784.350098,412.863037 C783.76904,412.26489 783.179446,411.777834 782.581299,411.401855 C781.983151,411.025877 781.530275,410.837891 781.222656,410.837891 L775.736816,410.837891 L774.916504,410.837891 C774.643065,410.837891 774.301272,410.820801 773.891113,410.786621 C773.480955,410.752441 772.97681,410.709717 772.378662,410.658447 C771.780515,410.607177 771.054203,410.530274 770.199707,410.427734 C769.892088,409.368159 769.499026,408.479496 769.020508,407.761719 C768.54199,407.043942 768.003665,406.462893 767.405518,406.018555 C766.80737,405.574217 766.175052,405.266602 765.508545,405.095703 C764.842038,404.924804 764.201175,404.839355 763.585938,404.839355 C762.90234,404.839355 762.235843,404.950438 761.586426,405.172607 C760.937008,405.394777 760.373049,405.71948 759.894531,406.146729 C759.416013,406.573977 759.031496,407.086667 758.740967,407.684814 C758.450438,408.282962 758.305176,408.940914 758.305176,409.658691 C758.305176,411.196785 758.732418,412.521235 759.586914,413.63208 C760.441411,414.742925 761.51806,415.657223 762.816895,416.375 C762.782715,417.708014 762.731446,419.220451 762.663086,420.912354 C762.594726,422.604257 762.500733,424.296134 762.381104,425.988037 C762.261474,427.67994 762.099122,429.286369 761.894043,430.807373 C761.780648,431.648387 761.656804,432.418857 761.52251,433.11879 C761.508988,433.176171 761.496114,433.234556 761.483887,433.293945 C761.425457,433.599079 761.361478,433.903596 761.29195,434.207495 C761.254095,434.369161 761.215535,434.52607 761.17627,434.678223 C761.156081,434.75321 761.138326,434.827953 761.123004,434.902453 C760.8499,435.963197 760.50877,437.016378 760.099609,438.062012 C759.484372,439.634285 758.672612,441.052728 757.664307,442.317383 C756.656001,443.582038 755.417,444.598873 753.947266,445.36792 C752.477532,446.136967 750.717295,446.521484 748.666504,446.521484 C747.29931,446.521484 746.094488,446.350588 745.052002,446.008789 C744.009516,445.66699 743.095219,445.205569 742.309082,444.624512 C741.522945,444.043454 740.847903,443.351322 740.283936,442.548096 C739.719968,441.744869 739.267092,440.89893 738.925293,440.010254 C741.454602,439.258297 743.684805,438.156013 745.615967,436.703369 C747.547129,435.250725 749.170648,433.610117 750.486572,431.781494 C751.802497,429.952872 752.793698,428.013194 753.460205,425.962402 C754.126712,423.911611 754.459961,421.912119 754.459961,419.963867 C754.459961,418.391594 754.24634,416.956061 753.819092,415.657227 C753.391844,414.358392 752.768071,413.239018 751.947754,412.299072 C751.127437,411.359126 750.127691,410.632815 748.948486,410.120117 C747.769281,409.607419 746.444832,409.351074 744.975098,409.351074 C742.958486,409.351074 740.993174,409.940668 739.079102,411.119873 C737.165029,412.299078 735.456062,413.931142 733.952148,416.016113 C732.448235,418.101085 731.234868,420.570542 730.312012,423.424561 C729.389156,426.278579 728.927734,429.363265 728.927734,432.678711 C728.927734,434.357351 729.064151,435.944289 729.336985,437.439536 C729.21777,437.91788 729.089898,438.407353 728.953369,438.907959 C728.594481,440.223884 728.133059,441.445795 727.569092,442.57373 C727.005124,443.701666 726.338627,444.641598 725.56958,445.393555 C724.800533,446.145512 723.886236,446.521484 722.82666,446.521484 C721.732905,446.521484 720.861331,446.145512 720.211914,445.393555 C719.562497,444.641598 719.237793,443.411141 719.237793,441.702148 L719.237793,408.428223 C722.040541,408.428223 725.056869,408.419678 728.286865,408.402588 C731.516862,408.385498 735.233866,408.325684 739.437988,408.223145 C739.882326,408.223145 740.283934,407.966799 740.642822,407.454102 C741.001711,406.941404 741.28369,406.33472 741.48877,405.634033 C741.693849,404.933346 741.830566,404.207035 741.898926,403.455078 C741.967285,402.703121 741.958741,402.070803 741.873291,401.558105 C741.787841,401.045408 741.599855,400.720704 741.309326,400.583984 C741.018797,400.447265 740.63428,400.635251 740.155762,401.147949 C736.566877,401.318849 732.98659,401.438476 729.414795,401.506836 C725.843,401.575196 722.4507,401.609375 719.237793,401.609375 L719.237793,383.203613 C719.237793,381.938959 718.733648,380.853764 717.725342,379.947998 C716.717036,379.042232 715.341317,378.589355 713.598145,378.589355 C713.222166,378.589355 712.837648,378.61499 712.44458,378.66626 C712.051512,378.71753 711.684084,378.794433 711.342285,378.896973 C711.000487,378.999512 710.727052,379.11914 710.521973,379.255859 C710.316894,379.392579 710.214355,379.563476 710.214355,379.768555 C710.214355,379.939454 710.274169,380.101806 710.393799,380.255615 C710.513428,380.409425 710.633056,380.614501 710.752686,380.87085 C710.872315,381.127199 710.991943,381.477537 711.111572,381.921875 C711.231202,382.366213 711.291016,382.964352 711.291016,383.716309 L711.291016,401.506836 C709.855462,401.472656 708.556646,401.447022 707.394531,401.429932 C706.232416,401.412842 705.241215,401.370118 704.420898,401.301758 C703.463862,401.267578 702.592289,401.216309 701.806152,401.147949 C701.054195,401.147949 700.584229,401.515377 700.39624,402.250244 C700.208251,402.985111 700.24243,403.796871 700.498779,404.685547 C700.755128,405.574223 701.19946,406.385983 701.831787,407.12085 C702.464114,407.855717 703.190426,408.223145 704.010742,408.223145 C704.55762,408.257324 705.189938,408.291504 705.907715,408.325684 C706.522952,408.359863 707.283443,408.385498 708.189209,408.402588 C709.094975,408.419678 710.1289,408.428223 711.291016,408.428223 L711.291016,432.980923 C711.268883,433.048961 711.251793,433.119122 711.239746,433.191406 C711.068847,434.216802 710.795412,435.190913 710.419434,436.11377 C710.043455,437.036626 709.547855,437.83984 708.932617,438.523438 C708.31738,439.207035 707.573979,439.753904 706.702393,440.164062 C705.830806,440.574221 704.83106,440.779297 703.703125,440.779297 C703.327147,440.779297 702.976808,440.770752 702.6521,440.753662 C702.327391,440.736572 701.977053,440.659669 701.601074,440.522949 C702.113772,438.745597 702.489745,436.899912 702.729004,434.98584 C702.968263,433.071768 703.087891,431.140635 703.087891,429.192383 C703.087891,426.663073 702.85718,424.321788 702.395752,422.168457 C701.934324,420.015126 701.293461,418.152352 700.473145,416.580078 C699.652828,415.007805 698.695806,413.777348 697.602051,412.888672 C696.508295,411.999996 695.346198,411.555664 694.115723,411.555664 C692.714348,411.555664 691.483892,411.888913 690.424316,412.55542 C689.364741,413.221927 688.484623,414.119135 687.783936,415.24707 C687.083248,416.375006 686.553469,417.682366 686.19458,419.169189 C685.835692,420.656013 685.65625,422.219718 685.65625,423.860352 C685.65625,427.654316 686.297113,431.183333 687.578857,434.44751 C688.860602,437.711686 690.731921,440.40331 693.192871,442.522461 C692.509274,443.718756 691.680425,444.684322 690.706299,445.419189 C689.732173,446.154056 688.493172,446.521484 686.989258,446.521484 C685.963862,446.521484 684.998296,446.24805 684.092529,445.701172 C683.186763,445.154294 682.383548,444.325445 681.682861,443.2146 C680.982174,442.103754 680.435305,440.728036 680.042236,439.087402 C679.649168,437.446769 679.452637,435.515636 679.452637,433.293945 C679.452637,430.696276 679.623533,428.474619 679.965332,426.628906 C680.307131,424.783194 680.725828,423.219489 681.221436,421.937744 C681.717043,420.655999 682.246823,419.587895 682.810791,418.733398 C683.374759,417.878902 683.861814,417.126956 684.271973,416.477539 C684.95557,416.033201 685.357177,415.400883 685.476807,414.580566 C685.596436,413.76025 685.528077,412.94849 685.271729,412.145264 C685.01538,411.342037 684.605227,410.64136 684.04126,410.043213 C683.477292,409.445065 682.853519,409.145996 682.169922,409.145996 C681.588864,409.145996 680.708746,409.709955 679.529541,410.837891 C678.350336,411.965826 677.162604,413.59789 675.966309,415.734131 C674.770014,417.870372 673.718999,420.468002 672.813232,423.5271 C671.907466,426.586197 671.45459,430.046856 671.45459,433.90918 C671.45459,435.123301 671.518236,436.308318 671.64553,437.464239 C671.450833,437.81556 671.259012,438.151536 671.070068,438.472168 C670.506101,439.429204 669.839603,440.240963 669.070557,440.907471 C668.30151,441.573978 667.353033,442.095213 666.225098,442.471191 C665.097162,442.84717 663.66163,443.086425 661.918457,443.188965 C662.704594,441.274893 663.354001,438.976332 663.866699,436.293213 C664.379397,433.610094 664.635742,430.798843 664.635742,427.859375 C664.635742,425.261706 664.387942,422.834972 663.892334,420.579102 C663.396726,418.323231 662.64478,416.366463 661.636475,414.70874 C660.628169,413.051017 659.363533,411.743657 657.842529,410.786621 C656.321526,409.829585 654.535655,409.351074 652.484863,409.351074 C650.263172,409.351074 648.383308,409.880854 646.845215,410.94043 C645.307121,412.000005 643.991216,413.333 642.897461,414.939453 C642.829101,413.743158 642.290777,412.692143 641.282471,411.786377 C640.274165,410.880611 638.932626,410.427734 637.257812,410.427734 C636.881834,410.427734 636.497316,410.453369 636.104248,410.504639 C635.71118,410.555908 635.343752,410.632812 635.001953,410.735352 C634.660155,410.837891 634.38672,410.957519 634.181641,411.094238 C633.976561,411.230958 633.874023,411.384765 633.874023,411.555664 C633.874023,411.760743 633.933837,411.940185 634.053467,412.093994 C634.173096,412.247804 634.292724,412.45288 634.412354,412.709229 C634.531983,412.965577 634.651611,413.315916 634.77124,413.760254 C634.89087,414.204592 634.950684,414.802731 634.950684,415.554688 L634.950684,433.731532 C634.767047,434.137686 634.613239,434.624147 634.489258,435.190918 C634.249999,436.353033 633.95093,437.592034 633.592041,438.907959 C633.233153,440.223884 632.771731,441.445795 632.207764,442.57373 C631.643796,443.701666 630.977299,444.641598 630.208252,445.393555 C629.439205,446.145512 628.524908,446.521484 627.465332,446.521484 C626.850095,446.521484 626.31177,446.376222 625.850342,446.085693 C625.388914,445.795165 625.021486,445.419192 624.748047,444.957764 C624.474608,444.496336 624.269532,443.983645 624.132812,443.419678 C623.996093,442.85571 623.927734,442.283206 623.927734,441.702148 L623.927734,424.373047 C623.927734,423.108392 623.415044,422.023198 622.389648,421.117432 C621.364253,420.211665 619.979989,419.758789 618.236816,419.758789 C617.48486,419.758789 616.843997,419.921141 616.314209,420.24585 C615.784421,420.570558 615.519531,421.006345 615.519531,421.553223 C615.519531,421.724122 615.536621,421.903564 615.570801,422.091553 C615.604981,422.279542 615.647705,422.493163 615.698975,422.732422 C615.750244,422.971681 615.801513,423.262205 615.852783,423.604004 C615.904053,423.945802 615.929688,424.373044 615.929688,424.885742 L615.929688,441.086914 C615.34863,442.556648 614.579595,443.829829 613.622559,444.906494 C612.665523,445.98316 611.469245,446.521484 610.033691,446.521484 C608.187979,446.521484 606.735357,445.778084 605.675781,444.29126 C604.616206,442.804436 604.086426,440.676772 604.086426,437.908203 C604.086426,434.114239 604.616206,430.841566 605.675781,428.090088 C606.735357,425.338609 608.093986,423.065683 609.751709,421.27124 C611.409432,419.476798 613.263662,418.143803 615.314453,417.272217 C617.365245,416.40063 619.381826,415.964844 621.364258,415.964844 C621.911136,415.964844 622.440915,415.999023 622.953613,416.067383 C623.466311,416.135743 623.961912,416.169922 624.44043,416.169922 C624.953128,416.169922 625.303466,415.99048 625.491455,415.631592 C625.679444,415.272703 625.773438,414.64893 625.773438,413.760254 C625.773438,412.39306 625.329106,411.31641 624.44043,410.530273 C623.551753,409.744137 622.389656,409.351074 620.954102,409.351074 C617.741195,409.351074 614.639419,410.000482 611.648682,411.299316 C608.657944,412.598151 606.0005,414.46947 603.67627,416.91333 C601.352039,419.35719 599.489265,422.322248 598.087891,425.808594 C596.686516,429.294939 595.98584,433.225564 595.98584,437.600586 C595.98584,439.822277 596.25073,441.898672 596.780518,443.829834 C597.310305,445.760996 598.104975,447.435784 599.164551,448.854248 C600.224126,450.272712 601.531486,451.392086 603.08667,452.212402 C604.641853,453.032719 606.444814,453.442871 608.495605,453.442871 C610.478037,453.442871 612.212639,453.024174 613.699463,452.186768 C615.186287,451.349361 616.459467,450.332526 617.519043,449.13623 C618.30518,450.435065 619.381829,451.477535 620.749023,452.263672 C622.116218,453.049809 623.722647,453.442871 625.568359,453.442871 C627.82423,453.442871 629.798087,452.913091 631.48999,451.853516 C632.789823,451.039479 633.943381,450.064061 634.950684,448.927244 L634.950684,488.870117 C634.950684,489.656254 635.087401,490.322751 635.36084,490.869629 C635.634279,491.416507 636.300776,491.689941 637.360352,491.689941 C637.873049,491.689941 638.454098,491.630128 639.103516,491.510498 C639.752933,491.390869 640.359616,491.160158 640.923584,490.818359 C641.487552,490.476561 641.957518,490.006595 642.333496,489.408447 C642.709475,488.8103 642.897461,488.03272 642.897461,487.075684 L642.897461,452.930176 C643.341799,453.408694 643.974117,453.793211 644.794434,454.08374 C645.61475,454.374269 646.67431,454.519531 647.973145,454.519531 C649.818857,454.519531 651.681631,454.100834 653.561523,453.263428 C655.441416,452.426021 657.099114,451.238289 658.534668,449.700195 C662.021014,449.700195 665.05443,449.230229 667.63501,448.290283 C670.034561,447.416275 672.0499,446.357577 673.681079,445.114163 C674.105953,446.004371 674.594258,446.840908 675.145996,447.623779 C676.410651,449.418222 677.99999,450.836665 679.914062,451.87915 C681.828135,452.921636 684.118151,453.442871 686.78418,453.442871 C689.792007,453.442871 692.321279,452.750739 694.37207,451.366455 C696.422862,449.982171 698.09765,448.162121 699.396484,445.90625 C700.182621,446.179689 700.994381,446.367675 701.831787,446.470215 C702.669194,446.572754 703.566401,446.624023 704.523438,446.624023 C706.30079,446.624023 707.907219,446.350589 709.342773,445.803711 C710.107812,445.512268 710.819455,445.162584 711.477709,444.754656 C711.59729,445.622533 711.774316,446.416552 712.008789,447.136719 C712.487307,448.606453 713.153804,449.811275 714.008301,450.751221 C714.862797,451.691167 715.879633,452.374754 717.058838,452.802002 C718.238043,453.22925 719.528313,453.442871 720.929687,453.442871 C723.185558,453.442871 725.150871,452.913091 726.825684,451.853516 C728.500497,450.79394 729.944574,449.460946 731.157959,447.854492 C731.707618,447.126775 732.211683,446.367501 732.670158,445.576665 C733.269217,446.449441 733.927259,447.25144 734.644287,447.982666 C736.37037,449.742929 738.352772,451.093013 740.591553,452.032959 C742.830333,452.972905 745.145984,453.442871 747.538574,453.442871 C750.102064,453.442871 752.37499,453.118167 754.357422,452.46875 C756.339854,451.819333 758.065911,450.964849 759.535645,449.905273 C761.005378,448.845698 762.24438,447.640876 763.252686,446.290771 C764.260991,444.940667 765.089841,443.564948 765.739258,442.163574 C766.388675,440.7622 766.875731,439.377937 767.200439,438.010742 C767.525148,436.643548 767.755859,435.430181 767.892578,434.370605 C767.899339,434.309757 767.904651,434.249465 767.908515,434.189731 Z M798.108955,440.995804 C798.533369,441.192958 798.971497,441.394226 799.42334,441.599609 C800.551275,442.112307 801.679194,442.599363 802.807129,443.060791 C803.935064,443.522219 805.037348,443.898192 806.114014,444.188721 C807.190679,444.479249 808.173335,444.624512 809.062012,444.624512 C809.643069,443.940915 810.172849,443.035162 810.651367,441.907227 C811.129885,440.779291 811.369141,439.548835 811.369141,438.21582 C811.369141,436.575187 811.146975,435.054206 810.702637,433.652832 C810.258299,432.251458 809.67725,430.952643 808.959473,429.756348 C808.241696,428.560053 807.429936,427.440679 806.52417,426.398193 C805.618404,425.355708 804.704106,424.373051 803.78125,423.450195 C802.960933,425.466807 802.243167,427.457754 801.62793,429.423096 C801.012692,431.388438 800.363285,433.61864 799.679688,436.11377 C799.600249,436.431525 799.500617,436.713941 799.380791,436.961018 C799.374977,437.003309 799.37207,437.0456 799.37207,437.087891 C799.026701,438.346023 798.605664,439.648654 798.108955,440.995804 Z M557.123535,395.508301 C557.123535,394.517085 557.046632,393.799319 556.892822,393.35498 C556.739013,392.910642 556.662109,392.50049 556.662109,392.124512 C556.662109,391.611814 556.935544,391.184572 557.482422,390.842773 C558.0293,390.500975 558.678707,390.330078 559.430664,390.330078 C561.173837,390.330078 562.583735,390.782954 563.6604,391.688721 C564.737066,392.594487 565.275391,393.696771 565.275391,394.995605 L565.275391,429.294922 C566.471686,429.158202 567.830315,428.816409 569.351318,428.269531 C570.872322,427.722654 572.436027,426.962163 574.04248,425.988037 C575.648934,425.013911 577.212639,423.809089 578.733643,422.373535 C580.254646,420.937981 581.613275,419.263193 582.80957,417.349121 C584.005865,415.435049 584.971432,413.273205 585.706299,410.863525 C586.441166,408.453845 586.808594,405.779312 586.808594,402.839844 C586.808594,400.857412 586.492435,398.806651 585.860107,396.6875 C585.22778,394.568349 584.228034,392.637216 582.86084,390.894043 C581.493646,389.15087 579.724864,387.715338 577.554443,386.587402 C575.384022,385.459467 572.760758,384.895508 569.68457,384.895508 C565.480448,384.895508 561.874527,385.544915 558.866699,386.84375 C555.858872,388.142585 553.406504,389.885731 551.509521,392.073242 C549.612539,394.260753 548.219731,396.79857 547.331055,399.686768 C546.442378,402.574966 545.998047,405.625472 545.998047,408.838379 C545.998047,411.162609 546.194578,413.119377 546.587646,414.70874 C546.980715,416.298104 547.416502,417.596919 547.89502,418.605225 C548.373538,419.61353 548.817869,420.356931 549.228027,420.835449 C549.638186,421.313967 549.877441,421.587402 549.945801,421.655762 C550.526858,421.484862 550.937011,421.553221 551.17627,421.86084 C551.415529,422.168459 551.535156,422.578611 551.535156,423.091309 C551.535156,423.569827 551.372804,424.287593 551.048096,425.244629 C550.723387,426.201665 550.2876,427.098873 549.740723,427.936279 C549.193845,428.773686 548.561527,429.406004 547.84375,429.833252 C547.125973,430.2605 546.391117,430.183597 545.63916,429.602539 C545.229002,429.226561 544.596684,428.542974 543.742188,427.551758 C542.887691,426.560542 542.041752,425.236092 541.204346,423.578369 C540.366939,421.920646 539.623538,419.921154 538.974121,417.579834 C538.324704,415.238514 538,412.529801 538,409.453613 C538,404.531714 538.769035,400.079854 540.307129,396.0979 C541.845223,392.115947 544.007066,388.706557 546.792725,385.869629 C549.578383,383.032701 552.902324,380.845223 556.764648,379.307129 C560.626972,377.769035 564.899391,377 569.582031,377 C573.410175,377 576.887924,377.632318 580.015381,378.896973 C583.142838,380.161627 585.808827,381.930409 588.013428,384.203369 C590.218029,386.47633 591.918451,389.185043 593.114746,392.32959 C594.311041,395.474137 594.90918,398.909161 594.90918,402.634766 C594.90918,407.214867 594.088875,411.444561 592.448242,415.323975 C590.807609,419.203389 588.620131,422.646958 585.885742,425.654785 C583.151354,428.662613 579.998309,431.157705 576.426514,433.140137 C572.854718,435.122569 569.137715,436.472653 565.275391,437.19043 L565.275391,451.033203 C565.275391,451.921879 564.984866,452.545653 564.403809,452.904541 C563.822751,453.26343 563.139164,453.442871 562.353027,453.442871 C561.73779,453.442871 561.122562,453.357423 560.507324,453.186523 C559.892087,453.015624 559.336672,452.793458 558.841064,452.52002 C558.345457,452.246581 557.935304,451.930422 557.610596,451.571533 C557.285887,451.212645 557.123535,450.828127 557.123535,450.417969 L557.123535,395.508301 Z M649.818848,416.375 C649.066891,416.375 648.34058,416.597166 647.639893,417.041504 C646.939205,417.485842 646.281253,418.092525 645.666016,418.861572 C645.050778,419.630619 644.512453,420.562006 644.051025,421.655762 C643.589597,422.749517 643.20508,423.928705 642.897461,425.193359 L642.897461,447.905762 C643.649418,446.812006 644.879874,445.974612 646.588867,445.393555 C648.29786,444.812497 650.365711,444.419435 652.79248,444.214355 C653.407718,443.291499 653.946043,442.189215 654.407471,440.907471 C654.868899,439.625726 655.253416,438.301276 655.561035,436.934082 C655.868654,435.566888 656.099364,434.233893 656.253174,432.935059 C656.406983,431.636224 656.483887,430.491216 656.483887,429.5 C656.483887,427.10741 656.304445,425.073739 655.945557,423.398926 C655.586668,421.724113 655.099612,420.365484 654.484375,419.322998 C653.869138,418.280512 653.159916,417.528567 652.356689,417.067139 C651.553463,416.605711 650.707524,416.375 649.818848,416.375 L649.818848,416.375 Z M691.193359,423.450195 C691.193359,425.808606 691.560787,428.047353 692.295654,430.166504 C693.030521,432.285655 693.996088,434.13134 695.192383,435.703613 C695.397462,434.0288 695.5,432.422371 695.5,430.884277 C695.5,429.106925 695.474365,427.457771 695.423096,425.936768 C695.371826,424.415764 695.252198,423.108404 695.064209,422.014648 C694.87622,420.920893 694.619875,420.057864 694.295166,419.425537 C693.970457,418.79321 693.534671,418.477051 692.987793,418.477051 C691.791498,418.477051 691.193359,420.134749 691.193359,423.450195 L691.193359,423.450195 Z M737.541016,432.371094 C737.541016,432.678712 737.558105,432.986327 737.592285,433.293945 C737.626465,433.601564 737.643555,433.926268 737.643555,434.268066 C738.942389,433.652829 740.121577,432.866704 741.181152,431.909668 C742.240728,430.952632 743.146481,429.858893 743.898437,428.628418 C744.650394,427.397943 745.231443,426.056404 745.641602,424.60376 C746.05176,423.151116 746.256836,421.63868 746.256836,420.066406 C746.256836,418.904291 746.060305,417.998538 745.667236,417.349121 C745.274168,416.699704 744.735843,416.375 744.052246,416.375 C743.19775,416.375 742.437259,416.665524 741.770752,417.246582 C741.104245,417.82764 740.523196,418.58813 740.027588,419.528076 C739.53198,420.468022 739.121828,421.527582 738.797119,422.706787 C738.47241,423.885992 738.207521,425.073724 738.002441,426.27002 C737.797362,427.466315 737.660645,428.602778 737.592285,429.679443 C737.523925,430.756109 737.506836,431.653317 737.541016,432.371094 L737.541016,432.371094 Z" id="Papoters-Copy-3"></path>
        </g>
    </g>
</svg>