<?xml version="1.0" encoding="UTF-8" standalone="no"?>
<svg width="296px" height="116px" viewBox="0 0 296 116" version="1.1" xmlns="http://www.w3.org/2000/svg" xmlns:xlink="http://www.w3.org/1999/xlink">
    <!-- Generator: Sketch 40.3 (33839) - http://www.bohemiancoding.com/sketch -->
    <title>Papoters Copy</title>
    <desc>Created with Sketch.</desc>
    <defs></defs>
    <g id="Page-1" stroke="none" stroke-width="1" fill="none" fill-rule="evenodd">
        <path d="M230.596991,57.6692231 C230.709864,57.1439962 230.815636,56.6061436 230.914307,56.0556641 C231.239015,54.2441316 231.503905,52.4497159 231.708984,50.6723633 C231.914064,48.8950106 232.059326,47.2202227 232.144775,45.6479492 C232.230225,44.0756757 232.290039,42.7768606 232.324219,41.7514648 L233.503418,41.7514648 L241.501465,41.7514648 C239.792472,46.297386 238.485112,50.4587214 237.579346,54.2355957 C236.673579,58.0124701 236.220703,61.5927565 236.220703,64.9765625 C236.220703,67.3007929 236.553952,69.2233811 237.220459,70.7443848 C237.886966,72.2653885 238.74145,73.4873001 239.783936,74.4101562 C240.826421,75.3330124 241.988519,75.98242 243.270264,76.3583984 C244.552008,76.7343769 245.808099,76.9223633 247.038574,76.9223633 C249.294445,76.9223633 251.259757,76.3925834 252.93457,75.3330078 C253.911346,74.7150474 254.806734,74.0040864 255.620741,73.2001169 C255.988932,73.4838338 256.409459,73.7675505 256.882324,74.0512695 C257.736821,74.5639674 258.685298,75.0339334 259.727783,75.4611816 C260.770269,75.8884299 261.864008,76.2387682 263.009033,76.512207 C264.154058,76.7856459 265.273432,76.9223633 266.367188,76.9223633 C268.520519,76.9223633 270.460196,76.572025 272.186279,75.8713379 C273.912362,75.1706508 275.407709,74.273443 276.672363,73.1796875 C279.95363,72.9404285 282.705067,72.3679245 284.926758,71.4621582 C287.148449,70.556392 289.079582,69.4370184 290.720215,68.1040039 C291.335452,67.591306 291.933591,66.9846226 292.514648,66.2839355 C293.095706,65.5832484 293.616941,64.8569374 294.078369,64.1049805 C294.539797,63.3530236 294.907225,62.6181677 295.180664,61.9003906 C295.454103,61.1826136 295.59082,60.5673854 295.59082,60.0546875 C295.59082,59.6787091 295.479737,59.2514672 295.257568,58.7729492 C295.035399,58.2944312 294.744875,57.83301 294.385986,57.3886719 C294.027098,56.9443337 293.616946,56.5769057 293.155518,56.286377 C292.694089,55.9958482 292.241213,55.8505859 291.796875,55.8505859 C291.318357,55.8505859 290.891115,56.0727517 290.515137,56.5170898 C290.139158,56.961428 289.763185,57.6791943 289.387207,58.6704102 C289.079588,59.5249066 288.695071,60.3452109 288.233643,61.1313477 C287.772214,61.9174844 287.191166,62.6437955 286.490479,63.3103027 C285.789791,63.97681 284.969487,64.5664037 284.029541,65.0791016 C283.089595,65.5917994 282.004401,65.9677722 280.773926,66.2070312 C280.944825,65.6259737 281.072998,65.0107454 281.158447,64.3613281 C281.243897,63.7119108 281.286621,63.0795929 281.286621,62.4643555 C281.286621,59.9692258 280.927738,57.7988374 280.209961,55.953125 C279.492184,54.1074126 278.577886,52.364266 277.467041,50.7236328 C276.356196,49.0829996 275.134284,47.4253013 273.80127,45.7504883 C272.468255,44.0756752 271.18653,42.1445422 269.956055,39.9570312 C269.990235,39.8203118 270.135497,39.5126977 270.391846,39.0341797 C270.648195,38.5556617 270.930174,37.9831576 271.237793,37.3166504 C271.545412,36.6501432 271.827391,35.9323769 272.08374,35.1633301 C272.340089,34.3942833 272.468262,33.6167031 272.468262,32.8305664 C272.468262,31.3950124 272.152103,30.2500043 271.519775,29.3955078 C270.887448,28.5410114 269.938971,28.1137695 268.674316,28.1137695 C267.956539,28.1137695 267.093511,28.3786595 266.085205,28.9084473 C265.076899,29.4382351 264.102788,30.1132771 263.162842,30.9335938 C262.222896,31.7539104 261.419681,32.6511182 260.753174,33.6252441 C260.086667,34.5993701 259.753418,35.5307573 259.753418,36.4194336 C259.753418,37.3081099 259.907225,38.1540487 260.214844,38.9572754 C260.522462,39.7605021 260.932615,40.5551719 261.445312,41.3413086 C260.488276,44.144057 259.52271,46.9553082 258.548584,49.7751465 C257.608576,52.4962227 256.883414,54.9865132 256.373079,57.2460873 C256.20057,57.6450838 256.062701,58.1198571 255.959473,58.6704102 C255.738645,59.7430031 255.466866,60.8810927 255.144131,62.0847083 C255.026176,62.0643689 254.92198,62.0541992 254.831543,62.0541992 C254.250485,62.0541992 253.686526,62.3703582 253.139648,63.0026855 C252.592771,63.6350129 252.225343,64.4467724 252.037354,65.4379883 C251.878762,66.2741957 251.920856,67.2016118 252.163635,68.2202568 C251.95214,68.4516603 251.730603,68.6692568 251.499023,68.8730469 C250.644527,69.6250038 249.619147,70.0009766 248.422852,70.0009766 C247.705075,70.0009766 247.081301,69.8471695 246.551514,69.5395508 C246.021726,69.2319321 245.585939,68.8132351 245.244141,68.2834473 C244.902342,67.7536595 244.645997,67.1469761 244.475098,66.4633789 C244.304198,65.7797817 244.21875,65.0791052 244.21875,64.3613281 C244.21875,62.6181553 244.338378,60.8322845 244.577637,59.0036621 C244.816896,57.1750397 245.10742,55.4062585 245.449219,53.6972656 C245.791017,51.9882727 246.16699,50.3562089 246.577148,48.8010254 C246.987307,47.2458418 247.36328,45.8701232 247.705078,44.6738281 C248.046877,43.4775331 248.337401,42.4863321 248.57666,41.7001953 C248.815919,40.9140586 248.935547,40.4184581 248.935547,40.2133789 C249.038086,39.5981415 248.892824,38.9487339 248.499756,38.2651367 C248.106687,37.5815396 247.619632,36.9406768 247.038574,36.3425293 C246.457517,35.7443818 245.867923,35.2573261 245.269775,34.8813477 C244.671628,34.5053692 244.218752,34.3173828 243.911133,34.3173828 L238.425293,34.3173828 L237.60498,34.3173828 C237.331542,34.3173828 236.989748,34.3002931 236.57959,34.2661133 C236.169432,34.2319334 235.665286,34.1892092 235.067139,34.1379395 C234.468991,34.0866697 233.74268,34.0097661 232.888184,33.9072266 C232.580565,32.847651 232.187502,31.958988 231.708984,31.2412109 C231.230466,30.5234339 230.692142,29.942385 230.093994,29.4980469 C229.495847,29.0537087 228.863529,28.7460946 228.197021,28.5751953 C227.530514,28.404296 226.889652,28.3188477 226.274414,28.3188477 C225.590817,28.3188477 224.92432,28.4299305 224.274902,28.6520996 C223.625485,28.8742687 223.061526,29.1989725 222.583008,29.6262207 C222.10449,30.0534689 221.719972,30.5661591 221.429443,31.1643066 C221.138915,31.7624542 220.993652,32.4204066 220.993652,33.1381836 C220.993652,34.6762772 221.420894,36.0007269 222.275391,37.1115723 C223.129887,38.2224177 224.206536,39.1367152 225.505371,39.8544922 C225.471191,41.1875067 225.419922,42.6999427 225.351562,44.3918457 C225.283203,46.0837487 225.18921,47.7756263 225.06958,49.4675293 C224.949951,51.1594323 224.787599,52.7658615 224.58252,54.2868652 C224.469124,55.1278787 224.34528,55.8983489 224.210986,56.5982824 C224.197465,56.6556631 224.18459,56.7140482 224.172363,56.7734375 C224.113933,57.0785714 224.049955,57.3830878 223.980427,57.6869872 C223.942571,57.8486535 223.904011,58.0055626 223.864746,58.1577148 C223.844557,58.2327018 223.826802,58.3074454 223.811481,58.3819455 C223.538377,59.4426891 223.197247,60.4958705 222.788086,61.5415039 C222.172848,63.1137774 221.361089,64.5322202 220.352783,65.796875 C219.344477,67.0615298 218.105476,68.0783653 216.635742,68.8474121 C215.166008,69.6164589 213.405772,70.0009766 211.35498,70.0009766 C209.987786,70.0009766 208.782964,69.8300798 207.740479,69.4882812 C206.697993,69.1464827 205.783695,68.6850615 204.997559,68.1040039 C204.211422,67.5229463 203.53638,66.8308146 202.972412,66.0275879 C202.408444,65.2243612 201.955568,64.3784224 201.61377,63.4897461 C204.143079,62.7377892 206.373281,61.6355053 208.304443,60.1828613 C210.235605,58.7302173 211.859124,57.0896088 213.175049,55.2609863 C214.490973,53.4323639 215.482174,51.492686 216.148682,49.4418945 C216.815189,47.391103 217.148438,45.3916113 217.148438,43.4433594 C217.148438,41.8710859 216.934817,40.4355534 216.507568,39.1367188 C216.08032,37.8378841 215.456547,36.7185106 214.63623,35.7785645 C213.815914,34.8386183 212.816168,34.1123073 211.636963,33.5996094 C210.457758,33.0869115 209.133308,32.8305664 207.663574,32.8305664 C205.646963,32.8305664 203.68165,33.4201601 201.767578,34.5993652 C199.853506,35.7785703 198.144539,37.4106341 196.640625,39.4956055 C195.136711,41.5805768 193.923344,44.0500346 193.000488,46.9040527 C192.077632,49.7580709 191.616211,52.8427569 191.616211,56.1582031 C191.616211,57.8368435 191.752627,59.4237814 192.025462,60.9190286 C191.906246,61.3973718 191.778375,61.8868453 191.641846,62.3874512 C191.282957,63.7033757 190.821536,64.9252873 190.257568,66.0532227 C189.693601,67.181158 189.027103,68.12109 188.258057,68.8730469 C187.48901,69.6250038 186.574712,70.0009766 185.515137,70.0009766 C184.421381,70.0009766 183.549808,69.6250038 182.900391,68.8730469 C182.250973,68.12109 181.92627,66.8906335 181.92627,65.1816406 L181.92627,31.9077148 C184.729018,31.9077148 187.745345,31.89917 190.975342,31.8820801 C194.205338,31.8649901 197.922342,31.8051763 202.126465,31.7026367 C202.570803,31.7026367 202.97241,31.4462916 203.331299,30.9335938 C203.690187,30.4208959 203.972167,29.8142125 204.177246,29.1135254 C204.382325,28.4128383 204.519043,27.6865272 204.587402,26.9345703 C204.655762,26.1826134 204.647217,25.5502955 204.561768,25.0375977 C204.476318,24.5248998 204.288332,24.200196 203.997803,24.0634766 C203.707274,23.9267571 203.322756,24.1147435 202.844238,24.6274414 C199.255353,24.7983407 195.675067,24.9179684 192.103271,24.9863281 C188.531476,25.0546878 185.139176,25.0888672 181.92627,25.0888672 L181.92627,6.68310547 C181.92627,5.41845071 181.422124,4.33325648 180.413818,3.42749023 C179.405513,2.52172399 178.029794,2.06884766 176.286621,2.06884766 C175.910643,2.06884766 175.526125,2.09448217 175.133057,2.14575195 C174.739988,2.19702174 174.37256,2.27392527 174.030762,2.37646484 C173.688963,2.47900442 173.415528,2.59863213 173.210449,2.73535156 C173.00537,2.872071 172.902832,3.04296772 172.902832,3.24804688 C172.902832,3.41894617 172.962646,3.58129806 173.082275,3.73510742 C173.201905,3.88891678 173.321533,4.09399286 173.441162,4.3503418 C173.560792,4.60669073 173.680419,4.95702903 173.800049,5.40136719 C173.919678,5.84570535 173.979492,6.4438439 173.979492,7.19580078 L173.979492,24.9863281 C172.543938,24.9521483 171.245123,24.9265138 170.083008,24.9094238 C168.920893,24.8923339 167.929692,24.8496097 167.109375,24.78125 C166.152339,24.7470701 165.280766,24.6958011 164.494629,24.6274414 C163.742672,24.6274414 163.272706,24.9948694 163.084717,25.7297363 C162.896728,26.4646033 162.930907,27.2763627 163.187256,28.1650391 C163.443605,29.0537154 163.887936,29.8654748 164.520264,30.6003418 C165.152591,31.3352088 165.878902,31.7026367 166.699219,31.7026367 C167.246096,31.7368166 167.878414,31.7709959 168.596191,31.8051758 C169.211429,31.8393556 169.971919,31.8649901 170.877686,31.8820801 C171.783452,31.89917 172.817377,31.9077148 173.979492,31.9077148 L173.979492,56.4604153 C173.95736,56.528453 173.94027,56.5986141 173.928223,56.6708984 C173.757323,57.6962942 173.483889,58.6704055 173.10791,59.5932617 C172.731932,60.5161179 172.236331,61.3193325 171.621094,62.0029297 C171.005856,62.6865269 170.262456,63.2333964 169.390869,63.6435547 C168.519283,64.053713 167.519537,64.2587891 166.391602,64.2587891 C166.015623,64.2587891 165.665285,64.2502442 165.340576,64.2331543 C165.015868,64.2160644 164.665529,64.1391608 164.289551,64.0024414 C164.802249,62.2250888 165.178221,60.3794041 165.41748,58.465332 C165.656739,56.55126 165.776367,54.6201269 165.776367,52.671875 C165.776367,50.1425655 165.545657,47.8012803 165.084229,45.6479492 C164.6228,43.4946181 163.981938,41.6318438 163.161621,40.0595703 C162.341304,38.4872968 161.384283,37.2568404 160.290527,36.3681641 C159.196772,35.4794877 158.034674,35.0351562 156.804199,35.0351562 C155.402825,35.0351562 154.172369,35.3684049 153.112793,36.0349121 C152.053217,36.7014193 151.173099,37.5986272 150.472412,38.7265625 C149.771725,39.8544978 149.241945,41.1618578 148.883057,42.6486816 C148.524168,44.1355055 148.344727,45.6992105 148.344727,47.3398438 C148.344727,51.133808 148.985589,54.6628255 150.267334,57.927002 C151.549079,61.1911784 153.420398,63.8828019 155.881348,66.0019531 C155.19775,67.1982482 154.368901,68.1638147 153.394775,68.8986816 C152.420649,69.6335486 151.181648,70.0009766 149.677734,70.0009766 C148.652339,70.0009766 147.686772,69.7275418 146.781006,69.1806641 C145.87524,68.6337863 145.072025,67.8049372 144.371338,66.6940918 C143.670651,65.5832464 143.123781,64.2075277 142.730713,62.5668945 C142.337645,60.9262613 142.141113,58.9951283 142.141113,56.7734375 C142.141113,54.1757683 142.31201,51.9541108 142.653809,50.1083984 C142.995607,48.2626861 143.414304,46.698981 143.909912,45.4172363 C144.40552,44.1354916 144.9353,43.0673871 145.499268,42.2128906 C146.063235,41.3583942 146.550291,40.6064486 146.960449,39.9570312 C147.644046,39.5126931 148.045654,38.8803752 148.165283,38.0600586 C148.284913,37.239742 148.216554,36.4279825 147.960205,35.6247559 C147.703856,34.8215292 147.293704,34.1208526 146.729736,33.5227051 C146.165769,32.9245576 145.541996,32.6254883 144.858398,32.6254883 C144.277341,32.6254883 143.397223,33.1894475 142.218018,34.3173828 C141.038812,35.4453181 139.85108,37.0773819 138.654785,39.213623 C137.45849,41.3498642 136.407475,43.9474945 135.501709,47.0065918 C134.595943,50.0656891 134.143066,53.5263479 134.143066,57.3886719 C134.143066,58.6027929 134.206713,59.7878101 134.334006,60.9437307 C134.139309,61.2950519 133.947489,61.631028 133.758545,61.9516602 C133.194577,62.9086962 132.52808,63.7204557 131.759033,64.3869629 C130.989986,65.0534701 130.04151,65.5747052 128.913574,65.9506836 C127.785639,66.326662 126.350106,66.5659175 124.606934,66.668457 C125.39307,64.754385 126.042478,62.455824 126.555176,59.7727051 C127.067874,57.0895862 127.324219,54.278335 127.324219,51.3388672 C127.324219,48.7411979 127.076418,46.3144644 126.580811,44.0585938 C126.085203,41.8027231 125.333257,39.8459556 124.324951,38.1882324 C123.316645,36.5305093 122.05201,35.2231493 120.531006,34.2661133 C119.010002,33.3090772 117.224131,32.8305664 115.17334,32.8305664 C112.951649,32.8305664 111.071785,33.3603463 109.533691,34.4199219 C107.995598,35.4794975 106.679693,36.812492 105.585938,38.4189453 C105.517578,37.2226503 104.979253,36.1716354 103.970947,35.2658691 C102.962641,34.3601029 101.621102,33.9072266 99.9462891,33.9072266 C99.5703106,33.9072266 99.185793,33.9328611 98.7927246,33.9841309 C98.3996562,34.0354006 98.0322283,34.1123042 97.6904297,34.2148438 C97.3486311,34.3173833 97.0751963,34.437011 96.8701172,34.5737305 C96.665038,34.7104499 96.5625,34.864257 96.5625,35.0351562 C96.5625,35.2402354 96.6223139,35.419677 96.7419434,35.5734863 C96.8615729,35.7272957 96.9812006,35.9323718 97.1008301,36.1887207 C97.2204596,36.4450696 97.3400873,36.7954079 97.4597168,37.2397461 C97.5793463,37.6840843 97.6391602,38.2822228 97.6391602,39.0341797 L97.6391602,57.2110238 C97.4555237,57.6171779 97.3017156,58.1036389 97.1777344,58.6704102 C96.9384754,59.8325253 96.6394061,61.0715266 96.2805176,62.3874512 C95.9216291,63.7033757 95.4602079,64.9252873 94.8962402,66.0532227 C94.3322726,67.181158 93.6657753,68.12109 92.8967285,68.8730469 C92.1276817,69.6250038 91.2133842,70.0009766 90.1538086,70.0009766 C89.5385711,70.0009766 89.0002464,69.8557143 88.5388184,69.5651855 C88.0773903,69.2746568 87.7099623,68.8986839 87.4365234,68.4372559 C87.1630846,67.9758278 86.9580085,67.4631376 86.8212891,66.8991699 C86.6845696,66.3352023 86.6162109,65.7626982 86.6162109,65.1816406 L86.6162109,47.8525391 C86.6162109,46.5878843 86.1035208,45.5026901 85.078125,44.5969238 C84.0527292,43.6911576 82.6684657,43.2382812 80.925293,43.2382812 C80.1733361,43.2382812 79.5324734,43.4006331 79.0026855,43.7253418 C78.4728977,44.0500505 78.2080078,44.4858371 78.2080078,45.0327148 C78.2080078,45.2036141 78.2250975,45.3830557 78.2592773,45.5710449 C78.2934572,45.7590341 78.3361814,45.9726551 78.3874512,46.2119141 C78.438721,46.4511731 78.48999,46.7416975 78.5412598,47.0834961 C78.5925296,47.4252947 78.6181641,47.8525365 78.6181641,48.3652344 L78.6181641,64.5664062 C78.0371065,66.0361402 77.2680712,67.3093208 76.3110352,68.3859863 C75.3539991,69.4626519 74.157722,70.0009766 72.722168,70.0009766 C70.8764556,70.0009766 69.4238334,69.2575758 68.3642578,67.770752 C67.3046822,66.2839281 66.7749023,64.1562638 66.7749023,61.3876953 C66.7749023,57.593731 67.3046822,54.3210587 68.3642578,51.5695801 C69.4238334,48.8181015 70.7824624,46.545175 72.4401855,44.7507324 C74.0979087,42.9562899 75.9521382,41.6232954 78.0029297,40.751709 C80.0537212,39.8801226 82.0703026,39.4443359 84.0527344,39.4443359 C84.5996121,39.4443359 85.129392,39.4785153 85.6420898,39.546875 C86.1547877,39.6152347 86.6503882,39.6494141 87.1289062,39.6494141 C87.6416041,39.6494141 87.9919424,39.4699725 88.1799316,39.111084 C88.3679209,38.7521955 88.4619141,38.1284224 88.4619141,37.2397461 C88.4619141,35.8725518 88.0175826,34.7959024 87.1289062,34.0097656 C86.2402299,33.2236289 85.0781322,32.8305664 83.6425781,32.8305664 C80.4296714,32.8305664 77.3278958,33.479974 74.3371582,34.7788086 C71.3464206,36.0776432 68.6889765,37.9489624 66.3647461,40.3928223 C64.0405157,42.8366821 62.1777414,45.8017404 60.7763672,49.2880859 C59.374993,52.7744315 58.6743164,56.7050563 58.6743164,61.0800781 C58.6743164,63.3017689 58.9392063,65.3781642 59.4689941,67.3093262 C59.9987819,69.2404882 60.7934517,70.9152761 61.8530273,72.3337402 C62.912603,73.7522044 64.2199629,74.8715779 65.7751465,75.6918945 C67.33033,76.5122111 69.1332905,76.9223633 71.184082,76.9223633 C73.1665138,76.9223633 74.9011156,76.5036663 76.3879395,75.6662598 C77.8747633,74.8288532 79.1479439,73.8120177 80.2075195,72.6157227 C80.9936563,73.9145573 82.0703057,74.9570273 83.4375,75.7431641 C84.8046943,76.5293008 86.4111236,76.9223633 88.2568359,76.9223633 C90.5127066,76.9223633 92.4865638,76.3925834 94.1784668,75.3330078 C95.4782998,74.518971 96.6318577,73.543553 97.6391602,72.4067358 L97.6391602,112.349609 C97.6391602,113.135746 97.7758775,113.802243 98.0493164,114.349121 C98.3227553,114.895999 98.9892525,115.169434 100.048828,115.169434 C100.561526,115.169434 101.142575,115.10962 101.791992,114.98999 C102.441409,114.870361 103.048093,114.63965 103.612061,114.297852 C104.176028,113.956053 104.645994,113.486087 105.021973,112.887939 C105.397951,112.289792 105.585938,111.512212 105.585938,110.555176 L105.585938,76.409668 C106.030276,76.888186 106.662594,77.2727036 107.48291,77.5632324 C108.303227,77.8537612 109.362786,77.9990234 110.661621,77.9990234 C112.507333,77.9990234 114.370108,77.5803265 116.25,76.7429199 C118.129892,75.9055134 119.78759,74.7177811 121.223145,73.1796875 C124.70949,73.1796875 127.742907,72.7097215 130.323486,71.7697754 C132.723037,70.8957668 134.738376,69.8370694 136.369556,68.5936554 C136.79443,69.4838633 137.282735,70.3204003 137.834473,71.1032715 C139.099127,72.8977141 140.688467,74.3161569 142.602539,75.3586426 C144.516611,76.4011283 146.806627,76.9223633 149.472656,76.9223633 C152.480484,76.9223633 155.009755,76.2302315 157.060547,74.8459473 C159.111338,73.461663 160.786126,71.6416128 162.084961,69.3857422 C162.871098,69.6591811 163.682857,69.8471675 164.520264,69.949707 C165.35767,70.0522466 166.254878,70.1035156 167.211914,70.1035156 C168.989267,70.1035156 170.595696,69.8300809 172.03125,69.2832031 C172.796289,68.9917598 173.507932,68.6420759 174.166186,68.2341481 C174.285766,69.1020255 174.462793,69.8960443 174.697266,70.6162109 C175.175784,72.0859448 175.842281,73.2907668 176.696777,74.2307129 C177.551274,75.170659 178.568109,75.8542459 179.747314,76.2814941 C180.92652,76.7087424 182.21679,76.9223633 183.618164,76.9223633 C185.874035,76.9223633 187.839347,76.3925834 189.51416,75.3330078 C191.188973,74.2734322 192.633051,72.9404377 193.846436,71.3339844 C194.396094,70.6062673 194.90016,69.8469931 195.358634,69.0561569 C195.957694,69.9289331 196.615736,70.730932 197.332764,71.4621582 C199.058847,73.2224209 201.041249,74.5725051 203.280029,75.5124512 C205.51881,76.4523973 207.834461,76.9223633 210.227051,76.9223633 C212.79054,76.9223633 215.063467,76.5976595 217.045898,75.9482422 C219.02833,75.2988249 220.754387,74.4443412 222.224121,73.3847656 C223.693855,72.32519 224.932856,71.1203681 225.941162,69.7702637 C226.949468,68.4201593 227.778317,67.0444406 228.427734,65.6430664 C229.077152,64.2416922 229.564207,62.8574287 229.888916,61.4902344 C230.213625,60.12304 230.444335,58.9096733 230.581055,57.8500977 C230.587816,57.7892489 230.593128,57.7289573 230.596991,57.6692231 Z M260.797431,64.4752962 C261.221846,64.6724504 261.659974,64.8737185 262.111816,65.0791016 C263.239752,65.5917994 264.36767,66.0788551 265.495605,66.5402832 C266.623541,67.0017113 267.725825,67.3776841 268.80249,67.6682129 C269.879156,67.9587417 270.861812,68.1040039 271.750488,68.1040039 C272.331546,67.4204067 272.861326,66.5146541 273.339844,65.3867188 C273.818362,64.2587834 274.057617,63.028327 274.057617,61.6953125 C274.057617,60.0546793 273.835451,58.5336984 273.391113,57.1323242 C272.946775,55.73095 272.365726,54.4321349 271.647949,53.2358398 C270.930172,52.0395448 270.118413,50.9201712 269.212646,49.8776855 C268.30688,48.8351999 267.392583,47.8525437 266.469727,46.9296875 C265.64941,48.9462991 264.931644,50.937246 264.316406,52.9025879 C263.701169,54.8679297 263.051761,57.0981321 262.368164,59.5932617 C262.288725,59.9110174 262.189093,60.1934333 262.069268,60.4405101 C262.063454,60.4828009 262.060547,60.5250917 262.060547,60.5673828 C261.715177,61.8255155 261.294141,63.1281464 260.797431,64.4752962 Z M19.8120117,18.987793 C19.8120117,17.9965771 19.7351082,17.2788108 19.5812988,16.8344727 C19.4274895,16.3901345 19.3505859,15.9799823 19.3505859,15.6040039 C19.3505859,15.091306 19.6240207,14.6640642 20.1708984,14.3222656 C20.7177762,13.980467 21.3671837,13.8095703 22.1191406,13.8095703 C23.8623134,13.8095703 25.2722114,14.2624466 26.348877,15.1682129 C27.4255425,16.0739791 27.9638672,17.176263 27.9638672,18.4750977 L27.9638672,52.7744141 C29.1601622,52.6376946 30.5187912,52.2959012 32.0397949,51.7490234 C33.5607986,51.2021457 35.1245037,50.4416553 36.730957,49.4675293 C38.3374104,48.4934033 39.9011154,47.2885814 41.4221191,45.8530273 C42.9431228,44.4174733 44.3017518,42.7426854 45.4980469,40.8286133 C46.6943419,38.9145412 47.6599084,36.7526976 48.3947754,34.3430176 C49.1296423,31.9333376 49.4970703,29.2588038 49.4970703,26.3193359 C49.4970703,24.3369042 49.1809114,22.2861434 48.548584,20.1669922 C47.9162566,18.047841 46.9165107,16.1167079 45.5493164,14.3735352 C44.1821221,12.6303624 42.4133409,11.1948299 40.2429199,10.0668945 C38.0724989,8.9389592 35.4492341,8.375 32.3730469,8.375 C28.1689243,8.375 24.5630033,9.02440757 21.5551758,10.3232422 C18.5473482,11.6220768 16.0949802,13.3652234 14.197998,15.5527344 C12.3010159,17.7402453 10.9082076,20.2780617 10.0195312,23.1662598 C9.13085493,26.0544578 8.68652344,29.1049644 8.68652344,32.3178711 C8.68652344,34.6421015 8.88305468,36.598869 9.27612305,38.1882324 C9.66919142,39.7775958 10.1049781,41.076411 10.5834961,42.0847168 C11.0620141,43.0930226 11.5063456,43.8364234 11.9165039,44.3149414 C12.3266622,44.7934594 12.5659176,45.0668942 12.6342773,45.1352539 C13.2153349,44.9643546 13.6254871,45.0327133 13.8647461,45.340332 C14.1040051,45.6479508 14.2236328,46.0581029 14.2236328,46.5708008 C14.2236328,47.0493188 14.0612809,47.7670851 13.7365723,48.7241211 C13.4118636,49.6811571 12.976077,50.578365 12.4291992,51.4157715 C11.8823215,52.253178 11.2500036,52.8854959 10.5322266,53.3127441 C9.81444954,53.7399924 9.0795936,53.6630888 8.32763672,53.0820312 C7.91747842,52.7060528 7.28516052,52.0224659 6.43066406,51.03125 C5.5761676,50.0400341 4.7302288,48.7155845 3.89282227,47.0578613 C3.05541573,45.4001382 2.31201497,43.4006465 1.66259766,41.0593262 C1.01318035,38.7180059 0.688476562,36.0092927 0.688476562,32.9331055 C0.688476562,28.0112059 1.45751184,23.5593461 2.99560547,19.5773926 C4.5336991,15.5954391 6.69554271,12.1860493 9.48120117,9.34912109 C12.2668596,6.51219285 15.590801,4.32471472 19.453125,2.78662109 C23.315449,1.24852747 27.5878672,0.479492188 32.2705078,0.479492188 C36.098652,0.479492188 39.5764004,1.11181008 42.7038574,2.37646484 C45.8313145,3.6411196 48.4973034,5.40990074 50.7019043,7.68286133 C52.9065052,9.95582191 54.6069276,12.6645351 55.8032227,15.809082 C56.9995177,18.953629 57.5976562,22.3886532 57.5976562,26.1142578 C57.5976562,30.6943588 56.777352,34.9240529 55.1367188,38.8034668 C53.4960855,42.6828807 51.3086074,46.1264498 48.5742188,49.1342773 C45.8398301,52.1421049 42.6867854,54.6371971 39.1149902,56.6196289 C35.543195,58.6020607 31.8261912,59.9521448 27.9638672,60.6699219 L27.9638672,74.5126953 C27.9638672,75.4013716 27.6733427,76.0251447 27.0922852,76.3840332 C26.5112276,76.7429217 25.8276406,76.9223633 25.0415039,76.9223633 C24.4262665,76.9223633 23.8110382,76.8369149 23.1958008,76.6660156 C22.5805633,76.4951163 22.025149,76.2729506 21.529541,75.9995117 C21.0339331,75.7260729 20.6237809,75.4099139 20.2990723,75.0510254 C19.9743636,74.6921369 19.8120117,74.3076192 19.8120117,73.8974609 L19.8120117,18.987793 Z M112.507324,39.8544922 C111.755367,39.8544922 111.029056,40.0766579 110.328369,40.5209961 C109.627682,40.9653343 108.96973,41.5720176 108.354492,42.3410645 C107.739255,43.1101113 107.20093,44.0414984 106.739502,45.1352539 C106.278074,46.2290094 105.893556,47.4081968 105.585938,48.6728516 L105.585938,71.3852539 C106.337894,70.2914984 107.568351,69.4541045 109.277344,68.8730469 C110.986337,68.2919893 113.054187,67.8989268 115.480957,67.6938477 C116.096194,66.7709915 116.634519,65.6687076 117.095947,64.3869629 C117.557375,63.1052182 117.941893,61.7807686 118.249512,60.4135742 C118.55713,59.0463799 118.787841,57.7133854 118.94165,56.4145508 C119.09546,55.1157162 119.172363,53.9707081 119.172363,52.9794922 C119.172363,50.5869021 118.992922,48.553231 118.634033,46.878418 C118.275145,45.2036049 117.788089,43.8449759 117.172852,42.8024902 C116.557614,41.7600046 115.848393,41.0080589 115.045166,40.5466309 C114.241939,40.0852028 113.396001,39.8544922 112.507324,39.8544922 L112.507324,39.8544922 Z M153.881836,46.9296875 C153.881836,49.2880977 154.249264,51.5268449 154.984131,53.6459961 C155.718998,55.7651473 156.684564,57.610832 157.880859,59.1831055 C158.085939,57.5082924 158.188477,55.9018632 158.188477,54.3637695 C158.188477,52.5864169 158.162842,50.9372635 158.111572,49.4162598 C158.060302,47.8952561 157.940675,46.5878961 157.752686,45.4941406 C157.564696,44.4003852 157.308351,43.5373567 156.983643,42.9050293 C156.658934,42.2727019 156.223147,41.956543 155.67627,41.956543 C154.479974,41.956543 153.881836,43.6142412 153.881836,46.9296875 L153.881836,46.9296875 Z M200.229492,55.8505859 C200.229492,56.1582047 200.246582,56.4658188 200.280762,56.7734375 C200.314942,57.0810562 200.332031,57.40576 200.332031,57.7475586 C201.630866,57.1323211 202.810053,56.3461962 203.869629,55.3891602 C204.929205,54.4321241 205.834957,53.3383851 206.586914,52.1079102 C207.338871,50.8774353 207.91992,49.5358959 208.330078,48.083252 C208.740236,46.630608 208.945312,45.1181719 208.945312,43.5458984 C208.945312,42.3837833 208.748781,41.4780306 208.355713,40.8286133 C207.962645,40.179196 207.42432,39.8544922 206.740723,39.8544922 C205.886226,39.8544922 205.125736,40.1450166 204.459229,40.7260742 C203.792721,41.3071318 203.211672,42.0676223 202.716064,43.0075684 C202.220457,43.9475145 201.810304,45.0070742 201.485596,46.1862793 C201.160887,47.3654844 200.895997,48.5532167 200.690918,49.7495117 C200.485839,50.9458068 200.349121,52.08227 200.280762,53.1589355 C200.212402,54.2356011 200.195312,55.1328089 200.229492,55.8505859 L200.229492,55.8505859 Z" id="Papoters-Copy" fill="#30485F"></path>
    </g>
</svg>