<?xml version="1.0" encoding="UTF-8" standalone="no"?>
<svg width="152px" height="83px" viewBox="0 0 152 83" version="1.1" xmlns="http://www.w3.org/2000/svg" xmlns:xlink="http://www.w3.org/1999/xlink">
    <!-- Generator: Sketch 40.3 (33839) - http://www.bohemiancoding.com/sketch -->
    <title>search-by-algolia-white</title>
    <desc>Created with Sketch.</desc>
    <defs></defs>
    <g id="Page-1" stroke="none" stroke-width="1" fill="none" fill-rule="evenodd">
        <g id="Pictos" transform="translate(-110.000000, -286.000000)" fill="#FFFFFF">
            <g id="search-by-algolia-white" transform="translate(110.000000, 286.000000)">
                <path d="M58.7835006,71.6494118 C58.7835006,75.5592941 57.7802715,78.4138039 55.7578528,80.2311373 C53.7354341,82.0484706 50.6505045,82.9537255 46.4871037,82.9537255 C44.9685797,82.9537255 41.810688,82.6603137 39.2843747,82.1053333 L40.2146417,77.5631373 C42.3237029,78.0021176 45.116784,78.1203922 46.5760263,78.1203922 C48.8948536,78.1203922 50.5456215,77.6518431 51.5351702,76.7147451 C52.5224389,75.7776471 53.010373,74.3879216 53.010373,72.5410196 L53.010373,71.6016471 C52.2788729,71.9376411 51.5245902,72.221898 50.7531075,72.4523137 C49.8228405,72.7320784 48.7466493,72.8753725 47.5359342,72.8753725 C45.9398878,72.8753725 44.496606,72.6251765 43.1810078,72.1293333 C41.9043879,71.6576966 40.7498023,70.9069465 39.8019497,69.9321569 C38.82401,68.8903456 38.0794293,67.6529188 37.6176463,66.3020392 C37.1000713,64.8531765 36.8355836,62.2579608 36.8355836,60.3541961 C36.8355836,58.5687059 37.1160318,56.3283137 37.6632476,54.8339608 C38.1840011,53.3880504 39.0150742,52.0730625 40.0983583,50.9809412 C41.1608691,49.9119216 42.4582268,49.093098 43.981311,48.4926275 C45.6515818,47.8410613 47.4297492,47.5085156 49.2231831,47.5123137 C51.0973975,47.5123137 52.8256877,47.7465882 54.5060964,48.0240784 C55.9470444,48.2488258 57.3754836,48.5471788 58.7857806,48.9179608 L58.7857806,71.6471373 L58.7835006,71.6471373 L58.7835006,71.6494118 Z M42.7386749,60.3428235 C42.7386749,62.7424314 43.2699304,65.4081569 44.3347213,66.5226667 C45.3972321,67.634902 46.7698319,68.1898824 48.4525208,68.1898824 C49.3691074,68.1898824 50.2378126,68.0602353 51.0495161,67.8100392 C51.8612197,67.5598431 52.5087585,67.2641569 53.0263335,66.9161569 L53.0263335,52.6959216 C52.6159216,52.6072157 50.8876314,52.2592157 49.218623,52.2137255 C47.1232422,52.1545882 45.531756,53.0029804 44.4076834,54.3654118 C43.2995712,55.7301176 42.7386749,58.1160784 42.7386749,60.3428235 L42.7386749,60.3428235 Z M86.1762156,60.3428235 C86.2015362,62.0455071 85.9108771,63.7381716 85.3189107,65.3353725 C84.793736,66.8485672 83.9652031,68.2392462 82.8838,69.4226667 C81.8349696,70.5508235 80.5809332,71.4265098 79.1057304,72.042902 C77.6282475,72.6570196 75.3573016,73.0095686 74.2195486,73.0095686 C73.0840756,72.9981961 70.82453,72.6752157 69.3630076,72.042902 C67.9384973,71.4426111 66.6566551,70.5498331 65.6008984,69.4226667 C64.5204335,68.2361314 63.6879446,66.8466183 63.1521074,65.3353725 C62.5431797,63.7418991 62.2414816,62.0480185 62.2628816,60.3428235 C62.2628816,58.4094902 62.5319294,56.5489412 63.1224665,54.9681569 C63.6670957,53.4639646 64.5100197,52.0846905 65.6008984,50.9127059 C66.6634759,49.7890515 67.950556,48.9002867 69.3789681,48.3038431 C70.8382104,47.6897255 72.4479371,47.3940392 74.1899077,47.3940392 C75.9318782,47.3940392 77.541605,47.7033725 79.0168078,48.3038431 C80.4942907,48.9202353 81.7620074,49.7822745 82.7948774,50.9127059 C83.8437079,52.0408627 84.6531313,53.3873725 85.2436685,54.9681569 C85.8638465,56.5489412 86.1739355,58.4094902 86.1739355,60.3428235 L86.1762156,60.3428235 L86.1762156,60.3428235 Z M80.2708442,60.3541961 C80.2708442,57.8795294 79.7236283,55.8142745 78.6633975,54.3790588 C77.6031667,52.9301961 76.1097234,52.2137255 74.2081482,52.2137255 C72.3020129,52.2137255 70.8108496,52.9301961 69.7506189,54.3790588 C68.688108,55.8279216 68.170533,57.8795294 68.170533,60.3541961 C68.170533,62.8607059 68.7017884,64.5438431 69.7665793,65.9949804 C70.8290902,67.4597647 72.3202534,68.1785098 74.2241087,68.1785098 C76.1279639,68.1785098 77.6191272,67.4461176 78.679358,65.9949804 C79.7418688,64.5301961 80.2754043,62.8607059 80.2754043,60.3541961 L80.2731242,60.3541961 L80.2708442,60.3541961 Z M99.0335087,73.0072941 C89.5712341,73.0527843 89.5712341,65.4218039 89.5712341,64.2072157 L89.5575537,37.1428235 L95.3306812,36.2352941 L95.3306812,63.124549 C95.3306812,63.811451 95.3306812,68.1785098 99.0357888,68.1898824 L99.0357888,73.0072941 L99.0335087,73.0072941 L99.0335087,73.0072941 Z M109.202604,73.0072941 L103.399835,73.0072941 L103.399835,48.2901961 L109.202604,47.3803922 L109.202604,73.0095686 L109.202604,73.0072941 Z M106.295519,44.6737255 C108.229016,44.6737255 109.806821,43.1179608 109.806821,41.2028235 C109.804416,40.2774936 109.432681,39.3912199 108.773785,38.7399051 C108.11489,38.0885903 107.223093,37.7258705 106.295519,37.7319216 C105.367552,37.7252629 104.475168,38.087714 103.815778,38.7390946 C103.156387,39.3904753 102.78434,40.2770967 102.781937,41.2028235 C102.781937,43.1225098 104.359743,44.6737255 106.293239,44.6737255 L106.295519,44.6737255 Z M123.624022,47.3963137 C125.527878,47.3963137 127.137604,47.6305882 128.434962,48.1014118 C129.7346,48.5676863 130.78343,49.2295686 131.551812,50.0620392 C132.320195,50.8990588 132.86285,52.0385882 133.1889,53.2395294 C133.53091,54.4404706 133.690514,55.7574118 133.690514,57.2062745 L133.690514,71.940549 C132.803569,72.1316078 131.46289,72.3499608 129.661638,72.6160784 C127.860385,72.8776471 125.837967,73.0095686 123.596662,73.0095686 C122.22238,73.0212946 120.851108,72.8793899 119.508503,72.5865098 C118.369357,72.3490309 117.2899,71.8848816 116.334651,71.2218039 C115.46253,70.5908669 114.758097,69.7569761 114.282591,68.7926275 C113.796937,67.7986667 113.54613,66.3930196 113.54613,64.9259608 C113.54613,63.5203137 113.826578,62.6287059 114.373794,61.6620392 C114.93469,60.693098 115.684832,59.9038431 116.631059,59.287451 C117.588687,58.6733333 118.683119,58.2343529 119.937155,57.9705098 C121.22866,57.7034176 122.544469,57.5707852 123.863429,57.5747451 C124.499568,57.5747451 125.163067,57.6202353 125.869888,57.6930196 C126.578988,57.7658039 127.31773,57.8977255 128.115753,58.0887843 L128.115753,57.1516863 C128.115753,56.4920784 128.042791,55.8620392 127.878626,55.2774902 C127.724114,54.6990929 127.441255,54.1627368 127.050962,53.7080784 C126.624628,53.2342676 126.087237,52.8732331 125.486836,52.6572549 C124.69865,52.3604731 123.862244,52.2116441 123.019805,52.2182745 C121.692806,52.2182745 120.482091,52.3774902 119.373979,52.5708235 C118.452126,52.7157037 117.543849,52.9363236 116.65842,53.2304314 L115.96528,48.5267451 C116.688061,48.276549 117.766532,48.030902 119.152813,47.7807059 C120.541373,47.5305098 122.030256,47.3985882 123.626302,47.3985882 L123.624022,47.3963137 L123.624022,47.3963137 Z M124.111956,68.1762353 C125.881288,68.1762353 127.196886,68.0738824 128.111193,67.8964706 L128.111193,62.0691765 C127.000976,61.7865976 125.859678,61.6437099 124.713894,61.6438431 C124.080036,61.6438431 123.430217,61.6893333 122.780398,61.7894118 C122.171739,61.8676608 121.57925,62.0411364 121.024747,62.303451 C120.519972,62.5374535 120.086456,62.9008445 119.76843,63.356549 C119.442381,63.811451 119.296457,64.0752941 119.296457,64.7621961 C119.296457,66.1109804 119.76843,66.8865882 120.625735,67.4006275 C121.494441,67.9260392 122.645874,68.1762353 124.109676,68.1762353 L124.111956,68.1762353 Z M10.1337287,47.5418824 C12.039864,47.5418824 13.6495907,47.7761569 14.9469484,48.2469804 C16.2465861,48.7132549 17.2954165,49.3751373 18.0615188,50.2076078 C18.8435815,51.0582745 19.3748369,52.1841569 19.7008864,53.385098 C20.0501894,54.6780374 20.218986,56.0128732 20.2025009,57.3518431 L20.2025009,72.0861176 C19.3132751,72.2771765 17.9725962,72.4955294 16.173624,72.7616471 C14.3723717,73.0232157 12.349953,73.1551373 10.108648,73.1551373 C8.73436672,73.1668632 7.36309454,73.0249586 6.02048933,72.7320784 C4.8813438,72.4945995 3.80188685,72.0304502 2.84663722,71.3673725 C1.97451674,70.7364355 1.27008317,69.9025448 0.794577667,68.9381961 C0.306643507,67.9442353 0.0558362283,66.5385882 0.0558362283,65.0715294 C0.0558362283,63.6658824 0.336284367,62.7742745 0.883500248,61.8076078 C1.44439653,60.8386667 2.19681836,60.0494118 3.14076576,59.4330196 C4.10067361,58.818902 5.19282531,58.3799216 6.4468617,58.1160784 C7.73911222,57.8488295 9.05569388,57.7161964 10.3754157,57.7203137 C11.0115542,57.7203137 11.6750534,57.7658039 12.3818739,57.8385882 C13.0750141,57.9113725 13.829716,58.0432941 14.6277391,58.2343529 L14.6277391,57.2972549 C14.6277391,56.6376471 14.554777,56.0076078 14.3906122,55.4230588 C14.2361002,54.8446615 13.953241,54.3083055 13.5629482,53.8536471 C13.1359727,53.3795259 12.5977649,53.0184691 11.9965428,52.8028235 C11.2090723,52.5063177 10.3734652,52.3574933 9.53179123,52.3638431 C8.30775517,52.3746029 7.0870308,52.4925724 5.88368536,52.7163922 C4.96260265,52.8613949 4.05509368,53.0820136 3.17040662,53.376 L2.4772665,48.6723137 C3.19776741,48.4221176 4.27851878,48.1764706 5.66479901,47.9262745 C7.14068292,47.6594821 8.63842219,47.5315478 10.1382888,47.5441569 L10.1337287,47.5418824 L10.1337287,47.5418824 Z M10.6353433,68.335451 C12.4069547,68.335451 13.7202728,68.233098 14.6345793,68.0556863 L14.6345793,62.2283922 C13.5243632,61.9458133 12.3830648,61.8029256 11.2372807,61.8030588 C10.6034223,61.8030588 9.95360347,61.848549 9.30378462,61.9486275 C8.69512546,62.0268765 8.10263641,62.2003521 7.54813366,62.4626667 C7.04419179,62.6970058 6.61149565,63.0603696 6.29409727,63.5157647 C5.96576774,63.9706667 5.81984351,64.2345098 5.81984351,64.9214118 C5.81984351,66.2679216 6.2918172,67.0458039 7.14912208,67.5598431 C8.00642696,68.0716078 9.16926071,68.335451 10.6330632,68.335451 L10.6353433,68.335451 L10.6353433,68.335451 Z M34.0288222,73.0072941 C24.5688276,73.0527843 24.5688276,65.4218039 24.5688276,64.2072157 L24.5597074,37.1428235 L30.3305548,36.2352941 L30.3305548,63.124549 C30.3305548,63.811451 30.3305548,68.1785098 34.0356624,68.1898824 L34.0356624,73.0072941 L34.0333823,73.0072941 L34.0288222,73.0072941 Z M15.5310657,19.0334902 C15.5310657,21.0941961 14.783204,22.7113725 13.2874806,23.8850196 C11.7963173,25.0563922 9.73513747,25.6454902 7.10850124,25.6454902 C4.47958495,25.6454902 2.32948255,25.2406275 0.655913978,24.4263529 L0.655913978,20.8417255 C1.71386468,21.3398431 2.84021737,21.7287843 4.03041191,22.013098 C5.22288652,22.2996863 6.33327874,22.4407059 7.36386865,22.4407059 C8.86643226,22.4407059 9.97682448,22.1563922 10.6927653,21.5877647 C11.406426,21.0168627 11.7643964,20.2503529 11.7643964,19.2905098 C11.7748068,18.4468803 11.4149673,17.6408762 10.7794078,17.0842353 C10.1227487,16.4814902 8.76610935,15.7695686 6.71176973,14.9461961 C4.59130819,14.0887059 3.09786485,13.1106667 2.22915964,12.0120784 C1.36273449,10.9134902 0.924961787,9.592 0.924961787,8.04988235 C0.924961787,6.11427451 1.61582184,4.59262745 2.9929818,3.48266667 C4.37014177,2.37270588 6.21699537,1.81772549 8.53810273,1.81772549 C10.7634473,1.81772549 12.9751115,2.30447059 15.1799355,3.27796078 L13.9715004,6.37129412 C11.9057605,5.50470588 10.063467,5.068 8.44233995,5.068 C7.21566435,5.068 6.28311729,5.33411765 5.64697883,5.86862745 C5.0085603,6.40541176 4.6916311,7.10823529 4.6916311,7.98392157 C4.6916311,8.58666667 4.81931481,9.10298039 5.07468222,9.53058824 C5.32776956,9.95819608 5.7495818,10.3630588 6.32871861,10.742902 C6.91241555,11.1250196 7.96124599,11.6254118 9.47748999,12.2486275 C11.1829795,12.9537255 12.4347358,13.6156078 13.2281988,14.227451 C14.0239419,14.8415686 14.6053588,15.5352941 14.9770096,16.3063529 C15.3486604,17.0796863 15.5333457,17.9894902 15.5333457,19.0334902 L15.5310657,19.0334902 L15.5310657,19.0334902 Z M27.3053274,25.6432157 C24.5738081,25.6432157 22.432826,24.8471373 20.8915012,23.2549804 C19.3501765,21.6628235 18.5795141,19.4747451 18.5795141,16.6816471 C18.5795141,13.8180392 19.2954549,11.568549 20.7250564,9.93090196 C22.156938,8.2932549 24.122355,7.47443137 26.6213075,7.47443137 C28.9424149,7.47443137 30.773308,8.17498039 32.1208271,9.58290196 C33.4660662,10.988549 34.1386857,12.9196078 34.1386857,15.3851765 L34.1386857,17.3981176 L22.4259858,17.3981176 C22.4807074,19.099451 22.9412807,20.4095686 23.8077059,21.3239216 C24.674131,22.2382745 25.9008066,22.6931765 27.4786124,22.6931765 C28.5160425,22.6931765 29.4850706,22.5976471 30.3765765,22.4020392 C31.3683116,22.1728541 32.334557,21.8452075 33.2608602,21.424 L33.2608602,24.4513725 C32.3488337,24.8835294 31.427687,25.1905882 30.49514,25.372549 C29.4420138,25.5625286 28.3731929,25.6523954 27.3030473,25.6409412 L27.3053274,25.6409412 L27.3053274,25.6432157 Z M26.6213075,10.297098 C25.4356731,10.297098 24.4848855,10.6723922 23.7666647,11.4229804 C23.053004,12.1735686 22.6266316,13.2653333 22.4898276,14.705098 L30.4654991,14.705098 C30.4449785,13.2562353 30.0938483,12.1576471 29.4166687,11.4161569 C28.739489,10.6701176 27.8069419,10.297098 26.6213075,10.297098 L26.6213075,10.297098 Z M49.3763679,25.3247843 L48.6307863,22.8842353 L48.5053826,22.8842353 C47.6549179,23.9532549 46.8044533,24.6788235 45.9448683,25.0654902 C45.0875634,25.4521569 43.9840114,25.6432157 42.6387724,25.6432157 C40.9104822,25.6432157 39.5629631,25.1769412 38.593935,24.2489412 C37.6226268,23.3163922 37.1392528,22.004 37.1392528,20.3026667 C37.1392528,18.4944314 37.8118723,17.1297255 39.1571113,16.208549 C40.5023504,15.2919216 42.5521299,14.7892549 45.3064498,14.7073725 L48.3389378,14.6118431 L48.3389378,13.6747451 C48.3389378,12.5556863 48.0790103,11.7186667 47.552315,11.1614118 C47.0278998,10.6087059 46.2161962,10.3289412 45.1126442,10.3289412 C44.2346298,10.3257178 43.3614928,10.459247 42.5247691,10.7247059 C41.7098351,10.9830708 40.9130836,11.2953718 40.1398199,11.6595294 L38.9313848,8.99607843 C39.9227273,8.4857179 40.9755842,8.10428029 42.0641957,7.86109804 C43.1996687,7.60407843 44.2690197,7.47443137 45.2745289,7.47443137 C47.5089937,7.47443137 49.1962427,7.96117647 50.3339957,8.93466667 C51.4740288,9.90815686 52.0440453,11.4343529 52.0440453,13.5155294 L52.0440453,25.3247843 L49.3718078,25.3247843 L49.3763679,25.3247843 L49.3763679,25.3247843 Z M43.8152865,22.7887059 C45.1719259,22.7887059 46.2595175,22.4088627 47.0826213,21.6537255 C47.9034452,20.8985882 48.3138571,19.8386667 48.3138571,18.4762353 L48.3138571,16.9568627 L46.0565916,17.0523922 C44.2986605,17.1160784 43.0218235,17.4094902 42.2215203,17.9303529 C41.421217,18.4534902 41.0222055,19.2541176 41.0222055,20.3299608 C41.0222055,21.1123922 41.2524921,21.7174118 41.7199057,22.1450196 C42.1850392,22.5726275 42.8827395,22.7887059 43.8175666,22.7887059 L43.8152865,22.7887059 Z M66.1758955,7.47443137 C66.9283173,7.47443137 67.5462152,7.52901961 68.0341494,7.63364706 L67.6693388,11.1068235 C67.1277534,10.9786154 66.5729153,10.9144874 66.0162908,10.9157647 C64.5228475,10.9157647 63.3121323,11.4025098 62.3841454,12.3737255 C61.4584385,13.3472157 60.993305,14.6118431 60.993305,16.1653333 L60.993305,25.3293333 L57.2585567,25.3293333 L57.2585567,7.79058824 L60.1838816,7.79058824 L60.6763758,10.8839216 L60.8679014,10.8839216 C61.4493183,9.83764706 62.2085803,9.00745098 63.1479676,8.39333333 C64.0827947,7.77921569 65.092864,7.47443137 66.1736154,7.47443137 L66.1736154,7.47215686 L66.1758955,7.47443137 Z M78.3788096,25.6432157 C75.7202524,25.6432157 73.7001138,24.8698824 72.3161136,23.3209412 C70.9343935,21.7742745 70.2412534,19.5498039 70.2412534,16.6543529 C70.2412534,13.7043137 70.9640344,11.438902 72.4118764,9.85356863 C73.8574384,8.26823529 75.945979,7.47443137 78.6820584,7.47443137 C80.5357522,7.47443137 82.2024806,7.81788235 83.6890837,8.50478431 L82.5558908,11.4980392 C80.978085,10.8839216 79.6761672,10.5791373 78.6478574,10.5791373 C75.6062491,10.5791373 74.085445,12.5920784 74.085445,16.6202353 C74.085445,18.5854118 74.463936,20.0638431 75.2209179,21.0487059 C75.98018,22.0381176 77.0905722,22.5316863 78.5520946,22.5316863 C80.2165429,22.5316863 81.7897886,22.12 83.2718316,21.2943529 L83.2718316,24.5446275 C82.6084275,24.9336992 81.8884632,25.2176069 81.1376897,25.3861961 C80.2298339,25.5688415 79.304799,25.6527306 78.3788096,25.6363922 L78.3788096,25.6409412 L78.3788096,25.6432157 Z M102.86672,25.3247843 L99.1182915,25.3247843 L99.1182915,14.5458824 C99.1182915,13.1948235 98.8446835,12.1849412 98.2974677,11.5207843 C97.7548119,10.8543529 96.8861067,10.52 95.7004723,10.52 C94.1317868,10.52 92.9826334,10.988549 92.243892,11.9233725 C91.5074306,12.8581961 91.1380599,14.4253333 91.1380599,16.6247843 L91.1380599,25.3293333 L87.4033115,25.3293333 L87.4033115,0.66 L91.1380599,0.66 L91.1380599,6.92627451 C91.1380599,7.93160784 91.074218,9.00290196 90.9465343,10.1424314 L91.1836612,10.1424314 C91.694396,9.29631373 92.3989365,8.6412549 93.3041227,8.1772549 C94.2115891,7.7132549 95.2649797,7.4812549 96.4756948,7.4812549 C100.737138,7.4812549 102.86672,9.62156863 102.86672,13.9044706 L102.86672,25.3338824 L102.86672,25.3270588 L102.86672,25.3247843 Z M125.498657,7.47443137 C127.692081,7.47443137 129.39757,8.26823529 130.621966,9.85356863 C131.846361,11.438902 132.457419,13.6633725 132.457419,16.5269804 C132.457419,19.4019608 131.837241,21.6400784 130.599165,23.2436078 C129.358809,24.8448627 127.637359,25.6432157 125.432535,25.6432157 C123.207191,25.6432157 121.48118,24.8448627 120.252225,23.2481569 L119.999137,23.2481569 L119.315118,25.3247843 L116.517476,25.3247843 L116.517476,0.65772549 L120.252225,0.65772549 L120.252225,6.52368627 C120.252225,6.95584314 120.229424,7.60180392 120.186103,8.45701961 L120.09262,10.0901176 L120.252225,10.0901176 C121.437859,8.34556863 123.18667,7.47443137 125.496377,7.47443137 L125.498657,7.47443137 Z M124.527349,10.5177255 C123.022505,10.5177255 121.941754,10.9589804 121.278255,11.8392157 C120.617035,12.7217255 120.275025,14.2001569 120.252225,16.2699608 L120.252225,16.5224314 C120.252225,18.6559216 120.594235,20.2025882 121.269134,21.1601569 C121.948594,22.115451 123.054426,22.593098 124.593471,22.593098 C125.915909,22.593098 126.919138,22.0699608 127.603158,21.0236863 C128.289458,19.9774118 128.629188,18.4694118 128.629188,16.4905882 C128.629188,12.5056471 127.261148,10.515451 124.527349,10.515451 L124.527349,10.5177255 Z M134.126427,7.79058824 L138.194066,7.79058824 L141.771489,17.7301961 C142.311865,19.1494902 142.669835,20.4800784 142.852241,21.7265098 L142.977644,21.7265098 C143.071127,21.1465098 143.246692,20.4391373 143.50206,19.6112157 C143.757427,18.7810196 145.104946,14.8415686 147.537777,7.79058824 L151.575774,7.79058824 L144.058396,27.6561569 C142.690356,31.3021961 140.41257,33.1263529 137.225037,33.1263529 C136.412588,33.1282905 135.602542,33.0382504 134.810447,32.8579608 L134.810447,29.9079216 C135.371344,30.0352941 136.012042,30.0989804 136.734823,30.0989804 C138.536075,30.0989804 139.801512,29.0595294 140.533413,26.9760784 L141.185512,25.3293333 L134.128708,7.79286275 L134.126427,7.79286275 L134.126427,7.79058824 Z" id="Shape"></path>
            </g>
        </g>
    </g>
</svg>