<?xml version="1.0" encoding="UTF-8" standalone="no"?>
<svg width="80px" height="80px" viewBox="0 0 80 80" version="1.1" xmlns="http://www.w3.org/2000/svg" xmlns:xlink="http://www.w3.org/1999/xlink">
    <!-- Generator: Sketch 40.3 (33839) - http://www.bohemiancoding.com/sketch -->
    <title>search_up</title>
    <desc>Created with Sketch.</desc>
    <defs></defs>
    <g id="Page-1" stroke="none" stroke-width="1" fill="none" fill-rule="evenodd">
        <g id="search_up" fill="#FFFFFF">
            <g id="Group" transform="translate(7.000000, 7.000000)">
                <path d="M64.4087899,57.2433529 L50.8303992,43.6655168 C54.1026681,38.9418025 55.7396345,33.6758067 55.7396345,27.8703025 C55.7396345,24.0963782 55.006979,20.4870378 53.5416681,17.0431134 C52.0773277,13.5986345 50.0977437,10.6297437 47.6037479,8.1357479 C45.1097521,5.6417521 42.1412773,3.66216807 38.6974916,2.19768908 C35.2525966,0.732794118 31.6435336,0.000415966387 27.8696092,0.000415966387 C24.0959622,0.000415966387 20.4866218,0.732794118 17.0426975,2.19768908 C13.5982185,3.66216807 10.6293277,5.6417521 8.13533193,8.1357479 C5.64105882,10.6297437 3.6617521,13.5991891 2.19713445,17.0431134 C0.732378151,20.4874538 0,24.0963782 0,27.8703025 C0,31.6439496 0.732378151,35.252042 2.19713445,38.696937 C3.66161345,42.1408613 5.64105882,45.1093361 8.13533193,47.6033319 C10.6293277,50.0981597 13.5987731,52.0769118 17.0426975,53.5422227 C20.4870378,55.0068403 24.0959622,55.7390798 27.8696092,55.7390798 C33.6763613,55.7390798 38.9415252,54.1019748 43.6655168,50.8299832 L57.2439076,64.3684412 C58.1939748,65.3710588 59.3800336,65.8727143 60.8063824,65.8727143 C62.1786555,65.8727143 63.3669328,65.3711975 64.3689958,64.3684412 C65.3714748,63.3659622 65.8731303,62.1782395 65.8731303,60.8059664 C65.8735462,59.408042 65.3853403,58.2199034 64.4087899,57.2433529 L64.4087899,57.2433529 Z M40.3990714,40.3983782 C36.9286639,43.8693403 32.7525,45.6047521 27.8696092,45.6047521 C22.9875504,45.6047521 18.8113866,43.8689244 15.3407017,40.3983782 C11.8700168,36.9279706 10.1347437,32.7523613 10.1347437,27.8694706 C10.1347437,22.9874118 11.8704328,18.8105546 15.3407017,15.340563 C18.8106933,11.8697395 22.9875504,10.134605 27.8696092,10.134605 C32.7519454,10.134605 36.9281092,11.8704328 40.3990714,15.340563 C43.8700336,18.8105546 45.6053067,22.9874118 45.6053067,27.8694706 C45.6053067,32.7523613 43.869479,36.9279706 40.3990714,40.3983782 L40.3990714,40.3983782 Z" id="Shape"></path>
            </g>
            <polygon id="Triangle" points="36 67 47 77 25 77"></polygon>
        </g>
    </g>
</svg>