<?xml version="1.0" encoding="UTF-8" standalone="no"?>
<svg width="75px" height="75px" viewBox="0 0 75 75" version="1.1" xmlns="http://www.w3.org/2000/svg" xmlns:xlink="http://www.w3.org/1999/xlink">
    <!-- Generator: Sketch 40.3 (33839) - http://www.bohemiancoding.com/sketch -->
    <title>stripe</title>
    <desc>Created with Sketch.</desc>
    <defs></defs>
    <g id="Page-1" stroke="none" stroke-width="1" fill="none" fill-rule="evenodd">
        <g id="stripe" fill="#828282">
            <path d="M33.4868132,25.1659341 C33.4868132,22.5516484 35.6318681,21.5461538 39.1846154,21.5461538 C44.2791209,21.5461538 50.7142857,23.0879121 55.8087912,25.8362637 L55.8087912,10.0835165 C50.2450549,7.87142857 44.7483516,7 39.1846154,7 C25.5769231,7 16.5274725,14.1054945 16.5274725,25.9703297 C16.5274725,44.4714286 42,41.521978 42,49.4989011 C42,52.5824176 39.3186813,53.5879121 35.5648352,53.5879121 C30.0010989,53.5879121 22.8956044,51.3087912 17.2648352,48.2252747 L17.2648352,64.1791209 C23.4989011,66.8604396 29.8,68 35.5648352,68 C49.5076923,68 59.0934066,61.0956044 59.0934066,49.0967033 C59.0263736,29.1208791 33.4868132,32.6736264 33.4868132,25.1659341 L33.4868132,25.1659341 Z" id="Shape"></path>
        </g>
    </g>
</svg>