<?xml version="1.0" encoding="UTF-8" standalone="no"?>
<svg width="84px" height="84px" viewBox="0 0 84 84" version="1.1" xmlns="http://www.w3.org/2000/svg" xmlns:xlink="http://www.w3.org/1999/xlink">
    <!-- Generator: Sketch 40.3 (33839) - http://www.bohemiancoding.com/sketch -->
    <title>noun_934488_cc</title>
    <desc>Created with Sketch.</desc>
    <defs>
        <linearGradient x1="50%" y1="0%" x2="50%" y2="100%" id="linearGradient-1">
            <stop stop-color="#FEFAEE" offset="0%"></stop>
            <stop stop-color="#FFDD82" offset="59.2386159%"></stop>
            <stop stop-color="#FFC938" offset="100%"></stop>
        </linearGradient>
        <linearGradient x1="50%" y1="0%" x2="50%" y2="100%" id="linearGradient-2">
            <stop stop-color="#FEFAEE" offset="0%"></stop>
            <stop stop-color="#FFC938" offset="100%"></stop>
        </linearGradient>
        <linearGradient x1="50%" y1="0%" x2="50%" y2="100%" id="linearGradient-3">
            <stop stop-color="#D2F4EB" offset="0%"></stop>
            <stop stop-color="#42D3AA" offset="100%"></stop>
        </linearGradient>
    </defs>
    <g id="Page-1" stroke="none" stroke-width="1" fill="none" fill-rule="evenodd">
        <g id="agree-copy" transform="translate(-8.000000, -9.000000)">
            <g id="noun_934488_cc" transform="translate(8.000000, 9.000000)">
                <g id="Group">
                    <circle id="Oval" fill="#30485F" cx="55.9" cy="3" r="1.2"></circle>
                    <circle id="Oval" fill="#30485F" cx="80.9" cy="16.2" r="1.2"></circle>
                    <circle id="Oval" fill="#30485F" cx="70.6" cy="25.3" r="1.2"></circle>
                    <path d="M52.4,14 C54.1,14 55.5,12.6 55.5,10.9 C55.5,9.2 54.1,7.8 52.4,7.8 C50.7,7.8 49.3,9.2 49.3,10.9 C49.3,12.6 50.7,14 52.4,14 L52.4,14 Z M52.4,9.8 C53,9.8 53.5,10.3 53.5,10.9 C53.5,11.5 53,12 52.4,12 C51.8,12 51.3,11.5 51.3,10.9 C51.3,10.3 51.8,9.8 52.4,9.8 L52.4,9.8 Z" id="Shape" fill="#30485F"></path>
                    <path d="M77.8,29.5 C77.8,31.2 79.2,32.6 80.9,32.6 C82.6,32.6 84,31.2 84,29.5 C84,27.8 82.6,26.4 80.9,26.4 C79.2,26.4 77.8,27.8 77.8,29.5 L77.8,29.5 Z M81.9,29.5 C81.9,30.1 81.4,30.6 80.8,30.6 C80.2,30.6 79.7,30.1 79.7,29.5 C79.7,28.9 80.2,28.4 80.8,28.4 C81.4,28.4 81.9,28.9 81.9,29.5 L81.9,29.5 Z" id="Shape" fill="#30485F"></path>
                    <path d="M75.7,20.9 C76.2,21.2 76.8,21 77.1,20.6 C77.4,20.1 77.2,19.5 76.8,19.2 C72.6,16.7 67.8,19.4 67.6,19.6 C67.1,19.9 67,20.5 67.3,21 C67.5,21.3 67.8,21.5 68.2,21.5 C68.4,21.5 68.5,21.5 68.7,21.4 C68.6,21.2 72.5,19 75.7,20.9 L75.7,20.9 Z" id="Shape" fill="#30485F"></path>
                    <path d="M62.4,15.7 C62.6,15.8 62.7,15.8 62.9,15.8 C63.3,15.8 63.6,15.6 63.8,15.3 C63.9,15.1 66.6,10.3 63.9,6.1 C63.6,5.6 63,5.5 62.5,5.8 C62,6.1 61.9,6.7 62.2,7.2 C64.2,10.4 62.1,14.3 62,14.4 C61.8,14.9 61.9,15.5 62.4,15.7 L62.4,15.7 Z" id="Shape" fill="#30485F"></path>
                    <path d="M15.5,82.3 C16.1,82.9 16.9,83.2 17.7,83.2 C18.5,83.2 19.4,82.9 20,82.2 L41.4,59.7 C43.6,57.4 47.4,51.6 48.8,46.7 C50.5,40.9 53.3,36 57,32.1 L58.9,30.2 C59.1,30.3 59.4,30.3 59.6,30.3 C60.1,30.3 60.6,30.1 60.9,29.7 L62.5,28 C63,27.4 63.2,26.6 62.9,26 L63.9,25 C64.5,24.3 64.5,23.3 63.8,22.7 L59.2,18 C58.5,17.4 57.5,17.4 56.9,18.1 L55.9,19.1 C55.2,18.8 54.4,19 53.9,19.5 L52.3,21.2 C52,21.6 51.8,22 51.8,22.5 C51.8,22.8 51.9,23.2 52.1,23.5 L50.4,25.3 C46.6,29.3 41.8,32.2 36.1,34.2 C31.6,35.7 25.8,39.6 23.3,42.3 L1.7,64.7 C1.1,65.3 0.8,66.1 0.8,67 C0.8,67.9 1.2,68.6 1.8,69.2 L15.5,82.3 Z M3.2,66.1 L24.6,43.6 C26.6,41.5 32.1,37.6 36.6,36.1 C39.1,35.3 41.4,34.3 43.5,33.1 L49.8,39.1 C48.7,41.3 47.7,43.7 47,46.2 C45.7,50.8 42,56.3 40,58.4 L18.6,80.8 C18.1,81.3 17.4,81.3 16.9,80.8 L3.2,67.7 C3,67.5 2.8,67.2 2.8,66.9 C2.8,66.6 3,66.3 3.2,66.1 Z M58.1,19.7 L62.4,23.8 L61.8,24.4 L57.5,20.3 L58.1,19.7 Z" id="Combined-Shape" fill="#30485F"></path>
                    <polygon id="Path" fill="url(#linearGradient-1)" points="55.2 21 61.1 26.7 59.6 28.2 53.7 22.5"></polygon>
                    <path d="M51.8,26.7 L53.4,25 L57.4,28.9 L55.6,30.7 C53.7,32.7 52.1,34.8 50.7,37.2 L45.3,32 C47.7,30.4 49.9,28.7 51.8,26.7 L51.8,26.7 Z" id="Path" fill="url(#linearGradient-2)"></path>
                    <path d="M23.9,66.2 C27,66.2 30.6,64.5 33.6,61.4 C35.8,59.1 37.2,56.4 37.7,53.8 C38.2,51 37.6,48.6 35.9,47 C32.6,43.8 26.3,45.2 21.6,50 C17,55 15.9,61.3 19.3,64.5 C20.5,65.7 22.1,66.2 23.9,66.2 L23.9,66.2 Z" id="Shape" fill="#30485F"></path>
                    <path d="M23.1,51.5 C25.6,48.9 28.8,47.4 31.4,47.4 C32.7,47.4 33.8,47.8 34.6,48.5 C35.7,49.6 36.2,51.4 35.8,53.5 C35.4,55.8 34.1,58.1 32.2,60.1 C28.4,64 23.2,65.4 20.7,63.1 C18.2,60.7 19.3,55.4 23.1,51.5 L23.1,51.5 Z" id="Path" fill="url(#linearGradient-3)"></path>
                    <path d="M64.4,18.7 C64.6,18.9 64.9,19 65.1,19 C65.3,19 65.6,18.9 65.8,18.7 L69.2,15.3 C69.6,14.9 69.6,14.3 69.2,13.9 C68.8,13.5 68.2,13.5 67.8,13.9 L64.4,17.3 C64,17.6 64,18.3 64.4,18.7 L64.4,18.7 Z" id="Shape" fill="#30485F"></path>
                    <path d="M72.7,12.2 C73.1,12.6 73.6,12.8 74.1,12.8 C74.6,12.8 75,12.6 75.4,12.3 L76.2,11.5 C76.4,11.6 76.6,11.6 76.9,11.6 C77.5,11.6 78.1,11.4 78.5,11 L81.5,8 C82.2,7.3 82.2,6.1 81.4,5.4 L81.4,5.4 L77.5,1.5 C77.2,1.2 76.7,0.9 76.2,0.9 C75.7,0.9 75.2,1.1 74.9,1.4 L71.9,4.4 C71.5,4.8 71.3,5.4 71.3,6 C71.3,6.2 71.4,6.5 71.4,6.7 L70.6,7.5 C70.2,7.9 70.1,8.3 70.1,8.8 C70.1,9.3 70.3,9.7 70.7,10.1 L72.7,12.2 L72.7,12.2 Z" id="Shape" fill="#30485F"></path>
                    <path d="M73,7.8 C73.1,7.8 73.2,7.7 73.2,7.6 C73.6,7.2 73.6,6.6 73.2,6.2 C73.1,6.1 73.1,6 73.1,5.9 L73.1,5.8 L76,2.9 L79.8,6.7 L76.9,9.6 L76.8,9.6 C76.7,9.6 76.6,9.6 76.5,9.5 C76.1,9.1 75.5,9.1 75.1,9.5 C75,9.6 75,9.6 75,9.7 L74,10.7 L72,8.7 L73,7.8 L73,7.8 Z" id="Path" fill="url(#linearGradient-2)"></path>
                </g>
            </g>
        </g>
    </g>
</svg>