<?xml version="1.0" encoding="UTF-8" standalone="no"?>
<svg width="81px" height="81px" viewBox="0 0 81 81" version="1.1" xmlns="http://www.w3.org/2000/svg" xmlns:xlink="http://www.w3.org/1999/xlink">
    <!-- Generator: Sketch 40.3 (33839) - http://www.bohemiancoding.com/sketch -->
    <title>money</title>
    <desc>Created with Sketch.</desc>
    <defs>
        <linearGradient x1="50%" y1="0%" x2="50%" y2="100%" id="linearGradient-1">
            <stop stop-color="#D2F4EB" offset="0%"></stop>
            <stop stop-color="#42D3AA" offset="100%"></stop>
        </linearGradient>
    </defs>
    <g id="Page-1" stroke="none" stroke-width="1" fill="none" fill-rule="evenodd">
        <g id="money">
            <g id="Amount-Copy-3" transform="translate(15.000000, 25.000000)">
                <g id="Group-Copy-2" transform="translate(30.489615, 19.500000) rotate(-360.000000) translate(-30.489615, -19.500000) translate(8.989615, 6.000000)">
                    <path d="M42.0567893,0.83576572 L1.34108851,0.83576572 C1.08188443,0.83576572 0.87151591,1.05008628 0.87151591,1.31415984 L0.87151591,25.9925987 C0.87151591,26.2566722 1.08188443,26.4709928 1.34108851,26.4709928 L42.0563197,26.4709928 C42.3155238,26.4709928 42.5258923,26.2566722 42.5258923,25.9925987 L42.5258923,1.31415984 C42.5263619,1.05008628 42.3159934,0.83576572 42.0567893,0.83576572 L42.0567893,0.83576572 Z" id="Shape" fill="#30485F"></path>
                    <polygon id="Path" fill="#F5F5F5" points="2.21601133 25.2724619 2.21601133 2.03429659 41.1813969 2.03429659 41.1813969 25.2724619"></polygon>
                    <path d="M4.02979903,19.5896887 C6.10440785,19.590626 7.79307503,21.3110169 7.79399503,23.4245999 C7.79399503,23.6832912 8.00007591,23.8932436 8.25399699,23.8932436 L35.1401912,23.8932436 C35.3941123,23.8932436 35.6001932,23.6832912 35.6001932,23.4245999 C35.6001932,21.3105483 37.2920804,19.5910946 39.3722092,19.5910946 C39.6261303,19.5910946 39.8322112,19.3811423 39.8322112,19.122451 L39.8322112,8.18852535 C39.8322112,7.92983404 39.6261303,7.71988167 39.3722092,7.71988167 C37.2957604,7.71988167 35.6029532,5.99761616 35.5988132,3.88122132 C35.5983532,3.62299866 35.3927323,3.41351493 35.1388112,3.41351493 L8.25399699,3.41351493 C8.13209647,3.41351493 8.01479597,3.46272252 7.92877561,3.55082753 C7.84275524,3.63893254 7.79399503,3.75796803 7.79399503,3.88215861 C7.79445503,5.99714752 6.10578786,7.71894439 4.02979903,7.71988167 C3.77587796,7.71988167 3.56979708,7.92983404 3.56979708,8.18852535 L3.56979708,19.1215137 C3.57025708,19.380205 3.77587796,19.5896887 4.02979903,19.5896887 L4.02979903,19.5896887 Z" id="Shape" fill="#30485F"></path>
                    <path d="M5.09081095,8.80934169 C7.22976642,8.59495572 8.93675766,6.8549919 9.14585854,4.67540114 L34.2486186,4.67540114 C34.4617151,6.85589648 36.1718139,8.5958603 38.3116573,8.80934169 L38.3116573,18.5010351 C36.1687063,18.7140642 34.4590513,20.4522189 34.2490626,22.6313574 L9.14541458,22.6313574 C8.93498185,20.4531235 7.22887852,18.7145165 5.09081095,18.5005829 L5.09081095,8.80934169 L5.09081095,8.80934169 Z" id="Path" fill="#FFFFFF"></path>
                </g>
                <g id="Group-Copy" transform="translate(21.500000, 13.500000) rotate(-360.000000) translate(-21.500000, -13.500000) ">
                    <path d="M42.0567893,0.83576572 L1.34108851,0.83576572 C1.08188443,0.83576572 0.87151591,1.05008628 0.87151591,1.31415984 L0.87151591,25.9925987 C0.87151591,26.2566722 1.08188443,26.4709928 1.34108851,26.4709928 L42.0563197,26.4709928 C42.3155238,26.4709928 42.5258923,26.2566722 42.5258923,25.9925987 L42.5258923,1.31415984 C42.5263619,1.05008628 42.3159934,0.83576572 42.0567893,0.83576572 L42.0567893,0.83576572 Z" id="Shape" fill="#30485F"></path>
                    <polygon id="Path" fill="#F6F6F6" points="2.21601133 25.2724619 2.21601133 2.03429659 41.1813969 2.03429659 41.1813969 25.2724619"></polygon>
                    <path d="M4.02979903,19.5896887 C6.10440785,19.590626 7.79307503,21.3110169 7.79399503,23.4245999 C7.79399503,23.6832912 8.00007591,23.8932436 8.25399699,23.8932436 L35.1401912,23.8932436 C35.3941123,23.8932436 35.6001932,23.6832912 35.6001932,23.4245999 C35.6001932,21.3105483 37.2920804,19.5910946 39.3722092,19.5910946 C39.6261303,19.5910946 39.8322112,19.3811423 39.8322112,19.122451 L39.8322112,8.18852535 C39.8322112,7.92983404 39.6261303,7.71988167 39.3722092,7.71988167 C37.2957604,7.71988167 35.6029532,5.99761616 35.5988132,3.88122132 C35.5983532,3.62299866 35.3927323,3.41351493 35.1388112,3.41351493 L8.25399699,3.41351493 C8.13209647,3.41351493 8.01479597,3.46272252 7.92877561,3.55082753 C7.84275524,3.63893254 7.79399503,3.75796803 7.79399503,3.88215861 C7.79445503,5.99714752 6.10578786,7.71894439 4.02979903,7.71988167 C3.77587796,7.71988167 3.56979708,7.92983404 3.56979708,8.18852535 L3.56979708,19.1215137 C3.57025708,19.380205 3.77587796,19.5896887 4.02979903,19.5896887 L4.02979903,19.5896887 Z" id="Shape" fill="#30485F"></path>
                    <path d="M5.09081095,8.80934169 C7.22976642,8.59495572 8.93675766,6.8549919 9.14585854,4.67540114 L34.2486186,4.67540114 C34.4617151,6.85589648 36.1718139,8.5958603 38.3116573,8.80934169 L38.3116573,18.5010351 C36.1687063,18.7140642 34.4590513,20.4522189 34.2490626,22.6313574 L9.14541458,22.6313574 C8.93498185,20.4531235 7.22887852,18.7145165 5.09081095,18.5005829 L5.09081095,8.80934169 L5.09081095,8.80934169 Z" id="Path" fill="#FFFFFF"></path>
                    <path d="M21.6989341,19.908835 C25.0845485,19.908835 27.8390402,17.1025967 27.8390402,13.6533793 C27.8390402,10.2041618 25.0845485,7.39792347 21.6989341,7.39792347 C18.3133197,7.39792347 15.558828,10.2041618 15.558828,13.6533793 C15.558828,17.1025967 18.3133197,19.908835 21.6989341,19.908835 L21.6989341,19.908835 Z" id="Shape" fill="#30485F"></path>
                    <path d="M26.4445182,13.6533793 C26.4445182,16.3195563 24.3155291,18.4881151 21.6989341,18.4881151 C19.0823392,18.4881151 16.9533501,16.3191302 16.9533501,13.6533793 C16.9533501,10.9876283 19.0823392,8.8186434 21.6989341,8.8186434 C24.3155291,8.8186434 26.4445182,10.9872022 26.4445182,13.6533793 Z" id="Path" fill="url(#linearGradient-1)"></path>
                </g>
            </g>
        </g>
    </g>
</svg>