<?xml version="1.0" encoding="UTF-8" standalone="no"?>
<svg width="81px" height="81px" viewBox="0 0 81 81" version="1.1" xmlns="http://www.w3.org/2000/svg" xmlns:xlink="http://www.w3.org/1999/xlink">
    <!-- Generator: Sketch 40.3 (33839) - http://www.bohemiancoding.com/sketch -->
    <title>publish</title>
    <desc>Created with Sketch.</desc>
    <defs>
        <linearGradient x1="50%" y1="0%" x2="50%" y2="100%" id="linearGradient-1">
            <stop stop-color="#D2F4EB" offset="0%"></stop>
            <stop stop-color="#42D3AA" offset="100%"></stop>
        </linearGradient>
        <linearGradient x1="50%" y1="0%" x2="50%" y2="100%" id="linearGradient-2">
            <stop stop-color="#FEFAEE" offset="0%"></stop>
            <stop stop-color="#FFC938" offset="100%"></stop>
        </linearGradient>
    </defs>
    <g id="Page-1" stroke="none" stroke-width="1" fill="none" fill-rule="evenodd">
        <g id="publish">
            <g id="Group" transform="translate(20.000000, 23.000000)">
                <path d="M7.8,0.175303954 C7.2862725,0.191760783 6.8369925,0.70728548 6.825,1.14335273 L6.825,19.5362892 L0.975,19.5362892 C0.44757375,19.5483899 0.0119925,20.0682805 0,20.504338 L0,31.636899 C0,34.0334974 1.9736925,35.9931185 4.3875,35.9931185 L34.6125,35.9931185 C37.0263075,35.9931185 39,34.0334974 39,31.636899 L39,1.14335273 C38.9999512,0.636496913 38.53551,0.175352356 38.025,0.175303954 L7.8,0.175303954 Z" id="Shape" fill="#30485F"></path>
                <path d="M8.775,2.11140151 L37.05,2.11140151 L37.05,31.636899 C37.05,32.9943938 35.9797425,34.057021 34.6125,34.057021 L7.921875,34.057021 C8.41503,33.3527171 8.775,32.5550933 8.775,31.636899 L8.775,2.11140151 Z" id="Path" fill="#FFFFFF"></path>
                <path d="M12.675,27.2806795 C12.1365075,27.2806795 11.7,27.7140749 11.7,28.2487283 C11.7,28.7833816 12.1365075,29.216777 12.675,29.216777 L33.15,29.216777 C33.6884925,29.216777 34.125,28.7833816 34.125,28.2487283 C34.125,27.7140749 33.6884925,27.2806795 33.15,27.2806795 L12.675,27.2806795 Z" id="Path" fill="#30485F"></path>
                <path d="M12.675,21.9564112 C12.1365075,21.9564112 11.7,22.3898066 11.7,22.92446 C11.7,23.4591133 12.1365075,23.8925088 12.675,23.8925088 L33.15,23.8925088 C33.6884925,23.8925088 34.125,23.4591133 34.125,22.92446 C34.125,22.3898066 33.6884925,21.9564112 33.15,21.9564112 L12.675,21.9564112 Z" id="Path" fill="#30485F"></path>
                <path d="M12.675,16.6321284 C12.1365075,16.6321284 11.7,17.0655383 11.7,17.6001917 C11.7,18.134845 12.1365075,18.5682405 12.675,18.5682405 L33.15,18.5682405 C33.6884925,18.5682405 34.125,18.134845 34.125,17.6001917 C34.125,17.0655383 33.6884925,16.6321284 33.15,16.6321284 L12.675,16.6321284 Z" id="Path" fill="#30485F"></path>
                <path d="M1.95,21.4723868 L6.825,21.4723868 L6.825,31.636899 C6.825,32.9943938 5.7547425,34.057021 4.3875,34.057021 C3.0202575,34.057021 1.95,32.9943938 1.95,31.636899 L1.95,21.4723868 Z" id="Path" fill="url(#linearGradient-1)"></path>
                <path d="M26.325,10.8238357 C25.7865075,10.8238357 25.35,11.2572311 25.35,11.7918845 C25.35,12.3265378 25.7865075,12.7599333 26.325,12.7599333 L33.15,12.7599333 C33.6884925,12.7599333 34.125,12.3265378 34.125,11.7918845 C34.125,11.2572311 33.6884925,10.8238357 33.15,10.8238357 L26.325,10.8238357 Z" id="Path" fill="#30485F"></path>
                <path d="M26.325,5.98359664 C25.7865075,5.98359664 25.35,6.41699208 25.35,6.95164058 C25.35,7.48629392 25.7865075,7.91968936 26.325,7.91968936 L33.15,7.91968936 C33.6884925,7.91968936 34.125,7.48629392 34.125,6.95164058 C34.125,6.41699208 33.6884925,5.98359664 33.15,5.98359664 L26.325,5.98359664 Z" id="Path" fill="#30485F"></path>
                <path d="M12.675,5.01554786 C12.158835,5.01699993 11.7119925,5.54752938 11.7,5.98359664 L11.7,12.7599333 C11.7000487,13.2668036 12.16449,13.7279336 12.675,13.727982 L22.425,13.727982 C22.93551,13.7279336 23.3999512,13.2668036 23.4,12.7599333 L23.4,5.98359664 C23.3999512,5.47674082 22.93551,5.01559626 22.425,5.01554786 L12.675,5.01554786 Z" id="Path" fill="#30485F"></path>
                <polygon id="Path" fill="url(#linearGradient-2)" points="13.65 6.95164058 21.45 6.95164058 21.45 11.7918845 13.65 11.7918845"></polygon>
            </g>
        </g>
    </g>
</svg>