<?xml version="1.0" encoding="UTF-8" standalone="no"?>
<svg width="81px" height="81px" viewBox="0 0 81 81" version="1.1" xmlns="http://www.w3.org/2000/svg" xmlns:xlink="http://www.w3.org/1999/xlink">
    <!-- Generator: Sketch 40.3 (33839) - http://www.bohemiancoding.com/sketch -->
    <title>search</title>
    <desc>Created with Sketch.</desc>
    <defs>
        <linearGradient x1="50%" y1="-21.7110335%" x2="50%" y2="100%" id="linearGradient-1">
            <stop stop-color="#FEFAEE" offset="0%"></stop>
            <stop stop-color="#FFC938" offset="100%"></stop>
        </linearGradient>
    </defs>
    <g id="Page-1" stroke="none" stroke-width="1" fill="none" fill-rule="evenodd">
        <g id="search">
            <g id="avatar-blue-copy-3" transform="translate(21.000000, 20.000000)">
                <path d="M39.0906218,35.2430904 L30.8541554,26.8855562 C32.839069,23.9779792 33.8320305,20.736613 33.8320305,17.1631644 C33.8320305,14.8402094 33.3876117,12.6185605 32.4987741,10.4987296 C31.6105252,8.37855742 30.4097366,6.55112293 28.8969128,5.01599945 C27.384089,3.48087596 25.5834527,2.26238717 23.4944993,1.36095979 C21.404873,0.459276371 19.2156647,0.00847733568 16.9264537,0.00847733568 C14.6374109,0.00847733568 12.4480343,0.459276371 10.3589968,1.36095979 C8.26962285,2.26238717 6.46873425,3.48087596 4.95591044,5.01599945 C3.44291843,6.55112293 2.24229799,8.3788988 1.35388092,10.4987296 C0.465379744,12.6188165 0.021129156,14.8402094 0.021129156,17.1631644 C0.021129156,19.4859486 0.465379744,21.7068295 1.35388092,23.8272577 C2.24221388,25.9470886 3.44291843,27.774267 4.95591044,29.3093905 C6.46873425,30.845026 8.26995928,32.0630028 10.3589968,32.9649422 C12.4482866,33.8664549 14.6374109,34.3171686 16.9264537,34.3171686 C20.4487502,34.3171686 23.6425267,33.3094851 26.5080355,31.2954837 L34.744502,39.6287795 C35.3207998,40.2459185 36.0402469,40.5547013 36.9054506,40.5547013 C37.7378527,40.5547013 38.4586455,40.2460038 39.0664833,39.6287795 C39.6745733,39.011726 39.9788707,38.2806497 39.9788707,37.4359776 C39.979123,36.5755165 39.682984,35.8441842 39.0906218,35.2430904 Z M24.7800276,25.0964189 C22.5620557,27.3474443 19.893028,28.472912 16.7723241,28.472912 C13.652152,28.472912 10.9831243,27.3471745 8.76497516,25.0964189 C6.54682606,22.8457531 5.43779582,20.1377425 5.43779582,16.9710381 C5.43779582,13.8048732 6.54709191,11.0960533 8.76497516,8.8456573 C10.9826812,6.5947218 13.652152,5.46943389 16.7723241,5.46943389 C19.8926735,5.46943389 22.5617012,6.59517141 24.7800276,8.8456573 C26.9983539,11.0960533 28.1073841,13.8048732 28.1073841,16.9710381 C28.1073841,20.1377425 26.9979994,22.8457531 24.7800276,25.0964189 Z" id="Combined-Shape" fill="#30485F"></path>
                <ellipse id="Oval" stroke="url(#linearGradient-1)" stroke-width="3" cx="16.875" cy="16.9438776" rx="13.5416667" ry="13.5969388"></ellipse>
            </g>
        </g>
    </g>
</svg>