<?xml version="1.0" encoding="UTF-8" standalone="no"?>
<svg width="81px" height="81px" viewBox="0 0 81 81" version="1.1" xmlns="http://www.w3.org/2000/svg" xmlns:xlink="http://www.w3.org/1999/xlink">
    <!-- Generator: Sketch 40.3 (33839) - http://www.bohemiancoding.com/sketch -->
    <title>send</title>
    <desc>Created with Sketch.</desc>
    <defs>
        <linearGradient x1="50%" y1="0%" x2="50%" y2="100%" id="linearGradient-1">
            <stop stop-color="#D2F4EB" offset="0%"></stop>
            <stop stop-color="#42D3AA" offset="100%"></stop>
        </linearGradient>
    </defs>
    <g id="Page-1" stroke="none" stroke-width="1" fill="none" fill-rule="evenodd">
        <g id="send">
            <g id="Group" transform="translate(16.000000, 19.000000)">
                <path d="M20.6736422,30.2047777 C19.9751092,33.0746444 19.423923,35.9951337 18.6315247,38.8450746 C20.6812824,35.9784391 22.7697867,33.1360377 24.9456078,30.3641848 C23.7166263,29.6312352 22.4909193,28.8945158 21.2728525,28.1475641 C21.008174,28.7927321 20.8504583,29.4782905 20.6736422,30.2047777 L20.6736422,30.2047777 Z" id="Shape" fill="#FFFFFF"></path>
                <path d="M25.1578281,11.6356429 C17.7773908,14.9988101 10.5475747,18.6700208 3.24026517,22.1839785 C8.01266414,22.9384696 12.716847,23.9735389 17.4286701,25.0554609 C26.3960869,17.2568982 35.664746,9.6990618 45.0807519,2.41264835 C38.313714,5.19581056 31.8086258,8.60475344 25.1578281,11.6356429 L25.1578281,11.6356429 Z M12.1574749,20.9367255 C13.8175821,20.0330594 15.4771436,19.1288548 17.1372509,18.2251887 C17.7228179,17.9063745 18.2461719,18.7911917 17.6611506,19.1094675 C16.0010433,20.0131335 14.3414819,20.9173381 12.6813746,21.8210042 C12.0952618,22.1398184 11.5724536,21.2550012 12.1574749,20.9367255 L12.1574749,20.9367255 Z M17.9236462,21.3040081 C17.1432539,21.70468 16.3623159,22.105352 15.5819236,22.506024 C14.9898078,22.8102977 14.4653623,21.926019 15.0580239,21.6217453 C15.8384161,21.2210733 16.6193542,20.8204013 17.3997464,20.4197294 C17.9918623,20.1159942 18.5163077,20.9997344 17.9236462,21.3040081 L17.9236462,21.3040081 Z" id="Shape" fill="#FFFFFF"></path>
                <path d="M20.6943918,28.7105154 C20.8924914,27.9274818 20.7540189,28.0615463 21.0165145,27.5704 C21.0421638,27.3512152 21.3151537,26.97804 21.4974272,26.8595618 C21.9290987,26.2440133 22.7639149,25.9091762 23.5699564,25.1288353 C25.1542073,23.5961573 26.7625514,21.845309 28.3451651,20.3110155 C33.4793823,15.3327741 38.7271398,9.84369942 43.8509881,4.85522583 C35.2513926,11.571328 26.032495,18.4809941 17.8214584,25.6241565 C17.9142323,29.9039147 17.8181841,35.2816871 17.8214584,39.5619838 C18.7371915,36.3501457 20.6943918,28.7105154 20.6943918,28.7105154 Z" id="Shape" fill="url(#linearGradient-1)"></path>
                <path d="M24.1496622,24.4571456 C23.4423976,25.1416269 22.6308988,25.7954115 21.9929417,26.5429017 C21.9487377,26.5946013 21.9127196,26.648455 21.8717899,26.7012317 C27.338356,30.0536281 32.9724608,33.1927637 38.2572992,36.823584 C39.4306163,30.7865778 40.6934329,24.885283 42.4212105,18.9608311 C44.0201961,13.4769029 45.5345937,7.97197178 46.8361571,2.41264835 C40.8773435,8.21700638 34.9163471,14.0186717 28.9455275,19.8106434 C27.3476334,21.360016 25.7491935,22.9093886 24.1496622,24.4571456 L24.1496622,24.4571456 Z" id="Shape" fill="#FFFFFF"></path>
                <path d="M48.2488751,0.0384749667 C40.2250235,2.97188916 32.6874164,7.02223029 24.9282433,10.5496514 C16.6451705,14.3161833 8.54709978,18.4575372 0.33169736,22.3635503 C-0.172556116,22.6031995 -0.089605328,23.5300227 0.497053208,23.6113419 C5.88339716,24.3609862 11.1687813,25.5080712 16.4618056,26.7208579 C16.5622197,32.0518414 16.4077784,37.3828248 16.4978237,42.715424 C16.5098297,43.425755 17.4053708,43.6002412 17.7868353,43.060088 C20.591336,39.0916046 23.4165743,35.1204285 26.4273605,31.3000429 C30.6081894,33.7864709 34.7993871,36.2685906 38.7712018,39.0576767 C39.1182854,39.3016342 39.708764,39.0598309 39.787349,38.6494652 C41.0146932,32.2721032 42.3195309,26.056841 44.1406282,19.8141134 C45.9688199,13.5466131 47.6851372,7.2516473 49.1002122,0.879132128 C49.2033549,0.413297122 48.7760492,-0.153782949 48.2488751,0.0384749667 L48.2488751,0.0384749667 Z M17.1647044,25.4800673 C12.4528813,24.3981453 7.74869844,23.3636146 2.97629947,22.6085849 C10.283609,19.0951657 17.5134251,15.4234165 24.8938624,12.0602493 C31.5446601,9.02935985 38.0497482,5.62041697 44.8167862,2.83671623 C35.4002346,10.1236682 26.1321212,17.6815046 17.1647044,25.4800673 L17.1647044,25.4800673 Z M17.8381338,26.2566385 C26.0491704,19.113476 34.5150624,12.1738808 43.1141122,5.45777862 C37.9902638,10.4462522 32.8675069,15.4347258 27.7332897,20.4129672 C26.150676,21.9477993 24.5669708,23.4815543 22.9827199,25.0142323 C22.1766783,25.7940347 21.6123947,26.3314952 21.1807231,26.9475822 C20.9989954,27.066599 20.8734778,27.2733974 20.8472828,27.4920437 C20.5847872,27.9831899 20.3741359,28.5599637 20.1760363,29.3429973 C19.3590802,32.5752999 18.769693,35.8846133 17.8534142,39.0953743 C17.8506856,34.8156162 17.9309077,30.5363966 17.8381338,26.2566385 L17.8381338,26.2566385 Z M18.9317745,39.0765255 C19.7241728,36.2265847 20.2753589,33.3060954 20.9738919,30.4362286 C21.150708,29.7097414 21.3084237,29.0247216 21.5731022,28.3790151 C22.791169,29.1259667 24.0168761,29.8626861 25.2458575,30.5956357 C23.0700365,33.3674887 20.9815321,36.2093515 18.9317745,39.0765255 L18.9317745,39.0765255 Z M42.8063211,19.4506005 C41.0785435,25.375591 39.8162726,31.2763472 38.6424098,37.3133535 C33.3575714,33.6825331 27.7234666,30.5433976 22.2569005,27.1910012 C22.2978301,27.1382245 22.3338482,27.0849093 22.3780523,27.0326711 C23.0154636,26.285181 23.8269624,25.6313963 24.5347728,24.9469151 C26.1343041,23.3986195 27.732744,21.8497855 29.3300924,20.2998743 C35.3014577,14.5084412 41.2624541,8.70677584 47.2212676,2.90241781 C45.9197043,8.46174124 44.4053067,13.9666724 42.8063211,19.4506005 L42.8063211,19.4506005 Z" id="Shape" fill="#30485F"></path>
                <path d="M16.5765061,18.5651711 C14.9163989,19.4688372 13.2568374,20.3730418 11.5967301,21.2767078 C11.0117088,21.5949835 11.534517,22.4798008 12.1206299,22.1609865 C13.7807371,21.2573205 15.4402986,20.3531159 17.1004058,19.4494498 C17.6854271,19.1311741 17.1620732,18.2463569 16.5765061,18.5651711 L16.5765061,18.5651711 Z" id="Shape" fill="#30485F"></path>
                <path d="M17.1834026,20.1680243 C16.4030103,20.5686962 15.6220723,20.9693682 14.84168,21.3700401 C14.2490185,21.6743139 14.7729182,22.5585926 15.3655797,22.2543188 C16.145972,21.8536469 16.92691,21.4529749 17.7073023,21.052303 C18.2999639,20.7480292 17.7755184,19.8642891 17.1834026,20.1680243 L17.1834026,20.1680243 Z" id="Shape" fill="#30485F"></path>
            </g>
        </g>
    </g>
</svg>