<?xml version="1.0" encoding="UTF-8" standalone="no"?>
<svg width="81px" height="81px" viewBox="0 0 81 81" version="1.1" xmlns="http://www.w3.org/2000/svg" xmlns:xlink="http://www.w3.org/1999/xlink">
    <!-- Generator: Sketch 40.3 (33839) - http://www.bohemiancoding.com/sketch -->
    <title>stars</title>
    <desc>Created with Sketch.</desc>
    <defs>
        <linearGradient x1="50%" y1="0%" x2="50%" y2="100%" id="linearGradient-1">
            <stop stop-color="#FEFAEE" offset="0%"></stop>
            <stop stop-color="#FFC938" offset="100%"></stop>
        </linearGradient>
    </defs>
    <g id="Page-1" stroke="none" stroke-width="1" fill="none" fill-rule="evenodd">
        <g id="stars" stroke="#30485F" stroke-width="2" fill="url(#linearGradient-1)">
            <g id="Group-4" transform="translate(15.000000, 19.000000)">
                <path d="M40.3325314,21.7216281 L30.1424722,20.2913575 L25.5852313,11.3701738 C25.3165939,10.8441833 24.7620497,10.5111111 24.1548059,10.5111111 C23.5475621,10.5111111 22.9930179,10.8441833 22.7243805,11.3701738 L18.1674137,20.2912251 L7.97701192,21.7214957 C7.37614142,21.8058396 6.87676376,22.2124644 6.68926585,22.770299 C6.50156235,23.3281337 6.65808472,23.9406528 7.09297571,24.3500582 L14.4667285,31.2930672 L12.7253828,41.0988022 C12.6227935,41.6768953 12.8687474,42.2612115 13.35997,42.6060018 C13.8512612,42.9506597 14.5022956,42.9962742 15.0399129,42.7233152 L24.1548059,38.0942012 L33.2697674,42.7233152 C33.5031118,42.8418866 33.7579747,42.9003447 34.0118096,42.9003447 C34.8976276,42.8979613 35.6091739,42.2089104 35.6091739,41.3593148 C35.6091739,41.2409421 35.5953309,41.125681 35.5692895,41.0149218 L33.8428147,31.2931334 L41.2167046,24.3501906 C41.6514586,23.9407852 41.8079809,23.3283985 41.6202774,22.7704314 C41.432711,22.2125968 40.9335389,21.805972 40.3325314,21.7216281 Z" id="Shape-Copy-9"></path>
                <path d="M50.3014462,5.73330983 L45.0900214,5.00183737 L42.7593462,0.439343945 C42.621959,0.170340582 42.3383526,2.13162821e-14 42.0277945,2.13162821e-14 C41.7172364,2.13162821e-14 41.4336301,0.170340582 41.2962429,0.439343945 L38.9657079,5.00176965 L33.7541079,5.73324211 C33.4468092,5.77637745 33.1914163,5.98433449 33.0955256,6.26962364 C32.9995299,6.5549128 33.0795789,6.86816882 33.3019919,7.07754791 L37.0730945,10.6283584 L36.1825312,15.6432312 C36.1300647,15.938881 36.2558511,16.2377134 36.5070734,16.4140469 C36.7583307,16.5903127 37.0912843,16.613641 37.3662338,16.4740436 L42.0277945,14.1066109 L46.6893903,16.4740436 C46.8087278,16.5346837 46.9390704,16.5645804 47.0688873,16.5645804 C47.5219145,16.5633615 47.8858152,16.2109654 47.8858152,15.7764632 C47.8858152,15.7159248 47.8787356,15.6569777 47.8654174,15.6003329 L46.9824595,10.6283923 L50.7536322,7.07761562 C50.9759751,6.86823654 51.0560242,6.55504823 50.9600284,6.26969136 C50.8641027,5.9844022 50.6088149,5.77644517 50.3014462,5.73330983 Z" id="Shape-Copy-10"></path>
                <path d="M12.7074983,8.967375 L8.86750112,8.43285391 L7.1501615,5.09882691 C7.04892885,4.9022536 6.83995573,4.77777778 6.61112346,4.77777778 C6.38229118,4.77777778 6.17331806,4.9022536 6.07208541,5.09882691 L4.35484909,8.43280443 L0.514722751,8.96732551 C0.288292168,8.99884652 0.1001079,9.15081044 0.0294516413,9.35928455 C-0.0412820913,9.56775865 0.0177014229,9.79666946 0.181584689,9.94967253 L2.96029184,12.5444156 L2.30408734,16.2090173 C2.26542783,16.4250624 2.35811252,16.6434332 2.54322365,16.7722883 C2.72836061,16.901094 2.97369484,16.918141 3.17628927,16.8161307 L6.61112346,15.0861371 L10.0459835,16.8161307 C10.1339164,16.8604432 10.2299583,16.8822902 10.3256128,16.8822902 C10.6594223,16.8813995 10.9275597,16.6238872 10.9275597,16.3063762 C10.9275597,16.2621379 10.9223432,16.2190625 10.9125298,16.1776695 L10.2619292,12.5444403 L13.040688,9.94972202 C13.2045197,9.79671894 13.2635032,9.56785762 13.1927694,9.35933403 C13.1220874,9.15085992 12.9339806,8.998896 12.7074983,8.967375 Z" id="Shape-Copy-11"></path>
            </g>
        </g>
    </g>
</svg>