<?xml version="1.0" encoding="UTF-8" standalone="no"?>
<svg width="81px" height="81px" viewBox="0 0 81 81" version="1.1" xmlns="http://www.w3.org/2000/svg" xmlns:xlink="http://www.w3.org/1999/xlink">
    <!-- Generator: Sketch 40.3 (33839) - http://www.bohemiancoding.com/sketch -->
    <title>star</title>
    <desc>Created with Sketch.</desc>
    <defs>
        <linearGradient x1="50%" y1="0%" x2="50%" y2="100%" id="linearGradient-1">
            <stop stop-color="#FEFAEE" offset="0%"></stop>
            <stop stop-color="#FFC938" offset="100%"></stop>
        </linearGradient>
    </defs>
    <g id="Page-1" stroke="none" stroke-width="1" fill="none" fill-rule="evenodd">
        <g id="star" stroke="#30485F" stroke-width="2" fill="url(#linearGradient-1)">
            <path d="M57.64305,35.183015 L47.1163368,33.7226723 L42.4085361,24.6139169 C42.1310236,24.0768672 41.5581586,23.736792 40.930853,23.736792 C40.3035474,23.736792 39.7306824,24.0768672 39.4531699,24.6139169 L34.7456524,33.7225371 L24.2185853,35.1828798 C23.5978635,35.268997 23.0819877,35.6841712 22.8882953,36.2537346 C22.6943905,36.823298 22.856084,37.4486956 23.3053427,37.8667089 L30.9227059,44.9556977 L29.1238304,54.9676024 C29.0178518,55.5578502 29.2719315,56.1544519 29.7793828,56.5064916 C30.286905,56.858396 30.9594479,56.9049696 31.5148268,56.6262716 L40.930853,51.8998284 L50.34695,56.6262716 C50.5880036,56.7473359 50.8512864,56.8070231 51.1135074,56.8070231 C52.0285906,56.8045897 52.7636446,56.1010511 52.7636446,55.2335925 C52.7636446,55.1127309 52.7493442,54.9950464 52.7224425,54.8819584 L50.9389294,44.9557653 L58.5564341,37.8668441 C59.0055512,37.4488308 59.1672447,36.8235684 58.97334,36.2538698 C58.7795768,35.6843064 58.2639133,35.2691322 57.64305,35.183015 Z" id="Shape-Copy-9"></path>
        </g>
    </g>
</svg>