<?xml version="1.0" encoding="UTF-8" standalone="no"?>
<svg width="81px" height="81px" viewBox="0 0 81 81" version="1.1" xmlns="http://www.w3.org/2000/svg" xmlns:xlink="http://www.w3.org/1999/xlink">
    <!-- Generator: Sketch 40.3 (33839) - http://www.bohemiancoding.com/sketch -->
    <title>diy_picto</title>
    <desc>Created with Sketch.</desc>
    <defs></defs>
    <g id="Page-1" stroke="none" stroke-width="1" fill="none" fill-rule="evenodd">
        <g id="diy_picto" fill="#FFFFFF">
            <g id="Group" transform="translate(5.000000, 5.000000)">
                <path d="M68.2749073,2.46485636 C66.7987817,0.983346248 64.8376204,0.16794775 62.7503497,0.16794775 C60.6630791,0.16794775 58.7003009,0.983346248 57.2241753,2.46485636 C57.2023487,2.48595124 57.1813305,2.50948015 57.1611207,2.53300907 C57.0616884,2.64984228 47.1257303,14.2633887 43.502513,17.7399882 C43.1427781,18.0856198 42.6496584,18.4693845 42.0102196,18.9472648 L35.0572316,11.9672914 C33.5948487,10.4995741 31.651472,9.69147767 29.5836028,9.69147767 L29.5827944,9.69147767 C27.5149252,9.69228901 25.5707401,10.4995741 24.1091656,11.9672914 C22.6459743,13.43582 21.8400065,15.387097 21.8400065,17.4625093 C21.8400065,17.9298422 21.8868933,18.3906843 21.9669242,18.840979 L0.730440794,36.7083479 C0.470138256,36.9282215 0.312501627,37.2462675 0.297950553,37.5878424 C0.28339948,37.928606 0.411933962,38.2596334 0.652026675,38.5014133 L32.365283,70.3319743 C32.5932498,70.5607727 32.9012476,70.6881534 33.222988,70.6881534 C33.2399642,70.6881534 33.2585573,70.6881534 33.2755335,70.687342 C33.6158669,70.6719265 33.932757,70.5145262 34.1518315,70.2532742 L51.9558783,48.938514 C52.4061532,49.0188369 52.8637036,49.0650834 53.329338,49.0650834 C55.3980156,49.0650834 57.3413923,48.2569869 58.8029668,46.7892696 C61.8215062,43.7605307 61.8215062,38.8300067 58.8029668,35.7996451 L51.8507872,28.8196717 C52.3245055,28.1787117 52.7084922,27.6854159 53.0520592,27.3227461 C56.5160231,23.6879349 68.0881685,13.7157329 68.2029603,13.6151266 C68.2264037,13.594843 68.2490387,13.5737481 68.2708653,13.5518419 C69.7486077,12.0711431 70.561851,10.1012053 70.561851,8.00550943 C70.5642762,5.91468164 69.7518412,3.94474378 68.2749073,2.46485636 Z M39.4888419,60.0798595 C39.0167404,59.2555362 38.943985,58.4498738 38.8663793,57.5014153 C38.7483539,56.0466795 38.6012264,54.2373873 36.7661744,52.3956414 C34.9319307,50.5538955 33.128406,50.4062313 31.6789574,50.2869641 C30.3572349,50.1782443 29.3127912,50.0930534 28.1082856,48.8841541 C26.9045885,47.6752549 26.8188988,46.6278126 26.7105742,45.3012688 C26.5925488,43.846533 26.4446129,42.0372408 24.6103692,40.1954949 C22.7753172,38.3537491 20.9717925,38.2052735 19.5223439,38.0860063 C18.1998129,37.9764751 17.1553692,37.8904729 15.9500553,36.6807623 C14.7447414,35.4710517 14.6582433,34.4227981 14.5499187,33.0954429 C14.4577619,31.9628098 14.3356945,30.6143597 13.4262524,29.2042477 L22.8424138,21.2806838 C23.184364,21.8859448 23.60392,22.45145 24.1075488,22.9569159 L47.8549008,46.7917037 C48.3585296,47.2971696 48.9219795,47.718256 49.5250407,48.0606422 L39.4888419,60.0798595 Z M51.3018884,25.6448913 C50.7238874,26.2525863 50.1442697,27.0436445 49.3423439,28.1373332 C48.9260215,28.7060838 48.9761418,29.3778748 49.3989314,29.8030179 L57.0899821,37.5237464 C59.1627017,39.6048381 59.1627017,42.9905674 57.0899821,45.0716591 C55.0172625,47.1527508 51.644647,47.1519394 49.5711191,45.0716591 L25.8237671,21.2368713 C24.8189346,20.2291848 24.2651854,18.8880369 24.2651854,17.464132 C24.2651854,16.0386045 24.8189346,14.6982679 25.8237671,13.68977 C26.8601269,12.6496298 28.2214606,12.1295597 29.5827944,12.1295597 C30.9441282,12.1295597 32.3054619,12.6496298 33.3418217,13.68977 L41.0320641,21.4104985 C41.4548536,21.8364529 42.1266282,21.8867561 42.607622,21.5297657 L42.7256474,21.4429521 C43.8024268,20.6486485 44.5792925,20.0734072 45.1775033,19.4989772 C48.8185052,16.0053395 58.2379001,5.01165823 58.9694958,4.15569264 C59.9832206,3.15368553 61.3235361,2.60278446 62.7495413,2.60278446 C64.1876724,2.60278446 65.5409223,3.16504432 66.5594974,4.18652363 C67.5780725,5.20800294 68.1382889,6.5661891 68.1382889,8.01037748 C68.1390973,9.43996172 67.5901984,10.7859777 66.5902163,11.8034003 C65.7389785,12.5368533 54.7844453,21.9906079 51.3018884,25.6448913 Z M3.30436402,37.7217138 L11.549164,30.7847415 C11.9848878,31.5847245 12.0584515,32.3725374 12.1344405,33.295033 C12.2532742,34.7497688 12.4012101,36.5598724 14.2370706,38.4016182 C16.0721226,40.2441754 17.8756474,40.3918396 19.325096,40.5119182 C20.6476269,40.6214494 21.6920706,40.7066402 22.8973845,41.9163509 C24.1010817,43.1252501 24.1867713,44.1726924 24.295096,45.4992362 C24.4131213,46.953972 24.5610573,48.7632642 26.3953009,50.6050101 C28.230353,52.4467559 30.0338777,52.5944201 31.4833263,52.7136874 C32.8050488,52.8224072 33.8494925,52.9075981 35.053998,54.1164973 C36.2585036,55.3253966 36.3433848,56.3728389 36.4509011,57.6993827 C36.553567,58.9456037 36.6829099,60.453888 37.8704392,62.0173437 L33.1453822,67.6732073 L3.30436402,37.7217138 Z" id="Combined-Shape"></path>
            </g>
        </g>
    </g>
</svg>