<?xml version="1.0" encoding="UTF-8" standalone="no"?>
<svg width="81px" height="81px" viewBox="0 0 81 81" version="1.1" xmlns="http://www.w3.org/2000/svg" xmlns:xlink="http://www.w3.org/1999/xlink">
    <!-- Generator: Sketch 40.3 (33839) - http://www.bohemiancoding.com/sketch -->
    <title>entrepreneurs_picto</title>
    <desc>Created with Sketch.</desc>
    <defs></defs>
    <g id="Page-1" stroke="none" stroke-width="1" fill="none" fill-rule="evenodd">
        <g id="entrepreneurs_picto" fill="#FFFFFF">
            <g id="noun_705451_cc" transform="translate(40.831547, 41.524097) rotate(44.000000) translate(-40.831547, -41.524097) translate(16.331547, -3.475903)">
                <g id="Group" transform="translate(0.000000, 0.000000)">
                    <path d="M44.5264471,34.2248364 C43.6574726,33.7196648 42.6040231,33.5512742 41.3891579,33.6983018 C41.6610159,30.1847203 41.6064016,26.5128015 40.9510297,23.0155564 C37.8113132,6.26572529 25.5340144,0.412269435 25.0121443,0.170993453 C24.5388202,-0.0476629054 23.9999589,-0.0476629054 23.5266348,0.170993453 C23.007192,0.412269435 10.7286795,6.26572529 7.58896298,23.016813 C6.93359116,26.5128015 6.88019049,30.1834637 7.15083478,33.6983018 C5.93718326,33.5525309 4.88616104,33.7221781 4.0184002,34.226093 C3.2222448,34.6885386 2.20641847,35.6536426 1.88358717,37.6290897 C1.04738127,42.7461511 0.184475032,57.2026037 0.148065486,57.8158468 C0.101946728,58.588684 0.517015549,59.3112553 1.1942331,59.6392398 C1.44060436,59.7586211 1.70275309,59.8164268 1.96368817,59.8164268 C2.42002114,59.8164268 2.87028586,59.6392398 3.21617654,59.2999454 L11.0515108,51.61807 C11.1425346,51.8693992 11.2044309,52.0352764 11.225063,52.0893122 C11.4119653,52.5768907 11.7869836,52.962681 12.2590941,53.1524345 C12.3052128,53.1712842 12.6620264,53.3082586 13.3089026,53.4954988 L13.3089026,57.0794524 C13.3089026,57.3848173 13.3805081,57.6864123 13.5176507,57.9565912 C13.7700902,58.4542229 14.2846784,58.9870407 15.2531724,59.4557695 L16.4498328,77.3403517 C16.4935242,77.9925508 16.860047,78.5743778 17.4195403,78.8797427 C17.97782,79.1825943 18.6489693,79.1662579 19.1926852,78.8332468 L19.7024189,78.520342 L22.5362952,87.7667414 C22.7765982,88.5508883 23.4793024,89.0811928 24.2706032,89.0811928 L24.3142946,89.0811928 C25.1238002,89.0610865 25.8228635,88.491826 26.0303979,87.6825461 L30.2599735,71.2418499 L30.7660661,71.4127537 C31.313423,71.596224 31.9166078,71.5019756 32.3887182,71.1538847 C32.859615,70.8057938 33.1423958,70.2465865 33.1508914,69.6484231 L33.2977432,59.4532562 C34.2589552,58.985784 34.7686889,58.4542229 35.0199147,57.9591044 C35.1570574,57.6889256 35.2286628,57.3873306 35.2286628,57.0819657 L35.2286628,53.4980121 C35.8755391,53.3120285 36.2323526,53.1737975 36.2784714,53.1549478 C36.7505818,52.9651943 37.1256001,52.579404 37.3125025,52.0918255 C37.3331345,52.0365331 37.3962444,51.8693992 37.4884819,51.6155567 L45.3286708,59.3024587 C45.6745615,59.6417531 46.1248262,59.8189401 46.5811592,59.8189401 C46.8420942,59.8189401 47.104243,59.7611344 47.3506142,59.6417531 C48.0278318,59.3137686 48.4429006,58.5911972 48.3967818,57.8183601 C48.3603723,57.205117 47.4974661,42.7486644 46.6612602,37.631603 C46.3396425,35.6523859 45.3226025,34.6860253 44.5264471,34.2248364 Z M11.1631667,23.7343577 C13.5382828,11.0598288 21.7170804,5.47026854 24.2633213,4.01130283 C26.7804345,5.47655177 35.0162738,11.1452807 37.3756124,23.7343577 C39.302891,34.0200031 35.3633781,46.5650975 34.2237593,49.8713325 C32.8365557,50.2646626 29.5172187,51.0111101 24.2693895,51.0111101 C19.0154921,51.0111101 15.6949415,50.2634059 14.3138061,49.8713325 C13.1741873,46.5701241 9.23224715,34.0413661 11.1631667,23.7343577 Z M31.5889219,56.1030387 C30.8000484,56.4410764 28.7878142,57.0203901 24.2693895,57.0203901 C19.7497513,57.0203901 17.7387307,56.4410764 16.9498572,56.1030387 L16.9498572,54.2658226 C18.8261625,54.5523378 21.2607474,54.7810474 24.2693895,54.7810474 C27.2780317,54.7810474 29.7126166,54.5523378 31.5889219,54.2658226 L31.5889219,56.1030387 Z M5.47478203,38.2574125 C5.51240522,38.028703 5.60342909,37.627833 5.80125429,37.5134783 C6.0464119,37.368964 6.64231479,37.3438311 7.58774933,37.6190365 C8.15331094,41.5447978 9.02956734,45.077229 9.78203129,47.6709458 L4.09364659,53.2479396 C4.42254616,48.4601193 4.96383474,41.3826905 5.47478203,38.2574125 Z M38.7603887,47.6659192 C39.5128527,45.073459 40.3878954,41.5447978 40.953457,37.6215498 C41.9013189,37.3450877 42.5008627,37.3702206 42.747234,37.5134783 C42.9438455,37.6265764 43.0360831,38.028703 43.0737063,38.2574125 C43.5846536,41.3814338 44.1247285,48.4601193 44.453628,53.2479396 L38.7603887,47.6659192 Z M29.54756,67.0320867 C29.0754496,66.8762626 28.5632886,66.9277851 28.1288014,67.172831 C27.6894595,67.4191336 27.3678419,67.8438798 27.2391948,68.3440248 L24.1213241,80.4656296 L22.4828945,75.1198587 C22.3154106,74.5719611 21.9149056,74.1333918 21.3966764,73.9285585 C20.9002929,73.7325218 20.3456542,73.7714778 19.879612,74.0328601 L18.9718006,60.4635994 C20.3772091,60.667176 22.1078762,60.7915839 24.2706032,60.7915839 C26.4709534,60.7915839 28.2258935,60.6621494 29.6422248,60.4522896 L29.54756,67.0320867 Z" id="Combined-Shape"></path>
                    <path d="M24.2706032,41.8388529 C29.9068009,41.8388529 34.4907627,37.0912453 34.4907627,31.2566391 C34.4907627,25.4220329 29.9055872,20.6744253 24.2706032,20.6744253 C18.6356192,20.6744253 14.0504437,25.4220329 14.0504437,31.2566391 C14.0504437,37.0912453 18.6344055,41.8388529 24.2706032,41.8388529 Z M30.8498081,31.2553825 C30.8498081,35.0114966 27.8982076,38.067659 24.2706032,38.067659 C20.6429988,38.067659 17.6913983,35.0114966 17.6913983,31.2553825 C17.6913983,27.4992684 20.6417851,24.4431059 24.2706032,24.4431059 C27.8982076,24.4431059 30.8498081,27.4992684 30.8498081,31.2553825 Z" id="Combined-Shape"></path>
                </g>
            </g>
        </g>
    </g>
</svg>