<?xml version="1.0" encoding="UTF-8" standalone="no"?>
<svg width="81px" height="81px" viewBox="0 0 81 81" version="1.1" xmlns="http://www.w3.org/2000/svg" xmlns:xlink="http://www.w3.org/1999/xlink">
    <!-- Generator: Sketch 40.3 (33839) - http://www.bohemiancoding.com/sketch -->
    <title>travelers_picto</title>
    <desc>Created with Sketch.</desc>
    <defs></defs>
    <g id="Page-1" stroke="none" stroke-width="1" fill="none" fill-rule="evenodd">
        <g id="travelers_picto" fill="#FFFFFF">
            <g id="Group" transform="translate(11.000000, 7.000000)">
                <path d="M17.8327214,26.6131244 C17.8327214,35.1069131 25.1649421,42.0207227 34.1793827,42.0207227 C43.1938234,42.0207227 50.5260441,35.1069131 50.5260441,26.6131244 C50.5260441,18.1193356 43.1938234,11.2055261 34.1793827,11.2055261 C25.1649421,11.2055261 17.8327214,18.1193356 17.8327214,26.6131244 Z M45.2891682,19.6096706 L40.8280157,19.6096706 C40.4178631,17.8616085 39.8501882,16.2564169 39.1279629,14.9257607 C41.6453488,15.875429 43.7971638,17.5114358 45.2891682,19.6096706 Z M34.1793827,14.0069076 C35.3563424,14.0069076 36.8632073,16.0799299 37.7905088,19.6096706 L30.5682567,19.6096706 C31.4955582,16.0799299 33.0024231,14.0069076 34.1793827,14.0069076 Z M21.628119,30.8151966 C21.1258307,29.495746 20.8048417,28.0950552 20.8048417,26.6131244 C20.8048417,25.1339949 21.1258307,23.7305028 21.628119,22.4110521 L27.0225172,22.4110521 C26.8412179,23.7921332 26.7490822,25.2096322 26.7490822,26.6131244 C26.7490822,28.0166165 26.8412179,29.4341156 27.0225172,30.8151966 L21.628119,30.8151966 Z M23.0695973,33.6165782 L27.5307498,33.6165782 C27.9409024,35.3646402 28.5085773,36.9698318 29.2308026,38.3004881 C26.7134167,37.3508197 24.5616017,35.7148129 23.0695973,33.6165782 Z M23.0695973,19.6096706 C24.5616017,17.5114358 26.7134167,15.875429 29.2308026,14.9257607 C28.5115495,16.2564169 27.9409024,17.8616085 27.5307498,19.6096706 L23.0695973,19.6096706 Z M34.1793827,39.2193412 C33.0024231,39.2193412 31.4955582,37.1463189 30.5682567,33.6165782 L37.7905088,33.6165782 C36.8632073,37.1463189 35.3563424,39.2193412 34.1793827,39.2193412 Z M39.1279629,38.3004881 C39.8501882,36.9698318 40.4178631,35.3646402 40.8280157,33.6165782 L45.2891682,33.6165782 C43.7971638,35.7148129 41.6453488,37.3508197 39.1279629,38.3004881 Z M47.5539238,26.6131244 C47.5539238,28.0950552 47.2329348,29.495746 46.7306465,30.8151966 L41.3362483,30.8151966 C41.5175476,29.4341156 41.6096833,28.0166165 41.6096833,26.6131244 C41.6096833,25.2096322 41.5175476,23.7921332 41.3362483,22.4110521 L46.7306465,22.4110521 C47.2329348,23.7305028 47.5539238,25.1339949 47.5539238,26.6131244 Z M38.3284626,30.8151966 L30.0273308,30.8151966 C29.8490036,29.5237598 29.7212024,28.1398773 29.7212024,26.6131244 C29.7212024,25.0863715 29.8490036,23.702489 30.0303029,22.4110521 L38.3314347,22.4110521 C38.5097619,23.702489 38.6375631,25.0863715 38.6375631,26.6131244 C38.6375631,28.1398773 38.5097619,29.5237598 38.3284626,30.8151966 Z" id="Combined-Shape"></path>
                <path d="M49.0399839,47.6234857 L19.3187816,47.6234857 C18.4984764,47.6234857 17.8327214,48.2509952 17.8327214,49.0241765 C17.8327214,49.7973578 18.4984764,50.4248672 19.3187816,50.4248672 L49.0399839,50.4248672 C49.8602891,50.4248672 50.5260441,49.7973578 50.5260441,49.0241765 C50.5260441,48.2509952 49.8602891,47.6234857 49.0399839,47.6234857 L49.0399839,47.6234857 Z" id="Combined-Shape"></path>
                <path d="M49.0399839,53.2262488 L19.3187816,53.2262488 C18.4984764,53.2262488 17.8327214,53.8537582 17.8327214,54.6269395 C17.8327214,55.4001208 18.4984764,56.0276303 19.3187816,56.0276303 L49.0399839,56.0276303 C49.8602891,56.0276303 50.5260441,55.4001208 50.5260441,54.6269395 C50.5260441,53.8537582 49.8602891,53.2262488 49.0399839,53.2262488 L49.0399839,53.2262488 Z" id="Combined-Shape"></path>
                <path d="M52.0121042,0 L7.4303006,0 C3.33471891,0 0,3.14034868 0,7.00345378 L0,60.2297025 C0,64.0928076 3.33471891,67.2331563 7.4303006,67.2331563 L52.0121042,67.2331563 C56.1076859,67.2331563 59.4424048,64.0928076 59.4424048,60.2297025 L59.4424048,7.00345378 C59.4424048,3.14034868 56.1076859,0 52.0121042,0 Z M52.0121042,64.4317748 L11.888481,64.4317748 L11.888481,2.80138151 L52.0121042,2.80138151 C54.4700476,2.80138151 56.4702845,4.68671127 56.4702845,7.00345378 L56.4702845,60.2297025 C56.4702845,62.546445 54.4700476,64.4317748 52.0121042,64.4317748 Z M8.91636072,64.4317748 L7.4303006,64.4317748 C4.97235716,64.4317748 2.97212024,62.546445 2.97212024,60.2297025 L2.97212024,7.00345378 C2.97212024,4.68671127 4.97235716,2.80138151 7.4303006,2.80138151 L8.91636072,2.80138151 L8.91636072,64.4317748 Z" id="Combined-Shape"></path>
            </g>
        </g>
    </g>
</svg>