<?xml version="1.0" encoding="UTF-8" standalone="no"?>
<svg width="170px" height="180px" viewBox="0 0 170 180" version="1.1" xmlns="http://www.w3.org/2000/svg" xmlns:xlink="http://www.w3.org/1999/xlink">
    <!-- Generator: Sketch 40.3 (33839) - http://www.bohemiancoding.com/sketch -->
    <title>get_advice copy 5</title>
    <desc>Created with Sketch.</desc>
    <defs>
        <path d="M134.155227,120.418095 L91.5101917,120.418095 C87.9124983,120.418095 85,116.736818 85,112.195733 L85,96.2223621 C85,91.6872056 87.9147121,88 91.5101917,88 L142.407426,88 C146.005119,88 148.917617,91.6812769 148.917617,96.2223621 L148.917617,112.195733 C148.917617,116.200327 146.64499,119.543767 143.637788,120.271248 L142.88943,126 L134.155227,120.418095 Z" id="path-1"></path>
        <mask id="mask-2" maskContentUnits="userSpaceOnUse" maskUnits="objectBoundingBox" x="0" y="0" width="63.9176174" height="38" fill="white">
            <use xlink:href="#path-1"></use>
        </mask>
        <path d="M26.5177035,84.625 L68.008114,84.625 C70.7566336,84.625 73,82.3894856 73,79.6318389 L73,66.9931611 C73,64.2312913 70.7650565,62 68.008114,62 L16.991886,62 C14.2433664,62 12,64.2355144 12,66.9931611 L12,79.6318389 C12,82.3937087 14.2349435,84.625 16.991886,84.625 L17.372125,84.625 L18.0768136,89 L26.5177035,84.625 Z" id="path-3"></path>
        <mask id="mask-4" maskContentUnits="userSpaceOnUse" maskUnits="objectBoundingBox" x="0" y="0" width="61" height="27" fill="white">
            <use xlink:href="#path-3"></use>
        </mask>
        <path d="M27.3586312,29.625 L76.0099332,29.625 C78.7629742,29.625 81,27.3900155 81,24.6330224 L81,4.99197762 C81,2.23883365 78.765871,0 76.0099332,0 L16.9900668,0 C14.2370258,0 12,2.23498451 12,4.99197762 L12,24.6330224 C12,27.3861663 14.234129,29.625 16.9900668,29.625 L17.6833016,29.625 L18.4288088,34 L27.3586312,29.625 Z" id="path-5"></path>
        <mask id="mask-6" maskContentUnits="userSpaceOnUse" maskUnits="objectBoundingBox" x="0" y="0" width="69" height="34" fill="white">
            <use xlink:href="#path-5"></use>
        </mask>
        <path d="M134.155227,58.4180949 L102.287957,58.4180949 C99.365701,58.4180949 97,55.6452679 97,52.2248124 L97,40.1932825 C97,36.7772926 99.3674992,34 102.287957,34 L143.62966,34 C146.551916,34 148.917617,36.772827 148.917617,40.1932825 L148.917617,52.2248124 C148.917617,55.6408023 146.550118,58.4180949 143.62966,58.4180949 L143.618606,58.4180949 L142.88943,64 L134.155227,58.4180949 Z" id="path-7"></path>
        <mask id="mask-8" maskContentUnits="userSpaceOnUse" maskUnits="objectBoundingBox" x="0" y="0" width="51.9176174" height="30" fill="white">
            <use xlink:href="#path-7"></use>
        </mask>
    </defs>
    <g id="Page-1" stroke="none" stroke-width="1" fill="none" fill-rule="evenodd">
        <g id="get_advice-copy-5">
            <g id="Group" transform="translate(85.000000, 90.000000) scale(-1, 1) translate(-85.000000, -90.000000) translate(4.000000, 4.000000)">
                <use id="Combined-Shape-Copy-4" stroke="#4A4A4A" mask="url(#mask-2)" stroke-width="2" fill="#FFFFFF" xlink:href="#path-1"></use>
                <use id="Combined-Shape-Copy-3" stroke="#4A4A4A" mask="url(#mask-4)" stroke-width="2" fill="#FFFFFF" xlink:href="#path-3"></use>
                <use id="Combined-Shape-Copy-5" stroke="#4A4A4A" mask="url(#mask-6)" stroke-width="2" fill="#FFFFFF" xlink:href="#path-5"></use>
                <use id="Combined-Shape-Copy-4" stroke="#4A4A4A" mask="url(#mask-8)" stroke-width="2" fill="#FFFFFF" xlink:href="#path-7"></use>
                <rect id="Rectangle-3-Copy-8" fill="#F9C74B" x="91" y="103" width="49.5687645" height="3"></rect>
                <rect id="Rectangle-3-Copy-11" fill="#F9C74B" x="103" y="96" width="38" height="3"></rect>
                <rect id="Rectangle-3-Copy-10" fill="#F9C74B" x="100" y="110" width="40.4376763" height="3"></rect>
                <rect id="Rectangle-3-Copy-5" fill="#42D3AA" x="32" y="68" width="32.6110293" height="3"></rect>
                <rect id="Rectangle-3-Copy-7" fill="#42D3AA" x="40" y="13" width="32.6110293" height="3"></rect>
                <rect id="Rectangle-3-Copy-13" fill="#42D3AA" x="30" y="6" width="43" height="3"></rect>
                <rect id="Rectangle-3-Copy-6" fill="#42D3AA" x="21" y="75" width="44" height="3"></rect>
                <rect id="Rectangle-3-Copy-12" fill="#42D3AA" x="21" y="20" width="51.9176174" height="3"></rect>
                <g id="avatar-blue-copy-4" transform="translate(124.000000, 134.000000)">
                    <ellipse id="Oval-3" stroke="#4A4A4A" fill="#FFC938" cx="18.8554643" cy="18.7649757" rx="18.8554643" ry="18.7649757"></ellipse>
                    <path d="M23.6829028,28.2276607 C23.3024199,27.9910001 22.9219369,27.8490037 22.541454,27.7070074 C22.0182899,27.565011 21.637807,27.1390219 21.5426863,26.6183686 C21.4475655,26.0977152 21.6853674,25.5770619 22.1609711,25.245737 C23.8255839,24.1570982 24.7767912,22.3111455 24.7767912,20.3705285 L24.7767912,15.0219988 C24.7767912,11.8034145 22.1134107,9.15281571 18.8793057,9.15281571 C15.6452008,9.15281571 12.9818203,11.8034145 12.9818203,15.0219988 L12.9818203,20.3705285 C12.9818203,22.3111455 13.9330276,24.1097661 15.5500801,25.245737 C15.9781234,25.5297298 16.2159252,26.0977152 16.1208045,26.6183686 C16.0256837,27.1390219 15.6452008,27.565011 15.1220368,27.7070074 C14.6464331,27.8490037 14.2183898,28.0383322 13.8379069,28.2749928 L9.55747384,30.9255916 C8.74894761,30.3576062 8.03554211,29.7422886 7.36969697,29.0796389 L12.2684148,26.0503831 C10.9367245,24.4884231 10.1757586,22.5478061 10.1757586,20.4651928 L10.1757586,15.0219988 C10.1757586,10.2887866 14.0757087,6.40755266 18.8317454,6.40755266 C23.5877821,6.40755266 27.4877321,10.2887866 27.4877321,15.0219988 L27.4877321,20.3705285 C27.4877321,22.500474 26.7267663,24.4884231 25.3475156,26.0503831 L30.2937938,29.0323068 C29.6279486,29.7422886 28.9145431,30.3576062 28.1060169,30.9255916 L23.6829028,28.2276607 Z" id="Shape-Copy-3" fill="#FFFFFF"></path>
                </g>
                <g id="avatar-blue-copy-3" transform="translate(0.000000, 134.000000)">
                    <ellipse id="Oval-3" stroke="#4A4A4A" fill="#42D3AA" cx="18.8554643" cy="18.7649757" rx="18.8554643" ry="18.7649757"></ellipse>
                    <path d="M23.6829028,28.2276607 C23.3024199,27.9910001 22.9219369,27.8490037 22.541454,27.7070074 C22.0182899,27.565011 21.637807,27.1390219 21.5426863,26.6183686 C21.4475655,26.0977152 21.6853674,25.5770619 22.1609711,25.245737 C23.8255839,24.1570982 24.7767912,22.3111455 24.7767912,20.3705285 L24.7767912,15.0219988 C24.7767912,11.8034145 22.1134107,9.15281571 18.8793057,9.15281571 C15.6452008,9.15281571 12.9818203,11.8034145 12.9818203,15.0219988 L12.9818203,20.3705285 C12.9818203,22.3111455 13.9330276,24.1097661 15.5500801,25.245737 C15.9781234,25.5297298 16.2159252,26.0977152 16.1208045,26.6183686 C16.0256837,27.1390219 15.6452008,27.565011 15.1220368,27.7070074 C14.6464331,27.8490037 14.2183898,28.0383322 13.8379069,28.2749928 L9.55747384,30.9255916 C8.74894761,30.3576062 8.03554211,29.7422886 7.36969697,29.0796389 L12.2684148,26.0503831 C10.9367245,24.4884231 10.1757586,22.5478061 10.1757586,20.4651928 L10.1757586,15.0219988 C10.1757586,10.2887866 14.0757087,6.40755266 18.8317454,6.40755266 C23.5877821,6.40755266 27.4877321,10.2887866 27.4877321,15.0219988 L27.4877321,20.3705285 C27.4877321,22.500474 26.7267663,24.4884231 25.3475156,26.0503831 L30.2937938,29.0323068 C29.6279486,29.7422886 28.9145431,30.3576062 28.1060169,30.9255916 L23.6829028,28.2276607 Z" id="Shape-Copy-3" fill="#FFFFFF"></path>
                </g>
                <rect id="Rectangle-3-Copy-9" fill="#F9C74B" x="104" y="41" width="36" height="3"></rect>
                <rect id="Rectangle-3-Copy-10" fill="#F9C74B" x="109" y="48" width="31" height="3"></rect>
            </g>
        </g>
    </g>
</svg>