<?xml version="1.0" encoding="UTF-8" standalone="no"?>
<svg width="170px" height="180px" viewBox="0 0 170 180" version="1.1" xmlns="http://www.w3.org/2000/svg" xmlns:xlink="http://www.w3.org/1999/xlink">
    <!-- Generator: Sketch 40.3 (33839) - http://www.bohemiancoding.com/sketch -->
    <title>evaluate copy 3</title>
    <desc>Created with Sketch.</desc>
    <defs></defs>
    <g id="Page-1" stroke="none" stroke-width="1" fill="none" fill-rule="evenodd">
        <g id="evaluate-copy-3">
            <path d="M81.5,66.5 L73.5,9.5" id="Line" stroke="#9D9D9D" stroke-linecap="square"></path>
            <path d="M88.5,155.5 L85.5,113.5" id="Line" stroke="#9D9D9D" stroke-linecap="square"></path>
            <path d="M66.5,77.5 L21.5,46.5" id="Line-Copy-5" stroke="#9D9D9D" stroke-linecap="square"></path>
            <path d="M136.5,168.5 L98.5,109.5" id="Line-Copy" stroke="#9D9D9D" stroke-linecap="square"></path>
            <path d="M153.5,54.5 L104.5,80.5" id="Line-Copy-2" stroke="#9D9D9D" stroke-linecap="square"></path>
            <path d="M160.5,105.5 L107.5,95.5" id="Line-Copy-3" stroke="#9D9D9D" stroke-linecap="square"></path>
            <path d="M62.5,92.5 L10.5,98.5" id="Line-Copy-4" stroke="#9D9D9D" stroke-linecap="square"></path>
            <path d="M105.5,49.5 L95.5,68.5" id="Line-Copy-7" stroke="#9D9D9D" stroke-linecap="square"></path>
            <path d="M70.5,106.5 L22.5,158.5" id="Line-Copy-6" stroke="#9D9D9D" stroke-linecap="square"></path>
            <path d="M147.855371,58.5766349 L140.948853,57.6099856 L137.860092,51.5805981 C137.678017,51.225107 137.302164,51 136.890592,51 C136.47902,51 136.103167,51.225107 135.921092,51.5805981 L132.832517,57.6098962 L125.925767,58.5765454 C125.518515,58.6335493 125.180051,58.9083669 125.052971,59.2853798 C124.925751,59.6623927 125.031837,60.0763641 125.326593,60.353061 L130.324303,65.045498 L129.144071,71.6727101 C129.074539,72.0634146 129.241239,72.4583251 129.574175,72.6913519 C129.907157,72.9242891 130.348409,72.9551177 130.71279,72.7706382 L136.890592,69.6420486 L143.06844,72.7706382 C143.226594,72.8507747 143.399333,72.8902837 143.571374,72.8902837 C144.171755,72.8886729 144.65402,72.4229774 144.65402,71.8487777 C144.65402,71.7687754 144.644638,71.6908761 144.626988,71.6160194 L143.456835,65.0455427 L148.454637,60.3531505 C148.7493,60.0764536 148.855386,59.6625717 148.728167,59.2854693 C148.60104,58.9084564 148.262716,58.6336388 147.855371,58.5766349 Z" id="Shape-Copy-3" stroke="#4A4A4A" fill="#FFC938"></path>
            <path d="M132.855371,141.576635 L125.948853,140.609986 L122.860092,134.580598 C122.678017,134.225107 122.302164,134 121.890592,134 C121.47902,134 121.103167,134.225107 120.921092,134.580598 L117.832517,140.609896 L110.925767,141.576545 C110.518515,141.633549 110.180051,141.908367 110.052971,142.28538 C109.925751,142.662393 110.031837,143.076364 110.326593,143.353061 L115.324303,148.045498 L114.144071,154.67271 C114.074539,155.063415 114.241239,155.458325 114.574175,155.691352 C114.907157,155.924289 115.348409,155.955118 115.71279,155.770638 L121.890592,152.642049 L128.06844,155.770638 C128.226594,155.850775 128.399333,155.890284 128.571374,155.890284 C129.171755,155.888673 129.65402,155.422977 129.65402,154.848778 C129.65402,154.768775 129.644638,154.690876 129.626988,154.616019 L128.456835,148.045543 L133.454637,143.35315 C133.7493,143.076454 133.855386,142.662572 133.728167,142.285469 C133.60104,141.908456 133.262716,141.633639 132.855371,141.576635 Z" id="Shape-Copy-4" stroke="#4A4A4A" fill="#FFC938"></path>
            <path d="M42.8553708,47.5766349 L35.9488532,46.6099856 L32.8600916,40.5805981 C32.6780172,40.225107 32.3021637,40 31.890592,40 C31.4790203,40 31.1031668,40.225107 30.9210924,40.5805981 L27.8325165,46.6098962 L20.9257667,47.5765454 C20.5185147,47.6335493 20.1800514,47.9083669 20.0529709,48.2853798 C19.9257511,48.6623927 20.0318373,49.0763641 20.3265934,49.353061 L25.3243027,54.045498 L24.1440706,60.6727101 C24.0745386,61.0634146 24.2412389,61.4583251 24.5741749,61.6913519 C24.9071573,61.9242891 25.348409,61.9551177 25.71279,61.7706382 L31.890592,58.6420486 L38.0684405,61.7706382 C38.2265944,61.8507747 38.3993328,61.8902837 38.5713745,61.8902837 C39.1717554,61.8886729 39.6540203,61.4229774 39.6540203,60.8487777 C39.6540203,60.7687754 39.6446379,60.6908761 39.6269878,60.6160194 L38.4568348,54.0455427 L43.454637,49.3531505 C43.7493002,49.0764536 43.8553864,48.6625717 43.7281666,48.2854693 C43.6010397,47.9084564 43.2627158,47.6336388 42.8553708,47.5766349 Z" id="Shape-Copy-5" stroke="#4A4A4A" fill="#FFC938"></path>
            <path d="M86.8553708,13.5766349 L79.9488532,12.6099856 L76.8600916,6.58059808 C76.6780172,6.22510704 76.3021637,6 75.890592,6 C75.4790203,6 75.1031668,6.22510704 74.9210924,6.58059808 L71.8325165,12.6098962 L64.9257667,13.5765454 C64.5185147,13.6335493 64.1800514,13.9083669 64.0529709,14.2853798 C63.9257511,14.6623927 64.0318373,15.0763641 64.3265934,15.353061 L69.3243027,20.045498 L68.1440706,26.6727101 C68.0745386,27.0634146 68.2412389,27.4583251 68.5741749,27.6913519 C68.9071573,27.9242891 69.348409,27.9551177 69.71279,27.7706382 L75.890592,24.6420486 L82.0684405,27.7706382 C82.2265944,27.8507747 82.3993328,27.8902837 82.5713745,27.8902837 C83.1717554,27.8886729 83.6540203,27.4229774 83.6540203,26.8487777 C83.6540203,26.7687754 83.6446379,26.6908761 83.6269878,26.6160194 L82.4568348,20.0455427 L87.454637,15.3531505 C87.7493002,15.0764536 87.8553864,14.6625717 87.7281666,14.2854693 C87.6010397,13.9084564 87.2627158,13.6336388 86.8553708,13.5766349 Z" id="Shape-Copy-7" stroke="#4A4A4A" fill="#FFFFFF"></path>
            <path d="M49.8553708,140.576635 L42.9488532,139.609986 L39.8600916,133.580598 C39.6780172,133.225107 39.3021637,133 38.890592,133 C38.4790203,133 38.1031668,133.225107 37.9210924,133.580598 L34.8325165,139.609896 L27.9257667,140.576545 C27.5185147,140.633549 27.1800514,140.908367 27.0529709,141.28538 C26.9257511,141.662393 27.0318373,142.076364 27.3265934,142.353061 L32.3243027,147.045498 L31.1440706,153.67271 C31.0745386,154.063415 31.2412389,154.458325 31.5741749,154.691352 C31.9071573,154.924289 32.348409,154.955118 32.71279,154.770638 L38.890592,151.642049 L45.0684405,154.770638 C45.2265944,154.850775 45.3993328,154.890284 45.5713745,154.890284 C46.1717554,154.888673 46.6540203,154.422977 46.6540203,153.848778 C46.6540203,153.768775 46.6446379,153.690876 46.6269878,153.616019 L45.4568348,147.045543 L50.454637,142.35315 C50.7493002,142.076454 50.8553864,141.662572 50.7281666,141.285469 C50.6010397,140.908456 50.2627158,140.633639 49.8553708,140.576635 Z" id="Shape-Copy-8" stroke="#4A4A4A" fill="#FFFFFF"></path>
            <g id="avatar-blue-copy-3" transform="translate(66.000000, 71.000000)">
                <ellipse id="Oval-3" stroke="#4A4A4A" fill="#42D3AA" cx="18.8554643" cy="18.7649757" rx="18.8554643" ry="18.7649757"></ellipse>
                <path d="M23.6829028,28.2276607 C23.3024199,27.9910001 22.9219369,27.8490037 22.541454,27.7070074 C22.0182899,27.565011 21.637807,27.1390219 21.5426863,26.6183686 C21.4475655,26.0977152 21.6853674,25.5770619 22.1609711,25.245737 C23.8255839,24.1570982 24.7767912,22.3111455 24.7767912,20.3705285 L24.7767912,15.0219988 C24.7767912,11.8034145 22.1134107,9.15281571 18.8793057,9.15281571 C15.6452008,9.15281571 12.9818203,11.8034145 12.9818203,15.0219988 L12.9818203,20.3705285 C12.9818203,22.3111455 13.9330276,24.1097661 15.5500801,25.245737 C15.9781234,25.5297298 16.2159252,26.0977152 16.1208045,26.6183686 C16.0256837,27.1390219 15.6452008,27.565011 15.1220368,27.7070074 C14.6464331,27.8490037 14.2183898,28.0383322 13.8379069,28.2749928 L9.55747384,30.9255916 C8.74894761,30.3576062 8.03554211,29.7422886 7.36969697,29.0796389 L12.2684148,26.0503831 C10.9367245,24.4884231 10.1757586,22.5478061 10.1757586,20.4651928 L10.1757586,15.0219988 C10.1757586,10.2887866 14.0757087,6.40755266 18.8317454,6.40755266 C23.5877821,6.40755266 27.4877321,10.2887866 27.4877321,15.0219988 L27.4877321,20.3705285 C27.4877321,22.500474 26.7267663,24.4884231 25.3475156,26.0503831 L30.2937938,29.0323068 C29.6279486,29.7422886 28.9145431,30.3576062 28.1060169,30.9255916 L23.6829028,28.2276607 Z" id="Shape-Copy-3" fill="#FFFFFF"></path>
            </g>
        </g>
    </g>
</svg>