<?xml version="1.0" encoding="UTF-8" standalone="no"?>
<svg width="170px" height="180px" viewBox="0 0 170 180" version="1.1" xmlns="http://www.w3.org/2000/svg" xmlns:xlink="http://www.w3.org/1999/xlink">
    <!-- Generator: Sketch 40.3 (33839) - http://www.bohemiancoding.com/sketch -->
    <title>find copy 2</title>
    <desc>Created with Sketch.</desc>
    <defs></defs>
    <g id="Page-1" stroke="none" stroke-width="1" fill="none" fill-rule="evenodd">
        <g id="find-copy-2">
            <g id="find" transform="translate(4.000000, 12.000000)">
                <g id="Find-your-champion-Copy" transform="translate(8.013980, 10.810341)">
                    <g id="Circles" transform="translate(0.205862, 0.899001)" stroke="#9D9D9D">
                        <ellipse id="Oval-2" cx="69.3334944" cy="63.8511197" rx="66.4445988" ry="63.8511197"></ellipse>
                        <ellipse id="Oval-2-Copy" cx="80.8890768" cy="74.185405" rx="66.4445988" ry="63.8511197"></ellipse>
                        <ellipse id="Oval-2-Copy-2" cx="83.7779724" cy="63.8511197" rx="66.4445988" ry="63.8511197"></ellipse>
                        <ellipse id="Oval-2-Copy-3" cx="66.4445988" cy="74.185405" rx="66.4445988" ry="63.8511197"></ellipse>
                    </g>
                    <path d="M88.201469,78.1676802 L83.2591338,73.1466354 C84.4501917,71.3998194 85.0460235,69.4524693 85.0460235,67.3056105 C85.0460235,65.9100241 84.7793476,64.5753004 84.245996,63.3017471 C83.7129975,62.0279886 82.992458,60.9301014 82.0846801,60.0078289 C81.1769022,59.0855564 80.0964209,58.3535119 78.8429334,57.8119518 C77.5890421,57.2702378 76.2753961,56.9994065 74.901743,56.9994065 C73.5281908,56.9994065 72.2144438,57.2702378 70.9609058,57.8119518 C69.707166,58.3535119 68.6265333,59.0855564 67.7187554,60.0078289 C66.8108765,60.9301014 66.0904379,62.0281937 65.5573386,63.3017471 C65.0241887,64.5754542 64.7576138,65.9100241 64.7576138,67.3056105 C64.7576138,68.7010943 65.0241887,70.0353566 65.5573386,71.3092688 C66.0903874,72.5828222 66.8108765,73.6805556 67.7187554,74.6028281 C68.6265333,75.5254082 69.7073679,76.2571451 70.9609058,76.7990128 C72.2145952,77.3406242 73.5281908,77.6114043 74.901743,77.6114043 C77.0153156,77.6114043 78.931758,77.0060076 80.6512217,75.7960345 L85.5935568,80.8025173 C85.9393674,81.1732825 86.3710754,81.3587932 86.8902454,81.3587932 C87.3897327,81.3587932 87.8222482,81.1733338 88.1869845,80.8025173 C88.5518721,80.4318035 88.7344674,79.9925871 88.7344674,79.4851244 C88.7346188,78.968176 88.556919,78.5288057 88.201469,78.1676802 Z M79.4622835,71.9384569 C78.199106,73.2220087 76.6790436,73.863759 74.901743,73.863759 C73.1247451,73.863759 71.6046827,73.2218549 70.3414043,71.9384569 C69.0781259,70.6551101 68.4465119,69.1109818 68.4465119,67.3053029 C68.4465119,65.4999315 69.0782773,63.9553418 70.3414043,62.6721488 C71.6044304,61.3886483 73.1247451,60.7470005 74.901743,60.7470005 C76.6788417,60.7470005 78.1989041,61.3889046 79.4622835,62.6721488 C80.7256628,63.9553418 81.3572768,65.4999315 81.3572768,67.3053029 C81.3572768,69.1109818 80.7254609,70.6551101 79.4622835,71.9384569 Z" id="Combined-Shape" fill="#FFC938"></path>
                </g>
                <g id="avatar-blue" transform="translate(71.000000, 0.000000)">
                    <ellipse id="Oval-3" stroke="#4A4A4A" fill="#F9F9F9" cx="18.8554643" cy="18.7649757" rx="18.8554643" ry="18.7649757"></ellipse>
                    <path d="M28.1060169,30.9255916 L23.6829028,28.2276607 C23.3024199,27.9910001 22.9219369,27.8490037 22.541454,27.7070074 C22.0182899,27.565011 21.637807,27.1390219 21.5426863,26.6183686 C21.4475655,26.0977152 21.6853674,25.5770619 22.1609711,25.245737 C23.8255839,24.1570982 24.7767912,22.3111455 24.7767912,20.3705285 L24.7767912,15.0219988 C24.7767912,11.8034145 22.1134107,9.15281571 18.8793057,9.15281571 C15.6452008,9.15281571 12.9818203,11.8034145 12.9818203,15.0219988 L12.9818203,20.3705285 C12.9818203,22.3111455 13.9330276,24.1097661 15.5500801,25.245737 C15.9781234,25.5297298 16.2159252,26.0977152 16.1208045,26.6183686 C16.0256837,27.1390219 15.6452008,27.565011 15.1220368,27.7070074 C14.6464331,27.8490037 14.2183898,28.0383322 13.8379069,28.2749928 L9.55747384,30.9255916 C8.74894761,30.3576062 8.03554211,29.7422886 7.36969697,29.0796389 L12.2684148,26.0503831 C10.9367245,24.4884231 10.1757586,22.5478061 10.1757586,20.4651928 L10.1757586,15.0219988 C10.1757586,10.2887866 14.0757087,6.40755266 18.8317454,6.40755266 C23.5877821,6.40755266 27.4877321,10.2887866 27.4877321,15.0219988 L27.4877321,20.3705285 C27.4877321,22.500474 26.7267663,24.4884231 25.3475156,26.0503831 L30.2937938,29.0323068 C29.6279486,29.7422886 28.9145431,30.3576062 28.1060169,30.9255916 L28.1060169,30.9255916 Z" id="Shape-Copy-3" fill="#9D9D9D"></path>
                </g>
                <g id="avatar-blue-copy-2" transform="translate(54.000000, 124.000000)">
                    <ellipse id="Oval-3" stroke="#4A4A4A" fill="#F9F9F9" cx="18.8554643" cy="18.7649757" rx="18.8554643" ry="18.7649757"></ellipse>
                    <path d="M28.1060169,30.9255916 L23.6829028,28.2276607 C23.3024199,27.9910001 22.9219369,27.8490037 22.541454,27.7070074 C22.0182899,27.565011 21.637807,27.1390219 21.5426863,26.6183686 C21.4475655,26.0977152 21.6853674,25.5770619 22.1609711,25.245737 C23.8255839,24.1570982 24.7767912,22.3111455 24.7767912,20.3705285 L24.7767912,15.0219988 C24.7767912,11.8034145 22.1134107,9.15281571 18.8793057,9.15281571 C15.6452008,9.15281571 12.9818203,11.8034145 12.9818203,15.0219988 L12.9818203,20.3705285 C12.9818203,22.3111455 13.9330276,24.1097661 15.5500801,25.245737 C15.9781234,25.5297298 16.2159252,26.0977152 16.1208045,26.6183686 C16.0256837,27.1390219 15.6452008,27.565011 15.1220368,27.7070074 C14.6464331,27.8490037 14.2183898,28.0383322 13.8379069,28.2749928 L9.55747384,30.9255916 C8.74894761,30.3576062 8.03554211,29.7422886 7.36969697,29.0796389 L12.2684148,26.0503831 C10.9367245,24.4884231 10.1757586,22.5478061 10.1757586,20.4651928 L10.1757586,15.0219988 C10.1757586,10.2887866 14.0757087,6.40755266 18.8317454,6.40755266 C23.5877821,6.40755266 27.4877321,10.2887866 27.4877321,15.0219988 L27.4877321,20.3705285 C27.4877321,22.500474 26.7267663,24.4884231 25.3475156,26.0503831 L30.2937938,29.0323068 C29.6279486,29.7422886 28.9145431,30.3576062 28.1060169,30.9255916 L28.1060169,30.9255916 Z" id="Shape-Copy-3" fill="#9D9D9D"></path>
                </g>
                <g id="avatar-blue-copy-4" transform="translate(126.000000, 65.000000)">
                    <ellipse id="Oval-3" stroke="#4A4A4A" fill="#F9F9F9" cx="18.8554643" cy="18.7649757" rx="18.8554643" ry="18.7649757"></ellipse>
                    <path d="M28.1060169,30.9255916 L23.6829028,28.2276607 C23.3024199,27.9910001 22.9219369,27.8490037 22.541454,27.7070074 C22.0182899,27.565011 21.637807,27.1390219 21.5426863,26.6183686 C21.4475655,26.0977152 21.6853674,25.5770619 22.1609711,25.245737 C23.8255839,24.1570982 24.7767912,22.3111455 24.7767912,20.3705285 L24.7767912,15.0219988 C24.7767912,11.8034145 22.1134107,9.15281571 18.8793057,9.15281571 C15.6452008,9.15281571 12.9818203,11.8034145 12.9818203,15.0219988 L12.9818203,20.3705285 C12.9818203,22.3111455 13.9330276,24.1097661 15.5500801,25.245737 C15.9781234,25.5297298 16.2159252,26.0977152 16.1208045,26.6183686 C16.0256837,27.1390219 15.6452008,27.565011 15.1220368,27.7070074 C14.6464331,27.8490037 14.2183898,28.0383322 13.8379069,28.2749928 L9.55747384,30.9255916 C8.74894761,30.3576062 8.03554211,29.7422886 7.36969697,29.0796389 L12.2684148,26.0503831 C10.9367245,24.4884231 10.1757586,22.5478061 10.1757586,20.4651928 L10.1757586,15.0219988 C10.1757586,10.2887866 14.0757087,6.40755266 18.8317454,6.40755266 C23.5877821,6.40755266 27.4877321,10.2887866 27.4877321,15.0219988 L27.4877321,20.3705285 C27.4877321,22.500474 26.7267663,24.4884231 25.3475156,26.0503831 L30.2937938,29.0323068 C29.6279486,29.7422886 28.9145431,30.3576062 28.1060169,30.9255916 L28.1060169,30.9255916 Z" id="Shape-Copy-3" fill="#9D9D9D"></path>
                </g>
                <g id="avatar-blue-copy-3" transform="translate(0.000000, 54.000000)">
                    <ellipse id="Oval-3" stroke="#4A4A4A" fill="#9D9D9D" cx="18.8554643" cy="18.7649757" rx="18.8554643" ry="18.7649757"></ellipse>
                    <path d="M23.6829028,28.2276607 C23.3024199,27.9910001 22.9219369,27.8490037 22.541454,27.7070074 C22.0182899,27.565011 21.637807,27.1390219 21.5426863,26.6183686 C21.4475655,26.0977152 21.6853674,25.5770619 22.1609711,25.245737 C23.8255839,24.1570982 24.7767912,22.3111455 24.7767912,20.3705285 L24.7767912,15.0219988 C24.7767912,11.8034145 22.1134107,9.15281571 18.8793057,9.15281571 C15.6452008,9.15281571 12.9818203,11.8034145 12.9818203,15.0219988 L12.9818203,20.3705285 C12.9818203,22.3111455 13.9330276,24.1097661 15.5500801,25.245737 C15.9781234,25.5297298 16.2159252,26.0977152 16.1208045,26.6183686 C16.0256837,27.1390219 15.6452008,27.565011 15.1220368,27.7070074 C14.6464331,27.8490037 14.2183898,28.0383322 13.8379069,28.2749928 L9.55747384,30.9255916 C8.74894761,30.3576062 8.03554211,29.7422886 7.36969697,29.0796389 L12.2684148,26.0503831 C10.9367245,24.4884231 10.1757586,22.5478061 10.1757586,20.4651928 L10.1757586,15.0219988 C10.1757586,10.2887866 14.0757087,6.40755266 18.8317454,6.40755266 C23.5877821,6.40755266 27.4877321,10.2887866 27.4877321,15.0219988 L27.4877321,20.3705285 C27.4877321,22.500474 26.7267663,24.4884231 25.3475156,26.0503831 L30.2937938,29.0323068 C29.6279486,29.7422886 28.9145431,30.3576062 28.1060169,30.9255916 L23.6829028,28.2276607 Z" id="Shape-Copy-3" fill="#FFFFFF"></path>
                </g>
            </g>
        </g>
    </g>
</svg>