<?xml version="1.0" encoding="UTF-8" standalone="no"?>
<svg width="170px" height="180px" viewBox="0 0 170 180" version="1.1" xmlns="http://www.w3.org/2000/svg" xmlns:xlink="http://www.w3.org/1999/xlink">
    <!-- Generator: Sketch 40.3 (33839) - http://www.bohemiancoding.com/sketch -->
    <title>find copy 4</title>
    <desc>Created with Sketch.</desc>
    <defs>
        <rect id="path-1" x="0" y="6" width="39" height="40" rx="4"></rect>
        <mask id="mask-2" maskContentUnits="userSpaceOnUse" maskUnits="objectBoundingBox" x="0" y="0" width="39" height="40" fill="white">
            <use xlink:href="#path-1"></use>
        </mask>
        <rect id="path-3" x="0" y="6" width="39" height="40" rx="4"></rect>
        <mask id="mask-4" maskContentUnits="userSpaceOnUse" maskUnits="objectBoundingBox" x="0" y="0" width="39" height="40" fill="white">
            <use xlink:href="#path-3"></use>
        </mask>
        <rect id="path-5" x="0" y="6" width="39" height="40" rx="4"></rect>
        <mask id="mask-6" maskContentUnits="userSpaceOnUse" maskUnits="objectBoundingBox" x="0" y="0" width="39" height="40" fill="white">
            <use xlink:href="#path-5"></use>
        </mask>
        <rect id="path-7" x="0" y="6" width="39" height="40" rx="4"></rect>
        <mask id="mask-8" maskContentUnits="userSpaceOnUse" maskUnits="objectBoundingBox" x="0" y="0" width="39" height="40" fill="white">
            <use xlink:href="#path-7"></use>
        </mask>
    </defs>
    <g id="Page-1" stroke="none" stroke-width="1" fill="none" fill-rule="evenodd">
        <g id="find-copy-4">
            <g id="find" transform="translate(10.000000, 23.000000)" stroke="#9D9D9D">
                <g id="Find-your-champion-Copy" transform="translate(0.013980, 0.810341)">
                    <g id="Circles" transform="translate(0.544894, 0.000000)">
                        <circle id="Oval-2" cx="68" cy="65" r="65"></circle>
                        <circle id="Oval-2-Copy" cx="80" cy="76" r="65"></circle>
                        <circle id="Oval-2-Copy-2" cx="83" cy="65" r="65"></circle>
                        <circle id="Oval-2-Copy-3" cx="65" cy="76" r="65"></circle>
                    </g>
                </g>
            </g>
            <g id="avatar-blue-copy-3" transform="translate(65.000000, 72.000000)">
                <ellipse id="Oval-3" fill="#FFC938" cx="18.8554643" cy="18.7649757" rx="18.8554643" ry="18.7649757"></ellipse>
                <path d="M28.5554058,26.6572573 L24.4328172,22.469014 C25.4263236,21.0119288 25.9233294,19.3875704 25.9233294,17.5967944 C25.9233294,16.432683 25.700885,15.3193395 25.2559962,14.2570205 C24.8114021,13.1945305 24.2103728,12.2787412 23.453161,11.5094388 C22.6959491,10.7401365 21.7946788,10.1295105 20.7490975,9.67777474 C19.7031794,9.22591066 18.6074176,9 17.4616016,9 C16.3158698,9 15.2200238,9.22591066 14.1744003,9.67777474 C13.1286085,10.1295105 12.227212,10.7401365 11.4700001,11.5094388 C10.712704,12.2787412 10.1117589,13.1947015 9.66708062,14.2570205 C9.22236021,15.3194678 9,16.432683 9,17.5967944 C9,18.7608202 9.22236021,19.8737787 9.66708062,20.9363971 C10.1117168,21.9987161 10.712704,22.9143771 11.4700001,23.6836794 C12.227212,24.4532384 13.1287769,25.0636077 14.1744003,25.5156001 C15.2201501,25.9673787 16.3158698,26.1932465 17.4616016,26.1932465 C19.2246124,26.1932465 20.8231895,25.6882622 22.2574591,24.6789779 L26.3800477,28.8550746 C26.6685014,29.1643438 27.0286053,29.3190853 27.4616647,29.3190853 C27.8783059,29.3190853 28.2390835,29.1643865 28.5433237,28.8550746 C28.8476903,28.5458481 28.9999999,28.1794811 28.9999999,27.7561873 C29.0001262,27.3249811 28.8519001,26.9584858 28.5554058,26.6572573 Z M21.2657208,21.4612267 C20.2120567,22.5318858 18.9441152,23.0671939 17.4616016,23.0671939 C15.9793405,23.0671939 14.711399,22.5317575 13.6576507,21.4612267 C12.6039024,20.3907386 12.0770494,19.1027228 12.0770494,17.5965377 C12.0770494,16.0906093 12.6040287,14.8022085 13.6576507,13.7318488 C14.7111885,12.6612325 15.9793405,12.1260098 17.4616016,12.1260098 C18.9439468,12.1260098 20.2118884,12.6614463 21.2657208,13.7318488 C22.3195533,14.8022085 22.8464064,16.0906093 22.8464064,17.5965377 C22.8464064,19.1027228 22.3193849,20.3907386 21.2657208,21.4612267 Z" id="Combined-Shape" fill="#FFFFFF"></path>
            </g>
            <g id="avatar-blue-copy-6" transform="translate(69.000000, 1.000000)">
                <use id="Rectangle" stroke="#4A4A4A" mask="url(#mask-2)" stroke-width="2" fill="#FFFFFF" xlink:href="#path-1"></use>
                <ellipse id="Oval-3" stroke="#4A4A4A" fill="#42D3AA" cx="34.420125" cy="10.3701181" rx="10.420125" ry="10.3701181"></ellipse>
                <g id="Group-Copy" transform="translate(18.931895, 26.748089) scale(-1, -1) rotate(131.000000) translate(-18.931895, -26.748089) translate(11.931895, 7.748089)">
                    <path d="M13.9646175,7.14877826 C13.9646175,3.27460166 10.8157331,0.0922423002 6.98230873,0.0922423002 C6.06958863,0.0922423002 5.20250454,0.276726901 4.33542045,0.599574951 C4.15287643,0.691817251 4.01596842,0.830180702 3.97033241,1.0146653 C3.92469641,1.1991499 3.97033241,1.3836345 4.06160442,1.52199795 L6.43467667,4.56599386 L4.8374165,5.76514376 L2.46434426,2.76726901 C2.37307225,2.62890556 2.19052823,2.53666326 2.00798421,2.53666326 L2.00798421,2.53666326 C1.82544019,2.53666326 1.64289617,2.62890556 1.55162416,2.76726901 C0.547632057,4.01254006 4.17443857e-14,5.53453801 4.17443857e-14,7.14877826 C4.17443857e-14,9.96216842 1.68853218,12.5449528 4.24414844,13.6518604 L3.24015634,35.7900125 C3.24015634,37.4042527 5.20250454,37.9577065 7.07358074,37.9577065 L7.16485275,37.9577065 C8.53393289,37.9577065 11.3633652,37.4042527 11.3633652,35.5594067 L10.039921,13.513497 C12.4129933,12.3143471 13.9646175,9.86992612 13.9646175,7.14877826 L13.9646175,7.14877826 Z" id="Path" fill="#4A4A4A"></path>
                    <path d="M9.17283696,12.5449528 C8.94465693,12.6371951 8.80774892,12.8678009 8.80774892,13.1445278 L10.1768291,35.5594067 C10.1768291,36.1589817 8.48829688,36.7124355 7.16485275,36.7124355 L7.07358074,36.7124355 C5.7501366,36.7124355 4.42669246,36.3434663 4.42669246,35.7438913 L5.43068457,13.2367701 C5.43068457,12.9600432 5.29377655,12.7294374 5.01996052,12.6371951 C2.69252428,11.8070144 1.14090012,9.59319922 1.14090012,7.10265711 C1.14090012,5.99574951 1.41471615,4.98108421 2.00798421,4.05866121 L4.33542045,6.96429366 C4.51796447,7.19489941 4.88305251,7.24102056 5.15686854,7.05653596 L7.6668488,5.11944766 C7.80375681,5.02720536 7.89502882,4.88884191 7.89502882,4.70435731 C7.89502882,4.51987271 7.84939282,4.38150926 7.75812081,4.24314581 L5.52195658,1.3836345 C5.97831662,1.24527105 6.48031268,1.1991499 6.98230873,1.1991499 C10.1768291,1.1991499 12.7780813,3.82805546 12.7780813,7.05653596 C12.7780813,9.54707807 11.3633652,11.668651 9.17283696,12.5449528 L9.17283696,12.5449528 Z" id="Shape" fill="#E8E8E8"></path>
                    <rect id="Rectangle-path" stroke="#4A4A4A" fill="#F9C74B" transform="translate(8.229112, 8.487057) rotate(-38.381524) translate(-8.229112, -8.487057) " x="5.58220228" y="6.91892556" width="5.29381895" height="3.13626333"></rect>
                    <path d="M5.06559653,33.6684396 C5.06559653,34.9137106 6.06958863,35.9283759 7.30176076,35.9283759 C8.53393289,35.9283759 9.53792499,34.9137106 9.53792499,33.6684396 C9.53792499,32.4231685 8.53393289,31.4085032 7.30176076,31.4085032 C6.06958863,31.4085032 5.06559653,32.4231685 5.06559653,33.6684396 L5.06559653,33.6684396 Z" id="Path" fill="#4A4A4A"></path>
                    <path d="M7.34739677,35.1443164 C6.52594868,35.1443164 5.88704461,34.4986203 5.88704461,33.6684396 C5.88704461,32.8382589 6.52594868,32.1925628 7.34739677,32.1925628 C8.16884485,32.1925628 8.80774892,32.8382589 8.80774892,33.6684396 C8.80774892,34.4986203 8.16884485,35.1443164 7.34739677,35.1443164 Z" id="Shape" fill="#42D3AA"></path>
                </g>
                <path d="M37.08792,15.5994967 C36.8776531,15.4687106 36.6673862,15.3902389 36.4571193,15.3117672 C36.1680023,15.2332955 35.9577355,14.9978805 35.9051687,14.710151 C35.852602,14.4224216 35.9840188,14.1346921 36.2468524,13.9515915 C37.16677,13.3499753 37.6924373,12.3298436 37.6924373,11.2573973 L37.6924373,8.30163091 C37.6924373,6.5229396 36.2205691,5.058135 34.4333005,5.058135 C32.646032,5.058135 31.1741638,6.5229396 31.1741638,8.30163091 L31.1741638,11.2573973 C31.1741638,12.3298436 31.699831,13.3238181 32.5934653,13.9515915 C32.8300155,14.1085349 32.9614323,14.4224216 32.9088656,14.710151 C32.8562989,14.9978805 32.646032,15.2332955 32.3569151,15.3117672 C32.0940814,15.3902389 31.8575312,15.4948678 31.6472643,15.6256539 L29.2817619,17.0904585 C28.8349447,16.7765718 28.4406943,16.4365279 28.0727273,16.0703267 L30.7799134,14.3962643 C30.0439793,13.5330759 29.6234455,12.4606297 29.6234455,11.3097118 L29.6234455,8.30163091 C29.6234455,5.6859084 31.7786811,3.54101595 34.4070172,3.54101595 C37.0353532,3.54101595 39.1905888,5.6859084 39.1905888,8.30163091 L39.1905888,11.2573973 C39.1905888,12.4344725 38.770055,13.5330759 38.0078376,14.3962643 L40.7413071,16.0441695 C40.37334,16.4365279 39.9790896,16.7765718 39.5322725,17.0904585 L37.08792,15.5994967 Z" id="Shape-Copy-3" fill="#FFFFFF"></path>
            </g>
            <g id="avatar-blue-copy-7" transform="translate(61.000000, 133.000000)">
                <use id="Rectangle" stroke="#4A4A4A" mask="url(#mask-4)" stroke-width="2" fill="#FFFFFF" xlink:href="#path-3"></use>
                <ellipse id="Oval-3" stroke="#4A4A4A" fill="#42D3AA" cx="34.420125" cy="10.3701181" rx="10.420125" ry="10.3701181"></ellipse>
                <g id="Group-Copy" transform="translate(18.931895, 26.748089) scale(-1, -1) rotate(131.000000) translate(-18.931895, -26.748089) translate(11.931895, 7.748089)">
                    <path d="M13.9646175,7.14877826 C13.9646175,3.27460166 10.8157331,0.0922423002 6.98230873,0.0922423002 C6.06958863,0.0922423002 5.20250454,0.276726901 4.33542045,0.599574951 C4.15287643,0.691817251 4.01596842,0.830180702 3.97033241,1.0146653 C3.92469641,1.1991499 3.97033241,1.3836345 4.06160442,1.52199795 L6.43467667,4.56599386 L4.8374165,5.76514376 L2.46434426,2.76726901 C2.37307225,2.62890556 2.19052823,2.53666326 2.00798421,2.53666326 L2.00798421,2.53666326 C1.82544019,2.53666326 1.64289617,2.62890556 1.55162416,2.76726901 C0.547632057,4.01254006 4.17443857e-14,5.53453801 4.17443857e-14,7.14877826 C4.17443857e-14,9.96216842 1.68853218,12.5449528 4.24414844,13.6518604 L3.24015634,35.7900125 C3.24015634,37.4042527 5.20250454,37.9577065 7.07358074,37.9577065 L7.16485275,37.9577065 C8.53393289,37.9577065 11.3633652,37.4042527 11.3633652,35.5594067 L10.039921,13.513497 C12.4129933,12.3143471 13.9646175,9.86992612 13.9646175,7.14877826 L13.9646175,7.14877826 Z" id="Path" fill="#4A4A4A"></path>
                    <path d="M9.17283696,12.5449528 C8.94465693,12.6371951 8.80774892,12.8678009 8.80774892,13.1445278 L10.1768291,35.5594067 C10.1768291,36.1589817 8.48829688,36.7124355 7.16485275,36.7124355 L7.07358074,36.7124355 C5.7501366,36.7124355 4.42669246,36.3434663 4.42669246,35.7438913 L5.43068457,13.2367701 C5.43068457,12.9600432 5.29377655,12.7294374 5.01996052,12.6371951 C2.69252428,11.8070144 1.14090012,9.59319922 1.14090012,7.10265711 C1.14090012,5.99574951 1.41471615,4.98108421 2.00798421,4.05866121 L4.33542045,6.96429366 C4.51796447,7.19489941 4.88305251,7.24102056 5.15686854,7.05653596 L7.6668488,5.11944766 C7.80375681,5.02720536 7.89502882,4.88884191 7.89502882,4.70435731 C7.89502882,4.51987271 7.84939282,4.38150926 7.75812081,4.24314581 L5.52195658,1.3836345 C5.97831662,1.24527105 6.48031268,1.1991499 6.98230873,1.1991499 C10.1768291,1.1991499 12.7780813,3.82805546 12.7780813,7.05653596 C12.7780813,9.54707807 11.3633652,11.668651 9.17283696,12.5449528 L9.17283696,12.5449528 Z" id="Shape" fill="#E8E8E8"></path>
                    <rect id="Rectangle-path" stroke="#4A4A4A" fill="#F9C74B" transform="translate(8.229112, 8.487057) rotate(-38.381524) translate(-8.229112, -8.487057) " x="5.58220228" y="6.91892556" width="5.29381895" height="3.13626333"></rect>
                    <path d="M5.06559653,33.6684396 C5.06559653,34.9137106 6.06958863,35.9283759 7.30176076,35.9283759 C8.53393289,35.9283759 9.53792499,34.9137106 9.53792499,33.6684396 C9.53792499,32.4231685 8.53393289,31.4085032 7.30176076,31.4085032 C6.06958863,31.4085032 5.06559653,32.4231685 5.06559653,33.6684396 L5.06559653,33.6684396 Z" id="Path" fill="#4A4A4A"></path>
                    <path d="M7.34739677,35.1443164 C6.52594868,35.1443164 5.88704461,34.4986203 5.88704461,33.6684396 C5.88704461,32.8382589 6.52594868,32.1925628 7.34739677,32.1925628 C8.16884485,32.1925628 8.80774892,32.8382589 8.80774892,33.6684396 C8.80774892,34.4986203 8.16884485,35.1443164 7.34739677,35.1443164 Z" id="Shape" fill="#42D3AA"></path>
                </g>
                <path d="M37.08792,15.5994967 C36.8776531,15.4687106 36.6673862,15.3902389 36.4571193,15.3117672 C36.1680023,15.2332955 35.9577355,14.9978805 35.9051687,14.710151 C35.852602,14.4224216 35.9840188,14.1346921 36.2468524,13.9515915 C37.16677,13.3499753 37.6924373,12.3298436 37.6924373,11.2573973 L37.6924373,8.30163091 C37.6924373,6.5229396 36.2205691,5.058135 34.4333005,5.058135 C32.646032,5.058135 31.1741638,6.5229396 31.1741638,8.30163091 L31.1741638,11.2573973 C31.1741638,12.3298436 31.699831,13.3238181 32.5934653,13.9515915 C32.8300155,14.1085349 32.9614323,14.4224216 32.9088656,14.710151 C32.8562989,14.9978805 32.646032,15.2332955 32.3569151,15.3117672 C32.0940814,15.3902389 31.8575312,15.4948678 31.6472643,15.6256539 L29.2817619,17.0904585 C28.8349447,16.7765718 28.4406943,16.4365279 28.0727273,16.0703267 L30.7799134,14.3962643 C30.0439793,13.5330759 29.6234455,12.4606297 29.6234455,11.3097118 L29.6234455,8.30163091 C29.6234455,5.6859084 31.7786811,3.54101595 34.4070172,3.54101595 C37.0353532,3.54101595 39.1905888,5.6859084 39.1905888,8.30163091 L39.1905888,11.2573973 C39.1905888,12.4344725 38.770055,13.5330759 38.0078376,14.3962643 L40.7413071,16.0441695 C40.37334,16.4365279 39.9790896,16.7765718 39.5322725,17.0904585 L37.08792,15.5994967 Z" id="Shape-Copy-3" fill="#FFFFFF"></path>
            </g>
            <g id="avatar-blue-copy-8" transform="translate(1.000000, 61.000000)">
                <use id="Rectangle" stroke="#4A4A4A" mask="url(#mask-6)" stroke-width="2" fill="#FFFFFF" xlink:href="#path-5"></use>
                <ellipse id="Oval-3" stroke="#4A4A4A" fill="#42D3AA" cx="34.420125" cy="10.3701181" rx="10.420125" ry="10.3701181"></ellipse>
                <g id="Group-Copy" transform="translate(18.931895, 26.748089) scale(-1, -1) rotate(131.000000) translate(-18.931895, -26.748089) translate(11.931895, 7.748089)">
                    <path d="M13.9646175,7.14877826 C13.9646175,3.27460166 10.8157331,0.0922423002 6.98230873,0.0922423002 C6.06958863,0.0922423002 5.20250454,0.276726901 4.33542045,0.599574951 C4.15287643,0.691817251 4.01596842,0.830180702 3.97033241,1.0146653 C3.92469641,1.1991499 3.97033241,1.3836345 4.06160442,1.52199795 L6.43467667,4.56599386 L4.8374165,5.76514376 L2.46434426,2.76726901 C2.37307225,2.62890556 2.19052823,2.53666326 2.00798421,2.53666326 L2.00798421,2.53666326 C1.82544019,2.53666326 1.64289617,2.62890556 1.55162416,2.76726901 C0.547632057,4.01254006 4.17443857e-14,5.53453801 4.17443857e-14,7.14877826 C4.17443857e-14,9.96216842 1.68853218,12.5449528 4.24414844,13.6518604 L3.24015634,35.7900125 C3.24015634,37.4042527 5.20250454,37.9577065 7.07358074,37.9577065 L7.16485275,37.9577065 C8.53393289,37.9577065 11.3633652,37.4042527 11.3633652,35.5594067 L10.039921,13.513497 C12.4129933,12.3143471 13.9646175,9.86992612 13.9646175,7.14877826 L13.9646175,7.14877826 Z" id="Path" fill="#4A4A4A"></path>
                    <path d="M9.17283696,12.5449528 C8.94465693,12.6371951 8.80774892,12.8678009 8.80774892,13.1445278 L10.1768291,35.5594067 C10.1768291,36.1589817 8.48829688,36.7124355 7.16485275,36.7124355 L7.07358074,36.7124355 C5.7501366,36.7124355 4.42669246,36.3434663 4.42669246,35.7438913 L5.43068457,13.2367701 C5.43068457,12.9600432 5.29377655,12.7294374 5.01996052,12.6371951 C2.69252428,11.8070144 1.14090012,9.59319922 1.14090012,7.10265711 C1.14090012,5.99574951 1.41471615,4.98108421 2.00798421,4.05866121 L4.33542045,6.96429366 C4.51796447,7.19489941 4.88305251,7.24102056 5.15686854,7.05653596 L7.6668488,5.11944766 C7.80375681,5.02720536 7.89502882,4.88884191 7.89502882,4.70435731 C7.89502882,4.51987271 7.84939282,4.38150926 7.75812081,4.24314581 L5.52195658,1.3836345 C5.97831662,1.24527105 6.48031268,1.1991499 6.98230873,1.1991499 C10.1768291,1.1991499 12.7780813,3.82805546 12.7780813,7.05653596 C12.7780813,9.54707807 11.3633652,11.668651 9.17283696,12.5449528 L9.17283696,12.5449528 Z" id="Shape" fill="#E8E8E8"></path>
                    <rect id="Rectangle-path" stroke="#4A4A4A" fill="#F9C74B" transform="translate(8.229112, 8.487057) rotate(-38.381524) translate(-8.229112, -8.487057) " x="5.58220228" y="6.91892556" width="5.29381895" height="3.13626333"></rect>
                    <path d="M5.06559653,33.6684396 C5.06559653,34.9137106 6.06958863,35.9283759 7.30176076,35.9283759 C8.53393289,35.9283759 9.53792499,34.9137106 9.53792499,33.6684396 C9.53792499,32.4231685 8.53393289,31.4085032 7.30176076,31.4085032 C6.06958863,31.4085032 5.06559653,32.4231685 5.06559653,33.6684396 L5.06559653,33.6684396 Z" id="Path" fill="#4A4A4A"></path>
                    <path d="M7.34739677,35.1443164 C6.52594868,35.1443164 5.88704461,34.4986203 5.88704461,33.6684396 C5.88704461,32.8382589 6.52594868,32.1925628 7.34739677,32.1925628 C8.16884485,32.1925628 8.80774892,32.8382589 8.80774892,33.6684396 C8.80774892,34.4986203 8.16884485,35.1443164 7.34739677,35.1443164 Z" id="Shape" fill="#42D3AA"></path>
                </g>
                <path d="M37.08792,15.5994967 C36.8776531,15.4687106 36.6673862,15.3902389 36.4571193,15.3117672 C36.1680023,15.2332955 35.9577355,14.9978805 35.9051687,14.710151 C35.852602,14.4224216 35.9840188,14.1346921 36.2468524,13.9515915 C37.16677,13.3499753 37.6924373,12.3298436 37.6924373,11.2573973 L37.6924373,8.30163091 C37.6924373,6.5229396 36.2205691,5.058135 34.4333005,5.058135 C32.646032,5.058135 31.1741638,6.5229396 31.1741638,8.30163091 L31.1741638,11.2573973 C31.1741638,12.3298436 31.699831,13.3238181 32.5934653,13.9515915 C32.8300155,14.1085349 32.9614323,14.4224216 32.9088656,14.710151 C32.8562989,14.9978805 32.646032,15.2332955 32.3569151,15.3117672 C32.0940814,15.3902389 31.8575312,15.4948678 31.6472643,15.6256539 L29.2817619,17.0904585 C28.8349447,16.7765718 28.4406943,16.4365279 28.0727273,16.0703267 L30.7799134,14.3962643 C30.0439793,13.5330759 29.6234455,12.4606297 29.6234455,11.3097118 L29.6234455,8.30163091 C29.6234455,5.6859084 31.7786811,3.54101595 34.4070172,3.54101595 C37.0353532,3.54101595 39.1905888,5.6859084 39.1905888,8.30163091 L39.1905888,11.2573973 C39.1905888,12.4344725 38.770055,13.5330759 38.0078376,14.3962643 L40.7413071,16.0441695 C40.37334,16.4365279 39.9790896,16.7765718 39.5322725,17.0904585 L37.08792,15.5994967 Z" id="Shape-Copy-3" fill="#FFFFFF"></path>
            </g>
            <g id="avatar-blue-copy-9" transform="translate(124.000000, 69.000000)">
                <use id="Rectangle" stroke="#4A4A4A" mask="url(#mask-8)" stroke-width="2" fill="#FFFFFF" xlink:href="#path-7"></use>
                <ellipse id="Oval-3" stroke="#4A4A4A" fill="#42D3AA" cx="34.420125" cy="10.3701181" rx="10.420125" ry="10.3701181"></ellipse>
                <g id="Group-Copy" transform="translate(18.931895, 26.748089) scale(-1, -1) rotate(131.000000) translate(-18.931895, -26.748089) translate(11.931895, 7.748089)">
                    <path d="M13.9646175,7.14877826 C13.9646175,3.27460166 10.8157331,0.0922423002 6.98230873,0.0922423002 C6.06958863,0.0922423002 5.20250454,0.276726901 4.33542045,0.599574951 C4.15287643,0.691817251 4.01596842,0.830180702 3.97033241,1.0146653 C3.92469641,1.1991499 3.97033241,1.3836345 4.06160442,1.52199795 L6.43467667,4.56599386 L4.8374165,5.76514376 L2.46434426,2.76726901 C2.37307225,2.62890556 2.19052823,2.53666326 2.00798421,2.53666326 L2.00798421,2.53666326 C1.82544019,2.53666326 1.64289617,2.62890556 1.55162416,2.76726901 C0.547632057,4.01254006 4.17443857e-14,5.53453801 4.17443857e-14,7.14877826 C4.17443857e-14,9.96216842 1.68853218,12.5449528 4.24414844,13.6518604 L3.24015634,35.7900125 C3.24015634,37.4042527 5.20250454,37.9577065 7.07358074,37.9577065 L7.16485275,37.9577065 C8.53393289,37.9577065 11.3633652,37.4042527 11.3633652,35.5594067 L10.039921,13.513497 C12.4129933,12.3143471 13.9646175,9.86992612 13.9646175,7.14877826 L13.9646175,7.14877826 Z" id="Path" fill="#4A4A4A"></path>
                    <path d="M9.17283696,12.5449528 C8.94465693,12.6371951 8.80774892,12.8678009 8.80774892,13.1445278 L10.1768291,35.5594067 C10.1768291,36.1589817 8.48829688,36.7124355 7.16485275,36.7124355 L7.07358074,36.7124355 C5.7501366,36.7124355 4.42669246,36.3434663 4.42669246,35.7438913 L5.43068457,13.2367701 C5.43068457,12.9600432 5.29377655,12.7294374 5.01996052,12.6371951 C2.69252428,11.8070144 1.14090012,9.59319922 1.14090012,7.10265711 C1.14090012,5.99574951 1.41471615,4.98108421 2.00798421,4.05866121 L4.33542045,6.96429366 C4.51796447,7.19489941 4.88305251,7.24102056 5.15686854,7.05653596 L7.6668488,5.11944766 C7.80375681,5.02720536 7.89502882,4.88884191 7.89502882,4.70435731 C7.89502882,4.51987271 7.84939282,4.38150926 7.75812081,4.24314581 L5.52195658,1.3836345 C5.97831662,1.24527105 6.48031268,1.1991499 6.98230873,1.1991499 C10.1768291,1.1991499 12.7780813,3.82805546 12.7780813,7.05653596 C12.7780813,9.54707807 11.3633652,11.668651 9.17283696,12.5449528 L9.17283696,12.5449528 Z" id="Shape" fill="#E8E8E8"></path>
                    <rect id="Rectangle-path" stroke="#4A4A4A" fill="#F9C74B" transform="translate(8.229112, 8.487057) rotate(-38.381524) translate(-8.229112, -8.487057) " x="5.58220228" y="6.91892556" width="5.29381895" height="3.13626333"></rect>
                    <path d="M5.06559653,33.6684396 C5.06559653,34.9137106 6.06958863,35.9283759 7.30176076,35.9283759 C8.53393289,35.9283759 9.53792499,34.9137106 9.53792499,33.6684396 C9.53792499,32.4231685 8.53393289,31.4085032 7.30176076,31.4085032 C6.06958863,31.4085032 5.06559653,32.4231685 5.06559653,33.6684396 L5.06559653,33.6684396 Z" id="Path" fill="#4A4A4A"></path>
                    <path d="M7.34739677,35.1443164 C6.52594868,35.1443164 5.88704461,34.4986203 5.88704461,33.6684396 C5.88704461,32.8382589 6.52594868,32.1925628 7.34739677,32.1925628 C8.16884485,32.1925628 8.80774892,32.8382589 8.80774892,33.6684396 C8.80774892,34.4986203 8.16884485,35.1443164 7.34739677,35.1443164 Z" id="Shape" fill="#42D3AA"></path>
                </g>
                <path d="M37.08792,15.5994967 C36.8776531,15.4687106 36.6673862,15.3902389 36.4571193,15.3117672 C36.1680023,15.2332955 35.9577355,14.9978805 35.9051687,14.710151 C35.852602,14.4224216 35.9840188,14.1346921 36.2468524,13.9515915 C37.16677,13.3499753 37.6924373,12.3298436 37.6924373,11.2573973 L37.6924373,8.30163091 C37.6924373,6.5229396 36.2205691,5.058135 34.4333005,5.058135 C32.646032,5.058135 31.1741638,6.5229396 31.1741638,8.30163091 L31.1741638,11.2573973 C31.1741638,12.3298436 31.699831,13.3238181 32.5934653,13.9515915 C32.8300155,14.1085349 32.9614323,14.4224216 32.9088656,14.710151 C32.8562989,14.9978805 32.646032,15.2332955 32.3569151,15.3117672 C32.0940814,15.3902389 31.8575312,15.4948678 31.6472643,15.6256539 L29.2817619,17.0904585 C28.8349447,16.7765718 28.4406943,16.4365279 28.0727273,16.0703267 L30.7799134,14.3962643 C30.0439793,13.5330759 29.6234455,12.4606297 29.6234455,11.3097118 L29.6234455,8.30163091 C29.6234455,5.6859084 31.7786811,3.54101595 34.4070172,3.54101595 C37.0353532,3.54101595 39.1905888,5.6859084 39.1905888,8.30163091 L39.1905888,11.2573973 C39.1905888,12.4344725 38.770055,13.5330759 38.0078376,14.3962643 L40.7413071,16.0441695 C40.37334,16.4365279 39.9790896,16.7765718 39.5322725,17.0904585 L37.08792,15.5994967 Z" id="Shape-Copy-3" fill="#FFFFFF"></path>
            </g>
        </g>
    </g>
</svg>