<?xml version="1.0" encoding="UTF-8" standalone="no"?>
<svg width="170px" height="180px" viewBox="0 0 170 180" version="1.1" xmlns="http://www.w3.org/2000/svg" xmlns:xlink="http://www.w3.org/1999/xlink">
    <!-- Generator: Sketch 40.3 (33839) - http://www.bohemiancoding.com/sketch -->
    <title>find copy 5</title>
    <desc>Created with Sketch.</desc>
    <defs></defs>
    <g id="Page-1" stroke="none" stroke-width="1" fill="none" fill-rule="evenodd">
        <g id="find-copy-5">
            <g id="find" transform="translate(10.000000, 19.000000)" stroke="#9D9D9D">
                <g id="Find-your-champion-Copy" transform="translate(0.013980, 0.810341)">
                    <g id="Circles" transform="translate(0.544894, 0.000000)">
                        <circle id="Oval-2" cx="68" cy="65" r="65"></circle>
                        <circle id="Oval-2-Copy" cx="80" cy="76" r="65"></circle>
                        <circle id="Oval-2-Copy-2" cx="83" cy="65" r="65"></circle>
                        <circle id="Oval-2-Copy-3" cx="65" cy="76" r="65"></circle>
                    </g>
                </g>
            </g>
            <g id="avatar-blue" transform="translate(72.000000, 5.000000)">
                <ellipse id="Oval-3" stroke="#4A4A4A" fill="#FFFFFF" cx="18.8554643" cy="18.7649757" rx="18.8554643" ry="18.7649757"></ellipse>
                <path d="M28.1060169,30.9255916 L23.6829028,28.2276607 C23.3024199,27.9910001 22.9219369,27.8490037 22.541454,27.7070074 C22.0182899,27.565011 21.637807,27.1390219 21.5426863,26.6183686 C21.4475655,26.0977152 21.6853674,25.5770619 22.1609711,25.245737 C23.8255839,24.1570982 24.7767912,22.3111455 24.7767912,20.3705285 L24.7767912,15.0219988 C24.7767912,11.8034145 22.1134107,9.15281571 18.8793057,9.15281571 C15.6452008,9.15281571 12.9818203,11.8034145 12.9818203,15.0219988 L12.9818203,20.3705285 C12.9818203,22.3111455 13.9330276,24.1097661 15.5500801,25.245737 C15.9781234,25.5297298 16.2159252,26.0977152 16.1208045,26.6183686 C16.0256837,27.1390219 15.6452008,27.565011 15.1220368,27.7070074 C14.6464331,27.8490037 14.2183898,28.0383322 13.8379069,28.2749928 L9.55747384,30.9255916 C8.74894761,30.3576062 8.03554211,29.7422886 7.36969697,29.0796389 L12.2684148,26.0503831 C10.9367245,24.4884231 10.1757586,22.5478061 10.1757586,20.4651928 L10.1757586,15.0219988 C10.1757586,10.2887866 14.0757087,6.40755266 18.8317454,6.40755266 C23.5877821,6.40755266 27.4877321,10.2887866 27.4877321,15.0219988 L27.4877321,20.3705285 C27.4877321,22.500474 26.7267663,24.4884231 25.3475156,26.0503831 L30.2937938,29.0323068 C29.6279486,29.7422886 28.9145431,30.3576062 28.1060169,30.9255916 L28.1060169,30.9255916 Z" id="Shape-Copy-3" fill="#4A4A4A"></path>
            </g>
            <g id="avatar-blue-copy-2" transform="translate(58.000000, 139.000000)">
                <ellipse id="Oval-3" stroke="#4A4A4A" fill="#FFFFFF" cx="18.8554643" cy="18.7649757" rx="18.8554643" ry="18.7649757"></ellipse>
                <path d="M28.1060169,30.9255916 L23.6829028,28.2276607 C23.3024199,27.9910001 22.9219369,27.8490037 22.541454,27.7070074 C22.0182899,27.565011 21.637807,27.1390219 21.5426863,26.6183686 C21.4475655,26.0977152 21.6853674,25.5770619 22.1609711,25.245737 C23.8255839,24.1570982 24.7767912,22.3111455 24.7767912,20.3705285 L24.7767912,15.0219988 C24.7767912,11.8034145 22.1134107,9.15281571 18.8793057,9.15281571 C15.6452008,9.15281571 12.9818203,11.8034145 12.9818203,15.0219988 L12.9818203,20.3705285 C12.9818203,22.3111455 13.9330276,24.1097661 15.5500801,25.245737 C15.9781234,25.5297298 16.2159252,26.0977152 16.1208045,26.6183686 C16.0256837,27.1390219 15.6452008,27.565011 15.1220368,27.7070074 C14.6464331,27.8490037 14.2183898,28.0383322 13.8379069,28.2749928 L9.55747384,30.9255916 C8.74894761,30.3576062 8.03554211,29.7422886 7.36969697,29.0796389 L12.2684148,26.0503831 C10.9367245,24.4884231 10.1757586,22.5478061 10.1757586,20.4651928 L10.1757586,15.0219988 C10.1757586,10.2887866 14.0757087,6.40755266 18.8317454,6.40755266 C23.5877821,6.40755266 27.4877321,10.2887866 27.4877321,15.0219988 L27.4877321,20.3705285 C27.4877321,22.500474 26.7267663,24.4884231 25.3475156,26.0503831 L30.2937938,29.0323068 C29.6279486,29.7422886 28.9145431,30.3576062 28.1060169,30.9255916 L28.1060169,30.9255916 Z" id="Shape-Copy-3" fill="#4A4A4A"></path>
            </g>
            <g id="avatar-blue-copy-4" transform="translate(3.000000, 66.000000)">
                <ellipse id="Oval-3" stroke="#4A4A4A" fill="#FFFFFF" cx="18.8554643" cy="18.7649757" rx="18.8554643" ry="18.7649757"></ellipse>
                <path d="M28.1060169,30.9255916 L23.6829028,28.2276607 C23.3024199,27.9910001 22.9219369,27.8490037 22.541454,27.7070074 C22.0182899,27.565011 21.637807,27.1390219 21.5426863,26.6183686 C21.4475655,26.0977152 21.6853674,25.5770619 22.1609711,25.245737 C23.8255839,24.1570982 24.7767912,22.3111455 24.7767912,20.3705285 L24.7767912,15.0219988 C24.7767912,11.8034145 22.1134107,9.15281571 18.8793057,9.15281571 C15.6452008,9.15281571 12.9818203,11.8034145 12.9818203,15.0219988 L12.9818203,20.3705285 C12.9818203,22.3111455 13.9330276,24.1097661 15.5500801,25.245737 C15.9781234,25.5297298 16.2159252,26.0977152 16.1208045,26.6183686 C16.0256837,27.1390219 15.6452008,27.565011 15.1220368,27.7070074 C14.6464331,27.8490037 14.2183898,28.0383322 13.8379069,28.2749928 L9.55747384,30.9255916 C8.74894761,30.3576062 8.03554211,29.7422886 7.36969697,29.0796389 L12.2684148,26.0503831 C10.9367245,24.4884231 10.1757586,22.5478061 10.1757586,20.4651928 L10.1757586,15.0219988 C10.1757586,10.2887866 14.0757087,6.40755266 18.8317454,6.40755266 C23.5877821,6.40755266 27.4877321,10.2887866 27.4877321,15.0219988 L27.4877321,20.3705285 C27.4877321,22.500474 26.7267663,24.4884231 25.3475156,26.0503831 L30.2937938,29.0323068 C29.6279486,29.7422886 28.9145431,30.3576062 28.1060169,30.9255916 L28.1060169,30.9255916 Z" id="Shape-Copy-3" fill="#4A4A4A"></path>
            </g>
            <g id="avatar-blue-copy-5" transform="translate(130.000000, 77.000000)">
                <ellipse id="Oval-3" stroke="#4A4A4A" fill="#42D3AA" cx="18.8554643" cy="18.7649757" rx="18.8554643" ry="18.7649757"></ellipse>
                <path d="M23.6829028,28.2276607 C23.3024199,27.9910001 22.9219369,27.8490037 22.541454,27.7070074 C22.0182899,27.565011 21.637807,27.1390219 21.5426863,26.6183686 C21.4475655,26.0977152 21.6853674,25.5770619 22.1609711,25.245737 C23.8255839,24.1570982 24.7767912,22.3111455 24.7767912,20.3705285 L24.7767912,15.0219988 C24.7767912,11.8034145 22.1134107,9.15281571 18.8793057,9.15281571 C15.6452008,9.15281571 12.9818203,11.8034145 12.9818203,15.0219988 L12.9818203,20.3705285 C12.9818203,22.3111455 13.9330276,24.1097661 15.5500801,25.245737 C15.9781234,25.5297298 16.2159252,26.0977152 16.1208045,26.6183686 C16.0256837,27.1390219 15.6452008,27.565011 15.1220368,27.7070074 C14.6464331,27.8490037 14.2183898,28.0383322 13.8379069,28.2749928 L9.55747384,30.9255916 C8.74894761,30.3576062 8.03554211,29.7422886 7.36969697,29.0796389 L12.2684148,26.0503831 C10.9367245,24.4884231 10.1757586,22.5478061 10.1757586,20.4651928 L10.1757586,15.0219988 C10.1757586,10.2887866 14.0757087,6.40755266 18.8317454,6.40755266 C23.5877821,6.40755266 27.4877321,10.2887866 27.4877321,15.0219988 L27.4877321,20.3705285 C27.4877321,22.500474 26.7267663,24.4884231 25.3475156,26.0503831 L30.2937938,29.0323068 C29.6279486,29.7422886 28.9145431,30.3576062 28.1060169,30.9255916 L23.6829028,28.2276607 Z" id="Shape-Copy-3" fill="#FFFFFF"></path>
            </g>
            <g id="avatar-blue-copy-3" transform="translate(68.000000, 75.000000)" fill="#F9C74B">
                <path d="M31.5338647,28.4609533 L25.0476473,21.871439 C26.6107668,19.5789543 27.392724,17.0232927 27.392724,14.2058001 C27.392724,12.3742617 27.0427442,10.6225982 26.3427846,8.95121341 C25.6432886,7.27955946 24.6976675,5.83871515 23.5063188,4.62834402 C22.3149701,3.41797289 20.896969,2.457253 19.2519182,1.74652081 C17.6063375,1.03558675 15.8823359,0.68015336 14.0795823,0.68015336 C12.2769611,0.68015336 10.552827,1.03558675 8.90770997,1.74652081 C7.262328,2.457253 5.84412822,3.41797289 4.65277948,4.62834402 C3.46129826,5.83871515 2.51580967,7.27982862 1.81618123,8.95121341 C1.11648655,10.6228001 0.76663921,12.3742617 0.76663921,14.2058001 C0.76663921,16.0372039 1.11648655,17.7882618 1.81618123,19.4601176 C2.51574343,21.1315024 3.46129826,22.5721448 4.65277948,23.7825159 C5.84412822,24.9932908 7.26259293,25.953607 8.90770997,26.6647429 C10.5530257,27.3755424 12.2769611,27.7309085 14.0795823,27.7309085 C16.8533908,27.7309085 19.3684898,26.9363984 21.625078,25.348455 L28.1112953,31.9188585 C28.5651299,32.4054429 29.1316944,32.6489034 29.8130423,32.6489034 C30.468559,32.6489034 31.0361833,32.4055102 31.5148556,31.9188585 C31.9937265,31.4323414 32.2333607,30.8559229 32.2333607,30.1899396 C32.2335594,29.5115073 32.0003499,28.9348869 31.5338647,28.4609533 Z M20.0647403,20.2858508 C18.4069726,21.9703575 16.4120745,22.8125771 14.0795823,22.8125771 C11.7474874,22.8125771 9.7525893,21.9701556 8.09468913,20.2858508 C6.43678895,18.6016134 5.60787198,16.5751317 5.60787198,14.2053963 C5.60787198,11.8360647 6.43698765,9.80897739 8.09468913,8.12494182 C9.75225813,6.44050249 11.7474874,5.59841741 14.0795823,5.59841741 C16.4118095,5.59841741 18.4067077,6.44083895 20.0647403,8.12494182 C21.722773,9.80897739 22.5516899,11.8360647 22.5516899,14.2053963 C22.5516899,16.5751317 21.722508,18.6016134 20.0647403,20.2858508 Z" id="Combined-Shape"></path>
            </g>
        </g>
    </g>
</svg>