<?xml version="1.0" encoding="UTF-8" standalone="no"?>
<svg width="170px" height="180px" viewBox="0 0 170 180" version="1.1" xmlns="http://www.w3.org/2000/svg" xmlns:xlink="http://www.w3.org/1999/xlink">
    <!-- Generator: Sketch 40.3 (33839) - http://www.bohemiancoding.com/sketch -->
    <title>get_advice copy 4</title>
    <desc>Created with Sketch.</desc>
    <defs>
        <path d="M139.155227,124.418095 L96.5101917,124.418095 C92.9124983,124.418095 90,120.736818 90,116.195733 L90,100.222362 C90,95.6872056 92.9147121,92 96.5101917,92 L147.407426,92 C151.005119,92 153.917617,95.6812769 153.917617,100.222362 L153.917617,116.195733 C153.917617,120.200327 151.64499,123.543767 148.637788,124.271248 L147.88943,130 L139.155227,124.418095 Z" id="path-1"></path>
        <mask id="mask-2" maskContentUnits="userSpaceOnUse" maskUnits="objectBoundingBox" x="0" y="0" width="63.9176174" height="38" fill="white">
            <use xlink:href="#path-1"></use>
        </mask>
        <path d="M31.5177035,88.625 L73.008114,88.625 C75.7566336,88.625 78,86.3894856 78,83.6318389 L78,70.9931611 C78,68.2312913 75.7650565,66 73.008114,66 L21.991886,66 C19.2433664,66 17,68.2355144 17,70.9931611 L17,83.6318389 C17,86.3937087 19.2349435,88.625 21.991886,88.625 L22.372125,88.625 L23.0768136,93 L31.5177035,88.625 Z" id="path-3"></path>
        <mask id="mask-4" maskContentUnits="userSpaceOnUse" maskUnits="objectBoundingBox" x="0" y="0" width="61" height="27" fill="white">
            <use xlink:href="#path-3"></use>
        </mask>
        <path d="M32.3586312,33.625 L81.0099332,33.625 C83.7629742,33.625 86,31.3900155 86,28.6330224 L86,8.99197762 C86,6.23883365 83.765871,4 81.0099332,4 L21.9900668,4 C19.2370258,4 17,6.23498451 17,8.99197762 L17,28.6330224 C17,31.3861663 19.234129,33.625 21.9900668,33.625 L22.6833016,33.625 L23.4288088,38 L32.3586312,33.625 Z" id="path-5"></path>
        <mask id="mask-6" maskContentUnits="userSpaceOnUse" maskUnits="objectBoundingBox" x="0" y="0" width="69" height="34" fill="white">
            <use xlink:href="#path-5"></use>
        </mask>
        <path d="M139.155227,62.4180949 L107.287957,62.4180949 C104.365701,62.4180949 102,59.6452679 102,56.2248124 L102,44.1932825 C102,40.7772926 104.367499,38 107.287957,38 L148.62966,38 C151.551916,38 153.917617,40.772827 153.917617,44.1932825 L153.917617,56.2248124 C153.917617,59.6408023 151.550118,62.4180949 148.62966,62.4180949 L148.618606,62.4180949 L147.88943,68 L139.155227,62.4180949 Z" id="path-7"></path>
        <mask id="mask-8" maskContentUnits="userSpaceOnUse" maskUnits="objectBoundingBox" x="0" y="0" width="51.9176174" height="30" fill="white">
            <use xlink:href="#path-7"></use>
        </mask>
    </defs>
    <g id="Page-1" stroke="none" stroke-width="1" fill="none" fill-rule="evenodd">
        <g id="get_advice-copy-4">
            <use id="Combined-Shape-Copy-4" stroke="#4A4A4A" mask="url(#mask-2)" stroke-width="2" fill="#FFFFFF" xlink:href="#path-1"></use>
            <use id="Combined-Shape-Copy-3" stroke="#4A4A4A" mask="url(#mask-4)" stroke-width="2" fill="#FFFFFF" xlink:href="#path-3"></use>
            <use id="Combined-Shape-Copy-5" stroke="#4A4A4A" mask="url(#mask-6)" stroke-width="2" fill="#FFFFFF" xlink:href="#path-5"></use>
            <use id="Combined-Shape-Copy-4" stroke="#4A4A4A" mask="url(#mask-8)" stroke-width="2" fill="#FFFFFF" xlink:href="#path-7"></use>
            <rect id="Rectangle-3-Copy-8" fill="#F9C74B" x="98" y="107" width="49.5687645" height="3"></rect>
            <rect id="Rectangle-3-Copy-11" fill="#F9C74B" x="98" y="100" width="38" height="3"></rect>
            <rect id="Rectangle-3-Copy-10" fill="#F9C74B" x="98" y="114" width="40.4376763" height="3"></rect>
            <rect id="Rectangle-3-Copy-5" fill="#42D3AA" x="27" y="72" width="32.6110293" height="3"></rect>
            <rect id="Rectangle-3-Copy-7" fill="#42D3AA" x="27" y="17" width="32.6110293" height="3"></rect>
            <rect id="Rectangle-3-Copy-13" fill="#42D3AA" x="27" y="10" width="43" height="3"></rect>
            <rect id="Rectangle-3-Copy-6" fill="#42D3AA" x="27" y="79" width="44" height="3"></rect>
            <rect id="Rectangle-3-Copy-12" fill="#42D3AA" x="27" y="24" width="51.9176174" height="3"></rect>
            <g id="avatar-blue-copy-4" transform="translate(129.000000, 138.000000)">
                <ellipse id="Oval-3" stroke="#4A4A4A" fill="#FFC938" cx="18.8554643" cy="18.7649757" rx="18.8554643" ry="18.7649757"></ellipse>
                <path d="M23.6829028,28.2276607 C23.3024199,27.9910001 22.9219369,27.8490037 22.541454,27.7070074 C22.0182899,27.565011 21.637807,27.1390219 21.5426863,26.6183686 C21.4475655,26.0977152 21.6853674,25.5770619 22.1609711,25.245737 C23.8255839,24.1570982 24.7767912,22.3111455 24.7767912,20.3705285 L24.7767912,15.0219988 C24.7767912,11.8034145 22.1134107,9.15281571 18.8793057,9.15281571 C15.6452008,9.15281571 12.9818203,11.8034145 12.9818203,15.0219988 L12.9818203,20.3705285 C12.9818203,22.3111455 13.9330276,24.1097661 15.5500801,25.245737 C15.9781234,25.5297298 16.2159252,26.0977152 16.1208045,26.6183686 C16.0256837,27.1390219 15.6452008,27.565011 15.1220368,27.7070074 C14.6464331,27.8490037 14.2183898,28.0383322 13.8379069,28.2749928 L9.55747384,30.9255916 C8.74894761,30.3576062 8.03554211,29.7422886 7.36969697,29.0796389 L12.2684148,26.0503831 C10.9367245,24.4884231 10.1757586,22.5478061 10.1757586,20.4651928 L10.1757586,15.0219988 C10.1757586,10.2887866 14.0757087,6.40755266 18.8317454,6.40755266 C23.5877821,6.40755266 27.4877321,10.2887866 27.4877321,15.0219988 L27.4877321,20.3705285 C27.4877321,22.500474 26.7267663,24.4884231 25.3475156,26.0503831 L30.2937938,29.0323068 C29.6279486,29.7422886 28.9145431,30.3576062 28.1060169,30.9255916 L23.6829028,28.2276607 Z" id="Shape-Copy-3" fill="#FFFFFF"></path>
            </g>
            <g id="avatar-blue-copy-3" transform="translate(5.000000, 138.000000)">
                <ellipse id="Oval-3" stroke="#4A4A4A" fill="#42D3AA" cx="18.8554643" cy="18.7649757" rx="18.8554643" ry="18.7649757"></ellipse>
                <path d="M23.6829028,28.2276607 C23.3024199,27.9910001 22.9219369,27.8490037 22.541454,27.7070074 C22.0182899,27.565011 21.637807,27.1390219 21.5426863,26.6183686 C21.4475655,26.0977152 21.6853674,25.5770619 22.1609711,25.245737 C23.8255839,24.1570982 24.7767912,22.3111455 24.7767912,20.3705285 L24.7767912,15.0219988 C24.7767912,11.8034145 22.1134107,9.15281571 18.8793057,9.15281571 C15.6452008,9.15281571 12.9818203,11.8034145 12.9818203,15.0219988 L12.9818203,20.3705285 C12.9818203,22.3111455 13.9330276,24.1097661 15.5500801,25.245737 C15.9781234,25.5297298 16.2159252,26.0977152 16.1208045,26.6183686 C16.0256837,27.1390219 15.6452008,27.565011 15.1220368,27.7070074 C14.6464331,27.8490037 14.2183898,28.0383322 13.8379069,28.2749928 L9.55747384,30.9255916 C8.74894761,30.3576062 8.03554211,29.7422886 7.36969697,29.0796389 L12.2684148,26.0503831 C10.9367245,24.4884231 10.1757586,22.5478061 10.1757586,20.4651928 L10.1757586,15.0219988 C10.1757586,10.2887866 14.0757087,6.40755266 18.8317454,6.40755266 C23.5877821,6.40755266 27.4877321,10.2887866 27.4877321,15.0219988 L27.4877321,20.3705285 C27.4877321,22.500474 26.7267663,24.4884231 25.3475156,26.0503831 L30.2937938,29.0323068 C29.6279486,29.7422886 28.9145431,30.3576062 28.1060169,30.9255916 L23.6829028,28.2276607 Z" id="Shape-Copy-3" fill="#FFFFFF"></path>
            </g>
            <rect id="Rectangle-3-Copy-9" fill="#F9C74B" x="109" y="45" width="36" height="3"></rect>
            <rect id="Rectangle-3-Copy-10" fill="#F9C74B" x="109" y="52" width="31" height="3"></rect>
        </g>
    </g>
</svg>