<?xml version="1.0" encoding="UTF-8" standalone="no"?>
<svg width="170px" height="180px" viewBox="0 0 170 180" version="1.1" xmlns="http://www.w3.org/2000/svg" xmlns:xlink="http://www.w3.org/1999/xlink">
    <!-- Generator: Sketch 40.3 (33839) - http://www.bohemiancoding.com/sketch -->
    <title>get_rewards copy 3</title>
    <desc>Created with Sketch.</desc>
    <defs></defs>
    <g id="Page-1" stroke="none" stroke-width="1" fill="none" fill-rule="evenodd">
        <g id="get_rewards-copy-3">
            <g id="Group" transform="translate(122.762565, 133.226603) rotate(-360.000000) translate(-122.762565, -133.226603) translate(100.000000, 119.000000)">
                <path d="M44.6456428,0.106847377 L0.831730629,0.106847377 C0.552802739,0.106847377 0.32642648,0.338091943 0.32642648,0.623018282 L0.32642648,27.2502106 C0.32642648,27.5351369 0.552802739,27.7663815 0.831730629,27.7663815 L44.6451375,27.7663815 C44.9240654,27.7663815 45.1504416,27.5351369 45.1504416,27.2502106 L45.1504416,0.623018282 C45.1509469,0.338091943 44.9245707,0.106847377 44.6456428,0.106847377 L44.6456428,0.106847377 Z" id="Shape" fill="#4A4A4A"></path>
                <polygon id="Path" fill="#E8E8E8" points="1.33703478 26.7340397 1.33703478 1.13918919 44.1398333 1.13918919 44.1398333 26.7340397"></polygon>
                <path d="M3.32944904,20.4749513 C5.60837075,20.4759836 7.46334228,22.370847 7.46435289,24.6987778 C7.46435289,24.9837041 7.69072915,25.2149487 7.96965704,25.2149487 L37.5036739,25.2149487 C37.7826018,25.2149487 38.0089781,24.9837041 38.0089781,24.6987778 C38.0089781,22.3703308 39.8674867,20.4764998 42.1524721,20.4764998 C42.4314,20.4764998 42.6577762,20.2452552 42.6577762,19.9603289 L42.6577762,7.91754551 C42.6577762,7.63261917 42.4314,7.4013746 42.1524721,7.4013746 C39.8715292,7.4013746 38.0120099,5.50444653 38.0074622,3.17341872 C38.0069569,2.88900855 37.7810859,2.65828016 37.502158,2.65828016 L7.96965704,2.65828016 C7.83575144,2.65828016 7.70689888,2.7124781 7.612407,2.80951823 C7.51791513,2.90655836 7.46435289,3.03766577 7.46435289,3.17445106 C7.46485819,5.50393036 5.60988666,7.40034226 3.32944904,7.4013746 C3.05052115,7.4013746 2.82414489,7.63261917 2.82414489,7.91754551 L2.82414489,19.9592965 C2.82465019,20.2442229 3.05052115,20.4749513 3.32944904,20.4749513 L3.32944904,20.4749513 Z" id="Shape" fill="#4A4A4A"></path>
                <path d="M3.83525849,8.40842404 C6.26981388,8.16375903 8.21270833,6.17804956 8.45070659,3.69062197 L37.0226244,3.69062197 C37.2651704,6.1790819 39.211602,8.16479137 41.6471679,8.40842404 L41.6471679,19.4689342 C39.2080648,19.7120507 37.2621385,21.6956955 37.0231297,24.1826069 L8.45020128,24.1826069 C8.21068711,21.6967278 6.26880327,19.7125669 3.83525849,19.468418 L3.83525849,8.40842404 L3.83525849,8.40842404 Z" id="Path" fill="#F9F9F9"></path>
                <path d="M22.7386867,20.8264637 C26.4577252,20.8264637 29.4834865,17.7356323 29.4834865,13.9366144 C29.4834865,10.1375966 26.4577252,7.04676519 22.7386867,7.04676519 C19.0196482,7.04676519 15.9938869,10.1375966 15.9938869,13.9366144 C15.9938869,17.7356323 19.0196482,20.8264637 22.7386867,20.8264637 L22.7386867,20.8264637 Z" id="Shape" fill="#4A4A4A"></path>
                <path d="M22.7386867,8.079107 C25.9003748,8.079107 28.4728782,10.7064169 28.4728782,13.9366144 C28.4728782,17.1668119 25.9003748,19.7941219 22.7386867,19.7941219 C19.5769986,19.7941219 17.0044952,17.1662958 17.0044952,13.9366144 C17.0044952,10.7069331 19.5769986,8.079107 22.7386867,8.079107 L22.7386867,8.079107 Z" id="Path" fill="#42D3AA"></path>
            </g>
            <g id="Group-Copy" transform="translate(108.762565, 119.226603) rotate(-360.000000) translate(-108.762565, -119.226603) translate(86.000000, 105.000000)">
                <path d="M44.6456428,0.106847377 L0.831730629,0.106847377 C0.552802739,0.106847377 0.32642648,0.338091943 0.32642648,0.623018282 L0.32642648,27.2502106 C0.32642648,27.5351369 0.552802739,27.7663815 0.831730629,27.7663815 L44.6451375,27.7663815 C44.9240654,27.7663815 45.1504416,27.5351369 45.1504416,27.2502106 L45.1504416,0.623018282 C45.1509469,0.338091943 44.9245707,0.106847377 44.6456428,0.106847377 L44.6456428,0.106847377 Z" id="Shape" fill="#4A4A4A"></path>
                <polygon id="Path" fill="#E8E8E8" points="1.33703478 26.7340397 1.33703478 1.13918919 44.1398333 1.13918919 44.1398333 26.7340397"></polygon>
                <path d="M3.32944904,20.4749513 C5.60837075,20.4759836 7.46334228,22.370847 7.46435289,24.6987778 C7.46435289,24.9837041 7.69072915,25.2149487 7.96965704,25.2149487 L37.5036739,25.2149487 C37.7826018,25.2149487 38.0089781,24.9837041 38.0089781,24.6987778 C38.0089781,22.3703308 39.8674867,20.4764998 42.1524721,20.4764998 C42.4314,20.4764998 42.6577762,20.2452552 42.6577762,19.9603289 L42.6577762,7.91754551 C42.6577762,7.63261917 42.4314,7.4013746 42.1524721,7.4013746 C39.8715292,7.4013746 38.0120099,5.50444653 38.0074622,3.17341872 C38.0069569,2.88900855 37.7810859,2.65828016 37.502158,2.65828016 L7.96965704,2.65828016 C7.83575144,2.65828016 7.70689888,2.7124781 7.612407,2.80951823 C7.51791513,2.90655836 7.46435289,3.03766577 7.46435289,3.17445106 C7.46485819,5.50393036 5.60988666,7.40034226 3.32944904,7.4013746 C3.05052115,7.4013746 2.82414489,7.63261917 2.82414489,7.91754551 L2.82414489,19.9592965 C2.82465019,20.2442229 3.05052115,20.4749513 3.32944904,20.4749513 L3.32944904,20.4749513 Z" id="Shape" fill="#4A4A4A"></path>
                <path d="M3.83525849,8.40842404 C6.26981388,8.16375903 8.21270833,6.17804956 8.45070659,3.69062197 L37.0226244,3.69062197 C37.2651704,6.1790819 39.211602,8.16479137 41.6471679,8.40842404 L41.6471679,19.4689342 C39.2080648,19.7120507 37.2621385,21.6956955 37.0231297,24.1826069 L8.45020128,24.1826069 C8.21068711,21.6967278 6.26880327,19.7125669 3.83525849,19.468418 L3.83525849,8.40842404 L3.83525849,8.40842404 Z" id="Path" fill="#F9F9F9"></path>
                <path d="M22.7386867,20.8264637 C26.4577252,20.8264637 29.4834865,17.7356323 29.4834865,13.9366144 C29.4834865,10.1375966 26.4577252,7.04676519 22.7386867,7.04676519 C19.0196482,7.04676519 15.9938869,10.1375966 15.9938869,13.9366144 C15.9938869,17.7356323 19.0196482,20.8264637 22.7386867,20.8264637 L22.7386867,20.8264637 Z" id="Shape" fill="#4A4A4A"></path>
                <path d="M22.7386867,8.079107 C25.9003748,8.079107 28.4728782,10.7064169 28.4728782,13.9366144 C28.4728782,17.1668119 25.9003748,19.7941219 22.7386867,19.7941219 C19.5769986,19.7941219 17.0044952,17.1662958 17.0044952,13.9366144 C17.0044952,10.7069331 19.5769986,8.079107 22.7386867,8.079107 L22.7386867,8.079107 Z" id="Path" fill="#42D3AA"></path>
            </g>
            <path d="M144.5,27.5 L17.5,161.5" id="Line-Copy-5" stroke="#9D9D9D" stroke-linecap="square"></path>
            <path d="M82.5366552,53.512306 L71.6196566,51.9843422 L66.7373108,42.4538059 C66.4495094,41.8918881 65.855405,41.5360658 65.2048416,41.5360658 C64.5542782,41.5360658 63.9601738,41.8918881 63.6723723,42.4538059 L58.7903202,51.9842007 L47.8729545,53.5121645 C47.2292191,53.6022694 46.6942168,54.0366683 46.4933431,54.6326053 C46.2922492,55.2285423 46.4599376,55.8828989 46.9258529,56.3202683 L54.8256352,63.7375126 L52.9600652,74.2130185 C52.8501573,74.8305976 53.1136572,75.454825 53.6399226,75.8231659 C54.1662615,76.1913652 54.8637395,76.2400954 55.4397095,75.9484923 L65.2048416,71.0031912 L74.9700471,75.9484923 C75.2200379,76.0751625 75.4930821,76.1376135 75.7650251,76.1376135 C76.7140357,76.1350674 77.4763424,75.3989515 77.4763424,74.4913252 C77.4763424,74.3648672 77.4615118,74.2417332 77.4336127,74.1234087 L75.5839745,63.7375834 L83.4839037,56.3204098 C83.9496721,55.8830404 84.1173605,55.2288252 83.9162666,54.6327467 C83.7153196,54.0368097 83.1805375,53.6024108 82.5366552,53.512306 Z" id="Shape-Copy-5" stroke="#4A4A4A" fill="#F9F9F9"></path>
            <path d="M64.7856391,46.203064 L53.8686405,44.6751002 L48.9862947,35.144564 C48.6984933,34.5826462 48.1043889,34.2268239 47.4538255,34.2268239 C46.8032621,34.2268239 46.2091577,34.5826462 45.9213562,35.144564 L41.0393041,44.6749588 L30.1219384,46.2029226 C29.478203,46.2930275 28.9432006,46.7274264 28.742327,47.3233633 C28.5412331,47.9193003 28.7089215,48.573657 29.1748368,49.0110264 L37.0746191,56.4282707 L35.2090491,66.9037766 C35.0991412,67.5213557 35.362641,68.1455831 35.8889065,68.5139239 C36.4152454,68.8821233 37.1127234,68.9308535 37.6886934,68.6392504 L47.4538255,63.6939493 L57.219031,68.6392504 C57.4690218,68.7659206 57.742066,68.8283716 58.014009,68.8283716 C58.9630196,68.8258255 59.7253263,68.0897096 59.7253263,67.1820833 C59.7253263,67.0556252 59.7104957,66.9324913 59.6825966,66.8141668 L57.8329584,56.4283414 L65.7328876,49.0111678 C66.198656,48.5737984 66.3663444,47.9195833 66.1652505,47.3235048 C65.9643034,46.7275678 65.4295214,46.2931689 64.7856391,46.203064 Z" id="Shape-Copy-6" stroke="#4A4A4A" fill="#F9C74B"></path>
        </g>
    </g>
</svg>