<?xml version="1.0" encoding="UTF-8" standalone="no"?>
<svg width="170px" height="180px" viewBox="0 0 170 180" version="1.1" xmlns="http://www.w3.org/2000/svg" xmlns:xlink="http://www.w3.org/1999/xlink">
    <!-- Generator: Sketch 40.3 (33839) - http://www.bohemiancoding.com/sketch -->
    <title>get_rewards copy 5</title>
    <desc>Created with Sketch.</desc>
    <defs></defs>
    <g id="Page-1" stroke="none" stroke-width="1" fill="none" fill-rule="evenodd">
        <g id="get_rewards-copy-5">
            <g id="Group-Copy-2" transform="translate(76.500000, 128.500000) rotate(-270.000000) translate(-76.500000, -128.500000) translate(48.000000, 111.000000)">
                <path d="M55.8988335,0.133778873 L1.04137311,0.133778873 C0.692139845,0.133778873 0.40870415,0.423309959 0.40870415,0.78005362 L0.40870415,34.1187827 C0.40870415,34.4755264 0.692139845,34.7650575 1.04137311,34.7650575 L55.8982009,34.7650575 C56.2474341,34.7650575 56.5308698,34.4755264 56.5308698,34.1187827 L56.5308698,0.78005362 C56.5315025,0.423309959 56.2480668,0.133778873 55.8988335,0.133778873 L55.8988335,0.133778873 Z" id="Shape" fill="#4A4A4A"></path>
                <polygon id="Path" fill="#E8E8E8" points="1.67404208 33.472508 1.67404208 1.42632837 55.2655319 1.42632837 55.2655319 33.472508"></polygon>
                <path d="M4.1686558,25.6357804 C7.02199282,25.6370729 9.34452058,28.0095475 9.34578592,30.9242466 C9.34578592,31.2809903 9.62922161,31.5705214 9.97845488,31.5705214 L46.9566904,31.5705214 C47.3059237,31.5705214 47.5893594,31.2809903 47.5893594,30.9242466 C47.5893594,28.0089013 49.9163158,25.6377192 52.7772449,25.6377192 C53.1264781,25.6377192 53.4099138,25.3481881 53.4099138,24.9914445 L53.4099138,9.91320834 C53.4099138,9.55646468 53.1264781,9.2669336 52.7772449,9.2669336 C49.9213772,9.2669336 47.5931554,6.8918739 47.5874614,3.97329714 C47.5868287,3.61719976 47.3040257,3.32831495 46.9547924,3.32831495 L9.97845488,3.32831495 C9.81079761,3.32831495 9.64946702,3.3961738 9.53115792,3.51767345 C9.41284883,3.6391731 9.34578592,3.80332689 9.34578592,3.97458969 C9.34641859,6.89122763 7.02389083,9.26564105 4.1686558,9.2669336 C3.81942253,9.2669336 3.53598683,9.55646468 3.53598683,9.91320834 L3.53598683,24.9901519 C3.5366195,25.3468956 3.81942253,25.6357804 4.1686558,25.6357804 L4.1686558,25.6357804 Z" id="Shape" fill="#4A4A4A"></path>
                <path d="M4.80195743,10.5278156 C7.85015649,10.2214814 10.2827687,7.73526245 10.5807557,4.62086444 L46.3543896,4.62086444 C46.6580707,7.736555 49.0951115,10.2227739 52.1445759,10.5278156 L52.1445759,24.3761909 C49.0906828,24.6805863 46.6542747,27.1642202 46.3550222,30.2779719 L10.5801231,30.2779719 C10.280238,27.1655127 7.84889115,24.6812326 4.80195743,24.3755446 L4.80195743,10.5278156 L4.80195743,10.5278156 Z" id="Path" fill="#F9F9F9"></path>
                <path d="M28.4701033,26.0758935 C33.1265469,26.0758935 36.9149686,22.2060003 36.9149686,17.4494182 C36.9149686,12.692836 33.1265469,8.82294285 28.4701033,8.82294285 C23.8136598,8.82294285 20.025238,12.692836 20.025238,17.4494182 C20.025238,22.2060003 23.8136598,26.0758935 28.4701033,26.0758935 L28.4701033,26.0758935 Z" id="Shape" fill="#4A4A4A"></path>
                <path d="M28.4701033,10.1154923 C32.428713,10.1154923 35.6496307,13.4050308 35.6496307,17.4494182 C35.6496307,21.4938055 32.428713,24.783344 28.4701033,24.783344 C24.5114936,24.783344 21.2905759,21.4931593 21.2905759,17.4494182 C21.2905759,13.4056771 24.5114936,10.1154923 28.4701033,10.1154923 L28.4701033,10.1154923 Z" id="Path" fill="#42D3AA"></path>
            </g>
            <g id="Group-Copy" transform="translate(88.192308, 111.500000) rotate(-270.000000) translate(-88.192308, -111.500000) translate(66.192308, 93.500000)">
                <path d="M1.46549439e-14,0.135509916 L42.3995235,0.135509916 C42.7485379,0.135509916 43.031796,0.428787416 43.0311638,0.790147193 L43.0311638,34.5602657 C43.0311638,34.9216255 42.7479057,35.214903 42.3988912,35.214903 L1.28785871e-14,35.214903 L1.24344979e-14,0.135509916 Z" id="Combined-Shape" fill="#4A4A4A"></path>
                <path d="M7.10542736e-14,1.44478447 L41.7666187,1.44478447 L41.7666187,33.9056285 L7.10542736e-14,33.9056285 L7.10542736e-14,1.44478447 Z" id="Combined-Shape" fill="#E8E8E8"></path>
                <path d="M-2.8643754e-14,31.979031 L33.4629832,31.979031 C33.8119977,31.979031 34.0952558,31.6857535 34.0952558,31.3243937 C34.0952558,28.3713249 36.4207542,25.9694608 39.2798907,25.9694608 C39.6289052,25.9694608 39.9121633,25.6761833 39.9121633,25.3148235 L39.9121633,10.0414812 C39.9121633,9.68012141 39.6289052,9.38684391 39.2798907,9.38684391 C36.4258124,9.38684391 34.0990494,6.98105192 34.093359,4.02470998 C34.0927267,3.66400484 33.8101009,3.37138197 33.4610864,3.37138197 L-2.90878432e-14,3.37138197 L-2.84217094e-14,31.979031 Z" id="Combined-Shape" fill="#4A4A4A"></path>
                <path d="M1.4321877e-14,4.68065653 L32.8610597,4.68065653 C33.1645506,7.83666284 35.6000645,10.3550524 38.6476182,10.6640412 L38.6476182,24.6916088 C35.5956385,24.9999429 33.1607569,27.515714 32.861692,30.6697564 L1.18793864e-14,30.6697564 L1.42108547e-14,4.68065653 Z" id="Combined-Shape" fill="#F9F9F9"></path>
                <path d="M14.9879792,26.4133048 C19.6415052,26.4133048 23.4275532,22.4933368 23.4275532,17.6752065 C23.4275532,12.8570761 19.6415052,8.9371081 14.9879792,8.9371081 C10.3344532,8.9371081 6.54840515,12.8570761 6.54840515,17.6752065 C6.54840515,22.4933368 10.3344532,26.4133048 14.9879792,26.4133048 L14.9879792,26.4133048 Z" id="Shape" fill="#4A4A4A"></path>
                <path d="M14.9879792,10.2463827 C18.9441086,10.2463827 22.1630081,13.5784864 22.1630081,17.6752065 C22.1630081,21.7719265 18.9441086,25.1040303 14.9879792,25.1040303 C11.0318498,25.1040303 7.81295026,21.7712719 7.81295026,17.6752065 C7.81295026,13.579141 11.0318498,10.2463827 14.9879792,10.2463827 L14.9879792,10.2463827 Z" id="Path" fill="#42D3AA"></path>
            </g>
            <path d="M162.014012,38.9607284 L154.757372,37.9450754 L151.512027,31.6100312 C151.320723,31.2365187 150.925815,31 150.493379,31 C150.060943,31 149.666036,31.2365187 149.474731,31.6100312 L146.229582,37.9449813 L138.972698,38.9606344 C138.544801,39.020528 138.189179,39.3092774 138.055656,39.7054027 C137.921987,40.1015281 138.033451,40.5364856 138.34315,40.8272095 L143.594215,45.7575271 L142.354152,52.7207022 C142.281095,53.1312133 142.456246,53.5461436 142.80606,53.7909835 C143.155923,54.0357293 143.619544,54.0681208 144.002397,53.8742892 L150.493379,50.5870974 L156.98441,53.8742892 C157.150582,53.9584882 157.332077,54 157.51284,54 C158.143657,53.9983076 158.65037,53.5090039 158.65037,52.9056954 C158.65037,52.8216375 158.640512,52.7397891 158.621968,52.6611376 L157.392494,45.7575741 L162.643657,40.8273035 C162.953258,40.5365796 163.064723,40.1017162 162.931053,39.7054968 C162.797482,39.3093714 162.442007,39.020622 162.014012,38.9607284 Z" id="Shape-Copy-11" fill="#F9C74B"></path>
            <path d="M130.014012,38.9607284 L122.757372,37.9450754 L119.512027,31.6100312 C119.320723,31.2365187 118.925815,31 118.493379,31 C118.060943,31 117.666036,31.2365187 117.474731,31.6100312 L114.229582,37.9449813 L106.972698,38.9606344 C106.544801,39.020528 106.189179,39.3092774 106.055656,39.7054027 C105.921987,40.1015281 106.033451,40.5364856 106.34315,40.8272095 L111.594215,45.7575271 L110.354152,52.7207022 C110.281095,53.1312133 110.456246,53.5461436 110.80606,53.7909835 C111.155923,54.0357293 111.619544,54.0681208 112.002397,53.8742892 L118.493379,50.5870974 L124.98441,53.8742892 C125.150582,53.9584882 125.332077,54 125.51284,54 C126.143657,53.9983076 126.65037,53.5090039 126.65037,52.9056954 C126.65037,52.8216375 126.640512,52.7397891 126.621968,52.6611376 L125.392494,45.7575741 L130.643657,40.8273035 C130.953258,40.5365796 131.064723,40.1017162 130.931053,39.7054968 C130.797482,39.3093714 130.442007,39.020622 130.014012,38.9607284 Z" id="Shape-Copy-12" fill="#F9C74B"></path>
            <path d="M98.0140117,38.9607284 L90.7573719,37.9450754 L87.5120271,31.6100312 C87.3207226,31.2365187 86.9258153,31 86.4933792,31 C86.0609432,31 85.6660359,31.2365187 85.4747314,31.6100312 L82.2295818,37.9449813 L74.972698,38.9606344 C74.5448005,39.020528 74.189179,39.3092774 74.0556563,39.7054027 C73.9219871,40.1015281 74.0334513,40.5364856 74.3431499,40.8272095 L79.5942154,45.7575271 L78.3541521,52.7207022 C78.2810952,53.1312133 78.4562462,53.5461436 78.8060602,53.7909835 C79.1559231,54.0357293 79.6195437,54.0681208 80.0023968,53.8742892 L86.4933792,50.5870974 L92.9844105,53.8742892 C93.1505819,53.9584882 93.3320772,54 93.5128405,54 C94.1436574,53.9983076 94.6503704,53.5090039 94.6503704,52.9056954 C94.6503704,52.8216375 94.6405124,52.7397891 94.6219675,52.6611376 L93.3924943,45.7575741 L98.6436574,40.8273035 C98.9532584,40.5365796 99.0647226,40.1017162 98.9310534,39.7054968 C98.7974819,39.3093714 98.4420068,39.020622 98.0140117,38.9607284 Z" id="Shape-Copy-13" fill="#F9C74B"></path>
            <path d="M65.0140117,38.9607284 L57.7573719,37.9450754 L54.5120271,31.6100312 C54.3207226,31.2365187 53.9258153,31 53.4933792,31 C53.0609432,31 52.6660359,31.2365187 52.4747314,31.6100312 L49.2295818,37.9449813 L41.972698,38.9606344 C41.5448005,39.020528 41.189179,39.3092774 41.0556563,39.7054027 C40.9219871,40.1015281 41.0334513,40.5364856 41.3431499,40.8272095 L46.5942154,45.7575271 L45.3541521,52.7207022 C45.2810952,53.1312133 45.4562462,53.5461436 45.8060602,53.7909835 C46.1559231,54.0357293 46.6195437,54.0681208 47.0023968,53.8742892 L53.4933792,50.5870974 L59.9844105,53.8742892 C60.1505819,53.9584882 60.3320772,54 60.5128405,54 C61.1436574,53.9983076 61.6503704,53.5090039 61.6503704,52.9056954 C61.6503704,52.8216375 61.6405124,52.7397891 61.6219675,52.6611376 L60.3924943,45.7575741 L65.6436574,40.8273035 C65.9532584,40.5365796 66.0647226,40.1017162 65.9310534,39.7054968 C65.7974819,39.3093714 65.4420068,39.020622 65.0140117,38.9607284 Z" id="Shape-Copy-14" fill="#F9C74B"></path>
            <path d="M33.0140117,38.9607284 L25.7573719,37.9450754 L22.5120271,31.6100312 C22.3207226,31.2365187 21.9258153,31 21.4933792,31 C21.0609432,31 20.6660359,31.2365187 20.4747314,31.6100312 L17.2295818,37.9449813 L9.972698,38.9606344 C9.5448005,39.020528 9.18917904,39.3092774 9.05565628,39.7054027 C8.92198711,40.1015281 9.03345129,40.5364856 9.34314991,40.8272095 L14.5942154,45.7575271 L13.3541521,52.7207022 C13.2810952,53.1312133 13.4562462,53.5461436 13.8060602,53.7909835 C14.1559231,54.0357293 14.6195437,54.0681208 15.0023968,53.8742892 L21.4933792,50.5870974 L27.9844105,53.8742892 C28.1505819,53.9584882 28.3320772,54 28.5128405,54 C29.1436574,53.9983076 29.6503704,53.5090039 29.6503704,52.9056954 C29.6503704,52.8216375 29.6405124,52.7397891 29.6219675,52.6611376 L28.3924943,45.7575741 L33.6436574,40.8273035 C33.9532584,40.5365796 34.0647226,40.1017162 33.9310534,39.7054968 C33.7974819,39.3093714 33.4420068,39.020622 33.0140117,38.9607284 Z" id="Shape-Copy-15" fill="#F9C74B"></path>
            <path d="M134.003731,89 L36.9948457,89" id="Line-Copy-5" stroke="#4A4A4A" stroke-width="2" stroke-linecap="square"></path>
        </g>
    </g>
</svg>