<?xml version="1.0" encoding="UTF-8" standalone="no"?>
<svg width="170px" height="180px" viewBox="0 0 170 180" version="1.1" xmlns="http://www.w3.org/2000/svg" xmlns:xlink="http://www.w3.org/1999/xlink">
    <!-- Generator: Sketch 40.3 (33839) - http://www.bohemiancoding.com/sketch -->
    <title>offer copy 4</title>
    <desc>Created with Sketch.</desc>
    <defs></defs>
    <g id="Page-1" stroke="none" stroke-width="1" fill="none" fill-rule="evenodd">
        <g id="offer-copy-4">
            <circle id="Oval" stroke="#4A4A4A" fill="#FFFFFF" cx="84.5" cy="98.5" r="59.5"></circle>
            <g id="Group" transform="translate(84.500000, 104.500000) scale(-1, -1) rotate(131.000000) translate(-84.500000, -104.500000) translate(70.000000, 65.000000)">
                <path d="M28.9475315,14.8188437 C28.9475315,6.78798649 22.420147,0.191210887 14.4737658,0.191210887 C12.5817702,0.191210887 10.7843745,0.573632661 8.98697874,1.24287077 C8.60857963,1.43408165 8.3247803,1.72089798 8.23018053,2.10331976 C8.13558075,2.48574153 8.23018053,2.86816331 8.41938008,3.15497964 L13.3385684,9.46493891 L10.0275763,11.9506804 L5.10838791,5.73632661 C4.91918836,5.44951028 4.54078926,5.25829939 4.16239015,5.25829939 L4.16239015,5.25829939 C3.78399105,5.25829939 3.40559194,5.44951028 3.21639239,5.73632661 C1.13519731,8.31767359 4.92050845e-13,11.4726532 4.92050845e-13,14.8188437 C4.92050845e-13,20.6507758 3.50019172,26.0046806 8.79777918,28.2992113 L6.71658411,74.1898242 C6.71658411,77.5360147 10.7843745,78.68328 14.6629653,78.68328 L14.8521649,78.68328 C17.6901581,78.68328 23.5553443,77.5360147 23.5553443,73.711797 L20.8119508,28.012395 C25.7311391,25.5266534 28.9475315,20.4595649 28.9475315,14.8188437 L28.9475315,14.8188437 Z" id="Path" fill="#4A4A4A"></path>
                <path d="M19.014555,26.0046806 C18.5415561,26.1958915 18.2577568,26.6739187 18.2577568,27.2475514 L21.0957501,73.711797 C21.0957501,74.9546677 17.5955584,76.101933 14.8521649,76.101933 L14.6629653,76.101933 C11.9195718,76.101933 9.17617829,75.3370895 9.17617829,74.0942187 L11.2573734,27.4387623 C11.2573734,26.8651296 10.973574,26.3871024 10.4059754,26.1958915 C5.58138679,24.4749935 2.3649944,19.8859323 2.3649944,14.7232383 C2.3649944,12.4287077 2.93259306,10.3253879 4.16239015,8.41327903 L8.98697874,14.436422 C9.36537784,14.9144492 10.1221761,15.0100546 10.6897747,14.6276329 L15.8927624,10.6122042 C16.1765617,10.4209933 16.3657613,10.134177 16.3657613,9.75175524 C16.3657613,9.36933347 16.2711615,9.08251714 16.0819619,8.7957008 L11.4465729,2.86816331 C12.3925707,2.58134698 13.4331682,2.48574153 14.4737658,2.48574153 C21.0957501,2.48574153 26.4879373,7.93525181 26.4879373,14.6276329 C26.4879373,19.7903268 23.5553443,24.1881772 19.014555,26.0046806 L19.014555,26.0046806 Z" id="Shape" fill="#E8E8E8"></path>
                <rect id="Rectangle-path" stroke="#4A4A4A" fill="#FFC938" transform="translate(17.058288, 17.592989) rotate(-38.381524) translate(-17.058288, -17.592989) " x="11.5714574" y="14.3423775" width="10.9736619" height="6.50122223"></rect>
                <path d="M10.5005752,69.7919738 C10.5005752,72.3733208 12.5817702,74.4766405 15.1359642,74.4766405 C17.6901581,74.4766405 19.7713532,72.3733208 19.7713532,69.7919738 C19.7713532,67.2106268 17.6901581,65.107307 15.1359642,65.107307 C12.5817702,65.107307 10.5005752,67.2106268 10.5005752,69.7919738 L10.5005752,69.7919738 Z" id="Path" fill="#4A4A4A"></path>
                <path d="M15.230564,72.851348 C13.527768,72.851348 12.2033711,71.5128718 12.2033711,69.7919738 C12.2033711,68.0710758 13.527768,66.7325996 15.230564,66.7325996 C16.9333599,66.7325996 18.2577568,68.0710758 18.2577568,69.7919738 C18.2577568,71.5128718 16.9333599,72.851348 15.230564,72.851348 Z" id="Shape" fill="#42D3AA"></path>
            </g>
            <g id="avatar-blue-copy-3" transform="translate(85.000000, 41.000000) scale(-1, 1) translate(-85.000000, -41.000000) translate(66.000000, 22.000000)">
                <ellipse id="Oval-3" stroke="#4A4A4A" fill="#42D3AA" cx="18.8554643" cy="18.7649757" rx="18.8554643" ry="18.7649757"></ellipse>
                <path d="M23.6829028,28.2276607 C23.3024199,27.9910001 22.9219369,27.8490037 22.541454,27.7070074 C22.0182899,27.565011 21.637807,27.1390219 21.5426863,26.6183686 C21.4475655,26.0977152 21.6853674,25.5770619 22.1609711,25.245737 C23.8255839,24.1570982 24.7767912,22.3111455 24.7767912,20.3705285 L24.7767912,15.0219988 C24.7767912,11.8034145 22.1134107,9.15281571 18.8793057,9.15281571 C15.6452008,9.15281571 12.9818203,11.8034145 12.9818203,15.0219988 L12.9818203,20.3705285 C12.9818203,22.3111455 13.9330276,24.1097661 15.5500801,25.245737 C15.9781234,25.5297298 16.2159252,26.0977152 16.1208045,26.6183686 C16.0256837,27.1390219 15.6452008,27.565011 15.1220368,27.7070074 C14.6464331,27.8490037 14.2183898,28.0383322 13.8379069,28.2749928 L9.55747384,30.9255916 C8.74894761,30.3576062 8.03554211,29.7422886 7.36969697,29.0796389 L12.2684148,26.0503831 C10.9367245,24.4884231 10.1757586,22.5478061 10.1757586,20.4651928 L10.1757586,15.0219988 C10.1757586,10.2887866 14.0757087,6.40755266 18.8317454,6.40755266 C23.5877821,6.40755266 27.4877321,10.2887866 27.4877321,15.0219988 L27.4877321,20.3705285 C27.4877321,22.500474 26.7267663,24.4884231 25.3475156,26.0503831 L30.2937938,29.0323068 C29.6279486,29.7422886 28.9145431,30.3576062 28.1060169,30.9255916 L23.6829028,28.2276607 Z" id="Shape-Copy-3" fill="#FFFFFF"></path>
            </g>
        </g>
    </g>
</svg>