<?xml version="1.0" encoding="UTF-8" standalone="no"?>
<svg width="170px" height="180px" viewBox="0 0 170 180" version="1.1" xmlns="http://www.w3.org/2000/svg" xmlns:xlink="http://www.w3.org/1999/xlink">
    <!-- Generator: Sketch 40.3 (33839) - http://www.bohemiancoding.com/sketch -->
    <title>request copy 4</title>
    <desc>Created with Sketch.</desc>
    <defs>
        <rect id="path-1" x="11" y="98" width="149" height="77" rx="3"></rect>
        <mask id="mask-2" maskContentUnits="userSpaceOnUse" maskUnits="objectBoundingBox" x="0" y="0" width="149" height="77" fill="white">
            <use xlink:href="#path-1"></use>
        </mask>
        <rect id="path-3" x="66.7161822" y="5.30394216" width="12.9209452" height="18.567185"></rect>
        <mask id="mask-4" maskContentUnits="userSpaceOnUse" maskUnits="objectBoundingBox" x="0" y="0" width="12.9209452" height="18.567185" fill="white">
            <use xlink:href="#path-3"></use>
        </mask>
        <rect id="path-5" x="4.32748459" y="2.75552897" width="12.9209452" height="18.567185"></rect>
        <mask id="mask-6" maskContentUnits="userSpaceOnUse" maskUnits="objectBoundingBox" x="0" y="0" width="12.9209452" height="18.567185" fill="white">
            <use xlink:href="#path-5"></use>
        </mask>
    </defs>
    <g id="Page-1" stroke="none" stroke-width="1" fill="none" fill-rule="evenodd">
        <g id="request-copy-4">
            <use id="Rectangle-8" stroke="#4A4A4A" mask="url(#mask-2)" stroke-width="2" fill="#FFFFFF" xlink:href="#path-1"></use>
            <g id="Group" transform="translate(120.000000, 124.000000)">
                <path d="M22.41,2.43 L22.41,0.54 C22.41,0.39096 22.28904,0.27 22.14,0.27 C21.99096,0.27 21.87,0.39096 21.87,0.54 L21.87,2.43 L5.13,2.43 L5.13,0.54 C5.13,0.39096 5.00904,0.27 4.86,0.27 C4.71096,0.27 4.59,0.39096 4.59,0.54 L4.59,2.43 L1.89,2.43 C0.99684,2.43 0.27,3.15684 0.27,4.05 L0.27,25.11 C0.27,26.00316 0.99684,26.73 1.89,26.73 L25.11,26.73 C26.00316,26.73 26.73,26.00316 26.73,25.11 L26.73,4.05 C26.73,3.15684 26.00316,2.43 25.11,2.43 L22.41,2.43 Z" id="Shape" stroke="#4A4A4A" fill="#4A4A4A"></path>
                <path d="M25.11,26.19 L1.89,26.19 C1.29438,26.19 0.81,25.70562 0.81,25.11 L0.81,8.37 L26.19,8.37 L26.19,25.11 C26.19,25.70562 25.70562,26.19 25.11,26.19 L25.11,26.19 Z" id="Path" fill="#E8E8E8"></path>
                <path d="M4.04286764,2.97 L4.04286764,4.86 C4.04286764,5.00904 4.48088073,5.4 4.9012364,5.4 C5.32159206,5.4 5.80705915,5.13 5.80705915,4.86 L5.80705915,2.97 L21.3213239,2.97 L21.3213239,4.72004046 C21.3213239,4.86908046 21.4686192,5.4 22.1704102,5.4 C22.8722011,5.4 23.0381731,4.86908046 23.0381731,4.72004046 L23.0381731,2.97 L25.11,2.97 C25.70562,2.97 26.19,3.45438 26.19,4.05 L26.19,7.83 L0.81,7.83 L0.81,4.05 C0.81,3.45438 1.29438,2.97 1.89,2.97 L4.04286764,2.97 Z" id="Path" fill="#EE5F5B"></path>
            </g>
            <g id="Target" transform="translate(20.000000, 123.000000)">
                <path d="M28,13.1911111 L25.3555556,13.1911111 C24.9511111,7.56 20.44,3.04888889 14.8088889,2.64444444 L14.8088889,0 L13.1911111,0 L13.1911111,2.64444444 C7.56,3.04888889 3.04888889,7.56 2.64444444,13.1911111 L0,13.1911111 L0,14.8088889 L2.64444444,14.8088889 C3.04888889,20.44 7.56,24.9511111 13.1911111,25.3555556 L13.1911111,28 L14.8088889,28 L14.8088889,25.3555556 C20.44,24.9511111 24.9511111,20.44 25.3555556,14.8088889 L28,14.8088889 L28,13.1911111 L28,13.1911111 Z" id="Shape" fill="#4A4A4A"></path>
                <path d="M14.8088889,23.7377778 L14.8088889,21.4977778 L13.1911111,21.4977778 L13.1911111,23.7377778 C8.43111111,23.3333333 4.66666667,19.5688889 4.26222222,14.8088889 L6.50222222,14.8088889 L6.50222222,13.1911111 L4.26222222,13.1911111 C4.66666667,8.43111111 8.43111111,4.66666667 13.1911111,4.26222222 L13.1911111,6.50222222 L14.8088889,6.50222222 L14.8088889,4.26222222 C19.5688889,4.66666667 23.3333333,8.43111111 23.7377778,13.1911111 L21.4977778,13.1911111 L21.4977778,14.8088889 L23.7377778,14.8088889 C23.3333333,19.5688889 19.5688889,23.3333333 14.8088889,23.7377778 L14.8088889,23.7377778 Z" id="Path" fill="#F9F9F9"></path>
                <path d="M9.33333333,14 C9.33333333,16.5822222 11.4177778,18.6666667 14,18.6666667 C16.5822222,18.6666667 18.6666667,16.5822222 18.6666667,14 C18.6666667,11.4177778 16.5822222,9.33333333 14,9.33333333 C11.4177778,9.33333333 9.33333333,11.4177778 9.33333333,14 Z" id="Shape" stroke="#4A4A4A" fill="#FFC938"></path>
            </g>
            <g id="Amount" transform="translate(62.000000, 126.000000)">
                <g id="Group" transform="translate(24.686981, 14.043478) rotate(-360.000000) translate(-24.686981, -14.043478) translate(7.686981, 4.043478)">
                    <path d="M32.8951766,0.0759202755 L0.612824102,0.0759202755 C0.407308365,0.0759202755 0.240512983,0.240230824 0.240512983,0.442684892 L0.240512983,19.3626044 C0.240512983,19.5650584 0.407308365,19.729369 0.612824102,19.729369 L32.8948043,19.729369 C33.1003201,19.729369 33.2671154,19.5650584 33.2671154,19.3626044 L33.2671154,0.442684892 C33.2674878,0.240230824 33.1006924,0.0759202755 32.8951766,0.0759202755 L32.8951766,0.0759202755 Z" id="Shape" fill="#4A4A4A"></path>
                    <polygon id="Path" fill="#E8E8E8" points="0.985135222 18.9958398 0.985135222 0.809449508 32.5224932 0.809449508 32.5224932 18.9958398"></polygon>
                    <path d="M2.45315797,14.548452 C4.13228111,14.5491856 5.49903523,15.8955785 5.49977985,17.5496869 C5.49977985,17.7521409 5.66657524,17.9164515 5.87209097,17.9164515 L27.6329313,17.9164515 C27.838447,17.9164515 28.0052424,17.7521409 28.0052424,17.5496869 C28.0052424,15.8952117 29.3746027,14.5495523 31.0581936,14.5495523 C31.2637093,14.5495523 31.4305047,14.3852418 31.4305047,14.1827877 L31.4305047,5.62580245 C31.4305047,5.42334838 31.2637093,5.25903783 31.0581936,5.25903783 C29.3775812,5.25903783 28.0074763,3.91117787 28.0041255,2.25486886 C28.0037531,2.05278156 27.8373301,1.88883777 27.6318143,1.88883777 L5.87209097,1.88883777 C5.77342853,1.88883777 5.67848919,1.92734806 5.60886701,1.99629981 C5.53924483,2.06525155 5.49977985,2.15840977 5.49977985,2.25560239 C5.50015217,3.9108111 4.13339805,5.2583043 2.45315797,5.25903783 C2.24764223,5.25903783 2.08084685,5.42334838 2.08084685,5.62580245 L2.08084685,14.1820542 C2.08121916,14.3845082 2.24764223,14.548452 2.45315797,14.548452 L2.45315797,14.548452 Z" id="Shape" fill="#4A4A4A"></path>
                    <path d="M2.8258414,5.9745956 C4.61963637,5.80074917 6.05117262,4.38980569 6.22653116,2.62236701 L27.2784911,2.62236701 C27.4572004,4.39053922 28.8913429,5.8014827 30.6858825,5.9745956 L30.6858825,13.8336278 C28.8887367,14.0063739 27.4549666,15.4158503 27.2788634,17.1829223 L6.22615885,17.1829223 C6.04968338,15.4165839 4.61889175,14.0067407 2.8258414,13.833261 L2.8258414,5.9745956 L2.8258414,5.9745956 Z" id="Path" fill="#F9F9F9"></path>
                    <path d="M16.7540004,14.7982187 C19.4942102,14.7982187 21.7236092,12.6020322 21.7236092,9.90264464 C21.7236092,7.20325706 19.4942102,5.00707054 16.7540004,5.00707054 C14.0137905,5.00707054 11.7843915,7.20325706 11.7843915,9.90264464 C11.7843915,12.6020322 14.0137905,14.7982187 16.7540004,14.7982187 L16.7540004,14.7982187 Z" id="Shape" fill="#4A4A4A"></path>
                    <path d="M16.7540004,5.74059977 C19.083551,5.74059977 20.9789869,7.60743167 20.9789869,9.90264464 C20.9789869,12.1978576 19.083551,14.0646895 16.7540004,14.0646895 C14.4244497,14.0646895 12.5290138,12.1974908 12.5290138,9.90264464 C12.5290138,7.60779843 14.4244497,5.74059977 16.7540004,5.74059977 L16.7540004,5.74059977 Z" id="Path" fill="#42D3AA"></path>
                </g>
                <g id="Group-Copy" transform="translate(17.000000, 10.000000) rotate(-360.000000) translate(-17.000000, -10.000000) ">
                    <path d="M32.8951766,0.0759202755 L0.612824102,0.0759202755 C0.407308365,0.0759202755 0.240512983,0.240230824 0.240512983,0.442684892 L0.240512983,19.3626044 C0.240512983,19.5650584 0.407308365,19.729369 0.612824102,19.729369 L32.8948043,19.729369 C33.1003201,19.729369 33.2671154,19.5650584 33.2671154,19.3626044 L33.2671154,0.442684892 C33.2674878,0.240230824 33.1006924,0.0759202755 32.8951766,0.0759202755 L32.8951766,0.0759202755 Z" id="Shape" fill="#4A4A4A"></path>
                    <polygon id="Path" fill="#E8E8E8" points="0.985135222 18.9958398 0.985135222 0.809449508 32.5224932 0.809449508 32.5224932 18.9958398"></polygon>
                    <path d="M2.45315797,14.548452 C4.13228111,14.5491856 5.49903523,15.8955785 5.49977985,17.5496869 C5.49977985,17.7521409 5.66657524,17.9164515 5.87209097,17.9164515 L27.6329313,17.9164515 C27.838447,17.9164515 28.0052424,17.7521409 28.0052424,17.5496869 C28.0052424,15.8952117 29.3746027,14.5495523 31.0581936,14.5495523 C31.2637093,14.5495523 31.4305047,14.3852418 31.4305047,14.1827877 L31.4305047,5.62580245 C31.4305047,5.42334838 31.2637093,5.25903783 31.0581936,5.25903783 C29.3775812,5.25903783 28.0074763,3.91117787 28.0041255,2.25486886 C28.0037531,2.05278156 27.8373301,1.88883777 27.6318143,1.88883777 L5.87209097,1.88883777 C5.77342853,1.88883777 5.67848919,1.92734806 5.60886701,1.99629981 C5.53924483,2.06525155 5.49977985,2.15840977 5.49977985,2.25560239 C5.50015217,3.9108111 4.13339805,5.2583043 2.45315797,5.25903783 C2.24764223,5.25903783 2.08084685,5.42334838 2.08084685,5.62580245 L2.08084685,14.1820542 C2.08121916,14.3845082 2.24764223,14.548452 2.45315797,14.548452 L2.45315797,14.548452 Z" id="Shape" fill="#4A4A4A"></path>
                    <path d="M2.8258414,5.9745956 C4.61963637,5.80074917 6.05117262,4.38980569 6.22653116,2.62236701 L27.2784911,2.62236701 C27.4572004,4.39053922 28.8913429,5.8014827 30.6858825,5.9745956 L30.6858825,13.8336278 C28.8887367,14.0063739 27.4549666,15.4158503 27.2788634,17.1829223 L6.22615885,17.1829223 C6.04968338,15.4165839 4.61889175,14.0067407 2.8258414,13.833261 L2.8258414,5.9745956 L2.8258414,5.9745956 Z" id="Path" fill="#F9F9F9"></path>
                    <path d="M16.7540004,14.7982187 C19.4942102,14.7982187 21.7236092,12.6020322 21.7236092,9.90264464 C21.7236092,7.20325706 19.4942102,5.00707054 16.7540004,5.00707054 C14.0137905,5.00707054 11.7843915,7.20325706 11.7843915,9.90264464 C11.7843915,12.6020322 14.0137905,14.7982187 16.7540004,14.7982187 L16.7540004,14.7982187 Z" id="Shape" fill="#4A4A4A"></path>
                    <path d="M20.9789869,9.90264464 C20.9789869,12.1978576 19.083551,14.0646895 16.7540004,14.0646895 C14.4244497,14.0646895 12.5290138,12.1974908 12.5290138,9.90264464 C12.5290138,7.60779843 14.4244497,5.74059977 16.7540004,5.74059977 C19.083551,5.74059977 20.9789869,7.60743167 20.9789869,9.90264464 Z" id="Path" fill="#42D3AA"></path>
                </g>
            </g>
            <g id="Group-2" transform="translate(41.000000, 12.000000)">
                <path d="M73.1698884,24.2426175 L64.795611,9.92043892 C64.559924,9.51647283 64.0646294,9.34715834 63.629136,9.51858048 C63.6066227,9.52771362 61.3004073,10.4311926 58.8745896,10.4311926 C57.9409875,10.4311926 56.7759195,9.86845024 55.4251162,9.21718665 C53.5642438,8.32003065 51.2481789,7.2029766 48.5514969,7.2029766 C46.0792453,7.2029766 43.984093,7.90763397 42.2414159,8.92914126 C40.3882825,7.62661408 38.3332322,6.86575274 36.1219952,6.67887451 C33.43657,6.45335605 31.0339692,7.36948088 29.1027425,8.10715809 C27.7033946,8.64250098 26.4975212,9.11039909 25.5632155,9.02539057 C23.1592076,8.8223537 20.9233466,7.72707869 20.9022403,7.71654045 C20.4843355,7.50928828 19.9763772,7.63715233 19.70692,8.01933937 L10.1528003,21.5841694 C9.86856878,21.9867303 9.94244084,22.5403395 10.3223543,22.8550818 L20.4751895,31.2589815 L20.4491583,31.2849759 C19.6991811,32.0345964 19.2854975,33.0294068 19.2854975,34.0888518 C19.2854975,35.1489993 19.6991811,36.1452148 20.4484548,36.8934303 C21.1984321,37.6416457 22.1960567,38.054745 23.2570002,38.054745 C23.4940943,38.054745 23.7276707,38.0308583 23.9563223,37.9901104 C23.9612471,39.0425299 24.3735236,40.0310173 25.1185761,40.77572 C25.8685533,41.5239355 26.8661779,41.9370347 27.9271214,41.9370347 C28.2676364,41.9370347 28.601116,41.8906664 28.9226354,41.8063605 C28.9789188,42.7414542 29.3588323,43.6603892 30.0729289,44.3720721 C30.8229061,45.1209901 31.8198272,45.5326842 32.8807707,45.5326842 C33.1488207,45.5326842 33.4119459,45.5066899 33.6687393,45.4561063 C35.4240801,47.6417384 37.6845652,48.3260219 39.6840356,48.3260219 C40.9827767,48.3260219 42.1696545,48.038679 43.0371235,47.6895118 C43.6977508,47.9058971 44.4167722,48.0239255 45.1449396,48.0239255 C46.7279123,48.0239255 48.2095748,47.4829622 49.2050887,46.5872113 C49.6785735,46.781115 50.189346,46.8836873 50.7170036,46.8836873 C51.7786506,46.8836873 52.7755716,46.4719932 53.5241418,45.7230752 C54.0954191,45.1533073 54.4697042,44.4416245 54.6167448,43.6674147 C55.2210886,44.0088538 55.8957867,44.1830862 56.5718919,44.1830862 C57.5878087,44.1830862 58.6065395,43.7966838 59.3797338,43.0245817 C60.0438788,42.3613748 60.4427879,41.502859 60.5265095,40.5804112 C60.898684,40.6942243 61.2919648,40.7532384 61.692281,40.7532384 C62.7532245,40.7532384 63.7515526,40.3408418 64.5001228,39.5926263 C65.2501001,38.8437083 65.6637836,37.8481954 65.6637836,36.7887504 C65.6637836,35.7286029 65.2501001,34.7323874 64.5001228,33.9841719 L62.9284068,32.4139733 L72.8919888,25.493156 C73.2986369,25.2128387 73.4189428,24.6669575 73.1698884,24.2426175 L73.1698884,24.2426175 Z" id="Shape" fill="#5A5A5A"></path>
                <use id="Rectangle" stroke="#5C5C5C" mask="url(#mask-4)" stroke-width="4" fill="#F9C74B" transform="translate(73.176655, 14.587535) rotate(-30.000000) translate(-73.176655, -14.587535) " xlink:href="#path-3"></use>
                <path d="M39.9767096,45.0928881 C40.1089758,45.5418173 40.3784329,45.9549166 40.808298,46.3539648 C39.318193,46.60337 37.1667572,46.5036079 35.4325227,44.6095339 C35.5204656,44.5364687 35.607705,44.4584857 35.6900196,44.3762874 L39.7445403,40.3274933 C39.7944919,40.2776123 39.8395187,40.2242185 39.8859525,40.1708247 C41.3021855,41.2836635 40.9877015,41.8407854 40.5043672,42.690168 C40.1406353,43.3273806 39.6889604,44.1226669 39.9767096,45.0928881 L39.9767096,45.0928881 Z" id="Path" fill="#FFFFFF"></path>
                <path d="M63.1655009,35.3197189 C63.5573746,35.7124442 63.7733624,36.2337361 63.7733624,36.7887504 C63.7733624,37.3423596 63.5566711,37.8636515 63.1655009,38.2570793 C62.7715166,38.6505071 62.2501909,38.8640823 61.6943916,38.8640823 C61.1392959,38.8640823 60.6165631,38.6483995 60.2232823,38.2570793 L50.8260528,28.8738252 C50.457396,28.5056892 49.8586806,28.5056892 49.4893203,28.8738252 C49.11996,29.2412587 49.11996,29.8398311 49.4893203,30.2086697 L58.0401871,38.747459 C58.0415942,38.7502692 58.0430013,38.7516743 58.0444083,38.7530794 C58.4383927,39.1458047 58.6543805,39.6670966 58.6543805,40.2214083 C58.6543805,40.7764226 58.4369856,41.2977145 58.0444083,41.6904398 C57.6511276,42.0824625 57.1290983,42.2981453 56.5740026,42.2981453 C56.0189068,42.2981453 55.4968776,42.08176 55.1035968,41.6904398 L53.5297702,40.1195386 C53.5283631,40.1181335 53.526956,40.1153233 53.5255489,40.1153233 C53.5255489,40.1139182 53.5241418,40.1139182 53.5227347,40.1125131 L47.9246397,34.522325 C47.555983,34.1541889 46.9572675,34.1541889 46.5879072,34.522325 C46.2192505,34.8897585 46.2192505,35.4883309 46.5879072,35.8571695 L52.1930377,41.4557882 C52.5835043,41.849216 52.7973815,42.3676977 52.7973815,42.9199018 C52.7973815,43.4749161 52.5799866,43.996208 52.1888164,44.3889332 C51.7955356,44.7823611 51.2735064,44.9966388 50.7184107,44.9966388 L50.7170036,44.9966388 C50.1619078,44.9966388 49.6405821,44.7802534 49.2465978,44.3889332 L45.8090846,40.9562753 C45.4404279,40.5881393 44.8410089,40.5881393 44.4716486,40.9562753 C44.1029918,41.3251139 44.1029918,41.9236863 44.4716486,42.2918223 L47.6235231,45.4385425 C46.9804844,45.8734208 46.0841701,46.1368769 45.1449396,46.1368769 C44.5223037,46.1368769 43.9137387,46.024469 43.3818598,45.8144066 C42.0465344,45.113262 41.8249182,44.6741684 41.7890375,44.5561401 C41.7341611,44.3699644 41.8952726,44.0664629 42.1478447,43.621749 C42.9477735,42.2166495 43.5422677,40.5565245 40.7843775,38.4840029 C40.8617673,38.1727733 40.9067941,37.8510056 40.9067941,37.5215097 C40.9067941,36.4613622 40.4938141,35.4665518 39.7438368,34.7176338 C38.994563,33.9687158 37.9969384,33.5556166 36.935995,33.5556166 C36.5954799,33.5556166 36.2620004,33.6026874 35.940481,33.6862908 C35.883494,32.7160697 35.4824742,31.8132933 34.7887804,31.1212818 C34.0395067,30.3730663 33.0418821,29.9599671 31.9809386,29.9599671 C30.9199951,29.9599671 29.9223706,30.3730663 29.1723933,31.1212818 L28.9198212,31.3734971 C28.7523778,30.6646245 28.3956813,30.0140634 27.8673202,29.485746 C27.1180465,28.736828 26.1204219,28.3251339 25.0587749,28.3251339 C23.9978314,28.3251339 23.0009103,28.736828 22.2509331,29.485746 L21.8126255,29.9234345 C21.7901121,29.9002504 21.7697094,29.8770662 21.7443818,29.8545847 L12.2022223,21.9565207 L20.8079655,9.73988364 C21.7612668,10.1319064 23.5116829,10.7480425 25.4042147,10.9075213 C26.7634606,11.0178216 28.2296451,10.4628073 29.7795512,9.87126043 C31.6207244,9.16730562 33.7053236,8.36710149 35.9629944,8.56100521 C37.6036577,8.6994075 39.1437142,9.215079 40.5613542,10.0848355 C38.7229953,11.5503543 37.4045549,13.2954878 36.5715595,14.6155787 C36.119181,15.332882 32.1779308,21.7218691 33.2149538,24.9472749 C33.4618975,25.7137566 33.9691523,26.2722836 34.6825454,26.5631392 C35.2052781,26.7767143 35.7392676,26.8842044 36.2697393,26.8842044 C38.7638008,26.8842044 40.6521113,24.5896771 42.4763994,22.371025 C43.8124284,20.7460275 45.19067,19.0718516 46.5351415,18.7128487 L55.1296279,27.2966011 L56.0400131,28.2049979 L60.792449,32.9514238 L60.793856,32.9514238 L63.1655009,35.3197189 L63.1655009,35.3197189 Z" id="Path" fill="#FFFFFF"></path>
                <path d="M56.4677675,25.9603516 C56.4663604,25.959649 47.5313589,17.0372676 47.5313589,17.0372676 C47.3533625,16.8595225 47.1113435,16.760463 46.8629927,16.760463 C44.5173789,16.9143214 42.7367105,19.0788771 41.0144362,21.1724752 C39.4680477,23.0517957 37.8688935,24.9950482 36.2690358,24.9950482 C35.9812865,24.9950482 35.6963514,24.9360341 35.396642,24.8137904 C35.2545262,24.7554788 35.1095962,24.6613371 35.016025,24.3690764 C34.498217,22.7588325 36.256372,18.6601574 38.1728243,15.6216299 C39.7114738,13.1830798 43.1053673,9.0907277 48.5514969,9.0907277 C50.8154996,9.0907277 52.8262268,10.0616514 54.6026739,10.9180595 C56.0970001,11.638173 57.5083082,12.3189437 58.8745896,12.3189437 C60.7741568,12.3189437 62.5703032,11.8524506 63.5524498,11.5426262 L71.0958424,24.4407365 L61.570568,31.0566472 L56.4677675,25.9603516 Z" id="Path" fill="#FFFFFF"></path>
                <path d="M32.8814742,43.6470407 C32.3263784,43.6470407 31.8043492,43.4306554 31.4110684,43.0400378 C30.60129,42.2321056 30.60129,40.9169325 31.4089578,40.1054876 L34.789484,36.7290337 C34.7915946,36.7262235 34.7937052,36.7234133 34.7958159,36.7220082 L35.4655892,36.0524783 C35.8581664,35.6604555 36.3801957,35.4454753 36.9366985,35.4454753 C37.4910907,35.4454753 38.0138235,35.6618606 38.4071043,36.0538834 C38.7996815,36.4459061 39.0156693,36.9679006 39.0156693,37.5222123 C39.0156693,38.076524 38.798978,38.5978159 38.4064007,38.9905412 L34.3525835,43.0400378 C33.9593027,43.4306554 33.4372735,43.6470407 32.8814742,43.6470407 L32.8814742,43.6470407 Z" id="Path" fill="#FFFFFF"></path>
                <path d="M30.0715218,38.7685355 L29.3982307,39.4422807 C29.0049499,39.8343034 28.4829207,40.0492836 27.927825,40.0492836 C27.3720256,40.0492836 26.8499964,39.8328983 26.4567157,39.4422807 C26.0634349,39.0488528 25.847447,38.5275609 25.847447,37.9732492 C25.847447,37.4182349 26.0641384,36.896943 26.4567157,36.5042177 L30.5105329,32.4554237 C30.9038136,32.063401 31.4258429,31.8477182 31.9816422,31.8477182 C32.5367379,31.8477182 33.0594707,32.0641035 33.4527515,32.4561263 C33.8453287,32.848149 34.0613165,33.3701434 34.0613165,33.9244552 C34.0613165,34.4780644 33.8453287,34.9972486 33.4548621,35.3899739 L30.0743359,38.7671304 C30.0736324,38.7671304 30.0729289,38.7685355 30.0715218,38.7685355 L30.0715218,38.7685355 Z" id="Path" fill="#FFFFFF"></path>
                <path d="M24.7274059,35.5578833 C24.3348287,35.9513111 23.8120959,36.1662913 23.2570002,36.1662913 C22.7012009,36.1662913 22.1798752,35.9506086 21.7858909,35.5578833 C21.3933136,35.1658605 21.1773258,34.6445686 21.1773258,34.0888518 C21.1773258,33.5345401 21.3940172,33.0139507 21.7858909,32.6205229 L23.5883691,30.8212931 C23.9816499,30.4285678 24.5036791,30.212885 25.0587749,30.212885 C25.6152777,30.212885 26.1373069,30.4292703 26.5298842,30.8212931 C26.9231649,31.2140184 27.1384492,31.7346077 27.1384492,32.289622 C27.1384492,32.8439337 26.9217579,33.3652256 26.5298842,33.7579509 L24.7274059,35.5578833 L24.7274059,35.5578833 Z" id="Path" fill="#FFFFFF"></path>
                <use id="Rectangle" stroke="#5C5C5C" mask="url(#mask-6)" stroke-width="4" fill="#42D3AA" transform="translate(10.787957, 12.039121) rotate(34.000000) translate(-10.787957, -12.039121) " xlink:href="#path-5"></use>
            </g>
            <g id="Group-3" transform="translate(72.000000, 86.000000)">
                <circle id="Oval" fill="#4A4A4A" cx="12.5" cy="12.5" r="12.5"></circle>
                <rect id="Rectangle-2" fill="#FFFFFF" x="6.25" y="9.375" width="12.5" height="10.4166667"></rect>
                <path d="M17.8571429,9.375 L7.14285714,9.375 C7.14285714,6.49851693 9.5413317,4.16666667 12.5,4.16666667 C15.4586683,4.16666667 17.8571429,6.49851693 17.8571429,9.375 Z M16.0714286,9.375 L8.92857143,9.375 C8.92857143,7.45734462 10.5275545,5.90277778 12.5,5.90277778 C14.4724455,5.90277778 16.0714286,7.45734462 16.0714286,9.375 Z" id="Combined-Shape" fill="#FFFFFF"></path>
            </g>
        </g>
    </g>
</svg>