<?xml version="1.0" encoding="UTF-8" standalone="no"?>
<svg width="170px" height="180px" viewBox="0 0 170 180" version="1.1" xmlns="http://www.w3.org/2000/svg" xmlns:xlink="http://www.w3.org/1999/xlink">
    <!-- Generator: Sketch 40.3 (33839) - http://www.bohemiancoding.com/sketch -->
    <title>request copy</title>
    <desc>Created with Sketch.</desc>
    <defs>
        <rect id="path-1" x="4" y="3" width="160.072242" height="174.377657" rx="5"></rect>
        <mask id="mask-2" maskContentUnits="userSpaceOnUse" maskUnits="objectBoundingBox" x="0" y="0" width="160.072242" height="174.377657" fill="white">
            <use xlink:href="#path-1"></use>
        </mask>
        <mask id="mask-4" maskContentUnits="userSpaceOnUse" maskUnits="objectBoundingBox" x="0" y="0" width="160.072242" height="174.377657" fill="white">
            <use xlink:href="#path-1"></use>
        </mask>
        <rect id="path-5" x="4" y="3" width="160.072242" height="174.377657" rx="5"></rect>
        <mask id="mask-6" maskContentUnits="userSpaceOnUse" maskUnits="objectBoundingBox" x="0" y="0" width="160.072242" height="174.377657" fill="white">
            <use xlink:href="#path-5"></use>
        </mask>
    </defs>
    <g id="Page-1" stroke="none" stroke-width="1" fill="none" fill-rule="evenodd">
        <g id="request-copy">
            <mask id="mask-3" fill="white">
                <use xlink:href="#path-1"></use>
            </mask>
            <g id="Mask" stroke="#4A4A4A" mask="url(#mask-2)" stroke-width="2" fill="#F9F9F9">
                <use mask="url(#mask-4)" xlink:href="#path-1"></use>
            </g>
            <rect id="Rectangle-3" fill="#D8D8D8" mask="url(#mask-3)" x="5" y="4" width="158" height="43"></rect>
            <g id="Mask" mask="url(#mask-3)" stroke-width="2" stroke="#9D9D9D">
                <use mask="url(#mask-6)" xlink:href="#path-5"></use>
            </g>
            <g id="proposition" mask="url(#mask-3)">
                <g transform="translate(24.000000, 62.000000)">
                    <rect id="Rectangle-2" fill="#BCBCBC" x="48.3594902" y="0.988997201" width="80.6101455" height="5.5"></rect>
                    <rect id="Rectangle-2-Copy-2" fill="#BCBCBC" x="49.3594902" y="40.9009581" width="69.6799563" height="5.5"></rect>
                    <rect id="Rectangle-2-Copy-4" fill="#BCBCBC" x="49.3594902" y="52.2049451" width="52.6015357" height="5.5"></rect>
                    <rect id="Rectangle-2-Copy-3" fill="#BCBCBC" x="49.3594902" y="81.9313174" width="52.6015357" height="5.5"></rect>
                    <rect id="Rectangle-2-Copy-5" fill="#BCBCBC" x="49.3594902" y="92.2353044" width="52.6015357" height="5.5"></rect>
                    <rect id="Rectangle-2-Copy" fill="#BCBCBC" x="48.3594902" y="12.2929842" width="61.4823144" height="5.5"></rect>
                    <g id="Group" stroke-width="1" fill="none" transform="translate(0.000000, 37.000000)">
                        <path d="M19.92,2.16 L19.92,0.48 C19.92,0.34752 19.81248,0.24 19.68,0.24 C19.54752,0.24 19.44,0.34752 19.44,0.48 L19.44,2.16 L4.56,2.16 L4.56,0.48 C4.56,0.34752 4.45248,0.24 4.32,0.24 C4.18752,0.24 4.08,0.34752 4.08,0.48 L4.08,2.16 L1.68,2.16 C0.88608,2.16 0.24,2.80608 0.24,3.6 L0.24,22.32 C0.24,23.11392 0.88608,23.76 1.68,23.76 L22.32,23.76 C23.11392,23.76 23.76,23.11392 23.76,22.32 L23.76,3.6 C23.76,2.80608 23.11392,2.16 22.32,2.16 L19.92,2.16 Z" id="Shape" stroke="#4A4A4A" fill="#4A4A4A"></path>
                        <path d="M22.32,23.28 L1.68,23.28 C1.15056,23.28 0.72,22.84944 0.72,22.32 L0.72,7.44 L23.28,7.44 L23.28,22.32 C23.28,22.84944 22.84944,23.28 22.32,23.28 L22.32,23.28 Z" id="Path" fill="#E8E8E8"></path>
                        <path d="M3.59366013,2.64 L3.59366013,4.32 C3.59366013,4.45248 3.9830051,4.8 4.35665458,4.8 C4.73030406,4.8 5.16183036,4.56 5.16183036,4.32 L5.16183036,2.64 L18.9522879,2.64 L18.9522879,4.19559152 C18.9522879,4.32807152 19.0832171,4.8 19.7070312,4.8 C20.3308454,4.8 20.4783761,4.32807152 20.4783761,4.19559152 L20.4783761,2.64 L22.32,2.64 C22.84944,2.64 23.28,3.07056 23.28,3.6 L23.28,6.96 L0.72,6.96 L0.72,3.6 C0.72,3.07056 1.15056,2.64 1.68,2.64 L3.59366013,2.64 Z" id="Path" fill="#EE5F5B"></path>
                    </g>
                </g>
            </g>
            <g id="Group-Copy" mask="url(#mask-3)">
                <g transform="translate(82.826790, 25.903761) scale(-1, -1) rotate(131.000000) translate(-82.826790, -25.903761) translate(74.326790, 2.903761)">
                    <path d="M16.8717126,8.63698079 C16.8717126,3.95629443 13.0673069,0.111444913 8.43585632,0.111444913 C7.33313001,0.111444913 6.28554001,0.33433474 5.23795001,0.724391937 C5.01740474,0.83583685 4.85199579,1.00300422 4.79685948,1.22589405 C4.74172316,1.44878387 4.79685948,1.6716737 4.90713211,1.83884107 L7.77422053,5.51652321 L5.84444948,6.96530709 L2.97736106,3.3433474 C2.86708842,3.17618003 2.64654316,3.06473512 2.4259979,3.06473512 L2.4259979,3.06473512 C2.20545263,3.06473512 1.98490737,3.17618003 1.87463474,3.3433474 C0.66163579,4.84785373 3.90798505e-14,6.6866948 3.90798505e-14,8.63698079 C3.90798505e-14,12.0360506 2.04004369,15.1565082 5.12767737,16.4938472 L3.91467842,43.2406264 C3.91467842,45.1909124 6.28554001,45.8595819 8.54612896,45.8595819 L8.65640159,45.8595819 C10.3104911,45.8595819 13.7289426,45.1909124 13.7289426,42.9620141 L12.1299895,16.3266798 C14.9970779,14.8778959 16.8717126,11.9246057 16.8717126,8.63698079 L16.8717126,8.63698079 Z" id="Path" stroke="none" fill="#4A4A4A"></path>
                    <path d="M11.0823995,15.1565082 C10.8067179,15.2679531 10.641309,15.5465654 10.641309,15.8809002 L12.2953984,42.9620141 C12.2953984,43.686406 10.2553547,44.3550755 8.65640159,44.3550755 L8.54612896,44.3550755 C6.9471758,44.3550755 5.34822264,43.9092959 5.34822264,43.1849039 L6.56122159,15.9923451 C6.56122159,15.6580103 6.39581264,15.379398 6.06499474,15.2679531 C3.25304263,14.2649489 1.3784079,11.590271 1.3784079,8.58125833 C1.3784079,7.24391937 1.70922579,6.01802532 2.4259979,4.90357619 L5.23795001,8.41409096 C5.45849527,8.69270324 5.8995858,8.7484257 6.23040369,8.52553587 L9.26290106,6.18519269 C9.42831001,6.07374778 9.53858264,5.90658041 9.53858264,5.68369058 C9.53858264,5.46080076 9.48344632,5.29363339 9.37317369,5.12646602 L6.67149422,1.6716737 C7.22285738,1.50450633 7.82935685,1.44878387 8.43585632,1.44878387 C12.2953984,1.44878387 15.4381684,4.62496391 15.4381684,8.52553587 C15.4381684,11.5345485 13.7289426,14.0977815 11.0823995,15.1565082 L11.0823995,15.1565082 Z" id="Shape" stroke="none" fill="#E8E8E8"></path>
                    <rect id="Rectangle-path" stroke="#4A4A4A" stroke-width="1" fill="#42D3AA" transform="translate(9.942214, 10.253857) rotate(-38.381524) translate(-9.942214, -10.253857) " x="6.74428162" y="8.35927832" width="6.39586387" height="3.78915741"></rect>
                    <path d="M6.12013106,40.6773934 C6.12013106,42.1818997 7.33313001,43.4077938 8.82181053,43.4077938 C10.3104911,43.4077938 11.52349,42.1818997 11.52349,40.6773934 C11.52349,39.1728871 10.3104911,37.946993 8.82181053,37.946993 C7.33313001,37.946993 6.12013106,39.1728871 6.12013106,40.6773934 L6.12013106,40.6773934 Z" id="Path" stroke="none" fill="#4A4A4A"></path>
                    <path d="M10.641309,40.6773934 C10.641309,41.6803976 9.86940054,42.460512 8.87694685,42.460512 C7.88449317,42.460512 7.11258474,41.6803976 7.11258474,40.6773934 C7.11258474,39.6743892 7.88449317,38.8942748 8.87694685,38.8942748 C9.86940054,38.8942748 10.641309,39.6743892 10.641309,40.6773934 L10.641309,40.6773934 Z" id="Shape" stroke="none" fill="#42D3AA"></path>
                </g>
            </g>
            <path d="M4.5,47.5 L163.5,47.5" id="Line" stroke="#9D9D9D" stroke-linecap="square" mask="url(#mask-3)"></path>
            <g id="Target" mask="url(#mask-3)">
                <g transform="translate(23.000000, 58.000000)">
                    <path d="M26,12.2488889 L23.5444444,12.2488889 C23.1688889,7.02 18.98,2.83111111 13.7511111,2.45555556 L13.7511111,0 L12.2488889,0 L12.2488889,2.45555556 C7.02,2.83111111 2.83111111,7.02 2.45555556,12.2488889 L0,12.2488889 L0,13.7511111 L2.45555556,13.7511111 C2.83111111,18.98 7.02,23.1688889 12.2488889,23.5444444 L12.2488889,26 L13.7511111,26 L13.7511111,23.5444444 C18.98,23.1688889 23.1688889,18.98 23.5444444,13.7511111 L26,13.7511111 L26,12.2488889 L26,12.2488889 Z" id="Shape" stroke="none" fill="#4A4A4A"></path>
                    <path d="M13.7511111,22.0422222 L13.7511111,19.9622222 L12.2488889,19.9622222 L12.2488889,22.0422222 C7.82888889,21.6666667 4.33333333,18.1711111 3.95777778,13.7511111 L6.03777778,13.7511111 L6.03777778,12.2488889 L3.95777778,12.2488889 C4.33333333,7.82888889 7.82888889,4.33333333 12.2488889,3.95777778 L12.2488889,6.03777778 L13.7511111,6.03777778 L13.7511111,3.95777778 C18.1711111,4.33333333 21.6666667,7.82888889 22.0422222,12.2488889 L19.9622222,12.2488889 L19.9622222,13.7511111 L22.0422222,13.7511111 C21.6666667,18.1711111 18.1711111,21.6666667 13.7511111,22.0422222 L13.7511111,22.0422222 Z" id="Path" stroke="none" fill="#F9F9F9"></path>
                    <path d="M8.66666667,13 C8.66666667,15.3977778 10.6022222,17.3333333 13,17.3333333 C15.3977778,17.3333333 17.3333333,15.3977778 17.3333333,13 C17.3333333,10.6022222 15.3977778,8.66666667 13,8.66666667 C10.6022222,8.66666667 8.66666667,10.6022222 8.66666667,13 Z" id="Shape" stroke="#4A4A4A" stroke-width="1" fill="#FFC938"></path>
                </g>
            </g>
            <g id="Amount" mask="url(#mask-3)">
                <g transform="translate(21.000000, 141.000000)">
                    <g id="Group" transform="translate(19.534224, 11.229167) rotate(-360.000000) translate(-19.534224, -11.229167) translate(6.034224, 3.229167)">
                        <path d="M25.8224763,0.0606307756 L0.481062499,0.0606307756 C0.319734127,0.0606307756 0.188800956,0.191851005 0.188800956,0.353533073 L0.188800956,15.463191 C0.188800956,15.6248731 0.319734127,15.7560933 0.481062499,15.7560933 L25.8221841,15.7560933 C25.9835124,15.7560933 26.1144456,15.6248731 26.1144456,15.463191 L26.1144456,0.353533073 C26.1147379,0.191851005 25.9838047,0.0606307756 25.8224763,0.0606307756 L25.8224763,0.0606307756 Z" id="Shape" fill="#4A4A4A"></path>
                        <polygon id="Path" fill="#E8E8E8" points="0.773324041 15.1702887 0.773324041 0.646435371 25.5299225 0.646435371 25.5299225 15.1702887"></polygon>
                        <path d="M1.9257113,11.6185554 C3.24381086,11.6191412 4.31670298,12.6943856 4.3172875,14.0153749 C4.3172875,14.177057 4.44822068,14.3082772 4.60954905,14.3082772 L21.6916517,14.3082772 C21.85298,14.3082772 21.9839132,14.177057 21.9839132,14.0153749 C21.9839132,12.6940927 23.0588512,11.6194341 24.3804579,11.6194341 C24.5417862,11.6194341 24.6727194,11.4882139 24.6727194,11.3265318 L24.6727194,4.49282834 C24.6727194,4.33114627 24.5417862,4.19992605 24.3804579,4.19992605 C23.0611893,4.19992605 21.9856668,3.1235101 21.9830364,1.80076333 C21.9827442,1.63937416 21.8521033,1.50844683 21.6907749,1.50844683 L4.60954905,1.50844683 C4.53209974,1.50844683 4.45757304,1.53920157 4.40292014,1.59426721 C4.34826723,1.64933284 4.3172875,1.72373002 4.3172875,1.80134913 C4.31757977,3.1232172 3.24468764,4.19934024 1.9257113,4.19992605 C1.76438293,4.19992605 1.63344976,4.33114627 1.63344976,4.49282834 L1.63344976,11.325946 C1.63374202,11.4876281 1.76438293,11.6185554 1.9257113,11.6185554 L1.9257113,11.6185554 Z" id="Shape" fill="#4A4A4A"></path>
                        <path d="M2.21826511,4.77137843 C3.62638122,4.63254274 4.75012685,3.5057476 4.88778204,2.09425143 L21.4134187,2.09425143 C21.5537042,3.5063334 22.6794957,4.63312854 24.0881963,4.77137843 L24.0881963,11.0476889 C22.6774499,11.1856458 21.5519507,12.3112694 21.413711,13.7224726 L4.88748977,13.7224726 C4.7489578,12.3118552 3.6257967,11.1859387 2.21826511,11.047396 L2.21826511,4.77137843 L2.21826511,4.77137843 Z" id="Path" fill="#F9F9F9"></path>
                        <path d="M13.1517694,11.8180219 C15.3028144,11.8180219 17.0528765,10.0641229 17.0528765,7.90836204 C17.0528765,5.75260112 15.3028144,3.99870217 13.1517694,3.99870217 C11.0007245,3.99870217 9.25066234,5.75260112 9.25066234,7.90836204 C9.25066234,10.0641229 11.0007245,11.8180219 13.1517694,11.8180219 L13.1517694,11.8180219 Z" id="Shape" fill="#4A4A4A"></path>
                        <path d="M13.1517694,4.58450676 C14.9804499,4.58450676 16.4683534,6.07537946 16.4683534,7.90836204 C16.4683534,9.74134461 14.9804499,11.2322173 13.1517694,11.2322173 C11.3230889,11.2322173 9.83518543,9.74105171 9.83518543,7.90836204 C9.83518543,6.07567236 11.3230889,4.58450676 13.1517694,4.58450676 L13.1517694,4.58450676 Z" id="Path" fill="#42D3AA"></path>
                    </g>
                    <g id="Group-Copy" transform="translate(13.500000, 8.000000) rotate(-360.000000) translate(-13.500000, -8.000000) ">
                        <path d="M25.8224763,0.0606307756 L0.481062499,0.0606307756 C0.319734127,0.0606307756 0.188800956,0.191851005 0.188800956,0.353533073 L0.188800956,15.463191 C0.188800956,15.6248731 0.319734127,15.7560933 0.481062499,15.7560933 L25.8221841,15.7560933 C25.9835124,15.7560933 26.1144456,15.6248731 26.1144456,15.463191 L26.1144456,0.353533073 C26.1147379,0.191851005 25.9838047,0.0606307756 25.8224763,0.0606307756 L25.8224763,0.0606307756 Z" id="Shape" fill="#4A4A4A"></path>
                        <polygon id="Path" fill="#E8E8E8" points="0.773324041 15.1702887 0.773324041 0.646435371 25.5299225 0.646435371 25.5299225 15.1702887"></polygon>
                        <path d="M1.9257113,11.6185554 C3.24381086,11.6191412 4.31670298,12.6943856 4.3172875,14.0153749 C4.3172875,14.177057 4.44822068,14.3082772 4.60954905,14.3082772 L21.6916517,14.3082772 C21.85298,14.3082772 21.9839132,14.177057 21.9839132,14.0153749 C21.9839132,12.6940927 23.0588512,11.6194341 24.3804579,11.6194341 C24.5417862,11.6194341 24.6727194,11.4882139 24.6727194,11.3265318 L24.6727194,4.49282834 C24.6727194,4.33114627 24.5417862,4.19992605 24.3804579,4.19992605 C23.0611893,4.19992605 21.9856668,3.1235101 21.9830364,1.80076333 C21.9827442,1.63937416 21.8521033,1.50844683 21.6907749,1.50844683 L4.60954905,1.50844683 C4.53209974,1.50844683 4.45757304,1.53920157 4.40292014,1.59426721 C4.34826723,1.64933284 4.3172875,1.72373002 4.3172875,1.80134913 C4.31757977,3.1232172 3.24468764,4.19934024 1.9257113,4.19992605 C1.76438293,4.19992605 1.63344976,4.33114627 1.63344976,4.49282834 L1.63344976,11.325946 C1.63374202,11.4876281 1.76438293,11.6185554 1.9257113,11.6185554 L1.9257113,11.6185554 Z" id="Shape" fill="#4A4A4A"></path>
                        <path d="M2.21826511,4.77137843 C3.62638122,4.63254274 4.75012685,3.5057476 4.88778204,2.09425143 L21.4134187,2.09425143 C21.5537042,3.5063334 22.6794957,4.63312854 24.0881963,4.77137843 L24.0881963,11.0476889 C22.6774499,11.1856458 21.5519507,12.3112694 21.413711,13.7224726 L4.88748977,13.7224726 C4.7489578,12.3118552 3.6257967,11.1859387 2.21826511,11.047396 L2.21826511,4.77137843 L2.21826511,4.77137843 Z" id="Path" fill="#F9F9F9"></path>
                        <path d="M13.1517694,11.8180219 C15.3028144,11.8180219 17.0528765,10.0641229 17.0528765,7.90836204 C17.0528765,5.75260112 15.3028144,3.99870217 13.1517694,3.99870217 C11.0007245,3.99870217 9.25066234,5.75260112 9.25066234,7.90836204 C9.25066234,10.0641229 11.0007245,11.8180219 13.1517694,11.8180219 L13.1517694,11.8180219 Z" id="Shape" fill="#4A4A4A"></path>
                        <path d="M16.4683534,7.90836204 C16.4683534,9.74134461 14.9804499,11.2322173 13.1517694,11.2322173 C11.3230889,11.2322173 9.83518543,9.74105171 9.83518543,7.90836204 C9.83518543,6.07567236 11.3230889,4.58450676 13.1517694,4.58450676 C14.9804499,4.58450676 16.4683534,6.07537946 16.4683534,7.90836204 Z" id="Path" fill="#42D3AA"></path>
                    </g>
                </g>
            </g>
        </g>
    </g>
</svg>