<?xml version="1.0" encoding="UTF-8" standalone="no"?>
<svg width="170px" height="180px" viewBox="0 0 170 180" version="1.1" xmlns="http://www.w3.org/2000/svg" xmlns:xlink="http://www.w3.org/1999/xlink">
    <!-- Generator: Sketch 40.3 (33839) - http://www.bohemiancoding.com/sketch -->
    <title>request</title>
    <desc>Created with Sketch.</desc>
    <defs>
        <rect id="path-1" x="4" y="3" width="160.072242" height="174.377657" rx="5"></rect>
        <mask id="mask-2" maskContentUnits="userSpaceOnUse" maskUnits="objectBoundingBox" x="0" y="0" width="160.072242" height="174.377657" fill="white">
            <use xlink:href="#path-1"></use>
        </mask>
        <mask id="mask-4" maskContentUnits="userSpaceOnUse" maskUnits="objectBoundingBox" x="0" y="0" width="160.072242" height="174.377657" fill="white">
            <use xlink:href="#path-1"></use>
        </mask>
        <rect id="path-5" x="4" y="3" width="160.072242" height="174.377657" rx="5"></rect>
        <mask id="mask-6" maskContentUnits="userSpaceOnUse" maskUnits="objectBoundingBox" x="0" y="0" width="160.072242" height="174.377657" fill="white">
            <use xlink:href="#path-5"></use>
        </mask>
    </defs>
    <g id="Page-1" stroke="none" stroke-width="1" fill="none" fill-rule="evenodd">
        <g id="request">
            <mask id="mask-3" fill="white">
                <use xlink:href="#path-1"></use>
            </mask>
            <g id="Mask" stroke="#4A4A4A" mask="url(#mask-2)" stroke-width="2" fill="#F9F9F9">
                <use mask="url(#mask-4)" xlink:href="#path-1"></use>
            </g>
            <rect id="Rectangle-3" fill="#D8D8D8" mask="url(#mask-3)" x="5" y="4" width="158" height="43"></rect>
            <g id="Mask" mask="url(#mask-3)" stroke-width="2" stroke="#4A4A4A">
                <use mask="url(#mask-6)" xlink:href="#path-5"></use>
            </g>
            <g id="proposition" mask="url(#mask-3)">
                <g transform="translate(22.000000, 57.000000)">
                    <rect id="Rectangle-2" fill="#BCBCBC" x="50.3594902" y="5.9889972" width="80.6101455" height="5.5"></rect>
                    <rect id="Rectangle-2-Copy-2" fill="#BCBCBC" x="51.3594902" y="45.9009581" width="69.6799563" height="5.5"></rect>
                    <rect id="Rectangle-2-Copy-4" fill="#BCBCBC" x="51.3594902" y="57.2049451" width="52.6015357" height="5.5"></rect>
                    <rect id="Rectangle-2-Copy-3" fill="#BCBCBC" x="51.3594902" y="86.9313174" width="52.6015357" height="5.5"></rect>
                    <rect id="Rectangle-2-Copy-5" fill="#BCBCBC" x="51.3594902" y="97.2353044" width="52.6015357" height="5.5"></rect>
                    <rect id="Rectangle-2-Copy" fill="#BCBCBC" x="50.3594902" y="17.2929842" width="61.4823144" height="5.5"></rect>
                    <g id="target" stroke-width="1" fill="none">
                        <g id="Group">
                            <g id="Rectangle-path" fill="#4A4A4A">
                                <rect x="13.1911111" y="0" width="1.61777778" height="6.50222222"></rect>
                                <rect x="21.4977778" y="13.1911111" width="6.50222222" height="1.61777778"></rect>
                                <rect x="0" y="13.1911111" width="6.50222222" height="1.61777778"></rect>
                                <rect x="13.1911111" y="21.4977778" width="1.61777778" height="6.50222222"></rect>
                            </g>
                            <path d="M14,9.33333333 C11.4177778,9.33333333 9.33333333,11.4177778 9.33333333,14 C9.33333333,16.5822222 11.4177778,18.6666667 14,18.6666667 C16.5822222,18.6666667 18.6666667,16.5822222 18.6666667,14 C18.6666667,11.4177778 16.5822222,9.33333333 14,9.33333333 L14,9.33333333 L14,9.33333333 Z" id="Shape" stroke="#4A4A4A" fill="#42D3AA"></path>
                        </g>
                    </g>
                    <g id="amount" stroke-width="1" fill="none" transform="translate(1.000000, 80.000000)">
                        <g id="Group" fill="#4A4A4A">
                            <path d="M23.5664722,13.0494545 C23.4137222,12.7189091 23.4859444,11.004 23.6491667,9.60945455 L23.6527778,9.54545455 C23.6527778,8.04145455 22.438,6.81818182 20.9444444,6.81818182 L4.96527778,6.81818182 C3.47172222,6.81818182 2.25694444,8.04145455 2.25694444,9.54545455 L2.26055556,9.60945455 C2.42377778,11.004 2.496,12.7189091 2.35625,13.0276364 C2.13163889,13.3476364 1.91244444,13.6378182 1.70516667,13.9127273 C0.790111111,15.1243636 0,16.1709091 0,18.1592727 C0,21.7029091 1.67880556,23.8181818 4.4915,23.8181818 C4.55758333,23.8181818 4.62222222,23.8141818 4.68722222,23.8098182 L4.72694444,23.8072727 C4.80566667,23.8145455 4.88511111,23.8181818 4.96563889,23.8181818 L20.9444444,23.8181818 C21.0253333,23.8181818 21.1044167,23.8141818 21.1831389,23.8072727 L21.2225,23.8098182 C21.2875,23.8145455 21.3521389,23.8181818 21.4182222,23.8181818 C24.2305556,23.8181818 25.9097222,21.7029091 25.9097222,18.1592727 C25.9097222,16.1709091 25.1196111,15.1243636 24.2045556,13.9127273 C23.9969167,13.6378182 23.7780833,13.3476364 23.5664722,13.0494545 L23.5664722,13.0494545 Z M21.4182222,22.7272727 C21.3770556,22.7272727 21.3358889,22.724 21.2954444,22.7210909 L21.1585833,22.7134545 L21.1181389,22.7178182 C21.0610833,22.7236364 21.0033056,22.7272727 20.9444444,22.7272727 L4.96527778,22.7272727 C4.90641667,22.7272727 4.84863889,22.7236364 4.79158333,22.7178182 L4.75113889,22.7134545 L4.61391667,22.7210909 C4.57347222,22.724 4.53266667,22.7272727 4.4915,22.7272727 C1.52605556,22.7272727 1.08333333,19.8650909 1.08333333,18.1592727 C1.08333333,16.5385455 1.67375,15.7567273 2.5675,14.5734545 C2.78236111,14.2890909 3.00877778,13.9890909 3.24097222,13.6574545 C3.65227778,13.0716364 3.52336111,11.0898182 3.34027778,9.516 C3.35616667,8.62727273 4.07875,7.90945455 4.96527778,7.90945455 L20.9444444,7.90945455 C21.8306111,7.90945455 22.5535556,8.62763636 22.5690833,9.516 C22.3863611,11.0898182 22.2578056,13.0716364 22.66875,13.6574545 C22.9009444,13.9887273 23.1277222,14.2887273 23.3422222,14.5734545 C24.2359722,15.7567273 24.8260278,16.5385455 24.8260278,18.1592727 C24.8263889,19.8650909 24.3833056,22.7272727 21.4182222,22.7272727 L21.4182222,22.7272727 Z" id="Shape"></path>
                            <path d="M20.8541667,4.54545455 L15.16125,4.54545455 C15.5306667,4.068 15.7534722,3.46945455 15.7534722,2.81818182 C15.7534722,1.26436364 14.4978889,0 12.9548611,0 C11.4118333,0 10.15625,1.26436364 10.15625,2.81818182 C10.15625,3.46945455 10.3786944,4.068 10.7484722,4.54545455 L5.05555556,4.54545455 C2.26777778,4.54545455 0,6.82909091 0,9.63636364 C0,9.93781818 0.242305556,10.1818182 0.541666667,10.1818182 C0.841027778,10.1818182 1.08333333,9.93781818 1.08333333,9.63636364 C1.08333333,7.43090909 2.86541667,5.63636364 5.05555556,5.63636364 L20.8541667,5.63636364 C23.0443056,5.63636364 24.8263889,7.43090909 24.8263889,9.63636364 C24.8263889,9.93781818 25.0690556,10.1818182 25.3680556,10.1818182 C25.6670556,10.1818182 25.9097222,9.93781818 25.9097222,9.63636364 C25.9097222,6.82909091 23.6419444,4.54545455 20.8541667,4.54545455 L20.8541667,4.54545455 Z M11.2395833,2.81818182 C11.2395833,1.86581818 12.0091111,1.09090909 12.9548611,1.09090909 C13.9006111,1.09090909 14.6701389,1.86581818 14.6701389,2.81818182 C14.6701389,3.77054545 13.9006111,4.54545455 12.9548611,4.54545455 C12.0091111,4.54545455 11.2395833,3.77054545 11.2395833,2.81818182 L11.2395833,2.81818182 Z" id="Shape"></path>
                        </g>
                        <path d="M21.4182222,22.8178182 C21.3770556,22.8178182 21.3358889,22.8145455 21.2954444,22.8116364 L21.1585833,22.804 L21.1181389,22.8083636 C21.0610833,22.8141818 21.0033056,22.8178182 20.9444444,22.8178182 L4.96527778,22.8178182 C4.90641667,22.8178182 4.84863889,22.8141818 4.79158333,22.8083636 L4.75113889,22.804 L4.61391667,22.8116364 C4.57347222,22.8145455 4.53266667,22.8178182 4.4915,22.8178182 C1.52605556,22.8178182 1.08333333,19.9556364 1.08333333,18.2498182 C1.08333333,16.6290909 1.67375,15.8472727 2.5675,14.664 C2.78236111,14.3796364 3.00877778,14.0796364 3.24097222,13.748 C3.65227778,13.1621818 3.52336111,11.1803636 3.34027778,9.60654545 C3.35616667,8.71781818 4.07875,8 4.96527778,8 L20.9444444,8 C21.8306111,8 22.5535556,8.71818182 22.5690833,9.60654545 C22.3863611,11.1803636 22.2578056,13.1621818 22.66875,13.748 C22.9009444,14.0792727 23.1277222,14.3792727 23.3422222,14.664 C24.2359722,15.8472727 24.8260278,16.6290909 24.8260278,18.2498182 C24.8263889,19.9556364 24.3833056,22.8178182 21.4182222,22.8178182 L21.4182222,22.8178182 Z" id="Path" fill="#E8E8E8"></path>
                        <path d="M12.9097222,1.09090909 C13.8554722,1.09090909 14.625,1.86581818 14.625,2.81818182 C14.625,3.77054545 13.8554722,4.54545455 12.9097222,4.54545455 C11.9639722,4.54545455 11.1944444,3.77054545 11.1944444,2.81818182 C11.1944444,1.86581818 11.9639722,1.09090909 12.9097222,1.09090909 Z" id="Path" fill="#42D3AA"></path>
                    </g>
                    <g id="Group" stroke-width="1" fill="none" transform="translate(2.000000, 42.000000)">
                        <path d="M19.92,2.16 L19.92,0.48 C19.92,0.34752 19.81248,0.24 19.68,0.24 C19.54752,0.24 19.44,0.34752 19.44,0.48 L19.44,2.16 L4.56,2.16 L4.56,0.48 C4.56,0.34752 4.45248,0.24 4.32,0.24 C4.18752,0.24 4.08,0.34752 4.08,0.48 L4.08,2.16 L1.68,2.16 C0.88608,2.16 0.24,2.80608 0.24,3.6 L0.24,22.32 C0.24,23.11392 0.88608,23.76 1.68,23.76 L22.32,23.76 C23.11392,23.76 23.76,23.11392 23.76,22.32 L23.76,3.6 C23.76,2.80608 23.11392,2.16 22.32,2.16 L19.92,2.16 Z" id="Shape" stroke="#4A4A4A" fill="#4A4A4A"></path>
                        <path d="M22.32,23.28 L1.68,23.28 C1.15056,23.28 0.72,22.84944 0.72,22.32 L0.72,7.44 L23.28,7.44 L23.28,22.32 C23.28,22.84944 22.84944,23.28 22.32,23.28 L22.32,23.28 Z" id="Path" fill="#E8E8E8"></path>
                        <path d="M3.59366013,2.64 L3.59366013,4.32 C3.59366013,4.45248 3.9830051,4.8 4.35665458,4.8 C4.73030406,4.8 5.16183036,4.56 5.16183036,4.32 L5.16183036,2.64 L18.9522879,2.64 L18.9522879,4.19559152 C18.9522879,4.32807152 19.0832171,4.8 19.7070312,4.8 C20.3308454,4.8 20.4783761,4.32807152 20.4783761,4.19559152 L20.4783761,2.64 L22.32,2.64 C22.84944,2.64 23.28,3.07056 23.28,3.6 L23.28,6.96 L0.72,6.96 L0.72,3.6 C0.72,3.07056 1.15056,2.64 1.68,2.64 L3.59366013,2.64 Z" id="Path" fill="#42D3AA"></path>
                    </g>
                </g>
            </g>
            <g id="Group-Copy" mask="url(#mask-3)">
                <g transform="translate(82.826790, 25.903761) scale(-1, -1) rotate(131.000000) translate(-82.826790, -25.903761) translate(74.326790, 2.903761)">
                    <path d="M16.8717126,8.63698079 C16.8717126,3.95629443 13.0673069,0.111444913 8.43585632,0.111444913 C7.33313001,0.111444913 6.28554001,0.33433474 5.23795001,0.724391937 C5.01740474,0.83583685 4.85199579,1.00300422 4.79685948,1.22589405 C4.74172316,1.44878387 4.79685948,1.6716737 4.90713211,1.83884107 L7.77422053,5.51652321 L5.84444948,6.96530709 L2.97736106,3.3433474 C2.86708842,3.17618003 2.64654316,3.06473512 2.4259979,3.06473512 L2.4259979,3.06473512 C2.20545263,3.06473512 1.98490737,3.17618003 1.87463474,3.3433474 C0.66163579,4.84785373 3.90798505e-14,6.6866948 3.90798505e-14,8.63698079 C3.90798505e-14,12.0360506 2.04004369,15.1565082 5.12767737,16.4938472 L3.91467842,43.2406264 C3.91467842,45.1909124 6.28554001,45.8595819 8.54612896,45.8595819 L8.65640159,45.8595819 C10.3104911,45.8595819 13.7289426,45.1909124 13.7289426,42.9620141 L12.1299895,16.3266798 C14.9970779,14.8778959 16.8717126,11.9246057 16.8717126,8.63698079 L16.8717126,8.63698079 Z" id="Path" stroke="none" fill="#4A4A4A"></path>
                    <path d="M11.0823995,15.1565082 C10.8067179,15.2679531 10.641309,15.5465654 10.641309,15.8809002 L12.2953984,42.9620141 C12.2953984,43.686406 10.2553547,44.3550755 8.65640159,44.3550755 L8.54612896,44.3550755 C6.9471758,44.3550755 5.34822264,43.9092959 5.34822264,43.1849039 L6.56122159,15.9923451 C6.56122159,15.6580103 6.39581264,15.379398 6.06499474,15.2679531 C3.25304263,14.2649489 1.3784079,11.590271 1.3784079,8.58125833 C1.3784079,7.24391937 1.70922579,6.01802532 2.4259979,4.90357619 L5.23795001,8.41409096 C5.45849527,8.69270324 5.8995858,8.7484257 6.23040369,8.52553587 L9.26290106,6.18519269 C9.42831001,6.07374778 9.53858264,5.90658041 9.53858264,5.68369058 C9.53858264,5.46080076 9.48344632,5.29363339 9.37317369,5.12646602 L6.67149422,1.6716737 C7.22285738,1.50450633 7.82935685,1.44878387 8.43585632,1.44878387 C12.2953984,1.44878387 15.4381684,4.62496391 15.4381684,8.52553587 C15.4381684,11.5345485 13.7289426,14.0977815 11.0823995,15.1565082 L11.0823995,15.1565082 Z" id="Shape" stroke="none" fill="#E8E8E8"></path>
                    <rect id="Rectangle-path" stroke="#4A4A4A" stroke-width="1" fill="#42D3AA" transform="translate(9.942214, 10.253857) rotate(-38.381524) translate(-9.942214, -10.253857) " x="6.74428162" y="8.35927832" width="6.39586387" height="3.78915741"></rect>
                    <path d="M6.12013106,40.6773934 C6.12013106,42.1818997 7.33313001,43.4077938 8.82181053,43.4077938 C10.3104911,43.4077938 11.52349,42.1818997 11.52349,40.6773934 C11.52349,39.1728871 10.3104911,37.946993 8.82181053,37.946993 C7.33313001,37.946993 6.12013106,39.1728871 6.12013106,40.6773934 L6.12013106,40.6773934 Z" id="Path" stroke="none" fill="#4A4A4A"></path>
                    <path d="M10.641309,40.6773934 C10.641309,41.6803976 9.86940054,42.460512 8.87694685,42.460512 C7.88449317,42.460512 7.11258474,41.6803976 7.11258474,40.6773934 C7.11258474,39.6743892 7.88449317,38.8942748 8.87694685,38.8942748 C9.86940054,38.8942748 10.641309,39.6743892 10.641309,40.6773934 L10.641309,40.6773934 Z" id="Shape" stroke="none" fill="#42D3AA"></path>
                </g>
            </g>
            <path d="M4.5,47.5 L163.5,47.5" id="Line" stroke="#4A4A4A" stroke-linecap="square" mask="url(#mask-3)"></path>
        </g>
    </g>
</svg>