<?xml version="1.0" encoding="UTF-8" standalone="no"?>
<svg width="170px" height="180px" viewBox="0 0 170 180" version="1.1" xmlns="http://www.w3.org/2000/svg" xmlns:xlink="http://www.w3.org/1999/xlink">
    <!-- Generator: Sketch 40.3 (33839) - http://www.bohemiancoding.com/sketch -->
    <title>evaluate copy 2</title>
    <desc>Created with Sketch.</desc>
    <defs></defs>
    <g id="Page-1" stroke="none" stroke-width="1" fill="none" fill-rule="evenodd">
        <g id="evaluate-copy-2">
            <path d="M81.5,66.5 L73.5,9.5" id="Line" stroke="#A5ACAA" stroke-linecap="square"></path>
            <path d="M88.5,155.5 L85.5,113.5" id="Line" stroke="#A5ACAA" stroke-linecap="square"></path>
            <path d="M66.5,77.5 L21.5,46.5" id="Line-Copy-5" stroke="#A5ACAA" stroke-linecap="square"></path>
            <path d="M136.5,168.5 L98.5,109.5" id="Line-Copy" stroke="#A5ACAA" stroke-linecap="square"></path>
            <path d="M153.5,54.5 L104.5,80.5" id="Line-Copy-2" stroke="#A5ACAA" stroke-linecap="square"></path>
            <path d="M160.5,105.5 L107.5,95.5" id="Line-Copy-3" stroke="#A5ACAA" stroke-linecap="square"></path>
            <path d="M62.5,92.5 L10.5,98.5" id="Line-Copy-4" stroke="#A5ACAA" stroke-linecap="square"></path>
            <path d="M105.5,49.5 L95.5,68.5" id="Line-Copy-7" stroke="#A5ACAA" stroke-linecap="square"></path>
            <path d="M70.5,106.5 L22.5,158.5" id="Line-Copy-6" stroke="#A5ACAA" stroke-linecap="square"></path>
            <path d="M143.649841,59.845494 L137.409798,58.9721259 L134.6191,53.5245707 C134.454596,53.2033843 134.115012,53 133.743157,53 C133.371302,53 133.031718,53.2033843 132.867213,53.5245707 L130.076683,58.972045 L123.836431,59.8454132 C123.468478,59.8969162 123.162677,60.1452141 123.047859,60.4858455 C122.932916,60.8264768 123.028765,61.2005003 123.295077,61.450496 L127.810511,65.6901156 L126.74417,71.6778055 C126.681348,72.0308073 126.831962,72.3876092 127.13277,72.598149 C127.433619,72.8086079 127.832291,72.8364616 128.161509,72.6697843 L133.743157,69.8431017 L139.324846,72.6697843 C139.467739,72.7421876 139.623808,72.777884 139.779248,72.777884 C140.321692,72.7764287 140.757419,72.3556725 140.757419,71.8368827 C140.757419,71.7646007 140.748942,71.6942186 140.732995,71.6265855 L139.675761,65.690156 L144.191278,61.4505769 C144.457507,61.2005811 144.553355,60.8266385 144.438412,60.4859263 C144.323553,60.1452949 144.017877,59.8969971 143.649841,59.845494 Z" id="Shape-Copy-3" fill="#FFC938"></path>
            <path d="M129.649841,136.845494 L123.409798,135.972126 L120.6191,130.524571 C120.454596,130.203384 120.115012,130 119.743157,130 C119.371302,130 119.031718,130.203384 118.867213,130.524571 L116.076683,135.972045 L109.836431,136.845413 C109.468478,136.896916 109.162677,137.145214 109.047859,137.485845 C108.932916,137.826477 109.028765,138.2005 109.295077,138.450496 L113.810511,142.690116 L112.74417,148.677806 C112.681348,149.030807 112.831962,149.387609 113.13277,149.598149 C113.433619,149.808608 113.832291,149.836462 114.161509,149.669784 L119.743157,146.843102 L125.324846,149.669784 C125.467739,149.742188 125.623808,149.777884 125.779248,149.777884 C126.321692,149.776429 126.757419,149.355672 126.757419,148.836883 C126.757419,148.764601 126.748942,148.694219 126.732995,148.626586 L125.675761,142.690156 L130.191278,138.450577 C130.457507,138.200581 130.553355,137.826639 130.438412,137.485926 C130.323553,137.145295 130.017877,136.896997 129.649841,136.845494 Z" id="Shape-Copy-4" fill="#FFC938"></path>
            <path d="M46.6498408,51.845494 L40.4097982,50.9721259 L37.6191002,45.5245707 C37.4545959,45.2033843 37.115012,45 36.7431568,45 C36.3713015,45 36.0317176,45.2033843 35.8672133,45.5245707 L33.0766832,50.972045 L26.8364308,51.8454132 C26.4684783,51.8969162 26.1626766,52.1452141 26.0478593,52.4858455 C25.9329161,52.8264768 26.028765,53.2005003 26.2950773,53.450496 L30.8105106,57.6901156 L29.7441702,63.6778055 C29.681348,64.0308073 29.8319618,64.3876092 30.1327696,64.598149 C30.4336195,64.8086079 30.8322906,64.8364616 31.161509,64.6697843 L36.7431568,61.8431017 L42.3248464,64.6697843 C42.4677386,64.7421876 42.6238078,64.777884 42.7792476,64.777884 C43.3216921,64.7764287 43.7574187,64.3556725 43.7574187,63.8368827 C43.7574187,63.7646007 43.7489417,63.6942186 43.7329949,63.6265855 L42.675761,57.690156 L47.1912781,53.4505769 C47.4575065,53.2005811 47.5533555,52.8266385 47.4384123,52.4859263 C47.323553,52.1452949 47.0178772,51.8969971 46.6498408,51.845494 Z" id="Shape-Copy-5" fill="#FFC938"></path>
            <path d="M84.6498408,19.845494 L78.4097982,18.9721259 L75.6191002,13.5245707 C75.4545959,13.2033843 75.115012,13 74.7431568,13 C74.3713015,13 74.0317176,13.2033843 73.8672133,13.5245707 L71.0766832,18.972045 L64.8364308,19.8454132 C64.4684783,19.8969162 64.1626766,20.1452141 64.0478593,20.4858455 C63.9329161,20.8264768 64.028765,21.2005003 64.2950773,21.450496 L68.8105106,25.6901156 L67.7441702,31.6778055 C67.681348,32.0308073 67.8319618,32.3876092 68.1327696,32.598149 C68.4336195,32.8086079 68.8322906,32.8364616 69.161509,32.6697843 L74.7431568,29.8431017 L80.3248464,32.6697843 C80.4677386,32.7421876 80.6238078,32.777884 80.7792476,32.777884 C81.3216921,32.7764287 81.7574187,32.3556725 81.7574187,31.8368827 C81.7574187,31.7646007 81.7489417,31.6942186 81.7329949,31.6265855 L80.675761,25.690156 L85.1912781,21.4505769 C85.4575065,21.2005811 85.5533555,20.8266385 85.4384123,20.4859263 C85.323553,20.1452949 85.0178772,19.8969971 84.6498408,19.845494 Z" id="Shape-Copy-7" stroke="#4A4A4A" fill="#F9F9F9"></path>
            <path d="M50.6498408,136.845494 L44.4097982,135.972126 L41.6191002,130.524571 C41.4545959,130.203384 41.115012,130 40.7431568,130 C40.3713015,130 40.0317176,130.203384 39.8672133,130.524571 L37.0766832,135.972045 L30.8364308,136.845413 C30.4684783,136.896916 30.1626766,137.145214 30.0478593,137.485845 C29.9329161,137.826477 30.028765,138.2005 30.2950773,138.450496 L34.8105106,142.690116 L33.7441702,148.677806 C33.681348,149.030807 33.8319618,149.387609 34.1327696,149.598149 C34.4336195,149.808608 34.8322906,149.836462 35.161509,149.669784 L40.7431568,146.843102 L46.3248464,149.669784 C46.4677386,149.742188 46.6238078,149.777884 46.7792476,149.777884 C47.3216921,149.776429 47.7574187,149.355672 47.7574187,148.836883 C47.7574187,148.764601 47.7489417,148.694219 47.7329949,148.626586 L46.675761,142.690156 L51.1912781,138.450577 C51.4575065,138.200581 51.5533555,137.826639 51.4384123,137.485926 C51.323553,137.145295 51.0178772,136.896997 50.6498408,136.845494 Z" id="Shape-Copy-8" stroke="#4A4A4A" fill="#F9F9F9"></path>
            <g id="avatar-blue-copy-3" transform="translate(66.000000, 71.000000)">
                <ellipse id="Oval-3" stroke="#4A4A4A" fill="#9D9D9D" cx="18.8554643" cy="18.7649757" rx="18.8554643" ry="18.7649757"></ellipse>
                <path d="M23.6829028,28.2276607 C23.3024199,27.9910001 22.9219369,27.8490037 22.541454,27.7070074 C22.0182899,27.565011 21.637807,27.1390219 21.5426863,26.6183686 C21.4475655,26.0977152 21.6853674,25.5770619 22.1609711,25.245737 C23.8255839,24.1570982 24.7767912,22.3111455 24.7767912,20.3705285 L24.7767912,15.0219988 C24.7767912,11.8034145 22.1134107,9.15281571 18.8793057,9.15281571 C15.6452008,9.15281571 12.9818203,11.8034145 12.9818203,15.0219988 L12.9818203,20.3705285 C12.9818203,22.3111455 13.9330276,24.1097661 15.5500801,25.245737 C15.9781234,25.5297298 16.2159252,26.0977152 16.1208045,26.6183686 C16.0256837,27.1390219 15.6452008,27.565011 15.1220368,27.7070074 C14.6464331,27.8490037 14.2183898,28.0383322 13.8379069,28.2749928 L9.55747384,30.9255916 C8.74894761,30.3576062 8.03554211,29.7422886 7.36969697,29.0796389 L12.2684148,26.0503831 C10.9367245,24.4884231 10.1757586,22.5478061 10.1757586,20.4651928 L10.1757586,15.0219988 C10.1757586,10.2887866 14.0757087,6.40755266 18.8317454,6.40755266 C23.5877821,6.40755266 27.4877321,10.2887866 27.4877321,15.0219988 L27.4877321,20.3705285 C27.4877321,22.500474 26.7267663,24.4884231 25.3475156,26.0503831 L30.2937938,29.0323068 C29.6279486,29.7422886 28.9145431,30.3576062 28.1060169,30.9255916 L23.6829028,28.2276607 Z" id="Shape-Copy-3" fill="#FFFFFF"></path>
            </g>
        </g>
    </g>
</svg>