<?xml version="1.0" encoding="UTF-8" standalone="no"?>
<svg width="170px" height="180px" viewBox="0 0 170 180" version="1.1" xmlns="http://www.w3.org/2000/svg" xmlns:xlink="http://www.w3.org/1999/xlink">
    <!-- Generator: Sketch 40.3 (33839) - http://www.bohemiancoding.com/sketch -->
    <title>proposition copy</title>
    <desc>Created with Sketch.</desc>
    <defs>
        <rect id="path-1" x="0" y="18" width="160.072242" height="155.377657" rx="5"></rect>
        <mask id="mask-2" maskContentUnits="userSpaceOnUse" maskUnits="objectBoundingBox" x="0" y="0" width="160.072242" height="155.377657" fill="white">
            <use xlink:href="#path-1"></use>
        </mask>
    </defs>
    <g id="Page-1" stroke="none" stroke-width="1" fill="none" fill-rule="evenodd">
        <g id="proposition-copy">
            <g id="proposition" transform="translate(4.000000, 4.000000)">
                <use id="Rectangle" stroke="#4A4A4A" mask="url(#mask-2)" stroke-width="2" fill="#F9F9F9" xlink:href="#path-1"></use>
                <g id="avatar-blue-copy-3" transform="translate(61.000000, 0.000000)">
                    <ellipse id="Oval-3" stroke="#4A4A4A" fill="#FFC938" cx="18.8554643" cy="18.7649757" rx="18.8554643" ry="18.7649757"></ellipse>
                    <path d="M23.6829028,28.2276607 C23.3024199,27.9910001 22.9219369,27.8490037 22.541454,27.7070074 C22.0182899,27.565011 21.637807,27.1390219 21.5426863,26.6183686 C21.4475655,26.0977152 21.6853674,25.5770619 22.1609711,25.245737 C23.8255839,24.1570982 24.7767912,22.3111455 24.7767912,20.3705285 L24.7767912,15.0219988 C24.7767912,11.8034145 22.1134107,9.15281571 18.8793057,9.15281571 C15.6452008,9.15281571 12.9818203,11.8034145 12.9818203,15.0219988 L12.9818203,20.3705285 C12.9818203,22.3111455 13.9330276,24.1097661 15.5500801,25.245737 C15.9781234,25.5297298 16.2159252,26.0977152 16.1208045,26.6183686 C16.0256837,27.1390219 15.6452008,27.565011 15.1220368,27.7070074 C14.6464331,27.8490037 14.2183898,28.0383322 13.8379069,28.2749928 L9.55747384,30.9255916 C8.74894761,30.3576062 8.03554211,29.7422886 7.36969697,29.0796389 L12.2684148,26.0503831 C10.9367245,24.4884231 10.1757586,22.5478061 10.1757586,20.4651928 L10.1757586,15.0219988 C10.1757586,10.2887866 14.0757087,6.40755266 18.8317454,6.40755266 C23.5877821,6.40755266 27.4877321,10.2887866 27.4877321,15.0219988 L27.4877321,20.3705285 C27.4877321,22.500474 26.7267663,24.4884231 25.3475156,26.0503831 L30.2937938,29.0323068 C29.6279486,29.7422886 28.9145431,30.3576062 28.1060169,30.9255916 L23.6829028,28.2276607 Z" id="Shape-Copy-3" fill="#FFFFFF"></path>
                </g>
                <rect id="Rectangle-2" fill="#BCBCBC" x="68.3594902" y="55.9889972" width="80.6101455" height="5.5"></rect>
                <rect id="Rectangle-2-Copy-2" fill="#BCBCBC" x="69.3594902" y="95.9009581" width="69.6799563" height="5.5"></rect>
                <rect id="Rectangle-2-Copy-4" fill="#BCBCBC" x="69.3594902" y="107.204945" width="52.6015357" height="5.5"></rect>
                <rect id="Rectangle-2-Copy-3" fill="#BCBCBC" x="69.3594902" y="136.931317" width="52.6015357" height="5.5"></rect>
                <rect id="Rectangle-2-Copy-5" fill="#BCBCBC" x="69.3594902" y="147.235304" width="52.6015357" height="5.5"></rect>
                <rect id="Rectangle-2-Copy" fill="#BCBCBC" x="68.3594902" y="67.2929842" width="61.4823144" height="5.5"></rect>
                <g id="target" transform="translate(18.000000, 50.000000)">
                    <g id="Group">
                        <g id="Rectangle-path" fill="#4A4A4A">
                            <rect x="13.1911111" y="0" width="1.61777778" height="6.50222222"></rect>
                            <rect x="21.4977778" y="13.1911111" width="6.50222222" height="1.61777778"></rect>
                            <rect x="0" y="13.1911111" width="6.50222222" height="1.61777778"></rect>
                            <rect x="13.1911111" y="21.4977778" width="1.61777778" height="6.50222222"></rect>
                        </g>
                        <path d="M14,9.33333333 C11.4177778,9.33333333 9.33333333,11.4177778 9.33333333,14 C9.33333333,16.5822222 11.4177778,18.6666667 14,18.6666667 C16.5822222,18.6666667 18.6666667,16.5822222 18.6666667,14 C18.6666667,11.4177778 16.5822222,9.33333333 14,9.33333333 L14,9.33333333 L14,9.33333333 Z" id="Shape" stroke="#4A4A4A" fill="#FFC938"></path>
                    </g>
                </g>
                <g id="amount" transform="translate(19.000000, 130.000000)">
                    <g id="Group" fill="#4A4A4A">
                        <path d="M23.5664722,13.0494545 C23.4137222,12.7189091 23.4859444,11.004 23.6491667,9.60945455 L23.6527778,9.54545455 C23.6527778,8.04145455 22.438,6.81818182 20.9444444,6.81818182 L4.96527778,6.81818182 C3.47172222,6.81818182 2.25694444,8.04145455 2.25694444,9.54545455 L2.26055556,9.60945455 C2.42377778,11.004 2.496,12.7189091 2.35625,13.0276364 C2.13163889,13.3476364 1.91244444,13.6378182 1.70516667,13.9127273 C0.790111111,15.1243636 0,16.1709091 0,18.1592727 C0,21.7029091 1.67880556,23.8181818 4.4915,23.8181818 C4.55758333,23.8181818 4.62222222,23.8141818 4.68722222,23.8098182 L4.72694444,23.8072727 C4.80566667,23.8145455 4.88511111,23.8181818 4.96563889,23.8181818 L20.9444444,23.8181818 C21.0253333,23.8181818 21.1044167,23.8141818 21.1831389,23.8072727 L21.2225,23.8098182 C21.2875,23.8145455 21.3521389,23.8181818 21.4182222,23.8181818 C24.2305556,23.8181818 25.9097222,21.7029091 25.9097222,18.1592727 C25.9097222,16.1709091 25.1196111,15.1243636 24.2045556,13.9127273 C23.9969167,13.6378182 23.7780833,13.3476364 23.5664722,13.0494545 L23.5664722,13.0494545 Z M21.4182222,22.7272727 C21.3770556,22.7272727 21.3358889,22.724 21.2954444,22.7210909 L21.1585833,22.7134545 L21.1181389,22.7178182 C21.0610833,22.7236364 21.0033056,22.7272727 20.9444444,22.7272727 L4.96527778,22.7272727 C4.90641667,22.7272727 4.84863889,22.7236364 4.79158333,22.7178182 L4.75113889,22.7134545 L4.61391667,22.7210909 C4.57347222,22.724 4.53266667,22.7272727 4.4915,22.7272727 C1.52605556,22.7272727 1.08333333,19.8650909 1.08333333,18.1592727 C1.08333333,16.5385455 1.67375,15.7567273 2.5675,14.5734545 C2.78236111,14.2890909 3.00877778,13.9890909 3.24097222,13.6574545 C3.65227778,13.0716364 3.52336111,11.0898182 3.34027778,9.516 C3.35616667,8.62727273 4.07875,7.90945455 4.96527778,7.90945455 L20.9444444,7.90945455 C21.8306111,7.90945455 22.5535556,8.62763636 22.5690833,9.516 C22.3863611,11.0898182 22.2578056,13.0716364 22.66875,13.6574545 C22.9009444,13.9887273 23.1277222,14.2887273 23.3422222,14.5734545 C24.2359722,15.7567273 24.8260278,16.5385455 24.8260278,18.1592727 C24.8263889,19.8650909 24.3833056,22.7272727 21.4182222,22.7272727 L21.4182222,22.7272727 Z" id="Shape"></path>
                        <path d="M20.8541667,4.54545455 L15.16125,4.54545455 C15.5306667,4.068 15.7534722,3.46945455 15.7534722,2.81818182 C15.7534722,1.26436364 14.4978889,0 12.9548611,0 C11.4118333,0 10.15625,1.26436364 10.15625,2.81818182 C10.15625,3.46945455 10.3786944,4.068 10.7484722,4.54545455 L5.05555556,4.54545455 C2.26777778,4.54545455 0,6.82909091 0,9.63636364 C0,9.93781818 0.242305556,10.1818182 0.541666667,10.1818182 C0.841027778,10.1818182 1.08333333,9.93781818 1.08333333,9.63636364 C1.08333333,7.43090909 2.86541667,5.63636364 5.05555556,5.63636364 L20.8541667,5.63636364 C23.0443056,5.63636364 24.8263889,7.43090909 24.8263889,9.63636364 C24.8263889,9.93781818 25.0690556,10.1818182 25.3680556,10.1818182 C25.6670556,10.1818182 25.9097222,9.93781818 25.9097222,9.63636364 C25.9097222,6.82909091 23.6419444,4.54545455 20.8541667,4.54545455 L20.8541667,4.54545455 Z M11.2395833,2.81818182 C11.2395833,1.86581818 12.0091111,1.09090909 12.9548611,1.09090909 C13.9006111,1.09090909 14.6701389,1.86581818 14.6701389,2.81818182 C14.6701389,3.77054545 13.9006111,4.54545455 12.9548611,4.54545455 C12.0091111,4.54545455 11.2395833,3.77054545 11.2395833,2.81818182 L11.2395833,2.81818182 Z" id="Shape"></path>
                    </g>
                    <path d="M21.4182222,22.8178182 C21.3770556,22.8178182 21.3358889,22.8145455 21.2954444,22.8116364 L21.1585833,22.804 L21.1181389,22.8083636 C21.0610833,22.8141818 21.0033056,22.8178182 20.9444444,22.8178182 L4.96527778,22.8178182 C4.90641667,22.8178182 4.84863889,22.8141818 4.79158333,22.8083636 L4.75113889,22.804 L4.61391667,22.8116364 C4.57347222,22.8145455 4.53266667,22.8178182 4.4915,22.8178182 C1.52605556,22.8178182 1.08333333,19.9556364 1.08333333,18.2498182 C1.08333333,16.6290909 1.67375,15.8472727 2.5675,14.664 C2.78236111,14.3796364 3.00877778,14.0796364 3.24097222,13.748 C3.65227778,13.1621818 3.52336111,11.1803636 3.34027778,9.60654545 C3.35616667,8.71781818 4.07875,8 4.96527778,8 L20.9444444,8 C21.8306111,8 22.5535556,8.71818182 22.5690833,9.60654545 C22.3863611,11.1803636 22.2578056,13.1621818 22.66875,13.748 C22.9009444,14.0792727 23.1277222,14.3792727 23.3422222,14.664 C24.2359722,15.8472727 24.8260278,16.6290909 24.8260278,18.2498182 C24.8263889,19.9556364 24.3833056,22.8178182 21.4182222,22.8178182 L21.4182222,22.8178182 Z" id="Path" fill="#E8E8E8"></path>
                    <path d="M11.1944444,2.81818182 C11.1944444,1.86581818 11.9639722,1.09090909 12.9097222,1.09090909 C13.8554722,1.09090909 14.625,1.86581818 14.625,2.81818182 C14.625,3.77054545 13.8554722,4.54545455 12.9097222,4.54545455 C11.9639722,4.54545455 11.1944444,3.77054545 11.1944444,2.81818182 L11.1944444,2.81818182 Z" id="Path" fill="#FFC938"></path>
                </g>
                <g id="Group" transform="translate(20.000000, 92.000000)">
                    <path d="M19.92,2.16 L19.92,0.48 C19.92,0.34752 19.81248,0.24 19.68,0.24 C19.54752,0.24 19.44,0.34752 19.44,0.48 L19.44,2.16 L4.56,2.16 L4.56,0.48 C4.56,0.34752 4.45248,0.24 4.32,0.24 C4.18752,0.24 4.08,0.34752 4.08,0.48 L4.08,2.16 L1.68,2.16 C0.88608,2.16 0.24,2.80608 0.24,3.6 L0.24,22.32 C0.24,23.11392 0.88608,23.76 1.68,23.76 L22.32,23.76 C23.11392,23.76 23.76,23.11392 23.76,22.32 L23.76,3.6 C23.76,2.80608 23.11392,2.16 22.32,2.16 L19.92,2.16 Z" id="Shape" stroke="#4A4A4A" fill="#4A4A4A"></path>
                    <path d="M22.32,23.28 L1.68,23.28 C1.15056,23.28 0.72,22.84944 0.72,22.32 L0.72,7.44 L23.28,7.44 L23.28,22.32 C23.28,22.84944 22.84944,23.28 22.32,23.28 L22.32,23.28 Z" id="Path" fill="#E8E8E8"></path>
                    <path d="M3.59366013,2.64 L3.59366013,4.32 C3.59366013,4.45248 3.9830051,4.8 4.35665458,4.8 C4.73030406,4.8 5.16183036,4.56 5.16183036,4.32 L5.16183036,2.64 L18.9522879,2.64 L18.9522879,4.19559152 C18.9522879,4.32807152 19.0832171,4.8 19.7070312,4.8 C20.3308454,4.8 20.4783761,4.32807152 20.4783761,4.19559152 L20.4783761,2.64 L22.32,2.64 C22.84944,2.64 23.28,3.07056 23.28,3.6 L23.28,6.96 L0.72,6.96 L0.72,3.6 C0.72,3.07056 1.15056,2.64 1.68,2.64 L3.59366013,2.64 Z" id="Path" fill="#FFC938"></path>
                </g>
            </g>
        </g>
    </g>
</svg>