<?xml version="1.0" encoding="UTF-8" standalone="no"?>
<svg width="170px" height="180px" viewBox="0 0 170 180" version="1.1" xmlns="http://www.w3.org/2000/svg" xmlns:xlink="http://www.w3.org/1999/xlink">
    <!-- Generator: Sketch 40.3 (33839) - http://www.bohemiancoding.com/sketch -->
    <title>proposition copy</title>
    <desc>Created with Sketch.</desc>
    <defs>
        <rect id="path-1" x="0" y="18" width="160.072242" height="155.377657" rx="5"></rect>
        <mask id="mask-2" maskContentUnits="userSpaceOnUse" maskUnits="objectBoundingBox" x="0" y="0" width="160.072242" height="155.377657" fill="white">
            <use xlink:href="#path-1"></use>
        </mask>
    </defs>
    <g id="Page-1" stroke="none" stroke-width="1" fill="none" fill-rule="evenodd">
        <g id="proposition-copy">
            <g id="proposition" transform="translate(4.000000, 4.000000)">
                <use id="Rectangle" stroke="#9D9D9D" mask="url(#mask-2)" stroke-width="2" fill="#F9F9F9" xlink:href="#path-1"></use>
                <g id="avatar-blue-copy-3" transform="translate(61.000000, 0.000000)">
                    <ellipse id="Oval-3" stroke="#9D9D9D" fill="#9D9D9D" cx="18.8554643" cy="18.7649757" rx="18.8554643" ry="18.7649757"></ellipse>
                    <path d="M23.6829028,28.2276607 C23.3024199,27.9910001 22.9219369,27.8490037 22.541454,27.7070074 C22.0182899,27.565011 21.637807,27.1390219 21.5426863,26.6183686 C21.4475655,26.0977152 21.6853674,25.5770619 22.1609711,25.245737 C23.8255839,24.1570982 24.7767912,22.3111455 24.7767912,20.3705285 L24.7767912,15.0219988 C24.7767912,11.8034145 22.1134107,9.15281571 18.8793057,9.15281571 C15.6452008,9.15281571 12.9818203,11.8034145 12.9818203,15.0219988 L12.9818203,20.3705285 C12.9818203,22.3111455 13.9330276,24.1097661 15.5500801,25.245737 C15.9781234,25.5297298 16.2159252,26.0977152 16.1208045,26.6183686 C16.0256837,27.1390219 15.6452008,27.565011 15.1220368,27.7070074 C14.6464331,27.8490037 14.2183898,28.0383322 13.8379069,28.2749928 L9.55747384,30.9255916 C8.74894761,30.3576062 8.03554211,29.7422886 7.36969697,29.0796389 L12.2684148,26.0503831 C10.9367245,24.4884231 10.1757586,22.5478061 10.1757586,20.4651928 L10.1757586,15.0219988 C10.1757586,10.2887866 14.0757087,6.40755266 18.8317454,6.40755266 C23.5877821,6.40755266 27.4877321,10.2887866 27.4877321,15.0219988 L27.4877321,20.3705285 C27.4877321,22.500474 26.7267663,24.4884231 25.3475156,26.0503831 L30.2937938,29.0323068 C29.6279486,29.7422886 28.9145431,30.3576062 28.1060169,30.9255916 L23.6829028,28.2276607 Z" id="Shape-Copy-3" fill="#FFFFFF"></path>
                </g>
                <rect id="Rectangle-2" fill="#BCBCBC" x="68.3594902" y="55.9889972" width="80.6101455" height="5.5"></rect>
                <rect id="Rectangle-2-Copy-2" fill="#BCBCBC" x="69.3594902" y="95.9009581" width="69.6799563" height="5.5"></rect>
                <rect id="Rectangle-2-Copy-4" fill="#BCBCBC" x="69.3594902" y="107.204945" width="52.6015357" height="5.5"></rect>
                <rect id="Rectangle-2-Copy-3" fill="#BCBCBC" x="69.3594902" y="136.931317" width="52.6015357" height="5.5"></rect>
                <rect id="Rectangle-2-Copy-5" fill="#BCBCBC" x="69.3594902" y="147.235304" width="52.6015357" height="5.5"></rect>
                <rect id="Rectangle-2-Copy" fill="#BCBCBC" x="68.3594902" y="67.2929842" width="61.4823144" height="5.5"></rect>
                <g id="Group" transform="translate(20.000000, 92.000000)">
                    <path d="M19.92,2.16 L19.92,0.48 C19.92,0.34752 19.81248,0.24 19.68,0.24 C19.54752,0.24 19.44,0.34752 19.44,0.48 L19.44,2.16 L4.56,2.16 L4.56,0.48 C4.56,0.34752 4.45248,0.24 4.32,0.24 C4.18752,0.24 4.08,0.34752 4.08,0.48 L4.08,2.16 L1.68,2.16 C0.88608,2.16 0.24,2.80608 0.24,3.6 L0.24,22.32 C0.24,23.11392 0.88608,23.76 1.68,23.76 L22.32,23.76 C23.11392,23.76 23.76,23.11392 23.76,22.32 L23.76,3.6 C23.76,2.80608 23.11392,2.16 22.32,2.16 L19.92,2.16 Z" id="Shape" stroke="#4A4A4A" fill="#4A4A4A"></path>
                    <path d="M22.32,23.28 L1.68,23.28 C1.15056,23.28 0.72,22.84944 0.72,22.32 L0.72,7.44 L23.28,7.44 L23.28,22.32 C23.28,22.84944 22.84944,23.28 22.32,23.28 L22.32,23.28 Z" id="Path" fill="#E8E8E8"></path>
                    <path d="M3.59366013,2.64 L3.59366013,4.32 C3.59366013,4.45248 3.9830051,4.8 4.35665458,4.8 C4.73030406,4.8 5.16183036,4.56 5.16183036,4.32 L5.16183036,2.64 L18.9522879,2.64 L18.9522879,4.19559152 C18.9522879,4.32807152 19.0832171,4.8 19.7070312,4.8 C20.3308454,4.8 20.4783761,4.32807152 20.4783761,4.19559152 L20.4783761,2.64 L22.32,2.64 C22.84944,2.64 23.28,3.07056 23.28,3.6 L23.28,6.96 L0.72,6.96 L0.72,3.6 C0.72,3.07056 1.15056,2.64 1.68,2.64 L3.59366013,2.64 Z" id="Path" fill="#EE5F5B"></path>
                </g>
            </g>
            <g id="Amount" transform="translate(20.000000, 139.000000)">
                <g id="Group" transform="translate(19.534224, 11.229167) rotate(-360.000000) translate(-19.534224, -11.229167) translate(6.034224, 3.229167)">
                    <path d="M25.8224763,0.0606307756 L0.481062499,0.0606307756 C0.319734127,0.0606307756 0.188800956,0.191851005 0.188800956,0.353533073 L0.188800956,15.463191 C0.188800956,15.6248731 0.319734127,15.7560933 0.481062499,15.7560933 L25.8221841,15.7560933 C25.9835124,15.7560933 26.1144456,15.6248731 26.1144456,15.463191 L26.1144456,0.353533073 C26.1147379,0.191851005 25.9838047,0.0606307756 25.8224763,0.0606307756 L25.8224763,0.0606307756 Z" id="Shape" fill="#4A4A4A"></path>
                    <polygon id="Path" fill="#E8E8E8" points="0.773324041 15.1702887 0.773324041 0.646435371 25.5299225 0.646435371 25.5299225 15.1702887"></polygon>
                    <path d="M1.9257113,11.6185554 C3.24381086,11.6191412 4.31670298,12.6943856 4.3172875,14.0153749 C4.3172875,14.177057 4.44822068,14.3082772 4.60954905,14.3082772 L21.6916517,14.3082772 C21.85298,14.3082772 21.9839132,14.177057 21.9839132,14.0153749 C21.9839132,12.6940927 23.0588512,11.6194341 24.3804579,11.6194341 C24.5417862,11.6194341 24.6727194,11.4882139 24.6727194,11.3265318 L24.6727194,4.49282834 C24.6727194,4.33114627 24.5417862,4.19992605 24.3804579,4.19992605 C23.0611893,4.19992605 21.9856668,3.1235101 21.9830364,1.80076333 C21.9827442,1.63937416 21.8521033,1.50844683 21.6907749,1.50844683 L4.60954905,1.50844683 C4.53209974,1.50844683 4.45757304,1.53920157 4.40292014,1.59426721 C4.34826723,1.64933284 4.3172875,1.72373002 4.3172875,1.80134913 C4.31757977,3.1232172 3.24468764,4.19934024 1.9257113,4.19992605 C1.76438293,4.19992605 1.63344976,4.33114627 1.63344976,4.49282834 L1.63344976,11.325946 C1.63374202,11.4876281 1.76438293,11.6185554 1.9257113,11.6185554 L1.9257113,11.6185554 Z" id="Shape" fill="#4A4A4A"></path>
                    <path d="M2.21826511,4.77137843 C3.62638122,4.63254274 4.75012685,3.5057476 4.88778204,2.09425143 L21.4134187,2.09425143 C21.5537042,3.5063334 22.6794957,4.63312854 24.0881963,4.77137843 L24.0881963,11.0476889 C22.6774499,11.1856458 21.5519507,12.3112694 21.413711,13.7224726 L4.88748977,13.7224726 C4.7489578,12.3118552 3.6257967,11.1859387 2.21826511,11.047396 L2.21826511,4.77137843 L2.21826511,4.77137843 Z" id="Path" fill="#F9F9F9"></path>
                    <path d="M13.1517694,11.8180219 C15.3028144,11.8180219 17.0528765,10.0641229 17.0528765,7.90836204 C17.0528765,5.75260112 15.3028144,3.99870217 13.1517694,3.99870217 C11.0007245,3.99870217 9.25066234,5.75260112 9.25066234,7.90836204 C9.25066234,10.0641229 11.0007245,11.8180219 13.1517694,11.8180219 L13.1517694,11.8180219 Z" id="Shape" fill="#4A4A4A"></path>
                    <path d="M13.1517694,4.58450676 C14.9804499,4.58450676 16.4683534,6.07537946 16.4683534,7.90836204 C16.4683534,9.74134461 14.9804499,11.2322173 13.1517694,11.2322173 C11.3230889,11.2322173 9.83518543,9.74105171 9.83518543,7.90836204 C9.83518543,6.07567236 11.3230889,4.58450676 13.1517694,4.58450676 L13.1517694,4.58450676 Z" id="Path" fill="#42D3AA"></path>
                </g>
                <g id="Group-Copy" transform="translate(13.500000, 8.000000) rotate(-360.000000) translate(-13.500000, -8.000000) ">
                    <path d="M25.8224763,0.0606307756 L0.481062499,0.0606307756 C0.319734127,0.0606307756 0.188800956,0.191851005 0.188800956,0.353533073 L0.188800956,15.463191 C0.188800956,15.6248731 0.319734127,15.7560933 0.481062499,15.7560933 L25.8221841,15.7560933 C25.9835124,15.7560933 26.1144456,15.6248731 26.1144456,15.463191 L26.1144456,0.353533073 C26.1147379,0.191851005 25.9838047,0.0606307756 25.8224763,0.0606307756 L25.8224763,0.0606307756 Z" id="Shape" fill="#4A4A4A"></path>
                    <polygon id="Path" fill="#E8E8E8" points="0.773324041 15.1702887 0.773324041 0.646435371 25.5299225 0.646435371 25.5299225 15.1702887"></polygon>
                    <path d="M1.9257113,11.6185554 C3.24381086,11.6191412 4.31670298,12.6943856 4.3172875,14.0153749 C4.3172875,14.177057 4.44822068,14.3082772 4.60954905,14.3082772 L21.6916517,14.3082772 C21.85298,14.3082772 21.9839132,14.177057 21.9839132,14.0153749 C21.9839132,12.6940927 23.0588512,11.6194341 24.3804579,11.6194341 C24.5417862,11.6194341 24.6727194,11.4882139 24.6727194,11.3265318 L24.6727194,4.49282834 C24.6727194,4.33114627 24.5417862,4.19992605 24.3804579,4.19992605 C23.0611893,4.19992605 21.9856668,3.1235101 21.9830364,1.80076333 C21.9827442,1.63937416 21.8521033,1.50844683 21.6907749,1.50844683 L4.60954905,1.50844683 C4.53209974,1.50844683 4.45757304,1.53920157 4.40292014,1.59426721 C4.34826723,1.64933284 4.3172875,1.72373002 4.3172875,1.80134913 C4.31757977,3.1232172 3.24468764,4.19934024 1.9257113,4.19992605 C1.76438293,4.19992605 1.63344976,4.33114627 1.63344976,4.49282834 L1.63344976,11.325946 C1.63374202,11.4876281 1.76438293,11.6185554 1.9257113,11.6185554 L1.9257113,11.6185554 Z" id="Shape" fill="#4A4A4A"></path>
                    <path d="M2.21826511,4.77137843 C3.62638122,4.63254274 4.75012685,3.5057476 4.88778204,2.09425143 L21.4134187,2.09425143 C21.5537042,3.5063334 22.6794957,4.63312854 24.0881963,4.77137843 L24.0881963,11.0476889 C22.6774499,11.1856458 21.5519507,12.3112694 21.413711,13.7224726 L4.88748977,13.7224726 C4.7489578,12.3118552 3.6257967,11.1859387 2.21826511,11.047396 L2.21826511,4.77137843 L2.21826511,4.77137843 Z" id="Path" fill="#F9F9F9"></path>
                    <path d="M13.1517694,11.8180219 C15.3028144,11.8180219 17.0528765,10.0641229 17.0528765,7.90836204 C17.0528765,5.75260112 15.3028144,3.99870217 13.1517694,3.99870217 C11.0007245,3.99870217 9.25066234,5.75260112 9.25066234,7.90836204 C9.25066234,10.0641229 11.0007245,11.8180219 13.1517694,11.8180219 L13.1517694,11.8180219 Z" id="Shape" fill="#4A4A4A"></path>
                    <path d="M16.4683534,7.90836204 C16.4683534,9.74134461 14.9804499,11.2322173 13.1517694,11.2322173 C11.3230889,11.2322173 9.83518543,9.74105171 9.83518543,7.90836204 C9.83518543,6.07567236 11.3230889,4.58450676 13.1517694,4.58450676 C14.9804499,4.58450676 16.4683534,6.07537946 16.4683534,7.90836204 Z" id="Path" fill="#42D3AA"></path>
                </g>
            </g>
            <g id="Target" transform="translate(23.000000, 56.000000)">
                <path d="M26,12.2488889 L23.5444444,12.2488889 C23.1688889,7.02 18.98,2.83111111 13.7511111,2.45555556 L13.7511111,0 L12.2488889,0 L12.2488889,2.45555556 C7.02,2.83111111 2.83111111,7.02 2.45555556,12.2488889 L0,12.2488889 L0,13.7511111 L2.45555556,13.7511111 C2.83111111,18.98 7.02,23.1688889 12.2488889,23.5444444 L12.2488889,26 L13.7511111,26 L13.7511111,23.5444444 C18.98,23.1688889 23.1688889,18.98 23.5444444,13.7511111 L26,13.7511111 L26,12.2488889 L26,12.2488889 Z" id="Shape" fill="#4A4A4A"></path>
                <path d="M13.7511111,22.0422222 L13.7511111,19.9622222 L12.2488889,19.9622222 L12.2488889,22.0422222 C7.82888889,21.6666667 4.33333333,18.1711111 3.95777778,13.7511111 L6.03777778,13.7511111 L6.03777778,12.2488889 L3.95777778,12.2488889 C4.33333333,7.82888889 7.82888889,4.33333333 12.2488889,3.95777778 L12.2488889,6.03777778 L13.7511111,6.03777778 L13.7511111,3.95777778 C18.1711111,4.33333333 21.6666667,7.82888889 22.0422222,12.2488889 L19.9622222,12.2488889 L19.9622222,13.7511111 L22.0422222,13.7511111 C21.6666667,18.1711111 18.1711111,21.6666667 13.7511111,22.0422222 L13.7511111,22.0422222 Z" id="Path" fill="#F9F9F9"></path>
                <path d="M8.66666667,13 C8.66666667,15.3977778 10.6022222,17.3333333 13,17.3333333 C15.3977778,17.3333333 17.3333333,15.3977778 17.3333333,13 C17.3333333,10.6022222 15.3977778,8.66666667 13,8.66666667 C10.6022222,8.66666667 8.66666667,10.6022222 8.66666667,13 Z" id="Shape" stroke="#4A4A4A" fill="#FFC938"></path>
            </g>
        </g>
    </g>
</svg>