<?xml version="1.0" encoding="UTF-8" standalone="no"?>
<svg width="170px" height="180px" viewBox="0 0 170 180" version="1.1" xmlns="http://www.w3.org/2000/svg" xmlns:xlink="http://www.w3.org/1999/xlink">
    <!-- Generator: Sketch 40.3 (33839) - http://www.bohemiancoding.com/sketch -->
    <title>get-rewards</title>
    <desc>Created with Sketch.</desc>
    <defs></defs>
    <g id="Page-1" stroke="none" stroke-width="1" fill="none" fill-rule="evenodd">
        <g id="get-rewards">
            <g id="Group" transform="translate(61.000000, 61.000000) rotate(-360.000000) translate(-61.000000, -61.000000) translate(37.000000, 46.000000)">
                <path d="M47.0727019,0.112655893 L0.876945779,0.112655893 C0.582854607,0.112655893 0.344171916,0.356471545 0.344171916,0.656887259 L0.344171916,28.7316065 C0.344171916,29.0320222 0.582854607,29.2758379 0.876945779,29.2758379 L47.0721692,29.2758379 C47.3662603,29.2758379 47.604943,29.0320222 47.604943,28.7316065 L47.604943,0.656887259 C47.6054758,0.356471545 47.3667931,0.112655893 47.0727019,0.112655893 L47.0727019,0.112655893 Z" id="Shape" fill="#4A4A4A"></path>
                <polygon id="Path" fill="#E8E8E8" points="1.40971964 28.1873751 1.40971964 1.20111862 46.5393953 1.20111862 46.5393953 28.1873751"></polygon>
                <path d="M3.51044699,21.5880256 C5.91325711,21.5891141 7.86906996,23.5869874 7.87013551,26.0414709 C7.87013551,26.3418866 8.1088182,26.5857022 8.40290937,26.5857022 L39.5424761,26.5857022 C39.8365673,26.5857022 40.07525,26.3418866 40.07525,26.0414709 C40.07525,23.5864432 42.0347923,21.5896583 44.4439957,21.5896583 C44.7380869,21.5896583 44.9767695,21.3458426 44.9767695,21.0454269 L44.9767695,8.34796492 C44.9767695,8.04754921 44.7380869,7.80373355 44.4439957,7.80373355 C42.0390545,7.80373355 40.0784466,5.80368329 40.0736517,3.34593444 C40.0731189,3.04606295 39.834969,2.80279153 39.5408778,2.80279153 L8.40290937,2.80279153 C8.2617243,2.80279153 8.12586696,2.85993583 8.02623825,2.96225132 C7.92660954,3.06456682 7.87013551,3.20280159 7.87013551,3.3470229 C7.87066828,5.80313905 5.91485543,7.80264509 3.51044699,7.80373355 C3.21635581,7.80373355 2.97767312,8.04754921 2.97767312,8.34796492 L2.97767312,21.0443385 C2.9782059,21.3447542 3.21635581,21.5880256 3.51044699,21.5880256 L3.51044699,21.5880256 Z" id="Shape" fill="#4A4A4A"></path>
                <path d="M4.04375362,8.86552895 C6.6106581,8.60756328 8.6591736,6.51390522 8.91011009,3.89125427 L39.0352754,3.89125427 C39.2910069,6.51499368 41.3432518,8.60865175 43.9112218,8.86552895 L43.9112218,20.5273187 C41.3395224,20.7836516 39.2878102,22.8751328 39.0358082,25.4972395 L8.90957732,25.4972395 C8.65704251,22.8762212 6.60959255,20.7841959 4.04375362,20.5267744 L4.04375362,8.86552895 L4.04375362,8.86552895 Z" id="Path" fill="#F9F9F9"></path>
                <path d="M23.9748239,21.9586471 C27.8960395,21.9586471 31.0862894,18.6997897 31.0862894,14.6942469 C31.0862894,10.688704 27.8960395,7.42984661 23.9748239,7.42984661 C20.0536082,7.42984661 16.8633583,10.688704 16.8633583,14.6942469 C16.8633583,18.6997897 20.0536082,21.9586471 23.9748239,21.9586471 L23.9748239,21.9586471 Z" id="Shape" fill="#4A4A4A"></path>
                <path d="M23.9748239,8.51830934 C27.3083899,8.51830934 30.0207417,11.288447 30.0207417,14.6942469 C30.0207417,18.1000468 27.3083899,20.8701844 23.9748239,20.8701844 C20.6412578,20.8701844 17.9289061,18.0995025 17.9289061,14.6942469 C17.9289061,11.2889912 20.6412578,8.51830934 23.9748239,8.51830934 L23.9748239,8.51830934 Z" id="Path" fill="#42D3AA"></path>
            </g>
            <g id="Group-Copy" transform="translate(46.000000, 46.000000) rotate(-360.000000) translate(-46.000000, -46.000000) translate(22.000000, 31.000000)">
                <path d="M47.0727019,0.112655893 L0.876945779,0.112655893 C0.582854607,0.112655893 0.344171916,0.356471545 0.344171916,0.656887259 L0.344171916,28.7316065 C0.344171916,29.0320222 0.582854607,29.2758379 0.876945779,29.2758379 L47.0721692,29.2758379 C47.3662603,29.2758379 47.604943,29.0320222 47.604943,28.7316065 L47.604943,0.656887259 C47.6054758,0.356471545 47.3667931,0.112655893 47.0727019,0.112655893 L47.0727019,0.112655893 Z" id="Shape" fill="#4A4A4A"></path>
                <polygon id="Path" fill="#E8E8E8" points="1.40971964 28.1873751 1.40971964 1.20111862 46.5393953 1.20111862 46.5393953 28.1873751"></polygon>
                <path d="M3.51044699,21.5880256 C5.91325711,21.5891141 7.86906996,23.5869874 7.87013551,26.0414709 C7.87013551,26.3418866 8.1088182,26.5857022 8.40290937,26.5857022 L39.5424761,26.5857022 C39.8365673,26.5857022 40.07525,26.3418866 40.07525,26.0414709 C40.07525,23.5864432 42.0347923,21.5896583 44.4439957,21.5896583 C44.7380869,21.5896583 44.9767695,21.3458426 44.9767695,21.0454269 L44.9767695,8.34796492 C44.9767695,8.04754921 44.7380869,7.80373355 44.4439957,7.80373355 C42.0390545,7.80373355 40.0784466,5.80368329 40.0736517,3.34593444 C40.0731189,3.04606295 39.834969,2.80279153 39.5408778,2.80279153 L8.40290937,2.80279153 C8.2617243,2.80279153 8.12586696,2.85993583 8.02623825,2.96225132 C7.92660954,3.06456682 7.87013551,3.20280159 7.87013551,3.3470229 C7.87066828,5.80313905 5.91485543,7.80264509 3.51044699,7.80373355 C3.21635581,7.80373355 2.97767312,8.04754921 2.97767312,8.34796492 L2.97767312,21.0443385 C2.9782059,21.3447542 3.21635581,21.5880256 3.51044699,21.5880256 L3.51044699,21.5880256 Z" id="Shape" fill="#4A4A4A"></path>
                <path d="M4.04375362,8.86552895 C6.6106581,8.60756328 8.6591736,6.51390522 8.91011009,3.89125427 L39.0352754,3.89125427 C39.2910069,6.51499368 41.3432518,8.60865175 43.9112218,8.86552895 L43.9112218,20.5273187 C41.3395224,20.7836516 39.2878102,22.8751328 39.0358082,25.4972395 L8.90957732,25.4972395 C8.65704251,22.8762212 6.60959255,20.7841959 4.04375362,20.5267744 L4.04375362,8.86552895 L4.04375362,8.86552895 Z" id="Path" fill="#F9F9F9"></path>
                <path d="M23.9748239,21.9586471 C27.8960395,21.9586471 31.0862894,18.6997897 31.0862894,14.6942469 C31.0862894,10.688704 27.8960395,7.42984661 23.9748239,7.42984661 C20.0536082,7.42984661 16.8633583,10.688704 16.8633583,14.6942469 C16.8633583,18.6997897 20.0536082,21.9586471 23.9748239,21.9586471 L23.9748239,21.9586471 Z" id="Shape" fill="#4A4A4A"></path>
                <path d="M23.9748239,8.51830934 C27.3083899,8.51830934 30.0207417,11.288447 30.0207417,14.6942469 C30.0207417,18.1000468 27.3083899,20.8701844 23.9748239,20.8701844 C20.6412578,20.8701844 17.9289061,18.0995025 17.9289061,14.6942469 C17.9289061,11.2889912 20.6412578,8.51830934 23.9748239,8.51830934 L23.9748239,8.51830934 Z" id="Path" fill="#42D3AA"></path>
            </g>
            <path d="M144.5,27.5 L17.5,161.5" id="Line-Copy-5" stroke="#4A4A4A" stroke-linecap="square"></path>
            <path d="M141.598567,121.469545 L131.143448,120.006227 L126.467667,110.878912 C126.192042,110.340768 125.623073,110 125.000034,110 C124.376994,110 123.808026,110.340768 123.532401,110.878912 L118.8569,120.006092 L108.40143,121.46941 C107.78493,121.555702 107.272563,121.971723 107.080188,122.542447 C106.887602,123.11317 107.048195,123.739842 107.494399,124.158707 L115.059954,131.26214 L113.273313,141.294445 C113.168056,141.885895 113.420407,142.483713 113.924407,142.83647 C114.428478,143.189091 115.096446,143.23576 115.648048,142.956494 L125.000034,138.22042 L134.352089,142.956494 C134.591504,143.077805 134.852996,143.137614 135.113433,143.137614 C136.022293,143.135175 136.752348,142.430203 136.752348,141.560977 C136.752348,141.439869 136.738144,141.321945 136.711426,141.208626 L134.940043,131.262208 L142.505739,124.158843 C142.951801,123.739978 143.112395,123.113441 142.919809,122.542582 C142.727364,121.971858 142.215208,121.555838 141.598567,121.469545 Z" id="Shape-Copy-5" stroke="#4A4A4A" fill="#F9F9F9"></path>
            <path d="M124.598567,114.469545 L114.143448,113.006227 L109.467667,103.878912 C109.192042,103.340768 108.623073,103 108.000034,103 C107.376994,103 106.808026,103.340768 106.532401,103.878912 L101.8569,113.006092 L91.40143,114.46941 C90.7849299,114.555702 90.2725627,114.971723 90.0801877,115.542447 C89.8876017,116.11317 90.0481955,116.739842 90.4943987,117.158707 L98.0599543,124.26214 L96.2733134,134.294445 C96.1680556,134.885895 96.4204072,135.483713 96.9244073,135.83647 C97.4284776,136.189091 98.0964465,136.23576 98.6480481,135.956494 L108.000034,131.22042 L117.352089,135.956494 C117.591504,136.077805 117.852996,136.137614 118.113433,136.137614 C119.022293,136.135175 119.752348,135.430203 119.752348,134.560977 C119.752348,134.439869 119.738144,134.321945 119.711426,134.208626 L117.940043,124.262208 L125.505739,117.158843 C125.951801,116.739978 126.112395,116.113441 125.919809,115.542582 C125.727364,114.971858 125.215208,114.555838 124.598567,114.469545 Z" id="Shape-Copy-6" stroke="#4A4A4A" fill="#42D3AA"></path>
        </g>
    </g>
</svg>