<?xml version="1.0" encoding="UTF-8" standalone="no"?>
<svg width="170px" height="180px" viewBox="0 0 170 180" version="1.1" xmlns="http://www.w3.org/2000/svg" xmlns:xlink="http://www.w3.org/1999/xlink">
    <!-- Generator: Sketch 40.3 (33839) - http://www.bohemiancoding.com/sketch -->
    <title>give-advice</title>
    <desc>Created with Sketch.</desc>
    <defs>
        <path d="M102.302658,37.8770519 L146.700382,37.8770519 C149.465188,37.8770519 151.702572,35.6388891 151.702572,32.8779754 L151.702572,18.099174 C151.702572,15.3425863 149.463015,13.1000974 146.700382,13.1000974 L92.7871432,13.1000974 C90.0223378,13.1000974 87.7849541,15.3382602 87.7849541,18.099174 L87.7849541,32.8779754 C87.7849541,35.634563 90.0245104,37.8770519 92.7871432,37.8770519 L93.1570792,37.8770519 L93.8617677,42 L102.302658,37.8770519 Z" id="path-1"></path>
        <mask id="mask-2" maskContentUnits="userSpaceOnUse" maskUnits="objectBoundingBox" x="0" y="0" width="63.9176174" height="28.8999026" fill="white">
            <use xlink:href="#path-1"></use>
        </mask>
        <path d="M78.157584,64.9556116 L35.5125485,64.9556116 C31.914855,64.9556116 29.0023567,62.1217462 29.0023567,58.6259961 L29.0023567,46.3296155 C29.0023567,42.8384293 31.9170689,40 35.5125485,40 L86.4097824,40 C90.0074759,40 92.9199742,42.8338654 92.9199742,46.3296155 L92.9199742,58.6259961 C92.9199742,61.708753 90.647347,64.2825495 87.6401452,64.8425679 L86.8917864,69.25259 L78.157584,64.9556116 Z" id="path-3"></path>
        <mask id="mask-4" maskContentUnits="userSpaceOnUse" maskUnits="objectBoundingBox" x="0" y="0" width="63.9176174" height="29.25259" fill="white">
            <use xlink:href="#path-3"></use>
        </mask>
        <path d="M78.157584,121.545625 L35.5125485,121.545625 C31.914855,121.545625 29.0023567,118.758316 29.0023567,115.319996 L29.0023567,103.225629 C29.0023567,99.7917978 31.9170689,97 35.5125485,97 L86.4097824,97 C90.0074759,97 92.9199742,99.7873088 92.9199742,103.225629 L92.9199742,115.319996 C92.9199742,118.352108 90.647347,120.88362 87.6401452,121.434438 L86.8917864,125.77201 L78.157584,121.545625 Z" id="path-5"></path>
        <mask id="mask-6" maskContentUnits="userSpaceOnUse" maskUnits="objectBoundingBox" x="0" y="0" width="63.9176174" height="28.7720099" fill="white">
            <use xlink:href="#path-5"></use>
        </mask>
        <path d="M101.937511,91.625 L147.632298,91.625 C150.396775,91.625 152.641866,89.3850831 152.641866,86.6220057 L152.641866,77.0029943 C152.641866,74.2321302 150.399006,72 147.632298,72 L92.4293747,72 C89.6648981,72 87.4198072,74.2399169 87.4198072,77.0029943 L87.4198072,86.6220057 C87.4198072,89.3928698 89.662667,91.625 92.4293747,91.625 L92.7919323,91.625 L93.4966209,96 L101.937511,91.625 Z" id="path-7"></path>
        <mask id="mask-8" maskContentUnits="userSpaceOnUse" maskUnits="objectBoundingBox" x="0" y="0" width="65.2220586" height="24" fill="white">
            <use xlink:href="#path-7"></use>
        </mask>
    </defs>
    <g id="Page-1" stroke="none" stroke-width="1" fill="none" fill-rule="evenodd">
        <g id="give-advice">
            <use id="Combined-Shape" stroke="#4A4A4A" mask="url(#mask-2)" stroke-width="2" fill="#BCBCBC" transform="translate(119.743763, 27.550049) scale(-1, 1) translate(-119.743763, -27.550049) " xlink:href="#path-1"></use>
            <use id="Combined-Shape-Copy" stroke="#4A4A4A" mask="url(#mask-4)" stroke-width="2" fill="#9DEBD5" transform="translate(60.961165, 54.626295) scale(-1, 1) translate(-60.961165, -54.626295) " xlink:href="#path-3"></use>
            <use id="Combined-Shape-Copy-4" stroke="#4A4A4A" mask="url(#mask-6)" stroke-width="2" fill="#9DEBD5" transform="translate(60.961165, 111.386005) scale(-1, 1) translate(-60.961165, -111.386005) " xlink:href="#path-5"></use>
            <use id="Combined-Shape-Copy-3" stroke="#4A4A4A" mask="url(#mask-8)" stroke-width="2" fill="#BCBCBC" transform="translate(120.030837, 84.000000) scale(-1, 1) translate(-120.030837, -84.000000) " xlink:href="#path-7"></use>
            <rect id="Rectangle-3" fill="#FFFFFF" transform="translate(118.479941, 19.500000) scale(-1, 1) translate(-118.479941, -19.500000) " x="95" y="18" width="46.9598822" height="3"></rect>
            <rect id="Rectangle-3-Copy" fill="#FFFFFF" transform="translate(61.479941, 46.500000) scale(-1, 1) translate(-61.479941, -46.500000) " x="38" y="45" width="46.9598822" height="3"></rect>
            <rect id="Rectangle-3-Copy-3" fill="#FFFFFF" transform="translate(54.305515, 52.500000) scale(-1, 1) translate(-54.305515, -52.500000) " x="38" y="51" width="32.6110293" height="3"></rect>
            <rect id="Rectangle-3-Copy-4" fill="#FFFFFF" transform="translate(58.218838, 58.500000) scale(-1, 1) translate(-58.218838, -58.500000) " x="38" y="57" width="40.4376763" height="3"></rect>
            <rect id="Rectangle-3-Copy-8" fill="#FFFFFF" transform="translate(60.784382, 103.500000) scale(-1, 1) translate(-60.784382, -103.500000) " x="36" y="102" width="49.5687645" height="3"></rect>
            <rect id="Rectangle-3-Copy-9" fill="#FFFFFF" transform="translate(59.479941, 109.500000) scale(-1, 1) translate(-59.479941, -109.500000) " x="36" y="108" width="46.9598822" height="3"></rect>
            <rect id="Rectangle-3-Copy-10" fill="#FFFFFF" transform="translate(56.218838, 115.500000) scale(-1, 1) translate(-56.218838, -115.500000) " x="36" y="114" width="40.4376763" height="3"></rect>
            <rect id="Rectangle-3-Copy-2" fill="#FFFFFF" transform="translate(104.131088, 25.500000) scale(-1, 1) translate(-104.131088, -25.500000) " x="95" y="24" width="18.2621764" height="3"></rect>
            <rect id="Rectangle-3-Copy-7" fill="#FFFFFF" transform="translate(112.609956, 31.500000) scale(-1, 1) translate(-112.609956, -31.500000) " x="95" y="30" width="35.2199116" height="3"></rect>
            <rect id="Rectangle-3-Copy-5" fill="#FFFFFF" transform="translate(114.305515, 78.500000) scale(-1, 1) translate(-114.305515, -78.500000) " x="98" y="77" width="32.6110293" height="3"></rect>
            <rect id="Rectangle-3-Copy-6" fill="#FFFFFF" transform="translate(120.175500, 84.500000) scale(-1, 1) translate(-120.175500, -84.500000) " x="98" y="83" width="44.3509998" height="3"></rect>
            <g id="avatar-blue-copy-3" transform="translate(148.000000, 157.000000) scale(-1, 1) translate(-148.000000, -157.000000) translate(129.000000, 138.000000)">
                <ellipse id="Oval-3" stroke="#4A4A4A" fill="#F9F9F9" cx="18.8554643" cy="18.7649757" rx="18.8554643" ry="18.7649757"></ellipse>
                <path d="M23.6829028,28.2276607 C23.3024199,27.9910001 22.9219369,27.8490037 22.541454,27.7070074 C22.0182899,27.565011 21.637807,27.1390219 21.5426863,26.6183686 C21.4475655,26.0977152 21.6853674,25.5770619 22.1609711,25.245737 C23.8255839,24.1570982 24.7767912,22.3111455 24.7767912,20.3705285 L24.7767912,15.0219988 C24.7767912,11.8034145 22.1134107,9.15281571 18.8793057,9.15281571 C15.6452008,9.15281571 12.9818203,11.8034145 12.9818203,15.0219988 L12.9818203,20.3705285 C12.9818203,22.3111455 13.9330276,24.1097661 15.5500801,25.245737 C15.9781234,25.5297298 16.2159252,26.0977152 16.1208045,26.6183686 C16.0256837,27.1390219 15.6452008,27.565011 15.1220368,27.7070074 C14.6464331,27.8490037 14.2183898,28.0383322 13.8379069,28.2749928 L9.55747384,30.9255916 C8.74894761,30.3576062 8.03554211,29.7422886 7.36969697,29.0796389 L12.2684148,26.0503831 C10.9367245,24.4884231 10.1757586,22.5478061 10.1757586,20.4651928 L10.1757586,15.0219988 C10.1757586,10.2887866 14.0757087,6.40755266 18.8317454,6.40755266 C23.5877821,6.40755266 27.4877321,10.2887866 27.4877321,15.0219988 L27.4877321,20.3705285 C27.4877321,22.500474 26.7267663,24.4884231 25.3475156,26.0503831 L30.2937938,29.0323068 C29.6279486,29.7422886 28.9145431,30.3576062 28.1060169,30.9255916 L23.6829028,28.2276607 Z" id="Shape-Copy-3" fill="#4A4A4A"></path>
            </g>
            <g id="avatar-blue-copy" transform="translate(23.000000, 157.000000) scale(-1, 1) translate(-23.000000, -157.000000) translate(4.000000, 138.000000)">
                <ellipse id="Oval-3" stroke="#4A4A4A" fill="#42D3AA" cx="18.8554643" cy="18.7649757" rx="18.8554643" ry="18.7649757"></ellipse>
                <path d="M28.1060169,30.9255916 L23.6829028,28.2276607 C23.3024199,27.9910001 22.9219369,27.8490037 22.541454,27.7070074 C22.0182899,27.565011 21.637807,27.1390219 21.5426863,26.6183686 C21.4475655,26.0977152 21.6853674,25.5770619 22.1609711,25.245737 C23.8255839,24.1570982 24.7767912,22.3111455 24.7767912,20.3705285 L24.7767912,15.0219988 C24.7767912,11.8034145 22.1134107,9.15281571 18.8793057,9.15281571 C15.6452008,9.15281571 12.9818203,11.8034145 12.9818203,15.0219988 L12.9818203,20.3705285 C12.9818203,22.3111455 13.9330276,24.1097661 15.5500801,25.245737 C15.9781234,25.5297298 16.2159252,26.0977152 16.1208045,26.6183686 C16.0256837,27.1390219 15.6452008,27.565011 15.1220368,27.7070074 C14.6464331,27.8490037 14.2183898,28.0383322 13.8379069,28.2749928 L9.55747384,30.9255916 C8.74894761,30.3576062 8.03554211,29.7422886 7.36969697,29.0796389 L12.2684148,26.0503831 C10.9367245,24.4884231 10.1757586,22.5478061 10.1757586,20.4651928 L10.1757586,15.0219988 C10.1757586,10.2887866 14.0757087,6.40755266 18.8317454,6.40755266 C23.5877821,6.40755266 27.4877321,10.2887866 27.4877321,15.0219988 L27.4877321,20.3705285 C27.4877321,22.500474 26.7267663,24.4884231 25.3475156,26.0503831 L30.2937938,29.0323068 C29.6279486,29.7422886 28.9145431,30.3576062 28.1060169,30.9255916 L28.1060169,30.9255916 Z" id="Shape-Copy-3" fill="#FFFFFF"></path>
            </g>
        </g>
    </g>
</svg>