<?xml version="1.0" encoding="UTF-8" standalone="no"?>
<svg width="170px" height="180px" viewBox="0 0 170 180" version="1.1" xmlns="http://www.w3.org/2000/svg" xmlns:xlink="http://www.w3.org/1999/xlink">
    <!-- Generator: Sketch 40.3 (33839) - http://www.bohemiancoding.com/sketch -->
    <title>give_advice copy</title>
    <desc>Created with Sketch.</desc>
    <defs>
        <path d="M33.815132,37.8770519 L78.2128568,37.8770519 C80.9776622,37.8770519 83.2150459,35.6388891 83.2150459,32.8779754 L83.2150459,18.099174 C83.2150459,15.3425863 80.9754896,13.1000974 78.2128568,13.1000974 L24.2996176,13.1000974 C21.5348121,13.1000974 19.2974285,15.3382602 19.2974285,18.099174 L19.2974285,32.8779754 C19.2974285,35.634563 21.5369848,37.8770519 24.2996176,37.8770519 L24.6695535,37.8770519 L25.3742421,42 L33.815132,37.8770519 Z" id="path-1"></path>
        <mask id="mask-2" maskContentUnits="userSpaceOnUse" maskUnits="objectBoundingBox" x="0" y="0" width="63.9176174" height="28.8999026" fill="white">
            <use xlink:href="#path-1"></use>
        </mask>
        <path d="M127.235253,64.9556116 L84.5902176,64.9556116 C80.9925241,64.9556116 78.0800258,62.1217462 78.0800258,58.6259961 L78.0800258,46.3296155 C78.0800258,42.8384293 80.994738,40 84.5902176,40 L135.487452,40 C139.085145,40 141.997643,42.8338654 141.997643,46.3296155 L141.997643,58.6259961 C141.997643,61.708753 139.725016,64.2825495 136.717814,64.8425679 L135.969456,69.25259 L127.235253,64.9556116 Z" id="path-3"></path>
        <mask id="mask-4" maskContentUnits="userSpaceOnUse" maskUnits="objectBoundingBox" x="0" y="0" width="63.9176174" height="29.25259" fill="white">
            <use xlink:href="#path-3"></use>
        </mask>
        <path d="M127.235253,121.545625 L84.5902176,121.545625 C80.9925241,121.545625 78.0800258,118.758316 78.0800258,115.319996 L78.0800258,103.225629 C78.0800258,99.7917978 80.994738,97 84.5902176,97 L135.487452,97 C139.085145,97 141.997643,99.7873088 141.997643,103.225629 L141.997643,115.319996 C141.997643,118.352108 139.725016,120.88362 136.717814,121.434438 L135.969456,125.77201 L127.235253,121.545625 Z" id="path-5"></path>
        <mask id="mask-6" maskContentUnits="userSpaceOnUse" maskUnits="objectBoundingBox" x="0" y="0" width="63.9176174" height="28.7720099" fill="white">
            <use xlink:href="#path-5"></use>
        </mask>
        <path d="M32.8758377,91.625 L78.5706253,91.625 C81.3351019,91.625 83.5801928,89.3850831 83.5801928,86.6220057 L83.5801928,77.0029943 C83.5801928,74.2321302 81.337333,72 78.5706253,72 L23.3677017,72 C20.6032251,72 18.3581342,74.2399169 18.3581342,77.0029943 L18.3581342,86.6220057 C18.3581342,89.3928698 20.600994,91.625 23.3677017,91.625 L23.7302592,91.625 L24.4349478,96 L32.8758377,91.625 Z" id="path-7"></path>
        <mask id="mask-8" maskContentUnits="userSpaceOnUse" maskUnits="objectBoundingBox" x="0" y="0" width="65.2220586" height="24" fill="white">
            <use xlink:href="#path-7"></use>
        </mask>
    </defs>
    <g id="Page-1" stroke="none" stroke-width="1" fill="none" fill-rule="evenodd">
        <g id="give_advice-copy">
            <use id="Combined-Shape" stroke="#9D9D9D" mask="url(#mask-2)" stroke-width="2" fill="#D7D7D7" xlink:href="#path-1"></use>
            <use id="Combined-Shape-Copy" stroke="#9D9D9D" mask="url(#mask-4)" stroke-width="2" fill="#9DEBD5" xlink:href="#path-3"></use>
            <use id="Combined-Shape-Copy-4" stroke="#9D9D9D" mask="url(#mask-6)" stroke-width="2" fill="#9DEBD5" xlink:href="#path-5"></use>
            <use id="Combined-Shape-Copy-3" stroke="#9D9D9D" mask="url(#mask-8)" stroke-width="2" fill="#D7D7D7" xlink:href="#path-7"></use>
            <rect id="Rectangle-3" fill="#FFFFFF" x="28.6903714" y="18.197185" width="46.9598822" height="3"></rect>
            <rect id="Rectangle-3-Copy" fill="#FFFFFF" x="85.5943802" y="45.3816522" width="46.9598822" height="3"></rect>
            <rect id="Rectangle-3-Copy-3" fill="#FFFFFF" x="85.5943802" y="51.3282544" width="32.6110293" height="3"></rect>
            <rect id="Rectangle-3-Copy-4" fill="#FFFFFF" x="85.5943802" y="57.2748566" width="40.4376763" height="3"></rect>
            <rect id="Rectangle-3-Copy-8" fill="#FFFFFF" x="85.5943802" y="101.750587" width="49.5687645" height="3"></rect>
            <rect id="Rectangle-3-Copy-9" fill="#FFFFFF" x="85.5943802" y="107.697189" width="46.9598822" height="3"></rect>
            <rect id="Rectangle-3-Copy-10" fill="#FFFFFF" x="85.5943802" y="113.794276" width="40.4376763" height="3"></rect>
            <rect id="Rectangle-3-Copy-2" fill="#FFFFFF" x="28.6903714" y="24.1437872" width="18.2621764" height="3"></rect>
            <rect id="Rectangle-3-Copy-7" fill="#FFFFFF" x="28.6903714" y="30.0903894" width="35.2199116" height="3"></rect>
            <rect id="Rectangle-3-Copy-5" fill="#FFFFFF" x="28.6903714" y="76.8136924" width="32.6110293" height="3"></rect>
            <rect id="Rectangle-3-Copy-6" fill="#FFFFFF" x="28.6903714" y="82.7602946" width="44.3509998" height="3"></rect>
            <g id="avatar-blue-copy-4" transform="translate(129.000000, 138.000000)">
                <ellipse id="Oval-3" stroke="#9D9D9D" fill="#42D3AA" cx="18.8554643" cy="18.7649757" rx="18.8554643" ry="18.7649757"></ellipse>
                <path d="M23.6829028,28.2276607 C23.3024199,27.9910001 22.9219369,27.8490037 22.541454,27.7070074 C22.0182899,27.565011 21.637807,27.1390219 21.5426863,26.6183686 C21.4475655,26.0977152 21.6853674,25.5770619 22.1609711,25.245737 C23.8255839,24.1570982 24.7767912,22.3111455 24.7767912,20.3705285 L24.7767912,15.0219988 C24.7767912,11.8034145 22.1134107,9.15281571 18.8793057,9.15281571 C15.6452008,9.15281571 12.9818203,11.8034145 12.9818203,15.0219988 L12.9818203,20.3705285 C12.9818203,22.3111455 13.9330276,24.1097661 15.5500801,25.245737 C15.9781234,25.5297298 16.2159252,26.0977152 16.1208045,26.6183686 C16.0256837,27.1390219 15.6452008,27.565011 15.1220368,27.7070074 C14.6464331,27.8490037 14.2183898,28.0383322 13.8379069,28.2749928 L9.55747384,30.9255916 C8.74894761,30.3576062 8.03554211,29.7422886 7.36969697,29.0796389 L12.2684148,26.0503831 C10.9367245,24.4884231 10.1757586,22.5478061 10.1757586,20.4651928 L10.1757586,15.0219988 C10.1757586,10.2887866 14.0757087,6.40755266 18.8317454,6.40755266 C23.5877821,6.40755266 27.4877321,10.2887866 27.4877321,15.0219988 L27.4877321,20.3705285 C27.4877321,22.500474 26.7267663,24.4884231 25.3475156,26.0503831 L30.2937938,29.0323068 C29.6279486,29.7422886 28.9145431,30.3576062 28.1060169,30.9255916 L23.6829028,28.2276607 Z" id="Shape-Copy-3" fill="#FFFFFF"></path>
            </g>
            <g id="avatar-blue-copy-3" transform="translate(5.000000, 138.000000)">
                <ellipse id="Oval-3" stroke="#9D9D9D" fill="#9D9D9D" cx="18.8554643" cy="18.7649757" rx="18.8554643" ry="18.7649757"></ellipse>
                <path d="M23.6829028,28.2276607 C23.3024199,27.9910001 22.9219369,27.8490037 22.541454,27.7070074 C22.0182899,27.565011 21.637807,27.1390219 21.5426863,26.6183686 C21.4475655,26.0977152 21.6853674,25.5770619 22.1609711,25.245737 C23.8255839,24.1570982 24.7767912,22.3111455 24.7767912,20.3705285 L24.7767912,15.0219988 C24.7767912,11.8034145 22.1134107,9.15281571 18.8793057,9.15281571 C15.6452008,9.15281571 12.9818203,11.8034145 12.9818203,15.0219988 L12.9818203,20.3705285 C12.9818203,22.3111455 13.9330276,24.1097661 15.5500801,25.245737 C15.9781234,25.5297298 16.2159252,26.0977152 16.1208045,26.6183686 C16.0256837,27.1390219 15.6452008,27.565011 15.1220368,27.7070074 C14.6464331,27.8490037 14.2183898,28.0383322 13.8379069,28.2749928 L9.55747384,30.9255916 C8.74894761,30.3576062 8.03554211,29.7422886 7.36969697,29.0796389 L12.2684148,26.0503831 C10.9367245,24.4884231 10.1757586,22.5478061 10.1757586,20.4651928 L10.1757586,15.0219988 C10.1757586,10.2887866 14.0757087,6.40755266 18.8317454,6.40755266 C23.5877821,6.40755266 27.4877321,10.2887866 27.4877321,15.0219988 L27.4877321,20.3705285 C27.4877321,22.500474 26.7267663,24.4884231 25.3475156,26.0503831 L30.2937938,29.0323068 C29.6279486,29.7422886 28.9145431,30.3576062 28.1060169,30.9255916 L23.6829028,28.2276607 Z" id="Shape-Copy-3" fill="#FFFFFF"></path>
            </g>
        </g>
    </g>
</svg>