<?xml version="1.0" encoding="UTF-8" standalone="no"?>
<svg width="170px" height="180px" viewBox="0 0 170 180" version="1.1" xmlns="http://www.w3.org/2000/svg" xmlns:xlink="http://www.w3.org/1999/xlink">
    <!-- Generator: Sketch 40.3 (33839) - http://www.bohemiancoding.com/sketch -->
    <title>offer</title>
    <desc>Created with Sketch.</desc>
    <defs></defs>
    <g id="Page-1" stroke="none" stroke-width="1" fill="none" fill-rule="evenodd">
        <g id="offer">
            <g id="avatar-blue-copy-3" transform="translate(86.000000, 21.000000) scale(-1, 1) translate(-86.000000, -21.000000) translate(67.000000, 2.000000)">
                <ellipse id="Oval-3" stroke="#4A4A4A" fill="#F9F9F9" cx="18.8554643" cy="18.7649757" rx="18.8554643" ry="18.7649757"></ellipse>
                <path d="M23.6829028,28.2276607 C23.3024199,27.9910001 22.9219369,27.8490037 22.541454,27.7070074 C22.0182899,27.565011 21.637807,27.1390219 21.5426863,26.6183686 C21.4475655,26.0977152 21.6853674,25.5770619 22.1609711,25.245737 C23.8255839,24.1570982 24.7767912,22.3111455 24.7767912,20.3705285 L24.7767912,15.0219988 C24.7767912,11.8034145 22.1134107,9.15281571 18.8793057,9.15281571 C15.6452008,9.15281571 12.9818203,11.8034145 12.9818203,15.0219988 L12.9818203,20.3705285 C12.9818203,22.3111455 13.9330276,24.1097661 15.5500801,25.245737 C15.9781234,25.5297298 16.2159252,26.0977152 16.1208045,26.6183686 C16.0256837,27.1390219 15.6452008,27.565011 15.1220368,27.7070074 C14.6464331,27.8490037 14.2183898,28.0383322 13.8379069,28.2749928 L9.55747384,30.9255916 C8.74894761,30.3576062 8.03554211,29.7422886 7.36969697,29.0796389 L12.2684148,26.0503831 C10.9367245,24.4884231 10.1757586,22.5478061 10.1757586,20.4651928 L10.1757586,15.0219988 C10.1757586,10.2887866 14.0757087,6.40755266 18.8317454,6.40755266 C23.5877821,6.40755266 27.4877321,10.2887866 27.4877321,15.0219988 L27.4877321,20.3705285 C27.4877321,22.500474 26.7267663,24.4884231 25.3475156,26.0503831 L30.2937938,29.0323068 C29.6279486,29.7422886 28.9145431,30.3576062 28.1060169,30.9255916 L23.6829028,28.2276607 Z" id="Shape-Copy-3" fill="#4A4A4A"></path>
            </g>
            <g id="Group-3" transform="translate(4.000000, 49.000000)">
                <g id="Group">
                    <path d="M16.6367857,31.92525 C7.77528571,31.92525 0.565571429,24.76425 0.565571429,15.962625 C0.565571429,7.161 7.77528571,0 16.6367857,0 C25.4991667,0 32.708,7.161 32.708,15.962625 C32.708,24.765125 25.4982857,31.92525 16.6367857,31.92525 L16.6367857,31.92525 Z" id="Shape" fill="#4A4A4A"></path>
                    <path d="M16.6367857,1.75 C8.74697619,1.75 2.32747619,8.126125 2.32747619,15.962625 C2.32747619,23.799125 8.74697619,30.17525 16.6367857,30.17525 C24.5265952,30.17525 30.9460952,23.799125 30.9460952,15.962625 C30.9460952,8.126125 24.5265952,1.75 16.6367857,1.75 L16.6367857,1.75 Z" id="Path" fill="#E8E8E8"></path>
                    <path d="M16.6385476,35.625625 C11.433,35.625625 6.51728571,33.635875 2.79702381,30.022125 C2.44904762,29.684375 2.44288095,29.129625 2.78292857,28.784875 C3.12385714,28.43925 3.6815,28.434 4.02859524,28.770875 C7.4185,32.062625 11.896381,33.875625 16.6385476,33.875625 C26.583619,33.875625 34.6734048,25.839625 34.6734048,15.962625 C34.6734048,10.72225 32.3723571,5.760125 28.3587381,2.3485 C27.989619,2.034375 27.9455714,1.48225 28.2627143,1.11475 C28.5807381,0.748125 29.136619,0.706125 29.5048571,1.019375 C33.909619,4.7635 36.4353095,10.2095 36.4353095,15.962625 C36.4353095,26.80475 27.5544286,35.625625 16.6385476,35.625625 L16.6385476,35.625625 Z" id="Shape" fill="#4A4A4A"></path>
                    <path d="M16.6376667,42 C16.151381,42 15.7567143,41.608875 15.7567143,41.125 L15.7567143,35.119 C15.7567143,34.635125 16.151381,34.244 16.6376667,34.244 C17.1239524,34.244 17.518619,34.635125 17.518619,35.119 L17.518619,41.125 C17.518619,41.608875 17.1239524,42 16.6376667,42 L16.6376667,42 Z" id="Shape" fill="#4A4A4A"></path>
                    <path d="M25.603119,42 L7.67133333,42 C7.18504762,42 6.79038095,41.608875 6.79038095,41.125 C6.79038095,40.641125 7.18504762,40.25 7.67133333,40.25 L25.6022381,40.25 C26.0894048,40.25 26.4831905,40.641125 26.4831905,41.125 C26.4831905,41.608875 26.0894048,42 25.603119,42 L25.603119,42 Z" id="Shape" fill="#4A4A4A"></path>
                </g>
                <g id="Group-2" transform="translate(6.781250, 2.270270)" fill="#42D3AA">
                    <path d="M6.19203794,3.25312696 C4.13498457,4.01307304 5.1005148,3.88505759 1.89232468,4.00805436 C1.68108606,4.0161529 0.617097973,3.79396668 0.401910338,3.79396668 C0.401910338,3.79396668 0.78968014,4.6395177 0.0526425024,4.6395177 C0.0526425024,4.6395177 0.064795229,5.018327 0.0526425024,5.1401144 C0.0381048895,5.28580172 0.830830482,5.30411635 0.78968014,5.43377027 C0.679669635,5.78038448 0.0177623674,6.31391622 0.0526425024,6.62002897 C0.114152751,7.15985118 0.78968014,6.62002897 1.34062828,6.62002897 C1.34062828,6.62002897 2.17228437,6.45552511 2.65454297,6.76951823 C3.13680156,7.08351136 3.0522237,7.44220958 3.34338316,8.36731555 C3.60280856,9.19159233 3.81256721,10.3811386 3.98599042,11.3281693 C4.13182411,12.124539 6.13790293,12.7089226 6.01672647,13.1871428 C5.92183935,13.5616127 8.74601168,14.0652693 7.90186686,14.7654835 C7.1036782,15.4275773 6.0107259,15.3256133 7.08928125,15.1608324 C7.08928125,15.1608324 6.18765676,15.9645865 6.41161429,16.9360594 C6.47394966,17.2064549 7.08928125,17.9078713 7.08928125,17.9078713 C7.08928125,17.9078713 7.856842,18.5275882 7.90186686,18.8177439 C8.04138842,19.7168689 7.90186686,20.746267 7.90186686,21.3532852 C7.90186686,22.5721741 8.24052311,26.4131076 8.24052311,26.4131076 C8.30757736,26.3767611 8.80717691,26.7178458 8.90324152,26.6721251 C9.06236525,26.5963923 8.90324152,25.916942 8.90324152,25.916942 C8.90324152,25.916942 9.01712092,25.1379592 9.25554663,24.805846 C9.68733078,24.2043957 10.1086086,23.747944 10.4169988,23.0310465 C10.9383454,21.8191006 11.690637,21.3882927 12.635991,20.6460653 C13.9011261,19.6527677 15.418976,17.9786284 15.3969702,16.9360594 C15.3836018,16.3027075 14.773499,16.5075369 14.1728341,15.8999258 C13.8458384,15.5691487 14.0100905,15.6549666 13.0894406,15.1608324 C12.1687906,14.6666982 10.7936182,14.3440306 10.5981369,13.9057434 C10.5487609,13.7950379 10.0494454,13.7792514 9.78183051,13.9057434 C9.42087179,14.0763557 8.4625808,14.6717164 8.44493871,14.4302171 C8.41345711,13.9992715 8.2397406,12.7364152 7.90186686,12.961779 C7.56399312,13.1871428 7.08427066,12.8280052 7.08928125,12.678764 C7.0946872,12.5177464 7.08654675,11.6124373 7.56399312,11.3281693 C7.93660167,11.106321 8.43098122,10.9085113 8.96276954,10.7289294 C9.59358231,10.5159074 10.0028587,11.2731186 10.5981369,11.1016938 C10.7587603,11.0554384 11.3230057,12.5045135 11.4650782,12.3771672 C11.584543,12.2700852 11.5582292,12.3330359 11.6543526,12.092564 C11.8269571,11.6607592 11.4133346,11.015795 11.4650782,10.4081323 C11.5115882,9.86193205 12.3726594,9.61480082 12.4254015,9.5611306 C12.5973582,9.38614784 13.0256134,8.67838186 13.3243329,8.19285516 C13.5088416,7.892962 13.8131126,7.98383832 13.8948534,7.85694869 C14.1952234,7.39067208 14.1739676,7.05263283 14.1728341,6.76951823 C14.1704746,6.18014215 13.5755983,5.67662519 13.0894406,5.43377027 C12.7628326,5.27061672 12.8530518,4.79872913 12.4254015,4.80439286 C12.1091949,4.80858064 11.7627574,4.7026483 11.4650782,4.80439286 C11.3068437,4.85847626 11.0441628,6.39702053 10.8788561,6.45390868 C9.987959,6.76049927 9.80737981,6.8801046 9.4317121,6.26607338 C9.35492578,6.14056565 9.17810062,4.99640816 9.60208026,4.6395177 C9.8029364,4.4704444 10.2989678,4.18540682 10.8788561,3.86431425 C12.1243921,3.17464276 11.1250018,2.50980589 11.0502884,2.27929218 C9.94863079,2.27929218 11.5186564,1.13513514 10.4169988,1.13513514 C9.92317582,1.13513514 8.69327264,1.14367956 7.7242597,1.62945009 C6.75524677,2.11522063 8.24909131,2.49318088 6.19203794,3.25312696 Z" id="Path-10"></path>
                    <path d="M11.5409092,1.96755084 C11.5409092,1.96755084 11.9674903,1.88366778 12.1046521,1.96755084 C12.3470787,2.11580991 12.7049758,2.38428105 12.8940387,2.77862834 C12.9858335,2.97009406 12.7763343,3.43615522 12.8940387,3.5081388 C12.9371259,3.53448935 12.8940387,4.03504999 13.1951442,4.30118479 C13.4962498,4.5673196 14.9187502,2.26444 13.1951442,1.31152727 C12.7460097,1.06321882 12.6004736,-0.271359699 11.8033308,0.383670258 L11.0043701,1.09361823" id="Path-11"></path>
                    <path d="M19.8096771,11.6021564 C19.5246992,11.9685268 18.6884517,12.8335498 19.0589333,13.592107 C19.5824798,14.6640633 19.4854833,14.3176265 19.6227665,14.4002373 C20.3292325,14.8253567 20.8534042,14.7599265 21.2025081,14.9074468 C21.4749968,15.0225919 22.5092086,15.0541987 22.7407494,16.5996033 C22.8390288,17.2555632 22.658757,20.0416755 22.854784,19.6249373 C23.050811,19.2081992 23.1653004,18.912568 23.3436356,18.3932215 C23.6214812,17.5840813 23.4736996,18.2514681 23.6881676,17.3073467 C23.9026356,16.3632252 24.0151978,15.8500449 24.0151978,15.8500449 C24.0151978,15.8500449 24.0929585,15.4444469 24.161211,14.9074468 C24.180729,14.7538821 24.161211,13.7715504 24.161211,13.7715504 L24.161211,12.7020957 C24.161211,12.5151697 24.0454652,11.7054937 23.9330521,11.2117458 C23.8725353,10.9459405 23.8702386,10.5226182 23.7618446,10.444128 C23.4948691,10.2508059 23.6184181,10.4487291 23.050811,10.444128 C22.7034831,10.4413125 22.5424225,10.1839109 22.2297993,10.2383175 C21.7524549,10.321391 21.5664608,10.5267085 21.2025081,10.6148334" id="Path-12"></path>
                    <path d="M23.4425774,9.27334182 C23.1317533,9.29274816 22.9573879,9.56077774 22.6905632,9.64407596 C22.5140043,9.69919469 22.4196174,9.93263293 22.1001587,9.89023899 C21.9368352,9.86856506 21.717593,9.64936744 21.392443,9.55696716 C21.0099425,9.44826916 20.936747,9.11041333 20.9188557,8.61492172 C20.9071981,8.29206957 20.8040012,7.80102951 21.0493431,7.61089263 C21.2792655,7.43270566 21.7800598,7.26299452 22.2944431,7.36549171 C22.394172,7.38536392 22.4220094,7.36986765 22.5753899,7.36549171 C22.7466403,7.36060595 22.9479389,7.92342892 23.0343895,8.14818346 C23.3034773,8.84775898 23.4425774,9.27334182 23.4425774,9.27334182 Z" id="Path-13"></path>
                </g>
            </g>
            <g id="Group" transform="translate(33.643133, 147.966074) scale(-1, -1) rotate(131.000000) translate(-33.643133, -147.966074) translate(23.143133, 120.466074)">
                <path d="M20.0429215,10.2603886 C20.0429215,4.69991994 15.5234392,0.132392111 10.0214608,0.132392111 C8.7114659,0.132392111 7.46697077,0.397176333 6.22247564,0.860548722 C5.96047667,0.992940833 5.76397744,1.191529 5.69847769,1.45631322 C5.63297795,1.72109744 5.69847769,1.98588167 5.82947718,2.18446983 L9.23546385,6.5534095 L6.94297282,8.27450694 L3.53698615,3.97176333 C3.40598667,3.77317517 3.14398769,3.64078306 2.88198872,3.64078306 L2.88198872,3.64078306 C2.61998974,3.64078306 2.35799077,3.77317517 2.22699128,3.97176333 C0.785996923,5.75905683 6.92779167e-14,7.94352667 6.92779167e-14,10.2603886 C6.92779167e-14,14.298348 2.42349051,18.0053271 6.09147616,19.5940324 L4.6504818,51.3681391 C4.6504818,53.6850011 7.46697077,54.4793537 10.1524603,54.4793537 L10.2834597,54.4793537 C12.2484521,54.4793537 16.3094362,53.6850011 16.3094362,51.0371588 L14.4099436,19.3954443 C17.8159303,17.6743468 20.0429215,14.1659559 20.0429215,10.2603886 L20.0429215,10.2603886 Z" id="Path" fill="#4A4A4A"></path>
                <path d="M13.1654485,18.0053271 C12.8379497,18.1377192 12.6414505,18.4686995 12.6414505,18.8658758 L14.6064428,51.0371588 C14.6064428,51.8977076 12.1829523,52.6920602 10.2834597,52.6920602 L10.1524603,52.6920602 C8.25296769,52.6920602 6.35347513,52.1624918 6.35347513,51.3019431 L7.79446949,18.9982679 C7.79446949,18.6010916 7.59797026,18.2701113 7.2049718,18.1377192 C3.86448487,16.9461902 1.63749359,13.7687796 1.63749359,10.1941926 C1.63749359,8.60548722 2.03049205,7.149174 2.88198872,5.82525289 L6.22247564,9.99560439 C6.48447462,10.3265847 7.00847257,10.3927807 7.40147103,10.1279965 L11.0039569,7.34776217 C11.2004562,7.21537005 11.3314556,7.01678189 11.3314556,6.75199767 C11.3314556,6.48721344 11.2659559,6.28862528 11.1349564,6.09003711 L7.92546898,1.98588167 C8.58046641,1.7872935 9.30096359,1.72109744 10.0214608,1.72109744 C14.6064428,1.72109744 18.3399282,5.49427261 18.3399282,10.1279965 C18.3399282,13.7025835 16.3094362,16.7476021 13.1654485,18.0053271 L13.1654485,18.0053271 Z" id="Shape" fill="#E8E8E8"></path>
                <rect id="Rectangle-path" stroke="#4A4A4A" fill="#42D3AA" transform="translate(11.810953, 12.181173) rotate(-38.381524) translate(-11.810953, -12.181173) " x="8.01193751" y="9.93048916" width="7.59803112" height="4.50136783"></rect>
                <path d="M7.27047154,48.3231206 C7.27047154,50.1104141 8.7114659,51.5667273 10.479959,51.5667273 C12.2484521,51.5667273 13.6894464,50.1104141 13.6894464,48.3231206 C13.6894464,46.5358271 12.2484521,45.0795138 10.479959,45.0795138 C8.7114659,45.0795138 7.27047154,46.5358271 7.27047154,48.3231206 L7.27047154,48.3231206 Z" id="Path" fill="#4A4A4A"></path>
                <path d="M12.6414505,48.3231206 C12.6414505,49.5146496 11.7244541,50.4413943 10.5454587,50.4413943 C9.36646334,50.4413943 8.44946692,49.5146496 8.44946692,48.3231206 C8.44946692,47.1315916 9.36646334,46.2048468 10.5454587,46.2048468 C11.7244541,46.2048468 12.6414505,47.1315916 12.6414505,48.3231206 L12.6414505,48.3231206 Z" id="Shape" fill="#42D3AA"></path>
            </g>
            <path d="M68.5,36.5 L44.5,56.5" id="Line-Copy-4" stroke="#A5ACAA" stroke-linecap="square"></path>
            <path d="M78.5,44.5 L39.5,136.5" id="Line-Copy-5" stroke="#A5ACAA" stroke-linecap="square"></path>
            <path d="M90.5,44.5 L108.5,115.5" id="Line-Copy-6" stroke="#A5ACAA" stroke-linecap="square"></path>
            <path d="M103.5,39.5 L121.5,57.5" id="Line-Copy-7" stroke="#A5ACAA" stroke-linecap="square"></path>
            <g id="Group" transform="translate(128.000000, 44.000000)">
                <path d="M6.16842105,14.7878269 C7.82105263,12.9895933 9.46315789,11.2019376 11.1263158,9.38254827 C10.4315789,8.45169793 10.0736842,7.43622484 10.2631579,6.27266192 C10.4,5.40527865 10.7894737,4.67540737 11.4315789,4.08304806 C12.6526316,2.94064083 14.4842105,2.73966178 15.9157895,3.59646721 C17.5368421,4.55905107 18.0736842,6.20919485 17.4842105,8.43054224 C18.6526316,9.11810215 19.8210526,9.80566206 21.0421053,10.5143777 C21.7473684,9.65757223 22.6210526,9.10752431 23.7263158,9.00174586 C24.8315789,8.89596741 25.8,9.24503629 26.6631579,9.97490757 C28.1473684,8.67383267 29.6105263,7.38333562 31.0631579,6.11399425 C30.0315789,3.61762289 30.4421053,1.76650007 32.2421053,0.655826373 C33.8421053,-0.327913186 35.8736842,0.0105778447 37.0947368,1.45974257 C38.2842105,2.85601807 38.2736842,4.97158702 37.0736842,6.36786252 C35.6947368,7.96511708 33.7789474,8.10262906 31.6105263,6.73808709 C30.1578947,8.0180063 28.6947368,9.29792551 27.2421053,10.5778447 C28.2,12.9049706 27.9789474,14.4493359 26.5263158,15.6975216 C25.2947368,16.755306 23.5052632,16.892818 22.1157895,16.0360126 C20.5473684,15.0734287 20.0526316,13.5184856 20.6,11.2336711 C19.4947368,10.5884226 18.3789474,9.92201835 17.2526316,9.28734767 C17.1684211,9.23445844 16.9789474,9.25561413 16.9052632,9.32965904 C14.8947368,10.969225 13.9368421,11.0961591 11.7263158,9.97490757 C10.0842105,11.7625633 8.43157895,13.5607969 6.76842105,15.3801862 C7.51578947,16.3745036 7.86315789,17.4640216 7.58947368,18.7016295 C7.38947368,19.621902 6.90526316,20.3623511 6.16842105,20.9229769 C4.68421053,22.0653841 2.58947368,21.9172943 1.26315789,20.6056415 C-0.0947368421,19.2728331 -0.263157895,17.167842 0.863157895,15.6340545 C2.06315789,13.9733329 4,13.6559975 6.16842105,14.7878269 L6.16842105,14.7878269 Z" id="Shape" fill="#4A4A4A"></path>
                <path d="M5.96842105,17.8659797 C5.96842105,16.7341503 5.03157895,15.7821443 3.89473684,15.7821443 C2.76842105,15.7715665 1.82105263,16.7129947 1.81052632,17.844824 C1.8,18.9978091 2.76842105,19.9709708 3.90526316,19.960393 C5.04210526,19.9498151 5.96842105,18.9978091 5.96842105,17.8659797 L5.96842105,17.8659797 Z" id="Path" fill="#42D3AA"></path>
                <path d="M37.9894737,28.8775161 L37.9894737,42.9460496 C37.9894737,44.3211694 37.3578947,44.9452622 36,44.9452622 L32.2631579,44.9452622 C31.1052632,44.9452622 30.4315789,44.2577023 30.4315789,43.1047172 L30.4315789,14.6503149 C30.4315789,13.486752 31.1157895,12.80977 32.2631579,12.80977 C33.5578947,12.7991921 34.8631579,12.7991921 36.1578947,12.80977 C37.3157895,12.80977 37.9894737,13.4973299 37.9894737,14.6503149 C38,19.3891894 37.9894737,24.1386417 37.9894737,28.8775161 L37.9894737,28.8775161 Z" id="Shape" fill="#4A4A4A"></path>
                <path d="M32.1578947,14.5445365 L32.1578947,16.6601054 C32.1473684,20.3623511 32.1368421,24.0645967 32.1368421,27.7562645 C32.1368421,32.7384294 32.1473684,37.7311721 32.1368421,42.713337 C32.1368421,43.1047172 32.2421053,43.2316514 32.6421053,43.2210735 C33.6947368,43.1999178 34.7473684,43.18934 35.8,43.2210735 C36.2105263,43.2316514 36.2947368,43.0835616 36.2947368,42.7027591 C36.2842105,34.2299055 36.2947368,25.7464741 36.2947368,17.2736204 L36.2947368,14.5233808 C34.8842105,14.5445365 33.5368421,14.5445365 32.1578947,14.5445365 L32.1578947,14.5445365 Z" id="Path" fill="#42D3AA"></path>
                <path d="M10.2210526,31.3633096 L10.2210526,19.8863481 C10.2210526,18.5112283 10.8526316,17.8871354 12.2105263,17.8871354 L15.9473684,17.8871354 C17.1052632,17.8977133 17.7789474,18.5746953 17.7789474,19.7276804 L17.7789474,43.1047172 C17.7789474,44.2682802 17.0947368,44.9452622 15.9473684,44.9452622 L12.0526316,44.9452622 C10.8947368,44.9452622 10.2210526,44.2577023 10.2210526,43.1047172 C10.2105263,39.1909147 10.2210526,35.2771121 10.2210526,31.3633096 L10.2210526,31.3633096 Z" id="Shape" fill="#4A4A4A"></path>
                <path d="M11.9157895,19.621902 L11.9157895,22.6788991 L11.9157895,34.9915103 C11.9157895,37.5619266 11.9368421,40.1323429 11.9157895,42.713337 C11.9157895,43.1470286 12.0526316,43.2528071 12.4631579,43.2422292 C13.4631579,43.2210735 14.4631579,43.2104957 15.4631579,43.2422292 C15.9368421,43.2633849 16.0842105,43.1258729 16.0842105,42.6287142 C16.0736842,35.8800493 16.0842105,29.1313844 16.0842105,22.3827194 L16.0842105,19.621902 L11.9157895,19.621902 L11.9157895,19.621902 Z" id="Path" fill="#E8E8E8"></path>
                <path d="M27.8842105,34.0077708 L27.8842105,42.9989388 C27.8842105,44.3000137 27.2421053,44.9452622 25.9473684,44.9558401 L22.1578947,44.9558401 C21,44.9558401 20.3263158,44.2682802 20.3263158,43.1152951 L20.3263158,24.8156237 C20.3263158,23.6520608 21.0105263,22.9750787 22.1578947,22.9750787 C23.4526316,22.9645009 24.7578947,22.9645009 26.0526316,22.9750787 C27.2105263,22.9750787 27.8842105,23.6626386 27.8842105,24.8156237 C27.8947368,27.8726208 27.8842105,30.9401958 27.8842105,34.0077708 L27.8842105,34.0077708 Z" id="Shape" fill="#4A4A4A"></path>
                <path d="M22.0526316,24.6992674 L22.0526316,27.0369711 C22.0526316,32.2835821 22.0526316,37.5407709 22.0315789,42.7873819 C22.0315789,43.1364508 22.1473684,43.2422292 22.4842105,43.2316514 C23.5157895,43.2104957 24.5578947,43.1999178 25.5894737,43.2316514 C26.0421053,43.2422292 26.1894737,43.1364508 26.1894737,42.6498699 C26.1789474,37.5936601 26.1894737,32.5374504 26.1894737,27.4812406 L26.1894737,24.6886896 C24.7684211,24.6992674 23.4315789,24.6992674 22.0526316,24.6992674 L22.0526316,24.6992674 Z" id="Path" fill="#E8E8E8"></path>
                <path d="M7.67368421,36.4935643 L7.67368421,43.051828 C7.67368421,44.278858 7.01052632,44.9452622 5.78947368,44.9452622 L1.94736842,44.9452622 C0.789473684,44.9452622 0.115789474,44.2577023 0.115789474,43.1047172 L0.115789474,29.8824113 C0.115789474,28.7188484 0.8,28.0418664 1.94736842,28.0418664 C3.24210526,28.0312885 4.54736842,28.0312885 5.84210526,28.0418664 C7,28.0418664 7.67368421,28.7294263 7.67368421,29.8824113 C7.68421053,32.082603 7.67368421,34.2933726 7.67368421,36.4935643 L7.67368421,36.4935643 Z" id="Shape" fill="#4A4A4A"></path>
                <path d="M1.84210526,29.7766329 L1.84210526,32.0402917 C1.84210526,35.6156032 1.84210526,39.1909147 1.82105263,42.7662262 C1.82105263,43.1470286 1.95789474,43.2422292 2.31578947,43.2316514 C3.34736842,43.2104957 4.38947368,43.2104957 5.42105263,43.2316514 C5.85263158,43.2422292 5.98947368,43.1152951 5.98947368,42.6710256 C5.97894737,39.2861153 5.98947368,35.9117828 5.98947368,32.5268725 L5.98947368,29.766055 C4.56842105,29.7766329 3.23157895,29.7766329 1.84210526,29.7766329 L1.84210526,29.7766329 Z" id="Path" fill="#E8E8E8"></path>
                <path d="M22.0315789,12.7463029 C22.0105263,13.8781323 22.9263158,14.851294 24.0526316,14.8830275 C25.1894737,14.9147611 26.1684211,13.962755 26.1894737,12.7991921 C26.2,11.6673627 25.2736842,10.7153567 24.1368421,10.694201 C23,10.6836232 22.0421053,11.6144735 22.0315789,12.7463029 L22.0315789,12.7463029 Z" id="Path" fill="#42D3AA"></path>
                <path d="M16.0736842,6.86502122 C16.0736842,5.73319184 15.1368421,4.78118581 14,4.78118581 C12.8736842,4.78118581 11.9263158,5.71203615 11.9157895,6.85444338 C11.9052632,8.00742845 12.8736842,8.98059017 14.0105263,8.97001232 C15.1473684,8.94885663 16.0736842,7.99685061 16.0736842,6.86502122 L16.0736842,6.86502122 Z" id="Path" fill="#42D3AA"></path>
                <path d="M36.2842105,3.91380255 C36.2947368,2.78197316 35.3684211,1.82996714 34.2315789,1.80881145 C33.1052632,1.7982336 32.1473684,2.72908394 32.1263158,3.86091332 C32.1052632,5.0138984 33.0631579,5.99763796 34.2105263,5.99763796 C35.3368421,5.99763796 36.2736842,5.05620978 36.2842105,3.91380255 L36.2842105,3.91380255 Z" id="Path" fill="#42D3AA"></path>
            </g>
            <g id="Group" transform="translate(90.000000, 117.000000)">
                <path d="M17.5791485,19.9630769 L61.8925743,19.9630769 L61.8925743,9.80738462 C61.8925743,7.81476923 60.2658416,6.18338462 58.2769307,6.18338462 L14.038396,6.18338462 C12.0507129,6.18338462 9.42706931,7.47261538 8.20855446,9.048 L4.58186139,13.7409231 C3.36457426,15.3163077 1.9490099,17.4036923 1.43643564,18.3790769 C0.925089109,19.3538462 0.505821782,21.7827692 0.505821782,23.776 L0.505821782,28.528 C0.910356436,27.464 1.49720792,26.3735385 2.34617822,25.344 C5.29209901,21.7729231 10.4166139,19.9630769 17.5791485,19.9630769 Z M40.800297,8.61723077 L48.005802,8.61723077 C48.6018614,8.61723077 49.0898812,9.10584615 49.0898812,9.70461538 L49.0898812,16.9261538 C49.0898812,17.5243077 48.6018614,18.0135385 48.005802,18.0135385 L40.800297,18.0135385 C40.2036238,18.0135385 39.7149901,17.5243077 39.7149901,16.9261538 L39.7149901,9.70461538 C39.7149901,9.10584615 40.2036238,8.61723077 40.800297,8.61723077 Z M30.3186139,8.61723077 L37.523505,8.61723077 C38.1207921,8.61723077 38.6088119,9.10584615 38.6088119,9.70461538 L38.6088119,16.9261538 C38.6088119,17.5243077 38.1207921,18.0135385 37.523505,18.0135385 L30.3186139,18.0135385 C29.7219406,18.0135385 29.2333069,17.5243077 29.2333069,16.9261538 L29.2333069,9.70461538 C29.2333069,9.10584615 29.7219406,8.61723077 30.3186139,8.61723077 Z M19.773703,8.61723077 L26.9792079,8.61723077 C27.5758812,8.61723077 28.0632871,9.10584615 28.0632871,9.70461538 L28.0632871,16.9261538 C28.0632871,17.5243077 27.5758812,18.0135385 26.9792079,18.0135385 L19.773703,18.0135385 C19.1764158,18.0135385 18.688396,17.5243077 18.688396,16.9261538 L18.688396,9.70461538 C18.688396,9.10584615 19.1764158,8.61723077 19.773703,8.61723077 Z M10.1673861,9.46830769 C10.5381584,8.99938462 11.3294257,8.61661538 11.9254851,8.61661538 L16.0322178,8.61661538 C16.629505,8.61661538 17.1175248,9.10523077 17.1175248,9.704 L17.1175248,16.8412308 C17.1175248,17.44 16.629505,17.9292308 16.0322178,17.9292308 L4.56221782,17.9292308 C3.96554455,17.9292308 3.78138614,17.5458462 4.15154455,17.0769231 L10.1673861,9.46830769 Z" id="Combined-Shape" stroke="#4A4A4A" fill="#E8E8E8"></path>
                <path d="M0.510732673,30.2141538 C0.561683168,32.1636923 2.16508911,33.7427692 4.12146535,33.7427692 L6.53209901,33.7427692 C6.53209901,29.6430769 9.84756436,26.3187692 13.9383366,26.3187692 C18.028495,26.3187692 21.3439604,29.6430769 21.3439604,33.7427692 L42.6854653,33.7427692 C42.6854653,29.6430769 46.0015446,26.3187692 50.091703,26.3187692 C54.1812475,26.3187692 57.4979406,29.6430769 57.4979406,33.7427692 L58.2763168,33.7427692 C60.2646139,33.7427692 61.8919604,32.1126154 61.8919604,30.1181538 L61.8919604,20.4670769 L17.5791485,20.4670769 C10.5737624,20.4670769 5.57877228,22.2153846 2.73291089,25.6646154 C1.51316832,27.1427692 0.855108911,28.7544615 0.510732673,30.2141538 Z" id="Shape" stroke="#4A4A4A" fill="#42D3AA"></path>
                <path d="M54.6950495,3.41476923 L52.416396,3.41476923 L52.416396,1.86707692 C52.416396,1.59261538 52.2629307,1.53107692 52.0744752,1.73107692 L51.1628911,2.70153846 L51.1628911,0.971692308 C51.1628911,0.573538462 50.9400594,0.484307692 50.6668911,0.774153846 L48.2691485,3.32676923 C48.2409109,3.35692308 48.2188119,3.38584615 48.1985545,3.41476923 L21.722099,3.41476923 C21.305901,3.41476923 20.9682772,3.75323077 20.9682772,4.16984615 C20.9682772,4.58707692 21.305901,4.92553846 21.722099,4.92553846 L54.6950495,4.92553846 C55.1112475,4.92553846 55.4482574,4.58707692 55.4482574,4.16984615 C55.4476436,3.75323077 55.1106337,3.41476923 54.6950495,3.41476923 L54.6950495,3.41476923 Z" id="Combined-Shape" stroke="#4A4A4A" fill="#42D3AA"></path>
                <path d="M50.0923168,28.04 C46.9505743,28.04 44.4030495,30.5926154 44.4030495,33.7427692 C44.4030495,36.8929231 46.9499604,39.4461538 50.0923168,39.4461538 C53.2346733,39.4461538 55.7815842,36.8935385 55.7815842,33.7427692 C55.7809703,30.5932308 53.2340594,28.04 50.0923168,28.04 L50.0923168,28.04 Z" id="Shape" fill="#4A4A4A"></path>
                <path d="M50.0923168,37.392 C48.0819208,37.392 46.451505,35.7587692 46.451505,33.7427692 C46.451505,31.7267692 48.0813069,30.0941538 50.0923168,30.0941538 C52.1033267,30.0941538 53.7325149,31.7267692 53.7325149,33.7427692 C53.7325149,35.7587692 52.1027129,37.392 50.0923168,37.392 L50.0923168,37.392 Z" id="Path" fill="#E8E8E8"></path>
                <path d="M13.9383366,28.04 C10.7959802,28.04 8.24906931,30.5926154 8.24906931,33.7427692 C8.24906931,36.8929231 10.7953663,39.4461538 13.9383366,39.4461538 C17.0800792,39.4461538 19.6269901,36.8935385 19.6269901,33.7427692 C19.6269901,30.5932308 17.0800792,28.04 13.9383366,28.04 L13.9383366,28.04 Z" id="Shape" fill="#4A4A4A"></path>
                <path d="M13.9383366,37.392 C11.9273267,37.392 10.2969109,35.7587692 10.2969109,33.7427692 C10.2969109,31.7267692 11.9267129,30.0941538 13.9383366,30.0941538 C15.9487327,30.0941538 17.5791485,31.7267692 17.5791485,33.7427692 C17.5791485,35.7587692 15.9487327,37.392 13.9383366,37.392 L13.9383366,37.392 Z" id="Path" fill="#E8E8E8"></path>
                <path d="M4.27186139,30.9341538 C3.20926733,30.9341538 2.34740594,30.0701538 2.34740594,29.0043077 C2.34740594,27.9378462 3.20865347,27.0732308 4.27186139,27.0732308 C5.33506931,27.0732308 6.19693069,27.9372308 6.19693069,29.0043077 C6.19693069,30.0695385 5.33445545,30.9341538 4.27186139,30.9341538 L4.27186139,30.9341538 Z" id="Path" stroke="#4A4A4A" fill="#E8E8E8"></path>
            </g>
        </g>
    </g>
</svg>