<?xml version="1.0" encoding="UTF-8" standalone="no"?>
<svg width="170px" height="180px" viewBox="0 0 170 180" version="1.1" xmlns="http://www.w3.org/2000/svg" xmlns:xlink="http://www.w3.org/1999/xlink">
    <!-- Generator: Sketch 40.3 (33839) - http://www.bohemiancoding.com/sketch -->
    <title>offer copy</title>
    <desc>Created with Sketch.</desc>
    <defs></defs>
    <g id="Page-1" stroke="none" stroke-width="1" fill="none" fill-rule="evenodd">
        <g id="offer-copy">
            <g id="avatar-blue-copy-3" transform="translate(86.000000, 21.000000) scale(-1, 1) translate(-86.000000, -21.000000) translate(67.000000, 2.000000)">
                <ellipse id="Oval-3" stroke="#9D9D9D" fill="#42D3AA" cx="18.8554643" cy="18.7649757" rx="18.8554643" ry="18.7649757"></ellipse>
                <path d="M23.6829028,28.2276607 C23.3024199,27.9910001 22.9219369,27.8490037 22.541454,27.7070074 C22.0182899,27.565011 21.637807,27.1390219 21.5426863,26.6183686 C21.4475655,26.0977152 21.6853674,25.5770619 22.1609711,25.245737 C23.8255839,24.1570982 24.7767912,22.3111455 24.7767912,20.3705285 L24.7767912,15.0219988 C24.7767912,11.8034145 22.1134107,9.15281571 18.8793057,9.15281571 C15.6452008,9.15281571 12.9818203,11.8034145 12.9818203,15.0219988 L12.9818203,20.3705285 C12.9818203,22.3111455 13.9330276,24.1097661 15.5500801,25.245737 C15.9781234,25.5297298 16.2159252,26.0977152 16.1208045,26.6183686 C16.0256837,27.1390219 15.6452008,27.565011 15.1220368,27.7070074 C14.6464331,27.8490037 14.2183898,28.0383322 13.8379069,28.2749928 L9.55747384,30.9255916 C8.74894761,30.3576062 8.03554211,29.7422886 7.36969697,29.0796389 L12.2684148,26.0503831 C10.9367245,24.4884231 10.1757586,22.5478061 10.1757586,20.4651928 L10.1757586,15.0219988 C10.1757586,10.2887866 14.0757087,6.40755266 18.8317454,6.40755266 C23.5877821,6.40755266 27.4877321,10.2887866 27.4877321,15.0219988 L27.4877321,20.3705285 C27.4877321,22.500474 26.7267663,24.4884231 25.3475156,26.0503831 L30.2937938,29.0323068 C29.6279486,29.7422886 28.9145431,30.3576062 28.1060169,30.9255916 L23.6829028,28.2276607 Z" id="Shape-Copy-3" fill="#FFFFFF"></path>
            </g>
            <g id="Group-3" transform="translate(4.000000, 49.000000)">
                <g id="Group">
                    <path d="M14.3885714,27.3645 C6.72457143,27.3645 0.489142857,21.2265 0.489142857,13.68225 C0.489142857,6.138 6.72457143,0 14.3885714,0 C22.0533333,0 28.288,6.138 28.288,13.68225 C28.288,21.22725 22.0525714,27.3645 14.3885714,27.3645 L14.3885714,27.3645 Z" id="Shape" fill="#4A4A4A"></path>
                    <path d="M14.3885714,1.5 C7.56495238,1.5 2.01295238,6.96525 2.01295238,13.68225 C2.01295238,20.39925 7.56495238,25.8645 14.3885714,25.8645 C21.2121905,25.8645 26.7641905,20.39925 26.7641905,13.68225 C26.7641905,6.96525 21.2121905,1.5 14.3885714,1.5 L14.3885714,1.5 Z" id="Path" fill="#E8E8E8"></path>
                    <path d="M14.3900952,30.53625 C9.888,30.53625 5.63657143,28.83075 2.41904762,25.73325 C2.11809524,25.44375 2.1127619,24.96825 2.40685714,24.67275 C2.70171429,24.3765 3.184,24.372 3.48419048,24.66075 C6.416,27.48225 10.2887619,29.03625 14.3900952,29.03625 C22.9912381,29.03625 29.9878095,22.14825 29.9878095,13.68225 C29.9878095,9.1905 27.9977143,4.93725 24.5264762,2.013 C24.2072381,1.74375 24.1691429,1.2705 24.4434286,0.9555 C24.7184762,0.64125 25.1992381,0.60525 25.5177143,0.87375 C29.3272381,4.083 31.511619,8.751 31.511619,13.68225 C31.511619,22.9755 23.8308571,30.53625 14.3900952,30.53625 L14.3900952,30.53625 Z" id="Shape" fill="#4A4A4A"></path>
                    <path d="M14.3893333,36 C13.9687619,36 13.6274286,35.66475 13.6274286,35.25 L13.6274286,30.102 C13.6274286,29.68725 13.9687619,29.352 14.3893333,29.352 C14.8099048,29.352 15.1512381,29.68725 15.1512381,30.102 L15.1512381,35.25 C15.1512381,35.66475 14.8099048,36 14.3893333,36 L14.3893333,36 Z" id="Shape" fill="#4A4A4A"></path>
                    <path d="M22.1432381,36 L6.63466667,36 C6.21409524,36 5.8727619,35.66475 5.8727619,35.25 C5.8727619,34.83525 6.21409524,34.5 6.63466667,34.5 L22.1424762,34.5 C22.5638095,34.5 22.904381,34.83525 22.904381,35.25 C22.904381,35.66475 22.5638095,36 22.1432381,36 L22.1432381,36 Z" id="Shape" fill="#4A4A4A"></path>
                </g>
                <g id="Group-2" transform="translate(5.864865, 1.945946)" fill="#42D3AA">
                    <path d="M5.35527606,2.78839454 C3.57620287,3.43977689 4.41125605,3.33004936 1.63660513,3.43547516 C1.45391227,3.44241677 0.533706355,3.25197144 0.34759813,3.25197144 C0.34759813,3.25197144 0.682966607,3.97672946 0.0455286507,3.97672946 C0.0455286507,3.97672946 0.056039117,4.30142314 0.0455286507,4.40581234 C0.0329555801,4.53068719 0.718556093,4.54638544 0.682966607,4.65751737 C0.587822387,4.95461527 0.0153620475,5.41192819 0.0455286507,5.67431055 C0.098726704,6.1370153 0.682966607,5.67431055 1.1594623,5.67431055 C1.1594623,5.67431055 1.87873243,5.53330723 2.29582095,5.8024442 C2.71290946,6.07158117 2.63976104,6.37903678 2.89157463,7.17198476 C3.11594254,7.87850771 3.29735543,8.89811878 3.44734307,9.70985942 C3.5734695,10.392462 5.30845659,10.8933623 5.20365533,11.3032652 C5.12159079,11.6242394 7.56411821,12.0559451 6.83404701,12.6561287 C6.14372169,13.2236377 5.19846565,13.13624 6.13127027,12.9949992 C6.13127027,12.9949992 5.35148693,13.6839313 5.54517992,14.5166223 C5.5990916,14.7483899 6.13127027,15.349604 6.13127027,15.349604 C6.13127027,15.349604 6.79510659,15.8807899 6.83404701,16.1294948 C6.95471431,16.9001733 6.83404701,17.7825146 6.83404701,18.3028159 C6.83404701,19.3475778 7.1269389,22.6398065 7.1269389,22.6398065 C7.18493177,22.6086524 7.61701787,22.9010107 7.70010078,22.8618215 C7.8377213,22.7969077 7.70010078,22.2145217 7.70010078,22.2145217 C7.70010078,22.2145217 7.79859107,21.5468222 8.00479708,21.2621537 C8.37823203,20.7466249 8.74258044,20.3553806 9.00929624,19.740897 C9.46019066,18.7020862 10.1108212,18.3328223 10.9284246,17.6966274 C12.0225956,16.8452294 13.3353306,15.4102529 13.3162985,14.5166223 C13.3047367,13.9737492 12.7770802,14.1493174 12.2575863,13.6285079 C11.9747792,13.3449846 12.1168351,13.4185428 11.3205973,12.9949992 C10.5243595,12.5714556 9.33502111,12.2948834 9.16595624,11.9192087 C9.12325269,11.8243182 8.69141224,11.810787 8.45996152,11.9192087 C8.14778101,12.0654478 7.3189888,12.5757569 7.30373078,12.3687575 C7.27650344,11.9993755 7.12626214,10.9169273 6.83404701,11.1100963 C6.54183189,11.3032652 6.12693679,10.9954331 6.13127027,10.867512 C6.13594569,10.7294969 6.12890529,9.95351769 6.54183189,9.70985942 C6.86408793,9.51970371 7.29165944,9.35015256 7.75158447,9.19622517 C8.29715226,9.01363493 8.651121,9.66267311 9.16595624,9.51573753 C9.30487379,9.47609003 9.79286978,10.7181544 9.91574333,10.6090004 C10.0190642,10.5172159 9.99630634,10.5711736 10.0794401,10.3650548 C10.2287197,9.99493646 9.87099208,9.44210997 9.91574333,8.92125627 C9.95596819,8.45308461 10.7006784,8.24125785 10.7462932,8.1952548 C10.8950125,8.04526957 11.2653954,7.43861303 11.5237473,7.02244728 C11.6833224,6.765396 11.9464757,6.84328999 12.0171705,6.73452745 C12.27695,6.33486178 12.2585666,6.04511386 12.2575863,5.8024442 C12.2555456,5.2972647 11.741058,4.86567873 11.3205973,4.65751737 C11.0381255,4.51767148 11.1161529,4.1131964 10.7462932,4.11805102 C10.4728172,4.12164055 10.1731956,4.0308414 9.91574333,4.11805102 C9.77889186,4.16440822 9.55170838,5.48316045 9.40874038,5.53192173 C8.63823481,5.79471366 8.48205821,5.89723251 8.15715641,5.37092004 C8.09074662,5.26334198 7.93781675,4.28263557 8.30450184,3.97672946 C8.47821526,3.83180948 8.90721542,3.58749156 9.40874038,3.31226936 C10.4859608,2.72112237 9.62162319,2.15126219 9.55700615,1.95367901 C8.60422122,1.95367901 9.96208117,0.972972973 9.00929624,0.972972973 C8.58220612,0.972972973 7.51850607,0.980296765 6.68044082,1.39667151 C5.84237558,1.81304625 7.13434924,2.13701218 5.35527606,2.78839454 Z" id="Path-10"></path>
                    <path d="M9.98132687,1.68647215 C9.98132687,1.68647215 10.3502619,1.61457238 10.4688883,1.68647215 C10.6785546,1.81355135 10.9880872,2.04366947 11.151601,2.38168143 C11.2309912,2.5457949 11.0498026,2.9452759 11.151601,3.00697611 C11.1888656,3.0295623 11.151601,3.45861428 11.4120166,3.68672982 C11.6724322,3.91484537 12.9027029,1.94094858 11.4120166,1.12416623 C11.023576,0.911330413 10.8977069,-0.232594028 10.2082861,0.328860221 L9.51729306,0.937387058" id="Path-11"></path>
                    <path d="M17.1326937,9.94470545 C16.8862263,10.2587373 16.1629852,11.0001855 16.4834017,11.6503774 C16.9361988,12.5691971 16.8523099,12.2722513 16.9710413,12.3430606 C17.5820389,12.7074486 18.0353766,12.6513656 18.3373043,12.7778115 C18.5729702,12.8765073 19.4674237,12.9035989 19.6676752,14.2282314 C19.7526736,14.7904828 19.5967628,17.178579 19.7662997,16.8213748 C19.9358366,16.4641707 20.0348544,16.2107725 20.1890902,15.7656184 C20.4293892,15.0720697 20.301578,15.6441156 20.4870638,14.8348686 C20.6725497,14.0256216 20.7699008,13.5857527 20.7699008,13.5857527 C20.7699008,13.5857527 20.8371533,13.2380974 20.8961825,12.7778115 C20.9130629,12.6461847 20.8961825,11.804186 20.8961825,11.804186 L20.8961825,10.8875106 C20.8961825,10.7272883 20.7960781,10.0332803 20.6988558,9.61006783 C20.646517,9.38223473 20.6445307,9.01938701 20.5507845,8.95210972 C20.3198868,8.78640503 20.42674,8.95605353 19.9358366,8.95210972 C19.6354449,8.94969644 19.4961492,8.72906651 19.2257723,8.77570075 C18.8129339,8.84690657 18.6520742,9.02289297 18.3373043,9.09842863" id="Path-12"></path>
                    <path d="M20.2746615,7.94857871 C20.0058407,7.96521271 19.8550382,8.19495235 19.6242709,8.26635082 C19.4715713,8.31359545 19.3899394,8.51368537 19.1136508,8.47734771 C18.972398,8.45877005 18.7827832,8.27088638 18.5015723,8.19168614 C18.170761,8.09851642 18.1074568,7.80892571 18.0919833,7.38421862 C18.081901,7.1074882 17.9926497,6.68659673 18.2048373,6.52362226 C18.4036891,6.37089056 18.8368085,6.22542387 19.2816805,6.31327861 C19.3679326,6.33031193 19.3920081,6.31702941 19.5246615,6.31327861 C19.67277,6.30909081 19.8468661,6.7915105 19.9216342,6.98415725 C20.1543588,7.58379341 20.2746615,7.94857871 20.2746615,7.94857871 Z" id="Path-13"></path>
                </g>
            </g>
            <g id="Group" transform="translate(31.874851, 144.665365) scale(-1, -1) rotate(131.000000) translate(-31.874851, -144.665365) translate(22.874851, 120.665365)">
                <path d="M17.3409649,8.87720077 C17.3409649,4.06633067 13.4307473,0.114544526 8.67048244,0.114544526 C7.53708604,0.114544526 6.46035946,0.343633578 5.38363289,0.744539419 C5.15695361,0.859083945 4.98694415,1.03090073 4.93027433,1.25998979 C4.87360451,1.48907884 4.93027433,1.71816789 5.04361397,1.88998468 L7.9904446,5.66995404 L6.0070009,7.15903288 L3.06017027,3.43633578 C2.94683063,3.26451899 2.72015135,3.14997447 2.49347207,3.14997447 L2.49347207,3.14997447 C2.26679279,3.14997447 2.04011351,3.26451899 1.92677388,3.43633578 C0.680037838,4.98268688 7.10542736e-14,6.87267156 7.10542736e-14,8.87720077 C7.10542736e-14,12.3708088 2.09678333,15.5780555 5.27029325,16.9525899 L4.02355721,44.4432761 C4.02355721,46.4478053 6.46035946,47.1350725 8.78382208,47.1350725 L8.89716172,47.1350725 C10.5972563,47.1350725 14.1107851,46.4478053 14.1107851,44.1569148 L12.4673604,16.7807731 C15.414191,15.2916942 17.3409649,12.2562643 17.3409649,8.87720077 L17.3409649,8.87720077 Z" id="Path" fill="#4A4A4A"></path>
                <path d="M11.3906338,15.5780555 C11.1072847,15.6926001 10.9372752,15.9789614 10.9372752,16.322595 L12.6373698,44.1569148 C12.6373698,44.9014542 10.5405865,45.5887214 8.89716172,45.5887214 L8.78382208,45.5887214 C7.1403973,45.5887214 5.49697253,45.1305433 5.49697253,44.3860038 L6.74370856,16.4371395 C6.74370856,16.0935059 6.5736991,15.8071446 6.23368018,15.6926001 C3.34351937,14.6616993 1.4167455,11.9126307 1.4167455,8.8199285 C1.4167455,7.44539419 1.75676442,6.18540441 2.49347207,5.03995915 L5.38363289,8.64811172 C5.61031217,8.93447303 6.06367072,8.99174529 6.40368964,8.76265624 L9.52052974,6.35722119 C9.6905392,6.24267667 9.80387884,6.07085988 9.80387884,5.84177083 C9.80387884,5.61268178 9.74720902,5.44086499 9.63386938,5.2690482 L6.8570482,1.71816789 C7.4237464,1.5463511 8.04711442,1.48907884 8.67048244,1.48907884 C12.6373698,1.48907884 15.8675496,4.75359783 15.8675496,8.76265624 C15.8675496,11.8553584 14.1107851,14.4898825 11.3906338,15.5780555 L11.3906338,15.5780555 Z" id="Shape" fill="#E8E8E8"></path>
                <rect id="Rectangle-path" stroke="#4A4A4A" fill="#42D3AA" transform="translate(10.218736, 10.539047) rotate(-38.381524) translate(-10.218736, -10.539047) " x="6.93186004" y="8.59177457" width="6.57375176" height="3.89454508"></rect>
                <path d="M6.29035,41.808752 C6.29035,43.3551031 7.53708604,44.6150929 9.06717118,44.6150929 C10.5972563,44.6150929 11.8439924,43.3551031 11.8439924,41.808752 C11.8439924,40.2624009 10.5972563,39.0024111 9.06717118,39.0024111 C7.53708604,39.0024111 6.29035,40.2624009 6.29035,41.808752 L6.29035,41.808752 Z" id="Path" fill="#4A4A4A"></path>
                <path d="M10.9372752,41.808752 C10.9372752,42.8396527 10.1438978,43.6414644 9.123841,43.6414644 C8.10378424,43.6414644 7.31040676,42.8396527 7.31040676,41.808752 C7.31040676,40.7778513 8.10378424,39.9760396 9.123841,39.9760396 C10.1438978,39.9760396 10.9372752,40.7778513 10.9372752,41.808752 L10.9372752,41.808752 Z" id="Shape" fill="#42D3AA"></path>
            </g>
            <path d="M68.5,36.5 L44.5,56.5" id="Line-Copy-4" stroke="#A5ACAA" stroke-linecap="square"></path>
            <path d="M78.5,44.5 L39.5,136.5" id="Line-Copy-5" stroke="#A5ACAA" stroke-linecap="square"></path>
            <path d="M90.5,44.5 L108.5,115.5" id="Line-Copy-6" stroke="#A5ACAA" stroke-linecap="square"></path>
            <path d="M103.5,39.5 L121.5,57.5" id="Line-Copy-7" stroke="#A5ACAA" stroke-linecap="square"></path>
            <g id="Group" transform="translate(131.000000, 51.000000)">
                <path d="M5.19445983,12.4874983 C6.58614958,10.9689899 7.96897507,9.45941394 9.36952909,7.92304076 C8.78448753,7.13698937 8.48310249,6.27947875 8.64265928,5.29691451 C8.75789474,4.56445753 9.08587258,3.94812178 9.6265928,3.44790725 C10.6548476,2.48320781 12.1972299,2.31349217 13.4027701,3.03701675 C14.767867,3.84986535 15.2199446,5.2433201 14.7235457,7.11912456 C15.7074792,7.6997307 16.6914127,8.28033685 17.7196676,8.8788078 C18.3135734,8.15528322 19.0493075,7.6907983 19.9800554,7.60147428 C20.9108033,7.51215026 21.7263158,7.80691953 22.4531856,8.42325528 C23.7030471,7.32456981 24.9351801,6.23481674 26.1584488,5.16292848 C25.2897507,3.05488156 25.6354571,1.49171117 27.1512465,0.553808937 C28.498615,-0.276904468 30.2094183,0.00893240221 31.2376731,1.2326715 C32.2393352,2.4117486 32.2304709,4.19822904 31.2199446,5.37730613 C30.0587258,6.72609886 28.4454294,6.84222009 26.6193906,5.68994021 C25.3961219,6.77076087 24.1639889,7.85158154 22.9407202,8.93240221 C23.7473684,10.8975307 23.5612188,12.2016614 22.3379501,13.2556849 C21.300831,14.1489251 19.7939058,14.2650463 18.6238227,13.5415217 C17.3030471,12.7286731 16.8864266,11.41561 17.3473684,9.48621115 C16.4166205,8.94133461 15.4770083,8.37859327 14.5285319,7.84264914 C14.4576177,7.79798713 14.2980609,7.81585193 14.2360111,7.87837875 C12.5429363,9.26290109 11.7362881,9.37008992 9.87479224,8.42325528 C8.49196676,9.93283126 7.10027701,11.4513396 5.69972299,12.9877128 C6.32908587,13.8273586 6.62160665,14.747396 6.39113573,15.7924871 C6.22271468,16.5696061 5.81495845,17.1948743 5.19445983,17.6682916 C3.94459834,18.632991 2.18060942,18.5079374 1.06371191,17.4003195 C-0.0797783934,16.2748368 -0.221606648,14.4972888 0.726869806,13.2020905 C1.73739612,11.7997033 3.36842105,11.5317313 5.19445983,12.4874983 L5.19445983,12.4874983 Z" id="Shape" fill="#4A4A4A"></path>
                <path d="M5.02603878,15.0868273 C5.02603878,14.1310603 4.23711911,13.3271441 3.27977839,13.3271441 C2.33130194,13.3182117 1.53351801,14.1131955 1.52465374,15.0689625 C1.51578947,16.0425944 2.33130194,16.8643754 3.28864266,16.855443 C4.24598338,16.8465106 5.02603878,16.0425944 5.02603878,15.0868273 L5.02603878,15.0868273 Z" id="Path" fill="#42D3AA"></path>
                <path d="M31.9911357,24.385458 L31.9911357,36.265553 C31.9911357,37.4267653 31.4592798,37.953777 30.3157895,37.953777 L27.1689751,37.953777 C26.1939058,37.953777 25.6265928,37.3731708 25.6265928,36.399539 L25.6265928,12.3713771 C25.6265928,11.3888128 26.2027701,10.8171391 27.1689751,10.8171391 C28.2592798,10.8082067 29.3584488,10.8082067 30.4487535,10.8171391 C31.4238227,10.8171391 31.9911357,11.3977452 31.9911357,12.3713771 C32,16.3730932 31.9911357,20.3837418 31.9911357,24.385458 L31.9911357,24.385458 Z" id="Shape" fill="#4A4A4A"></path>
                <path d="M27.0803324,12.282053 L27.0803324,14.0685335 C27.0714681,17.1948743 27.0626039,20.321215 27.0626039,23.4386234 C27.0626039,27.6457848 27.0714681,31.8618787 27.0626039,36.0690401 C27.0626039,36.399539 27.1512465,36.5067278 27.4880886,36.4977954 C28.3745152,36.4799306 29.2609418,36.4709982 30.1473684,36.4977954 C30.4930748,36.5067278 30.5639889,36.3816742 30.5639889,36.0601077 C30.5551247,28.9052535 30.5639889,21.741467 30.5639889,14.5866128 L30.5639889,12.2641882 C29.3761773,12.282053 28.2415512,12.282053 27.0803324,12.282053 L27.0803324,12.282053 Z" id="Path" fill="#42D3AA"></path>
                <path d="M8.60720222,26.4845726 L8.60720222,16.7929162 C8.60720222,15.6317039 9.13905817,15.1046921 10.2825485,15.1046921 L13.4293629,15.1046921 C14.4044321,15.1136245 14.9717452,15.6852983 14.9717452,16.6589301 L14.9717452,36.399539 C14.9717452,37.3821032 14.3955679,37.953777 13.4293629,37.953777 L10.1495845,37.953777 C9.17451524,37.953777 8.60720222,37.3731708 8.60720222,36.399539 C8.59833795,33.0945502 8.60720222,29.7895614 8.60720222,26.4845726 L8.60720222,26.4845726 Z" id="Shape" fill="#4A4A4A"></path>
                <path d="M10.034349,16.5696061 L10.034349,19.1510703 L10.034349,29.5483865 C10.034349,31.7189602 10.0520776,33.889534 10.034349,36.0690401 C10.034349,36.4352686 10.1495845,36.5245926 10.4952909,36.5156602 C11.3373961,36.4977954 12.1795014,36.488863 13.0216066,36.5156602 C13.4204986,36.533525 13.5445983,36.4174038 13.5445983,35.9975809 C13.5357341,30.2987083 13.5445983,24.5998357 13.5445983,18.9009631 L13.5445983,16.5696061 L10.034349,16.5696061 L10.034349,16.5696061 Z" id="Path" fill="#E8E8E8"></path>
                <path d="M23.4814404,28.7176731 L23.4814404,36.310215 C23.4814404,37.4089005 22.9407202,37.953777 21.8504155,37.9627094 L18.6592798,37.9627094 C17.6842105,37.9627094 17.1168975,37.3821032 17.1168975,36.4084714 L17.1168975,20.9554156 C17.1168975,19.9728513 17.6930748,19.4011776 18.6592798,19.4011776 C19.7495845,19.3922452 20.8487535,19.3922452 21.9390582,19.4011776 C22.9141274,19.4011776 23.4814404,19.9817837 23.4814404,20.9554156 C23.4903047,23.5368798 23.4814404,26.1272765 23.4814404,28.7176731 L23.4814404,28.7176731 Z" id="Shape" fill="#4A4A4A"></path>
                <path d="M18.5706371,20.8571592 L18.5706371,22.83122 C18.5706371,27.2616915 18.5706371,31.7010954 18.5529086,36.1315669 C18.5529086,36.4263362 18.6504155,36.5156602 18.934072,36.5067278 C19.8027701,36.488863 20.6803324,36.4799306 21.5490305,36.5067278 C21.9301939,36.5156602 22.0542936,36.4263362 22.0542936,36.0154457 C22.0454294,31.7457575 22.0542936,27.4760692 22.0542936,23.2063809 L22.0542936,20.8482268 C20.8576177,20.8571592 19.731856,20.8571592 18.5706371,20.8571592 L18.5706371,20.8571592 Z" id="Path" fill="#E8E8E8"></path>
                <path d="M6.46204986,30.8167876 L6.46204986,36.354877 C6.46204986,37.3910356 5.90360111,37.953777 4.87534626,37.953777 L1.6398892,37.953777 C0.664819945,37.953777 0.0975069252,37.3731708 0.0975069252,36.399539 L0.0975069252,25.2340362 C0.0975069252,24.251472 0.673684211,23.6797983 1.6398892,23.6797983 C2.73019391,23.6708659 3.82936288,23.6708659 4.91966759,23.6797983 C5.89473684,23.6797983 6.46204986,24.2604044 6.46204986,25.2340362 C6.47091413,27.0919759 6.46204986,28.958848 6.46204986,30.8167876 L6.46204986,30.8167876 Z" id="Shape" fill="#4A4A4A"></path>
                <path d="M1.55124654,25.1447122 L1.55124654,27.0562463 C1.55124654,30.0753982 1.55124654,33.0945502 1.53351801,36.1137021 C1.53351801,36.4352686 1.64875346,36.5156602 1.9501385,36.5067278 C2.81883657,36.488863 3.69639889,36.488863 4.56509695,36.5067278 C4.92853186,36.5156602 5.04376731,36.4084714 5.04376731,36.0333105 C5.03490305,33.1749418 5.04376731,30.3255055 5.04376731,27.4671368 L5.04376731,25.1357798 C3.84709141,25.1447122 2.72132964,25.1447122 1.55124654,25.1447122 L1.55124654,25.1447122 Z" id="Path" fill="#E8E8E8"></path>
                <path d="M18.5529086,10.7635447 C18.5351801,11.7193117 19.3063712,12.5410927 20.2548476,12.5678899 C21.2121884,12.5946871 22.0365651,11.7907709 22.0542936,10.8082067 C22.0631579,9.85243964 21.2831025,9.04852344 20.3257618,9.03065863 C19.3684211,9.02172623 18.5617729,9.80777763 18.5529086,10.7635447 L18.5529086,10.7635447 Z" id="Path" fill="#42D3AA"></path>
                <path d="M13.5357341,5.79712903 C13.5357341,4.841362 12.7468144,4.0374458 11.7894737,4.0374458 C10.8409972,4.0374458 10.0432133,4.82349719 10.034349,5.78819663 C10.0254848,6.76182847 10.8409972,7.58360948 11.798338,7.57467707 C12.7556787,7.55681227 13.5357341,6.75289607 13.5357341,5.79712903 L13.5357341,5.79712903 Z" id="Path" fill="#42D3AA"></path>
                <path d="M30.5551247,3.30498882 C30.5639889,2.34922178 29.7839335,1.54530558 28.8265928,1.52744078 C27.8781163,1.51850838 27.0714681,2.30455977 27.0537396,3.26032681 C27.0360111,4.23395865 27.8426593,5.06467205 28.8088643,5.06467205 C29.7573407,5.06467205 30.5462604,4.26968826 30.5551247,3.30498882 L30.5551247,3.30498882 Z" id="Path" fill="#42D3AA"></path>
            </g>
            <g id="Group" transform="translate(92.000000, 123.000000)">
                <path d="M15.0273366,16.9686154 L52.9081683,16.9686154 L52.9081683,8.33627692 C52.9081683,6.64255385 51.5175743,5.25587692 49.8173762,5.25587692 L12.0005644,5.25587692 C10.3014158,5.25587692 8.05862376,6.35172308 7.0169901,7.6908 L3.91675248,11.6797846 C2.87616832,13.0188615 1.66608911,14.7931385 1.22792079,15.6222154 C0.79080198,16.4507692 0.43239604,18.5153538 0.43239604,20.2096 L0.43239604,24.2488 C0.778207921,23.3444 1.27987129,22.4175077 2.00560396,21.5424 C4.52389109,18.5069846 8.90452475,16.9686154 15.0273366,16.9686154 Z M34.8776733,7.32464615 L41.0372178,7.32464615 C41.5467525,7.32464615 41.9639307,7.73996923 41.9639307,8.24892308 L41.9639307,14.3872308 C41.9639307,14.8956615 41.5467525,15.3115077 41.0372178,15.3115077 L34.8776733,15.3115077 C34.3676139,15.3115077 33.9499109,14.8956615 33.9499109,14.3872308 L33.9499109,8.24892308 C33.9499109,7.73996923 34.3676139,7.32464615 34.8776733,7.32464615 Z M25.9175248,7.32464615 L32.0765446,7.32464615 C32.5871287,7.32464615 33.0043069,7.73996923 33.0043069,8.24892308 L33.0043069,14.3872308 C33.0043069,14.8956615 32.5871287,15.3115077 32.0765446,15.3115077 L25.9175248,15.3115077 C25.4074653,15.3115077 24.9897624,14.8956615 24.9897624,14.3872308 L24.9897624,8.24892308 C24.9897624,7.73996923 25.4074653,7.32464615 25.9175248,7.32464615 Z M16.9033267,7.32464615 L23.0628713,7.32464615 C23.5729307,7.32464615 23.9895842,7.73996923 23.9895842,8.24892308 L23.9895842,14.3872308 C23.9895842,14.8956615 23.5729307,15.3115077 23.0628713,15.3115077 L16.9033267,15.3115077 C16.3927426,15.3115077 15.9755644,14.8956615 15.9755644,14.3872308 L15.9755644,8.24892308 C15.9755644,7.73996923 16.3927426,7.32464615 16.9033267,7.32464615 Z M8.69147525,8.04806154 C9.00842574,7.64947692 9.68483168,7.32412308 10.1943663,7.32412308 L13.7049604,7.32412308 C14.2155446,7.32412308 14.6327228,7.73944615 14.6327228,8.2484 L14.6327228,14.3150462 C14.6327228,14.824 14.2155446,15.2398462 13.7049604,15.2398462 L3.8999604,15.2398462 C3.38990099,15.2398462 3.23247525,14.9139692 3.54890099,14.5153846 L8.69147525,8.04806154 Z" id="Combined-Shape" stroke="#4A4A4A" fill="#E8E8E8"></path>
                <path d="M0.436594059,25.6820308 C0.480148515,27.3391385 1.85080198,28.6813538 3.52318812,28.6813538 L5.58389109,28.6813538 C5.58389109,25.1966154 8.41807921,22.3709538 11.9150297,22.3709538 C15.4114554,22.3709538 18.2456436,25.1966154 18.2456436,28.6813538 L36.4891881,28.6813538 C36.4891881,25.1966154 39.323901,22.3709538 42.8203267,22.3709538 C46.3162277,22.3709538 49.1514653,25.1966154 49.1514653,28.6813538 L49.8168515,28.6813538 C51.5165248,28.6813538 52.9076436,27.2957231 52.9076436,25.6004308 L52.9076436,17.3970154 L15.0273366,17.3970154 C9.03886139,17.3970154 4.7689505,18.8830769 2.33619802,21.8149231 C1.29351485,23.0713538 0.730980198,24.4412923 0.436594059,25.6820308 Z" id="Shape" stroke="#4A4A4A" fill="#42D3AA"></path>
                <path d="M46.7554455,2.90255385 L44.8075644,2.90255385 L44.8075644,1.58701538 C44.8075644,1.35372308 44.6763762,1.30141538 44.5152772,1.47141538 L43.7360198,2.29630769 L43.7360198,0.825938462 C43.7360198,0.487507692 43.5455347,0.411661538 43.3120198,0.658030769 L41.2623366,2.82775385 C41.238198,2.85338462 41.2193069,2.87796923 41.2019901,2.90255385 L18.5688911,2.90255385 C18.2131089,2.90255385 17.924495,3.19024615 17.924495,3.54436923 C17.924495,3.89901538 18.2131089,4.18670769 18.5688911,4.18670769 L46.7554455,4.18670769 C47.1112277,4.18670769 47.3993168,3.89901538 47.3993168,3.54436923 C47.3987921,3.19024615 47.110703,2.90255385 46.7554455,2.90255385 L46.7554455,2.90255385 Z" id="Combined-Shape" stroke="#4A4A4A" fill="#42D3AA"></path>
                <path d="M42.8208515,23.834 C40.1351683,23.834 37.9574455,26.0037231 37.9574455,28.6813538 C37.9574455,31.3589846 40.1346436,33.5292308 42.8208515,33.5292308 C45.5070594,33.5292308 47.6842574,31.3595077 47.6842574,28.6813538 C47.6837327,26.0042462 45.5065347,23.834 42.8208515,23.834 L42.8208515,23.834 Z" id="Shape" fill="#4A4A4A"></path>
                <path d="M42.8208515,31.7832 C41.1022871,31.7832 39.7085446,30.3949538 39.7085446,28.6813538 C39.7085446,26.9677538 41.1017624,25.5800308 42.8208515,25.5800308 C44.5399406,25.5800308 45.9326337,26.9677538 45.9326337,28.6813538 C45.9326337,30.3949538 44.5394158,31.7832 42.8208515,31.7832 L42.8208515,31.7832 Z" id="Path" fill="#E8E8E8"></path>
                <path d="M11.9150297,23.834 C9.22882178,23.834 7.05162376,26.0037231 7.05162376,28.6813538 C7.05162376,31.3589846 9.22829703,33.5292308 11.9150297,33.5292308 C14.6007129,33.5292308 16.7779109,31.3595077 16.7779109,28.6813538 C16.7779109,26.0042462 14.6007129,23.834 11.9150297,23.834 L11.9150297,23.834 Z" id="Shape" fill="#4A4A4A"></path>
                <path d="M11.9150297,31.7832 C10.1959406,31.7832 8.80219802,30.3949538 8.80219802,28.6813538 C8.80219802,26.9677538 10.1954158,25.5800308 11.9150297,25.5800308 C13.6335941,25.5800308 15.0273366,26.9677538 15.0273366,28.6813538 C15.0273366,30.3949538 13.6335941,31.7832 11.9150297,31.7832 L11.9150297,31.7832 Z" id="Path" fill="#E8E8E8"></path>
                <path d="M3.65175248,26.2940308 C2.74340594,26.2940308 2.00665347,25.5596308 2.00665347,24.6536615 C2.00665347,23.7471692 2.74288119,23.0122462 3.65175248,23.0122462 C4.56062376,23.0122462 5.29737624,23.7466462 5.29737624,24.6536615 C5.29737624,25.5591077 4.56009901,26.2940308 3.65175248,26.2940308 L3.65175248,26.2940308 Z" id="Path" stroke="#4A4A4A" fill="#E8E8E8"></path>
            </g>
        </g>
    </g>
</svg>